<?xml version="1.0" encoding="UTF-8"?>
<svg xmlns="http://www.w3.org/2000/svg" version="1.1" viewBox="0 0 2499.49 1991.15">
  <!-- Generator: Adobe Illustrator 29.8.4, SVG Export Plug-In . SVG Version: 2.1.1 Build 6)  -->
  <defs>
    <style>
      .st0, .st1 {
        opacity: .19;
      }

      .st0, .st1, .st2, .st3, .st4, .st5, .st6 {
        isolation: isolate;
      }

      .st0, .st7 {
        fill: #606060;
      }

      .st8 {
        fill: #e4ecf9;
      }

      .st9, .st1, .st3, .st10, .st11, .st12, .st13 {
        stroke-miterlimit: 10;
      }

      .st9, .st1, .st3, .st14, .st12, .st15 {
        stroke: #1d1d1b;
      }

      .st9, .st1, .st3, .st12 {
        stroke-width: .25px;
      }

      .st9, .st2, .st4, .st14 {
        fill: #58b895;
      }

      .st16 {
        fill: #474747;
      }

      .st1, .st11 {
        fill: #58b995;
      }

      .st2 {
        display: none;
      }

      .st2, .st4 {
        mix-blend-mode: multiply;
        opacity: .2;
      }

      .st3 {
        opacity: .59;
      }

      .st3, .st6, .st17 {
        fill: #998675;
      }

      .st10 {
        fill: #1f1f1d;
        stroke: #000;
        stroke-width: 3px;
      }

      .st18 {
        fill: #52d1bd;
      }

      .st7 {
        opacity: .8;
      }

      .st6 {
        opacity: .7;
      }

      .st19, .st13 {
        fill: #fff;
      }

      .st17, .st14 {
        opacity: .9;
      }

      .st11 {
        stroke: #58b995;
        stroke-width: 2px;
      }

      .st14, .st15 {
        stroke-miterlimit: 10;
        stroke-width: .25px;
      }

      .st20 {
        fill: #333;
      }

      .st12, .st15 {
        fill: #3c3c3b;
      }

      .st13 {
        stroke: #606060;
        stroke-width: 4px;
      }
    </style>
  </defs>
  <g class="st5">
    <g id="Laag_1">
      <path class="st2" d="M2262.21,2074.68l-1342.98-124.77c-32.8-3.01-57.11-32.41-54-65.05L1019.42,225.39c3.01-32.8,32.41-57.11,65.05-54l1342.98,124.77c32.8,3.01,57.11,32.41,54,65.05l-154.18,1659.47c-3.01,32.8-32.41,57.11-65.05,54h-.01Z"/>
      <g>
        <path class="st7" d="M1200.99,1638.56l-974.7,121.8c-23.8,3-45.7-14.1-48.6-37.8L27.19,518.16c-3-23.8,14.1-45.7,37.8-48.6l974.7-121.8c23.8-3,45.7,14.1,48.6,37.8l150.5,1204.4c3,23.8-14.1,45.7-37.8,48.6h0Z"/>
        <path class="st19" d="M1188.19,1587.06l-962.1,120.2c-4.7.6-9.1-2.8-9.7-7.5L64.69,485.56c-.6-4.7,2.8-9.1,7.5-9.7l962.1-120.2c4.7-.6,9.1,2.8,9.7,7.5l151.7,1214.2c.6,4.7-2.8,9.1-7.5,9.7h0Z"/>
        <path class="st8" d="M232.29,707.16l-63.8,8c-7.8,1-15-4.6-15.9-12.4l-8-63.8c-1-7.8,4.6-15,12.4-15.9l63.8-8c7.8-1,15,4.6,15.9,12.4l8,63.8c1,7.8-4.6,15-12.4,15.9h0ZM158.49,634.86c-1.2.2-2.1,1.3-2,2.5l8,63.8c.2,1.2,1.3,2.1,2.6,2l63.8-8c1.2-.2,2.1-1.3,2-2.5l-8-63.8c-.2-1.2-1.3-2.1-2.6-2l-63.8,8h0Z"/>
        <path class="st8" d="M252.59,869.76l-63.8,8c-7.8,1-15-4.6-15.9-12.4l-8-63.8c-1-7.8,4.6-15,12.4-15.9l63.8-8c7.8-1,15,4.6,15.9,12.4l8,63.8c1,7.8-4.6,15-12.4,15.9h0ZM178.79,797.46c-1.2.2-2.1,1.3-2,2.5l8,63.8c.2,1.2,1.3,2.1,2.6,2l63.8-8c1.2-.2,2.1-1.3,2-2.5l-8-63.8c-.2-1.2-1.3-2.1-2.5-2l-63.8,8h-.1Z"/>
        <path class="st8" d="M272.89,1032.26l-63.8,8c-7.8,1-15-4.6-15.9-12.4l-8-63.8c-1-7.8,4.6-15,12.4-15.9l63.8-8c7.8-1,15,4.6,15.9,12.4l8,63.8c1,7.8-4.6,15-12.4,15.9h0ZM199.09,960.06c-1.2.2-2.1,1.3-2,2.6l8,63.8c.2,1.2,1.3,2.1,2.6,2l63.8-8c1.2-.2,2.1-1.3,2-2.6l-8-63.8c-.2-1.2-1.3-2.1-2.5-2l-63.8,8h-.1,0Z"/>
        <path class="st8" d="M293.19,1194.86l-63.8,8c-7.8,1-15-4.6-15.9-12.4l-8-63.8c-1-7.8,4.6-15,12.4-15.9l63.8-8c7.8-1,15,4.6,15.9,12.4l8,63.8c1,7.8-4.6,15-12.4,15.9h0ZM219.39,1122.56c-1.2.2-2.1,1.3-2,2.6l8,63.8c.2,1.2,1.3,2.1,2.6,2l63.8-8c1.2-.2,2.1-1.3,2-2.6l-8-63.8c-.2-1.2-1.3-2.1-2.5-2l-63.8,8h-.1Z"/>
        <path class="st18" d="M251.09,617.26h-.3c-3.6,1.9-7,3.8-10.2,5.9l-4.7,3.2-4.4,3.4c-5.8,4.6-11.2,9.5-16.2,14.8-5.2,5.1-9.7,10.7-14.1,16.4-2.5,3.2-4.8,6.5-7,9.9-2.1-1.1-4.3-2.1-6.6-3-3-1.4-6.3-2.5-9.5-3.7-3.3-1.1-6.7-2.1-10.3-2.7h-.3c-.2,0-.5,0-.7.2-.2.3-.2.7,0,1,10.1,8.3,20.3,16.4,30.6,24.5.6.4,1.4.3,1.8-.2,9-11.3,17.9-22.6,26.6-34.1l13.1-17.2c4.4-5.7,8.6-11.5,12.9-17.3.1-.2.2-.5,0-.7-.2-.3-.6-.5-.9-.3h0l.2-.1h0Z"/>
        <path class="st18" d="M291.39,940.16h-.3c-3.6,1.9-7,3.8-10.2,5.9l-4.7,3.2-4.4,3.4c-5.8,4.6-11.2,9.5-16.2,14.8-5.2,5.1-9.7,10.7-14.1,16.4-2.5,3.2-4.8,6.5-7,9.9-2.1-1.1-4.3-2.1-6.6-3-3-1.4-6.3-2.5-9.5-3.7-3.3-1.1-6.7-2.1-10.3-2.7h-.3c-.2-.1-.5,0-.7.2-.2.3-.2.7,0,1,10.1,8.3,20.3,16.4,30.6,24.5.6.4,1.4.3,1.8-.2,9-11.3,17.9-22.6,26.6-34.1l13.1-17.2c4.4-5.7,8.6-11.5,12.9-17.3.1-.2.2-.5,0-.7-.2-.3-.6-.5-.9-.3h0l.2-.1h0Z"/>
        <path class="st18" d="M311.69,1102.76h-.3c-3.6,1.9-7,3.8-10.2,5.9l-4.7,3.2-4.4,3.4c-5.8,4.6-11.2,9.5-16.2,14.8-5.2,5.1-9.7,10.7-14.1,16.4-2.5,3.2-4.8,6.5-7,9.9-2.1-1.1-4.3-2.1-6.5-3-3-1.4-6.3-2.5-9.5-3.7-3.3-1.1-6.7-2.1-10.3-2.7h-.3c-.2-.1-.5,0-.7.2-.2.3-.2.7,0,1,10.1,8.3,20.3,16.4,30.6,24.5.6.4,1.4.3,1.8-.2,9-11.3,17.9-22.6,26.6-34.1l13.1-17.2c4.4-5.7,8.6-11.5,12.9-17.3.1-.2.2-.5,0-.7-.2-.3-.6-.5-.9-.3h0l.1-.1h0Z"/>
        <path class="st4" d="M987.09,554.76l-658.1,82.2c-11,1.4-21-6.4-22.3-17.4h0c-1.4-11,6.4-21,17.4-22.3l658.1-82.2c11-1.4,21,6.4,22.3,17.4h0c1.4,11-6.4,21-17.4,22.3h0Z"/>
        <path class="st4" d="M994.79,616.76l-658.1,82.2c-11,1.4-21-6.4-22.3-17.4h0c-1.4-11,6.4-21,17.4-22.3l658.1-82.2c11-1.4,21,6.4,22.3,17.4h0c1.4,11-6.4,21-17.4,22.3h0Z"/>
        <path class="st4" d="M1007.39,717.36l-658.1,82.2c-11,1.4-21-6.4-22.3-17.4h0c-1.4-11,6.4-21,17.4-22.3l658.1-82.2c11-1.4,21,6.4,22.3,17.4h0c1.4,11-6.4,21-17.4,22.3Z"/>
        <path class="st4" d="M1015.09,779.26l-658.1,82.2c-11,1.4-21-6.4-22.3-17.4h0c-1.4-11,6.4-21,17.4-22.3l658.1-82.2c11-1.4,21,6.4,22.3,17.4h0c1.4,11-6.4,21-17.4,22.3h0Z"/>
        <path class="st4" d="M1027.69,879.86l-658.1,82.2c-11,1.4-21-6.4-22.3-17.4h0c-1.4-11,6.4-21,17.4-22.3l658.1-82.2c11-1.4,21,6.4,22.3,17.4h0c1.4,11-6.4,21-17.4,22.3h0Z"/>
        <path class="st4" d="M1035.39,941.86l-658.1,82.2c-11,1.4-21-6.4-22.3-17.4h0c-1.4-11,6.4-21,17.4-22.3l658.1-82.2c11-1.4,21,6.4,22.3,17.4h0c1.4,11-6.4,21-17.4,22.3Z"/>
        <path class="st4" d="M1047.99,1042.46l-658.1,82.2c-11,1.4-21-6.4-22.3-17.4h0c-1.4-11,6.4-21,17.4-22.3l658.1-82.2c11-1.4,21,6.4,22.3,17.4h0c1.4,11-6.4,21-17.4,22.3h0Z"/>
        <path class="st4" d="M1055.69,1104.46l-658.1,82.2c-11,1.4-21-6.4-22.3-17.4h0c-1.4-11,6.4-21,17.4-22.3l658.1-82.2c11-1.4,21,6.4,22.3,17.4h0c1.4,11-6.4,21-17.4,22.3h0Z"/>
        <path class="st8" d="M334.49,1525.26l-63.8,8c-7.8,1-15-4.6-15.9-12.4l-8-63.8c-1-7.8,4.6-15,12.4-15.9l63.8-8c7.8-1,15,4.6,15.9,12.4l8,63.8c1,7.8-4.6,15-12.4,15.9h0ZM260.69,1452.96c-1.2.2-2.1,1.3-2,2.6l8,63.8c.2,1.2,1.3,2.1,2.5,2l63.8-8c1.2-.2,2.1-1.3,2-2.6l-8-63.8c-.2-1.2-1.3-2.1-2.5-2l-63.8,8Z"/>
        <path class="st18" d="M352.99,1433.06h-.3c-3.6,1.9-7,3.8-10.2,5.9l-4.7,3.2-4.4,3.4c-5.8,4.6-11.2,9.5-16.2,14.8-5.2,5.1-9.7,10.7-14.1,16.4-2.5,3.2-4.8,6.5-7,9.9-2.1-1.1-4.3-2.1-6.5-3-3-1.4-6.3-2.5-9.5-3.7-3.3-1.1-6.7-2.1-10.3-2.7h-.3c-.2-.1-.5,0-.7.2-.2.3-.2.7,0,1,10.1,8.3,20.3,16.4,30.6,24.5.6.4,1.4.3,1.8-.2,9-11.3,17.9-22.6,26.6-34.1l13.1-17.2c4.4-5.7,8.6-11.5,12.9-17.3.1-.2.2-.5,0-.7-.2-.3-.6-.5-.9-.3h0l.1-.1h0Z"/>
        <path class="st4" d="M1089.29,1372.86l-658.1,82.2c-11,1.4-21-6.4-22.3-17.4h0c-1.4-11,6.4-21,17.4-22.3l658.1-82.2c11-1.4,21,6.4,22.3,17.4h0c1.4,11-6.4,21-17.4,22.3Z"/>
        <path class="st4" d="M1096.99,1434.76l-658.1,82.2c-11,1.4-21-6.4-22.3-17.4h0c-1.4-11,6.4-21,17.4-22.3l658.1-82.2c11-1.4,21,6.4,22.3,17.4h0c1.4,11-6.4,21-17.4,22.3Z"/>
        <path class="st8" d="M314.09,1362.26l-63.8,8c-7.8,1-15-4.6-15.9-12.4l-8-63.8c-1-7.8,4.6-15,12.4-15.9l63.8-8c7.8-1,15,4.6,15.9,12.4l8,63.8c1,7.8-4.6,15-12.4,15.9h0ZM240.29,1289.96c-1.2.2-2.1,1.3-2,2.6l8,63.8c.2,1.2,1.3,2.1,2.5,2l63.8-8c1.2-.2,2.1-1.3,2-2.6l-8-63.8c-.2-1.2-1.3-2.1-2.5-2l-63.8,8h0Z"/>
        <path class="st4" d="M1068.89,1209.86l-658.1,82.2c-11,1.4-21-6.4-22.3-17.4h0c-1.4-11,6.4-21,17.4-22.3l658.1-82.2c11-1.4,21,6.4,22.3,17.4h0c1.4,11-6.4,21-17.4,22.3Z"/>
        <path class="st4" d="M1076.59,1271.76l-658.1,82.2c-11,1.4-21-6.4-22.3-17.4h0c-1.4-11,6.4-21,17.4-22.3l658.1-82.2c11-1.4,21,6.4,22.3,17.4h0c1.4,11-6.4,21-17.4,22.3Z"/>
        <path class="st18" d="M1133.19,1517.16l-871.1,108.8c-3.2.4-6.2-1.9-6.6-5.2h0c-.4-3.2,1.9-6.2,5.2-6.6l871.1-108.8c3.2-.4,6.2,1.9,6.6,5.2h0c.4,3.2-1.9,6.2-5.2,6.6Z"/>
        <g>
          <circle class="st20" cx="133.04" cy="506.21" r="15.7" transform="translate(-374.87 379.81) rotate(-61.3)"/>
          <path class="st16" d="M133.89,511.56h0c-5.8.7-11-3.4-11.8-9.2l-9.3-74.3c-.7-5.8,3.4-11,9.1-11.8h0c5.8-.7,11,3.4,11.8,9.2l9.3,74.3c.7,5.8-3.4,11-9.1,11.8h0Z"/>
        </g>
        <g>
          <circle class="st20" cx="204.1" cy="496.63" r="15.7" transform="translate(-309.76 340.91) rotate(-50.8)"/>
          <path class="st16" d="M204.69,502.76h0c-5.8.7-11-3.4-11.8-9.2l-9.3-74.3c-.7-5.8,3.4-11,9.1-11.8h0c5.8-.7,11,3.4,11.8,9.2l9.3,74.3c.7,5.8-3.4,11-9.1,11.8h0Z"/>
        </g>
        <g>
          <circle class="st20" cx="274.69" cy="487.96" r="15.7"/>
          <path class="st16" d="M275.49,493.96h0c-5.8.7-11-3.4-11.8-9.2l-9.3-74.3c-.7-5.8,3.4-11,9.1-11.8h0c5.8-.7,11,3.4,11.8,9.2l9.3,74.3c.7,5.8-3.4,11-9.1,11.8h0Z"/>
        </g>
        <g>
          <circle class="st20" cx="345.49" cy="479.16" r="15.7"/>
          <path class="st16" d="M346.19,485.06h0c-5.8.7-11-3.4-11.8-9.2l-9.3-74.3c-.7-5.8,3.4-11,9.1-11.8h0c5.8-.7,11,3.4,11.8,9.2l9.3,74.3c.7,5.8-3.4,11-9.1,11.8Z"/>
        </g>
        <g>
          <circle class="st20" cx="416.29" cy="470.36" r="15.7"/>
          <path class="st16" d="M416.99,476.26h0c-5.8.7-11-3.4-11.8-9.2l-9.3-74.3c-.7-5.8,3.4-11,9.1-11.8h0c5.8-.7,11,3.4,11.8,9.2l9.3,74.3c.7,5.8-3.4,11-9.1,11.8h0Z"/>
        </g>
        <g>
          <circle class="st20" cx="487.09" cy="461.36" r="15.7"/>
          <path class="st16" d="M487.79,467.36h0c-5.8.7-11-3.4-11.8-9.2l-9.3-74.3c-.7-5.8,3.4-11,9.1-11.8h0c5.8-.7,11,3.4,11.8,9.2l9.3,74.3c.7,5.8-3.4,11-9.2,11.8h.1Z"/>
        </g>
        <g>
          <circle class="st20" cx="557.79" cy="452.66" r="15.7"/>
          <path class="st16" d="M558.59,458.56h0c-5.8.7-11-3.4-11.8-9.2l-9.3-74.3c-.7-5.8,3.4-11,9.2-11.8h0c5.8-.7,11,3.4,11.8,9.2l9.3,74.3c.7,5.8-3.4,11-9.2,11.8Z"/>
        </g>
        <g>
          <circle class="st20" cx="628.69" cy="443.76" r="15.7"/>
          <path class="st16" d="M629.39,449.66h0c-5.8.7-11-3.4-11.8-9.2l-9.3-74.3c-.7-5.8,3.4-11,9.2-11.8h0c5.8-.7,11,3.4,11.8,9.2l9.3,74.3c.7,5.8-3.4,11-9.2,11.8h0Z"/>
        </g>
        <g>
          <circle class="st20" cx="699.49" cy="434.96" r="15.7"/>
          <path class="st16" d="M700.19,440.86h0c-5.8.7-11-3.4-11.8-9.2l-9.3-74.3c-.7-5.8,3.4-11,9.2-11.8h0c5.8-.7,11,3.4,11.8,9.2l9.3,74.3c.7,5.8-3.4,11-9.2,11.8h0Z"/>
        </g>
        <g>
          <circle class="st20" cx="770.19" cy="426.16" r="15.7"/>
          <path class="st16" d="M770.99,431.96h0c-5.8.7-11-3.4-11.8-9.2l-9.3-74.3c-.7-5.8,3.4-11,9.2-11.8h0c5.8-.7,11,3.4,11.8,9.1l9.3,74.3c.7,5.8-3.4,11-9.2,11.8h0v.1h0Z"/>
        </g>
        <g>
          <circle class="st20" cx="841.09" cy="417.26" r="15.7"/>
          <path class="st16" d="M841.79,423.16h0c-5.8.7-11-3.4-11.8-9.2l-9.3-74.3c-.7-5.8,3.4-11,9.2-11.8h0c5.8-.7,11,3.4,11.8,9.1l9.3,74.3c.7,5.8-3.4,11-9.2,11.8h0v.1h0Z"/>
        </g>
        <g>
          <circle class="st20" cx="911.89" cy="408.36" r="15.7"/>
          <path class="st16" d="M912.59,414.36h0c-5.8.7-11-3.4-11.8-9.2l-9.3-74.3c-.7-5.8,3.4-11,9.2-11.8h0c5.8-.7,11,3.4,11.8,9.1l9.3,74.3c.7,5.8-3.4,11-9.2,11.8h0v.1h0Z"/>
        </g>
        <g>
          <circle class="st20" cx="982.6" cy="399.47" r="15.7"/>
          <path class="st16" d="M983.39,405.46h0c-5.8.7-11-3.4-11.8-9.2l-9.3-74.3c-.7-5.8,3.4-11,9.2-11.8h0c5.8-.7,11,3.4,11.8,9.1l9.3,74.3c.7,5.8-3.4,11-9.2,11.8h0v.1h0Z"/>
        </g>
        <path class="st13" d="M2252.64,1972.85l-1344.9-141.9c-18.5-1.9-32-18.6-30-37.1L1060.44,62.35c2-18.5,18.6-32,37.1-30l1344.9,141.9c18.5,2,32,18.6,30,37.1l-182.7,1731.5c-1.9,18.5-18.6,32-37.1,30h0Z"/>
        <rect class="st14" x="1088.86" y="582.72" width="449.2" height="203.4" transform="translate(495.49 1919.15) rotate(-84)"/>
        <rect class="st17" x="1479.06" y="725.98" width="224.6" height="203.4" transform="translate(601.88 2323.8) rotate(-84)"/>
        <rect class="st15" x="1730.64" y="715.76" width="310.7" height="203.4" transform="translate(875.86 2607.67) rotate(-84)"/>
        <g>
          <circle class="st9" cx="1793.48" cy="1232.28" r="18"/>
          <path class="st1" d="M2106.2,1285.02l-252.1-26.6c-9.8-1-17-9.9-16-19.7h0c1-9.8,9.9-17,19.7-16l252.1,26.6c9.8,1,17,9.9,16,19.7h0c-1,9.8-9.9,17-19.7,16Z"/>
          <path class="st1" d="M2099.4,1349.62l-314.7-33.2c-9.8-1-17-9.9-16-19.7h0c1-9.8,9.9-17,19.7-16l314.7,33.2c9.8,1,17,9.9,16,19.7h0c-1,9.8-9.9,17-19.7,16h0Z"/>
        </g>
        <g>
          <circle class="st6" cx="1777.44" cy="1384.41" r="18"/>
          <path class="st1" d="M2090.3,1436.12l-252.1-26.6c-9.8-1-17-9.9-16-19.7h0c1-9.8,9.9-17,19.7-16l252.1,26.6c9.8,1,17,9.9,16,19.7h0c-1,9.8-9.9,17-19.7,16Z"/>
          <path class="st1" d="M2083.5,1500.72l-314.7-33.2c-9.8-1-17-9.9-16-19.7h0c1-9.8,9.9-17,19.7-16l314.7,33.2c9.8,1,17,9.9,16,19.7h0c-1,9.8-9.9,17-19.7,16Z"/>
        </g>
        <g>
          <circle class="st12" cx="1761.6" cy="1536.12" r="18"/>
          <path class="st1" d="M2074.4,1587.12l-252.1-26.6c-9.8-1-17-9.9-16-19.7h0c1-9.8,9.9-17,19.7-16l252.1,26.6c9.8,1,17,9.9,16,19.7h0c-1,9.8-9.9,17-19.7,16Z"/>
          <path class="st1" d="M2067.5,1651.72l-314.7-33.2c-9.8-1-17-9.9-16-19.7h0c1-9.8,9.9-17,19.7-16l314.7,33.2c9.8,1,17,9.9,16,19.7h0c-1,9.8-9.9,17-19.7,16Z"/>
        </g>
        <path class="st3" d="M1498.64,262.55l-284.2-30c-13.9-1.5-24-14-22.5-27.9h0c1.5-13.9,14-24,27.9-22.5l284.2,30c13.9,1.5,24,14,22.6,27.9h0c-1.5,13.9-14,24-27.9,22.5h-.1Z"/>
        <path class="st1" d="M2198.69,461.57l-997.6-105.2c-13.9-1.5-24-14-22.5-27.9h0c1.5-13.9,14-24,27.9-22.5l997.6,105.2c13.9,1.5,24,14,22.6,27.9h0c-1.5,13.9-14,24-27.9,22.5h-.1Z"/>
        <path class="st0" d="M2222.69,1033.72l-1102.72-116.42c-15.36-1.64-26.2-8.53-24.13-15.37h0c2.06-6.84,16.21-11.08,31.57-9.44l1102.72,116.42c15.36,1.64,26.2,8.53,24.25,15.37h0c-2.06,6.84-16.21,11.08-31.57,9.44h-.11Z"/>
        <g>
          <path class="st11" d="M1571.1,1342.49c-1.32-51.91-18.52-97.94-50.92-137.08-43.78-52.74-99.17-81.51-164.88-85.56-9.7-.6-19.85-.69-30-.21-48.81,2.36-93.61,19.89-133.19,52.26-36.4,29.84-62.46,68.41-75.58,111.75-12.78,42.55-12.74,88.62.15,133.29,13.01,44.95,40.62,83.95,82.13,115.99,43.99,33.82,95.52,49.6,153.13,46.86,49.48-2.32,94.3-19.42,133.09-50.63,51.65-41.65,80.6-97.59,86.03-166.2.11-1.77.08-3.69.07-5.75,0-4.51.06-9.59-.06-14.67l.04-.03ZM1326.5,1536.94l-1.1-.07c-48.91-3.01-93.49-24.79-125.67-61.19-33.7-38.27-50.53-87.97-47.19-140.02,2.86-48.77,25.09-93.72,62.79-126.78,37.56-33.07,85.46-49.59,134.62-46.7l.42.03c102.98,6.34,181.86,94.81,175.85,197.13-6.21,105.47-93.94,183.41-199.73,177.61h0Z"/>
          <circle class="st10" cx="1339.25" cy="1349.78" r="24.64"/>
        </g>
      </g>
    </g>
  </g>
</svg>