<?xml version="1.0" encoding="UTF-8"?>
<svg id="Laag_2" xmlns="http://www.w3.org/2000/svg" version="1.1" viewBox="0 0 752.35 648.3">
  <!-- Generator: Adobe Illustrator 29.8.4, SVG Export Plug-In . SVG Version: 2.1.1 Build 6)  -->
  <defs>
    <style>
      .st0 {
        fill: #52b795;
      }

      .st1 {
        fill: #3fa982;
      }

      .st2 {
        fill: #050505;
      }

      .st3 {
        fill: #4bb38f;
      }

      .st4 {
        fill: #dbe3c7;
      }

      .st5 {
        fill: #38a37a;
      }

      .st6 {
        fill: #98d1c6;
      }

      .st7 {
        fill: #6fc1a8;
      }

      .st8 {
        fill: #606060;
      }

      .st9 {
        fill: #f2f5ea;
      }

      .st10 {
        fill: #58b995;
        opacity: .76;
        stroke: #58b995;
        stroke-width: 2px;
      }

      .st10, .st11 {
        stroke-miterlimit: 10;
      }

      .st11 {
        fill: #1f1f1d;
        opacity: .55;
        stroke: #000;
        stroke-width: 3px;
      }

      .st12 {
        fill: #25976a;
      }

      .st13 {
        opacity: .3;
      }

      .st14 {
        fill: #d7dfbf;
      }

      .st15 {
        fill: #f1f3e7;
      }

      .st16 {
        fill: #998675;
      }
    </style>
  </defs>
  <g class="st13">
    <rect class="st0" x="128.3" y="560.18" width="531.57" height="14.13"/>
    <rect class="st0" x="226.38" y="540.82" width="382.64" height="22.39"/>
    <path class="st16" d="M508.69,139.5c-7.72-50.84-51.73-89.91-104.68-89.91s-96.96,39.09-104.68,89.91h209.38-.01Z"/>
    <path class="st16" d="M503.93,139.5c-7.37-48.52-49.37-85.82-99.94-85.82s-92.55,37.3-99.92,85.82h199.86Z"/>
    <path class="st2" d="M404,63.15h0c-50.99,0-92.33,41.34-92.33,92.33v388.01h184.65V155.47c0-50.99-41.34-92.33-92.33-92.33h.01Z"/>
    <path class="st5" d="M321.86,533.31V155.47c0-45.3,36.84-82.14,82.14-82.14s82.14,36.86,82.14,82.14v377.84h-164.3.01Z"/>
    <g>
      <rect class="st12" x="321.86" y="334.31" width="164.29" height="23.76"/>
      <rect class="st12" x="321.86" y="420.84" width="164.29" height="23.76"/>
      <rect class="st12" x="321.86" y="247.8" width="164.29" height="23.76"/>
    </g>
    <g>
      <rect class="st6" x="301.65" y="242.38" width="204.69" height="23.76" rx=".99" ry=".99"/>
      <rect class="st6" x="301.65" y="328.89" width="204.69" height="23.76" rx=".99" ry=".99"/>
      <rect class="st6" x="301.65" y="415.4" width="204.69" height="23.76" rx=".99" ry=".99"/>
    </g>
    <path class="st4" d="M338.14,242.29c-7.74-50.84-51.73-89.91-104.7-89.91s-96.96,39.09-104.68,89.91h209.38Z"/>
    <path class="st16" d="M333.38,242.29c-7.37-48.52-49.37-85.82-99.94-85.82s-92.55,37.3-99.92,85.82h199.86Z"/>
    <path class="st4" d="M233.44,165.96h0c-50.99,0-92.33,41.34-92.33,92.33v302.17h184.65v-302.17c0-50.99-41.34-92.33-92.33-92.33h.01Z"/>
    <path class="st3" d="M151.31,550.28v-291.98c0-45.3,36.84-82.14,82.14-82.14s82.14,36.86,82.14,82.14v291.98h-164.29Z"/>
    <g>
      <rect class="st1" x="151.31" y="351.28" width="164.29" height="23.76"/>
      <rect class="st1" x="151.31" y="437.8" width="164.29" height="23.76"/>
      <rect class="st1" x="151.31" y="264.77" width="164.29" height="23.76"/>
    </g>
    <g>
      <rect class="st15" x="131.1" y="259.33" width="204.69" height="23.76" rx=".99" ry=".99"/>
      <rect class="st15" x="131.1" y="345.86" width="204.69" height="23.76" rx=".99" ry=".99"/>
      <rect class="st15" x="131.1" y="432.37" width="204.69" height="23.76" rx=".99" ry=".99"/>
    </g>
    <path class="st4" d="M659.71,408.59c-7.74-50.84-51.73-89.91-104.7-89.91s-96.96,39.09-104.68,89.91h209.38Z"/>
    <path class="st16" d="M654.95,408.59c-7.37-48.52-49.37-85.82-99.92-85.82s-92.55,37.3-99.92,85.82h199.86-.01Z"/>
    <path class="st4" d="M555.03,332.25h0c-50.99,0-92.33,41.34-92.33,92.33v135.87h184.65v-135.87c0-50.99-41.34-92.33-92.33-92.33h.01Z"/>
    <path class="st3" d="M472.88,550.28v-125.7c0-45.3,36.84-82.14,82.14-82.14s82.14,36.84,82.14,82.14v125.7h-164.3.01Z"/>
    <rect class="st15" x="453.16" y="474.35" width="204.69" height="23.76" rx=".99" ry=".99"/>
    <polygon class="st7" points="161.59 466.62 161.59 550.22 164.5 550.22 164.5 469.16 232.58 469.16 232.58 550.22 235.51 550.22 235.51 469.16 302.91 469.16 302.91 550.22 305.83 550.22 305.83 466.62 161.59 466.62"/>
    <g>
      <rect class="st9" x="472.77" y="547.95" width="164.3" height="20.2"/>
      <rect class="st14" x="472.77" y="566.47" width="164.3" height="1.67"/>
      <rect class="st14" x="472.77" y="562.47" width="164.3" height="1.67"/>
      <rect class="st14" x="472.77" y="558.47" width="164.3" height="1.67"/>
      <rect class="st14" x="472.77" y="554.45" width="164.3" height="1.67"/>
      <rect class="st14" x="472.77" y="550.44" width="164.3" height="1.67"/>
    </g>
    <g>
      <rect class="st9" x="151.25" y="547.95" width="164.3" height="20.2"/>
      <rect class="st14" x="151.25" y="566.47" width="164.3" height="1.67"/>
      <rect class="st14" x="151.25" y="562.47" width="164.3" height="1.67"/>
      <rect class="st14" x="151.25" y="558.47" width="164.3" height="1.67"/>
      <rect class="st14" x="151.25" y="554.45" width="164.3" height="1.67"/>
      <rect class="st14" x="151.25" y="550.44" width="164.3" height="1.67"/>
    </g>
  </g>
  <g>
    <path class="st8" d="M136.15,567.32l-1.95-1.07c7.88-14.29,2.84-49.61,2.78-49.96l2.2-.32c0,.09,1.32,9.16,1.61,19.92.4,14.55-1.17,25.13-4.65,31.44Z"/>
    <g>
      <path class="st8" d="M139.64,519.41s-6.65-36.8-35.8-32.89c0,0,1.28,28.58,35.8,32.89Z"/>
      <path class="st8" d="M172.91,467.57s-46.4,14.68-35.5,52.13c0,0,36.81-6.3,35.5-52.13Z"/>
    </g>
  </g>
  <g>
    <path class="st8" d="M570.08,316.73s6.65-36.8,35.8-32.89c0,0-1.28,28.58-35.8,32.89Z"/>
    <path class="st8" d="M565.16,409.34s-46.4-14.68-35.5-52.13c0,0,36.81,6.3,35.5,52.13Z"/>
    <path class="st8" d="M606.34,473.28s-29.59-38.64.82-63.06c0,0,26.54,26.28-.82,63.06Z"/>
  </g>
  <g>
    <path class="st10" d="M464.83,150.2c-1.19-13.62-6.45-25.43-15.6-35.2-12.36-13.15-27.37-19.81-44.71-19.81-2.56,0-5.23.14-7.89.43-12.79,1.41-24.28,6.74-34.15,15.88-9.08,8.43-15.31,18.98-18.05,30.58-2.67,11.39-1.91,23.49,2.19,35.02,4.14,11.6,12.03,21.4,23.45,29.15,12.11,8.18,25.9,11.49,40.99,9.84,12.96-1.41,24.46-6.63,34.15-15.46,12.9-11.78,19.6-26.94,19.92-45.06,0-.47-.04-.97-.07-1.51-.07-1.19-.14-2.52-.25-3.85h0ZM403.71,205.25h-.29c-12.9,0-24.97-5-34.01-14.05-9.47-9.51-14.7-22.3-14.66-36.03-.04-12.86,5.08-25.03,14.45-34.33,9.33-9.3,21.65-14.41,34.62-14.45h.11c27.16,0,49.32,21.97,49.39,48.95.07,27.81-21.72,49.71-49.61,49.89h0Z"/>
    <circle class="st11" cx="404.03" cy="155.87" r="6.49"/>
  </g>
</svg>