<?xml version="1.0" encoding="UTF-8"?>
<svg id="Laag_2" data-name="Laag 2" xmlns="http://www.w3.org/2000/svg" viewBox="0 0 429.41 379.02">
  <defs>
    <style>
      .cls-1 {
        fill: #040506;
      }

      .cls-2 {
        fill: #3fa982;
      }

      .cls-3 {
        fill: #61a188;
      }

      .cls-4 {
        fill: #dbe3c7;
      }

      .cls-5 {
        fill: #4bb38f;
      }

      .cls-6 {
        fill: #38a37a;
      }

      .cls-7 {
        fill: #6fc1a8;
      }

      .cls-8 {
        fill: #f2f5ea;
      }

      .cls-9 {
        fill: #98d1c6;
      }

      .cls-10 {
        fill: #46894c;
      }

      .cls-11 {
        fill: #13261f;
        opacity: .4;
      }

      .cls-12 {
        fill: #25976a;
      }

      .cls-13 {
        opacity: .17;
      }

      .cls-14 {
        opacity: .3;
      }

      .cls-15 {
        fill: #025039;
      }

      .cls-16 {
        fill: #1f1f1e;
      }

      .cls-17 {
        fill: #58b995;
      }

      .cls-18 {
        fill: #002721;
      }

      .cls-19 {
        fill: #52b795;
      }

      .cls-20 {
        fill: #d7dfbf;
      }

      .cls-21 {
        fill: #f1f3e7;
      }
    </style>
  </defs>
  <g id="Laag_1-2" data-name="Laag 1">
    <path class="cls-11" d="M408.97,379.02H20.44c-11.29,0-20.44-9.15-20.44-20.44h429.41c0,11.29-9.15,20.44-20.44,20.44Z"/>
    <g class="cls-14">
      <rect class="cls-19" x="33.35" y="348.4" width="362.71" height="9.64"/>
      <rect class="cls-19" x="100.27" y="335.19" width="261.09" height="15.28"/>
      <g>
        <path class="cls-19" d="M292.9,61.35C287.63,26.66,257.6,0,221.47,0s-66.16,26.67-71.43,61.35h142.87Z"/>
        <path class="cls-10" d="M289.65,61.35c-5.03-33.11-33.69-58.56-68.19-58.56s-63.15,25.45-68.18,58.56h136.37Z"/>
        <path class="cls-19" d="M221.47,9.26h0c-34.79,0-63,28.21-63,63v264.75h125.99V72.25c0-34.79-28.21-63-63-63h0Z"/>
        <path class="cls-6" d="M165.42,330.06V72.25c0-30.91,25.14-56.05,56.05-56.05s56.05,25.15,56.05,56.05v257.81h-112.11Z"/>
        <g class="cls-13">
          <path class="cls-7" d="M165.98,64.37c-.36,2.58-.57,5.21-.57,7.88v1.38l66.93,256.43h2.98L165.98,64.37h0Z"/>
          <polygon class="cls-7" points="203.05 330.06 221.53 330.06 165.42 115.05 165.42 185.85 203.05 330.06"/>
          <path class="cls-7" d="M200.15,20.43c-3.44,1.42-6.71,3.17-9.77,5.22l79.45,304.42h7.7v-13.15L200.14,20.43h0Z"/>
          <path class="cls-7" d="M252.5,25.6c-1.15-.77-2.34-1.49-3.55-2.18l28.58,109.49v-11.43l-25.03-95.89h0Z"/>
          <path class="cls-7" d="M232.51,17.3c-3.57-.72-7.26-1.1-11.04-1.1-2.57,0-5.1.19-7.59.53l63.64,243.84v-70.8L232.51,17.29h0Z"/>
        </g>
        <g>
          <rect class="cls-12" x="165.42" y="194.28" width="112.1" height="16.21"/>
          <rect class="cls-12" x="165.42" y="253.32" width="112.1" height="16.21"/>
          <rect class="cls-12" x="165.42" y="76.22" width="112.1" height="16.21"/>
          <rect class="cls-12" x="165.42" y="135.25" width="112.1" height="16.21"/>
        </g>
        <g>
          <rect class="cls-9" x="151.63" y="72.51" width="139.67" height="16.21" rx=".99" ry=".99"/>
          <rect class="cls-9" x="151.63" y="131.55" width="139.67" height="16.21" rx=".99" ry=".99"/>
          <rect class="cls-9" x="151.63" y="190.58" width="139.67" height="16.21" rx=".99" ry=".99"/>
          <rect class="cls-9" x="151.63" y="249.61" width="139.67" height="16.21" rx=".99" ry=".99"/>
        </g>
      </g>
      <g>
        <path class="cls-4" d="M176.53,131.49c-5.28-34.69-35.3-61.35-71.44-61.35s-66.16,26.67-71.43,61.35h142.87Z"/>
        <path class="cls-3" d="M173.28,131.49c-5.03-33.11-33.69-58.56-68.19-58.56s-63.15,25.45-68.18,58.56h136.37Z"/>
        <path class="cls-4" d="M105.09,79.41h0c-34.79,0-63,28.21-63,63v206.18h125.99v-206.18c0-34.79-28.21-63-63-63h0Z"/>
        <path class="cls-5" d="M49.05,341.64v-199.23c0-30.91,25.14-56.05,56.05-56.05s56.05,25.15,56.05,56.05v199.23H49.05Z"/>
        <g class="cls-13">
          <path class="cls-7" d="M89.74,88.51c-3.52,1-6.89,2.34-10.09,3.98l65.03,249.15h11.13L89.75,88.51h0Z"/>
          <polygon class="cls-7" points="77.91 341.64 96.38 341.64 49.05 160.25 49.05 231.05 77.91 341.64"/>
          <path class="cls-7" d="M52.87,122.08c-.64,1.63-1.2,3.29-1.68,4.99l56,214.57h2.98L52.87,122.08h0Z"/>
          <path class="cls-7" d="M144.39,102.48c-1.25-1.22-2.54-2.39-3.9-3.5l20.65,79.13v-11.43l-16.76-64.2h0Z"/>
          <path class="cls-7" d="M123.15,89.35c-5.67-1.93-11.73-3-18.05-3-.41,0-.8.02-1.2.03l57.26,219.39v-70.8l-38.01-145.61h0Z"/>
        </g>
        <g>
          <rect class="cls-2" x="49.05" y="205.86" width="112.1" height="16.21"/>
          <rect class="cls-2" x="49.05" y="264.89" width="112.1" height="16.21"/>
          <rect class="cls-2" x="49.05" y="146.83" width="112.1" height="16.21"/>
        </g>
        <g>
          <rect class="cls-21" x="35.26" y="143.12" width="139.67" height="16.21" rx=".99" ry=".99"/>
          <rect class="cls-21" x="35.26" y="202.16" width="139.67" height="16.21" rx=".99" ry=".99"/>
          <rect class="cls-21" x="35.26" y="261.19" width="139.67" height="16.21" rx=".99" ry=".99"/>
        </g>
      </g>
      <g>
        <path class="cls-4" d="M395.95,244.96c-5.28-34.69-35.3-61.35-71.44-61.35s-66.16,26.67-71.43,61.35h142.87Z"/>
        <path class="cls-3" d="M392.7,244.96c-5.03-33.11-33.69-58.56-68.18-58.56s-63.15,25.45-68.18,58.56h136.37,0Z"/>
        <path class="cls-4" d="M324.52,192.87h0c-34.79,0-63,28.21-63,63v92.71h125.99v-92.71c0-34.79-28.21-63-63-63h0Z"/>
        <path class="cls-5" d="M268.47,341.64v-85.77c0-30.91,25.14-56.05,56.05-56.05s56.05,25.14,56.05,56.05v85.77h-112.11Z"/>
        <g class="cls-13">
          <g>
            <path class="cls-7" d="M349.93,205.94c-6.11-3.12-12.86-5.17-20.01-5.85l36.94,141.55h13.7v-18.3l-30.64-117.4h0Z"/>
            <path class="cls-7" d="M368.87,221.66l11.7,44.83v-10.62c0-.3-.02-.6-.02-.9l-6.71-25.71c-1.45-2.68-3.12-5.21-4.97-7.6Z"/>
            <path class="cls-7" d="M274.26,341.64h18.48l-23.95-91.77c-.21,1.98-.32,3.97-.32,6.01v63.55l5.8,22.22h0Z"/>
            <path class="cls-7" d="M276.58,226.85c-.72,1.19-1.39,2.42-2.03,3.67l29,111.12h2.98l-29.96-114.78h0Z"/>
            <path class="cls-7" d="M315.35,200.58c-3.6.6-7.08,1.52-10.41,2.77l36.09,138.29h11.13l-36.81-141.06h0Z"/>
          </g>
        </g>
        <polygon class="cls-7" points="275.31 284.6 275.31 341.64 277.29 341.64 277.29 286.33 323.75 286.33 323.75 341.64 325.74 341.64 325.74 286.33 371.74 286.33 371.74 341.64 373.73 341.64 373.73 284.6 275.31 284.6"/>
        <rect class="cls-2" x="268.47" y="264.89" width="112.1" height="16.21"/>
        <rect class="cls-21" x="254.68" y="261.19" width="139.67" height="16.21" rx=".99" ry=".99"/>
      </g>
      <polygon class="cls-7" points="56.06 284.56 56.06 341.6 58.05 341.6 58.05 286.29 104.5 286.29 104.5 341.6 106.5 341.6 106.5 286.29 152.49 286.29 152.49 341.6 154.48 341.6 154.48 284.56 56.06 284.56"/>
      <g>
        <rect class="cls-8" x="268.39" y="340.05" width="112.11" height="13.78"/>
        <rect class="cls-20" x="268.39" y="352.69" width="112.11" height="1.14"/>
        <rect class="cls-20" x="268.39" y="349.96" width="112.11" height="1.14"/>
        <rect class="cls-20" x="268.39" y="347.23" width="112.11" height="1.14"/>
        <rect class="cls-20" x="268.39" y="344.49" width="112.11" height="1.14"/>
        <rect class="cls-20" x="268.39" y="341.75" width="112.11" height="1.14"/>
      </g>
      <g>
        <rect class="cls-8" x="49.01" y="340.05" width="112.11" height="13.78"/>
        <rect class="cls-20" x="49.01" y="352.69" width="112.11" height="1.14"/>
        <rect class="cls-20" x="49.01" y="349.96" width="112.11" height="1.14"/>
        <rect class="cls-20" x="49.01" y="347.23" width="112.11" height="1.14"/>
        <rect class="cls-20" x="49.01" y="344.49" width="112.11" height="1.14"/>
        <rect class="cls-20" x="49.01" y="341.75" width="112.11" height="1.14"/>
      </g>
    </g>
    <g>
      <path class="cls-17" d="M342.74,230.16c-.36-4.1-1.94-7.65-4.69-10.59-3.72-3.96-8.24-5.96-13.45-5.96-.77,0-1.57.04-2.37.13-3.85.42-7.3,2.03-10.28,4.78-2.73,2.54-4.61,5.71-5.43,9.2-.8,3.43-.58,7.07.66,10.54,1.25,3.49,3.62,6.44,7.06,8.77,3.64,2.46,7.79,3.46,12.33,2.96,3.9-.42,7.36-1.99,10.28-4.65,3.88-3.54,5.9-8.11,5.99-13.56,0-.14-.01-.29-.02-.45-.02-.36-.04-.76-.08-1.16h0ZM324.35,246.73h-.09c-3.88,0-7.51-1.51-10.23-4.23-2.85-2.86-4.42-6.71-4.41-10.84-.01-3.87,1.53-7.53,4.35-10.33,2.81-2.8,6.52-4.34,10.42-4.35h.03c8.17,0,14.84,6.61,14.86,14.73.02,8.37-6.53,14.96-14.93,15.01h0Z"/>
      <circle class="cls-16" cx="324.45" cy="231.87" r="1.95"/>
    </g>
    <g>
      <path class="cls-18" d="M61.85,352.73c0,1.17-10.12,2.12-22.6,2.12-12.48,0-22.6-.95-22.6-2.12,0-1.17,10.12-2.12,22.6-2.12,12.48,0,22.6.95,22.6,2.12Z"/>
      <g>
        <path class="cls-15" d="M40.4,353.16l-1.33-.73c5.38-9.75,1.94-33.85,1.9-34.09l1.5-.22c0,.06.9,6.25,1.1,13.59.27,9.93-.8,17.15-3.17,21.45Z"/>
        <g>
          <path class="cls-1" d="M42.78,320.47s-4.54-25.11-24.43-22.44c0,0,.87,19.5,24.43,22.44Z"/>
          <path class="cls-1" d="M65.48,285.1s-31.66,10.02-24.22,35.57c0,0,25.12-4.3,24.22-35.57Z"/>
        </g>
      </g>
    </g>
    <g>
      <path class="cls-18" d="M366.74,352.24c0,1.17,10.12,2.12,22.6,2.12,12.48,0,22.6-.95,22.6-2.12,0-1.17-10.12-2.12-22.6-2.12-12.48,0-22.6.95-22.6,2.12Z"/>
      <g>
        <path class="cls-15" d="M388.19,352.67l1.33-.73c-5.38-9.75-1.94-33.85-1.9-34.09l-1.5-.22c0,.06-.9,6.25-1.1,13.59-.27,9.93.8,17.15,3.17,21.45Z"/>
        <g>
          <path class="cls-1" d="M385.8,319.98s4.54-25.11,24.43-22.44c0,0-.87,19.5-24.43,22.44Z"/>
          <path class="cls-1" d="M363.11,284.6s31.66,10.02,24.22,35.57c0,0-25.12-4.3-24.22-35.57Z"/>
        </g>
      </g>
    </g>
    <g>
      <path class="cls-17" d="M239.77,39.97c-.36-4.1-1.94-7.65-4.69-10.59-3.72-3.96-8.24-5.96-13.45-5.96-.77,0-1.57.04-2.37.13-3.85.42-7.3,2.03-10.28,4.78-2.73,2.54-4.61,5.71-5.43,9.2-.8,3.43-.58,7.07.66,10.54,1.25,3.49,3.62,6.44,7.06,8.77,3.64,2.46,7.79,3.46,12.33,2.96,3.9-.42,7.36-1.99,10.28-4.65,3.88-3.54,5.9-8.11,5.99-13.56,0-.14-.01-.29-.02-.45-.02-.36-.04-.76-.08-1.16h0ZM221.38,56.54h-.09c-3.88,0-7.51-1.51-10.23-4.23-2.85-2.86-4.42-6.71-4.41-10.84-.01-3.87,1.53-7.53,4.35-10.33,2.81-2.8,6.52-4.34,10.42-4.35h.03c8.17,0,14.84,6.61,14.86,14.73.02,8.37-6.53,14.96-14.93,15.01h0Z"/>
      <circle class="cls-16" cx="221.47" cy="41.68" r="1.95"/>
    </g>
    <g>
      <path class="cls-17" d="M122.2,113.35c-.36-4.1-1.94-7.65-4.69-10.59-3.72-3.96-8.24-5.96-13.45-5.96-.77,0-1.57.04-2.37.13-3.85.42-7.3,2.03-10.28,4.78-2.73,2.54-4.61,5.71-5.43,9.2-.8,3.43-.58,7.07.66,10.54,1.25,3.49,3.62,6.44,7.06,8.77,3.64,2.46,7.79,3.46,12.33,2.96,3.9-.42,7.36-1.99,10.28-4.65,3.88-3.54,5.9-8.11,5.99-13.56,0-.14-.01-.29-.02-.45-.02-.36-.04-.76-.08-1.16h0ZM103.8,129.91h-.09c-3.88,0-7.51-1.51-10.23-4.23-2.85-2.86-4.42-6.71-4.41-10.84-.01-3.87,1.53-7.53,4.35-10.33,2.81-2.8,6.52-4.34,10.42-4.35h.03c8.17,0,14.84,6.61,14.86,14.73.02,8.37-6.53,14.96-14.93,15.01h0Z"/>
      <circle class="cls-16" cx="103.9" cy="115.06" r="1.95"/>
    </g>
  </g>
</svg>