<?xml version="1.0" encoding="UTF-8"?>
<svg id="Laag_1" xmlns="http://www.w3.org/2000/svg" version="1.1" viewBox="0 0 992.13 992.13">
  <!-- Generator: Adobe Illustrator 29.7.1, SVG Export Plug-In . SVG Version: 2.1.1 Build 8)  -->
  <defs>
    <style>
      .st0 {
        fill: #dee3ba;
      }

      .st1 {
        fill: #6cbea4;
      }

      .st2 {
        fill: #cdb763;
      }

      .st3 {
        fill: #68ad97;
      }

      .st4 {
        fill: #eef4e1;
      }

      .st5 {
        fill: #c4ceb1;
      }

      .st6 {
        fill: #d7dcb5;
      }

      .st7 {
        fill: #4c947c;
      }

      .st8 {
        fill: #cdc49b;
      }

      .st9 {
        fill: #fff;
      }

      .st10 {
        fill: #57b895;
        opacity: .1;
      }

      .st11 {
        fill: #7e6348;
      }

      .st12 {
        opacity: .4;
      }

      .st13 {
        opacity: .17;
      }

      .st14 {
        fill: #b5b98e;
      }

      .st15 {
        fill: #98a36f;
      }

      .st16 {
        fill: #90cdba;
      }

      .st17 {
        fill: #a39972;
      }

      .st18 {
        fill: #b0dacf;
      }

      .st19 {
        fill: #f7f6d3;
      }
    </style>
  </defs>
  <rect class="st10" x="0" width="992.13" height="992.13"/>
  <g class="st12">
    <path class="st15" d="M850.32,829.07H179.51c-19.49,0-35.29-15.8-35.29-35.29h741.39c0,19.49-15.8,35.29-35.29,35.29Z"/>
    <g>
      <rect class="st14" x="201.8" y="784.84" width="626.24" height="16.64"/>
      <rect class="st14" x="317.34" y="762.03" width="450.79" height="26.38"/>
      <g>
        <path class="st14" d="M649.93,289.23c-9.11-59.89-60.95-105.92-123.34-105.92s-114.22,46.04-123.33,105.92h246.67Z"/>
        <path class="st17" d="M644.32,289.23c-8.69-57.16-58.17-101.1-117.73-101.1s-109.03,43.94-117.72,101.1h235.45Z"/>
        <path class="st14" d="M526.6,199.29h0c-60.07,0-108.77,48.7-108.77,108.77v457.11h217.53v-457.11c0-60.07-48.7-108.77-108.77-108.77Z"/>
        <path class="st3" d="M429.82,753.18v-445.12c0-53.36,43.41-96.78,96.78-96.78s96.78,43.42,96.78,96.78v445.12h-193.55Z"/>
        <g class="st13">
          <path class="st18" d="M430.8,294.45c-.63,4.45-.98,8.99-.98,13.61v2.38l115.55,442.74h5.15l-119.72-458.73Z"/>
          <polygon class="st18" points="494.8 753.18 526.71 753.18 429.82 381.95 429.82 504.19 494.8 753.18"/>
          <path class="st18" d="M489.78,218.58c-5.94,2.45-11.59,5.47-16.87,9.01l137.17,525.59h13.29v-22.71l-133.6-511.89Z"/>
          <path class="st18" d="M580.17,227.51c-1.99-1.33-4.04-2.57-6.13-3.76l49.34,189.04v-19.73l-43.21-165.55Z"/>
          <path class="st18" d="M545.66,213.18c-6.17-1.24-12.54-1.9-19.06-1.9-4.44,0-8.81.33-13.1.91l109.87,421v-122.24l-77.71-297.78Z"/>
        </g>
        <g>
          <rect class="st7" x="429.82" y="518.75" width="193.55" height="27.98"/>
          <rect class="st7" x="429.82" y="620.68" width="193.55" height="27.98"/>
          <rect class="st7" x="429.82" y="314.9" width="193.55" height="27.98"/>
          <rect class="st7" x="429.82" y="416.83" width="193.55" height="27.98"/>
        </g>
        <g>
          <rect class="st5" x="406.02" y="308.51" width="241.15" height="27.98" rx=".99" ry=".99"/>
          <rect class="st5" x="406.02" y="410.44" width="241.15" height="27.98" rx=".99" ry=".99"/>
          <rect class="st5" x="406.02" y="512.36" width="241.15" height="27.98" rx=".99" ry=".99"/>
          <rect class="st5" x="406.02" y="614.28" width="241.15" height="27.98" rx=".99" ry=".99"/>
        </g>
      </g>
      <g>
        <path class="st0" d="M449.01,410.34c-9.11-59.89-60.94-105.92-123.34-105.92s-114.22,46.04-123.33,105.92h246.67Z"/>
        <path class="st8" d="M443.4,410.34c-8.69-57.16-58.17-101.1-117.73-101.1s-109.03,43.94-117.72,101.1h235.45Z"/>
        <path class="st0" d="M325.67,320.41h0c-60.07,0-108.77,48.7-108.77,108.77v355.98h217.53v-355.98c0-60.07-48.7-108.77-108.77-108.77Z"/>
        <path class="st16" d="M228.9,773.16v-343.98c0-53.36,43.41-96.78,96.78-96.78s96.78,43.42,96.78,96.78v343.98h-193.55Z"/>
        <g class="st13">
          <path class="st18" d="M299.16,336.12c-6.07,1.73-11.9,4.04-17.42,6.87l112.27,430.17h19.22l-114.06-437.04Z"/>
          <polygon class="st18" points="278.73 773.16 310.63 773.16 228.9 459.99 228.9 582.23 278.73 773.16"/>
          <path class="st18" d="M235.51,394.09c-1.1,2.81-2.07,5.68-2.9,8.62l96.68,370.46h5.15l-98.93-379.08Z"/>
          <path class="st18" d="M393.52,360.25c-2.15-2.11-4.39-4.13-6.73-6.04l35.66,136.62v-19.73l-28.93-110.85Z"/>
          <path class="st18" d="M356.84,337.58c-9.79-3.34-20.26-5.18-31.16-5.18-.7,0-1.38.04-2.08.05l98.86,378.78v-122.24l-65.62-251.41Z"/>
        </g>
        <g>
          <rect class="st1" x="228.9" y="538.74" width="193.55" height="27.98"/>
          <rect class="st1" x="228.9" y="640.66" width="193.55" height="27.98"/>
          <rect class="st1" x="228.9" y="436.81" width="193.55" height="27.98"/>
        </g>
        <g>
          <rect class="st4" x="205.1" y="430.42" width="241.15" height="27.98" rx=".99" ry=".99"/>
          <rect class="st4" x="205.1" y="532.35" width="241.15" height="27.98" rx=".99" ry=".99"/>
          <rect class="st4" x="205.1" y="634.27" width="241.15" height="27.98" rx=".99" ry=".99"/>
        </g>
      </g>
      <g>
        <path class="st0" d="M827.85,606.24c-9.11-59.89-60.95-105.92-123.34-105.92s-114.22,46.04-123.33,105.92h246.67Z"/>
        <path class="st8" d="M822.24,606.24c-8.69-57.16-58.17-101.1-117.72-101.1s-109.03,43.94-117.72,101.1h235.45Z"/>
        <path class="st0" d="M704.51,516.31h0c-60.07,0-108.77,48.7-108.77,108.77v160.07h217.53v-160.07c0-60.07-48.7-108.77-108.77-108.77Z"/>
        <path class="st16" d="M607.74,773.16v-148.08c0-53.36,43.41-96.78,96.78-96.78s96.78,43.41,96.78,96.78v148.08h-193.55Z"/>
        <g class="st13">
          <g>
            <path class="st18" d="M748.39,538.87c-10.55-5.39-22.21-8.92-34.54-10.1l63.78,244.4h23.66v-31.6l-52.9-202.7Z"/>
            <path class="st18" d="M781.09,566.01l20.2,77.4v-18.33c0-.52-.03-1.04-.04-1.56l-11.58-44.39c-2.5-4.62-5.38-9-8.58-13.12Z"/>
            <path class="st18" d="M617.75,773.16h31.9l-41.35-158.45c-.36,3.41-.56,6.86-.56,10.37v109.72l10.01,38.37Z"/>
            <path class="st18" d="M621.74,574.98c-1.25,2.06-2.4,4.18-3.5,6.33l50.07,191.85h5.15l-51.72-198.18Z"/>
            <path class="st18" d="M688.69,529.62c-6.21,1.03-12.22,2.63-17.97,4.78l62.31,238.76h19.22l-63.56-243.54Z"/>
          </g>
        </g>
        <polygon class="st18" points="619.55 674.69 619.55 773.16 622.98 773.16 622.98 677.68 703.19 677.68 703.19 773.16 706.63 773.16 706.63 677.68 786.04 677.68 786.04 773.16 789.48 773.16 789.48 674.69 619.55 674.69"/>
        <rect class="st1" x="607.74" y="640.66" width="193.55" height="27.98"/>
        <rect class="st4" x="583.94" y="634.27" width="241.15" height="27.98" rx=".99" ry=".99"/>
      </g>
      <polygon class="st18" points="241.01 674.62 241.01 773.09 244.44 773.09 244.44 677.6 324.65 677.6 324.65 773.09 328.09 773.09 328.09 677.6 407.5 677.6 407.5 773.09 410.94 773.09 410.94 674.62 241.01 674.62"/>
      <g>
        <rect class="st19" x="607.6" y="770.42" width="193.56" height="23.8"/>
        <rect class="st6" x="607.6" y="792.25" width="193.56" height="1.97"/>
        <rect class="st6" x="607.6" y="787.53" width="193.56" height="1.97"/>
        <rect class="st6" x="607.6" y="782.81" width="193.56" height="1.97"/>
        <rect class="st6" x="607.6" y="778.08" width="193.56" height="1.97"/>
        <rect class="st6" x="607.6" y="773.36" width="193.56" height="1.97"/>
      </g>
      <g>
        <rect class="st19" x="228.83" y="770.42" width="193.56" height="23.8"/>
        <rect class="st6" x="228.83" y="792.25" width="193.56" height="1.97"/>
        <rect class="st6" x="228.83" y="787.53" width="193.56" height="1.97"/>
        <rect class="st6" x="228.83" y="782.81" width="193.56" height="1.97"/>
        <rect class="st6" x="228.83" y="778.08" width="193.56" height="1.97"/>
        <rect class="st6" x="228.83" y="773.36" width="193.56" height="1.97"/>
      </g>
    </g>
    <g>
      <polygon class="st11" points="181.65 808.95 174.31 808.95 176.67 751.01 179.3 751.01 181.65 808.95"/>
      <path class="st2" d="M202.54,744.49c0-24.1-10.66-44.58-25.56-52.41-14.9,7.83-25.56,28.31-25.56,52.41,0,11.73,2.52,22.6,6.83,31.57,7.61,15.84,29.84,15.84,37.45,0,4.31-8.97,6.83-19.84,6.83-31.57Z"/>
    </g>
    <g>
      <polygon class="st11" points="859.24 808.95 851.9 808.95 854.25 751.01 856.88 751.01 859.24 808.95"/>
      <path class="st2" d="M880.12,744.49c0-24.1-10.66-44.58-25.56-52.41-14.9,7.83-25.56,28.31-25.56,52.41,0,11.73,2.52,22.6,6.83,31.57,7.61,15.84,29.84,15.84,37.45,0,4.31-8.97,6.83-19.84,6.83-31.57Z"/>
    </g>
  </g>
  <path class="st9" d="M895.03,440.87c-10.37-4.35-27.82-7.9-49.38-10.09,5.32-15.29,2.95-30.01-6.6-35.2-6.9-3.75-15.95-1.63-24.18,4.66-.49-7.97-3.64-14.46-9.33-17.55-11.34-6.16-28.48,3.47-38.27,21.5-.2.37-.37.75-.56,1.12-1.07-.29-2.16-.57-3.27-.8-20.08-4.25-38.52,2.54-41.2,15.17-.9,4.26.14,8.63,2.64,12.72h6.34c-15.36,2.16-27.83,5.07-35.95,8.48h199.78Z"/>
  <path class="st9" d="M407.36,240.73c-5.16-2.96-17.5-5.37-33.46-6.6.28-.45.58-.85.85-1.31,10.89-18.3,13.18-37.03,5.11-41.83-7.82-4.65-22.48,5.48-33.29,22.75-1.06-.47-2.14-.93-3.26-1.36-19.9-7.58-39.74-3.98-44.32,8.03-2,5.25-.71,11.23,2.99,16.94-4.41,1-7.86,2.14-10.01,3.38h115.39Z"/>
</svg>