<?xml version="1.0" encoding="UTF-8"?>
<svg id="Laag_2" data-name="Laag 2" xmlns="http://www.w3.org/2000/svg" viewBox="0 0 1051.3 1419.56">
  <defs>
    <style>
      .cls-1 {
        fill: #f7d2c7;
      }

      .cls-2 {
        fill: #4f3f51;
      }

      .cls-3 {
        fill: #f9f9f0;
      }

      .cls-4 {
        fill: #432918;
      }

      .cls-5 {
        fill: #351c0e;
      }

      .cls-6 {
        fill: #cce7e1;
      }

      .cls-7 {
        fill: #040505;
      }

      .cls-8 {
        fill: #58b995;
      }

      .cls-9 {
        fill: #1f1f1d;
      }

      .cls-10 {
        fill: #dceff8;
      }

      .cls-11 {
        fill: #e5a695;
      }
    </style>
  </defs>
  <g id="Layer_1" data-name="Layer 1">
    <g>
      <path class="cls-4" d="M829.77,558.89C712.23,355.64,800.39-16.57,543.27.57c-227.74,4.9-137.13,325.69-232.63,563.22,0,0,112.64-4.9,149.37-26.94,0,0,262.02-2.45,369.76,22.04Z"/>
      <path class="cls-5" d="M663.08,340.71s34.28,159.17,66.12,191l-96.19,8.81-50.06-177.49,80.14-22.32Z"/>
      <path class="cls-5" d="M467.85,340.71s-34.28,173.86-66.12,205.7l96.19-5.88,50.06-177.49-80.14-22.32Z"/>
      <path class="cls-11" d="M488.98,368.87s-2.02,129.78-14.12,173.86h155.3s-12.1-154.27,2.02-193.45l-143.2,19.59Z"/>
      <path class="cls-11" d="M676.37,1320.16s88.94,0,141.41-19.49c21.13-7.85,44.74,4.54,50.34,28.65,4.38,18.85-3.09,42.02-44.74,63.95,0,0-163.34,12.19-179.67-12.19l32.67-60.93Z"/>
      <polygon class="cls-2" points="306.14 1148.59 828.82 1148.59 643.7 1252.04 529.37 1301.04 327.92 1230.26 306.14 1148.59"/>
      <path class="cls-6" d="M815.21,535.65c95.59,69.78,164.18,183.77,196.83,356.63,5.09,26.94-4.3,54.62-24.54,73.13l-158.68,145.08-49-245,35.39-329.83Z"/>
      <path class="cls-7" d="M698.15,1322.82l-556.23-278.11c-51.96-25.98-114.98-1.34-135.54,53h0c-20.33,53.73,9.69,113.35,64.96,129.02l588.7,166.87,38.11-70.78Z"/>
      <path class="cls-6" d="M283.8,546.38c-28.45,51.93-117.34,219.53-129.32,307.64-2,14.7-.22,29.66,4.65,43.68,54.4,156.81,112.74,248.22,179.69,196.45l32.67-163.34,5.44-125.22,10.89-190.56-81.83-72.48c-6.93-6.13-17.74-4.28-22.18,3.83Z"/>
      <path class="cls-6" d="M295.25,838.25c49-190.56-10.89-294-10.89-294-4.61-18.44,144.95-54.44,190.92-65.05,7.65-1.76,15.79.06,21.68,5.25,49.43,43.61,102.02,14.84,123.33-.45,6.86-4.93,15.38-6.84,23.67-5.25,34.12,6.55,122.62,25.17,167.98,49.87,13.45,7.33,20.42,22.72,17.39,37.73-9.82,48.63-27.78,165.96,10.37,233.79l-54.45,277.67h-348.45l-114.33-54.45-27.22-185.11Z"/>
      <path class="cls-11" d="M404.1,1288.93s-117.31,20.95-180.85,19.6c-33.06-.7-53.64,43.27-35.68,79.17,11.8,23.59,38.26,39.71,93.71,27.89,0,0,139.71-22.82,158.88-74.29l-36.05-52.37Z"/>
      <path class="cls-7" d="M928.72,1062.91l-546.35,227.24,43.56,98,560.84-158.3c57-16.09,82.43-82.53,50.74-132.57h0c-23.06-36.41-68.99-50.93-108.79-34.37Z"/>
      <path class="cls-3" d="M773.2,1170.37h-406c-28.72,0-53-21.26-56.8-49.73l-43.41-325.57c-2.33-17.49,11.28-33.04,28.93-33.04h548.57c17.65,0,31.26,15.55,28.93,33.04l-43.41,325.57c-3.8,28.47-28.08,49.73-56.8,49.73Z"/>
      <circle class="cls-10" cx="564.76" cy="971.65" r="51.72" transform="translate(-553.7 861.67) rotate(-54.22)"/>
      <g>
        <path class="cls-8" d="M631.84,964.58c-1.27-14.59-6.91-27.25-16.71-37.71-13.24-14.09-29.33-21.23-47.9-21.23-2.74,0-5.6.15-8.45.46-13.7,1.51-26.01,7.22-36.59,17.02-9.73,9.03-16.4,20.34-19.34,32.77-2.86,12.2-2.05,25.17,2.35,37.52,4.44,12.43,12.89,22.93,25.13,31.23,12.97,8.76,27.75,12.31,43.92,10.54,13.89-1.51,26.21-7.1,36.59-16.56,13.82-12.62,21-28.87,21.34-48.28,0-.5-.04-1.04-.08-1.62-.08-1.27-.15-2.7-.27-4.13h.01ZM566.35,1023.56h-.31c-13.82,0-26.75-5.36-36.44-15.05-10.15-10.19-15.75-23.89-15.71-38.6-.04-13.78,5.44-26.82,15.48-36.78,10-9.96,23.2-15.44,37.09-15.48h.12c29.1,0,52.84,23.54,52.92,52.45.08,29.8-23.27,53.26-53.15,53.46h0Z"/>
        <circle class="cls-9" cx="566.69" cy="970.65" r="6.95"/>
      </g>
      <g>
        <path class="cls-1" d="M664.48,486.24s-34.05,55.25-99.72,56.5c-65.72,1.25-122.23-57.73-122.23-57.73,0,0,18.6-18.63,24.78-31.02,2.93-5.89,6.19-27.4,8.77-48.42,2.88-23.24,4.9-45.81,4.9-45.81l141.32,7.44s6.46,46.55,12.84,74.89c2.03,8.94,4.02,16.07,5.81,19.34,7.44,13.67,23.55,24.84,23.55,24.84l-.03-.02Z"/>
        <path class="cls-11" d="M635.13,442.06c-11.42,14.78-34.04,38.06-61.34,35.5-31.47-2.96-79.22-51.82-97.72-72.01,2.88-23.24,4.9-45.81,4.9-45.81l141.32,7.44s6.46,46.55,12.84,74.89h-.02Z"/>
      </g>
      <path class="cls-1" d="M661.78,333.94c32.94-152.15,1.68-264.77-108.9-269.94-99.32,4.22-154.44,109.74-97.79,277.9,5.47,16.24,14.05,22.92,26.57,38.33l47.63,29.95c6.21,3.9,13.39,5.97,20.72,5.97h20.06c7.86,0,15.53-2.38,22.01-6.82l46.14-35.8c13.62-14.3,20.49-25.44,23.55-39.59Z"/>
      <path class="cls-4" d="M729.2,531.72c-33.06-174.51-64.95-419.93-176.31-467.71l-2.45-19.59,107.75,34.28,41.63,134.68,46.53,217.94,4.9,105.3-22.04-4.9Z"/>
    </g>
  </g>
</svg>