<?xml version="1.0" encoding="UTF-8"?>
<svg id="Laag_2" xmlns="http://www.w3.org/2000/svg" version="1.1" viewBox="0 0 1051.3 1419.56">
  <!-- Generator: Adobe Illustrator 29.8.4, SVG Export Plug-In . SVG Version: 2.1.1 Build 6)  -->
  <defs>
    <style>
      .st0 {
        fill: #f7d2c7;
      }

      .st1 {
        fill: #050505;
      }

      .st2 {
        fill: #1f1f1d;
        stroke: #000;
        stroke-width: 3px;
      }

      .st2, .st3 {
        stroke-miterlimit: 10;
      }

      .st4 {
        fill: #664837;
      }

      .st5 {
        fill: #351c0e;
      }

      .st6 {
        fill: #fafaf8;
      }

      .st7 {
        fill: #cce7e1;
      }

      .st8 {
        fill: #040505;
      }

      .st9 {
        fill: #664637;
      }

      .st3 {
        fill: #58b995;
        stroke: #58b995;
        stroke-width: 2px;
      }

      .st10 {
        fill: #e5a695;
      }
    </style>
  </defs>
  <g id="Layer_1">
    <g>
      <path class="st4" d="M808.74,559.27C691.2,356.02,779.36-16.19,522.24.95c-227.74,4.9-137.13,325.69-232.63,563.22,0,0,112.64-4.9,149.37-26.94,0,0,262.02-2.45,369.76,22.04h0Z"/>
      <path class="st5" d="M642.05,341.09s34.28,159.17,66.12,191l-96.19,8.81-50.06-177.49,80.14-22.32h-.01Z"/>
      <path class="st5" d="M446.82,341.09s-34.28,173.86-66.12,205.7l96.19-5.88,50.06-177.49-80.14-22.32h0Z"/>
      <path class="st10" d="M467.95,369.25s-2.02,129.78-14.12,173.86h155.3s-12.1-154.27,2.02-193.45l-143.2,19.59h0Z"/>
      <path class="st10" d="M782.45,1293.69s81.75,28.81,137.3,25.05c22.37-1.52,39.42,19.33,35.52,46.82-3.05,21.5-18.61,43.76-65.13,53.62,0,0-154.72-39.93-160.58-71.19l52.9-54.31h-.01Z"/>
      <polygon class="st1" points="285.11 1148.97 807.79 1148.97 622.67 1252.42 508.34 1301.42 306.89 1230.64 285.11 1148.97"/>
      <path class="st7" d="M794.18,536.03c95.59,69.78,164.18,183.77,196.83,356.63,5.09,26.94-4.3,54.62-24.54,73.13l-158.68,145.08-49-245,35.39-329.83h0Z"/>
      <path class="st8" d="M785.09,1291.56L190.29,989.82c-55.56-28.19-122.95-1.45-144.94,57.5h0c-21.74,58.3,10.36,122.98,69.46,139.98l629.52,181.05,40.75-76.79Z"/>
      <path class="st7" d="M262.77,546.76c-28.45,51.93-117.34,219.53-129.32,307.64-2,14.7-.22,29.66,4.65,43.68,54.4,156.81,112.74,248.22,179.69,196.45l32.67-163.34,5.44-125.22,10.89-190.56-81.83-72.48c-6.93-6.13-17.74-4.28-22.18,3.83h-.01Z"/>
      <path class="st7" d="M274.22,838.63c49-190.56-10.89-294-10.89-294-4.61-18.44,144.95-54.44,190.92-65.05,7.65-1.76,15.79.06,21.68,5.25,49.43,43.61,102.02,14.84,123.33-.45,6.86-4.93,15.38-6.84,23.67-5.25,34.12,6.55,122.62,25.17,167.98,49.87,13.45,7.33,20.42,22.72,17.39,37.73-9.82,48.63-27.78,165.96,10.37,233.79l-54.45,277.67h-348.45l-114.33-54.45-27.22-185.11h0Z"/>
      <path class="st10" d="M383.07,1264.43s-117.31,20.95-180.85,19.6c-33.06-.7-53.64,43.27-35.68,79.17,11.8,23.59,38.26,39.71,93.71,27.89,0,0,139.71-22.82,158.88-74.29l-36.05-52.37h-.01Z"/>
      <path class="st8" d="M920.06,1011.53l-546.35,227.24,43.56,98,560.84-158.3c57-16.09,82.43-82.53,50.74-132.57h0c-23.06-36.41-68.99-50.93-108.79-34.37h0Z"/>
      <path class="st6" d="M752.17,1170.75h-406c-28.72,0-53-21.26-56.8-49.73l-43.41-325.57c-2.33-17.49,11.28-33.04,28.93-33.04h548.57c17.65,0,31.26,15.55,28.93,33.04l-43.41,325.57c-3.8,28.47-28.08,49.73-56.8,49.73h-.01Z"/>
      <g>
        <path class="st0" d="M643.45,486.62s-34.05,55.25-99.72,56.5c-65.72,1.25-122.23-57.73-122.23-57.73,0,0,18.6-18.63,24.78-31.02,2.93-5.89,6.19-27.4,8.77-48.42,2.88-23.24,4.9-45.81,4.9-45.81l141.32,7.44s6.46,46.55,12.84,74.89c2.03,8.94,4.02,16.07,5.81,19.34,7.44,13.67,23.55,24.84,23.55,24.84l-.03-.02h.01Z"/>
        <path class="st10" d="M614.1,442.44c-11.42,14.78-34.04,38.06-61.34,35.5-31.47-2.96-79.22-51.82-97.72-72.01,2.88-23.24,4.9-45.81,4.9-45.81l141.32,7.44s6.46,46.55,12.84,74.89h-.02.02Z"/>
      </g>
      <path class="st0" d="M640.75,334.32c32.94-152.15,1.68-264.77-108.9-269.94-99.32,4.22-154.44,109.74-97.79,277.9,5.47,16.24,14.05,22.92,26.57,38.33l47.63,29.95c6.21,3.9,13.39,5.97,20.72,5.97h20.06c7.86,0,15.53-2.38,22.01-6.82l46.14-35.8c13.62-14.3,20.49-25.44,23.55-39.59h.01Z"/>
      <path class="st9" d="M684.99,492.76c-34.55-176.2-60.43-389.22-171.79-437l-2.45-19.59,107.75,34.28,41.63,134.68,82.2,196.17s58.7,132.22,38.56,122.17c-45.14-22.53-66.11-23.54-66.11-23.54l-29.79-7.17Z"/>
      <g>
        <path class="st3" d="M597.53,969.9c-.84-9.69-4.59-18.1-11.1-25.05-8.79-9.36-19.48-14.1-31.82-14.1-1.82,0-3.72.1-5.61.31-9.1,1-17.28,4.8-24.3,11.3-6.46,6-10.89,13.51-12.85,21.77-1.9,8.1-1.36,16.72,1.56,24.92,2.95,8.26,8.56,15.23,16.69,20.74,8.61,5.82,18.43,8.18,29.17,7,9.23-1,17.41-4.72,24.3-11,9.18-8.38,13.95-19.18,14.17-32.07,0-.33-.03-.69-.05-1.08-.05-.84-.1-1.79-.18-2.74h0ZM554.04,1009.07h-.21c-9.18,0-17.77-3.56-24.2-10-6.74-6.77-10.46-15.87-10.43-25.64-.03-9.15,3.61-17.81,10.28-24.43,6.64-6.62,15.41-10.26,24.64-10.28h.08c19.33,0,35.1,15.64,35.15,34.84.05,19.79-15.46,35.38-35.3,35.51h0Z"/>
        <circle class="st2" cx="554.27" cy="973.93" r="4.62"/>
      </g>
    </g>
  </g>
</svg>