<?xml version="1.0" encoding="UTF-8"?>
<svg id="Laag_2" data-name="Laag 2" xmlns="http://www.w3.org/2000/svg" viewBox="0 0 145.73 145.73">
  <defs>
    <style>
      .cls-1 {
        fill: none;
        stroke: #7ba69b;
        stroke-miterlimit: 10;
        stroke-width: 4px;
      }

      .cls-2 {
        fill: #13261f;
      }

      .cls-3 {
        opacity: .6;
      }

      .cls-4 {
        fill: #1f1f1e;
      }

      .cls-5 {
        fill: #58b995;
      }
    </style>
  </defs>
  <g id="Laag_1-2" data-name="Laag 1">
    <g>
      <rect class="cls-1" x="2" y="2" width="141.73" height="141.73" rx="22.68" ry="22.68"/>
      <g id="Layer_1" data-name="Layer 1">
        <g>
          <g>
            <g>
              <path class="cls-2" d="M126.28,42.94l-33.59-18.48c-.69-.38-.95-1.25-.56-1.94s1.25-.95,1.94-.56l33.59,18.48c.69.38.95,1.25.56,1.94s-1.25.95-1.94.56h0Z"/>
              <path class="cls-5" d="M121.04,47.75l-29.6-16.29c-.65-.36-.89-1.18-.53-1.83s1.18-.89,1.83-.53l29.6,16.29c.65.36.89,1.18.53,1.83s-1.18.89-1.83.53Z"/>
              <path class="cls-5" d="M81.73,123.92l-33.59-18.48c-.69-.38-.95-1.25-.56-1.94s1.25-.95,1.94-.56l33.59,18.48c.69.38.95,1.25.56,1.94s-1.25.95-1.94.56h0Z"/>
              <path class="cls-2" d="M83.07,116.77l-29.6-16.29c-.65-.36-.89-1.18-.53-1.83s1.18-.89,1.83-.53l29.6,16.29c.65.36.89,1.18.53,1.83s-1.18.89-1.83.53Z"/>
            </g>
            <g>
              <path class="cls-5" d="M98.47,88.85l-29.84-16.41c-.65-.36-.89-1.18-.53-1.83s1.18-.89,1.83-.53l29.84,16.41c.65.36.89,1.18.53,1.83s-1.18.89-1.83.53h0Z"/>
              <path class="cls-5" d="M91.52,93.59h0s-22.88-12.87-22.88-12.87c-.57-.32-.77-1.04-.45-1.61.32-.57,1.03-.77,1.6-.46h0s22.88,12.87,22.88,12.87c.57.32.77,1.04.45,1.61-.32.57-1.03.77-1.6.46Z"/>
              <path class="cls-2" d="M107.34,67.75l-25.63-14.1c-.6-.33-.83-1.09-.49-1.7s1.09-.83,1.7-.49l25.63,14.1c.6.33.83,1.09.49,1.7s-1.09.83-1.7.49h0Z"/>
              <path class="cls-5" d="M105.75,75.61l-29.84-16.41c-.65-.36-.89-1.18-.53-1.83s1.18-.89,1.83-.53l29.84,16.41c.65.36.89,1.18.53,1.83s-1.18.89-1.83.53h0Z"/>
              <path class="cls-2" d="M103.19,83.07h-.01s-31.87-17.92-31.87-17.92c-.67-.38-.91-1.23-.53-1.9.37-.67,1.22-.91,1.89-.54h.01s31.87,17.92,31.87,17.92c.67.38.91,1.23.53,1.9-.37.67-1.22.91-1.89.54h0Z"/>
            </g>
          </g>
          <path class="cls-5" d="M92.84,95.3c-11.75,4.47-19.99,4.1-26.62,3.8-.58-.03-1.15-.05-1.69-.07-7.05-.28-11.68.12-18.19,8.33-.88,1.11-2.42,1.39-3.63.73-.13-.07-.27-.16-.4-.26-1.24-.99-1.45-2.78-.47-4.02,7.84-9.87,14.47-10.73,21.78-10.53.93.02,1.88.06,2.85.11,6.42.3,13.68.63,24.32-3.43,5.98-2.28,10.7-7.69,12.61-14.49,2.39-8.46.16-17.69-6.26-25.99-2.27-2.94-4.04-5.73-5.38-8.35-7.33-14.27-2.54-23.55-2.29-24,.75-1.4,2.49-1.91,3.88-1.17h.02c1.36.76,1.88,2.48,1.15,3.86-.21.42-3.95,8.21,3.49,20.82,1,1.69,2.2,3.48,3.65,5.34,7.56,9.77,10.13,20.79,7.25,31.04-2.4,8.52-8.42,15.36-16.1,18.29h0Z"/>
          <path class="cls-5" d="M82.13,129.77c-1.2-.66-1.79-2.11-1.32-3.45,3.71-10.66.93-14.64-3.67-21.22-3.8-5.43-8.53-12.19-11.04-24.52-1.64-8.05.91-16.79,6.83-23.38,7.11-7.92,17.8-11.65,30.1-10.5,19.85,1.86,25.68-7.58,25.92-7.98.79-1.33,2.5-1.81,3.85-1.06l.05.03c1.36.78,1.84,2.5,1.07,3.87-.3.53-7.63,13.07-31.43,10.85-10.45-.98-19.43,2.08-25.3,8.62-4.71,5.25-6.76,12.13-5.48,18.41,2.27,11.16,6.44,17.12,10.12,22.38,4.86,6.95,9.06,12.96,4.39,26.39-.52,1.49-2.15,2.28-3.65,1.76-.15-.06-.3-.12-.44-.2h0Z"/>
        </g>
      </g>
      <g class="cls-3">
        <path class="cls-5" d="M57.25,39.64c-.42-4.84-2.29-9.05-5.55-12.52-4.4-4.68-9.74-7.05-15.9-7.05-.91,0-1.86.05-2.81.15-4.55.5-8.63,2.4-12.15,5.65-3.23,3-5.44,6.75-6.42,10.88-.95,4.05-.68,8.36.78,12.46,1.47,4.13,4.28,7.61,8.34,10.37,4.31,2.91,9.21,4.09,14.58,3.5,4.61-.5,8.7-2.36,12.15-5.5,4.59-4.19,6.97-9.58,7.08-16.03,0-.17-.01-.35-.03-.54-.03-.42-.05-.9-.09-1.37h0ZM35.51,59.22h-.1c-4.59,0-8.88-1.78-12.1-5-3.37-3.38-5.23-7.93-5.22-12.81-.01-4.57,1.81-8.9,5.14-12.21,3.32-3.31,7.7-5.13,12.31-5.14h.04c9.66,0,17.54,7.81,17.57,17.41.03,9.89-7.73,17.68-17.65,17.75h0Z"/>
        <circle class="cls-4" cx="35.62" cy="41.66" r="2.31"/>
      </g>
    </g>
  </g>
</svg>