<?xml version="1.0" encoding="UTF-8"?>
<svg id="Laag_1" xmlns="http://www.w3.org/2000/svg" version="1.1" viewBox="0 0 153.92 149.02">
  <!-- Generator: Adobe Illustrator 29.8.4, SVG Export Plug-In . SVG Version: 2.1.1 Build 6)  -->
  <defs>
    <style>
      .st0 {
        fill: #1f1f1d;
        stroke: #000;
        stroke-width: 3px;
      }

      .st0, .st1 {
        stroke-miterlimit: 10;
      }

      .st1 {
        fill: #58b995;
        stroke: #58b995;
        stroke-width: 2px;
      }
    </style>
  </defs>
  <path class="st1" d="M143.73,68.53c-1.27-14.59-6.91-27.25-16.71-37.71-13.24-14.09-29.33-21.23-47.9-21.23-2.74,0-5.6.15-8.45.46-13.7,1.51-26.01,7.22-36.59,17.02-9.73,9.03-16.4,20.34-19.34,32.77-2.86,12.2-2.05,25.17,2.35,37.52,4.44,12.43,12.89,22.93,25.13,31.23,12.97,8.76,27.75,12.31,43.92,10.54,13.89-1.51,26.21-7.1,36.59-16.56,13.82-12.62,21-28.87,21.34-48.28,0-.5-.04-1.04-.08-1.62-.08-1.27-.15-2.7-.27-4.13h.01ZM78.24,127.51h-.31c-13.82,0-26.75-5.36-36.44-15.05-10.15-10.19-15.75-23.89-15.71-38.6-.04-13.78,5.44-26.82,15.48-36.78,10-9.96,23.2-15.44,37.09-15.48h.12c29.1,0,52.84,23.54,52.92,52.45.08,29.8-23.27,53.26-53.15,53.46h0Z"/>
  <circle class="st0" cx="78.59" cy="74.6" r="6.95"/>
</svg>