<?xml version="1.0" encoding="UTF-8"?>
<svg id="Laag_2" xmlns="http://www.w3.org/2000/svg" version="1.1" viewBox="0 0 311 337.93">
  <!-- Generator: Adobe Illustrator 29.8.4, SVG Export Plug-In . SVG Version: 2.1.1 Build 6)  -->
  <defs>
    <style>
      .st0 {
        fill: #d4b299;
      }

      .st1 {
        fill: #e1c3be;
      }

      .st2 {
        fill: #935437;
      }

      .st3 {
        fill: #a0625c;
      }

      .st4 {
        fill: #a46442;
      }

      .st5 {
        fill: #e7e4dc;
      }

      .st6 {
        fill: #cdae90;
      }

      .st7 {
        fill: #9cbad3;
      }

      .st8 {
        fill: #ffa07c;
      }

      .st9 {
        fill: #c57b37;
      }

      .st10 {
        fill: #ffd8c3;
      }

      .st11 {
        fill: #42302f;
      }

      .st12 {
        fill: #ffb069;
      }

      .st13 {
        fill: #7ba69b;
      }

      .st14 {
        fill: #ffe1dd;
      }

      .st15 {
        fill: #d58961;
      }

      .st16 {
        fill: #6d362c;
      }

      .st17 {
        fill: #ffdbd8;
      }

      .st18 {
        fill: #fff;
      }

      .st19 {
        fill: #fafaf8;
      }

      .st20 {
        fill: #ac6442;
      }

      .st21 {
        fill: #dc6e52;
      }

      .st22 {
        fill: #e8f5ef;
      }

      .st23 {
        fill: #cee3f4;
      }

      .st24 {
        fill: #b8e2d1;
      }

      .st25 {
        fill: #67937e;
      }

      .st26 {
        fill: #a35a4a;
      }

      .st27 {
        fill: #eca780;
      }

      .st28 {
        opacity: .43;
      }

      .st29 {
        opacity: .6;
      }

      .st30 {
        fill: #58b995;
      }

      .st31 {
        fill: #1f1f1d;
      }

      .st32 {
        fill: #753f3e;
      }

      .st33 {
        fill: #b18868;
      }

      .st34 {
        fill: #998675;
      }
    </style>
  </defs>
  <g id="Laag_1-2">
    <g>
      <g class="st29">
        <path class="st22" d="M75.6,21.03C16.1,51.23-7,139.78,14.1,202.48c23.4,69.54,93.9,85.73,106.03,88.24,42.19,8.71,140.64,14.79,172.14-39.06,35.01-59.85-6.36-208.63-69.99-240.49-10.8-5.41-74.22-26.91-146.68,9.87h0Z"/>
      </g>
      <rect class="st5" x="145.21" y="212.6" width="86.27" height="10.27" transform="translate(-99.18 203.23) rotate(-46.25)"/>
      <rect class="st5" x="149.96" y="240.33" width="17.11" height="97.59"/>
      <rect class="st5" x="123.65" y="174.57" width="10.27" height="86.27" transform="translate(-114.79 149.5) rotate(-43.75)"/>
      <rect class="st5" x="62.99" y="109.32" width="6.84" height="90.96" transform="translate(-90.75 94.19) rotate(-45.69)"/>
      <rect class="st5" x="84.39" y="150.6" width="87.18" height="6.84" transform="translate(-72.15 147.01) rotate(-48.27)"/>
      <rect class="st5" x="199.11" y="151.37" width="90.97" height="6.84" transform="translate(-38.58 214.79) rotate(-44.29)"/>
      <rect class="st5" x="182.57" y="110.43" width="6.84" height="87.17" transform="translate(-55.33 162.83) rotate(-41.72)"/>
      <path class="st24" d="M136.48,186.56c0,20.79-16.84,37.63-37.62,37.63s-37.63-16.84-37.63-37.63,16.84-37.62,37.63-37.62,37.62,16.83,37.62,37.62Z"/>
      <path class="st5" d="M98.86,227.95c-22.82,0-41.39-18.57-41.39-41.39s18.57-41.38,41.39-41.38,41.38,18.57,41.38,41.38-18.56,41.39-41.38,41.39ZM98.86,152.7c-18.67,0-33.87,15.19-33.87,33.86s15.19,33.86,33.87,33.86,33.86-15.19,33.86-33.86-15.18-33.86-33.86-33.86Z"/>
      <path class="st34" d="M249.78,186.72c0,20.78-16.84,37.62-37.63,37.62s-37.63-16.84-37.63-37.62,16.85-37.63,37.63-37.63,37.63,16.84,37.63,37.63Z"/>
      <path class="st5" d="M212.15,228.1c-22.82,0-41.39-18.56-41.39-41.38s18.57-41.39,41.39-41.39,41.39,18.57,41.39,41.39-18.57,41.38-41.39,41.38ZM212.15,152.85c-18.67,0-33.87,15.19-33.87,33.86s15.19,33.86,33.87,33.86,33.87-15.19,33.87-33.86-15.19-33.86-33.87-33.86Z"/>
      <path class="st24" d="M242.62,65.8c0,17.01-13.79,30.79-30.79,30.79s-30.78-13.78-30.78-30.79,13.78-30.78,30.78-30.78,30.79,13.78,30.79,30.78Z"/>
      <path class="st5" d="M211.83,99.67c-18.67,0-33.87-15.19-33.87-33.87s15.19-33.86,33.87-33.86,33.87,15.19,33.87,33.86-15.19,33.87-33.87,33.87ZM211.83,38.1c-15.27,0-27.7,12.43-27.7,27.7s12.43,27.71,27.7,27.71,27.71-12.43,27.71-27.71-12.42-27.7-27.71-27.7h0Z"/>
      <path class="st19" d="M129.75,65.9c0,17.01-13.78,30.78-30.79,30.78s-30.78-13.77-30.78-30.78,13.78-30.78,30.78-30.78,30.79,13.77,30.79,30.78Z"/>
      <path class="st5" d="M98.96,99.76c-18.67,0-33.87-15.19-33.87-33.86s15.19-33.86,33.87-33.86,33.87,15.19,33.87,33.86-15.19,33.86-33.87,33.86ZM98.96,38.2c-15.27,0-27.71,12.43-27.71,27.7s12.43,27.7,27.71,27.7,27.7-12.43,27.7-27.7-12.42-27.7-27.7-27.7Z"/>
      <path class="st6" d="M64.66,123.02c0,17.01-13.79,30.8-30.79,30.8s-30.79-13.79-30.79-30.8,13.78-30.78,30.79-30.78,30.79,13.78,30.79,30.78Z"/>
      <path class="st5" d="M33.87,156.89c-18.67,0-33.87-15.2-33.87-33.88s15.19-33.86,33.87-33.86,33.87,15.19,33.87,33.86-15.19,33.88-33.87,33.88ZM33.87,95.31c-15.28,0-27.7,12.43-27.7,27.7s12.43,27.72,27.7,27.72,27.71-12.44,27.71-27.72-12.42-27.7-27.71-27.7Z"/>
      <path class="st19" d="M307.91,123.12c0,17.01-13.77,30.78-30.78,30.78s-30.78-13.77-30.78-30.78,13.78-30.78,30.78-30.78,30.78,13.78,30.78,30.78Z"/>
      <path class="st5" d="M277.13,156.98c-18.67,0-33.86-15.19-33.86-33.86s15.19-33.86,33.86-33.86,33.87,15.19,33.87,33.86-15.19,33.86-33.87,33.86ZM277.13,95.41c-15.28,0-27.7,12.43-27.7,27.7s12.42,27.7,27.7,27.7,27.71-12.43,27.71-27.7-12.43-27.7-27.71-27.7Z"/>
      <path class="st18" d="M187.77,121.48c0,17.01-13.78,30.79-30.78,30.79s-30.79-13.78-30.79-30.79,13.78-30.78,30.79-30.78,30.78,13.78,30.78,30.78Z"/>
      <path class="st5" d="M156.98,155.35c-18.67,0-33.87-15.19-33.87-33.87s15.19-33.86,33.87-33.86,33.87,15.19,33.87,33.86-15.19,33.87-33.87,33.87ZM156.98,93.78c-15.27,0-27.7,12.43-27.7,27.7s12.43,27.71,27.7,27.71,27.71-12.43,27.71-27.71-12.43-27.7-27.71-27.7h0Z"/>
      <rect class="st5" x="72.77" y="119.38" width="52.26" height="6.84" transform="translate(-24.07 221.49) rotate(-89.9)"/>
      <rect class="st5" x="186" y="119.38" width="52.26" height="6.84" transform="translate(88.96 334.72) rotate(-89.9)"/>
      <g>
        <path class="st13" d="M217.4,75.65v3.79h-13.92c.33-1.35.61-2.42.79-3.1.14-.53.22-.82.22-.82l1.72.02h.72l5.82.06h.5l2.16.02,1.97.02h.02Z"/>
        <g>
          <path class="st2" d="M211.31,49.18s1.02-3.07,3.98-2.27c0,0,2.05-1.14,3.18.91,1.14,2.05,0,4.2.57,5.97.57,1.76,2.27,3.98,2.33,6.36.06,2.39.06,3.95.28,5.82s1.88,2.87,2.39,5.43-1.82,3.92-1.82,3.92l-10.63-3.35-.68-17.66.4-5.13h0Z"/>
          <path class="st12" d="M212.34,49.89s.21-.49.94-.4c.85.1,1.68,1.39,1.73,2.19.04.81-.34.87-.34.87l-2.32-2.66h0Z"/>
          <path class="st4" d="M213.35,64.01s1.65-1.31,1.99-3.24.68-3.52.06-6.19-2.67-5.34-5-5.57-7.5,1.14-8.35,3.58-.4,7.22,1.82,9.03c2.22,1.82,9.49,2.39,9.49,2.39h-.01Z"/>
        </g>
        <g>
          <path class="st8" d="M212.27,76.82s-4.05-.06-5.29-.44c0,0-.29-5.5-.08-6.19.14-.44.42-1.05.6-2.05.1-.56.17-1.24.17-2.08,0-2.34,5.67-3.75,5.67-3.75,0,0,.06,1.03.24,2.29.18,1.28.48,2.81.95,3.76.94,1.87-2.26,8.46-2.26,8.46h0Z"/>
          <path class="st21" d="M213.58,64.6c-.65,1.9-2.1,3.85-3.52,4.4-1.19.46-2.07-.27-2.56-.86.1-.56.17-1.24.17-2.08,0-2.34,5.67-3.75,5.67-3.75,0,0,.06,1.03.24,2.29Z"/>
        </g>
        <g>
          <path class="st10" d="M211.14,79.45c.05-.12.1-.23.15-.35.39-.87.72-1.65,1.01-2.33h0c.17-.42.33-.8.47-1.16.17-.42.31-.8.43-1.14.32-.87.5-1.46.6-1.81.07-.26.1-.38.1-.38l.28-.25,2.36-2.05h.03c.39.11,5.07,1.42,7.19,3.64.29.3.53.62.71.95.47.89,1.02,2.69,1.57,4.86h-14.88l-.02.02Z"/>
          <path class="st0" d="M213.93,66.51s1.53.49,1.83,1.17.85,1.96.85,2.9-1.02,5.58-1.75,5.97-1.92-1.34-1.92-1.34c0,0,1.54-4.49,1.41-6.58,0,0-.3-1.04-.43-2.12h0Z"/>
        </g>
        <g>
          <path class="st10" d="M193.02,79.45c1.31-2.07,2.52-3.76,3.31-4.61,2.64-2.81,7.76-3.89,7.76-3.89,0,0,2.5-.26,2.76,3.31h0c0,.16.02.32.02.49,0,.23,0,.5,0,.8.02.99.06,2.35.1,3.9h-13.97.01Z"/>
          <path class="st0" d="M207.56,67.65s-.97,0-1.48.45-1.99,2.84-1.99,2.84c0,0-.11,3.81.17,5.34.28,1.53,2.61-1.53,2.61-1.53,0,0-.16-3.4,0-4.52.49-1.21.58-2.13.7-2.59h0Z"/>
        </g>
        <path class="st8" d="M213.18,57.99c-.9,0-1.04-1.71-2.27-3.68-1.24-1.97-5.13-.82-6.24-.65-1.12.17-.91,1.37-1.35,2.67s-.68,1.89-.59,2.75,1.91,8.48,6.02,8.23c4.57-.28,4.74-5.56,4.74-5.56,0,0,.77-.05,1.15-1.02s.73-3.13.28-3.49c-.87-.68-1.74.74-1.74.74h0Z"/>
      </g>
      <g>
        <g>
          <path class="st23" d="M31.17,105.12s-1.9-.15-2.59.69c-.69.84-.61,2.51-.84,3.2-.23.69-1.98,1.98-2.44,3.35-.46,1.37.3,2.74.3,3.66s-1.14,2.06-.99,3.35,1.22,1.75,1.75,2.06.85,2.02,3.09,2.57,5.67.55,7.12.25,1.83-.99,2.21-1.22c.38-.23,1.45.3,2.36-.23.91-.53.91-1.37.99-2.89s.99-2.13,1.29-3.5-.53-1.98-.61-3.12.38-.99.15-3.66c-.23-2.67-1.29-3.58-2.44-3.88-1.14-.3-2.51.08-3.35-.76s-2.36-1.68-3.81-1.29c-1.91.5-2.21,1.45-2.21,1.45l.02-.03Z"/>
          <path class="st7" d="M27.51,116.44c-.06,0-.11-.02-.15-.07-.49-.56-.79-1.32-.8-2.06-.02-.75.24-1.51.71-2.1l.05-.06c.05-.06.1-.12.14-.19.14-.24.15-.53.15-.9,0-.11.09-.2.2-.21h0c.11,0,.2.09.2.2,0,.34,0,.76-.21,1.12-.05.09-.11.16-.17.23l-.05.06c-.41.51-.64,1.18-.62,1.83.01.65.27,1.31.7,1.8.07.08.07.21-.02.29-.04.03-.09.05-.13.05h0Z"/>
          <path class="st7" d="M26.31,119.83c-.08,0-.15-.04-.18-.11-.26-.53-.09-1.14.06-1.56.02-.06.05-.13.07-.19.14-.39.27-.75.24-1.12-.01-.11.07-.21.18-.22s.21.07.22.18c.04.46-.11.88-.26,1.29-.02.06-.04.12-.07.18-.13.38-.26.86-.07,1.24.05.1,0,.22-.09.27-.03.01-.06.02-.09.02v.02Z"/>
          <path class="st7" d="M28.61,121.55c-.07,0-.14-.04-.18-.11-.43-.79-.28-1.82.34-2.46.08-.08.21-.08.29,0,.08.08.08.21,0,.29-.5.51-.61,1.36-.28,1.98.05.1.02.22-.08.28-.03.02-.06.02-.1.02h.01Z"/>
          <path class="st7" d="M39.59,109.28h0c-.64-.04-1.25-.25-1.78-.61-.51-.34-.91-.81-1.3-1.26l-.09-.1c-.41-.48-.83-.93-1.35-1.22-.56-.31-1.17-.36-1.63-.14-.1.05-.22,0-.27-.09-.05-.1,0-.22.09-.27.58-.28,1.33-.23,2.01.15.58.32,1.04.82,1.46,1.3l.09.1c.37.43.76.87,1.22,1.19.47.32,1.01.51,1.58.54.11,0,.2.1.19.22,0,.11-.1.19-.2.19h-.01Z"/>
          <path class="st7" d="M41.19,110c-.1,0-.19-.08-.2-.18-.02-.2-.02-.4-.02-.59v-.42c-.02-.36-.11-.63-.26-.81-.19-.23-.52-.36-.8-.47-.11-.04-.16-.16-.12-.26.04-.11.16-.16.26-.12.31.12.71.27.97.58.21.25.33.6.36,1.05v.44c0,.19,0,.37.02.55,0,.11-.07.21-.18.23h-.03Z"/>
          <path class="st7" d="M29.61,110.54c-.1,0-.18-.07-.2-.17-.12-.67-.07-1.33.16-1.9.25-.64.72-1.16,1.3-1.43.1-.05.22,0,.27.1.05.1,0,.22-.1.27-.48.23-.88.67-1.09,1.21-.2.5-.25,1.08-.14,1.68.02.11-.05.22-.16.24-.01,0-.02,0-.04,0Z"/>
          <path class="st7" d="M40.94,120.55c-.07,0-.13-.03-.17-.09-.32-.47-.32-1.15.02-1.8.15-.3.35-.57.54-.83.14-.2.28-.38.4-.58.18-.3.45-.89.24-1.41-.04-.1,0-.22.11-.27.1-.04.22,0,.27.11.28.68-.05,1.41-.27,1.78-.13.21-.27.42-.42.61-.19.26-.37.5-.5.77-.2.4-.32.98-.04,1.39.06.09.04.22-.05.28-.04.02-.08.04-.11.04h-.02Z"/>
        </g>
        <path class="st23" d="M30.57,137.22c.02-.88.02-1.77,0-2.68l4.75.28c.07.76.14,1.57.22,2.4h-4.98,0Z"/>
        <g>
          <path class="st15" d="M38.83,125.45c-.56,4.33-3.49,6.36-3.49,6.36,0,0,0,2.08,0,3-2.45,1.1-4.75-.28-4.75-.28l-.1-1.37-.18-2.4c-2.52-1.54-2.45-5.94-2.45-5.94,0,0,1.26-.28,1.61-.84.18-.28.42-1.4.62-2.45.2-1.05.36-2.02.36-2.02l7.06,1.68-.21,3.49,1.54.77h-.01Z"/>
          <path class="st20" d="M37.5,121.19l-.21,3.49s-1.27,1.27-3.07.95c-1.73-.31-3.42-2.87-4.13-4.1.2-1.05.36-2.02.36-2.02l7.06,1.68h-.01Z"/>
        </g>
        <g>
          <path class="st13" d="M51.95,137.22h-16.4c-.08-.84-.15-1.64-.22-2.4v-3.01s2.94-2.03,3.49-6.36c.35.11.72.2,1.11.28,3.31.71,8.1.88,9.7,3.6.57.98,1.44,4.14,2.31,7.88h0Z"/>
          <path class="st9" d="M37.06,137.42c-.1,0-.19-.08-.2-.18-.3-2.54-.54-4.53-.54-4.53l-.02-.16.15-.05c3.31-1.17,3.29-6.53,3.29-6.76v-.02c0-.11.09-.2.2-.2s.2.09.2.2v.02c0,.59-.04,5.74-3.41,7.09.06.52.27,2.26.52,4.38,0,.11-.07.21-.18.23h-.02v-.02Z"/>
        </g>
        <g>
          <path class="st13" d="M30.57,137.22H13.18c1.08-3.88,2.18-7.21,2.87-8.34,1.31-2.13,3.88-2.97,6.63-3.2,2.74-.23,5.17-.86,5.17-.86,0,0-.07,4.4,2.45,5.94l.18,2.4.1,1.37c.01.91,0,1.81,0,2.68h-.01Z"/>
          <path class="st9" d="M28.85,137.42h0c-.11,0-.2-.1-.2-.21.09-2.77.12-5.15.13-5.68-2.82-2.01-2.52-6.22-2.51-6.4,0-.11.11-.2.22-.19.11,0,.2.11.19.22,0,.04-.3,4.25,2.42,6.1l.09.06v.11s-.04,2.66-.13,5.79c0,.11-.09.2-.2.2h0Z"/>
        </g>
        <path class="st15" d="M32.85,108.24s-1.29.23-1.75,1.07-.61,1.52-.61,2.36-.46,2.06-.84,2.28c0,0-.76-.53-1.22.15-.46.69,0,3.05.38,3.5s.91.38.91.38c0,0,.25,2.34.86,3.17.61.84,2.89,2.51,4.34,2.59,1.45.08,3.27-1.6,3.96-2.36s1.73-4.85,1.8-6.07c.08-1.22.61-1.9.3-2.89-.3-.99-.38-1.9-3.5-2.13-3.12-.23-4.65-2.06-4.65-2.06h.02Z"/>
        <g>
          <path class="st11" d="M32.88,117.11c-.09,0-.19,0-.28-.02-.87-.1-1.44-.65-1.54-1.52-.07-.56.09-1.25.43-1.37h0c.69-.25,3.01.12,3.46.48.13.1.14.21.13.27-.08.63-.63,2.16-2.19,2.16h-.01ZM31.63,114.59c-.1.08-.27.61-.13,1.15.1.39.37.87,1.14.95,1.53.17,1.94-1.36,2.01-1.71-.36-.21-2.4-.61-3.02-.39Z"/>
          <path class="st11" d="M38.74,118c-.16,0-.33-.02-.49-.06-.57-.14-.98-.44-1.23-.88-.47-.86-.11-1.94-.11-1.96.03-.1.12-.16.25-.2.57-.15,2.81.25,3.37.75h0c.25.22.13.8-.11,1.26-.37.7-.98,1.09-1.67,1.09h0ZM37.28,115.29c-.06.21-.23.97.1,1.57.19.34.51.57.97.68.77.19,1.25-.18,1.52-.52.36-.46.43-.97.38-1.07-.46-.39-2.56-.76-2.97-.66ZM40.25,115.95h0Z"/>
          <path class="st11" d="M37,115.34c-.91-.52-2.07-.22-2.08-.22l-.11-.39s1.33-.35,2.39.26c0,0-.2.35-.2.35Z"/>
        </g>
      </g>
      <g>
        <g>
          <path class="st18" d="M120.17,203.19l-3.83.09-29.31.7-10.04.24s2.2-8.58,3.84-11.37c1.25-2.13,8.33-4.56,11.61-5.59,1.02-.32,1.67-.51,1.67-.51l9.71.28.81.02s7.54,1.57,10.36,4.01c2.83,2.44,5.16,12.11,5.16,12.11l.02.02Z"/>
          <path class="st13" d="M101.28,194.01c-5.67.26-8.58-6.14-8.84-6.74,1.02-.32,1.67-.51,1.67-.51l9.71.28c.66,1.53,2.52,6.72-2.55,6.96h.01Z"/>
        </g>
        <g>
          <path class="st3" d="M103.58,187.85s.24,4.01-2.53,4.26c-4.57.4-7.09-4.39-7.09-4.39l.15-6.57.03-1.17,1.35-.48,7.17,2.52.91,5.81h0v.02Z"/>
          <path class="st32" d="M103.58,187.84c-.57.41-1.43.67-2.72.47-4.13-.65-6.32-6.03-6.74-7.16l.03-1.17,1.35-.48,7.17,2.52.91,5.81h0Z"/>
        </g>
        <g>
          <path class="st11" d="M107.28,173.62s.77-1.44,1.11-2.36c.34-.92.31-2.19-.35-3.03-.66-.84-2.27-3.01-5.56-3.86s-6.55-.71-7.26.14-.89,1.47-.89,1.47c0,0-1.87-.25-2.68.8-.8,1.05-.86,3.34-.07,5.8.63,1.95,1.31,3.16,1.31,3.16l6.88.99,7.5-3.11h.01Z"/>
          <path class="st3" d="M107.11,180.25c-.62,3.25-2.52,5.85-4.29,6.08-1.77.23-3.79-.54-5.84-2.14-1.63-1.27-2.25-4.11-2.25-4.11,0,0-.95.23-1.6-.23-.65-.45-1.84-4.55-1.16-5.07.68-.53,2.24.51,2.24.51,0,0,.91-.88.97-1.21.34-1.74-.31-4.31.34-4.68.65-.37,1.21-.75,1.95-1.19.74-.43,3.88.86,7.6.97,2.56.07,2.09,2.81,2.19,3.98.08.9.32,2.67.14,4.92-.04.46-.09.94-.17,1.43-.03.24-.08.48-.12.72v.02Z"/>
        </g>
      </g>
      <g>
        <path class="st26" d="M206.8,164.29s-2.08-.36-2.65,1.5c-.57,1.86-.5,4.51-1.22,5.95-.72,1.43-1.65,3.44-1.29,5.01s2.01,2.65,2.36,3.44.14,3.65.86,4.51,4.37,2.29,5.01,2.29,6.81-6.09,6.81-6.09l-9.89-16.62h0Z"/>
        <g>
          <path class="st14" d="M234.16,205.31h-43.65c1.32-4.16,3.28-9.72,4.68-10.86,1.77-1.44,7.29-3.68,9.72-4.63.72-.28,1.18-.45,1.18-.45l10.99.06h1.83s.47.13,1.23.34c1.55.44,4.29,1.27,6.52,2.24.88.38,1.68.79,2.3,1.2,2.23,1.49,4.14,7.83,5.2,12.1Z"/>
          <path class="st1" d="M220.14,189.77c-.57,1.45-3.06,7.14-7.18,7.02-4.21-.13-7.39-5.74-8.04-6.97.72-.28,1.18-.45,1.18-.45l12.82.07s.47.12,1.22.33h0Z"/>
        </g>
        <g>
          <path class="st8" d="M218.92,189.43s-2.29,4.73-6.09,4.8-6.74-4.87-6.74-4.87c0,0,1.07-1.08,1.43-1.79.17-.34.36-1.58.51-2.8.17-1.34.28-2.65.28-2.65l8.16.43s.37,2.69.74,4.33c.12.52.23.93.33,1.12.43.79,1.36,1.43,1.36,1.43h.02Z"/>
          <path class="st21" d="M217.22,186.88c-.66.85-1.97,2.2-3.54,2.05-1.82-.17-4.58-2.99-5.65-4.16.17-1.34.28-2.65.28-2.65l8.16.43s.37,2.69.74,4.33h0Z"/>
        </g>
        <path class="st26" d="M227.19,205.31h-12.36c-.36-2.59-.74-5.67-.58-6.28.29-1.07,1.93-2.22,1.86-3.22v-.11c-.05-.65-.14-1.7-.1-2.67.02-.6.09-1.17.25-1.59.21-.57.55-1.34.83-2.02.29-.69.51-1.28.47-1.42-.05-.17-.3-.99-.57-2.3h0c-.1-.48-.2-1.02-.29-1.62-.07-.47-.14-.97-.21-1.5h0c-.04-.33-.13-.73-.26-1.19-.27-.93-.71-2.09-1.23-3.32-1.64-3.88-4.03-8.39-4.03-8.39l-2.53-2.66-.02-.02-1.82-1.91s.04-.34.15-.8c.17-.67.53-1.6,1.21-2.07,1.15-.79,5.37-.86,8.24.72,2.87,1.58,3.37,3.01,4.3,4.08.93,1.07,1.86,1.43,2.08,2.58.21,1.15-.31,2.6-.1,3.46.21.86.95,2.41,1.24,4.13.29,1.72,0,4.58.14,5.52.14.91,2.42,6.94,2.81,9.31,0,.07.02.13.03.19.29,2.22-.57,2.55-.36,4.78.15,1.52.83,5.15.86,8.33h0Z"/>
        <path class="st8" d="M205.64,174.02s-1.1-1.05-1.58-.62c-.48.43-.53,3.15-.29,3.72s.92,1.67,1.3,1.67.67-.1.67-.1c0,0,.56,2.89,1.75,4.35.88,1.08,2.58,2.63,4.82,3.01,2.24.38,4.87-2.35,5.4-3.18.81-1.29,1.35-3.7,1.35-4.13,0,0,.81.43,1.24.05.43-.38.79-1.67.84-2.15s0-2.77-.29-2.96-1.53.38-1.53.38c0,0-.19-2.05-1.15-2.91-.96-.86-1.67-1.29-2.44-2.34s-3.2-.24-4.49-.62c-1.29-.38-2.77-1.48-2.77-1.48,0,0-.48,1.62-.72,2.87-.24,1.24-1,1.48-1.15,2.15-.14.67-.33,2.1-1,2.29h.04Z"/>
      </g>
      <g>
        <path class="st23" d="M259.95,137.79c.83-5.54,2.17-8.41,3.84-9.51,1.01-.67,2.55-.96,3.71-1.08.93-.1,1.62-.1,1.62-.1,0,0,.19,5.73-.38,10.69h-8.79,0Z"/>
        <path class="st25" d="M266.02,137.79c.32-5.84.98-9.81,1.18-10.32.03-.07.13-.16.3-.27.69-.47,2.42-1.27,3.88-1.92h0c.44-.19.85-.38,1.21-.53.69-.3,1.17-.5,1.17-.5l3.49.1,2.69.08,2.76.08,6.48,2.28h0c-.02.17-.64,6.26-.52,11h-22.64Z"/>
        <path class="st23" d="M279.43,121.61s.97.2,1.3.49c.68.57.64.72,1.97,2.4,0,0-.23,3.56-2.46,5.27,0,0-1.94-1.38-2.4-1.53s-2.74,1.84-2.74,1.84c0,0-2.15-1.8-2.92-1.84-.9-.05-2,1.46-2,1.46,0,0,.54-5.55,3.3-6.75,3.96-1.72,5.93-1.33,5.93-1.33h.02Z"/>
        <path class="st16" d="M274.81,104.42s-1.75-1.05-2.67-.38-1.41,2.41-1.62,2.73-2.17,1.52-2.57,2.49.11,1.1-.03,2.01c-.14.91-.84,1.43-.86,2.64s1.88,2.48,2.71,2.83c.83.34,9.27,4.18,9.27,4.18,0,0,2.51,0,2.82-.36s.28-1.83.53-2.05.85.11,1.4-1.04c.56-1.14.14-2.29.32-3.1.18-.82,1.24-.05,1.29-2.13.06-2.08-1.55-2.51-2.67-3.7-1.12-1.2-1.78-3.49-3.76-4.4s-4.17.29-4.17.29h.01Z"/>
        <g>
          <path class="st15" d="M280.04,124.28s-1.65,2.6-4.04,2.74c-3.01.17-3.41-1.42-3.41-1.42v-3.59l5.98-4.26.55,2.45.92,4.08Z"/>
          <path class="st20" d="M279.12,120.2c-.12.93-.79,4.75-3.97,5.07-1.08.11-1.92-.1-2.56-.44v-2.83l5.98-4.26.55,2.45h0Z"/>
        </g>
        <path class="st15" d="M281.05,118.15c-.58.62-1.04.17-1.04.17,0,0-1.09,2.25-1.62,2.89s-3.13,2.69-5.03,2.33-3.29-2.34-3.78-4.54c-.43-1.95-.35-5.11-.14-6.15.02-.08.04-.17.06-.25.04-.16.07-.32.12-.47.25-.92.6-1.79,1.2-2.7.75-1.15,1.93-2.05,3.18-1.16,0,0,1.2-.51,1.87-.35,1.15.26,1.72,1.24,1.73,2.65,0,.6.12,1.05.3,1.39.22.42.54.66.82.81.06.03.13.06.19.09.55.23.83.14.83.14,0,0,.06,1.15.77,1.65,0,0,.64-.67,1.2-.35.79.45-.07,3.23-.66,3.86h0Z"/>
        <path class="st23" d="M297.17,137.79h-8.71c-.09-4.99.7-10.83.72-11h0s3.49.35,5.18,1.73c1.49,1.22,2.5,4.06,2.8,9.28h.01Z"/>
        <g>
          <path class="st11" d="M277.82,116.85h0c-.43,0-2.22-.12-2.48-.39-.21-.22-.34-.99-.33-1.4,0-.24.05-.39.15-.47h0c.08-.07.28-.26,1.75-.12.4.04,1.72.18,1.89.41.23.32-.29,1.72-.44,1.87-.07.07-.17.11-.53.11h-.01ZM275.63,116.17c.26.14,2.07.33,2.44.26.12-.2.37-1.04.38-1.3-.47-.18-2.69-.41-3.01-.24-.08.2.05,1.1.19,1.28ZM278.1,116.42h0Z"/>
          <path class="st11" d="M271.65,116.46h0c-.43,0-2.22-.12-2.48-.39-.21-.22-.34-.99-.33-1.4,0-.24.05-.39.15-.47h0c.08-.07.28-.26,1.75-.12.4.04,1.72.18,1.89.41.23.32-.29,1.72-.44,1.87-.07.07-.17.11-.53.11h-.01ZM269.45,115.77c.26.14,2.07.33,2.44.26.12-.2.37-1.04.38-1.3-.47-.18-2.69-.41-3.01-.24-.08.2.05,1.1.19,1.28ZM271.93,116.02h0Z"/>
          <path class="st11" d="M275.18,114.91c-1.06-.72-2.63-.13-2.65-.12l-.15-.38c.07-.03,1.79-.68,3.03.17l-.23.34h0Z"/>
        </g>
      </g>
      <g>
        <path class="st33" d="M78.36,75.31c1.12-3.94,2.29-7.68,2.83-8.13,1.19-.99,5-1.91,6.22-2.54.87-.45,2.73-1.31,3.72-1.75h0l.04-.02.39-.18.04-.02.17-.08h.78l.96.02h.39l6.11.08h.03s.02,0,.02,0l.03.02c.18.07.63.24,1.2.45.08.03.16.06.25.09h0c.17.06.35.13.53.2,1.21.46,2.57.97,2.96,1.13.74.3,4.59,1.04,5.99,2.02.68.48,2.14,4.6,3.46,8.69h-36.12Z"/>
        <path class="st6" d="M93.55,60.84s-1.55,1.02-1.79,1.76c-.67,2.02-.23,4.72-.23,4.72l1.02-.27-.04,1.18,5.18,2.15,3.82-2.83-.08-1.04,1.02-.27s-.35-2.24-1.52-4.08c-2.07-3.23-7.38-1.31-7.38-1.31h0Z"/>
        <path class="st27" d="M93.54,61.44s-.28,2.67.65,4.58c.61,1.25,3.31,3.24,3.31,3.24,0,0,2.2-1.91,2.46-3.31.26-1.4.06-3.25.06-3.25l-6.47-1.26h0Z"/>
        <g>
          <path class="st27" d="M92.89,53.63s-.58-.72-.92-.49-.16,3.22.06,3.52.74.23.74.23l.12-3.26Z"/>
          <path class="st27" d="M103.91,54.04c-.08.82-.48,2.82-.74,4.01-.1.44-.18.77-.21.88-.13.41-.51,5.97-5.53,5.95-5.01-.02-4.65-7.99-4.65-7.99l-.29-3.35s-.11-2.04.21-2.5c.33-.46.98-.23.98-.23,0,0,1.49-4.68,6.19-3.55,4.7,1.13,4.16,5.66,4.04,6.79h0Z"/>
          <path class="st17" d="M103.16,58.05c-.1.44-.18.77-.21.88-.13.41-.51,5.97-5.53,5.95-5.01-.02-4.65-7.99-4.65-7.99l-.29-3.35s-.11-2.04.21-2.5c.33-.46.98-.23.98-.23.54.2.16,1.55.05,2.2s-.12,2.66.02,3.49.7,2.39,1.07,2.45c.37.05,1.89-1.13,4.05-1.03,1.72.08,2.12.95,2.59,1.7.94.06,1.51-1.1,1.7-1.56h.01Z"/>
          <path class="st27" d="M103.75,54.9s.65-.5.92-.16-.82,3.04-.99,3.17-.46-.06-.46-.06l.53-2.96h0Z"/>
        </g>
        <g>
          <path class="st11" d="M97.7,56.9c-.78,0-2.53-.31-2.79-.45-.25-.14-.28-.83-.25-1.39.05-1.04.24-1.13.3-1.16h0c.22-.1,1.14,0,1.88.08,1.62.2,1.69.3,1.72.36.11.18-.09,1.5-.24,2.03-.08.29-.17.43-.28.49-.06.03-.18.04-.34.04ZM95.07,56.17c.29.14,2.52.49,2.82.4.19-.19.4-1.66.39-2.04-.46-.14-2.81-.43-3.17-.34-.16.27-.2,1.78-.04,1.98ZM95.08,56.18h0Z"/>
          <path class="st11" d="M103.23,57.72c-.72,0-2.41-.38-2.67-.52-.25-.14-.28-.83-.25-1.39.05-1.04.24-1.13.3-1.16.18-.08.78-.04,1.8.11,1.53.23,1.6.35,1.63.4.11.18-.09,1.5-.24,2.03-.08.29-.17.43-.28.49-.05.03-.15.04-.28.04h-.01ZM100.72,56.92c.31.16,2.36.56,2.64.47.19-.19.4-1.67.39-2.04-.43-.15-2.66-.49-2.99-.41-.16.27-.2,1.78-.04,1.98ZM103.81,55.37h0ZM100.68,54.8h0Z"/>
          <path class="st11" d="M100.49,55.63s-.07,0-.1-.04c-.48-.42-1.63-.37-2.04-.31-.09,0-.17-.05-.18-.14s.05-.17.14-.18c.06,0,1.6-.21,2.29.39.07.06.07.16.02.23-.03.04-.08.06-.12.06h0Z"/>
        </g>
      </g>
      <g class="st28">
        <path class="st30" d="M180.64,119.06c-.46-5.23-2.48-9.77-5.99-13.53-4.75-5.05-10.52-7.62-17.18-7.62-.98,0-2.01.05-3.03.17-4.91.54-9.33,2.59-13.13,6.11-3.49,3.24-5.88,7.3-6.94,11.75-1.03,4.38-.74,9.03.84,13.46,1.59,4.46,4.62,8.23,9.01,11.2,4.65,3.14,9.95,4.42,15.75,3.78,4.98-.54,9.4-2.55,13.13-5.94,4.96-4.53,7.53-10.36,7.65-17.32,0-.18,0-.37-.03-.58-.03-.46-.05-.97-.1-1.48h.02ZM157.15,140.21h-.11c-4.96,0-9.6-1.92-13.07-5.4-3.64-3.66-5.65-8.57-5.64-13.85,0-4.94,1.95-9.62,5.55-13.19,3.59-3.57,8.32-5.54,13.3-5.55h.04c10.44,0,18.95,8.44,18.98,18.81.03,10.69-8.35,19.1-19.07,19.18h.02Z"/>
        <circle class="st31" cx="157.27" cy="121.23" r="2.49"/>
      </g>
    </g>
  </g>
</svg>