<?xml version="1.0" encoding="UTF-8"?>
<svg id="Laag_2" data-name="Laag 2" xmlns="http://www.w3.org/2000/svg" viewBox="0 0 145.73 145.73">
  <defs>
    <style>
      .cls-1 {
        fill: #13261f;
      }

      .cls-2 {
        fill: #d9ede7;
      }

      .cls-3 {
        fill: #1f1f1e;
      }

      .cls-4 {
        fill: #58b995;
      }

      .cls-5 {
        fill: none;
        stroke: #58b995;
        stroke-miterlimit: 10;
        stroke-width: 4px;
      }
    </style>
  </defs>
  <g id="Laag_1-2" data-name="Laag 1">
    <g>
      <rect class="cls-5" x="2" y="2" width="141.73" height="141.73" rx="22.68" ry="22.68"/>
      <g>
        <circle class="cls-2" cx="71.43" cy="72.87" r="42.82" transform="translate(-30.6 71.85) rotate(-45)"/>
        <g>
          <path class="cls-1" d="M54.57,72.19s.68,1.53,0,2.56c-.68,1.03-2.7.97-2.94,3.12-.23,2.15.25,2.98,1.23,4.55s.24,2.52,1.34,3.28c1.1.76,3.67,1.21,3.16,3.17-.51,1.96-1.41,5.6-.93,6.5.47.9-.13.89-.29,1.99-.16,1.11,1.41,2.24,1.28,3.65-.13,1.41-1.53,2.8-.62,4.28s1.15.92,1.56,2.26c.41,1.34.71,1.91,1.43,2.09.73.18,1.91.35,2.34,1.02.43.67,1.51-.54.78-1.24-.73-.71-1.67-.47-1.39-1.86.28-1.39,1.09-1.8-.02-2.49s-.92-1.49-.46-1.5c.45-.01,1.5-.46.62-1.19s-1.15-.92-.47-.9c.68.02,2.76.7,4.6-1.07s3.5-3.87,3.5-3.87c0,0,.55-1.2.35-2.44-.2-1.23.75-1.55,2.39-1.39s1.45-.62,1.45-.62c0,0,1.44,1.49,1.94-4.55,0,0-.08-.99,1.77-1.86,1.86-.86.29-3.05-.77-3.05,0,0-.41-1.34-1.29-1.54-.88-.2-2.87.04-3.68-.6s-1.94-1.18-1.94-1.18c0,0,1-4.3-3.23-4.31,0,0-.61-3.1-2.73-3.03-2.12.07-2.37.26-2.68-.23-.31-.5-.7-2.44-2.19-2.05-1.49.39-1.84,2.3-3.28,1.87-1.45-.43-3.27-.32-2.84-1.76.43-1.45.68-3.14-1.58-3.17,0,0-.57-.23.37-1,.94-.77.51-1.96-.03-1.89s-2.13,1.2-2.89,1.24-3.19-.38-1.85-3.36c1.33-2.97,7.71-3.26,8.17-1.77.46,1.5-.08,2.1,1.41,2.24,1.49.14,1.04-2.49,1.04-2.49l4.05-2.51s.42-.32.72-.8,5.24-2.87,6.3-4.52,1.43-2.58,2.83-1.85c1.4.73,1.98.89,2.34-.04.36-.93,2.2,1.45,2.95.42.75-1.02.4-2.28-1.15-2.5s.48-1.74-.15-2.13c-.62-.39-1.79.95-2.4.41-.6-.54.67-2.54-1.36-2.61s-2.28.12-2.9,2.37c-.62,2.25-1.51,0-3.1,1.66-1.59,1.66-1.22.65-1.38-.35-.16-1-1.25-1.76-2.37-1.85-1.12-.09-.67-2.13.97-2.57,1.65-.44,3.64-1.21,3.64-1.21,0,0,.18,1.38,1.36,1.02,1.18-.36,1.58-1.58,1.58-1.58l1.18.17s.8-.86,1.03-.91c.23-.04,2.66.38,2.66.38,0,0,1.37-.1.07.54-1.3.64-2.09-.15-1.81,1.02.28,1.17.38.51,1.24,1.31.86.8,2.25.62,2.55-.46,0,0,1.78.71,2.17-.44.39-1.15-.54-1.51-.54-1.51,0,0-.16-1.53-1.75-2.51-1.59-.98-5.62-1.79-6,.34-.38,2.13-2,.77-2,.77,0,0,.97-.46,1.14-1.65.17-1.18-3-1.71-3.07-.67-.07,1.04.68,1.53-.17,1.71-.85.18-1.65.44-2.71.51s-1.18-1.23-1.18-1.23c0,0,.81.12,1.98-.17,1.17-.28,1.86-1.39.56-1.8-1.3-.41.08.99-2.8.58,0,0-.36-.13-.67-1.08-.32-.95-2.96-1.41-3.91-.56s-.44,1.52.35,1.78-.34.78.91,1.03,1.75.4,1.4.73c-.35.33-6.57-1.47-6.45-2.89,0,0-12.5,5.67-17.49,17.31,0,0,.13.7.93.89s1.32.26,1.02,1.81-.76,4.79,1.29,5.16c2.06.37,1.02-1.36.54-2.18s-.8-3.36.39-2.73c1.19.62-.56.75,1.22,4.1,1.78,3.35-.97,3.1,1.17,5.52,2.14,2.42,3.33-.12,4.04.73.71.86.03,1.36,1.43,1.56,1.4.2.81-.41,1.44.96.63,1.37,1.07,4.07,5.21,3.09Z"/>
          <path class="cls-1" d="M68.86,52.46s-1.12.44-.6,1.04c.52.6,1.92.28.6-1.04Z"/>
          <path class="cls-1" d="M70.51,50.43s-.65-.17-.76.57c-.11.74,1.12,1.14,1.5.59.38-.55-.74-1.16-.74-1.16Z"/>
          <path class="cls-1" d="M72.35,51.83s-.55.67-1.16.74c-.61.06-1.41-.13-.97.99s1.44-.02,1.44-.02c0,0,2.18-.52.7-1.71Z"/>
          <path class="cls-1" d="M74.69,50.73s-1.93-.2-1.09,1.28c0,0,.56.31,1.09.83.53.53,1.86.72,1.97-.09.12-.81-.2-1.76-1.97-2.02Z"/>
          <path class="cls-1" d="M94.28,61.84s-3.46-1.1-4.6,1.07c-1.14,2.17-.66,2.47-3.88,3.36s-.78,2.83-.78,2.83c0,0,1.03.68-.2,1.4-1.24.73-1.76,2.84-1.2,4.13.57,1.29,2.27,4.17,3.47,4.72,1.2.55,4.68.97,5.41.1.73-.88,1.35-1.01,2.28-.12.93.89,4.02.35,3.67,1.21s-1.98,2.73-.72,5.02c1.25,2.29,2.13,4.08.67,5.3s-1.38,2.82-.08,4.21c0,0-1.03,2.94-.08,4.21.95,1.27.78,2.98.43,3.83s.02.38.02.38c0,0-.26,1.32.44.59.71-.73,16.24-14.4,13.63-36.64,0,0-3.75.37-4.12-.74-.37-1.11-1.59-1.51-4.06-1.11-2.47.4-1.5-.59-2.35-.94s-1.78-.18-1.78-.18c0,0,2.53-4.46-6.18-2.62Z"/>
          <path class="cls-1" d="M95.59,56.38s.45,1.57-.62,1.19c-1.08-.38-3.87-1.39-4.02,1.23-.15,2.62,2.19,2.58,4.22,2.11s3.05-2.88,3.05-2.88c0,0,2.04,1.05,2.83-.27,0,0,.85,2.46,2.09,2.79,0,0-1.16.21-.95,1.37.21,1.16,3.61.59,2.87-1.62s-4.18-1.88-2.12-3.09c2.06-1.21,3,2.24,3.02,3.15.02.91-.74,3.06,1.03,2.26,1.77-.8,1.4-3.42,1.95-2.06.56,1.36-.49,2.87,1.15,3.03,1.64.16,2.07.3,2.07.3,0,0-2.81-10.88-8.84-17.7,0,0-.04.82-1.56.91s-2.46,1.91-1.42,3.04c1.04,1.13,2.64.53,2.59,1.35s-.33,1.23-1.53.68c-1.2-.55-1.97-.43-2.28.65-.31,1.09-.8,1.92-1.65,1.5s-2.83.27-1.88,2.07Z"/>
          <path class="cls-1" d="M92.94,50.19s-1.71.89-.33,2.29,1.75-1.71,2.47-1.45c.72.25.69,1,.2,1.23-.49.23-1.44,1.08-.5,1.36.94.29,3.21.76,3.18-.6-.03-1.36-1.06-1.51-1.06-1.51,0,0-1.03-1.2-.28-2.23,0,0,.06-.97-1.07-.98-1.13-.01-1.1,1.88-1.33,1.92-.23.04-1.28-.03-1.28-.03Z"/>
        </g>
      </g>
      <g>
        <path class="cls-4" d="M36.49,24.08c-.25-2.84-1.34-5.3-3.25-7.33-2.57-2.74-5.7-4.13-9.31-4.13-.53,0-1.09.03-1.64.09-2.66.29-5.05,1.4-7.11,3.31-1.89,1.75-3.19,3.95-3.76,6.37-.56,2.37-.4,4.89.46,7.29.86,2.42,2.51,4.46,4.88,6.07,2.52,1.7,5.39,2.39,8.54,2.05,2.7-.29,5.09-1.38,7.11-3.22,2.69-2.45,4.08-5.61,4.15-9.38,0-.1,0-.2-.02-.31-.02-.25-.03-.52-.05-.8h0ZM23.76,35.55h-.06c-2.69,0-5.2-1.04-7.08-2.92-1.97-1.98-3.06-4.64-3.05-7.5,0-2.68,1.06-5.21,3.01-7.15,1.94-1.94,4.51-3,7.21-3.01h.02c5.66,0,10.27,4.57,10.28,10.19.02,5.79-4.52,10.35-10.33,10.39h0Z"/>
        <circle class="cls-3" cx="23.83" cy="25.26" r="1.35"/>
      </g>
    </g>
  </g>
</svg>