<?xml version="1.0" encoding="UTF-8"?>
<svg id="Laag_2" data-name="Laag 2" xmlns="http://www.w3.org/2000/svg" viewBox="0 0 419.22 496.17">
  <defs>
    <style>
      .cls-1 {
        fill: #3c3c3b;
      }

      .cls-2 {
        fill: #381905;
      }

      .cls-3 {
        opacity: .24;
      }

      .cls-3, .cls-4, .cls-5, .cls-6 {
        fill: #58b895;
      }

      .cls-4 {
        opacity: .44;
      }

      .cls-5 {
        opacity: .56;
      }

      .cls-6 {
        opacity: .2;
      }

      .cls-7 {
        fill: #7f665e;
      }

      .cls-8, .cls-9 {
        fill: #ced9db;
      }

      .cls-10 {
        fill: #ff8c65;
      }

      .cls-11, .cls-12, .cls-13 {
        fill: none;
      }

      .cls-11, .cls-12, .cls-9 {
        stroke: #381905;
        stroke-linecap: round;
        stroke-linejoin: round;
      }

      .cls-11, .cls-9 {
        stroke-width: .29px;
      }

      .cls-12 {
        stroke-width: .31px;
      }

      .cls-14 {
        fill: #68544f;
      }

      .cls-15 {
        fill: #8e373f;
      }

      .cls-16 {
        fill: #58b995;
      }

      .cls-13 {
        stroke: #ced9db;
        stroke-miterlimit: 10;
        stroke-width: 3px;
      }

      .cls-17 {
        fill: #105f9a;
      }

      .cls-18 {
        fill: #1f1f1d;
      }

      .cls-19 {
        fill: #ff8b6a;
      }

      .cls-20 {
        fill: #ffb878;
      }
    </style>
  </defs>
  <g id="OBJECTS">
    <g>
      <circle class="cls-3" cx="337.66" cy="414.61" r="81.56" transform="translate(-194.27 360.2) rotate(-45)"/>
      <g>
        <path class="cls-19" d="M320.24,407.3c-.05-.72-.84-13.77-.25-19.79.16-1.65,1.6-2.88,3.25-2.78h0c1.71.1,3.01,1.58,2.89,3.29l-2.26,19.08-3.63.2Z"/>
        <g>
          <path class="cls-19" d="M323.69,404.31c.23.08.4.26.53.47.35.39.63,1.22,1.06,2.12.68,1.41,1.48,2.44.66,2.83-.49.24-1.13.03-1.7-.48-.51,2.4-1.39,4.78-1.5,4.86-.3.25-.83,0-1.06-.03-.2-.02-.15.38-.68.3-.27-.11-.53-.25-.78-.44-.17-.23-.18-.46-.14-.56.07-.15-.58-.13-.84-.47-.01-.02-.02-.04-.03-.05-.2-.35.13-.84.14-1.04.01-.17-.62-.1-.82-.94-.14-1.05-.03-2.28.47-3.68,1.61-4.45,2.63-3.62,4.67-2.89Z"/>
          <path class="cls-20" d="M323.09,362.92c1.94-.52,4.37,2.97,4.42,6.64.09.58-1.16,14.57-1.24,18.37-.04,1.8-1.6,3.2-3.43,3-1.58-.17-2.73-1.59-2.75-3.18-.03-4.11-2.43-23.41,2.99-24.84Z"/>
        </g>
        <path class="cls-19" d="M336.93,379.09c.1-.06.2-.12.29-.18.86-.55,2.03-1.33,2.26-2.38.2-.9-.75-1.78-1.15-2.5-.14-.24-.36-.4-.63-.49-.47-.25-1.29-.38-2.18-.64-1.51-.43-2.65-1.04-2.9-.17-.15.53.16,1.12.76,1.6-.11.21-2.08,1.53-2.15,1.64-.19.33.14.81.2,1.04.06.2-.35.21-.18.72.15.25.34.48.56.7.25.12.49.1.57.04.14-.09.23.55.61.74.02,0,.04.01.06.02.38.14.81-.27,1-.32.11-.03.34.37.43.44.74.55,1.71.17,2.45-.26Z"/>
        <path class="cls-19" d="M335.33,376.4c.51.51,9.76,9.75,14.66,13.29,1.34.97,3.22.71,4.24-.6h0c1.06-1.35.81-3.31-.55-4.35l-15.8-10.94-2.55,2.59Z"/>
        <g>
          <path class="cls-20" d="M349.76,363.01c-2.48-3.19-26.23-1.29-27.71.41-1.48,1.7,3.52,15.9,3.52,21.84,0,7.58-2.04,13.58-2.04,13.58,0,0,5.91,1.28,13.84,1.39,7.94.11,9.66-5.47,9.66-5.47,0,0-1.33-9.59-1.1-11.61.24-2.02,5.3-18.26,3.83-20.14Z"/>
          <path class="cls-8" d="M347.03,394.77c.51,1.63.98,3.42,1.33,5.38,1.06,5.86.76,11.01.15,14.92-4.52.55-10.19.03-16.41.11-5.21.07-8.97.05-8.97.05-1.55-6.59-2.36-13.63,1.48-19.78-3.55,5.69,22.58.74,22.42-.67Z"/>
          <g>
            <g>
              <g>
                <path class="cls-19" d="M336.91,404.95s1.06,29.1,2.82,37.49c1,4.76,7.64-.44,7.24-2.93-.39-2.49,3.35-35.41,1.27-36.96-.85-.64-1.84-.7-2.84-.76-3.99-.22-7.13,2.03-8.5,3.16Z"/>
                <path class="cls-19" d="M347.97,445.18c-.33-4.02-1.22-7.79-2.42-9.36-1.05-1.39-5.21-1.51-5.56.61-1.12,4.62,2.45,24.87,2.53,28.99.04,2.04-.35,2.72,1.16,3.12,1.51.4,2.52-.45,2.52-.45.73-1.03.39-2.46.53-4.06.14-1.6,1.58-14.83,1.25-18.84Z"/>
              </g>
              <path class="cls-19" d="M342.44,466.44c-.02,2.36-.76,5.24-.75,6.18.02,2.02,3.68,2.38,4.76.03.35-.75.62-4.05.13-6.66-.49-2.61-4.14.45-4.14.45Z"/>
              <path class="cls-2" d="M347.24,472.37c-.56,3.51-2.39,5.99-4.12,5.87-2.78-.2-2.04-3.99-1.48-7.5.56-3.51,1.79-5.5,3.51-5.22,1.72.27,2.66,3.34,2.1,6.86Z"/>
            </g>
            <path class="cls-8" d="M347.14,439.06c.48,1.75.83,3.86,1.02,6.1.28,3.46-.58,12.13-.96,15.98,0,.03-.08.81-.13,1.31-.02.24-.19.45-.42.51-1.34.35-2.81.29-4.17-.1-.23-.07-.38-.26-.41-.5-.18-1.54-.43-3.44-.7-5.5-.59-4.46-1.26-9.52-1.58-13.67-.1-.23-.17-.46-.22-.71-1.75-8.31-2.81-37.23-2.82-37.52v-.09s.07-.06.07-.06c1.9-1.57,4.93-3.41,8.63-3.2.95.05,2.03.11,2.94.79,1.34,1,.54,12.56-.55,26.41-.37,4.72-.69,8.8-.67,10.25Z"/>
          </g>
          <g>
            <g>
              <g>
                <path class="cls-19" d="M335.15,406.89s2.51,31.06,1.68,40.2c-.47,5.19-8.17.49-8.07-2.21.11-2.7-7.97-37.22-5.96-39.13.82-.78,1.87-.98,2.92-1.16,4.21-.73,7.83,1.26,9.43,2.3Z"/>
                <path class="cls-19" d="M328.42,451.02c-.15-4.31.33-8.43,1.4-10.25.94-1.61,5.35-2.25,5.99-.05,1.77,4.77.5,26.74.93,31.13.21,2.18.71,2.85-.84,3.46-1.55.61-2.73-.16-2.73-.16-.9-1-.72-2.56-1.07-4.25-.35-1.69-3.52-15.56-3.68-19.87Z"/>
              </g>
              <path class="cls-19" d="M336.94,472.93c.32,2.51,1.46,5.47,1.57,6.48.23,2.15-3.62,2.99-5.06.63-.46-.76-1.16-4.23-.97-7.06.19-2.84,4.45-.04,4.45-.04Z"/>
              <path class="cls-2" d="M332.58,479.83c1.03,3.66,3.29,6.07,5.11,5.72,2.93-.56,1.67-4.49.64-8.16-1.03-3.67-2.59-5.62-4.38-5.11-1.79.5-2.4,3.89-1.37,7.55Z"/>
            </g>
            <path class="cls-8" d="M328.54,444.41c-.29,1.92-.4,4.2-.32,6.61.13,3.72,2.13,12.82,3.02,16.86,0,.03.19.85.3,1.37.06.25.26.45.51.49,1.47.21,3.03-.04,4.42-.63.23-.1.38-.33.38-.58,0-1.66.03-3.71.06-5.93.07-4.82.15-10.27-.02-14.72.07-.25.12-.51.15-.79.82-9.05-1.65-39.92-1.68-40.23v-.1s-.09-.05-.09-.05c-2.21-1.43-5.66-3.01-9.57-2.33-1,.17-2.14.37-3.02,1.21-1.3,1.24.99,13.41,3.88,28,.98,4.97,1.84,9.27,1.99,10.81Z"/>
          </g>
          <path class="cls-20" d="M349.76,363.01c2.68,3.27,7.56,25.46,3.48,26.69s-6.63-17.75-7.76-22.37c-1.13-4.62,2.58-6.41,4.29-4.32Z"/>
          <path class="cls-15" d="M348.35,362.18c-1.23-.76-1.24,21.38-.39,26.56l-1.08.03s-1.8-21.03.71-26.8l.76.21Z"/>
          <g>
            <path class="cls-19" d="M330.37,363.48c.03.94,2.43,3.51,5.31,3.42,2.88-.08,5.13-2.78,5.11-3.72-.03-.94-2.38-1.64-5.26-1.56-2.88.08-5.19.91-5.16,1.86Z"/>
            <rect class="cls-19" x="333.4" y="358.05" width="4.26" height="7.15" transform="translate(681.32 713.43) rotate(178.35)"/>
            <path class="cls-2" d="M333.33,359.43l-.06-2,4.26-.12.09,3.1c-1.48,0-2.9-.38-4.29-.97Z"/>
            <path class="cls-2" d="M335.39,343.04c4.49-.13,6.18,3.55,6.31,8.01.12,4.2-2.52,7.8-5.85,7.89-3.51.1-6.17-3.34-6.3-7.54-.13-4.46,1.35-8.23,5.84-8.36Z"/>
            <path class="cls-2" d="M329.28,351.16c.35.16.82-1.24,3-3.25,2.92-2.69,5.04-2.91,5.02-4.06-.03-1.14-2.15-2.51-3.87-2.18-3.67.7-4.98,9.12-4.15,9.49Z"/>
            <path class="cls-2" d="M341.68,351.56c-.37.02-.36-1.43-1.85-4.18-.65-1.2-1.31-2.4-2.53-3.54-1.64-1.55-2.87-1.66-2.82-2.14.09-.84,3.16-2.11,5.67-.28,3.49,2.54,2.36,10.09,1.52,10.13Z"/>
          </g>
          <g>
            <path class="cls-15" d="M348.97,387.04s4.93,2.73,6.33,5.29c1.4,2.56.89,3.24-.24,4.07,0,0,2.31,2.18,2.07,3.07-.24.89-1.03,5.59-2.03,6.28-1,.69-6.3,2.08-6.97,1.7-.67-.38-6.17-22.82.82-20.41Z"/>
            <path class="cls-11" d="M354.62,397.56c-.04.18-.38,3.5-.87,3.47s-1.99-9.39-6.81-8.01"/>
          </g>
          <path class="cls-2" d="M342.5,346.08c1.71,7.31,4.51,16.25,3.75,18.51-.76,2.26-22.21,1.37-22.21,1.37,0,0,4.95-13.87,5.93-20.29"/>
        </g>
        <path class="cls-2" d="M332.12,475.54c-.02.25.13,9.55.34,10.05.2.49,1.14.26,1.14.26l.24-6.95"/>
        <path class="cls-2" d="M347.4,469.61c.02.25-.13,9.55-.34,10.05s-1.14.26-1.14.26l-.24-6.95"/>
      </g>
      <g>
        <path class="cls-13" d="M337.18,403.13c0-9.77,7.94-17.71,17.71-17.71"/>
        <path class="cls-13" d="M372.6,403.13c0,9.77-7.94,17.71-17.71,17.71"/>
        <path class="cls-13" d="M343.18,403.13c0-6.46,5.25-11.71,11.71-11.71"/>
        <path class="cls-13" d="M366.6,403.13c0,6.46-5.25,11.71-11.71,11.71"/>
        <path class="cls-13" d="M349.18,403.13c0-3.15,2.56-5.71,5.71-5.71"/>
        <path class="cls-13" d="M360.6,403.13c0,3.15-2.56,5.71-5.71,5.71"/>
      </g>
      <g>
        <path class="cls-1" d="M293.2,421.72c-9.03,0-16.35,7.32-16.35,16.35s16.35,28.97,16.35,28.97c0,0,16.35-19.94,16.35-28.97s-7.32-16.35-16.35-16.35ZM293.2,447.8c-5.37,0-9.73-4.36-9.73-9.73s4.37-9.73,9.73-9.73,9.73,4.36,9.73,9.73-4.37,9.73-9.73,9.73Z"/>
        <g>
          <path class="cls-16" d="M304.35,437.04c-.22-2.5-1.18-4.66-2.86-6.45-2.27-2.41-5.02-3.63-8.2-3.63-.47,0-.96.03-1.45.08-2.34.26-4.45,1.24-6.26,2.91-1.66,1.55-2.81,3.48-3.31,5.61-.49,2.09-.35,4.31.4,6.42.76,2.13,2.21,3.92,4.3,5.34,2.22,1.5,4.75,2.11,7.51,1.8,2.38-.26,4.48-1.21,6.26-2.83,2.36-2.16,3.59-4.94,3.65-8.26,0-.09,0-.18-.01-.28-.01-.22-.03-.46-.05-.71h0ZM293.14,447.13h-.05c-2.36,0-4.58-.92-6.23-2.58-1.74-1.74-2.69-4.09-2.69-6.6,0-2.36.93-4.59,2.65-6.29,1.71-1.7,3.97-2.64,6.35-2.65h.02c4.98,0,9.04,4.03,9.05,8.97.01,5.1-3.98,9.11-9.09,9.15h0Z"/>
          <circle class="cls-18" cx="293.2" cy="438.07" r="1.19"/>
        </g>
      </g>
    </g>
    <g>
      <circle class="cls-6" cx="81.57" cy="81.57" r="81.56" transform="translate(-33.79 81.57) rotate(-45)"/>
      <g>
        <path class="cls-19" d="M78.95,70.6s-6.01,35.37-4.1,41c1.91,5.63,8.89,3.44,9.19.37.3-3.07,10.53-36.34,10.53-36.34l-15.63-5.03Z"/>
        <g>
          <path class="cls-19" d="M77.18,147.53c.33-.51,1.01-3.79,1.63-5.87,7.15-23.95,5.59-28.55,5.59-28.55.07-3.12-2.51-5.59-5.35-5.47-2.55.11-4.27.27-4.4,3.06-.02.02-.75,26.67-1.68,31.86-.7,3.88-1.49,4.03-1.68,4,.48.13,5.59,1.46,5.9.97Z"/>
          <path class="cls-2" d="M78.23,146.91c-.09-.73-.27-1.45-.59-1.31-.54.24-.98.68-1.52.94-1.2.58-2.77-.12-3.68-.96-.59-.54-1.26-.16-1.88.08-.66.25-1.33.48-2,.71-.85.29-1.69.57-2.55.84,0,0-1.3.23-1.53.45-.17.17-.47,1.12-.43,1.23.04.11,1.27,1.16,2.79,1.63,1.55.48,4.5.63,5.71.42.78-.13,1.56-.21,2.35-.31.95-.11,2.6.06,3.14-.91.46-.82.3-1.94.18-2.82Z"/>
        </g>
        <g>
          <path class="cls-19" d="M82.57,72.19s3.29,35.72,6.58,40.67c3.29,4.95,9.48,1.04,8.98-2-.5-3.04.84-37.83.84-37.83l-16.4-.84Z"/>
          <g>
            <path class="cls-19" d="M122.95,131.92c-.25-.55-2.66-2.88-4.08-4.53-16.37-18.89-21.09-20.03-21.09-20.03-2.59-1.74-6.07-.88-7.49,1.58-1.28,2.21-2.07,3.75.22,5.35,0,.03,22.11,14.95,25.98,18.51,2.9,2.67,2.6,3.42,2.48,3.57.36-.34,4.23-3.93,3.99-4.46Z"/>
            <path class="cls-2" d="M122.99,130.7c-.67-.31-1.37-.55-1.43-.2-.09.58.05,1.19-.02,1.78-.15,1.32-1.59,2.27-2.79,2.59-.77.2-.81.98-.94,1.63-.14.69-.3,1.38-.47,2.07-.21.87-.43,1.74-.65,2.6,0,0-.51,1.22-.44,1.53.05.23.7,1,.81,1.02.11.02,1.66-.45,2.88-1.48,1.24-1.05,2.95-3.46,3.42-4.59.3-.73.66-1.44,1-2.15.41-.86,1.44-2.16.92-3.14-.44-.83-1.47-1.29-2.28-1.67Z"/>
          </g>
          <path class="cls-15" d="M78.56,69.95l-.1.57c-.22,1.32-5.48,32.45-4.31,40.15h.02c-.03.25-.04.7-.07,1.6-.29,8.88-.57,15.87-.85,20.96,2.64.73,5.38,1.05,8.15,1.18,4.35-16.19,3.69-20.67,3.52-21.37,0-.58-.07-1.15-.24-1.71,1.2-5.65,10.3-35.26,10.39-35.56l.15-.47-16.65-5.36Z"/>
          <path class="cls-15" d="M114.4,121.63c-9.85-10.79-14.35-13.73-15.88-14.5.01-9.61.94-33.83.95-34.08l.02-.49-17.47-.89.05.57c.13,1.46,3.34,35.91,6.66,40.9.04.06.08.12.15.18.23.42.59.81,1.07,1.18.22.18.44.34.65.47l.89.61c7.95,5.42,14.02,9.65,18.22,12.68,1.58-2.2,3.14-4.41,4.69-6.63Z"/>
          <path class="cls-12" d="M82.07,72.24c.13,1.46,3.34,35.91,6.66,40.9"/>
        </g>
        <path class="cls-19" d="M86.49,27.06c-2.41-2.29-7.68,3.37-9.5,6.56-2.8,3.85-6.42,12.62-8.19,15.99-.83,1.59-.14,3.58,1.55,4.28,1.47.61,3.16-.07,3.94-1.46,2.01-3.58,16.25-21.51,12.2-25.38Z"/>
        <path class="cls-19" d="M66.46,31.77c0,.72.24,13.79,1.3,19.74.29,1.63,1.82,2.75,3.46,2.52h0c1.7-.24,2.88-1.81,2.63-3.51l-3.75-18.84-3.64.09Z"/>
        <path class="cls-17" d="M100.72,31.28c.06-3.15-5.46-7.45-11.02-7.53-5.56-.08-9.11,2.4-9.18,5.55l-4.32,44.93c.01,2.44,19.92.98,24.52,3.4.95.5,0-46.35,0-46.35Z"/>
        <path class="cls-17" d="M85.67,24.47c-5.01.18-7.4.62-11.96,12.8,0,0,4.32,3.93,9.1,4.17,0,0,5.09-11.28,3.95-14.07"/>
        <g>
          <path class="cls-10" d="M64.85,34.37c.64.2,1.34.33,1.84.48,1.15.34,2.43.39,3.09-.8.56-1,.36-2.19-.03-3.21-.37-.97-.84-2.14-1.71-2.77-.37-.27-.81-.42-1.24-.57-.23-.08-.46-.16-.7-.16-.28,0-.59.19-.57.46.02.26.3.4.54.51.24.11.5.32.44.57-.57-.05-1.13-.2-1.65-.44-.42-.2-1.02-.43-1.34.09-.28.46.31,1.11,0,1.56-.18.26-.58.34-.7.64-.17.42.28.83.37,1.22.12.52-.15,1.1.21,1.57.31.41.86.66,1.45.85Z"/>
          <path class="cls-2" d="M64.87,24.37c.3.11.52.37.56.68l1.64,10.63c.08.53-.5.91-.95.61,0,0,0,0-.01,0-.05-.03-.08-.08-.09-.14l-2.1-11.69c-.03-.15.11-.27.25-.24l.7.16Z"/>
          <path class="cls-10" d="M63.48,29.12c.18-.93,2.28-1.13,2.31-.09.03.86-1.76,1.01-1.76,1.01l-.13.68s1.9-.55,2.24.15-.89,1.44-2.09,1.45c0,0,2.3-.19,2.27.73-.02.92-2.41.31-2.09.37.32.06,1.82.49,1.6.96-.23.47-1.41-.08-1.82-.36"/>
          <path class="cls-10" d="M67.62,27.81c-.15-.07-1.35-.97-2.05-.17-.71.8.9.56,1.27,3.45"/>
        </g>
        <path class="cls-19" d="M96.62,26.44c-3.24.75-1.39,8.27.28,11.54,1.69,4.45,7.04,12.29,8.89,15.62.87,1.57,2.92,2.08,4.43,1.05,1.32-.89,1.67-2.68.94-4.09-1.9-3.64-9.08-25.39-14.54-24.11Z"/>
        <path class="cls-19" d="M111.62,72.57c.05-.72.79-13.77.18-19.79-.17-1.65-1.61-2.87-3.26-2.77h0c-1.71.11-3.01,1.59-2.88,3.3l2.33,19.07,3.63.18Z"/>
        <path class="cls-19" d="M108.71,68.75c-.24-.03-.47.04-.69.17-.5.18-1.13.79-1.92,1.39-1.25.94-2.43,1.48-1.89,2.21.33.44.99.54,1.73.36-.66,2.36-.97,4.88-.92,5,.15.36.74.38.95.46.19.08-.05.41.47.58.29.03.59.02.89-.03.25-.12.37-.33.38-.43,0-.16.57.15.96-.03.02,0,.03-.02.05-.03.34-.22.27-.81.35-.99.07-.16.59.2,1.16-.45.61-.87,1.08-2.01,1.28-3.48.63-4.69-.66-4.42-2.81-4.72Z"/>
        <path class="cls-17" d="M93.66,24.37c5.01.06,7.41.44,12.26,12.51,0,0-4.23,4.04-9,4.39,0,0-5.36-11.16-4.28-13.97"/>
        <line class="cls-12" x1="80.43" y1="30.12" x2="79.51" y2="47.01"/>
        <path class="cls-12" d="M94.32,35.19c1.1,1.96,2.21,3.93,3.31,5.89"/>
        <g>
          <path class="cls-2" d="M82.91,4c-.06.17-5.98.69-2.98,6.98.86,1.8,6.58-4.12,5.87-4.31-.71-.19-2.89-2.67-2.89-2.67Z"/>
          <g>
            <g>
              <path class="cls-19" d="M93.8,27.51c-.08,1.27-4.12,5.54-6.43,5.4-2.3-.14-1.99-4.64-1.91-5.91.08-1.27,2.01-2.18,4.31-2.04s4.11,1.28,4.03,2.55Z"/>
              <polygon class="cls-19" points="88.37 25.41 91.96 25.47 92.09 16.92 88.49 18.26 88.37 25.41"/>
              <path class="cls-2" d="M88.38,24.57l.1-6.31,3.27-1.09c-.44,2.38-1.6,5.78-3.38,7.39Z"/>
            </g>
            <path class="cls-19" d="M92.14,17.33s-.3.58-.83,1.41c-1.46,2.29-4.6,4.85-7.86,3.71-4.44-1.56-4.84-12.47-3.1-14.54,4.03-4.8,13.46-1.57,11.79,9.42Z"/>
            <path class="cls-2" d="M94.09,15.1c-1.92.89-2.56.76-2.8.5-.56-.61.75-2.28.09-3.05-.52-.6-1.86.22-2.41-.41-.38-.43.11-.96-.08-1.53-.55-1.63-5.53-.1-7.55-2.3-1.08-1.17-1.26-3.35-.41-4.58,1.9-2.76,9.82-2.04,12.92,2.14,1.23,1.66,1.46,3.55,1.5,3.89.29,2.62-.81,4.63-1.24,5.35Z"/>
            <path class="cls-19" d="M91.29,15.59c-.38,1-.07,2.05.69,2.34.76.29,1.69-.29,2.07-1.29.38-1,.07-2.05-.69-2.34s-1.69.29-2.07,1.29Z"/>
          </g>
        </g>
      </g>
      <g>
        <path class="cls-1" d="M148.61,27.35c-9.03,0-16.35,7.32-16.35,16.35s16.35,28.97,16.35,28.97c0,0,16.35-19.94,16.35-28.97s-7.32-16.35-16.35-16.35ZM148.61,53.43c-5.37,0-9.73-4.36-9.73-9.73s4.37-9.73,9.73-9.73,9.73,4.36,9.73,9.73-4.37,9.73-9.73,9.73Z"/>
        <g>
          <path class="cls-16" d="M159.75,42.66c-.22-2.5-1.18-4.66-2.86-6.45-2.27-2.41-5.02-3.63-8.2-3.63-.47,0-.96.03-1.45.08-2.34.26-4.45,1.24-6.26,2.91-1.66,1.55-2.81,3.48-3.31,5.61-.49,2.09-.35,4.31.4,6.42.76,2.13,2.21,3.92,4.3,5.34,2.22,1.5,4.75,2.11,7.51,1.8,2.38-.26,4.48-1.21,6.26-2.83,2.36-2.16,3.59-4.94,3.65-8.26,0-.09,0-.18-.01-.28-.01-.22-.03-.46-.05-.71h0ZM148.55,52.75h-.05c-2.36,0-4.58-.92-6.23-2.58-1.74-1.74-2.69-4.09-2.69-6.6,0-2.36.93-4.59,2.65-6.29,1.71-1.7,3.97-2.64,6.35-2.65h.02c4.98,0,9.04,4.03,9.05,8.97.01,5.1-3.98,9.11-9.09,9.15h0Z"/>
          <circle class="cls-18" cx="148.61" cy="43.7" r="1.19"/>
        </g>
      </g>
    </g>
    <g>
      <circle class="cls-5" cx="321.91" cy="195.86" r="81.56" transform="translate(-44.2 284.99) rotate(-45)"/>
      <g>
        <path class="cls-2" d="M336.23,148.96c4.47.09,7.29-1,6.47-4.87-.82-3.87-5.76-3.93-5.88-4.37,0,0,4.87-.69,4.9-3.68.04-2.99-7.26-3.91-8.43-8.21l-5.16-1.1h-1.47l-5.02,1.69c-1.17,4.31-8.6,4.64-8.56,7.63.04,2.99,4.9,3.68,4.9,3.68-.12.44-5.06.5-5.88,4.37-.82,3.87,2,4.96,6.47,4.87"/>
        <g>
          <g>
            <path class="cls-19" d="M327.78,188.36s-.29,29.12,1.08,37.58c.78,4.8,7.65-.09,7.37-2.59-.28-2.51,4.98-35.22,2.98-36.87-.82-.67-1.81-.79-2.8-.89-3.98-.4-7.21,1.69-8.63,2.76Z"/>
            <path class="cls-19" d="M336.96,229.05c-.14-4.03-.86-7.83-1.98-9.47-.98-1.44-5.13-1.75-5.59.35-1.33,4.57,1.29,24.95,1.19,29.08-.05,2.04-.48,2.7,1.01,3.17,1.49.46,2.54-.33,2.54-.33.78-1,.5-2.44.72-4.03.21-1.6,2.26-14.74,2.12-18.77Z"/>
          </g>
          <path class="cls-2" d="M334.97,256.18c-.72,3.48-2.66,5.88-4.39,5.67-2.77-.33-1.85-4.08-1.13-7.56.72-3.48,2.04-5.41,3.74-5.06,1.7.35,2.5,3.46,1.78,6.95Z"/>
          <path class="cls-19" d="M330.45,250.04c-.13,2.36-1,5.2-1.04,6.14-.07,2.02,3.57,2.55,4.76.25.38-.74.8-4.02.44-6.65-.37-2.63-4.16.26-4.16.26Z"/>
        </g>
        <g>
          <g>
            <path class="cls-19" d="M327.46,190.97s.25,31.16-1.24,40.21c-.84,5.14-8.18-.11-7.88-2.79s-5.26-37.69-3.11-39.46c.88-.72,1.94-.84,3-.94,4.26-.42,7.72,1.83,9.23,2.98Z"/>
            <path class="cls-19" d="M317.55,234.49c.16-4.31.94-8.38,2.14-10.13,1.06-1.53,5.5-1.86,5.98.39,1.42,4.89-1.44,26.7-1.33,31.12.05,2.19.5,2.89-1.09,3.39-1.59.49-2.71-.36-2.71-.36-.83-1.07-.53-2.61-.76-4.32-.23-1.71-2.39-15.77-2.23-20.09Z"/>
          </g>
          <path class="cls-2" d="M319.61,263.53c.77,3.73,2.84,6.29,4.69,6.08,2.96-.35,1.99-4.36,1.23-8.09s-2.17-5.79-4-5.42c-1.82.37-2.68,3.7-1.92,7.43Z"/>
          <path class="cls-19" d="M324.46,256.96c.13,2.53,1.06,5.56,1.1,6.57.07,2.16-3.82,2.72-5.09.26-.41-.79-.85-4.3-.45-7.12.4-2.82,4.45.29,4.45.29Z"/>
        </g>
        <path class="cls-8" d="M341.06,146.7c-2.48-3.19-26.23-1.29-27.71.41-1.48,1.7,4.17,15.94,3.52,21.84-.65,5.9-.96,10.17-.96,10.17,0,0,4.82,4.69,12.76,4.8,7.94.11,9.66-5.47,9.66-5.47,0,0-1.33-9.59-1.1-11.61.24-2.02,5.3-18.26,3.83-20.14Z"/>
        <path class="cls-15" d="M338.32,178.46c.51,1.63.98,3.42,1.33,5.38,1.03,5.65,1.3,10.69.76,14.54-.03.24-.24.41-.48.4-4.39-.15-10.52,0-16.54.09-4.13.05-7.49.82-8.7,1.14-.27.07-.5-.12-.58-.38-3.27-10.38,1.35-17.25,1.79-20.49,7.91,4.68,22.58.74,22.42-.67Z"/>
        <path class="cls-8" d="M341.06,146.7c1.79.56,2.36,2.92,3.65,9.41,2.62,13.12,2.68,15.49,1.18,16.59-1.02.74-2.52.72-3.53.24-2.1-1.02-2.08-4.09-2.74-8.23-1.63-10.29-5.21-13.43-2.96-16.31,1.05-1.35,2.97-2.13,4.4-1.69Z"/>
        <path class="cls-8" d="M336.72,162.4c.54.19,1.16-.13,1.48-.59.33-.47.43-1.06.49-1.62.21-2.01-.06-4.23-1.44-5.7-.27-.29-.63-.57-1.03-.53-.49.04-.82.52-1.03.97-.95,2.15-.57,4.83.95,6.62"/>
        <path class="cls-8" d="M314.48,146.29c2.01-.04,3.53,3.93,2.7,7.51-.05.59-4.6,13.87-5.59,17.55-.47,1.74-2.32,2.73-4.04,2.1-1.49-.54-2.28-2.2-1.91-3.74.95-4,3.23-23.31,8.84-23.41Z"/>
        <g>
          <path class="cls-19" d="M321.66,147.17c.03.94,2.43,3.51,5.31,3.42,2.88-.08,5.13-2.78,5.11-3.72-.03-.94-2.38-1.64-5.26-1.56-2.88.08-5.19.91-5.16,1.86Z"/>
          <rect class="cls-19" x="324.69" y="141.74" width="4.26" height="7.15" transform="translate(657.68 281.16) rotate(178.35)"/>
          <path class="cls-2" d="M324.63,143.12l-.06-2,4.26-.12.09,3.1c-1.48,0-2.9-.38-4.29-.97Z"/>
          <path class="cls-19" d="M326.68,126.73c4.49-.13,6.18,3.55,6.31,8.01.12,4.2-2.52,7.8-5.85,7.89-3.51.1-6.17-3.34-6.3-7.54-.13-4.46,1.35-8.23,5.84-8.36Z"/>
          <path class="cls-2" d="M320.58,134.85c.35.16.82-1.24,3-3.25,2.92-2.69,5.05-2.91,5.02-4.06-.03-1.14-2.15-2.51-3.87-2.18-3.67.7-4.98,9.12-4.15,9.49Z"/>
          <path class="cls-2" d="M332.97,135.26c-.37.02-.36-1.43-1.85-4.18-.65-1.2-1.31-2.4-2.53-3.54-1.64-1.55-2.87-1.66-2.82-2.14.09-.84,3.16-2.11,5.67-.28,3.49,2.54,2.36,10.09,1.52,10.13Z"/>
          <path class="cls-19" d="M321.97,136.28c.56.89.81.52.13.95-.68.43-1.69.05-2.25-.85-.56-.89-.46-1.97.22-2.39s1.34,1.4,1.9,2.29Z"/>
          <path class="cls-19" d="M331.76,136c-.51.93-.3.56.4.94.7.39,1.69-.05,2.19-.98s.35-1.99-.35-2.37c-.7-.39-1.73,1.49-2.24,2.41Z"/>
        </g>
        <path class="cls-9" d="M336.66,148.39c-.64,2.21.3,4.53,1.15,6.67.84,2.14,1.59,4.6.59,6.67"/>
        <path class="cls-11" d="M316.98,148.96c.77,2.17-.04,4.54-.76,6.73-.51,1.56-1.02,3.31-.76,4.97.25,1.59.97,3.14,1.32,4.73.77,3.55-.06,5.84-.51,9.45"/>
        <g>
          <rect class="cls-2" x="325.96" y="153.04" width="5.78" height="12.85" rx="1.59" ry="1.59" transform="translate(-7.71 16.99) rotate(-2.93)"/>
          <path class="cls-19" d="M351.93,152.05c-.13.71-2.54,13.56-4.58,19.25-.56,1.56-2.25,2.4-3.83,1.9h0c-1.64-.52-2.54-2.27-2-3.9l6.85-17.95,3.57.69Z"/>
          <path class="cls-19" d="M350.67,155.64c-.11-.04-.21-.09-.31-.14-.93-.43-2.19-1.04-2.56-2.06-.32-.86.5-1.87.81-2.63.1-.26.3-.44.56-.57.43-.31,1.22-.55,2.08-.93,1.43-.63,2.49-1.39,2.85-.55.22.5,0,1.13-.54,1.69.14.19,2.27,1.24,2.35,1.34.24.31-.03.83-.06,1.05-.03.2.38.16.27.69-.12.27-.27.53-.46.77-.23.16-.47.16-.56.12-.15-.07-.15.57-.5.82-.02,0-.04.02-.05.03-.36.19-.84-.16-1.03-.18-.11-.01-.29.42-.37.49-.66.65-1.68.4-2.47.07Z"/>
        </g>
        <path class="cls-19" d="M322.67,162.37c-.05-.24,0-.47.11-.7.14-.51.69-1.19,1.22-2.03.83-1.33,1.27-2.55,2.04-2.07.46.29.63.94.51,1.7,2.3-.86,4.78-1.38,4.91-1.34.37.12.44.7.54.9.09.18.4-.08.62.42.06.29.07.59.05.89-.1.26-.3.4-.4.41-.16.02.2.56.05.96,0,.02-.02.03-.03.05-.19.36-.78.34-.96.44-.15.08.25.58-.35,1.2-.81.68-1.91,1.25-3.36,1.57-4.62,1.03-4.46-.28-4.94-2.4Z"/>
        <path class="cls-19" d="M327.05,163.68c-.58.43-11.17,8.09-16.57,10.82-1.48.75-3.29.19-4.09-1.26h0c-.83-1.5-.28-3.39,1.23-4.21l17.32-8.31,2.11,2.96Z"/>
      </g>
    </g>
    <circle class="cls-4" cx="119.11" cy="356.05" r="81.56" transform="translate(-216.88 188.51) rotate(-45)"/>
    <g>
      <g>
        <path class="cls-19" d="M134.67,348.1s5.59,35.44,3.62,41.04c-1.97,5.61-8.93,3.34-9.2.27-.26-3.07-10.11-36.46-10.11-36.46l15.69-4.85Z"/>
        <g>
          <path class="cls-19" d="M135.54,425.04c-.33-.51-.96-3.81-1.56-5.89-6.87-24.03-5.26-28.61-5.26-28.61-.04-3.12,2.58-5.57,5.42-5.41,2.55.14,4.27.32,4.37,3.11.02.02.44,26.68,1.31,31.88.65,3.89,1.44,4.05,1.64,4.02-.48.12-5.6,1.39-5.91.9Z"/>
          <path class="cls-15" d="M134.5,424.41c.1-.73.29-1.45.61-1.31.53.24.98.69,1.5.95,1.19.59,2.77-.09,3.69-.92.59-.54,1.26-.14,1.88.1.66.26,1.32.5,1.99.74.84.3,1.69.59,2.54.87,0,0,1.3.24,1.53.47.17.17.46,1.13.42,1.24-.04.11-1.28,1.14-2.81,1.6-1.55.47-4.51.58-5.71.36-.78-.14-1.56-.23-2.34-.34-.95-.12-2.6.03-3.13-.94-.45-.82-.27-1.94-.15-2.82Z"/>
        </g>
        <path class="cls-7" d="M126.84,380.06c-.37-.03-.67-.29-.77-.64-2.97-10.75-7.5-26.12-7.56-26.34l-.14-.47,16.71-5.16.09.57c.15.96,2.74,17.46,3.7,29.46.03.39-.21.76-.58.89-3.69,1.31-7.47,2.01-11.45,1.69Z"/>
        <path class="cls-12" d="M140.6,423.57s5.03,2.62,4.76,2.94c-.27.32-3.53-.22-5.09-.06s-4.1.75-4.89.38c-.79-.36-.84-1.17-.84-1.17"/>
        <line class="cls-12" x1="142.89" y1="423.6" x2="142.36" y2="424.52"/>
        <line class="cls-12" x1="143.95" y1="424.07" x2="143.45" y2="425.13"/>
      </g>
      <path class="cls-19" d="M131.36,350.28s-11.01,34.14-15.31,38.25c-4.29,4.11-9.48-1.06-8.33-3.92,1.15-2.86,7.45-37.1,7.45-37.1l16.18,2.76Z"/>
      <g>
        <path class="cls-19" d="M78.92,399.75c.37-.49,3.23-2.23,4.97-3.52,20.1-14.86,24.95-14.95,24.95-14.95,2.91-1.13,6.12.46,6.96,3.18.76,2.44,1.2,4.11-1.38,5.18-.01.03-24.84,9.76-29.4,12.39-3.42,1.97-3.29,2.77-3.19,2.94-.28-.41-3.27-4.76-2.92-5.22Z"/>
        <path class="cls-15" d="M79.14,398.55c.72-.16,1.46-.24,1.44.11-.04.58-.3,1.15-.37,1.74-.14,1.33,1.05,2.56,2.15,3.13.71.37.58,1.13.57,1.79-.01.71,0,1.41,0,2.12.01.89.04,1.79.07,2.68,0,0,.23,1.3.09,1.59-.1.22-.9.82-1.01.82-.12,0-1.52-.8-2.48-2.07-.98-1.29-2.12-4.02-2.33-5.22-.14-.78-.33-1.54-.51-2.31-.22-.93-.94-2.42-.21-3.26.61-.71,1.72-.94,2.59-1.13Z"/>
      </g>
      <path class="cls-7" d="M109.46,377.67c-.32-.13-.5-.46-.43-.8,2.24-10.84,5.62-29.23,5.66-29.44l.09-.49,17.24,2.94-.18.55c-.32,1-5.9,18.23-10.62,29.41-.12.28-.4.45-.7.43-3.85-.25-7.51-1.2-11.06-2.61Z"/>
      <path class="cls-12" d="M131.84,350.44c-.27.83-4.17,12.9-8.2,23.37"/>
      <path class="cls-19" d="M124.85,305.59c2.85-1.7,6.74,4.99,7.81,8.51,1.87,4.37,3.47,13.73,4.44,17.41.46,1.74-.66,3.52-2.46,3.83-1.57.27-3.07-.77-3.52-2.3-1.16-3.94-11.08-24.58-6.27-27.45Z"/>
      <path class="cls-19" d="M141.5,351.82c-.38-.61-7.22-11.76-9.53-17.34-.64-1.53.06-3.29,1.56-3.99h0c1.56-.72,3.4-.02,4.1,1.54l6.98,17.9-3.11,1.88Z"/>
      <path class="cls-8" d="M111.43,310.92c-.19-3.14,5.15-7.67,10.7-7.98,5.55-.31,9.21,2.02,9.4,5.17l6.18,44.71c.09,2.43-20.73,1.13-25.23,3.73-.93.54-1.05-45.63-1.05-45.63Z"/>
      <path class="cls-8" d="M126.22,303.24c4.84,1.29,7.08,2.24,8.83,15.13,0,0-5.09,2.88-9.8,2.05,0,0-2.46-12.13-.73-14.59"/>
      <path class="cls-19" d="M113.19,307.65c3.16-1.04,5.49,6.34,5.75,10.01.87,4.68.37,14.16.52,17.96.07,1.8-1.41,3.29-3.24,3.2-1.59-.08-2.82-1.43-2.93-3.01-.27-4.1-5.43-26.41-.1-28.16Z"/>
      <path class="cls-19" d="M118.44,356.31c-.22-.69-4.08-13.18-4.94-19.16-.24-1.64.87-3.18,2.5-3.47h0c1.69-.31,3.3.82,3.59,2.51l2.32,19.07-3.48,1.05Z"/>
      <path class="cls-19" d="M120.38,351.7c.24-.02.47.07.68.2.49.21,1.09.85,1.85,1.48,1.2,1,2.36,1.6,1.78,2.3-.35.42-1.01.5-1.75.27.54,2.39.73,4.92.67,5.04-.17.35-.75.34-.97.42-.19.07.03.41-.5.55-.29.02-.59,0-.89-.07-.25-.14-.35-.35-.36-.45,0-.16-.58.12-.96-.08-.02-.01-.03-.03-.05-.04-.33-.24-.23-.82-.3-1.01-.06-.16-.6.17-1.14-.51-.57-.9-.98-2.06-1.1-3.54-.4-4.71.88-4.38,3.04-4.57Z"/>
      <path class="cls-19" d="M144.04,348.71c.24.02.45.15.63.32.44.29.92,1.02,1.56,1.78,1.01,1.19,2.05,1.98,1.35,2.57-.42.35-1.08.31-1.77-.03.12,2.45-.14,4.97-.21,5.08-.22.32-.8.21-1.03.24-.2.03-.05.41-.58.46-.29-.04-.58-.11-.87-.22-.22-.18-.29-.4-.27-.5.03-.16-.59.02-.93-.24-.01-.01-.03-.03-.04-.04-.28-.29-.09-.85-.13-1.04-.03-.17-.62.06-1.03-.7-.4-.98-.61-2.2-.47-3.68.42-4.71,1.62-4.17,3.79-3.98Z"/>
      <path class="cls-8" d="M119.01,303.54c-6.44,2.58-10.46,5.03-8.34,17.87,0,0,5.71,1.25,9.97-.92,0,0-1.22-12.32-3.59-14.16"/>
      <line class="cls-12" x1="131.65" y1="308.93" x2="133.27" y2="325.76"/>
      <g>
        <path class="cls-2" d="M128.09,282.93c.07.16,6,.44,3.27,6.85-.78,1.84-6.74-3.85-6.05-4.07.7-.22,2.78-2.78,2.78-2.78Z"/>
        <g>
          <g>
            <path class="cls-19" d="M118.19,306.87c.13,1.26,4.35,5.36,6.64,5.13,2.29-.23,1.79-4.72,1.67-5.98-.13-1.26-2.09-2.09-4.39-1.86-2.29.24-4.05,1.45-3.92,2.71Z"/>
            <polygon class="cls-19" points="123.52 304.55 119.94 304.75 119.45 296.22 123.11 297.41 123.52 304.55"/>
            <path class="cls-2" d="M123.48,303.71l-.36-6.3-3.32-.95c.54,2.36,1.84,5.71,3.68,7.25Z"/>
          </g>
          <path class="cls-19" d="M119.42,296.64s.33.57.89,1.38c1.56,2.23,4.8,4.66,8.01,3.38,4.37-1.74,4.32-12.66,2.49-14.65-4.23-4.63-13.51-1.01-11.39,9.9Z"/>
          <path class="cls-2" d="M117.38,294.48c1.95.81,2.59.65,2.82.38.54-.63-.84-2.24-.21-3.04.49-.62,1.87.15,2.39-.51.36-.45-.15-.96.02-1.53.48-1.65,5.52-.33,7.45-2.61,1.03-1.22,1.12-3.4.22-4.6-2.01-2.68-9.9-1.63-12.82,2.67-1.16,1.71-1.31,3.61-1.33,3.94-.18,2.63,1,4.6,1.46,5.29Z"/>
          <path class="cls-19" d="M120.2,294.86c.42.99.16,2.05-.59,2.37-.75.32-1.7-.22-2.12-1.2-.42-.99-.16-2.05.59-2.37s1.7.22,2.12,1.2Z"/>
        </g>
      </g>
      <path class="cls-14" d="M124.68,356.05l-8.39,1.58s-.75,7.48,5.09,6.89c5.84-.59,3.3-8.47,3.3-8.47Z"/>
      <path class="cls-12" d="M118.76,357.16l5.71-1.1s.87,2.85,1.03,3.37"/>
      <path class="cls-12" d="M81.69,403.8c.03-.07-1,2.94-1.41,3.06-.36.11-1.57-.79-2.08-2.04s-1.25-4.13-1.16-4.53"/>
      <line class="cls-12" x1="81.48" y1="404.72" x2="82.55" y2="404.95"/>
      <line class="cls-12" x1="80.9" y1="405.84" x2="82.48" y2="406.2"/>
    </g>
    <g>
      <path class="cls-13" d="M99.3,363.48c0-9.77,7.94-17.71,17.71-17.71"/>
      <path class="cls-13" d="M134.72,363.48c0,9.77-7.94,17.71-17.71,17.71"/>
      <path class="cls-13" d="M105.3,363.48c0-6.46,5.25-11.71,11.71-11.71"/>
      <path class="cls-13" d="M128.72,363.48c0,6.46-5.25,11.71-11.71,11.71"/>
      <path class="cls-13" d="M111.3,363.48c0-3.15,2.56-5.71,5.71-5.71"/>
      <path class="cls-13" d="M122.72,363.48c0,3.15-2.56,5.71-5.71,5.71"/>
    </g>
    <g>
      <path class="cls-1" d="M167.97,303.1c-9.03,0-16.35,7.32-16.35,16.35s16.35,28.97,16.35,28.97c0,0,16.35-19.94,16.35-28.97s-7.32-16.35-16.35-16.35ZM167.97,329.18c-5.37,0-9.73-4.36-9.73-9.73s4.37-9.73,9.73-9.73,9.73,4.36,9.73,9.73-4.37,9.73-9.73,9.73Z"/>
      <g>
        <path class="cls-16" d="M179.12,318.42c-.22-2.5-1.18-4.66-2.86-6.45-2.27-2.41-5.02-3.63-8.2-3.63-.47,0-.96.03-1.45.08-2.34.26-4.45,1.24-6.26,2.91-1.66,1.55-2.81,3.48-3.31,5.61-.49,2.09-.35,4.31.4,6.42.76,2.13,2.21,3.92,4.3,5.34,2.22,1.5,4.75,2.11,7.51,1.8,2.38-.26,4.48-1.21,6.26-2.83,2.36-2.16,3.59-4.94,3.65-8.26,0-.09,0-.18-.01-.28-.01-.22-.03-.46-.05-.71h0ZM167.91,328.51h-.05c-2.36,0-4.58-.92-6.23-2.58-1.74-1.74-2.69-4.09-2.69-6.6,0-2.36.93-4.59,2.65-6.29,1.71-1.7,3.97-2.64,6.35-2.65h.02c4.98,0,9.04,4.03,9.05,8.97.01,5.1-3.98,9.11-9.09,9.15h0Z"/>
        <circle class="cls-18" cx="167.97" cy="319.46" r="1.19"/>
      </g>
    </g>
    <g>
      <path class="cls-1" d="M262.53,175.23c-9.03,0-16.35,7.32-16.35,16.35s16.35,28.97,16.35,28.97c0,0,16.35-19.94,16.35-28.97s-7.32-16.35-16.35-16.35ZM262.53,201.31c-5.37,0-9.73-4.36-9.73-9.73s4.37-9.73,9.73-9.73,9.73,4.36,9.73,9.73-4.37,9.73-9.73,9.73Z"/>
      <g>
        <path class="cls-16" d="M273.68,190.55c-.22-2.5-1.18-4.66-2.86-6.45-2.27-2.41-5.02-3.63-8.2-3.63-.47,0-.96.03-1.45.08-2.34.26-4.45,1.24-6.26,2.91-1.66,1.55-2.81,3.48-3.31,5.61-.49,2.09-.35,4.31.4,6.42.76,2.13,2.21,3.92,4.3,5.34,2.22,1.5,4.75,2.11,7.51,1.8,2.38-.26,4.48-1.21,6.26-2.83,2.36-2.16,3.59-4.94,3.65-8.26,0-.09,0-.18-.01-.28-.01-.22-.03-.46-.05-.71h0ZM262.47,200.64h-.05c-2.36,0-4.58-.92-6.23-2.58-1.74-1.74-2.69-4.09-2.69-6.6,0-2.36.93-4.59,2.65-6.29,1.71-1.7,3.97-2.64,6.35-2.65h.02c4.98,0,9.04,4.03,9.05,8.97.01,5.1-3.98,9.11-9.09,9.15h0Z"/>
        <circle class="cls-18" cx="262.53" cy="191.59" r="1.19"/>
      </g>
    </g>
    <g>
      <path class="cls-2" d="M162.57,59.33c-.59.45-1.43.34-1.88-.24-.45-.59-.34-1.43.24-1.88.59-.45,1.43-.34,1.88.24s.34,1.43-.24,1.88Z"/>
      <path class="cls-2" d="M165.95,63.73c-.59.45-1.43.34-1.88-.24-.45-.59-.34-1.43.24-1.88.59-.45,1.43-.34,1.88.24.45.59.34,1.43-.24,1.88Z"/>
      <path class="cls-2" d="M169.33,68.12c-.59.45-1.43.34-1.88-.24-.45-.59-.34-1.43.24-1.88.59-.45,1.43-.34,1.88.24.45.59.34,1.43-.24,1.88Z"/>
      <path class="cls-2" d="M172.71,72.51c-.59.45-1.43.34-1.88-.24-.45-.59-.34-1.43.24-1.88.59-.45,1.43-.34,1.88.24.45.59.34,1.43-.24,1.88Z"/>
      <path class="cls-2" d="M176.09,76.9c-.59.45-1.43.34-1.88-.24-.45-.59-.34-1.43.24-1.88.59-.45,1.43-.34,1.88.24.45.59.34,1.43-.24,1.88Z"/>
      <path class="cls-2" d="M179.47,81.29c-.59.45-1.43.34-1.88-.24-.45-.59-.34-1.43.24-1.88.59-.45,1.43-.34,1.88.24.45.59.34,1.43-.24,1.88Z"/>
      <path class="cls-2" d="M182.85,85.68c-.59.45-1.43.34-1.88-.24-.45-.59-.34-1.43.24-1.88.59-.45,1.43-.34,1.88.24.45.59.34,1.43-.24,1.88Z"/>
      <path class="cls-2" d="M186.24,90.07c-.59.45-1.43.34-1.88-.24s-.34-1.43.24-1.88c.59-.45,1.43-.34,1.88.24.45.59.34,1.43-.24,1.88Z"/>
      <path class="cls-2" d="M189.62,94.46c-.59.45-1.43.34-1.88-.24-.45-.59-.34-1.43.24-1.88s1.43-.34,1.88.24c.45.59.34,1.43-.24,1.88Z"/>
      <path class="cls-2" d="M193,98.85c-.59.45-1.43.34-1.88-.24-.45-.59-.34-1.43.24-1.88.59-.45,1.43-.34,1.88.24s.34,1.43-.24,1.88Z"/>
      <path class="cls-2" d="M196.38,103.24c-.59.45-1.43.34-1.88-.24-.45-.59-.34-1.43.24-1.88s1.43-.34,1.88.24c.45.59.34,1.43-.24,1.88Z"/>
      <path class="cls-2" d="M199.76,107.63c-.59.45-1.43.34-1.88-.24-.45-.59-.34-1.43.24-1.88.59-.45,1.43-.34,1.88.24s.34,1.43-.24,1.88Z"/>
      <path class="cls-2" d="M203.14,112.02c-.59.45-1.43.34-1.88-.24-.45-.59-.34-1.43.24-1.88s1.43-.34,1.88.24c.45.59.34,1.43-.24,1.88Z"/>
      <path class="cls-2" d="M206.53,116.41c-.59.45-1.43.34-1.88-.24-.45-.59-.34-1.43.24-1.88.59-.45,1.43-.34,1.88.24.45.59.34,1.43-.24,1.88Z"/>
      <path class="cls-2" d="M209.91,120.8c-.59.45-1.43.34-1.88-.24-.45-.59-.34-1.43.24-1.88s1.43-.34,1.88.24c.45.59.34,1.43-.24,1.88Z"/>
      <path class="cls-2" d="M213.29,125.19c-.59.45-1.43.34-1.88-.24-.45-.59-.34-1.43.24-1.88s1.43-.34,1.88.24c.45.59.34,1.43-.24,1.88Z"/>
      <path class="cls-2" d="M216.67,129.58c-.59.45-1.43.34-1.88-.24-.45-.59-.34-1.43.24-1.88.59-.45,1.43-.34,1.88.24.45.59.34,1.43-.24,1.88Z"/>
      <path class="cls-2" d="M220.05,133.97c-.59.45-1.43.34-1.88-.24-.45-.59-.34-1.43.24-1.88s1.43-.34,1.88.24c.45.59.34,1.43-.24,1.88Z"/>
      <path class="cls-2" d="M223.43,138.36c-.59.45-1.43.34-1.88-.24-.45-.59-.34-1.43.24-1.88.59-.45,1.43-.34,1.88.24.45.59.34,1.43-.24,1.88Z"/>
      <path class="cls-2" d="M226.82,142.75c-.59.45-1.43.34-1.88-.24s-.34-1.43.24-1.88,1.43-.34,1.88.24c.45.59.34,1.43-.24,1.88Z"/>
      <path class="cls-2" d="M230.2,147.14c-.59.45-1.43.34-1.88-.24-.45-.59-.34-1.43.24-1.88.59-.45,1.43-.34,1.88.24s.34,1.43-.24,1.88Z"/>
      <path class="cls-2" d="M233.58,151.53c-.59.45-1.43.34-1.88-.24-.45-.59-.34-1.43.24-1.88.59-.45,1.43-.34,1.88.24.45.59.34,1.43-.24,1.88Z"/>
      <path class="cls-2" d="M236.96,155.92c-.59.45-1.43.34-1.88-.24-.45-.59-.34-1.43.24-1.88s1.43-.34,1.88.24c.45.59.34,1.43-.24,1.88Z"/>
      <path class="cls-2" d="M240.34,160.31c-.59.45-1.43.34-1.88-.24-.45-.59-.34-1.43.24-1.88.59-.45,1.43-.34,1.88.24.45.59.34,1.43-.24,1.88Z"/>
      <path class="cls-2" d="M244.22,165.59c-.59.45-1.43.34-1.88-.24-.45-.59-.34-1.43.24-1.88.59-.45,1.43-.34,1.88.24.45.59.34,1.43-.24,1.88Z"/>
      <path class="cls-2" d="M248.1,170.88c-.59.45-1.43.34-1.88-.24-.45-.59-.34-1.43.24-1.88.59-.45,1.43-.34,1.88.24.45.59.34,1.43-.24,1.88Z"/>
      <path class="cls-2" d="M251.98,176.16c-.59.45-1.43.34-1.88-.24-.45-.59-.34-1.43.24-1.88.59-.45,1.43-.34,1.88.24.45.59.34,1.43-.24,1.88Z"/>
    </g>
    <g>
      <path class="cls-2" d="M221.94,252.47c.69.51,1.66.37,2.18-.31.51-.69.37-1.66-.31-2.18-.69-.51-1.66-.37-2.18.31-.51.69-.37,1.66.31,2.18Z"/>
      <path class="cls-2" d="M226.68,246.07c.69.51,1.66.37,2.18-.31.51-.69.37-1.66-.31-2.18s-1.66-.37-2.18.31-.37,1.66.31,2.18Z"/>
      <path class="cls-2" d="M231.42,239.67c.69.51,1.66.37,2.18-.31.51-.69.37-1.66-.31-2.18-.69-.51-1.66-.37-2.18.31-.51.69-.37,1.66.31,2.18Z"/>
      <path class="cls-2" d="M236.16,233.26c.69.51,1.66.37,2.18-.31.51-.69.37-1.66-.31-2.18-.69-.51-1.66-.37-2.18.31-.51.69-.37,1.66.31,2.18Z"/>
      <path class="cls-2" d="M240.9,226.86c.69.51,1.66.37,2.18-.31.51-.69.37-1.66-.31-2.18-.69-.51-1.66-.37-2.18.31-.51.69-.37,1.66.31,2.18Z"/>
      <path class="cls-2" d="M245.64,220.46c.69.51,1.66.37,2.18-.31.51-.69.37-1.66-.31-2.18-.69-.51-1.66-.37-2.18.31-.51.69-.37,1.66.31,2.18Z"/>
      <path class="cls-2" d="M249.66,214.59c.69.51,1.66.37,2.18-.31.51-.69.37-1.66-.31-2.18s-1.66-.37-2.18.31c-.51.69-.37,1.66.31,2.18Z"/>
      <path class="cls-2" d="M218.09,257.61c.69.51,1.66.37,2.18-.31.51-.69.37-1.66-.31-2.18-.69-.51-1.66-.37-2.18.31-.51.69-.37,1.66.31,2.18Z"/>
      <path class="cls-2" d="M214.24,262.76c.69.51,1.66.37,2.18-.31.51-.69.37-1.66-.31-2.18-.69-.51-1.66-.37-2.18.31-.51.69-.37,1.66.31,2.18Z"/>
      <path class="cls-2" d="M210.4,267.9c.69.51,1.66.37,2.18-.31.51-.69.37-1.66-.31-2.18s-1.66-.37-2.18.31c-.51.69-.37,1.66.31,2.18Z"/>
      <path class="cls-2" d="M206.55,273.04c.69.51,1.66.37,2.18-.31.51-.69.37-1.66-.31-2.18-.69-.51-1.66-.37-2.18.31-.51.69-.37,1.66.31,2.18Z"/>
      <path class="cls-2" d="M202.7,278.18c.69.51,1.66.37,2.18-.31.51-.69.37-1.66-.31-2.18s-1.66-.37-2.18.31c-.51.69-.37,1.66.31,2.18Z"/>
      <path class="cls-2" d="M198.85,283.33c.69.51,1.66.37,2.18-.31.51-.69.37-1.66-.31-2.18-.69-.51-1.66-.37-2.18.31-.51.69-.37,1.66.31,2.18Z"/>
      <path class="cls-2" d="M195.01,288.47c.69.51,1.66.37,2.18-.31.51-.69.37-1.66-.31-2.18-.69-.51-1.66-.37-2.18.31-.51.69-.37,1.66.31,2.18Z"/>
      <path class="cls-2" d="M191.16,293.61c.69.51,1.66.37,2.18-.31.51-.69.37-1.66-.31-2.18-.69-.51-1.66-.37-2.18.31-.51.69-.37,1.66.31,2.18Z"/>
      <path class="cls-2" d="M187.31,298.75c.69.51,1.66.37,2.18-.31.51-.69.37-1.66-.31-2.18-.69-.51-1.66-.37-2.18.31-.51.69-.37,1.66.31,2.18Z"/>
      <path class="cls-2" d="M183.47,303.9c.69.51,1.66.37,2.18-.31.51-.69.37-1.66-.31-2.18-.69-.51-1.66-.37-2.18.31-.51.69-.37,1.66.31,2.18Z"/>
    </g>
    <g>
      <path class="cls-2" d="M237.34,397.62c-.74.74-.74,1.95,0,2.7.74.74,1.95.74,2.7,0,.74-.74.74-1.95,0-2.7-.74-.74-1.95-.74-2.7,0Z"/>
      <path class="cls-2" d="M244.28,404.49c-.74.74-.74,1.95,0,2.7.74.74,1.95.74,2.7,0s.74-1.95,0-2.7-1.95-.74-2.7,0Z"/>
      <path class="cls-2" d="M251.21,411.35c-.74.74-.74,1.95,0,2.7.74.74,1.95.74,2.7,0,.74-.74.74-1.95,0-2.7-.74-.74-1.95-.74-2.7,0Z"/>
      <path class="cls-2" d="M258.15,418.22c-.74.74-.74,1.95,0,2.7.74.74,1.95.74,2.7,0,.74-.74.74-1.95,0-2.7-.74-.74-1.95-.74-2.7,0Z"/>
      <path class="cls-2" d="M265.08,425.08c-.74.74-.74,1.95,0,2.7.74.74,1.95.74,2.7,0,.74-.74.74-1.95,0-2.7-.74-.74-1.95-.74-2.7,0Z"/>
      <path class="cls-2" d="M272.02,431.95c-.74.74-.74,1.95,0,2.7.74.74,1.95.74,2.7,0,.74-.74.74-1.95,0-2.7-.74-.74-1.95-.74-2.7,0Z"/>
      <path class="cls-2" d="M278.43,437.86c-.74.74-.74,1.95,0,2.7.74.74,1.95.74,2.7,0s.74-1.95,0-2.7c-.74-.74-1.95-.74-2.7,0Z"/>
      <path class="cls-2" d="M231.78,392.06c-.74.74-.74,1.95,0,2.7.74.74,1.95.74,2.7,0,.74-.74.74-1.95,0-2.7-.74-.74-1.95-.74-2.7,0Z"/>
      <path class="cls-2" d="M226.21,386.49c-.74.74-.74,1.95,0,2.7.74.74,1.95.74,2.7,0,.74-.74.74-1.95,0-2.7-.74-.74-1.95-.74-2.7,0Z"/>
      <path class="cls-2" d="M220.65,380.93c-.74.74-.74,1.95,0,2.7.74.74,1.95.74,2.7,0s.74-1.95,0-2.7c-.74-.74-1.95-.74-2.7,0Z"/>
      <path class="cls-2" d="M215.09,375.36c-.74.74-.74,1.95,0,2.7.74.74,1.95.74,2.7,0,.74-.74.74-1.95,0-2.7-.74-.74-1.95-.74-2.7,0Z"/>
      <path class="cls-2" d="M209.52,369.8c-.74.74-.74,1.95,0,2.7.74.74,1.95.74,2.7,0s.74-1.95,0-2.7c-.74-.74-1.95-.74-2.7,0Z"/>
      <path class="cls-2" d="M203.96,364.24c-.74.74-.74,1.95,0,2.7.74.74,1.95.74,2.7,0,.74-.74.74-1.95,0-2.7-.74-.74-1.95-.74-2.7,0Z"/>
      <path class="cls-2" d="M198.4,358.67c-.74.74-.74,1.95,0,2.7.74.74,1.95.74,2.7,0,.74-.74.74-1.95,0-2.7-.74-.74-1.95-.74-2.7,0Z"/>
      <path class="cls-2" d="M192.83,353.11c-.74.74-.74,1.95,0,2.7.74.74,1.95.74,2.7,0,.74-.74.74-1.95,0-2.7-.74-.74-1.95-.74-2.7,0Z"/>
      <path class="cls-2" d="M187.27,347.55c-.74.74-.74,1.95,0,2.7.74.74,1.95.74,2.7,0,.74-.74.74-1.95,0-2.7-.74-.74-1.95-.74-2.7,0Z"/>
      <path class="cls-2" d="M181.71,341.98c-.74.74-.74,1.95,0,2.7.74.74,1.95.74,2.7,0,.74-.74.74-1.95,0-2.7-.74-.74-1.95-.74-2.7,0Z"/>
    </g>
  </g>
</svg>