<?xml version="1.0" encoding="UTF-8"?>
<svg id="Laag_2" data-name="Laag 2" xmlns="http://www.w3.org/2000/svg" viewBox="0 0 272.07 563.97">
  <defs>
    <style>
      .cls-1 {
        fill: #d9ede6;
      }

      .cls-2 {
        fill: #58b895;
      }

      .cls-3 {
        opacity: .48;
      }
    </style>
  </defs>
  <g id="Layer_1" data-name="Layer 1">
    <g>
      <g class="cls-3">
        <g>
          <path class="cls-2" d="M239.67,41.81H34.04c-4.24,0-7.68-3.44-7.68-7.68s3.44-7.68,7.68-7.68h205.63c4.24,0,7.68,3.44,7.68,7.68s-3.44,7.68-7.68,7.68Z"/>
          <path class="cls-2" d="M227.47,77.94H46.24c-3.98,0-7.21-3.23-7.21-7.21s3.23-7.21,7.21-7.21h181.23c3.98,0,7.21,3.23,7.21,7.21s-3.23,7.21-7.21,7.21Z"/>
          <path class="cls-2" d="M239.67,537.53H34.04c-4.24,0-7.68-3.44-7.68-7.68s3.44-7.68,7.68-7.68h205.63c4.24,0,7.68,3.44,7.68,7.68s-3.44,7.68-7.68,7.68Z"/>
          <path class="cls-2" d="M227.47,500.47H46.24c-3.98,0-7.21-3.23-7.21-7.21s3.23-7.21,7.21-7.21h181.23c3.98,0,7.21,3.23,7.21,7.21s-3.23,7.21-7.21,7.21Z"/>
        </g>
        <g>
          <path class="cls-2" d="M227.65,329.43H45c-4,0-7.24-3.24-7.24-7.24s3.24-7.24,7.24-7.24h182.66c4,0,7.24,3.24,7.24,7.24s-3.24,7.24-7.24,7.24Z"/>
          <path class="cls-2" d="M207.25,369.68h-.06l-140.79-1.28c-3.49-.03-6.3-2.89-6.27-6.39.03-3.48,2.86-6.27,6.33-6.27h.06l140.79,1.28c3.49.03,6.3,2.89,6.27,6.39-.03,3.48-2.86,6.27-6.33,6.27Z"/>
          <path class="cls-2" d="M214.79,207.35H57.86c-3.7,0-6.71-3-6.71-6.71s3-6.71,6.71-6.71h156.92c3.7,0,6.71,3,6.71,6.71s-3,6.71-6.71,6.71Z"/>
          <path class="cls-2" d="M227.65,248.4H45c-4,0-7.24-3.24-7.24-7.24s3.24-7.24,7.24-7.24h182.66c4,0,7.24,3.24,7.24,7.24s-3.24,7.24-7.24,7.24Z"/>
          <path class="cls-2" d="M234.91,290.04h-.07l-196.1-1.78c-4.12-.04-7.44-3.41-7.4-7.54.03-4.1,3.37-7.4,7.47-7.4h.07l196.1,1.78c4.12.04,7.44,3.41,7.4,7.54-.03,4.1-3.37,7.4-7.47,7.4Z"/>
        </g>
      </g>
      <path class="cls-1" d="M217.88,374.3c-43.66,51.39-83.34,70.95-115.28,86.66-2.82,1.38-5.53,2.71-8.14,4.04-33.84,16.89-54.57,30.76-63.94,86.15-1.28,7.52-7.78,12.8-15.15,12.8-.82,0-1.69-.05-2.56-.2-8.4-1.43-14.03-9.32-12.59-17.71,11.31-66.65,40.29-87.84,75.15-105.81,4.45-2.3,9.01-4.56,13.67-6.86,30.92-15.2,65.93-32.4,105.45-78.99,22.22-26.21,30.41-63.83,21.81-100.69-10.65-45.92-45-83.54-96.59-105.96-18.27-7.93-33.78-16.48-46.89-25.34C1.5,74.28.02,18.27.02,15.51-.08,7.01,6.78.1,15.22,0h.15c8.34,0,15.2,6.71,15.36,15.1.1,2.51,2.66,48.78,70.23,88.81,9.06,5.37,19.35,10.65,30.97,15.66,60.76,26.36,101.35,71.51,114.31,127.15,10.75,46.27.15,93.93-28.36,127.56Z"/>
      <path class="cls-2" d="M256.69,563.97c-7.35,0-13.85-5.3-15.12-12.79-10.11-59.72-33.45-71.2-72.11-90.23-31.91-15.7-71.62-35.25-115.27-86.67-28.51-33.59-39.11-81.27-28.33-127.54,12.95-55.63,53.54-100.78,114.31-127.16C238.24,77,241.28,17.57,241.36,15.06c.27-8.3,7.08-14.95,15.35-14.95.11,0,.21,0,.32,0,8.41.17,15.12,6.99,15.04,15.4-.03,3.29-2.08,81.18-119.68,132.23-51.62,22.41-85.93,60.03-96.62,105.95-8.58,36.84-.41,74.49,21.84,100.7,39.52,46.56,74.53,63.79,105.42,78.99,40.83,20.1,76.09,37.45,88.83,112.66,1.41,8.36-4.21,16.29-12.58,17.71-.87.14-1.73.22-2.58.22Z"/>
    </g>
  </g>
</svg>