<?xml version="1.0" encoding="UTF-8"?>
<svg id="Laag_2" data-name="Laag 2" xmlns="http://www.w3.org/2000/svg" viewBox="0 0 856.28 747.62">
  <defs>
    <style>
      .cls-1 {
        fill: #c0ddcc;
      }

      .cls-2 {
        fill: #85b79a;
      }

      .cls-3 {
        fill: #e0f4e9;
      }
    </style>
  </defs>
  <g id="Objects">
    <g>
      <path class="cls-2" d="M565.21,652.04l6.08,70.25c1.25,14.44-10.77,26.51-25.14,25.24l-23.87-2.12c-8.87-.79-16.51-6.61-19.65-14.98-6.7-17.78-19.49-50.33-34.87-82.4-22.4-4.37-43.46-15.76-59.26-32.35-13.93-14.63-23.65-33.2-28.06-52.95l86.09-23.31,98.68,112.62Z"/>
      <path class="cls-1" d="M472.55,555.98c20.03,61.15,77.31,105.28,144.85,105.28,72.42,0,133.06-50.75,148.62-118.79,0,0-61.53-79.03-175.17-65.36-98.37,11.83-118.3,78.87-118.3,78.87Z"/>
      <path class="cls-3" d="M856.28,382.88c0-23.92-11.81-45.06-29.88-57.87,10.19-12.28,16.32-28.08,16.32-45.32,0-34.21-24.13-62.74-56.2-69.35,2.27-7.87,3.51-16.17,3.51-24.78,0-48.96-39.49-88.65-88.19-88.65-5.35,0-10.6.48-15.69,1.42-7.7,1.39-15.05,3.79-21.92,7.04,0,0,0,0-.02,0-1.85-47.32-40.58-85.12-88.1-85.12-19.37,0-37.25,6.28-51.8,16.92C501.83,14.23,470.6,0,436.04,0s-62.84,12.91-85.02,33.97c-12.72-8.66-28.07-13.72-44.59-13.72-32.95,0-61.21,20.11-73.33,48.77-10.89-5.39-23.14-8.43-36.1-8.43-45.22,0-81.86,36.83-81.86,82.27,0,3.43.24,6.8.64,10.12-2.63-.26-5.28-.39-7.97-.39-43.98,0-79.64,35.84-79.64,80.05,0,7.21.96,14.18,2.74,20.82-18.66,12.73-30.91,34.23-30.91,58.61,0,15.86,5.19,30.49,13.97,42.3.46.63.94,1.25,1.43,1.86-3.86,6.59-6.71,13.85-8.29,21.58-.96,4.63-1.46,9.42-1.46,14.34,0,39.1,31.53,70.8,70.44,70.8,5.04,0,9.95-.54,14.69-1.55,10.28,26.31,35.76,44.94,65.57,44.94,4.62,0,9.13-.45,13.51-1.31,7.34-1.44,14.28-4.02,20.61-7.55.07.15.13.3.2.43,0,.03.02.05.03.08,13.29,29.51,42.82,50.04,77.14,50.04,16.85,0,32.54-4.97,45.74-13.51,24.32,19.02,59.98,31.03,99.71,31.03,44.81,0,84.45-15.28,108.49-38.67,5.44-5.29,10.08-11,13.8-17.04,11.88,9.17,26.73,14.64,42.87,14.64s31.97-5.82,44.03-15.54c0,0,.03-.02.04-.04.38-.3.75-.6,1.12-.91,4.39,5.66,9.71,10.9,15.81,15.61,20.38,15.76,49.46,25.62,81.75,25.62,61.68,0,111.68-35.98,111.68-80.36,0-9.78-2.44-19.15-6.88-27.82,18.31-12.78,30.29-34.06,30.29-58.17Z"/>
      <path class="cls-1" d="M499.38,104.91c-24.94,2.42-42.54,10.92-52.31,25.26-15.99,23.47-6.92,56.1-6.83,56.43.97,3.41.25,7.1-1.96,9.87-2.21,2.78-5.61,4.35-9.16,4.16-27.8-1.43-48.24,4.9-60.78,18.78-19.63,21.76-14.62,56.05-14.56,56.4.48,3.15-.41,6.36-2.47,8.79-2.05,2.43-5.06,3.86-8.24,3.9-25.81.35-45.06,7.68-57.2,21.77-19.6,22.72-15.31,56.52-15.26,56.87.8,5.93-3.28,11.43-9.19,12.36-30.44,4.75-51.99,18.79-64.06,41.73-16.49,31.33-10.47,67.26-6.89,76.27h0c-6.33,3.53-13.26,6.12-20.61,7.55-6.42-17.5-10.19-59.39,8.04-94.05,13.88-26.39,38.06-44,70.28-51.33-.15-14.73,2.45-42.06,20.89-63.57,14.42-16.82,35.28-26.54,62.1-28.97-.23-15.27,2.43-41.91,20.73-62.29,14.83-16.52,36.5-25.34,64.54-26.29-1.83-15.13-1.76-39.71,12.36-60.57,13.6-20.09,36.63-31.84,68.46-34.92,6.05-.57,11.41,3.83,12,9.88.58,6.04-3.83,11.41-9.88,12Z"/>
      <path class="cls-1" d="M535.57,509.85c-3.73,6.04-8.37,11.75-13.8,17.04-8.01-5.44-14.24-10.97-18.55-15.26-4.83,2.94-11.43,6.31-19.36,8.72-15.81,4.79-40.05,6.69-65.76-11.51-4.95-3.51-6.13-10.37-2.62-15.33,3.51-4.95,10.37-6.13,15.32-2.62,34.9,24.72,65.53-.98,66.82-2.09,2.28-2.01,5.27-2.95,8.3-2.65s5.77,1.85,7.63,4.27c.05.07,7.55,10.05,22.02,19.44Z"/>
      <path class="cls-1" d="M664.65,494.39c-7.04,13.79-19.7,24.82-25.22,29.21-6.1-4.71-11.41-9.95-15.81-15.61l.34-.23c.14-.11,14.6-10.61,21.12-23.37,2.76-5.41,9.38-7.55,14.79-4.79s7.54,9.39,4.78,14.79Z"/>
      <path class="cls-1" d="M587.01,417.97c-11.15,0-19.7-2.58-20.84-2.94-5.79-1.83-9-8-7.17-13.79,1.82-5.77,7.98-8.98,13.75-7.18.3.09,9.89,2.93,20.27,1.54,12.37-1.65,20.3-8.54,24.25-21.04,1.83-5.79,8-9,13.79-7.17,5.79,1.83,9,8,7.17,13.79-6.6,20.89-21.93,33.78-43.17,36.32-2.78.33-5.49.47-8.06.47Z"/>
      <path class="cls-1" d="M704.48,439.45c-4.83,0-9.25-3.2-10.59-8.08-1.6-5.83,1.81-11.85,7.62-13.49,2.29-.67,21.78-7.08,21.78-29.96s-18.8-31.96-20.18-32.53c-4.18-1.53-6.93-5.4-7.11-9.85-.17-4.47,2.47-8.56,6.54-10.4,1.03-.48,26.57-12.81,26.57-43.36,0-23.84-23.34-30.78-24.33-31.07-5.86-1.59-9.28-7.62-7.69-13.47,1.59-5.86,7.66-9.31,13.52-7.72,14,3.8,40.48,19.61,40.48,52.26,0,26.54-13.19,43.58-24.33,53.23,9,8.1,18.51,21.68,18.51,42.91,0,32.23-24.77,47.54-37.87,51.13-.97.27-1.95.39-2.92.39Z"/>
      <path class="cls-1" d="M414.08,393.76c-5.99,0-10.89-4.84-10.99-10.85-.02-1.1-.2-27.13,20.14-45.12,13.68-12.1,32.79-17.43,56.9-15.91,2.24-12.82,8.39-33.35,25.26-48.25,16.22-14.32,38.2-20.05,65.31-17.03,6.03.67,10.38,6.11,9.7,12.14-.67,6.03-6.11,10.38-12.14,9.7-20.62-2.31-36.84,1.58-48.21,11.55-18.46,16.18-19.22,43.81-19.23,44.09-.06,3.14-1.47,6.13-3.86,8.16-2.39,2.04-5.55,2.98-8.65,2.54-22.69-3.17-39.63-.05-50.34,9.3-12.79,11.15-12.9,28.35-12.9,28.53.1,6.07-4.74,11.03-10.81,11.13-.06,0-.12,0-.18,0Z"/>
      <path class="cls-1" d="M131.17,315.47c-.16,0-.31,0-.47-.01-6.06-.25-10.77-5.4-10.52-11.47.04-.83,1-20.65,13.81-40.17,10.78-16.43,31.95-35.59,72.52-38.19-.52-13.96,1.2-36.9,14.72-56.54,12.03-17.47,30.59-28.53,55.16-32.89,5.97-1.06,11.68,2.92,12.74,8.9,1.06,5.98-2.92,11.68-8.9,12.74-18.5,3.28-32.23,11.22-40.81,23.59-15.47,22.33-10.1,52.58-10.04,52.88.6,3.24-.28,6.6-2.41,9.12-2.13,2.52-5.28,3.95-8.58,3.9-30.63-.55-52.67,8.83-65.53,27.81-9.81,14.49-10.71,29.67-10.72,29.82-.25,5.91-5.11,10.5-10.97,10.5Z"/>
      <path class="cls-1" d="M64.38,390.93c-1.11,5.16-5.67,8.68-10.74,8.68-.77,0-1.54-.08-2.32-.25-19.25-4.15-34.1-13.3-44.21-21.55,1.58-7.73,4.42-14.99,8.29-21.58h0c6.4,5.75,20.03,17.23,40.55,21.64,5.94,1.28,9.71,7.13,8.44,13.06Z"/>
      <path class="cls-1" d="M678.31,156.24c-1.72,4.51-3.98,8.75-6.23,12.38-3.93,6.34-12.91,6.94-17.65,1.19h0c-2.78-3.37-3.25-8.06-1.26-11.95,4.3-8.43,10.95-25.75,11.07-52.5,6.86-3.25,14.22-5.65,21.92-7.04.58,23.28-2.05,42.76-7.84,57.92Z"/>
      <path class="cls-2" d="M614.32,586.47c-25,0-50.09-4.71-73.17-13.95-5.64-2.26-8.37-8.65-6.12-14.29s8.65-8.37,14.29-6.12c31.08,12.44,66.25,15.64,99.04,9.01,5.95-1.2,11.75,2.65,12.95,8.6,1.2,5.95-2.65,11.75-8.6,12.95-12.58,2.54-25.47,3.8-38.39,3.8Z"/>
      <path class="cls-2" d="M621.79,624.67c-23.65,0-47.41-4.25-69.52-12.5-5.69-2.12-8.58-8.45-6.45-14.14,2.12-5.69,8.45-8.58,14.14-6.45,24.06,8.98,50.29,12.63,75.87,10.55,6.02-.48,11.35,4.01,11.84,10.06.49,6.05-4.01,11.35-10.06,11.84-5.25.43-10.53.64-15.81.64Z"/>
    </g>
  </g>
</svg>