<?xml version="1.0" encoding="UTF-8"?>
<svg id="Laag_2" data-name="Laag 2" xmlns="http://www.w3.org/2000/svg" xmlns:xlink="http://www.w3.org/1999/xlink" viewBox="0 0 475.26 510.87">
  <defs>
    <style>
      .cls-1, .cls-2, .cls-3, .cls-4 {
        fill: none;
      }

      .cls-5 {
        fill: #58b895;
        opacity: .16;
      }

      .cls-6 {
        fill: #353138;
      }

      .cls-7 {
        fill: #7f665e;
      }

      .cls-8 {
        fill: #eae6e7;
      }

      .cls-2 {
        stroke: #fdfdfd;
        stroke-width: .56px;
      }

      .cls-2, .cls-3, .cls-4 {
        stroke-miterlimit: 10;
      }

      .cls-9 {
        fill: #68544f;
      }

      .cls-10 {
        fill: #559e72;
      }

      .cls-11 {
        fill: #e5a29f;
      }

      .cls-12 {
        fill: #daf1ee;
      }

      .cls-13 {
        fill: #ffc0ba;
      }

      .cls-3 {
        stroke: #5f8c8c;
        stroke-width: 1.12px;
      }

      .cls-14 {
        opacity: .7;
      }

      .cls-15 {
        opacity: .5;
      }

      .cls-16 {
        opacity: .3;
      }

      .cls-17 {
        fill: #406363;
      }

      .cls-18 {
        fill: #1f1f1d;
      }

      .cls-4 {
        stroke: #317a4c;
      }

      .cls-19 {
        fill: #73ba8d;
      }

      .cls-20 {
        fill: #70b98f;
      }

      .cls-21 {
        clip-path: url(#clippath);
      }

      .cls-22 {
        fill: #5f8c8c;
      }

      .cls-23 {
        fill: #ddd6d9;
      }

      .cls-24 {
        fill: #fdfdfd;
      }
    </style>
    <clipPath id="clippath">
      <path class="cls-1" d="M107.42,286.64s-43.14,54.12-39.42,123.14c3.72,69.02,20.81,101.09,20.81,101.09h66.2l7.46-70.5,2.98,70.5h63.23s46.86-130.9-32.73-225.01l-88.52.78Z"/>
    </clipPath>
  </defs>
  <g id="OBJECTS">
    <g class="cls-14">
      <path class="cls-5" d="M326,453.8S35.29,515.42,6,276.76C-21,56.75,87-17.95,203,3.53s90,168.85,204,181.13,84,245.6-81,269.13Z"/>
      <g>
        <g>
          <path class="cls-9" d="M156.88,157.31c.04-15.82-28.3-125.39-13.5-119.81.21.08,35.97,7.71,36.18,7.79,23.06,9.02,30.5,35.29,25.66,83.53-4.41,43.97,29.38,42.35-2.98,76.08-17.85,18.6-37.15,5.66-47.22-3.92-4.51-4.28-7.04-10.24-7.02-16.46l8.87-27.21Z"/>
          <g>
            <path class="cls-13" d="M121.55,136.05s9.3,38.82-1.86,44.31c-11.16,5.49-31.61-12.94-23.8,10.98,7.81,23.92,66.2,27.84,72.15,4.31,5.95-23.53-13.39,11.76-9.67-32.94,3.72-44.71-36.82-26.67-36.82-26.67Z"/>
            <path class="cls-11" d="M121.55,136.05s9.3,38.82-1.86,44.31c-11.16,5.49-31.61-12.94-23.8,10.98,7.81,23.92,66.2,27.84,72.15,4.31,5.95-23.53-13.39,11.76-9.67-32.94,3.72-44.71-36.82-26.67-36.82-26.67Z"/>
          </g>
          <path class="cls-13" d="M148.7,63.5s34.59-1.18,41.57,27.85c10.26,42.64-2.92,79.94-30.42,78.82-35.37-1.45-42.38-33.09-45.84-59.67-4.22-32.36,10.85-43.51,34.69-46.99Z"/>
        </g>
        <g>
          <g>
            <path class="cls-6" d="M107.42,286.64s-43.14,54.12-39.42,123.14c3.72,69.02,20.81,101.09,20.81,101.09h66.2l7.46-70.5,2.98,70.5h63.23s46.86-130.9-32.73-225.01l-88.52.78Z"/>
            <g class="cls-15">
              <g class="cls-21">
                <path class="cls-2" d="M115.6,282.72s-31.99,48.63-37.19,100.39c-5.07,50.39,19.39,133.18,21.57,140.39l12.65.78c-2.16-7.77-26.66-97.29-18.6-153.72,8.18-57.25,35.7-93.33,35.7-93.33l8.18,3.14s-30.5,62.74-30.5,109.02c0,43.06-.56,43.01,15.62,136.47h8.18c-1.43-10.47-19.95-139.3,14.13-244.7h11.16q-10.98,200.76-14.88,248.63"/>
                <path class="cls-2" d="M167.67,528.12s14.13-159.91-6.7-250.11l9.67-4.71s31.99,98.74,7.44,253.25l16.36-3.14s20.08-166.97-15.63-243.05l3.72-2.35s48.35,61.09,27.53,246.97"/>
                <path class="cls-2" d="M187.01,278.01s72.16,83.05,29.76,246.19"/>
              </g>
            </g>
          </g>
          <g class="cls-16">
            <path d="M162.06,444.81c-.36.09-.72.18-1.08.27l-.74,19.78,1.82-20.04Z"/>
            <path class="cls-6" d="M203.3,295.16c-2.33-3.14-4.77-6.24-7.36-9.3l-88.52.78s-6.08,7.62-13.47,20.8c23.36,1.74,74.31,3.25,109.35-12.28Z"/>
            <path class="cls-6" d="M162.46,440.36l2.98,70.5h63.23s20.92-57.12,11.04-124.73c-11.05,19.71-34.85,44.81-77.25,54.22Z"/>
          </g>
        </g>
        <g>
          <g>
            <path class="cls-13" d="M88.82,320.56s26.22-34.12-5.02-2.94c-3.73,3.72-6.64,6.76-8.89,9.23l-31.84-52.76s51.33-40.59,55.79-44.71-7.25-44.71-7.25-44.71c0,0-16.18,1.18-46.3,26.47C15.18,236.44-1.56,262.33.11,274.09c1.67,11.76,65.27,82.94,74.76,79.41,9.48-3.53,9.48-17.65,9.48-17.65,0,0,41.28,19.41,2.23-4.71,0,0,45.75,4.71,1.67-5.29,0,0,44.07-3.53.56-5.29Z"/>
            <path class="cls-13" d="M59.96,260.71c15.39-12.22,36.14-28.77,38.9-31.32,4.46-4.12-7.25-44.71-7.25-44.71,0,0-16.18,1.18-46.3,26.47-3.95,3.32-7.67,6.65-11.15,9.95,3.81,15.92,13.72,28.88,25.8,39.6Z"/>
          </g>
          <g>
            <path class="cls-13" d="M382.83,152.92c-1.12-3.53-28.14-15.77-35.95-10.47-2.08,1.41-26.1,21.68-50.09,42.03l-27.25,22.87s-61.33-19.85-67.12-21.23c-5.78-1.38-30,32.5-30,32.5,0,0,10.43,13.1,47.55,23.88,37.13,10.79,66.82,9.81,74.86,1.46,5.99-6.23,42.62-55.34,57.43-82.42,6.96.79,13-4.21,13-4.21-31.24,38.82,5.58,4.12,5.58,4.12-19.53,53.53,5.86,2.06,5.86,2.06.56,48.82,7.25-7.06,6.14-10.59Z"/>
            <path class="cls-13" d="M249.33,200.82c-18.43-5.92-43.33-13.86-46.91-14.72-5.78-1.38-30,32.5-30,32.5,0,0,10.43,13.1,47.55,23.88,4.87,1.41,9.61,2.62,14.19,3.64,9.96-12.62,14.06-28.7,15.17-45.31Z"/>
          </g>
          <g>
            <g>
              <path class="cls-24" d="M194.07,239.97s20.08,9.02,31.24,10.59c0,0,16.74-41.18,15.25-58.43,0,0-17.48-3.14-26.78-6.27-9.3-3.14-16.36-7.45-35.7.39l15.99,53.73Z"/>
              <path class="cls-24" d="M240.56,192.13s-9.73-1.75-18.54-3.94c-2.96,18.83-15.12,35.18-28.86,48.72l.91,3.06s20.08,9.02,31.24,10.59c0,0,16.74-41.18,15.25-58.43Z"/>
            </g>
            <g>
              <path class="cls-24" d="M105.56,290.17s-12.27-5.49-18.22-25.1c-5.95-19.61-19.71-61.18-10.41-76.86,9.3-15.69,27.15-.78,45.75-4.71l28.64,20,15.99-18.82s10.79,4.31,22.69,0,19.34,11.76,20.08,21.57c.74,9.8,20.46,56.08-10.79,70.98,0,0,0,5.49-3.35,8.63,0,0-34.22,11.76-90.38,4.31Z"/>
              <path class="cls-24" d="M99.23,243.9c-12.27-18.99-10.61-47.63-8.54-63.03-5.53-.14-10.27,1.42-13.78,7.34-9.3,15.69,4.46,57.25,10.41,76.86,5.95,19.61,18.22,25.1,18.22,25.1,56.16,7.45,90.38-4.31,90.38-4.31,3.35-3.14,3.35-8.63,3.35-8.63,7.28-3.47,11.79-8.65,14.42-14.67-22.61,26.75-97.21,8.07-114.47-18.66Z"/>
            </g>
            <path class="cls-24" d="M122.66,183.5s-24.18-11.37-40.54-4.31c-16.36,7.06-40.54,27.45-40.54,27.45,0,0,8.93,34.9,31.61,52.16l26.03-20,23.43-55.29Z"/>
            <g>
              <g>
                <polygon class="cls-8" points="151.3 203.5 153.53 192.52 171.39 174.09 181.8 183.5 163.58 217.23 156.88 200.37 151.3 203.5"/>
                <polygon class="cls-23" points="151.3 203.5 156.88 200.37 153.5 192.68 151.3 203.5"/>
              </g>
              <g>
                <polygon class="cls-8" points="151.3 203.5 147.96 192.13 122.66 168.6 110.02 176.84 130.85 217.62 143.86 199.58 151.3 203.5"/>
                <polygon class="cls-23" points="143.86 199.58 151.3 203.5 147.99 192.25 143.86 199.58"/>
              </g>
            </g>
          </g>
        </g>
        <path class="cls-7" d="M88.07,69.78s9.3-26.27,39.05-32.55c29.75-6.27,42.03,29.41,30.13,40.78-10.33,9.87-31.24,17.65-32.36,38.82-1.12,21.18,15.25,72.94-10.79,74.9-26.03,1.96-18.6-17.65-34.22-11.37l-9.3,4.71s-4.46-14.51,7.07-21.57c11.53-7.06,16.36-13.33,9.67-41.96-6.69-28.63.74-51.76.74-51.76Z"/>
      </g>
      <g>
        <g>
          <g>
            <path class="cls-22" d="M359.37,145.88c-.65.09-1.32.16-2,.17v10.26c.5-.78,1.16-1.73,2-2.86v-7.57Z"/>
            <path class="cls-22" d="M357.37,159.15v81.19h2v-82.37c-.78.52-1.46.93-2,1.17Z"/>
          </g>
          <g>
            <path class="cls-22" d="M258.11,207.3c34.85,12.01,69.69,24.02,104.54,36.03,32.52,11.21,65.04,22.42,97.56,33.63,1.45.5-.24-6.8-2.46-7.57-34.85-12.01-69.69-24.02-104.54-36.03-32.52-11.21-65.04-22.42-97.56-33.63-1.45-.5.24,6.8,2.46,7.57h0Z"/>
            <path class="cls-17" d="M353.21,233.35c-3.56-1.23-7.13-2.46-10.69-3.68-.79,1.97-1.54,3.95-2.25,5.95,7.46,2.57,14.92,5.14,22.38,7.71,3.4,1.17,6.8,2.34,10.19,3.51,1-1.89,1.98-3.79,2.9-5.72-7.51-2.59-15.02-5.18-22.53-7.77Z"/>
          </g>
          <g>
            <path class="cls-22" d="M348.13,237.21c-.62,5.41,3.26,10.3,8.67,10.93,5.41.62,10.3-3.26,10.93-8.67.62-5.41-3.26-10.3-8.67-10.93-5.41-.62-10.3,3.26-10.93,8.67Z"/>
            <path class="cls-12" d="M352.62,237.73c-.34,2.93,1.76,5.58,4.69,5.92,2.93.34,5.58-1.76,5.92-4.69.34-2.93-1.76-5.58-4.69-5.92-2.93-.34-5.58,1.76-5.92,4.69Z"/>
          </g>
        </g>
        <g>
          <g>
            <g>
              <g>
                <g>
                  <g>
                    <path class="cls-10" d="M416.98,350.64s-.72-14.75-18.85-8.1c0,0,8.42,16.14,18.85,8.1Z"/>
                    <path class="cls-19" d="M416.98,350.64s-7.35-5.25-18.85-8.1c0,0,5.75,17.6,18.85,8.1Z"/>
                  </g>
                  <g>
                    <path class="cls-10" d="M419.76,338.14s.33-18.67-22-11c0,0,8.67,19.33,22,11Z"/>
                    <path class="cls-19" d="M419.76,338.14s-4.33-8-22-11c0,0,8.67,19.33,22,11Z"/>
                  </g>
                </g>
                <g>
                  <path class="cls-4" d="M402.38,343.77s17.12,4,25.5,18.5"/>
                  <path class="cls-4" d="M406.46,329.33s20.48,4.86,22.27,33.96"/>
                </g>
              </g>
              <g>
                <g>
                  <g>
                    <path class="cls-10" d="M450.5,351.1s.72-14.75,18.85-8.1c0,0-8.42,16.14-18.85,8.1Z"/>
                    <path class="cls-19" d="M450.5,351.1s7.35-5.25,18.85-8.1c0,0-5.75,17.6-18.85,8.1Z"/>
                  </g>
                  <g>
                    <path class="cls-10" d="M447.73,338.6s-.33-18.67,22-11c0,0-8.67,19.33-22,11Z"/>
                    <path class="cls-19" d="M447.73,338.6s4.33-8,22-11c0,0-8.67,19.33-22,11Z"/>
                  </g>
                </g>
                <g>
                  <path class="cls-4" d="M465.1,344.22s-17.12,4-25.5,18.5"/>
                  <path class="cls-4" d="M461.03,329.79s-20.48,4.86-22.27,33.96"/>
                </g>
              </g>
            </g>
            <g>
              <path class="cls-20" d="M304.81,290.9c-.3-3.46-1.64-6.47-3.97-8.95-3.14-3.34-6.96-5.04-11.37-5.04-.65,0-1.33.04-2.01.11-3.25.36-6.17,1.71-8.69,4.04-2.31,2.14-3.89,4.83-4.59,7.78-.68,2.9-.49,5.98.56,8.91,1.05,2.95,3.06,5.44,5.97,7.41,3.08,2.08,6.59,2.92,10.43,2.5,3.3-.36,6.22-1.69,8.69-3.93,3.28-3,4.99-6.85,5.07-11.46,0-.12,0-.25-.02-.38-.02-.3-.04-.64-.06-.98h0ZM289.26,304.9h-.07c-3.28,0-6.35-1.27-8.65-3.57-2.41-2.42-3.74-5.67-3.73-9.16,0-3.27,1.29-6.37,3.67-8.73,2.37-2.36,5.51-3.67,8.81-3.67h.03c6.91,0,12.54,5.59,12.56,12.45.02,7.07-5.52,12.64-12.62,12.69h0Z"/>
              <circle class="cls-18" cx="289.35" cy="292.34" r="1.65"/>
            </g>
          </g>
          <g>
            <polygon class="cls-3" points="434.58 275.26 406.09 365.76 461.4 365.76 434.58 275.26"/>
            <path class="cls-22" d="M395.03,362.98c3.9,11.43,19.37,19.97,37.87,19.97s33.97-8.54,37.87-19.97h-75.74Z"/>
          </g>
        </g>
        <g>
          <polygon class="cls-3" points="290.18 225.03 261.69 315.54 316.99 315.54 290.18 225.03"/>
          <path class="cls-22" d="M250.63,312.75c3.9,11.43,19.37,19.97,37.87,19.97s33.97-8.54,37.87-19.97h-75.74Z"/>
        </g>
      </g>
    </g>
  </g>
</svg>