<?xml version="1.0" encoding="UTF-8"?>
<svg id="Laag_2" data-name="Laag 2" xmlns="http://www.w3.org/2000/svg" viewBox="0 0 432 413.64">
  <defs>
    <style>
      .cls-1 {
        fill: #bfd8cf;
      }

      .cls-1, .cls-2, .cls-3, .cls-4, .cls-5, .cls-6, .cls-7 {
        fill-rule: evenodd;
      }

      .cls-2 {
        fill: #fff;
      }

      .cls-3 {
        fill: #f9e7d5;
      }

      .cls-4 {
        fill: #c7e0d6;
      }

      .cls-8 {
        opacity: .44;
      }

      .cls-9 {
        opacity: .42;
      }

      .cls-10 {
        fill: #58b995;
      }

      .cls-11 {
        fill: #1f1f1d;
      }

      .cls-5 {
        fill: #cad9cf;
      }

      .cls-6 {
        fill: #d7eee4;
      }

      .cls-7 {
        fill: #b8c7be;
      }
    </style>
  </defs>
  <g id="Layer_1" data-name="Layer 1">
    <g>
      <path class="cls-6" d="M118.48,215.99c-1.93-.11-3.67-1.42-4.24-3.38-14.34-49.45-18.3-89.31-18.32-89.42-.25-2.58,1.63-4.89,4.22-5.14.23-.02.46-.03.68-.02C182.5,120.38,204.03,4.16,204.09,3.82c.49-2.55,2.95-4.23,5.51-3.74.82.16,1.55.52,2.14,1.02,12.7,9.11,32.39,13.66,52.21,13.66s39.78-4.62,52.47-13.85c2.1-1.53,5.03-1.06,6.56,1.03.42.58.69,1.22.82,1.88h.01c.06.33,21.61,116.65,103.36,114.21,2.59-.07,4.76,1.97,4.83,4.57.01.21,0,.41-.02.61h0c-.07.69-23.82,239.77-166.94,273.9-.77.18-1.54.16-2.26-.02-14.26-3.41-27.37-8.89-39.41-15.98-12.02-7.08-22.94-15.75-32.84-25.58-1.61-1.6-1.82-4.08-.62-5.91l-71.43-133.63Z"/>
      <path class="cls-4" d="M198.88,326.43c-1.63-1.9-1.47-4.73.31-6.45l-50.88-94.45c-1.78-.2-3.37-1.41-3.96-3.22-2.34-7.12-4.53-14.38-6.57-21.72-2.16-7.75-4.1-15.37-5.85-22.84-1.15-4.9-2.3-10.07-3.44-15.51-1.13-5.39-2.18-10.72-3.09-15.87-.49-2.45,1.02-4.87,3.46-5.5,15.98-4.07,30.11-11.93,42.4-22.48,13.61-11.68,25-26.67,34.21-43.51,2.86-5.24,5.7-11.04,8.42-17.2,2.64-6,5.1-12.19,7.28-18.37h0c.68-2.51,3.27-4,5.78-3.32,11.66,3.17,24.31,4.75,36.98,4.75s25.32-1.59,36.98-4.75h0c2.36-.63,4.85.65,5.67,3,2.21,6.29,4.71,12.59,7.39,18.69,2.71,6.15,5.55,11.96,8.42,17.2,9.21,16.84,20.6,31.83,34.21,43.51,12.29,10.55,26.42,18.41,42.4,22.48h0c2.37.6,3.91,2.93,3.48,5.38-.92,5.19-1.97,10.57-3.11,16.01-1.14,5.45-2.3,10.63-3.45,15.53-4.71,20.15-10.62,40.63-17.99,60.51-6.55,17.68-14.3,34.93-23.44,51.12-6.69,11.85-14.36,23.5-23.15,34.17-8.85,10.76-18.85,20.57-30.11,28.67-5.59,4.02-11.41,7.55-17.46,10.56-5.93,2.95-12.07,5.39-18.44,7.3-.87.27-1.82.3-2.76.02-12.89-3.85-24.6-9.84-35.24-17.37-10.54-7.48-19.99-16.45-28.45-26.34Z"/>
      <path class="cls-3" d="M104.07,205.5c28.74,0,54.75,11.65,73.59,30.48,18.83,18.83,30.48,44.85,30.48,73.59s-11.65,54.75-30.48,73.59c-18.83,18.83-44.85,30.48-73.59,30.48s-54.75-11.65-73.59-30.48C11.65,364.33,0,338.31,0,309.57s11.65-54.75,30.48-73.59,44.85-30.48,73.59-30.48Z"/>
      <path class="cls-1" d="M399.39,162.26c1.14-5.44,2.2-10.82,3.11-16.01.43-2.45-1.11-4.78-3.48-5.38-15.98-4.07-30.11-11.93-42.4-22.48-13.61-11.68-25-26.67-34.21-43.51-2.86-5.24-5.7-11.05-8.42-17.2-2.69-6.1-5.19-12.4-7.39-18.69-.82-2.35-3.31-3.63-5.67-2.99h0c-11.66,3.16-24.31,4.74-36.98,4.74s-25.32-1.59-36.98-4.75c-2.51-.68-5.1.8-5.78,3.32h0c-1.39,3.95-2.9,7.91-4.5,11.81,10.57,2.51,21.83,3.77,33.11,3.77,12.67,0,25.32-1.59,36.98-4.76h0c2.36-.63,4.85.65,5.67,3,2.21,6.29,4.71,12.59,7.39,18.69,2.71,6.15,5.55,11.96,8.42,17.2,9.21,16.84,20.6,31.83,34.21,43.51,12.29,10.55,26.42,18.41,42.4,22.48,2.37.6,3.91,2.93,3.48,5.38-.92,5.19-1.97,10.57-3.11,16.01-1.14,5.45-2.3,10.63-3.45,15.53-4.71,20.15-10.62,40.63-17.99,60.51-6.55,17.68-14.3,34.93-23.44,51.12-6.69,11.85-14.36,23.5-23.15,34.17-1.55,1.89-3.14,3.75-4.76,5.57,6.82-6.02,13.11-12.67,18.91-19.72,8.78-10.68,16.46-22.32,23.15-34.17,9.14-16.19,16.88-33.44,23.44-51.12,7.37-19.88,13.27-40.36,17.99-60.51,1.15-4.89,2.31-10.07,3.45-15.52Z"/>
      <path class="cls-7" d="M120.78,262.18c.85.3,1.69.62,2.51.96.83.34,1.65.71,2.46,1.1l13.99-12.66c1.86-1.69,4.71-1.6,6.47.16h0s15.68,15.67,15.68,15.67c1.84,1.84,1.84,4.83,0,6.67-.05.05-.1.09-.15.14l-12.37,13.65c.39.81.76,1.64,1.1,2.47.34.82.66,1.66.96,2.51l18.82.93c2.52.12,4.48,2.2,4.48,4.7h.01v22.17c0,2.6-2.11,4.72-4.72,4.72h-.12l-18.48.91c-.3.85-.62,1.69-.96,2.51-.34.83-.71,1.65-1.1,2.46l12.66,13.98c1.69,1.86,1.6,4.71-.16,6.47h.01s-15.68,15.69-15.68,15.69c-1.84,1.84-4.83,1.84-6.67,0-.05-.05-.09-.1-.14-.15l-13.66-12.37c-.81.39-1.64.76-2.46,1.1s-1.66.66-2.51.96l-.93,18.82c-.12,2.52-2.2,4.48-4.7,4.48h0s-22.17.01-22.17.01c-2.6,0-4.72-2.11-4.72-4.72v-.12l-.91-18.48c-.86-.3-1.69-.62-2.52-.96s-1.65-.71-2.46-1.1l-13.98,12.66c-1.86,1.69-4.71,1.6-6.47-.16h-.01s-15.68-15.67-15.68-15.67c-1.84-1.84-1.84-4.83,0-6.67.05-.05.1-.09.15-.14l12.38-13.62c-.39-.81-.76-1.64-1.1-2.46s-.66-1.66-.96-2.51l-18.82-.93c-2.52-.12-4.48-2.2-4.48-4.7h-.01v-22.17c0-2.6,2.11-4.72,4.72-4.72h.12l18.48-.91c.3-.86.62-1.69.96-2.52s.71-1.65,1.1-2.46l-12.66-13.98c-1.69-1.86-1.6-4.71.16-6.47h-.01s15.68-15.69,15.68-15.69c1.84-1.84,4.83-1.84,6.67,0,.05.05.09.1.14.15l13.65,12.37c.81-.39,1.64-.76,2.46-1.1s1.66-.66,2.51-.96l.93-18.82c.12-2.52,2.2-4.48,4.7-4.48h0s22.17-.01,22.17-.01c2.6,0,4.72,2.11,4.72,4.72v.12l.91,18.45Z"/>
      <path class="cls-5" d="M104.07,275.4c9.43,0,17.98,3.82,24.16,10.01,6.18,6.18,10.01,14.72,10.01,24.16s-3.82,17.98-10.01,24.16c-6.18,6.18-14.73,10.01-24.16,10.01s-17.98-3.82-24.16-10.01c-6.18-6.18-10.01-14.72-10.01-24.16s3.82-17.98,10.01-24.16c6.18-6.19,14.72-10.01,24.16-10.01Z"/>
      <path class="cls-2" d="M104.07,290.02c5.4,0,10.28,2.19,13.82,5.73s5.73,8.42,5.73,13.82-2.19,10.28-5.73,13.82-8.42,5.73-13.82,5.73-10.28-2.19-13.82-5.73-5.73-8.42-5.73-13.82,2.19-10.28,5.73-13.82c3.53-3.55,8.42-5.73,13.82-5.73Z"/>
      <g class="cls-8">
        <path class="cls-10" d="M341.56,182.36c-1.51-17.38-8.23-32.46-19.91-44.92-15.77-16.78-34.94-25.29-57.06-25.29-3.26,0-6.67.18-10.07.55-16.32,1.8-30.98,8.6-43.59,20.28-11.59,10.76-19.54,24.23-23.04,39.04-3.41,14.53-2.44,29.98,2.8,44.7,5.29,14.81,15.36,27.32,29.94,37.2,15.45,10.44,33.06,14.66,52.32,12.56,16.55-1.8,31.22-8.46,43.59-19.73,16.46-15.03,25.02-34.39,25.42-57.51,0-.6-.05-1.24-.1-1.93-.1-1.51-.18-3.22-.32-4.92h.01ZM263.54,252.62h-.37c-16.46,0-31.87-6.39-43.41-17.93-12.09-12.14-18.76-28.46-18.71-45.98-.05-16.42,6.48-31.95,18.44-43.81,11.91-11.86,27.64-18.39,44.18-18.44h.14c34.67,0,62.95,28.04,63.04,62.48.1,35.5-27.72,63.45-63.32,63.68h0Z"/>
        <circle class="cls-11" cx="263.95" cy="189.59" r="8.28"/>
      </g>
      <g class="cls-9">
        <path class="cls-10" d="M132.91,306.9c-.56-6.46-3.06-12.06-7.4-16.69-5.86-6.24-12.98-9.4-21.2-9.4-1.21,0-2.48.07-3.74.2-6.06.67-11.51,3.2-16.2,7.53-4.31,4-7.26,9-8.56,14.5-1.27,5.4-.91,11.14,1.04,16.61,1.97,5.5,5.71,10.15,11.12,13.82,5.74,3.88,12.28,5.45,19.44,4.67,6.15-.67,11.6-3.14,16.2-7.33,6.12-5.59,9.29-12.78,9.45-21.37,0-.22-.02-.46-.04-.72-.04-.56-.07-1.2-.12-1.83h0ZM103.93,333h-.14c-6.12,0-11.84-2.37-16.13-6.66-4.49-4.51-6.97-10.57-6.95-17.08-.02-6.1,2.41-11.87,6.85-16.28,4.43-4.41,10.27-6.83,16.42-6.85h.05c12.88,0,23.39,10.42,23.42,23.22.04,13.19-10.3,23.57-23.52,23.66h0Z"/>
        <circle class="cls-11" cx="104.08" cy="309.58" r="3.08"/>
      </g>
    </g>
  </g>
</svg>