<?xml version="1.0" encoding="UTF-8"?>
<svg id="Laag_2" data-name="Laag 2" xmlns="http://www.w3.org/2000/svg" viewBox="0 0 1016.3 470.78">
  <defs>
    <style>
      .cls-1 {
        fill: #72bede;
      }

      .cls-2 {
        fill: #13261f;
      }

      .cls-3 {
        fill: #7bc5a4;
      }
    </style>
  </defs>
  <g id="Laag_1-2" data-name="Laag 1">
    <g>
      <g>
        <polygon class="cls-3" points="851 4.26 851 165.31 824.38 165.31 824.38 191.93 663.33 191.93 663.33 165.31 805.61 165.31 659.13 18.83 677.9 0 824.38 146.47 824.38 4.26 851 4.26"/>
        <polygon class="cls-1" points="1016.3 338.4 997.47 357.24 851 210.76 851 352.98 824.38 352.98 824.38 191.93 851 191.93 851 165.31 1012.04 165.31 1012.04 191.93 869.83 191.93 1016.3 338.4"/>
      </g>
      <g>
        <path class="cls-2" d="M108.03,365.63c5.57-3.66,10.22-7.83,13.72-12.64,5.55-7.63,8.32-16.47,8.32-26.45,0-8.54-2.09-16.56-6.28-24.01-4.17-7.43-10.54-13.54-19.08-18.26-8.55-4.73-19.26-7.08-32.18-7.08H0v190.88h74.99c13.63,0,25.12-2.49,34.49-7.5,9.36-4.99,16.47-11.58,21.28-19.77,4.82-8.17,7.21-17.18,7.21-26.99,0-12.01-3.35-22.46-10.08-31.36-5.1-6.75-11.73-12.35-19.87-16.8v-.02ZM71.7,304.43c8.19,0,14.74,2.11,19.64,6.28,4.9,4.19,7.37,10.36,7.37,18.55s-2.46,14.36-7.37,18.53c-4.91,4.19-11.45,6.28-19.64,6.28H31.36v-49.64h40.34ZM98.71,431.79c-5.28,5.99-12.74,8.99-22.37,8.99H31.36v-59.43h44.98c6.37,0,11.83,1.35,16.38,4.08,4.53,2.73,7.99,6.37,10.36,10.92,2.35,4.53,3.53,9.45,3.53,14.71,0,7.81-2.64,14.74-7.9,20.73Z"/>
        <path class="cls-2" d="M290.6,284.52c-9.54-4.9-20.33-7.35-32.31-7.35h-70.9v190.88h31.36v-71.99h39.55c11.98,0,22.77-2.44,32.31-7.37,9.54-4.9,17.09-11.81,22.64-20.71,5.53-8.92,8.3-19.37,8.3-31.38s-2.77-22.44-8.3-31.36c-5.55-8.9-13.09-15.8-22.64-20.73h-.01ZM285.83,353.65c-2.93,4.84-6.88,8.57-11.87,11.18-4.99,2.64-10.76,3.95-17.31,3.95h-37.91v-64.36h37.91c6.55,0,12.32,1.33,17.31,3.97,4.99,2.62,8.94,6.35,11.87,11.16,2.91,4.84,4.35,10.52,4.35,17.04s-1.44,12.23-4.35,17.04v.02Z"/>
        <path class="cls-2" d="M527.43,302.94c-8.92-9.01-19.24-16-30.96-20.99-11.72-5.02-24.41-7.5-38.04-7.5s-26.32,2.49-38.04,7.5c-11.74,4.99-22.01,11.98-30.82,20.99-8.81,8.99-15.73,19.4-20.73,31.22-4.99,11.81-7.5,24.54-7.5,38.17s2.51,26.41,7.5,38.33c4.99,11.9,11.96,22.35,20.86,31.36,8.92,8.99,19.26,16.05,31.09,21.13,11.81,5.08,24.54,7.63,38.17,7.63s26.05-2.55,37.77-7.63c11.74-5.08,21.99-12.1,30.83-20.99,8.81-8.9,15.71-19.31,20.73-31.22,4.99-11.92,7.5-24.68,7.5-38.33s-2.51-26.39-7.5-38.3c-5.02-11.9-11.96-22.37-20.86-31.36h0ZM515.29,407.94c-5.55,10.28-13.18,18.31-22.9,24.12-9.74,5.84-21.06,8.72-33.95,8.72-9.45,0-18.18-1.66-26.19-5.04-7.99-3.35-14.87-8.03-20.59-14.05-5.73-5.99-10.16-13.23-13.36-21.68-3.17-8.46-4.77-17.67-4.77-27.67,0-13.45,2.77-25.26,8.32-35.44,5.55-10.19,13.18-18.13,22.9-23.86,9.72-5.75,20.95-8.61,33.69-8.61,9.63,0,18.4,1.64,26.32,4.93,7.9,3.26,14.76,7.95,20.57,14.03,5.81,6.1,10.32,13.29,13.51,21.55,3.17,8.28,4.77,17.42,4.77,27.41,0,13.45-2.77,25.32-8.32,35.6h0Z"/>
        <path class="cls-2" d="M731.76,382.44c-5.1-6.75-11.73-12.35-19.85-16.8,5.57-3.66,10.23-7.83,13.73-12.65,5.55-7.63,8.32-16.47,8.32-26.45,0-8.54-2.11-16.56-6.28-24.01-4.19-7.43-10.54-13.54-19.09-18.26-8.54-4.73-19.28-7.08-32.18-7.08h-72.55v190.88h74.99c13.65,0,25.14-2.49,34.51-7.5,9.37-4.99,16.45-11.58,21.26-19.77,4.82-8.17,7.23-17.18,7.23-26.99,0-12.01-3.37-22.46-10.1-31.36h.01ZM675.59,304.43c8.19,0,14.71,2.11,19.64,6.28,4.91,4.19,7.35,10.36,7.35,18.55s-2.44,14.36-7.35,18.53c-4.93,4.19-11.45,6.28-19.64,6.28h-40.37v-49.64h40.37ZM702.57,431.79c-5.26,5.99-12.72,8.99-22.35,8.99h-45.01v-59.43h45.01c6.35,0,11.81,1.35,16.35,4.08,4.55,2.73,7.99,6.37,10.36,10.92,2.35,4.53,3.55,9.45,3.55,14.71,0,7.81-2.64,14.74-7.92,20.73h.01Z"/>
      </g>
    </g>
  </g>
</svg>