<?xml version="1.0" encoding="UTF-8"?>
<svg id="Laag_1" xmlns="http://www.w3.org/2000/svg" version="1.1" viewBox="0 0 73.33 117.16">
  <!-- Generator: Adobe Illustrator 29.3.1, SVG Export Plug-In . SVG Version: 2.1.0 Build 151)  -->
  <defs>
    <style>
      .st0 {
        fill: #58b995;
      }

      .st1 {
        fill: #1e1e1c;
      }
    </style>
  </defs>
  <path class="st1" d="M16.52,117.16c-1.43,0-2.58-1.16-2.58-2.58s1.16-2.58,2.58-2.58c28,0,51.65-24.53,51.65-53.56S45.96,6.67,19.1,5.23v51.16c0,1.43-1.16,2.58-2.58,2.58s-2.58-1.16-2.58-2.58V2.58c0-1.43,1.16-2.58,2.58-2.58,15.1,0,29.38,6.21,40.21,17.49,5.19,5.41,9.28,11.67,12.15,18.6,2.96,7.16,4.46,14.68,4.46,22.35s-1.5,15.21-4.46,22.39c-2.86,6.96-6.95,13.25-12.14,18.69-10.85,11.37-25.13,17.64-40.22,17.64Z"/>
  <g>
    <path class="st0" d="M33.85,82.77c-.33-3.78-1.79-7.06-4.33-9.77-3.43-3.65-7.6-5.5-12.41-5.5-.71,0-1.45.04-2.19.12-3.55.39-6.74,1.87-9.48,4.41-2.52,2.34-4.25,5.27-5.01,8.49-.74,3.16-.53,6.52.61,9.72,1.15,3.22,3.34,5.94,6.51,8.09,3.36,2.27,7.19,3.19,11.38,2.73,3.6-.39,6.79-1.84,9.48-4.29,3.58-3.27,5.44-7.48,5.53-12.51,0-.13-.01-.27-.02-.42-.02-.33-.04-.7-.07-1.07ZM16.88,98.05h-.08c-3.58,0-6.93-1.39-9.44-3.9-2.63-2.64-4.08-6.19-4.07-10-.01-3.57,1.41-6.95,4.01-9.53,2.59-2.58,6.01-4,9.61-4.01h.03c7.54,0,13.69,6.1,13.71,13.59.02,7.72-6.03,13.8-13.77,13.85Z"/>
    <circle class="st1" cx="16.97" cy="84.34" r="1.8"/>
  </g>
</svg>