<?xml version="1.0" encoding="UTF-8"?>
<svg xmlns="http://www.w3.org/2000/svg" viewBox="0 0 2596.41 2432.61">
  <defs>
    <style>
      .cls-1 {
        fill: #3c3c3b;
      }

      .cls-2 {
        fill: #e4ecf9;
      }

      .cls-3 {
        opacity: .78;
      }

      .cls-3, .cls-4, .cls-5, .cls-6 {
        fill: #58b895;
      }

      .cls-4 {
        opacity: .71;
      }

      .cls-7 {
        fill: #7f665e;
      }

      .cls-8 {
        fill: #474747;
      }

      .cls-9 {
        fill: #52d1bd;
      }

      .cls-10 {
        fill: #3a7ec1;
      }

      .cls-10, .cls-6 {
        mix-blend-mode: multiply;
        opacity: .2;
      }

      .cls-11 {
        opacity: .6;
      }

      .cls-11, .cls-12 {
        fill: #fff;
      }

      .cls-13 {
        isolation: isolate;
      }

      .cls-14 {
        fill: #f9f1ea;
      }

      .cls-15 {
        opacity: .45;
      }

      .cls-16 {
        fill: #58b995;
      }

      .cls-17 {
        fill: #1f1f1d;
      }

      .cls-18 {
        fill: #333;
      }

      .cls-19 {
        fill: #dadada;
      }

      .cls-20 {
        fill: #4c4c4c;
      }
    </style>
  </defs>
  <g class="cls-13">
    <g id="Laag_2" data-name="Laag 2">
      <g id="Layer_1" data-name="Layer 1">
        <g class="cls-15">
          <path class="cls-14" d="M2002,2347.82c511.37-259.56,709.88-1020.58,528.54-1559.49C2329.43,190.64,1723.48,51.5,1619.25,29.99,1256.64-44.84,616.87-6.14,346.16,456.67c-300.87,514.37,76.07,1173.19,342.27,1466.49,69.78,76.89,690.86,740.74,1313.58,424.66Z"/>
          <g>
            <path class="cls-6" d="M1174.11,1861.94l-974.65,121.78c-23.78,2.97-45.67-14.06-48.64-37.84L.34,741.51c-2.97-23.78,14.06-45.67,37.84-48.64l974.65-121.78c23.78-2.97,45.67,14.06,48.64,37.84l150.48,1204.37c2.97,23.78-14.06,45.67-37.84,48.64Z"/>
            <path class="cls-5" d="M1227.3,1800.84l-974.65,121.78c-23.78,2.97-45.67-14.06-48.64-37.84L53.53,680.41c-2.97-23.78,14.06-45.67,37.84-48.64l974.65-121.78c23.78-2.97,45.67,14.06,48.64,37.84l150.48,1204.37c2.97,23.78-14.06,45.67-37.84,48.64Z"/>
            <path class="cls-12" d="M1214.48,1749.27l-962.09,120.21c-4.73.59-9.08-2.8-9.67-7.52L91.02,647.81c-.59-4.73,2.79-9.08,7.52-9.67l962.09-120.21c4.73-.59,9.08,2.79,9.67,7.52l151.7,1214.15c.59,4.73-2.8,9.08-7.52,9.67Z"/>
            <path class="cls-2" d="M258.59,869.39l-63.81,7.97c-7.81.98-14.96-4.58-15.94-12.39l-7.97-63.81c-.98-7.81,4.59-14.96,12.4-15.94l63.81-7.97c7.81-.98,14.96,4.59,15.93,12.4l7.97,63.81c.98,7.81-4.58,14.96-12.39,15.93ZM184.76,797.12c-1.25.16-2.14,1.3-1.98,2.55l7.97,63.81c.16,1.25,1.3,2.14,2.55,1.98l63.81-7.97c1.25-.16,2.14-1.3,1.98-2.55l-7.97-63.81c-.16-1.25-1.3-2.14-2.55-1.98l-63.81,7.97Z"/>
            <path class="cls-2" d="M278.91,1031.95l-63.81,7.97c-7.81.98-14.96-4.58-15.94-12.39l-7.97-63.81c-.98-7.81,4.59-14.96,12.4-15.94l63.81-7.97c7.81-.98,14.96,4.59,15.93,12.4l7.97,63.81c.98,7.81-4.58,14.96-12.39,15.93ZM205.07,959.69c-1.25.16-2.14,1.3-1.98,2.55l7.97,63.81c.16,1.25,1.3,2.14,2.55,1.98l63.81-7.97c1.25-.16,2.14-1.3,1.98-2.55l-7.97-63.81c-.16-1.25-1.3-2.14-2.55-1.98l-63.81,7.97Z"/>
            <path class="cls-2" d="M299.22,1194.52l-63.81,7.97c-7.81.98-14.96-4.58-15.94-12.39l-7.97-63.81c-.98-7.81,4.59-14.96,12.4-15.94l63.81-7.97c7.81-.98,14.96,4.59,15.93,12.4l7.97,63.81c.98,7.81-4.58,14.96-12.39,15.93ZM225.38,1122.25c-1.25.16-2.14,1.3-1.98,2.55l7.97,63.81c.16,1.25,1.3,2.14,2.55,1.98l63.81-7.97c1.25-.16,2.14-1.3,1.98-2.55l-7.97-63.81c-.16-1.25-1.3-2.14-2.55-1.98l-63.81,7.97Z"/>
            <path class="cls-2" d="M319.53,1357.09l-63.81,7.97c-7.81.98-14.96-4.58-15.94-12.39l-7.97-63.81c-.98-7.81,4.59-14.96,12.4-15.94l63.81-7.97c7.81-.98,14.96,4.59,15.93,12.4l7.97,63.81c.98,7.81-4.58,14.96-12.39,15.93ZM245.69,1284.82c-1.25.16-2.14,1.3-1.98,2.55l7.97,63.81c.16,1.25,1.3,2.14,2.55,1.98l63.81-7.97c1.25-.16,2.14-1.3,1.98-2.55l-7.97-63.81c-.16-1.25-1.3-2.14-2.55-1.98l-63.81,7.97Z"/>
            <path class="cls-9" d="M277.38,779.54l-.3.14c-3.65,1.72-6.99,3.69-10.16,5.78l-4.7,3.19-4.4,3.42c-5.82,4.6-11.22,9.52-16.18,14.79-5.21,5.07-9.68,10.72-14.13,16.39-2.47,3.19-4.79,6.51-7.03,9.88-2.13-1.06-4.31-2.07-6.55-3-3.03-1.42-6.32-2.51-9.54-3.68-3.31-1.06-6.67-2.06-10.28-2.73l-.33-.06c-.24-.04-.49.04-.66.24-.24.29-.2.73.09.97,10.08,8.31,20.33,16.4,30.59,24.48.56.43,1.37.33,1.79-.22,8.97-11.27,17.86-22.6,26.56-34.09l13.13-17.16c4.42-5.69,8.62-11.54,12.94-17.3.15-.2.18-.47.07-.71-.16-.35-.57-.49-.92-.33Z"/>
            <path class="cls-9" d="M317.72,1102.4l-.3.14c-3.65,1.72-6.99,3.69-10.16,5.78l-4.7,3.19-4.4,3.42c-5.82,4.6-11.22,9.52-16.18,14.79-5.21,5.07-9.68,10.72-14.13,16.39-2.47,3.19-4.79,6.51-7.03,9.88-2.13-1.06-4.31-2.07-6.55-3-3.03-1.42-6.32-2.51-9.54-3.68-3.31-1.06-6.67-2.06-10.28-2.73l-.33-.06c-.24-.04-.49.04-.66.24-.24.29-.2.73.09.97,10.08,8.31,20.33,16.4,30.59,24.48.56.43,1.37.33,1.79-.22,8.97-11.27,17.86-22.6,26.56-34.09l13.13-17.16c4.42-5.69,8.62-11.54,12.94-17.3.15-.2.18-.47.07-.71-.16-.35-.57-.49-.92-.33Z"/>
            <path class="cls-9" d="M338.03,1264.97l-.3.14c-3.65,1.72-6.99,3.69-10.16,5.78l-4.7,3.19-4.4,3.42c-5.82,4.6-11.22,9.52-16.18,14.79-5.21,5.07-9.68,10.72-14.13,16.39-2.47,3.19-4.79,6.51-7.03,9.88-2.13-1.06-4.31-2.07-6.55-3-3.03-1.42-6.32-2.51-9.54-3.68-3.31-1.06-6.67-2.06-10.28-2.73l-.33-.06c-.24-.04-.49.04-.66.24-.24.29-.2.73.09.97,10.08,8.31,20.33,16.4,30.59,24.48.56.43,1.37.33,1.79-.22,8.97-11.27,17.86-22.6,26.56-34.09l13.13-17.16c4.42-5.69,8.62-11.54,12.94-17.3.15-.2.18-.47.07-.71-.16-.35-.57-.49-.92-.33Z"/>
            <path class="cls-2" d="M1013.37,717.01l-658.1,82.22c-10.97,1.37-20.97-6.41-22.34-17.38h0c-1.37-10.97,6.41-20.97,17.38-22.34l658.1-82.22c10.97-1.37,20.97,6.41,22.34,17.38h0c1.37,10.97-6.41,20.97-17.38,22.34Z"/>
            <path class="cls-2" d="M1021.11,778.95l-658.1,82.22c-10.97,1.37-20.97-6.41-22.34-17.38h0c-1.37-10.97,6.41-20.97,17.38-22.34l658.1-82.22c10.97-1.37,20.97,6.41,22.34,17.38h0c1.37,10.97-6.41,20.97-17.38,22.34Z"/>
            <path class="cls-2" d="M1033.68,879.57l-658.1,82.22c-10.97,1.37-20.97-6.41-22.34-17.38h0c-1.37-10.97,6.41-20.97,17.38-22.34l658.1-82.22c10.97-1.37,20.97,6.41,22.34,17.38h0c1.37,10.97-6.41,20.97-17.38,22.34Z"/>
            <path class="cls-2" d="M1041.42,941.52l-658.1,82.22c-10.97,1.37-20.97-6.41-22.34-17.38h0c-1.37-10.97,6.41-20.97,17.38-22.34l658.1-82.22c10.97-1.37,20.97,6.41,22.34,17.38h0c1.37,10.97-6.41,20.97-17.38,22.34Z"/>
            <path class="cls-2" d="M1053.99,1042.14l-658.1,82.22c-10.97,1.37-20.97-6.41-22.34-17.38h0c-1.37-10.97,6.41-20.97,17.38-22.34l658.1-82.22c10.97-1.37,20.97,6.41,22.34,17.38h0c1.37,10.97-6.41,20.97-17.38,22.34Z"/>
            <path class="cls-2" d="M1061.73,1104.09l-658.1,82.22c-10.97,1.37-20.97-6.41-22.34-17.38h0c-1.37-10.97,6.41-20.97,17.38-22.34l658.1-82.22c10.97-1.37,20.97,6.41,22.34,17.38h0c1.37,10.97-6.41,20.97-17.38,22.34Z"/>
            <path class="cls-2" d="M1074.3,1204.71l-658.1,82.22c-10.97,1.37-20.97-6.41-22.34-17.38h0c-1.37-10.97,6.41-20.97,17.38-22.34l658.1-82.22c10.97-1.37,20.97,6.41,22.34,17.38h0c1.37,10.97-6.41,20.97-17.38,22.34Z"/>
            <path class="cls-2" d="M1082.04,1266.65l-658.1,82.22c-10.97,1.37-20.97-6.41-22.34-17.38h0c-1.37-10.97,6.41-20.97,17.38-22.34l658.1-82.22c10.97-1.37,20.97,6.41,22.34,17.38h0c1.37,10.97-6.41,20.97-17.38,22.34Z"/>
            <path class="cls-2" d="M360.8,1687.45l-63.81,7.97c-7.81.98-14.96-4.58-15.94-12.39l-7.97-63.81c-.98-7.81,4.59-14.96,12.4-15.94l63.81-7.97c7.81-.98,14.96,4.59,15.93,12.4l7.97,63.81c.98,7.81-4.58,14.96-12.39,15.93ZM286.97,1615.18c-1.25.16-2.14,1.3-1.98,2.55l7.97,63.81c.16,1.25,1.3,2.14,2.55,1.98l63.81-7.97c1.25-.16,2.14-1.3,1.98-2.55l-7.97-63.81c-.16-1.25-1.3-2.14-2.55-1.98l-63.81,7.97Z"/>
            <path class="cls-9" d="M379.31,1595.33l-.3.14c-3.65,1.72-6.99,3.69-10.16,5.78l-4.7,3.19-4.4,3.42c-5.82,4.6-11.22,9.52-16.18,14.79-5.21,5.07-9.68,10.72-14.13,16.39-2.47,3.19-4.79,6.51-7.03,9.88-2.13-1.06-4.31-2.07-6.55-3-3.03-1.42-6.32-2.51-9.54-3.68-3.31-1.06-6.67-2.06-10.28-2.73l-.33-.06c-.24-.04-.49.04-.66.24-.24.29-.2.73.09.97,10.08,8.31,20.33,16.4,30.59,24.48.56.43,1.37.33,1.79-.22,8.97-11.27,17.86-22.6,26.56-34.09l13.13-17.16c4.42-5.69,8.62-11.54,12.94-17.3.15-.2.18-.47.07-.71-.16-.35-.57-.49-.92-.33Z"/>
            <path class="cls-2" d="M1115.58,1535.07l-658.1,82.22c-10.97,1.37-20.97-6.41-22.34-17.38h0c-1.37-10.97,6.41-20.97,17.38-22.34l658.1-82.22c10.97-1.37,20.97,6.41,22.34,17.38h0c1.37,10.97-6.41,20.97-17.38,22.34Z"/>
            <path class="cls-2" d="M1123.32,1597.01l-658.1,82.22c-10.97,1.37-20.97-6.41-22.34-17.38h0c-1.37-10.97,6.41-20.97,17.38-22.34l658.1-82.22c10.97-1.37,20.97,6.41,22.34,17.38h0c1.37,10.97-6.41,20.97-17.38,22.34Z"/>
            <path class="cls-2" d="M340.44,1524.45l-63.81,7.97c-7.81.98-14.96-4.58-15.94-12.39l-7.97-63.81c-.98-7.81,4.59-14.96,12.4-15.94l63.81-7.97c7.81-.98,14.96,4.59,15.93,12.4l7.97,63.81c.98,7.81-4.58,14.96-12.39,15.93ZM266.6,1452.18c-1.25.16-2.14,1.3-1.98,2.55l7.97,63.81c.16,1.25,1.3,2.14,2.55,1.98l63.81-7.97c1.25-.16,2.14-1.3,1.98-2.55l-7.97-63.81c-.16-1.25-1.3-2.14-2.55-1.98l-63.81,7.97Z"/>
            <path class="cls-2" d="M1095.21,1372.07l-658.1,82.22c-10.97,1.37-20.97-6.41-22.34-17.38h0c-1.37-10.97,6.41-20.97,17.38-22.34l658.1-82.22c10.97-1.37,20.97,6.41,22.34,17.38h0c1.37,10.97-6.41,20.97-17.38,22.34Z"/>
            <path class="cls-2" d="M1102.95,1434.01l-658.1,82.22c-10.97,1.37-20.97-6.41-22.34-17.38h0c-1.37-10.97,6.41-20.97,17.38-22.34l658.1-82.22c10.97-1.37,20.97,6.41,22.34,17.38h0c1.37,10.97-6.41,20.97-17.38,22.34Z"/>
            <path class="cls-9" d="M1159.52,1679.36l-871.07,108.83c-3.24.41-6.23-1.92-6.64-5.16h0c-.41-3.24,1.92-6.23,5.16-6.64l871.07-108.83c3.24-.41,6.23,1.92,6.64,5.16h0c.41,3.24-1.92,6.23-5.16,6.64Z"/>
            <g>
              <circle class="cls-18" cx="159.44" cy="667.94" r="15.74" transform="translate(-503.15 487.56) rotate(-61.35)"/>
              <path class="cls-8" d="M160.18,673.84h0c-5.75.72-11.04-3.4-11.76-9.15l-9.28-74.29c-.72-5.75,3.4-11.04,9.15-11.76h0c5.75-.72,11.04,3.4,11.76,9.15l9.28,74.29c.72,5.75-3.4,11.04-9.15,11.76Z"/>
            </g>
            <g>
              <circle class="cls-18" cx="230.23" cy="659.1" r="15.74" transform="translate(-425.94 420.66) rotate(-50.77)"/>
              <path class="cls-8" d="M230.97,664.99h0c-5.75.72-11.04-3.4-11.76-9.15l-9.28-74.29c-.72-5.75,3.4-11.04,9.15-11.76h0c5.75-.72,11.04,3.4,11.76,9.15l9.28,74.29c.72,5.75-3.4,11.04-9.15,11.76Z"/>
            </g>
            <g>
              <circle class="cls-18" cx="301.02" cy="650.25" r="15.74" transform="translate(-250.68 193.02) rotate(-25.51)"/>
              <path class="cls-8" d="M301.76,656.15h0c-5.75.72-11.04-3.4-11.76-9.15l-9.28-74.29c-.72-5.75,3.4-11.04,9.15-11.76h0c5.75-.72,11.04,3.4,11.76,9.15l9.28,74.29c.72,5.75-3.4,11.04-9.15,11.76Z"/>
            </g>
            <g>
              <circle class="cls-18" cx="371.81" cy="641.41" r="15.74" transform="translate(-306.27 941.16) rotate(-83.75)"/>
              <path class="cls-8" d="M372.55,647.31h0c-5.75.72-11.04-3.4-11.76-9.15l-9.28-74.29c-.72-5.75,3.4-11.04,9.15-11.76h0c5.75-.72,11.04,3.4,11.76,9.15l9.28,74.29c.72,5.75-3.4,11.04-9.15,11.76Z"/>
            </g>
            <g>
              <circle class="cls-18" cx="442.61" cy="632.56" r="15.74" transform="translate(-317.65 498.24) rotate(-45)"/>
              <path class="cls-8" d="M443.34,638.46h0c-5.75.72-11.04-3.4-11.76-9.15l-9.28-74.29c-.72-5.75,3.4-11.04,9.15-11.76h0c5.75-.72,11.04,3.4,11.76,9.15l9.28,74.29c.72,5.75-3.4,11.04-9.15,11.76Z"/>
            </g>
            <g>
              <circle class="cls-18" cx="513.4" cy="623.72" r="15.74" transform="translate(-289.83 537.5) rotate(-44.42)"/>
              <path class="cls-8" d="M514.13,629.62h0c-5.75.72-11.04-3.4-11.76-9.15l-9.28-74.29c-.72-5.75,3.4-11.04,9.15-11.76h0c5.75-.72,11.04,3.4,11.76,9.15l9.28,74.29c.72,5.75-3.4,11.04-9.15,11.76Z"/>
            </g>
            <g>
              <circle class="cls-18" cx="584.19" cy="614.87" r="15.74" transform="translate(-159.68 207.43) rotate(-17.75)"/>
              <path class="cls-8" d="M584.93,620.77h0c-5.75.72-11.04-3.4-11.76-9.15l-9.28-74.29c-.72-5.75,3.4-11.04,9.15-11.76h0c5.75-.72,11.04,3.4,11.76,9.15l9.28,74.29c.72,5.75-3.4,11.04-9.15,11.76Z"/>
            </g>
            <g>
              <circle class="cls-18" cx="654.98" cy="606.03" r="15.74" transform="translate(-191.59 888.15) rotate(-61.21)"/>
              <path class="cls-8" d="M655.72,611.93h0c-5.75.72-11.04-3.4-11.76-9.15l-9.28-74.29c-.72-5.75,3.4-11.04,9.15-11.76h0c5.75-.72,11.04,3.4,11.76,9.15l9.28,74.29c.72,5.75-3.4,11.04-9.15,11.76Z"/>
            </g>
            <g>
              <circle class="cls-18" cx="725.77" cy="597.18" r="15.74" transform="translate(-191.21 803.38) rotate(-52.12)"/>
              <path class="cls-8" d="M726.51,603.08h0c-5.75.72-11.04-3.4-11.76-9.15l-9.28-74.29c-.72-5.75,3.4-11.04,9.15-11.76h0c5.75-.72,11.04,3.4,11.76,9.15l9.28,74.29c.72,5.75-3.4,11.04-9.15,11.76Z"/>
            </g>
            <g>
              <circle class="cls-18" cx="796.56" cy="588.34" r="15.74" transform="translate(-153.4 308.65) rotate(-20.04)"/>
              <path class="cls-8" d="M797.3,594.24h0c-5.75.72-11.04-3.4-11.76-9.15l-9.28-74.29c-.72-5.75,3.4-11.04,9.15-11.76h0c5.75-.72,11.04,3.4,11.76,9.15l9.28,74.29c.72,5.75-3.4,11.04-9.15,11.76Z"/>
            </g>
            <g>
              <circle class="cls-18" cx="867.35" cy="579.49" r="15.74" transform="translate(-122.59 908.31) rotate(-52.12)"/>
              <path class="cls-8" d="M868.09,585.39h0c-5.75.72-11.04-3.4-11.76-9.15l-9.28-74.29c-.72-5.75,3.4-11.04,9.15-11.76h0c5.75-.72,11.04,3.4,11.76,9.15l9.28,74.29c.72,5.75-3.4,11.04-9.15,11.76Z"/>
            </g>
            <g>
              <circle class="cls-18" cx="938.15" cy="570.65" r="15.74" transform="translate(-64.82 123.63) rotate(-7.29)"/>
              <path class="cls-8" d="M938.88,576.55h0c-5.75.72-11.04-3.4-11.76-9.15l-9.28-74.29c-.72-5.75,3.4-11.04,9.15-11.76h0c5.75-.72,11.04,3.4,11.76,9.15l9.28,74.29c.72,5.75-3.4,11.04-9.15,11.76Z"/>
            </g>
            <g>
              <circle class="cls-18" cx="1008.94" cy="561.8" r="15.74" transform="translate(-135.18 405.08) rotate(-21.31)"/>
              <path class="cls-8" d="M1009.68,567.7h0c-5.75.72-11.04-3.4-11.76-9.15l-9.28-74.29c-.72-5.75,3.4-11.04,9.15-11.76h0c5.75-.72,11.04,3.4,11.76,9.15l9.28,74.29c.72,5.75-3.4,11.04-9.15,11.76Z"/>
            </g>
          </g>
          <path class="cls-10" d="M2089.9,465.94l-1344.89-141.87c-18.53-1.96-35.13,11.48-37.08,30.01l-182.65,1731.5c-1.95,18.52,11.48,35.13,30.01,37.08l1344.89,141.87c18.53,1.95,35.13-11.48,37.08-30.01l182.65-1731.5c1.95-18.52-11.48-35.13-30.01-37.08Z"/>
          <g>
            <path class="cls-12" d="M1981.86,2197.15l-1344.89-141.87c-18.53-1.95-31.96-18.56-30.01-37.08l182.65-1731.5c1.95-18.53,18.56-31.96,37.08-30.01l1344.89,141.87c18.53,1.95,31.96,18.56,30.01,37.08l-182.65,1731.5c-1.95,18.53-18.56,31.96-37.08,30.01Z"/>
            <rect class="cls-5" x="873.78" y="658.99" width="203.39" height="449.21" transform="translate(98.08 -97.46) rotate(6.02)"/>
            <rect class="cls-4" x="1114.14" y="909.58" width="203.39" height="224.61" transform="translate(113.91 -121.91) rotate(6.02)"/>
            <rect class="cls-1" x="1370.79" y="850.29" width="203.39" height="310.73" transform="translate(113.62 -148.92) rotate(6.02)"/>
            <g>
              <circle class="cls-5" cx="1701.37" cy="797.18" r="17.96" transform="translate(-177.48 805.1) rotate(-25.35)"/>
              <path class="cls-2" d="M2014.14,848.23l-252.14-26.6c-9.82-1.04-17.01-9.92-15.98-19.74h0c1.04-9.82,9.92-17.01,19.74-15.98l252.14,26.6c9.82,1.04,17.01,9.92,15.98,19.74h0c-1.04,9.82-9.92,17.01-19.74,15.98Z"/>
              <path class="cls-2" d="M2007.32,912.84l-314.65-33.19c-9.82-1.04-17.01-9.92-15.98-19.74h0c1.04-9.82,9.92-17.01,19.74-15.98l314.65,33.19c9.82,1.04,17.01,9.92,15.98,19.74h0c-1.04,9.82-9.92,17.01-19.74,15.98Z"/>
            </g>
            <g>
              <circle class="cls-3" cx="1685.44" cy="948.23" r="17.96" transform="translate(-221.26 1271.27) rotate(-38.98)"/>
              <path class="cls-2" d="M1998.2,999.28l-252.14-26.6c-9.82-1.04-17.01-9.92-15.98-19.74h0c1.04-9.82,9.92-17.01,19.74-15.98l252.14,26.6c9.82,1.04,17.01,9.92,15.98,19.74h0c-1.04,9.82-9.92,17.01-19.74,15.98Z"/>
              <path class="cls-2" d="M1991.39,1063.89l-314.65-33.19c-9.82-1.04-17.01-9.92-15.98-19.74h0c1.04-9.82,9.92-17.01,19.74-15.98l314.65,33.19c9.82,1.04,17.01,9.92,15.98,19.74h0c-1.04,9.82-9.92,17.01-19.74,15.98Z"/>
            </g>
            <g>
              <circle class="cls-1" cx="1669.5" cy="1099.28" r="17.96" transform="translate(337.85 2590.04) rotate(-81.59)"/>
              <path class="cls-2" d="M1982.27,1150.33l-252.14-26.6c-9.82-1.04-17.01-9.92-15.98-19.74h0c1.04-9.82,9.92-17.01,19.74-15.98l252.14,26.6c9.82,1.04,17.01,9.92,15.98,19.74h0c-1.04,9.82-9.92,17.01-19.74,15.98Z"/>
              <path class="cls-2" d="M1975.45,1214.94l-314.65-33.19c-9.82-1.04-17.01-9.92-15.98-19.74h0c1.04-9.82,9.92-17.01,19.74-15.98l314.65,33.19c9.82,1.04,17.01,9.92,15.98,19.74h0c-1.04,9.82-9.92,17.01-19.74,15.98Z"/>
            </g>
            <path class="cls-9" d="M1121.94,1305.34l-264.78-27.93c-13.87-1.46-24.02-14.01-22.55-27.87h0c1.46-13.87,14.01-24.02,27.87-22.55l264.78,27.93c13.87,1.46,24.02,14.01,22.55,27.87h0c-1.46,13.87-14.01,24.02-27.87,22.55Z"/>
            <path class="cls-2" d="M1935.97,1518.68l-1092.11-115.2c-13.87-1.46-24.02-14.01-22.55-27.87h0c1.46-13.87,14.01-24.02,27.87-22.55l1092.11,115.2c13.87,1.46,24.02,14.01,22.55,27.87h0c-1.46,13.87-14.01,24.02-27.87,22.55Z"/>
            <path class="cls-2" d="M1922.68,1644.75l-1092.11-115.2c-13.87-1.46-24.02-14.01-22.55-27.87h0c1.46-13.87,14.01-24.02,27.87-22.55l1092.11,115.2c13.87,1.46,24.02,14.01,22.55,27.87h0c-1.46,13.87-14.01,24.02-27.87,22.55Z"/>
            <path class="cls-2" d="M1909.38,1770.82l-1092.11-115.2c-13.87-1.46-24.02-14.01-22.55-27.87h0c1.46-13.87,14.01-24.02,27.87-22.55l1092.11,115.2c13.87,1.46,24.02,14.01,22.55,27.87h0c-1.46,13.87-14.01,24.02-27.87,22.55Z"/>
            <path class="cls-2" d="M1767.38,1883.31l-963.41-101.63c-13.87-1.46-24.02-14.01-22.55-27.87h0c1.46-13.87,14.01-24.02,27.87-22.55l963.41,101.63c13.87,1.46,24.02,14.01,22.55,27.87h0c-1.46,13.87-14.01,24.02-27.87,22.55Z"/>
            <path class="cls-9" d="M1227.93,486.89l-284.21-29.98c-13.87-1.46-24.02-14.01-22.55-27.87h0c1.46-13.87,14.01-24.02,27.87-22.55l284.21,29.98c13.87,1.46,24.02,14.01,22.55,27.87h0c-1.46,13.87-14.01,24.02-27.87,22.55Z"/>
            <path class="cls-2" d="M2024.19,682.42l-997.55-105.23c-13.87-1.46-24.02-14.01-22.55-27.87h0c1.46-13.87,14.01-24.02,27.87-22.55l997.55,105.23c13.87,1.46,24.02,14.01,22.55,27.87h0c-1.46,13.87-14.01,24.02-27.87,22.55Z"/>
          </g>
          <g>
            <circle class="cls-6" cx="1200.22" cy="1337.45" r="335.77"/>
            <path class="cls-11" d="M1448.3,1380.11c-.69.02-1.39,0-2.09-.09-8.24-.9-14.19-8.32-13.28-16.56.67-6.05,1.12-12.16,1.32-18.36,4.23-129.04-97.33-237.46-226.37-241.69-21.14-.72-42.24,1.43-62.62,6.35-8.06,1.9-16.18-3.03-18.11-11.09-1.95-8.06,3.01-16.16,11.07-18.11,23-5.52,46.75-7.98,70.65-7.16,145.59,4.77,260.17,127.11,255.39,272.69-.23,6.96-.72,13.84-1.47,20.65-.83,7.55-7.12,13.16-14.49,13.37Z"/>
            <rect class="cls-20" x="1421.2" y="1587.85" width="105.48" height="140.93" transform="translate(-723.67 1353.34) rotate(-40.47)"/>
            <path class="cls-19" d="M952.91,1047.61c-159.99,136.57-179.07,377.07-42.5,537.06,136.56,160.1,376.96,179.17,537.06,42.61,160.1-136.56,179.18-377.06,42.61-537.06-136.56-160.1-377.06-179.18-537.16-42.61ZM1437.64,1134.97c111.87,131.03,96.21,328-34.93,439.87-131.14,111.87-328,96.21-439.88-34.82-111.87-131.14-96.31-328.11,34.82-439.98,131.14-111.87,328.11-96.21,439.98,34.93Z"/>
            <path class="cls-7" d="M1897.62,2094.19l-59.98,51.17c-18.98,16.19-47.49,13.93-63.69-5.05l-331.91-389.06,128.72-109.81,331.91,389.06c16.19,18.98,13.93,47.49-5.05,63.69Z"/>
          </g>
          <path class="cls-16" d="M2201.6,435.65c-5.56-63.82-30.23-119.2-73.1-164.96-57.92-61.64-128.3-92.87-209.53-92.87-11.99,0-24.5.66-36.96,2.01-59.93,6.61-113.78,31.58-160.06,74.45-42.56,39.5-71.74,88.98-84.6,143.35-12.51,53.37-8.97,110.1,10.28,164.13,19.42,54.37,56.39,100.3,109.93,136.61,56.74,38.32,121.39,53.85,192.12,46.11,60.76-6.61,114.65-31.06,160.06-72.44,60.45-55.2,91.86-126.29,93.35-211.2,0-2.19-.17-4.55-.35-7.09-.35-5.56-.66-11.81-1.18-18.07l.04-.04ZM1915.12,693.65h-1.36c-60.45,0-117.02-23.45-159.4-65.83-44.4-44.58-68.9-104.5-68.72-168.85-.17-60.28,23.8-117.32,67.72-160.89,43.74-43.57,101.49-67.54,162.25-67.72h.52c127.29,0,231.14,102.97,231.49,229.44.35,130.36-101.79,232.98-232.5,233.86h0Z"/>
          <circle class="cls-17" cx="1916.64" cy="462.2" r="30.4"/>
        </g>
      </g>
    </g>
  </g>
</svg>