<?xml version="1.0" encoding="UTF-8"?>
<svg id="Laag_1" xmlns="http://www.w3.org/2000/svg" version="1.1" viewBox="0 0 496.55 768">
  <!-- Generator: Adobe Illustrator 29.8.4, SVG Export Plug-In . SVG Version: 2.1.1 Build 6)  -->
  <defs>
    <style>
      .st0 {
        fill: none;
      }

      .st1 {
        fill: #58b895;
        opacity: .55;
      }

      .st2 {
        fill: #664837;
      }

      .st3 {
        fill: #606060;
      }

      .st4 {
        fill: #e3bcac;
      }

      .st5 {
        fill: #f1f3e7;
      }
    </style>
  </defs>
  <path class="st0" d="M171.7,454.54c-4.52-17.16-16.66-51.02-17.65-57.75h0s-8.83,23.33-3.53,36.59c5.72,14.32,8.27,29.59,10.25,44.97,1.4,10.86-.52,21.84,2.15,32.55,5.63-14.11,12.02-27.95,15.67-42.79-4.8-3.25-5.58-8.62-6.89-13.58h0Z"/>
  <path class="st4" d="M321.71,365.17c-1.17,18.52-4.7,36.7-8.3,54.83-2.45,12.33-4.91,24.67-8,36.87-.69,2.73-1.37,5.49-3.43,7.06,3.75,2.33,5.42,6.23,6.28,11.44,3.65,22.02,11.13,43.17,15.51,65.06,2.31,11.5,2.43,23.19,4.36,34.68-.23-17.83,1.94-35.51,3.25-53.23,2.34-31.47,5.67-62.92-2.13-94.17-1.08-4.32-1.4-8.98-1.2-13.43,1.01-22.28,2.56-44.53,3.46-66.81.8-19.69.28-39.38-3.34-58.84-1.9-10.2-5.21-19.36-16.82-22.41-1.04-.27-4.63-.9-7-.43,4.9,12.73,5.05,24.2,8.85,36.92,6.09,20.38,9.84,41.04,8.49,62.45h.01Z"/>
  <path class="st2" d="M212.97,205.19c-2.82-8.08-1.54-14.85,5.66-20.18,4.1-3.03,6.59-7.42,8.63-12.02,2.8-6.3,6.1-12.32,9.93-18.06,13.85-20.76,31.97-16.81,44.62.98,2.16,3.04,3.45,6.75,4.86,10.26,2.81,7,3.78,14.57,7.62,21.33,2.45,4.31,2.03,9.93.4,14.64-3.59,10.28-7.23,20.6-13.26,29.84-2.74,4.2-5.42,8.2-10.36,10.28-4.44,1.87-6.52,6.03-8.21,10.31,13.06,0,25.97,1.29,38.64,4.57,5.63,1.45,8.84-.61,8.74-6.65-.12-7.66,1.4-15.07,3.2-22.45,9.73-40-.97-75.49-24.69-107.64-6.06-8.21-18.29-16.31-29.15-17.52-4.98-.56-24.55.05-26.33.47-10.94,2.59-20.24,7.91-27.27,16.86-11.71,14.89-20.13,31.58-26.02,49.46-3.11,9.43-4.85,19.39-4.17,29.43.62,9.2-.6,18.15-4.1,26.44-4.45,10.54-3.69,15.21,10.6,19.08,8.51,2.3,17.45,1.17,26.22,1.16.86-2.46,1.51-5.02,2.61-7.37,5.15-10.84,5.77-21.9,1.82-33.21h0Z"/>
  <path class="st1" d="M346.47,666.08c-.95-13.48-1.08-27.22-4.86-40.2-4.88-16.83-9.13-33.79-13.39-50.76-1.93-11.5-2.06-23.19-4.36-34.68-4.39-21.9-11.87-43.04-15.51-65.06-.87-5.22-2.53-9.12-6.28-11.44-.93.71-2.13,1.19-3.79,1.26-27.37-.75-54.63,3.63-82.05,1.54-7.75-.59-15.6-.09-23.34-1.22-5.08-.74-9.84-.26-14.21,2.61-3.65,14.84-10.04,28.67-15.67,42.79-3.29,12.58-9.37,24.22-12.17,37-1.16,5.27-.87,10.86-3.33,15.85-2.7,9.42-4.4,19-3.43,28.79,2.22,22.38,3.78,44.88,7.22,67.08"/>
  <path class="st5" d="M192.8,465.51c7.73,1.13,15.59.63,23.34,1.22,27.42,2.09,54.68-2.28,82.05-1.54,1.66-.07,2.86-.56,3.79-1.26,2.06-1.56,2.74-4.33,3.43-7.06,3.09-12.2,5.55-24.55,8-36.87,3.6-18.13,7.13-36.31,8.3-54.83,1.34-21.4-2.41-42.07-8.49-62.45-3.8-12.71-3.95-24.19-8.85-36.92-.11-.28-.19-.56-.3-.84-10.89-3.88-19.2-4.36-30.26-3.28,6.83.44,9.2,4.16,9.7,10.89.65,8.7,2.63,17.3,2.09,26.13-.39,6.29-2.53,10.2-9.62,11.66-21.15,4.36-42.03,6.63-62.85-1.56-6.67-2.62-11.11-7.07-13.51-13.63-3.57-9.78-6.9-19.66-10.48-29.45-1.4-3.8-.46-5.65,3.6-6.44.5-.1,1.01-.2,1.51-.29-2-.37-4.17-.74-5.89-1.1-8.12-1.67-15.32.57-22.59,3.42,3.33.82,3.04,3.83,3.73,6.23,4.31,14.93,2.61,29.99,1.02,45.08-3.01,28.54-8.44,56.6-16.46,84.15h0c.99,6.74,13.13,40.59,17.65,57.75,1.31,4.97,2.09,10.33,6.89,13.58,4.37-2.87,9.14-3.35,14.21-2.61"/>
  <path class="st4" d="M189.12,265.74c3.59,9.78,6.91,19.66,10.48,29.45,2.39,6.56,6.84,11.01,13.51,13.63,20.82,8.18,41.7,5.91,62.85,1.56,7.09-1.46,9.23-5.37,9.62-11.66.54-8.83-1.43-17.43-2.09-26.13-.5-6.73-2.88-10.45-9.7-10.89-2.74-.43-5.55-.61-8.2-1.37-4.3-1.23-5.59-3.84-2.72-7.75,1.7-4.27,3.77-8.43,8.21-10.31,4.95-2.08,7.63-6.08,10.36-10.28,6.02-9.24,9.67-19.55,13.26-29.84,1.64-4.7,2.05-10.33-.4-14.64-3.84-6.76-4.82-14.33-7.62-21.33-1.41-3.51-2.7-7.22-4.86-10.26-12.65-17.79-30.78-21.75-44.62-.98-3.83,5.75-7.13,11.76-9.93,18.06-2.05,4.61-4.53,8.99-8.63,12.02-7.21,5.33-8.48,12.1-5.66,20.18,3.94,11.3,3.33,22.37-1.82,33.21-1.11,2.34-1.76,4.91-2.61,7.37-.54,3.89-3.38,6.13-6.05,8.51-1.9,3.22-5.08,4.1-8.26,4.74-.51.1-1.01.2-1.51.29-4.05.79-4.99,2.64-3.6,6.44h0Z"/>
  <path class="st4" d="M162.92,510.9c-2.67-10.7-.76-21.69-2.15-32.55-1.98-15.39-4.52-30.66-10.25-44.97-5.3-13.27,3.53-36.59,3.53-36.59,8.02-27.56,13.45-55.61,16.46-84.15,1.59-15.09,3.29-30.14-1.02-45.08-.69-2.39-.4-5.41-3.73-6.23-1.59.47-3.17,1.01-4.77,1.4-13.38,3.28-24.49,8.81-26.77,24.48-.82,5.58-3.02,10.95-4.43,16.47-8,31.23-13.3,63.15-24.19,93.66-3.21,8.99-3.7,18.5-2.25,28.11,4.94,32.71,18.08,62.74,30.11,93.14,5.82,14.71,13.87,28.71,13.98,45.18,2.46-4.99,2.17-10.58,3.33-15.85,2.81-12.78,8.89-24.42,12.17-37h0Z"/>
  <g>
    <path class="st3" d="M301.61,690.05l-2.76-1.51c11.16-20.22,4.02-70.21,3.94-70.7l3.11-.46c0,.12,1.87,12.96,2.28,28.19.56,20.6-1.66,35.57-6.57,44.49Z"/>
    <g>
      <path class="st3" d="M306.55,622.25s-9.42-52.08-50.67-46.54c0,0,1.8,40.44,50.67,46.54Z"/>
      <path class="st3" d="M353.63,548.89s-65.66,20.78-50.23,73.77c0,0,52.1-8.92,50.23-73.77Z"/>
    </g>
  </g>
</svg>