<?xml version="1.0" encoding="UTF-8"?>
<svg id="Laag_1" xmlns="http://www.w3.org/2000/svg" version="1.1" viewBox="0 0 305.13 308.97">
  <!-- Generator: Adobe Illustrator 29.8.4, SVG Export Plug-In . SVG Version: 2.1.1 Build 6)  -->
  <defs>
    <style>
      .st0 {
        fill: #559e72;
      }

      .st1 {
        fill: #606060;
      }

      .st2 {
        fill: #daf1ee;
      }

      .st3 {
        stroke: #5f8c8c;
        stroke-width: 1.12px;
      }

      .st3, .st4, .st5 {
        stroke-miterlimit: 10;
      }

      .st3, .st5 {
        fill: none;
      }

      .st6 {
        fill: #58b995;
      }

      .st4 {
        fill: #998675;
        stroke: #998675;
      }

      .st7 {
        fill: #406363;
      }

      .st8 {
        fill: #1f1f1d;
      }

      .st5 {
        stroke: #317a4c;
      }

      .st9 {
        fill: #73ba8d;
      }

      .st10 {
        fill: #70b98f;
      }

      .st11 {
        fill: #5f8c8c;
      }
    </style>
  </defs>
  <path class="st1" d="M145.39,45.38v81.19h2V44.2c-.78.52-1.46.93-2,1.17h0Z"/>
  <path class="st6" d="M46.13,93.53c34.85,12.01,69.69,24.02,104.54,36.03,32.52,11.21,65.04,22.42,97.56,33.63,1.45.5-.24-6.8-2.46-7.57-34.85-12.01-69.69-24.02-104.54-36.03-32.52-11.21-65.04-22.42-97.56-33.63-1.45-.5.24,6.8,2.46,7.57h0Z"/>
  <path class="st7" d="M141.23,119.58c-3.56-1.23-7.13-2.46-10.69-3.68-.79,1.97-1.54,3.95-2.25,5.95,7.46,2.57,14.92,5.14,22.38,7.71,3.4,1.17,6.8,2.34,10.19,3.51,1-1.89,1.98-3.79,2.9-5.72-7.51-2.59-15.02-5.18-22.53-7.77Z"/>
  <path class="st11" d="M136.15,123.44c-.62,5.41,3.26,10.3,8.67,10.93,5.41.62,10.3-3.26,10.93-8.67.62-5.41-3.26-10.3-8.67-10.93-5.41-.62-10.3,3.26-10.93,8.67Z"/>
  <path class="st2" d="M140.64,123.96c-.34,2.93,1.76,5.58,4.69,5.92s5.58-1.76,5.92-4.69c.34-2.93-1.76-5.58-4.69-5.92s-5.58,1.76-5.92,4.69Z"/>
  <g>
    <g>
      <g>
        <g>
          <g>
            <g>
              <path class="st0" d="M205,236.87s-.72-14.75-18.85-8.1c0,0,8.42,16.14,18.85,8.1Z"/>
              <path class="st9" d="M205,236.87s-7.35-5.25-18.85-8.1c0,0,5.75,17.6,18.85,8.1Z"/>
            </g>
            <g>
              <path class="st0" d="M207.78,224.37s.33-18.67-22-11c0,0,8.67,19.33,22,11Z"/>
              <path class="st9" d="M207.78,224.37s-4.33-8-22-11c0,0,8.67,19.33,22,11Z"/>
            </g>
          </g>
          <g>
            <path class="st5" d="M190.4,230s17.12,4,25.5,18.5"/>
            <path class="st5" d="M194.48,215.56s20.48,4.86,22.27,33.96"/>
          </g>
        </g>
        <g>
          <g>
            <g>
              <path class="st0" d="M238.52,237.33s.72-14.75,18.85-8.1c0,0-8.42,16.14-18.85,8.1Z"/>
              <path class="st9" d="M238.52,237.33s7.35-5.25,18.85-8.1c0,0-5.75,17.6-18.85,8.1Z"/>
            </g>
            <g>
              <path class="st0" d="M235.75,224.83s-.33-18.67,22-11c0,0-8.67,19.33-22,11Z"/>
              <path class="st9" d="M235.75,224.83s4.33-8,22-11c0,0-8.67,19.33-22,11Z"/>
            </g>
          </g>
          <g>
            <path class="st5" d="M253.12,230.45s-17.12,4-25.5,18.5"/>
            <path class="st5" d="M249.05,216.02s-20.48,4.86-22.27,33.96"/>
          </g>
        </g>
      </g>
      <g>
        <path class="st10" d="M92.83,177.13c-.3-3.46-1.64-6.47-3.97-8.95-3.14-3.34-6.96-5.04-11.37-5.04-.65,0-1.33.04-2.01.11-3.25.36-6.17,1.71-8.69,4.04-2.31,2.14-3.89,4.83-4.59,7.78-.68,2.9-.49,5.98.56,8.91,1.05,2.95,3.06,5.44,5.97,7.41,3.08,2.08,6.59,2.92,10.43,2.5,3.3-.36,6.22-1.69,8.69-3.93,3.28-3,4.99-6.85,5.07-11.46,0-.12,0-.25-.02-.38-.02-.3-.04-.64-.06-.98h-.01ZM77.28,191.13h-.07c-3.28,0-6.35-1.27-8.65-3.57-2.41-2.42-3.74-5.67-3.73-9.16,0-3.27,1.29-6.37,3.67-8.73,2.37-2.36,5.51-3.67,8.81-3.67h.03c6.91,0,12.54,5.59,12.56,12.45.02,7.07-5.52,12.64-12.62,12.69h0Z"/>
        <circle class="st8" cx="77.37" cy="178.57" r="1.65"/>
      </g>
    </g>
    <g>
      <polygon class="st3" points="222.6 161.49 194.11 251.99 249.42 251.99 222.6 161.49"/>
      <path class="st1" d="M183.05,249.21c3.9,11.43,19.37,19.97,37.87,19.97s33.97-8.54,37.87-19.97h-75.74Z"/>
    </g>
  </g>
  <g>
    <polygon class="st3" points="78.2 111.26 49.71 201.77 105.01 201.77 78.2 111.26"/>
    <path class="st4" d="M38.65,198.98c3.9,11.43,19.37,19.97,37.87,19.97s33.97-8.54,37.87-19.97H38.65Z"/>
  </g>
</svg>