<?xml version="1.0" encoding="UTF-8"?>
<svg xmlns="http://www.w3.org/2000/svg" viewBox="0 0 2499.49 1991.15">
  <defs>
    <style>
      .cls-1 {
        fill: #e4ecf9;
      }

      .cls-2, .cls-3, .cls-4, .cls-5, .cls-6, .cls-7, .cls-8 {
        stroke: #1d1d1b;
      }

      .cls-2, .cls-3, .cls-9, .cls-10, .cls-6 {
        fill: #58b895;
      }

      .cls-2, .cls-5, .cls-6, .cls-8 {
        stroke-miterlimit: 10;
        stroke-width: .25px;
      }

      .cls-3, .cls-4, .cls-11, .cls-7 {
        stroke-miterlimit: 10;
      }

      .cls-3, .cls-4, .cls-7 {
        stroke-width: .25px;
      }

      .cls-12 {
        fill: #474747;
      }

      .cls-4 {
        opacity: .19;
      }

      .cls-4, .cls-13 {
        fill: #58b995;
      }

      .cls-14 {
        fill: #52d1bd;
      }

      .cls-9 {
        mix-blend-mode: multiply;
        opacity: .2;
      }

      .cls-9, .cls-5, .cls-15 {
        isolation: isolate;
      }

      .cls-5 {
        fill: #fafaf1;
        opacity: .7;
      }

      .cls-11 {
        stroke: #606060;
      }

      .cls-11, .cls-16 {
        fill: #fff;
      }

      .cls-6 {
        opacity: .59;
      }

      .cls-17 {
        opacity: .3;
      }

      .cls-18 {
        fill: #1f1f1d;
      }

      .cls-19 {
        fill: #333;
      }

      .cls-7, .cls-8 {
        fill: #3c3c3b;
      }
    </style>
  </defs>
  <g class="cls-15">
    <g id="Laag_2" data-name="Laag 2">
      <g id="Laag_1-2" data-name="Laag 1">
        <g>
          <path class="cls-9" d="M1174.14,1674.3l-974.7,121.8c-23.8,3-45.7-14.1-48.6-37.8L.34,553.9c-3-23.8,14.1-45.7,37.8-48.6l974.7-121.8c23.8-3,45.7,14.1,48.6,37.8l150.5,1204.4c3,23.8-14.1,45.7-37.8,48.6h0Z"/>
          <path class="cls-10" d="M1227.34,1613.2l-974.7,121.8c-23.8,3-45.7-14.1-48.6-37.8L53.54,492.8c-3-23.8,14.1-45.7,37.8-48.6l974.7-121.8c23.8-3,45.7,14.1,48.6,37.8l150.5,1204.4c3,23.8-14.1,45.7-37.8,48.6h0Z"/>
          <path class="cls-16" d="M1214.54,1561.7l-962.1,120.2c-4.7.6-9.1-2.8-9.7-7.5L91.04,460.2c-.6-4.7,2.8-9.1,7.5-9.7l962.1-120.2c4.7-.6,9.1,2.8,9.7,7.5l151.7,1214.2c.6,4.7-2.8,9.1-7.5,9.7h0Z"/>
          <path class="cls-1" d="M258.64,681.8l-63.8,8c-7.8,1-15-4.6-15.9-12.4l-8-63.8c-1-7.8,4.6-15,12.4-15.9l63.8-8c7.8-1,15,4.6,15.9,12.4l8,63.8c1,7.8-4.6,15-12.4,15.9h0ZM184.84,609.5c-1.2.2-2.1,1.3-2,2.5l8,63.8c.2,1.2,1.3,2.1,2.6,2l63.8-8c1.2-.2,2.1-1.3,2-2.5l-8-63.8c-.2-1.2-1.3-2.1-2.6-2l-63.8,8h0Z"/>
          <path class="cls-1" d="M278.94,844.4l-63.8,8c-7.8,1-15-4.6-15.9-12.4l-8-63.8c-1-7.8,4.6-15,12.4-15.9l63.8-8c7.8-1,15,4.6,15.9,12.4l8,63.8c1,7.8-4.6,15-12.4,15.9h0ZM205.14,772.1c-1.2.2-2.1,1.3-2,2.5l8,63.8c.2,1.2,1.3,2.1,2.6,2l63.8-8c1.2-.2,2.1-1.3,2-2.5l-8-63.8c-.2-1.2-1.3-2.1-2.5-2l-63.8,8h-.1Z"/>
          <path class="cls-1" d="M299.24,1006.9l-63.8,8c-7.8,1-15-4.6-15.9-12.4l-8-63.8c-1-7.8,4.6-15,12.4-15.9l63.8-8c7.8-1,15,4.6,15.9,12.4l8,63.8c1,7.8-4.6,15-12.4,15.9h0ZM225.44,934.7c-1.2.2-2.1,1.3-2,2.6l8,63.8c.2,1.2,1.3,2.1,2.6,2l63.8-8c1.2-.2,2.1-1.3,2-2.6l-8-63.8c-.2-1.2-1.3-2.1-2.5-2l-63.8,8h-.1,0Z"/>
          <path class="cls-1" d="M319.54,1169.5l-63.8,8c-7.8,1-15-4.6-15.9-12.4l-8-63.8c-1-7.8,4.6-15,12.4-15.9l63.8-8c7.8-1,15,4.6,15.9,12.4l8,63.8c1,7.8-4.6,15-12.4,15.9h0ZM245.74,1097.2c-1.2.2-2.1,1.3-2,2.6l8,63.8c.2,1.2,1.3,2.1,2.6,2l63.8-8c1.2-.2,2.1-1.3,2-2.6l-8-63.8c-.2-1.2-1.3-2.1-2.5-2l-63.8,8h-.1Z"/>
          <path class="cls-14" d="M277.44,591.9h-.3c-3.6,1.9-7,3.8-10.2,5.9l-4.7,3.2-4.4,3.4c-5.8,4.6-11.2,9.5-16.2,14.8-5.2,5.1-9.7,10.7-14.1,16.4-2.5,3.2-4.8,6.5-7,9.9-2.1-1.1-4.3-2.1-6.6-3-3-1.4-6.3-2.5-9.5-3.7-3.3-1.1-6.7-2.1-10.3-2.7h-.3c-.2,0-.5,0-.7.2-.2.3-.2.7,0,1,10.1,8.3,20.3,16.4,30.6,24.5.6.4,1.4.3,1.8-.2,9-11.3,17.9-22.6,26.6-34.1l13.1-17.2c4.4-5.7,8.6-11.5,12.9-17.3.1-.2.2-.5,0-.7-.2-.3-.6-.5-.9-.3h0l.2-.1h0Z"/>
          <path class="cls-14" d="M317.74,914.8h-.3c-3.6,1.9-7,3.8-10.2,5.9l-4.7,3.2-4.4,3.4c-5.8,4.6-11.2,9.5-16.2,14.8-5.2,5.1-9.7,10.7-14.1,16.4-2.5,3.2-4.8,6.5-7,9.9-2.1-1.1-4.3-2.1-6.6-3-3-1.4-6.3-2.5-9.5-3.7-3.3-1.1-6.7-2.1-10.3-2.7h-.3c-.2-.1-.5,0-.7.2-.2.3-.2.7,0,1,10.1,8.3,20.3,16.4,30.6,24.5.6.4,1.4.3,1.8-.2,9-11.3,17.9-22.6,26.6-34.1l13.1-17.2c4.4-5.7,8.6-11.5,12.9-17.3.1-.2.2-.5,0-.7-.2-.3-.6-.5-.9-.3h0l.2-.1h0Z"/>
          <path class="cls-14" d="M338.04,1077.4h-.3c-3.6,1.9-7,3.8-10.2,5.9l-4.7,3.2-4.4,3.4c-5.8,4.6-11.2,9.5-16.2,14.8-5.2,5.1-9.7,10.7-14.1,16.4-2.5,3.2-4.8,6.5-7,9.9-2.1-1.1-4.3-2.1-6.5-3-3-1.4-6.3-2.5-9.5-3.7-3.3-1.1-6.7-2.1-10.3-2.7h-.3c-.2-.1-.5,0-.7.2-.2.3-.2.7,0,1,10.1,8.3,20.3,16.4,30.6,24.5.6.4,1.4.3,1.8-.2,9-11.3,17.9-22.6,26.6-34.1l13.1-17.2c4.4-5.7,8.6-11.5,12.9-17.3.1-.2.2-.5,0-.7-.2-.3-.6-.5-.9-.3h0l.1-.1h0Z"/>
          <path class="cls-9" d="M1013.44,529.4l-658.1,82.2c-11,1.4-21-6.4-22.3-17.4h0c-1.4-11,6.4-21,17.4-22.3l658.1-82.2c11-1.4,21,6.4,22.3,17.4h0c1.4,11-6.4,21-17.4,22.3h0Z"/>
          <path class="cls-9" d="M1021.14,591.4l-658.1,82.2c-11,1.4-21-6.4-22.3-17.4h0c-1.4-11,6.4-21,17.4-22.3l658.1-82.2c11-1.4,21,6.4,22.3,17.4h0c1.4,11-6.4,21-17.4,22.3h0Z"/>
          <path class="cls-9" d="M1033.74,692l-658.1,82.2c-11,1.4-21-6.4-22.3-17.4h0c-1.4-11,6.4-21,17.4-22.3l658.1-82.2c11-1.4,21,6.4,22.3,17.4h0c1.4,11-6.4,21-17.4,22.3Z"/>
          <path class="cls-9" d="M1041.44,753.9l-658.1,82.2c-11,1.4-21-6.4-22.3-17.4h0c-1.4-11,6.4-21,17.4-22.3l658.1-82.2c11-1.4,21,6.4,22.3,17.4h0c1.4,11-6.4,21-17.4,22.3h0Z"/>
          <path class="cls-9" d="M1054.04,854.5l-658.1,82.2c-11,1.4-21-6.4-22.3-17.4h0c-1.4-11,6.4-21,17.4-22.3l658.1-82.2c11-1.4,21,6.4,22.3,17.4h0c1.4,11-6.4,21-17.4,22.3h0Z"/>
          <path class="cls-9" d="M1061.74,916.5l-658.1,82.2c-11,1.4-21-6.4-22.3-17.4h0c-1.4-11,6.4-21,17.4-22.3l658.1-82.2c11-1.4,21,6.4,22.3,17.4h0c1.4,11-6.4,21-17.4,22.3Z"/>
          <path class="cls-9" d="M1074.34,1017.1l-658.1,82.2c-11,1.4-21-6.4-22.3-17.4h0c-1.4-11,6.4-21,17.4-22.3l658.1-82.2c11-1.4,21,6.4,22.3,17.4h0c1.4,11-6.4,21-17.4,22.3Z"/>
          <path class="cls-9" d="M1082.04,1079.1l-658.1,82.2c-11,1.4-21-6.4-22.3-17.4h0c-1.4-11,6.4-21,17.4-22.3l658.1-82.2c11-1.4,21,6.4,22.3,17.4h0c1.4,11-6.4,21-17.4,22.3h0Z"/>
          <path class="cls-1" d="M360.84,1499.9l-63.8,8c-7.8,1-15-4.6-15.9-12.4l-8-63.8c-1-7.8,4.6-15,12.4-15.9l63.8-8c7.8-1,15,4.6,15.9,12.4l8,63.8c1,7.8-4.6,15-12.4,15.9h0ZM287.04,1427.6c-1.2.2-2.1,1.3-2,2.6l8,63.8c.2,1.2,1.3,2.1,2.5,2l63.8-8c1.2-.2,2.1-1.3,2-2.6l-8-63.8c-.2-1.2-1.3-2.1-2.5-2l-63.8,8Z"/>
          <path class="cls-14" d="M379.34,1407.7h-.3c-3.6,1.9-7,3.8-10.2,5.9l-4.7,3.2-4.4,3.4c-5.8,4.6-11.2,9.5-16.2,14.8-5.2,5.1-9.7,10.7-14.1,16.4-2.5,3.2-4.8,6.5-7,9.9-2.1-1.1-4.3-2.1-6.5-3-3-1.4-6.3-2.5-9.5-3.7-3.3-1.1-6.7-2.1-10.3-2.7h-.3c-.2-.1-.5,0-.7.2-.2.3-.2.7,0,1,10.1,8.3,20.3,16.4,30.6,24.5.6.4,1.4.3,1.8-.2,9-11.3,17.9-22.6,26.6-34.1l13.1-17.2c4.4-5.7,8.6-11.5,12.9-17.3.1-.2.2-.5,0-.7-.2-.3-.6-.5-.9-.3h0l.1-.1h0Z"/>
          <path class="cls-9" d="M1115.64,1347.5l-658.1,82.2c-11,1.4-21-6.4-22.3-17.4h0c-1.4-11,6.4-21,17.4-22.3l658.1-82.2c11-1.4,21,6.4,22.3,17.4h0c1.4,11-6.4,21-17.4,22.3Z"/>
          <path class="cls-9" d="M1123.34,1409.4l-658.1,82.2c-11,1.4-21-6.4-22.3-17.4h0c-1.4-11,6.4-21,17.4-22.3l658.1-82.2c11-1.4,21,6.4,22.3,17.4h0c1.4,11-6.4,21-17.4,22.3Z"/>
          <path class="cls-1" d="M340.44,1336.9l-63.8,8c-7.8,1-15-4.6-15.9-12.4l-8-63.8c-1-7.8,4.6-15,12.4-15.9l63.8-8c7.8-1,15,4.6,15.9,12.4l8,63.8c1,7.8-4.6,15-12.4,15.9h0ZM266.64,1264.6c-1.2.2-2.1,1.3-2,2.6l8,63.8c.2,1.2,1.3,2.1,2.5,2l63.8-8c1.2-.2,2.1-1.3,2-2.6l-8-63.8c-.2-1.2-1.3-2.1-2.5-2l-63.8,8h0Z"/>
          <path class="cls-9" d="M1095.24,1184.5l-658.1,82.2c-11,1.4-21-6.4-22.3-17.4h0c-1.4-11,6.4-21,17.4-22.3l658.1-82.2c11-1.4,21,6.4,22.3,17.4h0c1.4,11-6.4,21-17.4,22.3Z"/>
          <path class="cls-9" d="M1102.94,1246.4l-658.1,82.2c-11,1.4-21-6.4-22.3-17.4h0c-1.4-11,6.4-21,17.4-22.3l658.1-82.2c11-1.4,21,6.4,22.3,17.4h0c1.4,11-6.4,21-17.4,22.3Z"/>
          <path class="cls-14" d="M1159.54,1491.8l-871.1,108.8c-3.2.4-6.2-1.9-6.6-5.2h0c-.4-3.2,1.9-6.2,5.2-6.6l871.1-108.8c3.2-.4,6.2,1.9,6.6,5.2h0c.4,3.2-1.9,6.2-5.2,6.6Z"/>
          <g>
            <circle class="cls-19" cx="159.38" cy="480.85" r="15.7" transform="translate(-338.93 389.73) rotate(-61.3)"/>
            <path class="cls-12" d="M160.24,486.2h0c-5.8.7-11-3.4-11.8-9.2l-9.3-74.3c-.7-5.8,3.4-11,9.1-11.8h0c5.8-.7,11,3.4,11.8,9.2l9.3,74.3c.7,5.8-3.4,11-9.1,11.8h0Z"/>
          </g>
          <g>
            <circle class="cls-19" cx="230.45" cy="471.27" r="15.7" transform="translate(-280.41 352) rotate(-50.8)"/>
            <path class="cls-12" d="M231.04,477.4h0c-5.8.7-11-3.4-11.8-9.2l-9.3-74.3c-.7-5.8,3.4-11,9.1-11.8h0c5.8-.7,11,3.4,11.8,9.2l9.3,74.3c.7,5.8-3.4,11-9.1,11.8Z"/>
          </g>
          <g>
            <circle class="cls-19" cx="301.04" cy="462.6" r="15.7"/>
            <path class="cls-12" d="M301.84,468.6h0c-5.8.7-11-3.4-11.8-9.2l-9.3-74.3c-.7-5.8,3.4-11,9.1-11.8h0c5.8-.7,11,3.4,11.8,9.2l9.3,74.3c.7,5.8-3.4,11-9.1,11.8h0Z"/>
          </g>
          <g>
            <circle class="cls-19" cx="371.84" cy="453.8" r="15.7"/>
            <path class="cls-12" d="M372.54,459.7h0c-5.8.7-11-3.4-11.8-9.2l-9.3-74.3c-.7-5.8,3.4-11,9.1-11.8h0c5.8-.7,11,3.4,11.8,9.2l9.3,74.3c.7,5.8-3.4,11-9.1,11.8Z"/>
          </g>
          <path class="cls-9" d="M2216.79,1990.88l-1342.98-124.77c-32.8-3.01-57.11-32.41-54-65.05L974,141.59c3.01-32.8,32.41-57.11,65.05-54l1342.98,124.77c32.8,3.01,57.11,32.41,54,65.05l-154.18,1659.47c-3.01,32.8-32.41,57.11-65.05,54h0Z"/>
          <g>
            <circle class="cls-19" cx="442.64" cy="445" r="15.7"/>
            <path class="cls-12" d="M443.34,450.9h0c-5.8.7-11-3.4-11.8-9.2l-9.3-74.3c-.7-5.8,3.4-11,9.1-11.8h0c5.8-.7,11,3.4,11.8,9.2l9.3,74.3c.7,5.8-3.4,11-9.1,11.8Z"/>
          </g>
          <g>
            <circle class="cls-19" cx="513.44" cy="436" r="15.7"/>
            <path class="cls-12" d="M514.14,442h0c-5.8.7-11-3.4-11.8-9.2l-9.3-74.3c-.7-5.8,3.4-11,9.1-11.8h0c5.8-.7,11,3.4,11.8,9.2l9.3,74.3c.7,5.8-3.4,11-9.2,11.8h.1Z"/>
          </g>
          <g>
            <circle class="cls-19" cx="584.14" cy="427.3" r="15.7"/>
            <path class="cls-12" d="M584.94,433.2h0c-5.8.7-11-3.4-11.8-9.2l-9.3-74.3c-.7-5.8,3.4-11,9.2-11.8h0c5.8-.7,11,3.4,11.8,9.2l9.3,74.3c.7,5.8-3.4,11-9.2,11.8Z"/>
          </g>
          <g>
            <circle class="cls-19" cx="655.04" cy="418.4" r="15.7"/>
            <path class="cls-12" d="M655.74,424.3h0c-5.8.7-11-3.4-11.8-9.2l-9.3-74.3c-.7-5.8,3.4-11,9.2-11.8h0c5.8-.7,11,3.4,11.8,9.2l9.3,74.3c.7,5.8-3.4,11-9.2,11.8h0Z"/>
          </g>
          <g>
            <circle class="cls-19" cx="725.84" cy="409.6" r="15.7"/>
            <path class="cls-12" d="M726.54,415.5h0c-5.8.7-11-3.4-11.8-9.2l-9.3-74.3c-.7-5.8,3.4-11,9.2-11.8h0c5.8-.7,11,3.4,11.8,9.2l9.3,74.3c.7,5.8-3.4,11-9.2,11.8h0Z"/>
          </g>
          <g>
            <circle class="cls-19" cx="796.54" cy="400.8" r="15.7"/>
            <path class="cls-12" d="M797.34,406.6h0c-5.8.7-11-3.4-11.8-9.2l-9.3-74.3c-.7-5.8,3.4-11,9.2-11.8h0c5.8-.7,11,3.4,11.8,9.1l9.3,74.3c.7,5.8-3.4,11-9.2,11.8h0v.1h0Z"/>
          </g>
          <g>
            <circle class="cls-19" cx="867.44" cy="391.9" r="15.7"/>
            <path class="cls-12" d="M868.14,397.8h0c-5.8.7-11-3.4-11.8-9.2l-9.3-74.3c-.7-5.8,3.4-11,9.2-11.8h0c5.8-.7,11,3.4,11.8,9.1l9.3,74.3c.7,5.8-3.4,11-9.2,11.8h0v.1Z"/>
          </g>
          <g>
            <circle class="cls-19" cx="938.24" cy="383" r="15.7"/>
            <path class="cls-12" d="M938.94,389h0c-5.8.7-11-3.4-11.8-9.2l-9.3-74.3c-.7-5.8,3.4-11,9.2-11.8h0c5.8-.7,11,3.4,11.8,9.1l9.3,74.3c.7,5.8-3.4,11-9.2,11.8h0v.1Z"/>
          </g>
          <g>
            <circle class="cls-19" cx="1008.95" cy="374.11" r="15.7"/>
            <path class="cls-12" d="M1009.74,380.1h0c-5.8.7-11-3.4-11.8-9.2l-9.3-74.3c-.7-5.8,3.4-11,9.2-11.8h0c5.8-.7,11,3.4,11.8,9.1l9.3,74.3c.7,5.8-3.4,11-9.2,11.8h0v.1h0Z"/>
          </g>
        </g>
        <g>
          <path class="cls-11" d="M2278.99,1941.2l-1344.9-141.9c-18.5-1.9-32-18.6-30-37.1L1086.79,30.7c2-18.5,18.6-32,37.1-30l1344.9,141.9c18.5,2,32,18.6,30,37.1l-182.7,1731.5c-1.9,18.5-18.6,32-37.1,30h0Z"/>
          <rect class="cls-2" x="1047.69" y="525.57" width="449.2" height="203.4" transform="translate(515.46 1827.02) rotate(-84)"/>
          <rect class="cls-5" x="1400.37" y="663.73" width="224.6" height="203.4" transform="translate(593.31 2189.8) rotate(-84)"/>
          <rect class="cls-8" x="1613.72" y="647.59" width="310.7" height="203.4" transform="translate(838.97 2430.34) rotate(-84)"/>
          <g>
            <circle class="cls-3" cx="1998.47" cy="539.46" r="18"/>
            <path class="cls-4" d="M2311.19,592.2l-252.1-26.6c-9.8-1-17-9.9-16-19.7h0c1-9.8,9.9-17,19.7-16l252.1,26.6c9.8,1,17,9.9,16,19.7h0c-1,9.8-9.9,17-19.7,16Z"/>
            <path class="cls-4" d="M2304.39,656.8l-314.7-33.2c-9.8-1-17-9.9-16-19.7h0c1-9.8,9.9-17,19.7-16l314.7,33.2c9.8,1,17,9.9,16,19.7h0c-1,9.8-9.9,17-19.7,16h0Z"/>
          </g>
          <g>
            <circle class="cls-5" cx="1982.43" cy="691.59" r="18"/>
            <path class="cls-4" d="M2295.29,743.3l-252.1-26.6c-9.8-1-17-9.9-16-19.7h0c1-9.8,9.9-17,19.7-16l252.1,26.6c9.8,1,17,9.9,16,19.7h0c-1,9.8-9.9,17-19.7,16Z"/>
            <path class="cls-4" d="M2288.49,807.9l-314.7-33.2c-9.8-1-17-9.9-16-19.7h0c1-9.8,9.9-17,19.7-16l314.7,33.2c9.8,1,17,9.9,16,19.7h0c-1,9.8-9.9,17-19.7,16Z"/>
          </g>
          <g>
            <circle class="cls-7" cx="1966.59" cy="843.3" r="18"/>
            <path class="cls-4" d="M2279.39,894.3l-252.1-26.6c-9.8-1-17-9.9-16-19.7h0c1-9.8,9.9-17,19.7-16l252.1,26.6c9.8,1,17,9.9,16,19.7h0c-1,9.8-9.9,17-19.7,16Z"/>
            <path class="cls-4" d="M2272.49,958.9l-314.7-33.2c-9.8-1-17-9.9-16-19.7h0c1-9.8,9.9-17,19.7-16l314.7,33.2c9.8,1,17,9.9,16,19.7h0c-1,9.8-9.9,17-19.7,16Z"/>
          </g>
          <path class="cls-6" d="M1524.99,230.9l-284.2-30c-13.9-1.5-24-14-22.5-27.9h0c1.5-13.9,14-24,27.9-22.5l284.2,30c13.9,1.5,24,14,22.6,27.9h0c-1.5,13.9-14,24-27.9,22.5h-.1Z"/>
          <path class="cls-4" d="M2321.29,426.4l-997.6-105.2c-13.9-1.5-24-14-22.5-27.9h0c1.5-13.9,14-24,27.9-22.5l997.6,105.2c13.9,1.5,24,14,22.6,27.9h0c-1.5,13.9-14,24-27.9,22.5h-.1Z"/>
        </g>
        <g class="cls-17">
          <path class="cls-13" d="M1950.65,1337.33c-6.64-75.72-35.92-141.49-86.71-195.71-68.74-73.09-152.24-110.15-248.56-110.15s-29.06.8-43.81,2.4c-71.15,7.78-134.97,37.52-189.87,88.3-50.56,46.89-85.1,105.58-100.42,170.08-14.87,63.37-10.64,130.63,12.24,194.68,23.11,64.52,66.92,119.07,130.4,162.08,67.26,45.41,144.01,63.94,227.96,54.68,72.06-7.89,136-36.83,189.87-85.9,71.71-65.54,109.01-149.84,110.72-250.61,0-2.63-.23-5.37-.46-8.35-.46-6.64-.8-13.96-1.38-21.39h0v-.11h.01ZM1610.81,1643.43h-1.6c-71.71,0-138.86-27.79-189.07-78.12-52.73-52.84-81.78-123.99-81.55-200.4-.23-71.48,28.25-139.2,80.3-190.91,51.93-51.7,120.44-80.19,192.5-80.3h.57c150.98,0,274.28,122.15,274.63,272.23.46,154.64-120.79,276.47-275.89,277.49h.11-.01Z"/>
          <circle class="cls-18" cx="1612.54" cy="1368.78" r="36.04"/>
        </g>
      </g>
    </g>
  </g>
</svg>