<?xml version="1.0" encoding="UTF-8"?>
<svg xmlns="http://www.w3.org/2000/svg" viewBox="0 0 2202.19 2008.43">
  <defs>
    <style>
      .cls-1, .cls-2 {
        fill: #e4ecf9;
      }

      .cls-3, .cls-4, .cls-5, .cls-6, .cls-7 {
        fill: #58b895;
      }

      .cls-3, .cls-2, .cls-6, .cls-8, .cls-7, .cls-9, .cls-10 {
        stroke: #1d1d1b;
        stroke-miterlimit: 10;
      }

      .cls-3, .cls-2, .cls-6, .cls-7, .cls-9, .cls-10 {
        stroke-width: .25px;
      }

      .cls-11 {
        fill: #474747;
      }

      .cls-12, .cls-10 {
        fill: #52d1bd;
      }

      .cls-4, .cls-13 {
        mix-blend-mode: multiply;
        opacity: .2;
      }

      .cls-4, .cls-13, .cls-14, .cls-6, .cls-7 {
        isolation: isolate;
      }

      .cls-13 {
        fill: #3a7ec1;
      }

      .cls-15, .cls-8 {
        fill: #fff;
      }

      .cls-6 {
        opacity: .8;
      }

      .cls-16 {
        opacity: .8;
      }

      .cls-17 {
        opacity: .3;
      }

      .cls-18 {
        fill: #58b995;
      }

      .cls-19 {
        fill: #1f1f1d;
      }

      .cls-8 {
        stroke-width: .5px;
      }

      .cls-7 {
        opacity: .7;
      }

      .cls-20 {
        fill: #333;
      }

      .cls-9 {
        fill: #3c3c3b;
      }
    </style>
  </defs>
  <g class="cls-14">
    <g id="Laag_2" data-name="Laag 2">
      <g id="Laag_1-2" data-name="Laag 1">
        <g class="cls-16">
          <g>
            <path class="cls-4" d="M1174.14,1605.65l-974.7,121.8c-23.8,3-45.7-14.1-48.6-37.8L.34,485.25c-3-23.8,14.1-45.7,37.8-48.6l974.7-121.8c23.8-3,45.7,14.1,48.6,37.8l150.5,1204.4c3,23.8-14.1,45.7-37.8,48.6h0Z"/>
            <path class="cls-5" d="M1227.34,1544.55l-974.7,121.8c-23.8,3-45.7-14.1-48.6-37.8L53.54,424.15c-3-23.8,14.1-45.7,37.8-48.6l974.7-121.8c23.8-3,45.7,14.1,48.6,37.8l150.5,1204.4c3,23.8-14.1,45.7-37.8,48.6Z"/>
            <path class="cls-15" d="M1214.54,1493.05l-962.1,120.2c-4.7.6-9.1-2.8-9.7-7.5L91.04,391.55c-.6-4.7,2.8-9.1,7.5-9.7l962.1-120.2c4.7-.6,9.1,2.8,9.7,7.5l151.7,1214.2c.6,4.7-2.8,9.1-7.5,9.7h0Z"/>
            <path class="cls-1" d="M258.64,613.15l-63.8,8c-7.8,1-15-4.6-15.9-12.4l-8-63.8c-1-7.8,4.6-15,12.4-15.9l63.8-8c7.8-1,15,4.6,15.9,12.4l8,63.8c1,7.8-4.6,15-12.4,15.9h0ZM184.84,540.85c-1.2.2-2.1,1.3-2,2.5l8,63.8c.2,1.2,1.3,2.1,2.6,2l63.8-8c1.2-.2,2.1-1.3,2-2.5l-8-63.8c-.2-1.2-1.3-2.1-2.6-2l-63.8,8h0Z"/>
            <path class="cls-1" d="M278.94,775.75l-63.8,8c-7.8,1-15-4.6-15.9-12.4l-8-63.8c-1-7.8,4.6-15,12.4-15.9l63.8-8c7.8-1,15,4.6,15.9,12.4l8,63.8c1,7.8-4.6,15-12.4,15.9h0ZM205.14,703.45c-1.2.2-2.1,1.3-2,2.5l8,63.8c.2,1.2,1.3,2.1,2.6,2l63.8-8c1.2-.2,2.1-1.3,2-2.5l-8-63.8c-.2-1.2-1.3-2.1-2.5-2l-63.8,8h-.1Z"/>
            <path class="cls-1" d="M299.24,938.25l-63.8,8c-7.8,1-15-4.6-15.9-12.4l-8-63.8c-1-7.8,4.6-15,12.4-15.9l63.8-8c7.8-1,15,4.6,15.9,12.4l8,63.8c1,7.8-4.6,15-12.4,15.9h0ZM225.44,866.05c-1.2.2-2.1,1.3-2,2.6l8,63.8c.2,1.2,1.3,2.1,2.6,2l63.8-8c1.2-.2,2.1-1.3,2-2.6l-8-63.8c-.2-1.2-1.3-2.1-2.5-2l-63.8,8h-.1Z"/>
            <path class="cls-1" d="M319.54,1100.85l-63.8,8c-7.8,1-15-4.6-15.9-12.4l-8-63.8c-1-7.8,4.6-15,12.4-15.9l63.8-8c7.8-1,15,4.6,15.9,12.4l8,63.8c1,7.8-4.6,15-12.4,15.9h0ZM245.74,1028.55c-1.2.2-2.1,1.3-2,2.6l8,63.8c.2,1.2,1.3,2.1,2.6,2l63.8-8c1.2-.2,2.1-1.3,2-2.6l-8-63.8c-.2-1.2-1.3-2.1-2.5-2l-63.8,8h-.1Z"/>
            <path class="cls-12" d="M277.44,523.25h-.3c-3.6,1.9-7,3.8-10.2,5.9l-4.7,3.2-4.4,3.4c-5.8,4.6-11.2,9.5-16.2,14.8-5.2,5.1-9.7,10.7-14.1,16.4-2.5,3.2-4.8,6.5-7,9.9-2.1-1.1-4.3-2.1-6.6-3-3-1.4-6.3-2.5-9.5-3.7-3.3-1.1-6.7-2.1-10.3-2.7h-.3c-.2,0-.5,0-.7.2-.2.3-.2.7,0,1,10.1,8.3,20.3,16.4,30.6,24.5.6.4,1.4.3,1.8-.2,9-11.3,17.9-22.6,26.6-34.1l13.1-17.2c4.4-5.7,8.6-11.5,12.9-17.3.1-.2.2-.5,0-.7-.2-.3-.6-.5-.9-.3h0l.2-.1Z"/>
            <path class="cls-12" d="M317.74,846.15h-.3c-3.6,1.9-7,3.8-10.2,5.9l-4.7,3.2-4.4,3.4c-5.8,4.6-11.2,9.5-16.2,14.8-5.2,5.1-9.7,10.7-14.1,16.4-2.5,3.2-4.8,6.5-7,9.9-2.1-1.1-4.3-2.1-6.6-3-3-1.4-6.3-2.5-9.5-3.7-3.3-1.1-6.7-2.1-10.3-2.7h-.3c-.2-.1-.5,0-.7.2-.2.3-.2.7,0,1,10.1,8.3,20.3,16.4,30.6,24.5.6.4,1.4.3,1.8-.2,9-11.3,17.9-22.6,26.6-34.1l13.1-17.2c4.4-5.7,8.6-11.5,12.9-17.3.1-.2.2-.5,0-.7-.2-.3-.6-.5-.9-.3h0l.2-.1Z"/>
            <path class="cls-12" d="M338.04,1008.75h-.3c-3.6,1.9-7,3.8-10.2,5.9l-4.7,3.2-4.4,3.4c-5.8,4.6-11.2,9.5-16.2,14.8-5.2,5.1-9.7,10.7-14.1,16.4-2.5,3.2-4.8,6.5-7,9.9-2.1-1.1-4.3-2.1-6.5-3-3-1.4-6.3-2.5-9.5-3.7-3.3-1.1-6.7-2.1-10.3-2.7h-.3c-.2-.1-.5,0-.7.2-.2.3-.2.7,0,1,10.1,8.3,20.3,16.4,30.6,24.5.6.4,1.4.3,1.8-.2,9-11.3,17.9-22.6,26.6-34.1l13.1-17.2c4.4-5.7,8.6-11.5,12.9-17.3.1-.2.2-.5,0-.7-.2-.3-.6-.5-.9-.3h0l.1-.1Z"/>
            <path class="cls-1" d="M1013.44,460.75l-658.1,82.2c-11,1.4-21-6.4-22.3-17.4h0c-1.4-11,6.4-21,17.4-22.3l658.1-82.2c11-1.4,21,6.4,22.3,17.4h0c1.4,11-6.4,21-17.4,22.3h0Z"/>
            <path class="cls-1" d="M1021.14,522.75l-658.1,82.2c-11,1.4-21-6.4-22.3-17.4h0c-1.4-11,6.4-21,17.4-22.3l658.1-82.2c11-1.4,21,6.4,22.3,17.4h0c1.4,11-6.4,21-17.4,22.3h0Z"/>
            <path class="cls-1" d="M1033.74,623.35l-658.1,82.2c-11,1.4-21-6.4-22.3-17.4h0c-1.4-11,6.4-21,17.4-22.3l658.1-82.2c11-1.4,21,6.4,22.3,17.4h0c1.4,11-6.4,21-17.4,22.3Z"/>
            <path class="cls-1" d="M1041.44,685.25l-658.1,82.2c-11,1.4-21-6.4-22.3-17.4h0c-1.4-11,6.4-21,17.4-22.3l658.1-82.2c11-1.4,21,6.4,22.3,17.4h0c1.4,11-6.4,21-17.4,22.3h0Z"/>
            <path class="cls-1" d="M1054.04,785.85l-658.1,82.2c-11,1.4-21-6.4-22.3-17.4h0c-1.4-11,6.4-21,17.4-22.3l658.1-82.2c11-1.4,21,6.4,22.3,17.4h0c1.4,11-6.4,21-17.4,22.3h0Z"/>
            <path class="cls-1" d="M1061.74,847.85l-658.1,82.2c-11,1.4-21-6.4-22.3-17.4h0c-1.4-11,6.4-21,17.4-22.3l658.1-82.2c11-1.4,21,6.4,22.3,17.4h0c1.4,11-6.4,21-17.4,22.3Z"/>
            <path class="cls-1" d="M1074.34,948.45l-658.1,82.2c-11,1.4-21-6.4-22.3-17.4h0c-1.4-11,6.4-21,17.4-22.3l658.1-82.2c11-1.4,21,6.4,22.3,17.4h0c1.4,11-6.4,21-17.4,22.3Z"/>
            <path class="cls-1" d="M1082.04,1010.45l-658.1,82.2c-11,1.4-21-6.4-22.3-17.4h0c-1.4-11,6.4-21,17.4-22.3l658.1-82.2c11-1.4,21,6.4,22.3,17.4h0c1.4,11-6.4,21-17.4,22.3Z"/>
            <path class="cls-1" d="M360.84,1431.25l-63.8,8c-7.8,1-15-4.6-15.9-12.4l-8-63.8c-1-7.8,4.6-15,12.4-15.9l63.8-8c7.8-1,15,4.6,15.9,12.4l8,63.8c1,7.8-4.6,15-12.4,15.9h0ZM287.04,1358.95c-1.2.2-2.1,1.3-2,2.6l8,63.8c.2,1.2,1.3,2.1,2.5,2l63.8-8c1.2-.2,2.1-1.3,2-2.6l-8-63.8c-.2-1.2-1.3-2.1-2.5-2l-63.8,8Z"/>
            <path class="cls-12" d="M379.34,1339.05h-.3c-3.6,1.9-7,3.8-10.2,5.9l-4.7,3.2-4.4,3.4c-5.8,4.6-11.2,9.5-16.2,14.8-5.2,5.1-9.7,10.7-14.1,16.4-2.5,3.2-4.8,6.5-7,9.9-2.1-1.1-4.3-2.1-6.5-3-3-1.4-6.3-2.5-9.5-3.7-3.3-1.1-6.7-2.1-10.3-2.7h-.3c-.2-.1-.5,0-.7.2-.2.3-.2.7,0,1,10.1,8.3,20.3,16.4,30.6,24.5.6.4,1.4.3,1.8-.2,9-11.3,17.9-22.6,26.6-34.1l13.1-17.2c4.4-5.7,8.6-11.5,12.9-17.3.1-.2.2-.5,0-.7-.2-.3-.6-.5-.9-.3h0l.1-.1Z"/>
            <path class="cls-1" d="M1115.64,1278.85l-658.1,82.2c-11,1.4-21-6.4-22.3-17.4h0c-1.4-11,6.4-21,17.4-22.3l658.1-82.2c11-1.4,21,6.4,22.3,17.4h0c1.4,11-6.4,21-17.4,22.3Z"/>
            <path class="cls-1" d="M1123.34,1340.75l-658.1,82.2c-11,1.4-21-6.4-22.3-17.4h0c-1.4-11,6.4-21,17.4-22.3l658.1-82.2c11-1.4,21,6.4,22.3,17.4h0c1.4,11-6.4,21-17.4,22.3Z"/>
            <path class="cls-1" d="M340.44,1268.25l-63.8,8c-7.8,1-15-4.6-15.9-12.4l-8-63.8c-1-7.8,4.6-15,12.4-15.9l63.8-8c7.8-1,15,4.6,15.9,12.4l8,63.8c1,7.8-4.6,15-12.4,15.9h0ZM266.64,1195.95c-1.2.2-2.1,1.3-2,2.6l8,63.8c.2,1.2,1.3,2.1,2.5,2l63.8-8c1.2-.2,2.1-1.3,2-2.6l-8-63.8c-.2-1.2-1.3-2.1-2.5-2l-63.8,8h0Z"/>
            <path class="cls-1" d="M1095.24,1115.85l-658.1,82.2c-11,1.4-21-6.4-22.3-17.4h0c-1.4-11,6.4-21,17.4-22.3l658.1-82.2c11-1.4,21,6.4,22.3,17.4h0c1.4,11-6.4,21-17.4,22.3Z"/>
            <path class="cls-1" d="M1102.94,1177.75l-658.1,82.2c-11,1.4-21-6.4-22.3-17.4h0c-1.4-11,6.4-21,17.4-22.3l658.1-82.2c11-1.4,21,6.4,22.3,17.4h0c1.4,11-6.4,21-17.4,22.3Z"/>
            <path class="cls-12" d="M1159.54,1423.15l-871.1,108.8c-3.2.4-6.2-1.9-6.6-5.2h0c-.4-3.2,1.9-6.2,5.2-6.6l871.1-108.8c3.2-.4,6.2,1.9,6.6,5.2h0c.4,3.2-1.9,6.2-5.2,6.6Z"/>
            <g>
              <circle class="cls-20" cx="159.38" cy="412.19" r="15.7" transform="translate(-278.71 354.05) rotate(-61.3)"/>
              <path class="cls-11" d="M160.24,417.55h0c-5.8.7-11-3.4-11.8-9.2l-9.3-74.3c-.7-5.8,3.4-11,9.1-11.8h0c5.8-.7,11,3.4,11.8,9.2l9.3,74.3c.7,5.8-3.4,11-9.1,11.8h0Z"/>
            </g>
            <g>
              <circle class="cls-20" cx="230.45" cy="402.62" r="15.7" transform="translate(-227.21 326.74) rotate(-50.8)"/>
              <path class="cls-11" d="M231.04,408.75h0c-5.8.7-11-3.4-11.8-9.2l-9.3-74.3c-.7-5.8,3.4-11,9.1-11.8h0c5.8-.7,11,3.4,11.8,9.2l9.3,74.3c.7,5.8-3.4,11-9.1,11.8Z"/>
            </g>
            <g>
              <circle class="cls-20" cx="301.04" cy="393.95" r="15.7"/>
              <path class="cls-11" d="M301.84,399.95h0c-5.8.7-11-3.4-11.8-9.2l-9.3-74.3c-.7-5.8,3.4-11,9.1-11.8h0c5.8-.7,11,3.4,11.8,9.2l9.3,74.3c.7,5.8-3.4,11-9.1,11.8h0Z"/>
            </g>
            <g>
              <circle class="cls-20" cx="371.84" cy="385.15" r="15.7"/>
              <path class="cls-11" d="M372.54,391.05h0c-5.8.7-11-3.4-11.8-9.2l-9.3-74.3c-.7-5.8,3.4-11,9.1-11.8h0c5.8-.7,11,3.4,11.8,9.2l9.3,74.3c.7,5.8-3.4,11-9.1,11.8Z"/>
            </g>
            <g>
              <circle class="cls-20" cx="442.64" cy="376.35" r="15.7"/>
              <path class="cls-11" d="M443.34,382.25h0c-5.8.7-11-3.4-11.8-9.2l-9.3-74.3c-.7-5.8,3.4-11,9.1-11.8h0c5.8-.7,11,3.4,11.8,9.2l9.3,74.3c.7,5.8-3.4,11-9.1,11.8Z"/>
            </g>
            <g>
              <circle class="cls-20" cx="513.44" cy="367.35" r="15.7"/>
              <path class="cls-11" d="M514.14,373.35h0c-5.8.7-11-3.4-11.8-9.2l-9.3-74.3c-.7-5.8,3.4-11,9.1-11.8h0c5.8-.7,11,3.4,11.8,9.2l9.3,74.3c.7,5.8-3.4,11-9.2,11.8h.1Z"/>
            </g>
            <g>
              <circle class="cls-20" cx="584.14" cy="358.65" r="15.7"/>
              <path class="cls-11" d="M584.94,364.55h0c-5.8.7-11-3.4-11.8-9.2l-9.3-74.3c-.7-5.8,3.4-11,9.2-11.8h0c5.8-.7,11,3.4,11.8,9.2l9.3,74.3c.7,5.8-3.4,11-9.2,11.8Z"/>
            </g>
            <g>
              <circle class="cls-20" cx="655.04" cy="349.75" r="15.7"/>
              <path class="cls-11" d="M655.74,355.65h0c-5.8.7-11-3.4-11.8-9.2l-9.3-74.3c-.7-5.8,3.4-11,9.2-11.8h0c5.8-.7,11,3.4,11.8,9.2l9.3,74.3c.7,5.8-3.4,11-9.2,11.8Z"/>
            </g>
            <g>
              <circle class="cls-20" cx="725.84" cy="340.95" r="15.7"/>
              <path class="cls-11" d="M726.54,346.85h0c-5.8.7-11-3.4-11.8-9.2l-9.3-74.3c-.7-5.8,3.4-11,9.2-11.8h0c5.8-.7,11,3.4,11.8,9.2l9.3,74.3c.7,5.8-3.4,11-9.2,11.8Z"/>
            </g>
            <g>
              <circle class="cls-20" cx="796.54" cy="332.15" r="15.7"/>
              <path class="cls-11" d="M797.34,337.95h0c-5.8.7-11-3.4-11.8-9.2l-9.3-74.3c-.7-5.8,3.4-11,9.2-11.8h0c5.8-.7,11,3.4,11.8,9.1l9.3,74.3c.7,5.8-3.4,11-9.2,11.8h0v.1Z"/>
            </g>
            <g>
              <circle class="cls-20" cx="867.44" cy="323.25" r="15.7"/>
              <path class="cls-11" d="M868.14,329.15h0c-5.8.7-11-3.4-11.8-9.2l-9.3-74.3c-.7-5.8,3.4-11,9.2-11.8h0c5.8-.7,11,3.4,11.8,9.1l9.3,74.3c.7,5.8-3.4,11-9.2,11.8h0v.1Z"/>
            </g>
            <g>
              <circle class="cls-20" cx="938.24" cy="314.35" r="15.7"/>
              <path class="cls-11" d="M938.94,320.35h0c-5.8.7-11-3.4-11.8-9.2l-9.3-74.3c-.7-5.8,3.4-11,9.2-11.8h0c5.8-.7,11,3.4,11.8,9.1l9.3,74.3c.7,5.8-3.4,11-9.2,11.8h0v.1Z"/>
            </g>
            <g>
              <circle class="cls-20" cx="1008.95" cy="305.46" r="15.7"/>
              <path class="cls-11" d="M1009.74,311.45h0c-5.8.7-11-3.4-11.8-9.2l-9.3-74.3c-.7-5.8,3.4-11,9.2-11.8h0c5.8-.7,11,3.4,11.8,9.1l9.3,74.3c.7,5.8-3.4,11-9.2,11.8h0v.1Z"/>
            </g>
          </g>
          <path class="cls-13" d="M2089.94,209.65L745.04,67.75c-18.5-2-35.1,11.5-37.1,30l-182.6,1731.5c-2,18.5,11.5,35.1,30,37.1l1344.9,141.9c18.5,1.9,35.1-11.5,37.1-30l182.7-1731.5c1.9-18.5-11.5-35.1-30-37.1h-.1Z"/>
          <g>
            <path class="cls-8" d="M1981.94,1940.95l-1344.9-141.9c-18.5-1.9-32-18.6-30-37.1L789.74,30.45c2-18.5,18.6-32,37.1-30l1344.9,141.9c18.5,2,32,18.6,30,37.1l-182.7,1731.5c-1.9,18.5-18.6,32-37.1,30h0Z"/>
            <rect class="cls-3" x="750.63" y="525.31" width="449.2" height="203.4" transform="translate(249.72 1531.37) rotate(-84)"/>
            <rect class="cls-7" x="1103.31" y="663.49" width="224.6" height="203.4" transform="translate(327.55 1894.15) rotate(-84)"/>
            <rect class="cls-9" x="1316.66" y="647.34" width="310.7" height="203.4" transform="translate(573.21 2134.69) rotate(-84)"/>
            <g>
              <circle class="cls-3" cx="1701.42" cy="539.21" r="18"/>
              <path class="cls-2" d="M2014.14,591.95l-252.1-26.6c-9.8-1-17-9.9-16-19.7h0c1-9.8,9.9-17,19.7-16l252.1,26.6c9.8,1,17,9.9,16,19.7h0c-1,9.8-9.9,17-19.7,16Z"/>
              <path class="cls-2" d="M2007.34,656.55l-314.7-33.2c-9.8-1-17-9.9-16-19.7h0c1-9.8,9.9-17,19.7-16l314.7,33.2c9.8,1,17,9.9,16,19.7h0c-1,9.8-9.9,17-19.7,16h0Z"/>
            </g>
            <g>
              <circle class="cls-6" cx="1685.38" cy="691.34" r="18"/>
              <path class="cls-2" d="M1998.24,743.05l-252.1-26.6c-9.8-1-17-9.9-16-19.7h0c1-9.8,9.9-17,19.7-16l252.1,26.6c9.8,1,17,9.9,16,19.7h0c-1,9.8-9.9,17-19.7,16Z"/>
              <path class="cls-2" d="M1991.44,807.65l-314.7-33.2c-9.8-1-17-9.9-16-19.7h0c1-9.8,9.9-17,19.7-16l314.7,33.2c9.8,1,17,9.9,16,19.7h0c-1,9.8-9.9,17-19.7,16Z"/>
            </g>
            <g>
              <circle class="cls-9" cx="1669.54" cy="843.05" r="18"/>
              <path class="cls-2" d="M1982.34,894.05l-252.1-26.6c-9.8-1-17-9.9-16-19.7h0c1-9.8,9.9-17,19.7-16l252.1,26.6c9.8,1,17,9.9,16,19.7h0c-1,9.8-9.9,17-19.7,16Z"/>
              <path class="cls-2" d="M1975.44,958.65l-314.7-33.2c-9.8-1-17-9.9-16-19.7h0c1-9.8,9.9-17,19.7-16l314.7,33.2c9.8,1,17,9.9,16,19.7h0c-1,9.8-9.9,17-19.7,16Z"/>
            </g>
            <path class="cls-10" d="M1121.94,1049.05l-264.8-27.9c-13.9-1.5-24-14-22.5-27.9h0c1.5-13.9,14-24,27.9-22.6l264.8,27.9c13.9,1.5,24,14,22.6,27.9h0c-1.5,13.9-14,24-27.9,22.6h-.1Z"/>
            <path class="cls-2" d="M1936.04,1262.45l-1092.1-115.2c-13.9-1.5-24-14-22.5-27.9h0c1.5-13.9,14-24,27.9-22.6l1092.1,115.2c13.9,1.5,24,14,22.6,27.9h0c-1.5,13.9-14,24-27.9,22.6h-.1Z"/>
            <path class="cls-2" d="M1922.74,1388.55l-1092.1-115.2c-13.9-1.5-24-14-22.5-27.9h0c1.5-13.9,14-24,27.9-22.6l1092.1,115.2c13.9,1.5,24,14,22.6,27.9h0c-1.5,13.9-14,24-27.9,22.6h-.1Z"/>
            <path class="cls-2" d="M1909.44,1514.55l-1092.1-115.2c-13.9-1.5-24-14-22.5-27.9h0c1.5-13.9,14-24,27.9-22.6l1092.1,115.2c13.9,1.5,24,14,22.6,27.9h0c-1.5,13.9-14,24-27.9,22.6h-.1Z"/>
            <path class="cls-2" d="M1767.44,1627.05l-963.4-101.6c-13.9-1.5-24-14-22.5-27.9h0c1.5-13.9,14-24,27.9-22.6l963.4,101.6c13.9,1.5,24,14,22.6,27.9h0c-1.5,13.9-14,24-27.9,22.6h-.1Z"/>
            <path class="cls-10" d="M1227.94,230.65l-284.2-30c-13.9-1.5-24-14-22.5-27.9h0c1.5-13.9,14-24,27.9-22.5l284.2,30c13.9,1.5,24,14,22.6,27.9h0c-1.5,13.9-14,24-27.9,22.5h-.1Z"/>
            <path class="cls-2" d="M2024.24,426.15l-997.6-105.2c-13.9-1.5-24-14-22.5-27.9h0c1.5-13.9,14-24,27.9-22.5l997.6,105.2c13.9,1.5,24,14,22.6,27.9h0c-1.5,13.9-14,24-27.9,22.5h-.1Z"/>
          </g>
          <g class="cls-17">
            <path class="cls-18" d="M1941.53,1507.37c-5.2-59.34-28.15-110.88-67.95-153.37-53.87-57.28-119.31-86.32-194.79-86.32s-22.77.63-34.33,1.88c-55.76,6.1-105.77,29.4-148.8,69.2-39.62,36.75-66.69,82.74-78.7,133.29-11.65,49.66-8.34,102.37,9.59,152.57,18.11,50.56,52.44,93.31,102.19,127.02,52.71,35.59,112.86,50.11,178.65,42.85,56.47-6.18,106.58-28.86,148.8-67.32,56.2-51.36,85.43-117.43,86.77-196.4,0-2.06-.18-4.21-.36-6.54-.36-5.2-.63-10.94-1.08-16.76h0v-.09ZM1675.21,1747.25h-1.25c-56.2,0-108.82-21.78-148.17-61.22-41.32-41.41-64.09-97.17-63.91-157.05-.18-56.02,22.14-109.09,62.93-149.61,40.7-40.52,94.39-62.84,150.86-62.93h.45c118.32,0,214.95,95.73,215.22,213.34.36,121.19-94.66,216.66-216.21,217.46h.09Z"/>
            <circle class="cls-19" cx="1676.56" cy="1532.02" r="28.24"/>
          </g>
        </g>
      </g>
    </g>
  </g>
</svg>