<?xml version="1.0" encoding="UTF-8"?>
<svg id="Laag_1" xmlns="http://www.w3.org/2000/svg" version="1.1" viewBox="0 0 268.3 82">
  <!-- Generator: Adobe Illustrator 29.2.1, SVG Export Plug-In . SVG Version: 2.1.0 Build 116)  -->
  <defs>
    <style>
      .st0 {
        fill: none;
      }

      .st1 {
        fill: #99b1cb;
      }

      .st2 {
        fill: #0f1e3c;
      }
    </style>
  </defs>
  <rect class="st0" width="268.3" height="82"/>
  <g>
    <g>
      <path class="st2" d="M46,58.1v-4.3c0-.2-.1-.3-.3-.3h-1.9c-.2,0-.3.1-.3.3v1.9c0,.2-.1.3-.3.3h-1.9c-.2,0-.3.1-.3.3v1.9c0,.2.1.3.3.3h4.3c.2,0,.3-.1.3-.3Z"/>
      <path class="st2" d="M33.9,13.7h4.3c.2,0,.3.1.3.3v1.9c0,.2-.1.3-.3.3h-4.3c-.2,0-.3-.1-.3-.3v-1.9c0-.2.1-.3.3-.3Z"/>
      <path class="st2" d="M41.3,13.7h1.9c.2,0,.3.1.3.3v1.9c0,.2-.1.3-.3.3h-1.9c-.2,0-.3-.1-.3-.3v-1.9c0-.2.1-.3.3-.3Z"/>
      <path class="st2" d="M33.9,23.6h4.3c.2,0,.3-.1.3-.3v-1.9c0-.2-.1-.3-.3-.3h-1.9c-.2,0-.3-.1-.3-.3v-1.9c0-.2-.1-.3-.3-.3h-1.9c-.2,0-.3.1-.3.3v4.3c0,.2.1.3.3.3Z"/>
      <path class="st2" d="M23.9,18.7h4.3c.2,0,.3.1.3.3v1.9c0,.2.1.3.3.3h1.9c.2,0,.3-.1.3-.3v-1.9c0-.2-.1-.3-.3-.3h-1.9c-.2,0-.3-.1-.3-.3v-1.9c0-.2-.1-.3-.3-.3h-4.3c-.2,0-.3.1-.3.3v1.9c0,.2.1.3.3.3Z"/>
      <rect class="st2" x="18.7" y="21.1" width="2.5" height="2.5" rx=".3" ry=".3"/>
      <path class="st2" d="M23.9,21.1h1.9c.2,0,.3.1.3.3v1.9c0,.2-.1.3-.3.3h-1.9c-.2,0-.3-.1-.3-.3v-1.9c0-.2.1-.3.3-.3Z"/>
      <rect class="st2" x="21.2" y="28.6" width="2.5" height="2.5" rx=".3" ry=".3"/>
      <rect class="st2" x="21.2" y="38.5" width="2.5" height="2.5" rx=".3" ry=".3"/>
      <path class="st2" d="M26.4,43.5h1.9c.2,0,.3.1.3.3v1.9c0,.2-.1.3-.3.3h-1.9c-.2,0-.3-.1-.3-.3v-1.9c0-.2.1-.3.3-.3Z"/>
      <path class="st2" d="M31.4,46h1.9c.2,0,.3.1.3.3v4.3c0,.2-.1.3-.3.3h-1.9c-.2,0-.3-.1-.3-.3v-4.3c0-.2.1-.3.3-.3Z"/>
      <rect class="st2" x="18.7" y="43.5" width="5" height="2.5" rx=".3" ry=".3"/>
      <path class="st2" d="M16.5,50.9h4.3c.2,0,.3.1.3.3v1.9c0,.2-.1.3-.3.3h-4.3c-.2,0-.3-.1-.3-.3v-1.9c0-.2.1-.3.3-.3Z"/>
      <path class="st2" d="M23.9,50.9h4.3c.2,0,.3.1.3.3v1.9c0,.2-.1.3-.3.3h-4.3c-.2,0-.3-.1-.3-.3v-1.9c0-.2.1-.3.3-.3Z"/>
      <path class="st2" d="M23.9,63.4h4.3c.2,0,.3.1.3.3v1.9c0,.2-.1.3-.3.3h-4.3c-.2,0-.3-.1-.3-.3v-1.9c0-.2.1-.3.3-.3Z"/>
      <path class="st2" d="M14,33.6h1.9c.2,0,.3.1.3.3v1.9c0,.2-.1.3-.3.3h-1.9c-.2,0-.3-.1-.3-.3v-1.9c0-.2.1-.3.3-.3Z"/>
      <path class="st2" d="M19,33.6h1.9c.2,0,.3.1.3.3v1.9c0,.2-.1.3-.3.3h-1.9c-.2,0-.3-.1-.3-.3v-1.9c0-.2.1-.3.3-.3Z"/>
      <rect class="st2" x="18.7" y="55.9" width="2.5" height="2.5" rx=".3" ry=".3"/>
      <path class="st2" d="M33.9,65.8h1.9c.2,0,.3.1.3.3v1.9c0,.2-.1.3-.3.3h-1.9c-.2,0-.3-.1-.3-.3v-1.9c0-.2.1-.3.3-.3Z"/>
      <path class="st2" d="M31.1,26.4c0-.2-.1-.3-.3-.3h-4.3c-.2,0-.3.1-.3.3v1.9c0,.2.1.3.3.3h4.3c.2,0,.3.1.3.3v1.9c0,.2.1.3.3.3h4.3c.2,0,.3-.1.3-.3v-1.9c0-.2.1-.3.3-.3h1.9c.2,0,.3-.1.3-.3v-1.9c0-.2-.1-.3-.3-.3h-1.9c-.2,0-.3.1-.3.3v1.9c0,.2-.1.3-.3.3h-4.3c-.2,0-.3-.1-.3-.3v-1.9Z"/>
      <path class="st2" d="M33.9,38.5h1.9c.2,0,.3-.1.3-.3v-4.3c0-.2-.1-.3-.3-.3h-6.8c-.2,0-.3-.1-.3-.3v-1.9c0-.2-.1-.3-.3-.3h-1.9c-.2,0-.3.1-.3.3v1.9c0,.2.1.3.3.3h1.9c.2,0,.3.1.3.3v1.9c0,.2-.1.3-.3.3h-1.9c-.2,0-.3.1-.3.3v1.9c0,.2.1.3.3.3h4.3c.2,0,.3-.1.3-.3v-1.9c0-.2.1-.3.3-.3h1.9c.2,0,.3.1.3.3v1.9c0,.2.1.3.3.3Z"/>
      <path class="st2" d="M33.6,53.7c0-.2-.1-.3-.3-.3h-1.9c-.2,0-.3.1-.3.3v1.9c0,.2-.1.3-.3.3h-6.8c-.2,0-.3.1-.3.3v1.9c0,.2.1.3.3.3h1.9c.2,0,.3.1.3.3v1.9c0,.2.1.3.3.3h4.3c.2,0,.3-.1.3-.3v-4.3c0-.2.1-.3.3-.3h1.9c.2,0,.3-.1.3-.3v-1.9Z"/>
      <path class="st2" d="M40.7,63.4h-1.9c-.2,0-.3-.1-.3-.3v-4.3c0-.2-.1-.3-.3-.3h-4.3c-.2,0-.3.1-.3.3v1.9c0,.2.1.3.3.3h1.9c.2,0,.3.1.3.3v1.9c0,.2.1.3.3.3h1.9c.2,0,.3.1.3.3v1.9c0,.2.1.3.3.3h1.9c.2,0,.3-.1.3-.3v-1.9c0-.2-.1-.3-.3-.3Z"/>
      <path class="st2" d="M66.9,36.7c-.5-.9,0-2,.5-2.6,1.2-1.3,1.1-1.7.6-2.3-.2-.3-.4-.5-.5-1.2-.4-2.5-2.8-7.9-6-10.4-1.1-6.1-8.6-6.5-12.8-6.5-.2,0-.3.1-.3.3v1.9c0,.2-.1.3-.3.3h-1.9c-.2,0-.3.1-.3.3v1.9c0,.2-.1.3-.3.3h-4.3c-.2,0-.3.1-.3.3v1.9c0,.2.1.3.3.3h4.3c.2,0,.3-.1.3-.3v-1.9c0-.2.1-.3.3-.3h4.3c.2,0,.3.1.3.3v1.9c0,.2.1.3.3.3h1.9c.2,0,.3.1.3.3v1.9c0,.2-.1.3-.3.3h-4.3c-.2,0-.3-.1-.3-.3v-1.9c0-.2-.1-.3-.3-.3h-1.9c-.2,0-.3.1-.3.3v1.9c0,.2-.1.3-.3.3h-4.3c-.2,0-.3.1-.3.3v4.3c0,.2.1.3.3.3h1.9c.2,0,.3-.1.3-.3v-1.9c0-.2.1-.3.3-.3h4.3c.2,0,.3.1.3.3v1.9c0,.2-.1.3-.3.3h-1.9c-.2,0-.3.1-.3.3v1.9c0,.2-.1.3-.3.3h-1.9c-.2,0-.3.1-.3.3v1.9c0,.2-.1.3-.3.3h-1.9c-.2,0-.3-.1-.3-.3v-1.9c0-.2-.1-.3-.3-.3h-1.9c-.2,0-.3.1-.3.3v6.8c0,.2.1.3.3.3h1.9c.2,0,.3-.1.3-.3v-1.9c0-.2.1-.3.3-.3h1.9c.2,0,.3.1.3.3v1.9c0,.2-.1.3-.3.3h-1.9c-.2,0-.3.1-.3.3v1.9c0,.2.1.3.3.3h1.9c.2,0,.3.1.3.3v1.9c0,.2-.1.3-.3.3h-4.3c-.2,0-.3-.1-.3-.3v-1.9c0-.2-.1-.3-.3-.3h-4.3c-.2,0-.3.1-.3.3v1.9c0,.2.1.3.3.3h4.3c.2,0,.3.1.3.3v1.9c0,.2-.1.3-.3.3h-1.9c-.2,0-.3.1-.3.3v1.9c0,.2.1.3.3.3h1.9c.2,0,.3.1.3.3v4.3c0,.2-.1.3-.3.3h-1.9c-.2,0-.3.1-.3.3v1.9c0,.2.1.3.3.3h1.9c.2,0,.3-.1.3-.3v-1.9c0-.2.1-.3.3-.3h1.9c.2,0,.3-.1.3-.3v-4.3c0-.2-.1-.3-.3-.3h-1.9c-.2,0-.3-.1-.3-.3v-1.9c0-.2.1-.3.3-.3h4.3c.2,0,.3-.1.3-.3v-1.9c0-.2.1-.3.3-.3h1.9c.2,0,.3.1.3.3v1.9c0,.2.1.3.3.3h1.9c.2,0,.3.1.3.3v1.9c0,.2-.1.3-.3.3h-4.3c-.2,0-.3.1-.3.3v1.9c0,.2.1.3.3.3h4.3c.2,0,.3.1.3.3v6.8c0,.2.1.3.3.3h1.9c.2,0,.3-.1.3-.3v-1.9c0-.2.1-.3.3-.3h1.9c.2,0,.3.1.3.3v1.9c0,.2-.1.3-.3.3h-1.9c-.2,0-.3.1-.3.3v1.9c0,.2-.1.3-.3.3h-6.8c-.2,0-.3.1-.3.3v1.9c0,.2.1.3.3.3h1.9c.2,0,.3.1.3.3v1.9c0,.2-.1.3-.3.3h-1.9c-.2,0-.3.1-.3.3v1.9c0,.2.1.3.3.3h10.6c0-3.2,1-5.4,2.3-6.8,1.3-1.4,6-1.7,8.8-1.8,2.6,0,3.6-2.4,3.3-3.4-.3-1-.4-2.1.5-3,1-1.1.7-2.7-.8-2.8,2.4-1.2,1.8-1.4,1.2-2.9-.5-1.5.4-1.7,1.2-2.2,1.7-1,1.3-2.3.6-3.1-.9-1-3.9-4.5-4.5-5.6ZM51,26.4c0-.2.1-.3.3-.3h1.9c.2,0,.3.1.3.3v1.9c0,.2-.1.3-.3.3h-1.9c-.2,0-.3-.1-.3-.3v-1.9ZM48.8,38.5c-.2,0-.3.1-.3.3v1.9c0,.2-.1.3-.3.3h-1.9c-.2,0-.3-.1-.3-.3v-1.9c0-.2.1-.3.3-.3h1.9c.2,0,.3-.1.3-.3v-1.9c0-.2-.1-.3-.3-.3h-1.9c-.2,0-.3-.1-.3-.3v-1.9c0-.2.1-.3.3-.3h1.9c.2,0,.3.1.3.3v1.9c0,.2.1.3.3.3h4.3c.2,0,.3.1.3.3v1.9c0,.2-.1.3-.3.3h-4.3ZM51,45.7v-1.9c0-.2.1-.3.3-.3h1.9c.2,0,.3-.1.3-.3v-1.9c0-.2.1-.3.3-.3h1.9c.2,0,.3.1.3.3v1.9c0,.2-.1.3-.3.3h-1.9c-.2,0-.3.1-.3.3v1.9c0,.2-.1.3-.3.3h-1.9c-.2,0-.3-.1-.3-.3ZM55.9,53.1c0,.2-.1.3-.3.3h-4.3c-.2,0-.3-.1-.3-.3v-1.9c0-.2.1-.3.3-.3h4.3c.2,0,.3.1.3.3v1.9ZM58.4,30.8c0,.2-.1.3-.3.3h-1.9c-.2,0-.3-.1-.3-.3v-1.9c0-.2.1-.3.3-.3h1.9c.2,0,.3.1.3.3v1.9Z"/>
      <path class="st2" d="M123.5,29.5h0c-2.1-1.1-4.5-1.1-7.5-1.1h-8.5c-.2,0-.4.2-.4.4v1.9c0,.2.2.4.4.4h1.5v19.6h-1.5c-.2,0-.4.2-.4.4v1.9c0,.2.2.4.4.4h6.5c.2,0,.4-.2.4-.4v-1.9c0-.2-.2-.4-.4-.4h-1.5v-6.5c.7,0,2.6,0,3.3,0,3.4,0,6.1-.6,8-1.7,2.2-1.4,3.4-3.5,3.4-6.4s-1.3-5.4-3.6-6.7ZM121.4,40.4c-1.3.8-3.3,1.1-6.3,1.1s-2.3,0-2.7,0v-10.3h3.6c2.2,0,3.7.2,4.8.6,1.7.7,2.6,2.1,2.6,4.3s-.6,3.4-2,4.2Z"/>
      <path class="st2" d="M104.4,50.8h-1.6l-8.8-22.3c0-.2-.2-.3-.4-.3h-2.7c-.2,0-.3.1-.4.3l-8.9,22.3h-1.6c-.2,0-.4.2-.4.4v1.9c0,.2.2.4.4.4h6.6c.2,0,.4-.2.4-.4v-1.9c0-.2-.2-.4-.4-.4h-1.5l1.8-4.7h10.5l1.8,4.7h-1.5c-.2,0-.4.2-.4.4v1.9c0,.2.2.4.4.4h6.7c.2,0,.4-.2.4-.4v-1.9c0-.2-.2-.4-.4-.4ZM87.9,43.4l4.2-10.8,4.1,10.8h-8.4Z"/>
    </g>
    <g>
      <g>
        <rect class="st1" x="221.4" y="31.6" width="1" height="6.9"/>
        <path class="st1" d="M221.9,30.4c.4,0,.7-.3.7-.7s-.3-.7-.7-.7-.7.3-.7.7.3.7.7.7Z"/>
        <path class="st1" d="M228,31.5c-1.3,0-2.1.8-2.3,1.6h0v-1.5h-1v6.9h1v-3.5c0-1.5.8-2.5,2-2.5s1.1.2,1.3.5c.2.3.2.8.2,1.3v4.2h1v-4.4c0-.8,0-1.3-.3-1.7-.3-.6-.9-.9-1.9-.9Z"/>
        <path class="st1" d="M240.2,35.1c.1-.3.2-.7.2-1,0-1.4-.8-2.6-2.6-2.6s-3.3,1.5-3.3,3.6,1,3.5,3.1,3.5,2.5-.7,2.7-1.8l-.8-.4c-.2.9-.8,1.2-1.8,1.2-1.5,0-2.2-1-2.1-2.6h4.6ZM237.7,32.4c1.1,0,1.7.7,1.7,1.7s0,.2,0,.3h-3.7c.1-1.3.9-1.9,2.1-1.9Z"/>
        <path class="st1" d="M247.1,35.1c.1-.3.2-.7.2-1,0-1.4-.8-2.6-2.6-2.6s-3.3,1.5-3.3,3.6,1,3.5,3.1,3.5,2.5-.7,2.7-1.8l-.8-.4c-.2.9-.8,1.2-1.8,1.2-1.5,0-2.2-1-2.1-2.6h4.6ZM244.6,32.4c1.1,0,1.7.7,1.7,1.7s0,.2,0,.3h-3.7c.1-1.3.9-1.9,2.1-1.9Z"/>
        <path class="st1" d="M254.1,32.4c-.3-.6-.9-.9-1.9-.9-1.3,0-2.1.8-2.3,1.6h0v-1.5h-1v6.9h1v-3.5c0-1.5.8-2.5,2-2.5s1.1.2,1.3.5c.2.3.2.8.2,1.3v4.2h1v-4.4c0-.8,0-1.3-.3-1.7Z"/>
        <path class="st1" d="M147.3,46.8c-.4-.2-1-.4-1.6-.4-2,0-3.3,1.3-3.3,3.7s.9,3.4,2.6,3.4,2-.7,2.2-1.5h0v1.4h1v-10h-1v3.3ZM147.3,50.2c0,1.4-.7,2.4-2,2.4s-1.8-1-1.8-2.6.8-2.7,2.3-2.7,1,.1,1.5.3v2.5Z"/>
        <rect class="st1" x="150.5" y="46.5" width="1" height="6.9"/>
        <path class="st1" d="M151,43.9c-.4,0-.7.3-.7.7s.3.7.7.7.7-.3.7-.7-.3-.7-.7-.7Z"/>
        <rect class="st1" x="160.8" y="46.5" width="1" height="6.9"/>
        <path class="st1" d="M161.3,43.9c-.4,0-.7.3-.7.7s.3.7.7.7.7-.3.7-.7-.3-.7-.7-.7Z"/>
        <path class="st1" d="M166.4,52.7c-.9,0-1.1-.4-1.1-1.5s0-2.2,0-3.7h2.3v-.9h-2.3v-2.1s-1,0-1,0v2.1h-1.2v.9h1.1c0,1.5,0,2.9,0,3.9,0,1.5.5,2.2,2,2.2s1.3-.3,1.7-.7l-.5-.7c-.2.3-.6.5-1.1.5Z"/>
        <path class="st1" d="M171.3,46.4c-1.3,0-2.4.3-2.6,1.6l.8.4c.2-.9.8-1,1.7-1s1.4.3,1.4,1.4v.9c-.4,0-.9,0-1.5,0-1.8,0-2.8.7-2.8,2.1s1,1.9,2,1.9,2-.7,2.1-1.4h0v1.3h1v-4.9c0-1.5-.8-2.1-2.3-2.1ZM172.6,50.7c0,1.4-1.2,1.9-1.9,1.9s-1.3-.3-1.3-1.1.6-1.2,1.9-1.2,1,0,1.4,0v.3Z"/>
        <rect class="st1" x="175.8" y="43.5" width="1" height="10"/>
        <path class="st1" d="M184.1,50.1c.1-.3.2-.7.2-1,0-1.4-.8-2.6-2.6-2.6s-3.3,1.5-3.3,3.6,1,3.5,3.1,3.5,2.5-.7,2.7-1.8l-.8-.4c-.2.9-.8,1.2-1.8,1.2-1.5,0-2.2-1-2.1-2.6h4.6ZM181.6,47.3c1.1,0,1.7.7,1.7,1.7s0,.2,0,.3h-3.7c.1-1.3.9-1.9,2.1-1.9Z"/>
        <path class="st1" d="M195.4,51.7v.5c-.1,0-.1.1-.1.1h0c0-.2,0-.4-.1-.6l-1.7-5.2h-1.1l-1.7,5.2c0,.2-.1.3-.1.5h0c0,.1,0,.1,0,.1h0c0-.1-.1-.6-.1-.6l-1.4-5.2h-1.1l1.9,6.9h1.3l1.6-5c0-.2.1-.3.1-.4h0c0-.1,0-.1,0-.1h0c0,.2,0,.4.1.6l1.6,5h1.3l1.9-6.9h-1l-1.4,5.2Z"/>
        <path class="st1" d="M204.3,50.1c.1-.3.2-.7.2-1,0-1.4-.8-2.6-2.6-2.6s-3.3,1.5-3.3,3.6,1,3.5,3.1,3.5,2.5-.7,2.7-1.8l-.8-.4c-.2.9-.8,1.2-1.8,1.2-1.5,0-2.2-1-2.1-2.6h4.6ZM201.8,47.3c1.1,0,1.7.7,1.7,1.7s0,.2,0,.3h-3.7c.1-1.3.9-1.9,2.1-1.9Z"/>
        <path class="st1" d="M207.2,48.1h0v-1.6h-1v6.9h1v-3c0-1.4.5-2.9,1.8-2.9s.4,0,.5,0l.2-1.1c-.2,0-.4-.1-.6-.1-.9,0-1.6.7-1.8,1.7Z"/>
        <path class="st1" d="M215.6,50.1c.1-.3.2-.7.2-1,0-1.4-.8-2.6-2.6-2.6s-3.3,1.5-3.3,3.6,1,3.5,3.1,3.5,2.5-.7,2.7-1.8l-.8-.4c-.2.9-.8,1.2-1.8,1.2-1.5,0-2.2-1-2.1-2.6h4.6ZM213.1,47.3c1.1,0,1.7.7,1.7,1.7s0,.2,0,.3h-3.7c.1-1.3.9-1.9,2.1-1.9Z"/>
        <rect class="st1" x="217.4" y="43.5" width="1" height="10"/>
        <path class="st1" d="M225.1,46.8c-.4-.2-1-.4-1.6-.4-2,0-3.3,1.3-3.3,3.7s.9,3.4,2.6,3.4,2-.7,2.2-1.5h0v1.4h1v-10h-1v3.3ZM225.1,50.2c0,1.4-.7,2.4-2,2.4s-1.8-1-1.8-2.6.8-2.7,2.3-2.7,1,.1,1.5.3v2.5Z"/>
        <rect class="st1" x="133.7" y="24.9" width=".9" height="32.3"/>
        <path class="st1" d="M155.9,46.4c-1.6,0-2.8.8-2.8,2.4s.8,1.9,1.7,2.2c-.6.2-.9.8-.9,1.3s.3.8.8,1.1h0c-1.3.2-1.7,1-1.7,1.7s.9,1.8,3,1.8,3.6-1,3.6-2.2-.6-1.7-2.3-1.9l-1.5-.2c-.6,0-.8-.3-.8-.7s.3-.8,1.1-.9c1.5,0,2.7-.9,2.7-2.3s-.2-.9-.4-1.3h1.5v-.9c-1.7.1-1.9.1-2,.1-.6,0-1-.2-1.9-.2ZM155.4,53.5l1.9.2c.8,0,1.2.3,1.2.9,0,.8-1.1,1.3-2.5,1.3s-2-.5-2-1.2.7-1.1,1.5-1.3ZM155.9,50.2c-1.2,0-1.8-.6-1.8-1.5s.6-1.5,1.8-1.5,1.7.7,1.7,1.5-.7,1.5-1.7,1.5Z"/>
      </g>
      <g>
        <path class="st1" d="M142.9,28h1v5.1h0c.2-.8.9-1.6,2.3-1.6s2.5,1.3,2.5,3.2c0,2.8-1.3,4-3.3,4s-2-.3-2.6-.8v-9.9ZM143.9,37.3c.4.3,1,.5,1.6.5,1.4,0,2.2-1,2.2-3s-.4-2.3-1.8-2.3-2.1,1-2.1,2.6v2.3Z"/>
        <path class="st1" d="M151,35.1c0,1.6.6,2.6,2.1,2.6s1.6-.3,1.8-1.2l.8.4c-.2,1.1-1.1,1.8-2.7,1.8s-3.1-1.3-3.1-3.5,1.1-3.6,3.3-3.6,2.6,1.2,2.6,2.6,0,.8-.2,1h-4.6ZM151,34.3h3.7c0,0,0-.2,0-.3,0-1-.6-1.7-1.7-1.7s-1.9.6-2.1,1.9Z"/>
        <path class="st1" d="M157.5,36.5c0,.9.7,1.3,1.6,1.3s1.6-.3,1.6-1.1-.6-.9-1.7-1.2c-1.2-.4-2.2-.7-2.2-2.1s1.1-1.9,2.5-1.9,2.2.7,2.3,1.7l-.8.3c0-.8-.6-1.1-1.5-1.1s-1.5.3-1.5,1,.7,1,1.8,1.3c1.3.4,2.2.7,2.2,1.9s-1.1,2.1-2.7,2.1-2.4-.7-2.4-1.8l.8-.3Z"/>
        <path class="st1" d="M168.3,36.8c-.2,1-.9,1.8-2.6,1.8s-3-1.3-3-3.6,1.3-3.6,3.1-3.6,2.3.7,2.5,1.7l-.8.4c-.2-.9-.7-1.2-1.7-1.2s-2,.8-2,2.6.7,2.7,2,2.7,1.5-.4,1.7-1.2l.8.4Z"/>
        <path class="st1" d="M169.7,28h1v5.1h0c.2-.8.9-1.6,2.2-1.6s1.6.3,1.9.9c.2.4.3,1,.3,1.7v4.4h-1v-4.2c0-.5,0-1-.2-1.3-.2-.3-.6-.5-1.3-.5-1.2,0-2,1-2,2.5v3.5h-1v-10.5Z"/>
        <path class="st1" d="M177.8,35.1c0,1.6.6,2.6,2.1,2.6s1.6-.3,1.8-1.2l.8.4c-.2,1.1-1.1,1.8-2.7,1.8s-3.1-1.3-3.1-3.5,1.1-3.6,3.3-3.6,2.6,1.2,2.6,2.6,0,.8-.2,1h-4.6ZM177.9,34.3h3.7c0,0,0-.2,0-.3,0-1-.6-1.7-1.7-1.7s-1.9.6-2.1,1.9Z"/>
        <path class="st1" d="M184.2,31.6h1v1.6h0c.2-1,.9-1.7,1.8-1.7s.5,0,.6.1l-.2,1.1c-.1,0-.4,0-.5,0-1.3,0-1.8,1.5-1.8,2.9v3h-1v-6.9Z"/>
        <path class="st1" d="M188.8,31.6h1v1.5h0c.2-.8.9-1.6,2.2-1.6s1.2.2,1.5.5c.3.3.4.6.5,1.1h0c.2-.8,1-1.6,2.3-1.6s1.5.3,1.9.9c.2.4.3,1,.3,1.7v4.4h-1v-4.2c0-.5,0-1-.2-1.3-.2-.3-.6-.5-1.3-.5-1.2,0-1.9,1-1.9,2.5v3.5h-1v-4.2c0-.5,0-1-.2-1.3-.2-.3-.6-.5-1.2-.5-1.2,0-2,1-2,2.5v3.5h-1v-6.9Z"/>
        <path class="st1" d="M200.6,29.1c0-.4.3-.7.7-.7s.7.3.7.7-.3.7-.7.7-.7-.3-.7-.7ZM200.8,31.6h1v6.9h-1v-6.9Z"/>
        <path class="st1" d="M204,31.6h1v1.5h0c.2-.8,1-1.6,2.3-1.6s1.5.3,1.9.9c.2.4.3,1,.3,1.7v4.4h-1v-4.2c0-.5,0-1-.2-1.3-.2-.3-.6-.5-1.3-.5-1.2,0-2,1-2,2.5v3.5h-1v-6.9Z"/>
        <path class="st1" d="M212.5,38.2c-.5-.2-.8-.6-.8-1.1s.3-.9.9-1.1c-.9-.2-1.7-1-1.7-2.2s1.2-2.4,2.8-2.4,1.4.2,1.9.2.3,0,2-.1v.9h-1.5c.3.3.4.8.4,1.3,0,1.4-1.2,2.3-2.7,2.3-.7,0-1.1.3-1.1.7s.3.6.8.7l1.5.2c1.6.2,2.3.7,2.3,1.9s-1.3,2.2-3.6,2.2-3-.8-3-1.8.5-1.5,1.7-1.7h0ZM213.3,38.4c-.7.2-1.5.6-1.5,1.3s.6,1.2,2,1.2,2.5-.5,2.5-1.3-.4-.8-1.2-.9l-1.9-.2ZM213.8,35.3c1,0,1.7-.5,1.7-1.5s-.5-1.5-1.7-1.5-1.8.6-1.8,1.5.6,1.5,1.8,1.5Z"/>
      </g>
    </g>
  </g>
</svg>
