<?xml version="1.0" encoding="UTF-8"?>
<svg id="Laag_2" data-name="Laag 2" xmlns="http://www.w3.org/2000/svg" viewBox="0 0 145.73 145.73">
  <defs>
    <style>
      .cls-1 {
        fill: none;
        stroke: #13261f;
        stroke-miterlimit: 10;
        stroke-width: 4px;
      }

      .cls-2 {
        fill: #c2dfcf;
      }

      .cls-3 {
        fill: #13261f;
      }

      .cls-4 {
        fill: #e0efe7;
      }

      .cls-5 {
        fill: #1f1f1e;
      }

      .cls-6 {
        fill: #58b995;
      }
    </style>
  </defs>
  <g id="Laag_1-2" data-name="Laag 1">
    <g>
      <rect class="cls-1" x="2" y="2" width="141.73" height="141.73" rx="22.68" ry="22.68"/>
      <g id="Objects">
        <g>
          <path class="cls-6" d="M76.97,96.53l.66,7.64c.14,1.57-1.17,2.88-2.73,2.74l-2.59-.23c-.96-.09-1.79-.72-2.14-1.63-.73-1.93-2.12-5.47-3.79-8.96-2.43-.48-4.72-1.71-6.44-3.52-1.51-1.59-2.57-3.61-3.05-5.76l9.36-2.53,10.73,12.24Z"/>
          <path class="cls-3" d="M66.9,86.09c2.18,6.65,8.4,11.44,15.75,11.44,7.87,0,14.46-5.52,16.15-12.91,0,0-6.69-8.59-19.04-7.1-10.69,1.29-12.86,8.57-12.86,8.57h0Z"/>
          <path class="cls-4" d="M108.61,67.27c0-2.6-1.28-4.9-3.25-6.29,1.11-1.33,1.77-3.05,1.77-4.93,0-3.72-2.62-6.82-6.11-7.54.25-.86.38-1.76.38-2.69,0-5.32-4.29-9.64-9.59-9.64-.58,0-1.15.05-1.71.15-.84.15-1.64.41-2.38.77h0c-.2-5.14-4.41-9.25-9.58-9.25-2.11,0-4.05.68-5.63,1.84-2.44-2.49-5.84-4.04-9.59-4.04s-6.83,1.4-9.24,3.69c-1.38-.94-3.05-1.49-4.85-1.49-3.58,0-6.65,2.19-7.97,5.3-1.18-.59-2.52-.92-3.92-.92-4.92,0-8.9,4-8.9,8.94,0,.37.03.74.07,1.1-.29-.03-.57-.04-.87-.04-4.78,0-8.66,3.9-8.66,8.7,0,.78.1,1.54.3,2.26-2.03,1.38-3.36,3.72-3.36,6.37,0,1.72.56,3.31,1.52,4.6.05.07.1.14.16.2-.42.72-.73,1.51-.9,2.35-.1.5-.16,1.02-.16,1.56,0,4.25,3.43,7.7,7.66,7.7.55,0,1.08-.06,1.6-.17,1.12,2.86,3.89,4.88,7.13,4.88.5,0,.99-.05,1.47-.14.8-.16,1.55-.44,2.24-.82,0,.02.01.03.02.05,0,0,0,0,0,0,1.44,3.21,4.65,5.44,8.39,5.44,1.83,0,3.54-.54,4.97-1.47,2.64,2.07,6.52,3.37,10.84,3.37,4.87,0,9.18-1.66,11.79-4.2.59-.58,1.1-1.2,1.5-1.85,1.29,1,2.91,1.59,4.66,1.59s3.48-.63,4.79-1.69c0,0,0,0,0,0,.04-.03.08-.07.12-.1.48.62,1.06,1.18,1.72,1.7,2.22,1.71,5.38,2.78,8.89,2.78,6.7,0,12.14-3.91,12.14-8.74,0-1.06-.27-2.08-.75-3.02,1.99-1.39,3.29-3.7,3.29-6.32h0Z"/>
          <path class="cls-2" d="M69.81,37.06c-2.71.26-4.62,1.19-5.69,2.75-1.74,2.55-.75,6.1-.74,6.13.11.37.03.77-.21,1.07-.24.3-.61.47-1,.45-3.02-.16-5.24.53-6.61,2.04-2.13,2.37-1.59,6.09-1.58,6.13.05.34-.04.69-.27.96-.22.26-.55.42-.9.42-2.81.04-4.9.83-6.22,2.37-2.13,2.47-1.66,6.14-1.66,6.18.09.64-.36,1.24-1,1.34-3.31.52-5.65,2.04-6.96,4.54-1.79,3.41-1.14,7.31-.75,8.29h0c-.69.38-1.44.67-2.24.82-.7-1.9-1.11-6.46.87-10.22,1.51-2.87,4.14-4.78,7.64-5.58-.02-1.6.27-4.57,2.27-6.91,1.57-1.83,3.83-2.88,6.75-3.15-.03-1.66.26-4.56,2.25-6.77,1.61-1.8,3.97-2.75,7.02-2.86-.2-1.64-.19-4.32,1.34-6.58,1.48-2.18,3.98-3.46,7.44-3.8.66-.06,1.24.42,1.3,1.07.06.66-.42,1.24-1.07,1.3h0Z"/>
          <path class="cls-2" d="M73.75,81.07c-.41.66-.91,1.28-1.5,1.85-.87-.59-1.55-1.19-2.02-1.66-.53.32-1.24.69-2.1.95-1.72.52-4.35.73-7.15-1.25-.54-.38-.67-1.13-.28-1.67.38-.54,1.13-.67,1.67-.28,3.79,2.69,7.12-.11,7.26-.23.25-.22.57-.32.9-.29s.63.2.83.46c0,0,.82,1.09,2.39,2.11h0Z"/>
          <path class="cls-2" d="M87.78,79.39c-.77,1.5-2.14,2.7-2.74,3.18-.66-.51-1.24-1.08-1.72-1.7l.04-.03s1.59-1.15,2.3-2.54c.3-.59,1.02-.82,1.61-.52s.82,1.02.52,1.61h0Z"/>
          <path class="cls-2" d="M79.34,71.09c-1.21,0-2.14-.28-2.27-.32-.63-.2-.98-.87-.78-1.5.2-.63.87-.98,1.49-.78.03,0,1.08.32,2.2.17,1.34-.18,2.21-.93,2.64-2.29.2-.63.87-.98,1.5-.78s.98.87.78,1.5c-.72,2.27-2.38,3.67-4.69,3.95-.3.04-.6.05-.88.05h0Z"/>
          <path class="cls-2" d="M92.11,73.42c-.53,0-1.01-.35-1.15-.88-.17-.63.2-1.29.83-1.47.25-.07,2.37-.77,2.37-3.26s-2.04-3.47-2.19-3.54c-.45-.17-.75-.59-.77-1.07-.02-.49.27-.93.71-1.13.11-.05,2.89-1.39,2.89-4.71,0-2.59-2.54-3.35-2.64-3.38-.64-.17-1.01-.83-.84-1.46.17-.64.83-1.01,1.47-.84,1.52.41,4.4,2.13,4.4,5.68,0,2.88-1.43,4.74-2.64,5.79.98.88,2.01,2.36,2.01,4.66,0,3.5-2.69,5.17-4.12,5.56-.11.03-.21.04-.32.04h0Z"/>
          <path class="cls-2" d="M60.54,68.46c-.65,0-1.18-.53-1.19-1.18,0-.12-.02-2.95,2.19-4.9,1.49-1.32,3.56-1.89,6.18-1.73.24-1.39.91-3.63,2.75-5.24,1.76-1.56,4.15-2.18,7.1-1.85.66.07,1.13.66,1.05,1.32-.07.66-.66,1.13-1.32,1.05-2.24-.25-4,.17-5.24,1.26-2.01,1.76-2.09,4.76-2.09,4.79,0,.34-.16.67-.42.89-.26.22-.6.32-.94.28-2.47-.34-4.31,0-5.47,1.01-1.39,1.21-1.4,3.08-1.4,3.1.01.66-.52,1.2-1.18,1.21h-.02,0Z"/>
          <path class="cls-2" d="M29.79,59.95s-.03,0-.05,0c-.66-.03-1.17-.59-1.14-1.25,0-.09.11-2.24,1.5-4.37,1.17-1.79,3.47-3.87,7.88-4.15-.06-1.52.13-4.01,1.6-6.15,1.31-1.9,3.33-3.1,6-3.58.65-.12,1.27.32,1.38.97s-.32,1.27-.97,1.38c-2.01.36-3.5,1.22-4.44,2.56-1.68,2.43-1.1,5.72-1.09,5.75.07.35-.03.72-.26.99-.23.27-.57.43-.93.42-3.33-.06-5.73.96-7.12,3.02-1.07,1.58-1.16,3.23-1.17,3.24-.03.64-.56,1.14-1.19,1.14h0Z"/>
          <path class="cls-2" d="M22.53,68.15c-.12.56-.62.94-1.17.94-.08,0-.17,0-.25-.03-2.09-.45-3.71-1.45-4.81-2.34.17-.84.48-1.63.9-2.35h0c.7.63,2.18,1.87,4.41,2.35.65.14,1.06.78.92,1.42h0Z"/>
          <path class="cls-2" d="M89.26,42.64c-.19.49-.43.95-.68,1.35-.43.69-1.4.75-1.92.13h0c-.3-.37-.35-.88-.14-1.3.47-.92,1.19-2.8,1.2-5.71.75-.35,1.55-.61,2.38-.77.06,2.53-.22,4.65-.85,6.3h0Z"/>
          <path class="cls-6" d="M82.31,89.4c-2.72,0-5.44-.51-7.95-1.52-.61-.25-.91-.94-.67-1.55s.94-.91,1.55-.67c3.38,1.35,7.2,1.7,10.77.98.65-.13,1.28.29,1.41.93.13.65-.29,1.28-.93,1.41-1.37.28-2.77.41-4.17.41Z"/>
          <path class="cls-6" d="M83.12,93.56c-2.57,0-5.15-.46-7.56-1.36-.62-.23-.93-.92-.7-1.54.23-.62.92-.93,1.54-.7,2.62.98,5.47,1.37,8.25,1.15.65-.05,1.23.44,1.29,1.09.05.66-.44,1.23-1.09,1.29-.57.05-1.14.07-1.72.07h0Z"/>
        </g>
      </g>
      <g>
        <path class="cls-6" d="M127.62,116.56c-.25-2.85-1.35-5.33-3.27-7.37-2.59-2.75-5.73-4.15-9.36-4.15-.54,0-1.09.03-1.65.09-2.68.3-5.08,1.41-7.15,3.33-1.9,1.76-3.2,3.97-3.78,6.4-.56,2.38-.4,4.92.46,7.33.87,2.43,2.52,4.48,4.91,6.1,2.53,1.71,5.42,2.41,8.58,2.06,2.71-.3,5.12-1.39,7.15-3.24,2.7-2.47,4.1-5.64,4.17-9.44,0-.1,0-.2-.02-.32-.02-.25-.03-.53-.05-.81h0ZM114.82,128.08h-.06c-2.7,0-5.23-1.05-7.12-2.94-1.98-1.99-3.08-4.67-3.07-7.54,0-2.69,1.06-5.24,3.03-7.19,1.95-1.95,4.53-3.02,7.25-3.03h.02c5.69,0,10.33,4.6,10.34,10.25.02,5.82-4.55,10.41-10.39,10.45h0Z"/>
        <circle class="cls-5" cx="114.89" cy="117.74" r="1.36"/>
      </g>
    </g>
  </g>
</svg>