<?xml version="1.0" encoding="UTF-8"?>
<svg id="Laag_2" data-name="Laag 2" xmlns="http://www.w3.org/2000/svg" viewBox="0 0 1859.13 1707.17">
  <defs>
    <style>
      .cls-1 {
        fill: #f2e6dc;
      }

      .cls-2 {
        fill: #75413e;
      }

      .cls-3 {
        fill: #775856;
      }

      .cls-4 {
        opacity: .47;
      }

      .cls-4, .cls-5 {
        fill: #58b995;
      }

      .cls-6 {
        fill: #a1655c;
      }

      .cls-7 {
        fill: #d87355;
      }

      .cls-8 {
        fill: #142927;
      }

      .cls-9 {
        fill: #fff;
      }

      .cls-10 {
        fill: #fafaf1;
      }

      .cls-11 {
        opacity: .61;
      }

      .cls-12 {
        opacity: .25;
      }

      .cls-13 {
        fill: #1f1f1d;
      }

      .cls-14 {
        fill: #42312f;
      }

      .cls-15 {
        fill: #363e44;
      }
    </style>
  </defs>
  <g id="Illustration">
    <g>
      <circle class="cls-10" cx="917.07" cy="159.62" r="159.62"/>
      <g>
        <g>
          <g>
            <rect class="cls-4" x="0" y="434.56" width="1484.86" height="1125.46" transform="translate(1484.86 1994.57) rotate(180)"/>
            <rect class="cls-10" x="271.41" y="256.32" width="942.04" height="1391.69" transform="translate(1694.59 209.73) rotate(90)"/>
            <path class="cls-9" d="M714.48,1486.07c0,15.44,12.51,27.95,27.95,27.95s27.95-12.51,27.95-27.95-12.51-27.95-27.95-27.95-27.95,12.51-27.95,27.95Z"/>
          </g>
          <path class="cls-5" d="M0,1590.53H0c0,64.42,43.63,116.64,97.45,116.64h1300.34c53.82,0,97.45-52.22,97.45-116.64H0Z"/>
          <path class="cls-1" d="M605.63,1618.1c0,27.37,22.19,49.56,49.56,49.56h174.48c27.37,0,49.56-22.19,49.56-49.56h-273.61Z"/>
        </g>
        <g>
          <g class="cls-12">
            <polygon class="cls-5" points="1008.86 848.2 1091.06 719.54 994.9 569.99 1008.86 848.2"/>
            <polygon class="cls-5" points="1245.8 696.13 1094.62 717.52 998.47 567.98 1245.8 696.13"/>
          </g>
          <path class="cls-7" d="M776.44,1303.91c-.49,0-.91-.35-.99-.85-.34-2.24-.66-4.46-.95-6.66-.07-.55.31-1.05.86-1.12.54-.07,1.05.31,1.12.86.29,2.19.61,4.39.95,6.62.08.55-.29,1.06-.84,1.14-.05,0-.1.01-.15.01ZM774.12,1285.34c-.51,0-.95-.39-.99-.9-.39-4.04-.69-8.08-.9-12.01-.03-.55.39-1.02.95-1.05.54-.03,1.02.39,1.05.95.21,3.9.51,7.91.89,11.92.05.55-.35,1.04-.9,1.09-.03,0-.06,0-.1,0ZM772.85,1261.38c-.55,0-1-.44-1-.99,0-.67,0-1.33,0-1.99,0-3.38.07-6.76.21-10.05.02-.55.51-.98,1.04-.96.55.02.98.49.96,1.04-.14,3.26-.21,6.62-.21,9.97,0,.66,0,1.32,0,1.98,0,.55-.44,1-.99,1.01h0ZM773.9,1237.43s-.07,0-.1,0c-.55-.05-.95-.54-.9-1.09.4-4.04.93-8.06,1.56-11.94.09-.55.6-.91,1.15-.83.54.09.91.6.83,1.15-.63,3.84-1.15,7.81-1.55,11.82-.05.52-.49.9-.99.9ZM777.79,1213.8c-.08,0-.15,0-.23-.03-.54-.13-.87-.67-.74-1.2.93-3.95,2.01-7.86,3.2-11.62.17-.53.73-.82,1.26-.65.53.17.82.73.65,1.26-1.18,3.71-2.24,7.57-3.16,11.47-.11.46-.52.77-.97.77ZM785.06,1191c-.13,0-.26-.02-.38-.08-.51-.21-.75-.79-.54-1.31,1.54-3.74,3.25-7.43,5.07-10.95.25-.49.86-.68,1.35-.43.49.25.68.86.43,1.35-1.8,3.47-3.48,7.1-5,10.79-.16.39-.53.62-.92.62ZM796.09,1169.77c-.19,0-.37-.05-.54-.16-.46-.3-.6-.92-.3-1.38,2.17-3.38,4.53-6.69,7-9.83.34-.43.97-.51,1.4-.17.43.34.51.97.17,1.4-2.43,3.09-4.75,6.35-6.89,9.68-.19.3-.51.46-.84.46ZM810.87,1150.96c-.25,0-.5-.09-.69-.28-.4-.38-.42-1.01-.04-1.41,2.75-2.89,5.68-5.7,8.72-8.35.41-.36,1.05-.32,1.41.1.36.42.32,1.05-.1,1.41-2.99,2.61-5.88,5.38-8.59,8.22-.2.21-.46.31-.72.31ZM828.89,1135.2c-.31,0-.61-.14-.81-.41-.33-.45-.23-1.07.22-1.4,3.2-2.33,6.58-4.59,10.05-6.7.47-.29,1.09-.14,1.37.33.29.47.14,1.09-.33,1.37-3.42,2.08-6.75,4.31-9.91,6.61-.18.13-.38.19-.59.19ZM849.36,1122.7c-.36,0-.72-.2-.89-.55-.25-.49-.06-1.09.44-1.34,3.51-1.79,7.19-3.5,10.93-5.09.51-.22,1.1.02,1.31.53.22.51-.02,1.1-.53,1.31-3.7,1.57-7.34,3.27-10.81,5.04-.15.07-.3.11-.45.11ZM1096.87,1113.83s0,0-.01,0c-3.99-.04-8.04-.25-12.06-.62-.55-.05-.96-.54-.91-1.09.05-.55.53-.96,1.09-.91,3.96.36,7.97.57,11.9.61.55,0,1,.46.99,1.01,0,.55-.45.99-1,.99ZM1108.85,1113.47c-.52,0-.96-.4-1-.93-.04-.55.38-1.03.93-1.07,3.95-.28,7.93-.73,11.83-1.34.56-.09,1.06.29,1.14.83.08.55-.29,1.06-.83,1.14-3.95.62-7.99,1.07-11.99,1.36-.02,0-.05,0-.07,0ZM871.41,1113.3c-.41,0-.8-.26-.94-.67-.18-.52.09-1.09.61-1.28,3.71-1.31,7.58-2.55,11.48-3.68.53-.15,1.08.15,1.24.68.15.53-.15,1.09-.68,1.24-3.87,1.12-7.7,2.34-11.38,3.64-.11.04-.22.06-.33.06ZM1072.99,1111.66c-.06,0-.11,0-.17-.01-2.72-.46-5.48-1-8.21-1.6-1.19-.26-2.38-.52-3.6-.78-.54-.12-.88-.65-.77-1.19.11-.54.65-.88,1.19-.77,1.22.26,2.42.52,3.61.79,2.69.6,5.42,1.13,8.11,1.58.54.09.91.61.82,1.15-.08.49-.51.83-.99.83ZM1132.51,1109.77c-.45,0-.86-.31-.97-.76-.13-.54.2-1.08.74-1.21,3.83-.93,7.68-2.04,11.44-3.3.53-.18,1.09.11,1.26.63.17.52-.11,1.09-.63,1.27-3.81,1.27-7.71,2.4-11.6,3.34-.08.02-.16.03-.24.03ZM1049.46,1106.94c-.06,0-.12,0-.18-.02-3.89-.72-7.86-1.41-11.8-2.04-.55-.09-.92-.6-.83-1.15.09-.54.6-.92,1.14-.83,3.96.63,7.94,1.32,11.85,2.04.54.1.9.62.8,1.17-.09.48-.51.82-.98.82ZM894.45,1106.61c-.45,0-.86-.31-.97-.77-.13-.54.21-1.08.75-1.2,3.83-.9,7.8-1.73,11.79-2.47.54-.1,1.07.26,1.16.8.1.54-.26,1.06-.8,1.17-3.96.73-7.9,1.56-11.7,2.45-.08.02-.15.03-.23.03ZM1025.76,1103.16s-.09,0-.13,0c-3.95-.53-7.95-1.02-11.89-1.45-.55-.06-.95-.55-.89-1.1.06-.55.54-.95,1.1-.89,3.96.43,7.97.92,11.94,1.45.55.07.93.58.86,1.12-.07.5-.5.87-.99.87ZM918.06,1102.22c-.49,0-.92-.36-.99-.86-.08-.55.3-1.05.85-1.13,3.9-.55,7.93-1.04,11.97-1.44.56-.06,1.04.35,1.1.89.06.55-.34,1.04-.89,1.1-4.01.41-8.01.89-11.89,1.44-.05,0-.09,0-.14,0ZM1155.24,1102.19c-.39,0-.76-.23-.92-.61-.22-.51.02-1.1.53-1.31,3.62-1.55,7.24-3.27,10.75-5.12.49-.26,1.09-.07,1.35.42.26.49.07,1.09-.42,1.35-3.56,1.87-7.23,3.62-10.9,5.19-.13.06-.26.08-.39.08ZM1001.9,1100.56s-.06,0-.08,0c-3.98-.33-8-.61-11.94-.84-.55-.03-.97-.5-.94-1.05.03-.55.51-.97,1.05-.94,3.96.22,7.99.51,11.99.84.55.05.96.53.91,1.08-.04.52-.48.92-1,.92ZM941.96,1099.79c-.52,0-.96-.41-1-.94-.04-.55.38-1.03.93-1.06,3.94-.26,7.98-.45,12.02-.58.56-.02,1.01.42,1.03.97.02.55-.42,1.01-.97,1.03-4.02.13-8.04.32-11.96.57-.02,0-.04,0-.07,0ZM977.95,1099.21s-.02,0-.03,0c-3.98-.12-7.97-.17-11.88-.17-.55,0-1.05-.45-1.05-1s.4-1,.95-1c4.02,0,8.03.06,12.03.17.55.02.99.48.97,1.03-.02.54-.46.97-1,.97ZM1176.45,1091.05c-.33,0-.66-.17-.85-.47-.29-.47-.15-1.08.31-1.38,3.33-2.09,6.64-4.35,9.84-6.72.45-.33,1.07-.23,1.4.21.33.44.23,1.07-.21,1.4-3.24,2.39-6.59,4.68-9.96,6.8-.17.1-.35.15-.53.15ZM1195.72,1076.82c-.28,0-.56-.12-.76-.35-.36-.42-.31-1.05.11-1.41,2.99-2.56,5.94-5.28,8.77-8.07.39-.39,1.03-.38,1.41,0,.39.39.38,1.03,0,1.41-2.86,2.82-5.85,5.57-8.87,8.16-.19.16-.42.24-.65.24ZM1212.78,1060c-.24,0-.47-.08-.66-.25-.41-.37-.45-1-.09-1.41,2.62-2.96,5.17-6.06,7.59-9.21.34-.44.96-.52,1.4-.18.44.34.52.96.18,1.4-2.45,3.18-5.03,6.31-7.68,9.31-.2.22-.47.34-.75.34ZM1227.41,1040.99c-.19,0-.38-.05-.55-.17-.46-.31-.58-.93-.28-1.39,2.21-3.3,4.32-6.71,6.29-10.14.27-.48.88-.64,1.37-.37.48.27.64.89.37,1.37-1.99,3.47-4.13,6.92-6.36,10.26-.19.29-.51.44-.83.44ZM1239.36,1020.18c-.15,0-.29-.03-.44-.1-.5-.24-.7-.84-.46-1.34,1.74-3.58,3.37-7.25,4.83-10.91.2-.51.79-.76,1.3-.56.51.2.76.79.56,1.3-1.48,3.7-3.12,7.42-4.88,11.04-.17.36-.53.56-.9.56ZM1248.24,997.9c-.1,0-.2-.01-.3-.05-.53-.16-.82-.73-.66-1.25,1.2-3.83,2.24-7.71,3.1-11.51.12-.54.66-.88,1.2-.76.54.12.88.66.76,1.2-.87,3.86-1.92,7.78-3.14,11.67-.13.43-.53.7-.95.7ZM1253.47,974.5s-.09,0-.13,0c-.55-.07-.93-.57-.86-1.12.52-4,.84-7.99.94-11.85.01-.55.47-.99,1.03-.97.55.01.99.47.97,1.03-.1,3.93-.43,7.99-.96,12.06-.07.5-.5.87-.99.87ZM1254.21,950.55c-.53,0-.97-.42-1-.96-.18-4.01-.44-8.02-.8-11.92-.05-.55.36-1.04.91-1.09.56-.05,1.04.36,1.09.91.36,3.93.63,7.97.8,12.01.02.55-.4,1.02-.96,1.04-.01,0-.03,0-.04,0ZM1252.03,926.68c-.49,0-.92-.36-.99-.86-.56-3.95-1.23-7.91-1.99-11.76-.11-.54.24-1.07.79-1.18.54-.11,1.07.24,1.17.79.77,3.89,1.45,7.88,2.01,11.87.08.55-.3,1.05-.85,1.13-.05,0-.09.01-.14.01ZM1247.36,903.19c-.44,0-.85-.3-.97-.75-1-3.87-2.13-7.72-3.34-11.44-.17-.52.12-1.09.64-1.26.53-.17,1.09.12,1.26.64,1.23,3.76,2.37,7.65,3.38,11.56.14.53-.18,1.08-.72,1.22-.08.02-.17.03-.25.03ZM1239.92,880.42c-.4,0-.77-.24-.93-.63-1.48-3.7-3.1-7.37-4.8-10.9-.24-.5-.03-1.1.47-1.34.5-.24,1.1-.03,1.33.47,1.72,3.58,3.36,7.29,4.86,11.03.21.51-.04,1.09-.56,1.3-.12.05-.25.07-.37.07ZM1229.51,858.85c-.35,0-.68-.18-.87-.5-1.97-3.44-4.08-6.84-6.29-10.12-.31-.46-.19-1.08.27-1.39.46-.31,1.08-.19,1.39.27,2.23,3.31,4.38,6.76,6.37,10.24.27.48.11,1.09-.37,1.36-.16.09-.33.13-.5.13ZM1216.12,838.98c-.3,0-.59-.13-.79-.38-2.44-3.11-5.04-6.16-7.71-9.09-.37-.41-.34-1.04.06-1.41.41-.37,1.04-.34,1.41.06,2.71,2.96,5.33,6.05,7.81,9.2.34.43.27,1.06-.17,1.4-.18.14-.4.21-.62.21ZM1199.94,821.29c-.25,0-.49-.09-.69-.27-2.87-2.71-5.89-5.36-8.96-7.87-.43-.35-.49-.98-.14-1.41.35-.43.98-.49,1.41-.14,3.11,2.54,6.16,5.22,9.07,7.96.4.38.42,1.01.04,1.41-.2.21-.46.31-.73.31ZM1181.36,806.12c-.2,0-.4-.06-.57-.18-3.23-2.28-6.6-4.47-10-6.52-.47-.29-.62-.9-.34-1.37.29-.47.9-.62,1.37-.34,3.44,2.08,6.84,4.3,10.12,6.6.45.32.56.94.24,1.39-.19.28-.5.42-.82.42ZM1160.81,793.71c-.15,0-.31-.04-.46-.11-3.55-1.82-7.19-3.53-10.81-5.08-.51-.22-.74-.81-.53-1.31.22-.51.81-.74,1.31-.53,3.67,1.57,7.35,3.3,10.94,5.14.49.25.68.86.43,1.35-.18.35-.53.54-.89.54ZM1138.72,784.27c-.11,0-.22-.02-.32-.05-7.03-2.4-11.43-3.3-11.47-3.31-.54-.11-.89-.64-.78-1.18.11-.54.63-.89,1.18-.78.18.04,4.56.93,11.72,3.38.52.18.8.75.62,1.27-.14.42-.53.68-.95.68Z"/>
        </g>
      </g>
      <path class="cls-15" d="M1234.66,503.3c-1.39-.02-2.7-.01-4.01-.04-.55-.01-.99-.47-.98-1.02.01-.55.47-.99,1.02-.98,1.29.02,2.61.04,3.95.04h0c1.93,0,3.95-.03,5.99-.08,0,0,.02,0,.03,0,.54,0,.99.43,1,.98.01.55-.42,1.01-.98,1.02-2.06.05-4.09.08-6.03.08ZM1250.66,502.8c-.53,0-.97-.41-1-.94-.03-.55.39-1.02.94-1.06,3.19-.19,6.54-.43,9.95-.72.55-.05,1.03.36,1.08.91.05.55-.36,1.03-.91,1.08-3.43.29-6.8.54-10,.72-.02,0-.04,0-.06,0ZM1220.69,502.78s-.05,0-.08,0c-3.61-.29-6.98-.71-10.01-1.24-.54-.1-.91-.61-.81-1.16.1-.54.61-.91,1.16-.81,2.97.52,6.28.93,9.83,1.22.55.04.96.53.92,1.08-.04.52-.48.92-1,.92ZM1270.6,501.11c-.5,0-.94-.38-.99-.89-.06-.55.34-1.04.89-1.1,3.21-.34,6.54-.74,9.92-1.16.55-.07,1.05.32,1.12.87.07.55-.32,1.05-.87,1.12-3.39.43-6.73.82-9.95,1.17-.04,0-.07,0-.11,0ZM1201.09,499.07c-.11,0-.23-.02-.34-.06-3.79-1.37-6.81-3.08-8.98-5.09-.41-.38-.43-1.01-.05-1.41.37-.41,1.01-.43,1.41-.05,1.98,1.83,4.77,3.41,8.3,4.68.52.19.79.76.6,1.28-.15.41-.53.66-.94.66ZM1290.44,498.61c-.49,0-.92-.36-.99-.86-.08-.55.3-1.05.85-1.13,3.21-.46,6.53-.96,9.88-1.49.54-.09,1.06.29,1.14.83.09.55-.29,1.06-.83,1.14-3.35.53-6.69,1.03-9.91,1.49-.05,0-.1.01-.14.01ZM1310.21,495.5c-.48,0-.9-.34-.98-.83-.09-.54.27-1.06.82-1.15,3.23-.55,6.51-1.13,9.84-1.74.54-.1,1.06.26,1.16.8.1.54-.26,1.06-.8,1.16-3.34.61-6.62,1.19-9.86,1.75-.06,0-.11.01-.17.01ZM1329.89,491.9c-.47,0-.89-.33-.98-.81-.11-.54.25-1.07.79-1.17,3.23-.63,6.49-1.28,9.8-1.95.54-.11,1.07.24,1.18.78.11.54-.24,1.07-.78,1.18-3.31.68-6.59,1.33-9.82,1.95-.06.01-.13.02-.19.02ZM1349.49,487.91c-.46,0-.88-.32-.98-.79-.12-.54.23-1.07.77-1.19,3.22-.69,6.48-1.4,9.77-2.13.54-.12,1.07.22,1.19.76.12.54-.22,1.07-.76,1.19-3.29.73-6.55,1.44-9.78,2.13-.07.02-.14.02-.21.02ZM1188.39,485.38c-.55,0-1-.45-1-1v-.12c0-2.97.96-6.26,2.84-9.77.26-.49.87-.67,1.35-.41.49.26.67.87.41,1.35-1.73,3.22-2.61,6.19-2.61,8.82v.12c0,.55-.45,1-1,1ZM1369.01,483.56c-.46,0-.87-.31-.97-.78-.12-.54.21-1.08.75-1.2,3.21-.74,6.46-1.5,9.73-2.29.54-.13,1.08.2,1.21.74.13.54-.2,1.08-.74,1.2-3.28.78-6.53,1.55-9.75,2.29-.08.02-.15.03-.23.03ZM1388.47,478.92c-.45,0-.86-.31-.97-.76-.13-.54.2-1.08.73-1.21,3.21-.79,6.44-1.6,9.7-2.43.54-.14,1.08.19,1.22.72.14.54-.19,1.08-.72,1.22-3.26.83-6.5,1.64-9.71,2.43-.08.02-.16.03-.24.03ZM1407.86,474c-.44,0-.85-.3-.97-.75-.14-.53.18-1.08.72-1.22,3.2-.83,6.42-1.69,9.66-2.55.54-.14,1.08.17,1.22.71.14.53-.17,1.08-.71,1.22-3.25.87-6.47,1.72-9.68,2.56-.08.02-.17.03-.25.03ZM1427.19,468.83c-.44,0-.84-.29-.96-.74-.15-.53.17-1.08.7-1.23,3.19-.88,6.4-1.77,9.63-2.67.54-.15,1.08.16,1.23.69.15.53-.16,1.08-.69,1.23-3.23.91-6.45,1.8-9.64,2.67-.09.02-.18.04-.27.04ZM1196.82,467.79c-.23,0-.45-.08-.64-.23-.42-.36-.48-.99-.12-1.41,1.97-2.34,4.3-4.81,6.94-7.34.4-.38,1.03-.37,1.41.03.38.4.37,1.03-.03,1.41-2.58,2.48-4.87,4.89-6.79,7.18-.2.24-.48.36-.77.36ZM1446.45,463.43c-.44,0-.83-.29-.96-.72-.15-.53.15-1.08.69-1.24,3.18-.91,6.38-1.84,9.6-2.78.54-.16,1.09.15,1.24.68.16.53-.15,1.09-.68,1.24-3.22.94-6.42,1.87-9.61,2.79-.09.03-.18.04-.28.04ZM1465.64,457.81c-.43,0-.83-.28-.96-.71-.16-.53.14-1.09.67-1.24,3.17-.95,6.37-1.91,9.57-2.89.53-.16,1.09.14,1.25.66.16.53-.14,1.09-.67,1.25-3.21.98-6.4,1.94-9.58,2.89-.1.03-.19.04-.29.04ZM1211.15,453.88c-.29,0-.57-.12-.77-.36-.35-.42-.3-1.05.13-1.41,2.43-2.03,5.07-4.13,7.87-6.25.44-.33,1.07-.25,1.4.19.33.44.25,1.07-.19,1.4-2.77,2.1-5.39,4.19-7.79,6.2-.19.16-.41.23-.64.23ZM1484.78,451.97c-.43,0-.82-.27-.96-.7-.16-.53.13-1.09.66-1.25,3.17-.98,6.35-1.98,9.54-2.99.53-.17,1.09.13,1.25.65.17.53-.12,1.09-.65,1.25-3.2,1.01-6.38,2.01-9.55,2.99-.1.03-.2.05-.3.05ZM1503.85,445.94c-.42,0-.82-.27-.95-.69-.17-.53.12-1.09.65-1.26,3.16-1.02,6.33-2.05,9.51-3.09.53-.17,1.09.11,1.26.64.17.52-.11,1.09-.64,1.26-3.18,1.04-6.36,2.07-9.52,3.09-.1.03-.21.05-.31.05ZM1227.06,441.75c-.31,0-.62-.15-.82-.42-.32-.45-.21-1.08.24-1.39,2.62-1.84,5.41-3.75,8.29-5.66.46-.31,1.08-.18,1.39.28.31.46.18,1.08-.28,1.39-2.86,1.9-5.64,3.79-8.24,5.63-.18.12-.38.18-.58.18ZM1522.86,439.72c-.42,0-.81-.27-.95-.68-.17-.52.11-1.09.63-1.26,3.15-1.05,6.31-2.11,9.48-3.18.52-.18,1.09.1,1.27.63.18.52-.1,1.09-.63,1.27-3.17,1.07-6.33,2.13-9.49,3.18-.11.03-.21.05-.32.05ZM1541.81,433.31c-.42,0-.8-.26-.95-.67-.18-.52.1-1.09.62-1.27l1.76-.61c2.57-.89,5.13-1.78,7.68-2.67.53-.18,1.09.09,1.27.61.18.52-.09,1.09-.61,1.27-2.56.89-5.12,1.78-7.69,2.67l-1.76.61c-.11.04-.22.05-.33.05ZM1243.73,430.68c-.33,0-.66-.17-.85-.47-.29-.47-.15-1.08.31-1.38,2.74-1.72,5.61-3.49,8.53-5.26.47-.29,1.09-.13,1.37.34.29.47.13,1.09-.34,1.37-2.92,1.76-5.77,3.52-8.5,5.24-.17.1-.35.15-.53.15ZM1560.69,426.71c-.41,0-.8-.26-.94-.67-.18-.52.09-1.09.61-1.28,3.15-1.12,6.29-2.24,9.41-3.37.51-.19,1.09.08,1.28.6.19.52-.08,1.09-.6,1.28-3.13,1.13-6.27,2.25-9.42,3.37-.11.04-.22.06-.33.06ZM1260.85,420.34c-.34,0-.68-.18-.87-.5-.28-.48-.11-1.09.36-1.37,2.82-1.63,5.74-3.3,8.7-4.97.48-.27,1.09-.1,1.36.38.27.48.1,1.09-.38,1.36-2.95,1.66-5.87,3.32-8.68,4.95-.16.09-.33.14-.5.14ZM1579.51,419.93c-.41,0-.79-.25-.94-.66-.19-.52.08-1.09.6-1.28,3.14-1.15,6.27-2.3,9.38-3.46.52-.19,1.09.07,1.29.59.19.52-.07,1.09-.59,1.29-3.11,1.16-6.24,2.31-9.39,3.47-.11.04-.23.06-.34.06ZM1598.26,412.95c-.4,0-.78-.25-.94-.65-.2-.52.07-1.09.58-1.29,3.13-1.18,6.25-2.37,9.34-3.56.51-.2,1.09.06,1.29.58.2.52-.06,1.09-.58,1.29-3.1,1.19-6.22,2.38-9.35,3.56-.12.04-.24.06-.35.06ZM1278.3,410.54c-.35,0-.7-.19-.88-.52-.26-.49-.08-1.09.4-1.36,2.88-1.57,5.83-3.15,8.83-4.73.49-.26,1.09-.07,1.35.42.26.49.07,1.09-.42,1.35-2.99,1.58-5.93,3.16-8.81,4.72-.15.08-.32.12-.48.12ZM1616.94,405.78c-.4,0-.78-.24-.93-.64-.2-.51.05-1.09.57-1.3,3.12-1.22,6.22-2.44,9.3-3.66.51-.2,1.09.05,1.3.56.2.51-.05,1.09-.56,1.3-3.08,1.22-6.19,2.44-9.31,3.66-.12.05-.24.07-.36.07ZM1295.99,401.19c-.36,0-.71-.2-.89-.54-.25-.49-.06-1.09.43-1.35,2.93-1.51,5.9-3.02,8.93-4.54.5-.25,1.09-.05,1.34.45.25.49.05,1.09-.45,1.34-3.02,1.52-5.99,3.03-8.91,4.53-.15.08-.3.11-.46.11ZM1635.53,398.41c-.4,0-.77-.24-.93-.63-.21-.51.04-1.09.55-1.3,3.11-1.25,6.2-2.51,9.26-3.76.51-.21,1.09.03,1.3.55.21.51-.04,1.1-.55,1.3-3.07,1.26-6.16,2.51-9.27,3.77-.12.05-.25.07-.37.07ZM1313.87,392.21c-.37,0-.72-.21-.9-.56-.24-.5-.04-1.1.46-1.34,2.96-1.45,5.96-2.91,9.01-4.37.5-.24,1.1-.03,1.33.47.24.5.03,1.1-.47,1.33-3.04,1.46-6.04,2.91-8.99,4.36-.14.07-.29.1-.44.1ZM1654.05,390.83c-.39,0-.76-.23-.92-.62-.21-.51.03-1.1.54-1.31,3.1-1.29,6.17-2.58,9.22-3.87.5-.21,1.09.02,1.31.53.21.51-.02,1.1-.53,1.31-3.05,1.29-6.13,2.58-9.23,3.87-.13.05-.26.08-.38.08ZM1331.91,383.55c-.38,0-.74-.21-.91-.57-.23-.5-.02-1.1.48-1.33,2.99-1.41,6.02-2.81,9.08-4.22.5-.23,1.1-.01,1.33.49.23.5.01,1.1-.49,1.33-3.06,1.41-6.08,2.81-9.06,4.22-.14.06-.28.1-.42.1ZM1672.47,383.03c-.39,0-.76-.23-.92-.6-.22-.51.01-1.1.52-1.31,3.08-1.33,6.14-2.66,9.17-3.98.51-.22,1.1,0,1.32.51.22.51,0,1.1-.51,1.32-3.03,1.33-6.09,2.66-9.18,3.99-.13.06-.26.08-.39.08ZM1350.07,375.18c-.38,0-.75-.22-.91-.59-.23-.5,0-1.1.5-1.32,3.01-1.36,6.06-2.73,9.14-4.09.51-.23,1.1,0,1.32.51.22.5,0,1.1-.51,1.32-3.07,1.36-6.11,2.72-9.12,4.08-.13.06-.27.09-.41.09ZM1690.79,375c-.38,0-.75-.22-.91-.59-.23-.5,0-1.1.5-1.32,3.07-1.37,6.11-2.74,9.11-4.11.5-.23,1.1,0,1.32.5.23.5,0,1.1-.5,1.32-3.01,1.37-6.05,2.74-9.12,4.11-.13.06-.27.09-.41.09ZM1368.36,367.07c-.39,0-.75-.22-.92-.6-.22-.51.01-1.1.52-1.32,3.04-1.32,6.1-2.64,9.19-3.97.5-.22,1.09.02,1.31.53.22.51-.02,1.1-.53,1.31-3.09,1.32-6.15,2.64-9.18,3.96-.13.06-.27.08-.4.08ZM1709,366.71c-.38,0-.74-.21-.91-.58-.23-.5-.01-1.1.49-1.33,3.05-1.42,6.07-2.83,9.05-4.24.5-.24,1.09-.02,1.33.48.24.5.02,1.1-.48,1.33-2.98,1.41-6.01,2.83-9.06,4.25-.14.06-.28.09-.42.09ZM1386.75,359.2c-.39,0-.76-.23-.92-.61-.21-.51.03-1.1.53-1.31,3.05-1.28,6.13-2.57,9.24-3.85.51-.21,1.09.03,1.31.54.21.51-.03,1.1-.54,1.31-3.1,1.28-6.18,2.57-9.23,3.85-.13.05-.26.08-.39.08ZM1727.08,358.14c-.37,0-.73-.21-.9-.56-.24-.5-.03-1.1.46-1.34,3.04-1.47,6.03-2.93,8.98-4.39.5-.25,1.09-.04,1.34.45.25.49.04,1.09-.45,1.34-2.95,1.46-5.95,2.93-8.99,4.4-.14.07-.29.1-.43.1ZM1405.24,351.55c-.39,0-.77-.24-.93-.62-.21-.51.04-1.09.55-1.3,3.07-1.25,6.17-2.5,9.28-3.75.51-.2,1.09.04,1.3.56.21.51-.04,1.09-.56,1.3-3.11,1.25-6.2,2.49-9.27,3.74-.12.05-.25.07-.38.07ZM1745.01,349.26c-.37,0-.72-.2-.89-.55-.25-.49-.05-1.09.44-1.34,3.01-1.53,5.98-3.05,8.89-4.56.49-.25,1.09-.06,1.35.43.25.49.06,1.09-.43,1.35-2.92,1.52-5.89,3.04-8.91,4.57-.14.07-.3.11-.45.11ZM1423.81,344.11c-.4,0-.78-.24-.93-.63-.2-.51.05-1.09.56-1.3,3.09-1.22,6.19-2.43,9.32-3.64.52-.2,1.09.06,1.29.57.2.51-.06,1.09-.57,1.29-3.12,1.21-6.23,2.42-9.31,3.64-.12.05-.24.07-.37.07ZM1762.77,340.03c-.36,0-.7-.19-.88-.53-.26-.49-.08-1.09.41-1.35,2.99-1.6,5.92-3.18,8.78-4.76.49-.27,1.09-.09,1.36.39.27.48.09,1.09-.39,1.36-2.88,1.58-5.81,3.17-8.8,4.77-.15.08-.31.12-.47.12ZM1442.47,336.88c-.4,0-.78-.24-.93-.64-.2-.52.06-1.09.58-1.29,3.1-1.18,6.22-2.36,9.36-3.54.52-.19,1.09.07,1.29.58.19.52-.07,1.09-.58,1.29-3.13,1.18-6.25,2.36-9.35,3.54-.12.04-.24.07-.36.07ZM1780.29,330.39c-.35,0-.69-.18-.87-.51-.27-.48-.11-1.09.38-1.36,2.94-1.67,5.85-3.35,8.65-5,.48-.28,1.09-.12,1.37.35.28.48.12,1.09-.35,1.37-2.8,1.65-5.72,3.34-8.67,5.02-.16.09-.33.13-.49.13ZM1461.19,329.85c-.41,0-.79-.25-.94-.65-.19-.52.07-1.09.59-1.28,3.12-1.15,6.25-2.3,9.4-3.45.52-.19,1.09.08,1.28.6.19.52-.08,1.09-.6,1.28-3.14,1.14-6.27,2.29-9.39,3.44-.11.04-.23.06-.35.06ZM1479.99,323c-.41,0-.79-.25-.94-.66-.19-.52.08-1.09.6-1.28,3.13-1.12,6.27-2.24,9.43-3.35.52-.18,1.09.09,1.28.61s-.09,1.09-.61,1.28c-3.15,1.11-6.29,2.23-9.42,3.35-.11.04-.22.06-.34.06ZM1797.53,320.23c-.34,0-.66-.17-.85-.48-.29-.47-.14-1.09.33-1.38,2.9-1.78,5.74-3.56,8.46-5.3.46-.3,1.08-.16,1.38.3.3.46.16,1.08-.3,1.38-2.73,1.75-5.58,3.54-8.49,5.33-.16.1-.34.15-.52.15ZM1498.84,316.35c-.41,0-.8-.26-.94-.67-.18-.52.09-1.09.62-1.27l4.11-1.42c1.79-.62,3.57-1.23,5.35-1.84.52-.18,1.09.1,1.27.62.18.52-.1,1.09-.62,1.27-1.78.61-3.56,1.22-5.34,1.83l-4.11,1.42c-.11.04-.22.06-.33.06ZM1517.77,309.89c-.42,0-.81-.26-.95-.68-.18-.52.11-1.09.63-1.27,3.17-1.07,6.34-2.12,9.49-3.17.53-.17,1.09.11,1.26.64.17.52-.11,1.09-.63,1.26-3.15,1.04-6.31,2.1-9.48,3.16-.11.04-.21.05-.32.05ZM1814.36,309.41c-.32,0-.64-.15-.83-.44-.31-.46-.19-1.08.27-1.39,2.84-1.93,5.59-3.85,8.17-5.72.45-.32,1.07-.22,1.4.22.32.45.22,1.07-.22,1.4-2.6,1.88-5.36,3.81-8.22,5.75-.17.12-.37.17-.56.17ZM1536.76,303.6c-.42,0-.81-.27-.95-.69-.17-.53.12-1.09.64-1.26,3.19-1.04,6.36-2.06,9.52-3.07.53-.17,1.09.12,1.26.65.17.53-.12,1.09-.65,1.26-3.16,1.01-6.33,2.03-9.51,3.07-.1.03-.21.05-.31.05ZM1830.56,297.66c-.3,0-.59-.13-.79-.38-.34-.43-.26-1.06.17-1.4,2.75-2.16,5.33-4.29,7.67-6.34.42-.36,1.05-.32,1.41.09.36.42.32,1.05-.09,1.41-2.37,2.07-4.98,4.23-7.75,6.41-.18.14-.4.21-.62.21ZM1555.81,297.51c-.43,0-.82-.27-.95-.7-.17-.53.13-1.09.65-1.25,3.2-1,6.38-2,9.55-2.97.53-.16,1.09.13,1.25.66.16.53-.13,1.09-.66,1.25-3.17.98-6.35,1.97-9.55,2.97-.1.03-.2.05-.3.05ZM1574.93,291.62c-.43,0-.83-.28-.96-.71-.16-.53.14-1.09.67-1.25,3.21-.97,6.41-1.93,9.59-2.87.53-.16,1.09.15,1.24.67.16.53-.15,1.09-.67,1.24-3.18.94-6.37,1.9-9.58,2.87-.1.03-.19.04-.29.04ZM1594.11,285.93c-.43,0-.83-.28-.96-.72-.15-.53.15-1.09.68-1.24,3.22-.94,6.43-1.86,9.62-2.77.53-.15,1.08.16,1.24.69.15.53-.16,1.08-.69,1.24-3.19.91-6.39,1.83-9.61,2.76-.09.03-.19.04-.28.04ZM1845.54,284.43c-.25,0-.5-.09-.7-.28-.4-.39-.4-1.02-.02-1.41,2.52-2.59,4.69-5.1,6.44-7.46.33-.44.96-.54,1.4-.21.44.33.54.96.21,1.4-1.8,2.43-4.03,5.01-6.61,7.66-.2.2-.46.3-.72.3ZM1613.35,280.46c-.44,0-.84-.29-.96-.73-.15-.53.16-1.08.7-1.23,3.24-.9,6.45-1.78,9.65-2.65.53-.14,1.08.17,1.23.7.14.53-.17,1.08-.7,1.23-3.19.87-6.41,1.75-9.64,2.65-.09.02-.18.04-.27.04ZM1632.65,275.21c-.44,0-.85-.3-.97-.74-.14-.53.18-1.08.71-1.22,3.25-.86,6.48-1.71,9.68-2.53.54-.14,1.08.18,1.22.72.14.53-.18,1.08-.72,1.22-3.2.83-6.42,1.67-9.67,2.53-.09.02-.17.03-.26.03ZM1652.02,270.22c-.45,0-.85-.3-.97-.76-.13-.54.19-1.08.73-1.21,3.26-.82,6.5-1.62,9.72-2.4.53-.13,1.08.2,1.21.73.13.54-.2,1.08-.74,1.21-3.21.78-6.44,1.58-9.7,2.4-.08.02-.16.03-.24.03ZM1856.97,268.24c-.12,0-.23-.02-.35-.06-.52-.19-.78-.77-.59-1.29.73-1.96,1.09-3.81,1.09-5.51,0-1.23-.19-2.41-.57-3.52-.18-.52.1-1.09.62-1.27.52-.18,1.09.1,1.27.62.45,1.31.68,2.72.68,4.17,0,1.94-.41,4.03-1.22,6.21-.15.4-.53.65-.94.65ZM1671.45,265.48c-.45,0-.86-.31-.97-.77-.13-.54.21-1.08.74-1.2,3.28-.77,6.53-1.53,9.75-2.26.53-.12,1.07.21,1.2.75.12.54-.21,1.07-.75,1.2-3.21.73-6.46,1.48-9.74,2.26-.08.02-.15.03-.23.03ZM1690.96,261.04c-.46,0-.87-.32-.98-.79-.12-.54.22-1.07.76-1.19,3.3-.72,6.56-1.42,9.79-2.1.54-.11,1.07.23,1.18.77.11.54-.23,1.07-.77,1.18-3.22.68-6.48,1.38-9.77,2.1-.07.02-.14.02-.21.02ZM1710.54,256.93c-.47,0-.88-.33-.98-.8-.11-.54.24-1.07.78-1.18,3.32-.66,6.59-1.3,9.83-1.92.54-.1,1.07.25,1.17.8.1.54-.25,1.07-.8,1.17-3.23.61-6.5,1.25-9.81,1.91-.07.01-.13.02-.2.02ZM1856.48,256.35c-.34,0-.67-.17-.86-.48-1.4-2.31-3.8-4.31-7.14-5.94-.5-.24-.7-.84-.46-1.34.24-.5.84-.7,1.34-.46,3.69,1.81,6.37,4.06,7.97,6.71.29.47.13,1.09-.34,1.37-.16.1-.34.14-.52.14ZM1730.19,253.2c-.48,0-.9-.34-.98-.82-.1-.54.26-1.06.81-1.16,3.34-.6,6.63-1.16,9.87-1.7.56-.09,1.06.28,1.15.82.09.54-.28,1.06-.82,1.15-3.23.54-6.51,1.1-9.84,1.7-.06.01-.12.02-.18.02ZM1749.93,249.93c-.49,0-.91-.35-.99-.85-.08-.55.29-1.06.84-1.14,3.35-.51,6.69-.99,9.92-1.44.55-.08,1.05.31,1.13.85.07.55-.31,1.05-.86,1.13-3.21.44-6.54.92-9.89,1.43-.05,0-.1.01-.15.01ZM1769.75,247.22c-.5,0-.93-.37-.99-.88-.07-.55.33-1.05.87-1.11,3.39-.41,6.74-.77,9.96-1.09.55-.05,1.04.35,1.09.9.05.55-.35,1.04-.9,1.09-3.21.32-6.55.69-9.92,1.09-.04,0-.08,0-.12,0ZM1839.47,246.83c-.07,0-.15,0-.23-.03-2.9-.67-6.18-1.21-9.75-1.6-.55-.06-.94-.56-.88-1.1.06-.55.56-.94,1.1-.88,3.65.41,7,.96,9.97,1.64.54.12.87.66.75,1.2-.11.46-.52.78-.97.78ZM1789.66,245.25c-.52,0-.96-.4-1-.92-.04-.55.37-1.03.92-1.07,3.44-.26,6.81-.47,10.01-.62.6-.03,1.02.4,1.05.95.03.55-.4,1.02-.95,1.05-3.19.15-6.54.35-9.96.61-.03,0-.05,0-.08,0ZM1819.64,244.48s-.03,0-.04,0c-3.12-.12-6.47-.17-9.95-.14,0,0,0,0,0,0-.55,0-1-.44-1-.99,0-.55.44-1,.99-1.01,3.51-.03,6.89.01,10.05.14.55.02.98.49.96,1.04-.02.54-.46.96-1,.96Z"/>
      <path class="cls-15" d="M1426.29,198.23c-1.3,0-2.59,0-3.89,0-.55,0-1-.45-1-1,0-.55.45-1,1-1h0c1.29,0,2.58,0,3.88,0h1.12s0,0,0,0c.55,0,1,.45,1,1,0,.55-.45,1-1,1h-1.12ZM1432.41,198.21c-.55,0-1-.44-1-.99,0-.55.44-1,.99-1.01,1.66,0,3.33-.02,5-.04h0c.55,0,.99.44,1,.99,0,.55-.44,1-.99,1.01-1.67.02-3.34.03-5,.04h0ZM1417.41,198.19s0,0,0,0c-1.68-.01-3.34-.03-5.01-.05-.55,0-.99-.46-.99-1.01,0-.55.41-1,1.01-.99,1.66.02,3.32.04,5,.05.55,0,1,.46.99,1.01,0,.55-.45.99-1,.99ZM1442.41,198.11c-.55,0-.99-.44-1-.99,0-.55.43-1.01.99-1.01,1.66-.02,3.33-.05,5-.08,0,0,.01,0,.02,0,.54,0,.99.44,1,.98,0,.55-.43,1.01-.98,1.02-1.67.03-3.34.06-5,.08,0,0,0,0-.01,0ZM1407.41,198.07s-.01,0-.02,0c-1.67-.03-3.34-.06-5-.1-.55-.01-.99-.47-.98-1.02.01-.54.46-.98,1-.98,0,0,.01,0,.02,0,1.66.04,3.32.07,5,.1.55,0,.99.47.98,1.02,0,.55-.46.98-1,.98ZM1452.41,197.93c-.54,0-.99-.43-1-.98-.01-.55.43-1.01.98-1.02,1.66-.04,3.33-.08,5-.12.5-.01,1.01.42,1.03.97.01.55-.42,1.01-.97,1.03-1.67.04-3.34.09-5,.12,0,0-.02,0-.02,0ZM1397.41,197.84s-.02,0-.03,0c-1.68-.05-3.34-.09-5-.15-.55-.02-.99-.48-.97-1.03.02-.55.46-.99,1.03-.97,1.66.05,3.32.1,4.99.15.55.01.99.47.97,1.03-.01.54-.46.97-1,.97ZM1462.41,197.67c-.54,0-.98-.43-1-.97-.02-.55.42-1.01.97-1.03,1.66-.05,3.32-.11,4.99-.16.01,0,.02,0,.04,0,.54,0,.98.43,1,.97.02.55-.41,1.01-.96,1.03-1.67.06-3.34.11-5,.16,0,0-.02,0-.03,0ZM1387.41,197.52s-.03,0-.04,0c-1.68-.06-3.34-.13-5-.2-.55-.02-.98-.49-.96-1.04.02-.55.51-.98,1.04-.96,1.66.07,3.32.14,4.99.2.55.02.98.48.96,1.04-.02.54-.46.96-1,.96ZM1472.4,197.32c-.53,0-.98-.42-1-.96-.02-.55.41-1.02.96-1.04,1.66-.06,3.32-.13,4.99-.2.57-.02,1.02.4,1.04.96.02.55-.4,1.02-.96,1.04-1.67.07-3.34.14-5,.2-.01,0-.03,0-.04,0ZM1377.42,197.1s-.03,0-.05,0c-1.68-.08-3.34-.17-5-.25-.55-.03-.97-.5-.95-1.05.03-.55.5-.97,1.05-.94,1.65.09,3.32.17,4.99.25.55.03.98.5.95,1.05-.03.54-.47.95-1,.95ZM1482.39,196.89c-.53,0-.97-.42-1-.95-.03-.55.4-1.02.95-1.05,1.66-.08,3.32-.16,4.99-.24.54-.03,1.02.4,1.05.95.03.55-.4,1.02-.95,1.05-1.67.08-3.34.17-5,.24-.02,0-.03,0-.05,0ZM1367.43,196.56s-.04,0-.06,0c-1.68-.1-3.34-.2-5-.31-.55-.04-.97-.51-.93-1.06.04-.55.5-.97,1.06-.93,1.65.11,3.31.21,4.99.31.55.03.97.51.94,1.06-.03.53-.47.94-1,.94ZM1492.38,196.38c-.53,0-.97-.41-1-.95-.03-.55.39-1.02.94-1.05,1.66-.09,3.32-.18,4.99-.28.57-.03,1.02.39,1.06.94.03.55-.39,1.02-.94,1.06-1.67.1-3.33.19-5,.28-.02,0-.04,0-.06,0ZM1357.45,195.91s-.05,0-.07,0c-1.68-.12-3.34-.24-4.99-.37-.55-.04-.96-.52-.92-1.07.04-.55.53-.96,1.07-.92,1.65.13,3.31.25,4.98.37.55.04.97.52.93,1.07-.04.53-.48.93-1,.93ZM1502.36,195.8c-.52,0-.96-.41-1-.94-.03-.55.38-1.03.94-1.06,1.47-.09,2.95-.19,4.42-.28l.57-.04c.51-.03,1.03.38,1.06.93.04.55-.38,1.03-.93,1.06l-.57.04c-1.48.1-2.95.19-4.43.28-.02,0-.04,0-.06,0ZM1512.34,195.14c-.52,0-.96-.4-1-.93-.04-.55.38-1.03.93-1.07,1.66-.12,3.32-.24,4.97-.36.56-.04,1.03.37,1.07.92.04.55-.37,1.03-.92,1.07-1.66.12-3.32.24-4.98.36-.02,0-.05,0-.07,0ZM1347.48,195.13s-.06,0-.08,0c-1.67-.14-3.34-.29-4.99-.44-.55-.05-.96-.54-.91-1.09.05-.55.53-.96,1.09-.9,1.65.15,3.3.3,4.97.44.55.05.96.53.91,1.08-.04.52-.48.92-1,.92ZM1522.3,194.4c-.52,0-.96-.4-1-.92-.04-.55.37-1.03.92-1.07,1.67-.13,3.33-.26,4.98-.4.58-.04,1.03.36,1.08.92s-.37,1.03-.91,1.08c-1.66.14-3.32.27-4.99.4-.03,0-.05,0-.08,0ZM1337.52,194.22s-.07,0-.1,0c-1.67-.16-3.33-.33-4.98-.51-.55-.06-.95-.55-.89-1.1.06-.55.54-.95,1.1-.89,1.64.17,3.3.34,4.97.51.55.05.95.54.9,1.09-.05.52-.49.9-.99.9ZM1532.27,193.58c-.51,0-.95-.39-1-.91-.05-.55.36-1.03.91-1.08,1.67-.14,3.32-.29,4.98-.44.58-.05,1.04.36,1.09.91.05.55-.36,1.04-.91,1.09-1.66.15-3.32.3-4.99.44-.03,0-.06,0-.09,0ZM1327.57,193.17s-.08,0-.11,0c-1.67-.19-3.33-.39-4.97-.59-.55-.07-.94-.57-.87-1.11.07-.55.56-.94,1.11-.87,1.64.2,3.29.4,4.96.58.55.06.94.56.88,1.11-.06.51-.49.89-.99.89ZM1542.23,192.69c-.51,0-.95-.39-.99-.91-.05-.55.35-1.04.9-1.09,1.66-.16,3.32-.32,4.97-.48.56-.05,1.04.35,1.09.9.05.55-.35,1.04-.9,1.09-1.66.16-3.32.32-4.98.48-.03,0-.06,0-.09,0ZM1317.65,191.95s-.09,0-.13,0c-1.67-.22-3.33-.44-4.96-.67-.55-.08-.93-.58-.85-1.13.08-.55.58-.93,1.13-.85,1.63.23,3.28.45,4.95.67.55.07.93.57.86,1.12-.07.5-.5.87-.99.87ZM1552.19,191.71c-.51,0-.94-.38-.99-.9-.06-.55.34-1.04.89-1.1,1.66-.17,3.32-.34,4.97-.52.55-.06,1.04.34,1.1.89.06.55-.34,1.04-.89,1.1-1.65.18-3.31.35-4.98.52-.03,0-.07,0-.1,0ZM1562.13,190.66c-.5,0-.94-.38-.99-.89-.06-.55.34-1.04.88-1.1,1.66-.18,3.32-.37,4.96-.56.55-.06,1.04.33,1.11.88.06.55-.33,1.04-.88,1.11-1.65.19-3.31.38-4.97.56-.04,0-.07,0-.11,0ZM1307.74,190.56s-.1,0-.15-.01c-1.67-.25-3.32-.51-4.95-.77-.55-.09-.92-.6-.83-1.15.09-.55.6-.92,1.15-.83,1.62.26,3.27.52,4.93.77.55.08.92.59.84,1.14-.08.5-.5.85-.99.85ZM1572.07,189.52c-.5,0-.93-.37-.99-.88-.07-.55.33-1.05.88-1.11,1.66-.2,3.31-.4,4.96-.6.55-.07,1.05.32,1.11.87.07.55-.32,1.05-.87,1.11-1.65.2-3.31.4-4.97.6-.04,0-.08,0-.12,0ZM1297.87,188.98c-.06,0-.11,0-.17-.01-1.67-.29-3.31-.58-4.94-.88-.54-.1-.9-.62-.8-1.16.1-.54.61-.9,1.17-.8,1.62.3,3.25.59,4.91.87.54.09.91.61.82,1.16-.08.49-.51.83-.98.83ZM1582,188.3c-.5,0-.93-.37-.99-.87-.07-.55.32-1.05.87-1.12,1.66-.21,3.31-.43,4.96-.64.55-.07,1.05.31,1.12.86.07.55-.31,1.05-.86,1.12-1.65.22-3.3.43-4.96.65-.04,0-.09,0-.13,0ZM1288.03,187.16c-.06,0-.13,0-.19-.02-1.66-.33-3.3-.66-4.91-1.01-.54-.11-.88-.65-.77-1.19.12-.54.65-.89,1.19-.77,1.6.34,3.23.67,4.88,1,.54.11.89.63.79,1.17-.09.48-.51.81-.98.81ZM1591.91,186.98c-.49,0-.92-.36-.99-.86-.07-.55.31-1.05.86-1.13,1.66-.23,3.31-.46,4.95-.69.54-.08,1.05.3,1.13.85.08.55-.3,1.05-.85,1.13-1.65.23-3.3.46-4.96.69-.05,0-.09,0-.14,0ZM1601.82,185.58c-.49,0-.92-.36-.99-.86-.08-.55.3-1.05.84-1.13,1.65-.24,3.3-.49,4.94-.73.54-.08,1.06.29,1.14.84.08.55-.29,1.06-.84,1.14-1.64.25-3.29.49-4.95.74-.05,0-.1.01-.15.01ZM1278.25,185.08c-.07,0-.15,0-.22-.03-1.66-.38-3.29-.76-4.88-1.16-.54-.13-.86-.67-.73-1.21.13-.54.68-.86,1.21-.73,1.59.39,3.2.77,4.85,1.15.54.12.88.66.75,1.2-.11.46-.52.78-.97.78ZM1611.71,184.09c-.48,0-.91-.35-.99-.85-.09-.55.29-1.06.83-1.14,1.65-.26,3.3-.52,4.93-.78.54-.09,1.06.28,1.15.83.09.55-.28,1.06-.83,1.15-1.64.26-3.29.53-4.94.78-.05,0-.1.01-.16.01ZM1268.53,182.69c-.09,0-.17-.01-.26-.03-1.65-.44-3.26-.89-4.84-1.34-.53-.15-.84-.71-.68-1.24.15-.53.71-.84,1.24-.68,1.56.45,3.16.9,4.8,1.33.53.14.85.69.71,1.22-.12.45-.52.74-.96.74ZM1621.58,182.5c-.48,0-.9-.35-.99-.84-.09-.54.28-1.06.82-1.15,1.65-.27,3.29-.55,4.93-.83.55-.09,1.06.27,1.15.82.09.54-.27,1.06-.82,1.15-1.64.28-3.28.56-4.94.83-.06,0-.11.01-.16.01ZM1631.44,180.8c-.48,0-.9-.34-.98-.83-.1-.54.27-1.06.81-1.16,1.65-.29,3.29-.59,4.92-.88.54-.1,1.06.26,1.16.8.1.54-.26,1.06-.8,1.16-1.63.3-3.28.59-4.93.89-.06.01-.12.02-.17.02ZM1258.93,179.9c-.1,0-.2-.02-.3-.05-1.63-.52-3.24-1.05-4.77-1.58-.52-.18-.8-.75-.62-1.27.18-.52.75-.8,1.27-.62,1.51.53,3.1,1.05,4.72,1.56.53.17.82.73.65,1.25-.13.43-.53.7-.95.7ZM1641.28,179.01c-.47,0-.89-.33-.98-.81-.1-.54.25-1.07.8-1.17,1.65-.31,3.28-.62,4.91-.94.54-.11,1.07.25,1.17.79.11.54-.25,1.07-.79,1.17-1.63.32-3.27.63-4.92.94-.06.01-.12.02-.19.02ZM1651.1,177.1c-.47,0-.88-.33-.98-.8-.11-.54.24-1.07.78-1.18,1.64-.33,3.27-.66,4.89-1,.54-.11,1.07.24,1.18.78.11.54-.24,1.07-.78,1.18-1.62.34-3.26.67-4.91,1-.07.01-.13.02-.2.02ZM1249.49,176.61c-.12,0-.24-.02-.36-.07-1.61-.62-3.18-1.26-4.67-1.9-.51-.22-.74-.81-.52-1.31.22-.51.8-.74,1.31-.52,1.46.63,3.01,1.26,4.59,1.87.52.2.77.78.57,1.29-.15.4-.53.64-.93.64ZM1660.89,175.07c-.46,0-.88-.32-.98-.79-.12-.54.23-1.07.77-1.19,1.64-.35,3.27-.7,4.88-1.06.54-.12,1.07.22,1.19.76.12.54-.22,1.07-.76,1.19-1.62.36-3.25.71-4.89,1.06-.07.02-.14.02-.21.02ZM1670.66,172.91c-.46,0-.87-.31-.97-.78-.12-.54.21-1.07.75-1.2,1.64-.37,3.26-.75,4.87-1.13.53-.13,1.08.21,1.2.74.13.54-.21,1.08-.74,1.2-1.61.38-3.24.76-4.88,1.13-.07.02-.15.03-.22.03ZM1240.31,172.64c-.15,0-.3-.03-.44-.1-1.57-.77-3.08-1.57-4.47-2.36-.48-.27-.65-.88-.37-1.36.27-.48.88-.65,1.36-.37,1.36.78,2.83,1.55,4.36,2.31.5.24.7.84.46,1.34-.17.35-.53.56-.9.56ZM1680.39,170.62c-.45,0-.86-.31-.97-.76-.13-.54.2-1.08.74-1.21,1.63-.4,3.25-.8,4.85-1.2.54-.13,1.08.19,1.21.73.13.54-.19,1.08-.73,1.21-1.61.4-3.23.81-4.86,1.2-.08.02-.16.03-.24.03ZM1690.09,168.18c-.44,0-.85-.3-.97-.75-.14-.53.18-1.08.72-1.22,1.63-.42,3.23-.85,4.83-1.28.54-.14,1.08.17,1.23.7.14.53-.17,1.08-.7,1.23-1.6.43-3.21.86-4.84,1.28-.08.02-.17.03-.25.03ZM1231.66,167.66c-.19,0-.39-.06-.56-.17-1.48-1.01-2.84-2.05-4.05-3.1-.42-.36-.46-.99-.1-1.41.36-.42.99-.46,1.41-.1,1.15,1,2.46,1.99,3.87,2.96.46.31.57.93.26,1.39-.19.28-.51.44-.83.44ZM1699.75,165.57c-.44,0-.84-.29-.96-.73-.15-.53.16-1.08.69-1.23,1.62-.45,3.22-.91,4.8-1.37.54-.15,1.09.15,1.24.68.15.53-.15,1.09-.68,1.24-1.59.46-3.19.92-4.82,1.37-.09.03-.18.04-.27.04ZM1709.36,162.78c-.43,0-.83-.28-.96-.71-.16-.53.14-1.09.67-1.25,1.61-.49,3.2-.98,4.77-1.47.53-.17,1.09.13,1.25.65.17.53-.13,1.09-.65,1.25-1.58.49-3.17.99-4.79,1.48-.1.03-.19.04-.29.04ZM1224.19,161.1c-.29,0-.57-.12-.77-.36-1.17-1.41-2.14-2.86-2.86-4.33-.25-.49-.04-1.09.45-1.34.5-.25,1.09-.04,1.34.45.66,1.32,1.53,2.65,2.61,3.93.35.42.3,1.05-.13,1.41-.19.16-.41.23-.64.23ZM1718.9,159.78c-.42,0-.81-.27-.95-.69-.17-.52.11-1.09.64-1.26,1.6-.52,3.18-1.05,4.73-1.58.52-.18,1.09.1,1.27.62.18.52-.1,1.09-.62,1.27-1.56.53-3.15,1.06-4.76,1.59-.1.03-.21.05-.31.05ZM1728.36,156.54c-.41,0-.79-.25-.94-.66-.19-.52.08-1.09.6-1.28,1.59-.57,3.15-1.14,4.68-1.72.51-.19,1.09.07,1.29.58.2.52-.07,1.09-.58,1.29-1.54.58-3.11,1.16-4.71,1.73-.11.04-.22.06-.34.06ZM1737.73,153.01c-.4,0-.77-.24-.93-.63-.2-.51.05-1.09.56-1.3,1.57-.62,3.11-1.25,4.61-1.88.51-.21,1.1.03,1.31.54.21.51-.03,1.1-.54,1.31-1.51.63-3.07,1.27-4.65,1.89-.12.05-.25.07-.37.07ZM1219.97,152.28c-.49,0-.92-.36-.99-.86-.06-.39-.1-.78-.12-1.18-.02-.34-.03-.67-.03-1.01,0-1.02.1-2.06.31-3.09.11-.54.64-.89,1.17-.79.54.11.89.63.79,1.18-.18.9-.27,1.81-.27,2.7,0,.29,0,.59.03.88.02.34.06.68.11,1.02.08.55-.3,1.05-.85,1.13-.05,0-.1.01-.14.01ZM1746.95,149.15c-.38,0-.75-.22-.92-.59-.22-.5,0-1.1.51-1.32,1.55-.69,3.06-1.38,4.52-2.08.5-.24,1.1-.02,1.33.47.24.5.02,1.1-.47,1.33-1.48.7-3,1.4-4.57,2.1-.13.06-.27.09-.41.09ZM1755.98,144.85c-.36,0-.71-.2-.89-.54-.25-.49-.06-1.09.44-1.35,1.51-.77,2.98-1.56,4.38-2.34.49-.27,1.09-.09,1.36.39.27.48.09,1.09-.39,1.36-1.42.79-2.92,1.59-4.45,2.37-.15.07-.3.11-.45.11ZM1221.75,142.7c-.15,0-.31-.03-.45-.11-.49-.25-.69-.85-.44-1.34.73-1.44,1.67-2.9,2.79-4.34.34-.44.97-.51,1.4-.18.44.34.51.97.17,1.4-1.04,1.34-1.91,2.69-2.58,4.01-.18.35-.53.55-.89.55ZM1764.72,139.98c-.34,0-.66-.17-.85-.48-.29-.47-.14-1.09.33-1.38,1.46-.89,2.86-1.8,4.15-2.69.46-.31,1.08-.2,1.39.26.31.46.2,1.08-.26,1.39-1.33.91-2.75,1.83-4.24,2.74-.16.1-.34.15-.52.15ZM1227.77,134.81c-.26,0-.52-.1-.71-.3-.39-.39-.38-1.03.01-1.41,1.14-1.12,2.42-2.26,3.79-3.38.43-.35,1.06-.28,1.41.14.35.43.28,1.06-.14,1.41-1.33,1.08-2.56,2.18-3.66,3.26-.19.19-.45.29-.7.29ZM1772.94,134.31c-.3,0-.59-.13-.79-.38-.34-.43-.27-1.06.17-1.4,1.34-1.06,2.6-2.13,3.73-3.19.4-.38,1.04-.36,1.41.04.38.4.36,1.04-.04,1.41-1.17,1.1-2.47,2.21-3.86,3.31-.18.14-.4.21-.62.21ZM1235.48,128.48c-.31,0-.62-.15-.82-.42-.32-.45-.21-1.08.24-1.39,1.31-.93,2.73-1.87,4.21-2.79.46-.29,1.08-.15,1.38.32.29.47.15,1.09-.32,1.38-1.45.91-2.83,1.83-4.12,2.73-.17.12-.38.18-.58.18ZM1780.17,127.45c-.23,0-.45-.08-.64-.23-.42-.35-.48-.98-.13-1.41,1.09-1.31,2.02-2.63,2.75-3.92.27-.48.88-.65,1.36-.37.48.27.65.88.37,1.36-.8,1.4-1.79,2.81-2.95,4.21-.2.24-.48.36-.77.36ZM1243.94,123.16c-.35,0-.69-.18-.87-.51-.27-.48-.1-1.09.38-1.36,1.41-.8,2.9-1.61,4.43-2.4.49-.26,1.09-.06,1.35.43.25.49.06,1.09-.42,1.35-1.51.78-2.98,1.58-4.36,2.37-.16.09-.33.13-.49.13ZM1784.93,118.83c-.09,0-.17-.01-.26-.03-.53-.14-.85-.69-.71-1.23.33-1.23.5-2.47.5-3.69,0-.29,0-.59-.03-.88-.04-.67-.14-1.35-.29-2.02-.12-.54.22-1.07.76-1.19.54-.12,1.07.22,1.19.76.17.77.28,1.55.33,2.32.02.34.03.67.03,1.01,0,1.39-.19,2.81-.57,4.21-.12.45-.52.74-.96.74ZM1252.81,118.53c-.37,0-.73-.21-.9-.57-.24-.5-.03-1.1.47-1.34,1.47-.71,2.99-1.42,4.56-2.12.5-.23,1.1,0,1.32.5.23.5,0,1.1-.5,1.32-1.55.7-3.05,1.4-4.51,2.1-.14.07-.29.1-.43.1ZM1261.92,114.42c-.39,0-.76-.23-.92-.61-.21-.51.02-1.1.53-1.31,1.51-.64,3.06-1.28,4.64-1.91.51-.2,1.09.04,1.3.56.21.51-.04,1.09-.56,1.3-1.57.63-3.11,1.26-4.61,1.9-.13.05-.26.08-.39.08ZM1271.2,110.69c-.4,0-.78-.25-.93-.64-.2-.52.06-1.09.58-1.29,1.54-.58,3.11-1.17,4.7-1.74.52-.19,1.09.08,1.28.6.19.52-.08,1.09-.6,1.28-1.59.57-3.15,1.15-4.67,1.73-.12.04-.24.07-.36.07ZM1280.61,107.29c-.42,0-.8-.26-.95-.67-.18-.52.1-1.09.62-1.27,1.56-.54,3.14-1.07,4.75-1.61.53-.17,1.09.11,1.26.64.17.52-.11,1.09-.63,1.26-1.6.53-3.18,1.06-4.73,1.6-.11.04-.22.06-.33.06ZM1783.32,107.18c-.35,0-.68-.18-.87-.5-.73-1.28-1.68-2.57-2.81-3.82-.37-.41-.34-1.04.07-1.41.41-.37,1.04-.34,1.41.07,1.23,1.36,2.27,2.76,3.07,4.17.27.48.11,1.09-.37,1.36-.16.09-.33.13-.5.13ZM1290.11,104.14c-.42,0-.82-.27-.95-.7-.17-.53.12-1.09.65-1.26,1.57-.5,3.17-.99,4.79-1.49.53-.16,1.09.14,1.25.67.16.53-.14,1.09-.67,1.25-1.61.49-3.2.98-4.77,1.48-.1.03-.2.05-.3.05ZM1299.67,101.23c-.43,0-.83-.28-.96-.72-.16-.53.15-1.09.68-1.24,1.59-.46,3.19-.93,4.82-1.38.53-.15,1.08.16,1.23.69.15.53-.16,1.08-.69,1.23-1.62.46-3.22.92-4.8,1.38-.09.03-.19.04-.28.04ZM1776.75,99.78c-.22,0-.45-.07-.63-.23-1.18-.97-2.51-1.93-3.95-2.88-.46-.3-.59-.92-.29-1.38.3-.46.92-.59,1.38-.29,1.5.98,2.88,1.99,4.12,3,.43.35.49.98.14,1.41-.2.24-.49.37-.78.37ZM1309.3,98.51c-.44,0-.84-.29-.96-.74-.15-.53.17-1.08.7-1.23,1.6-.43,3.21-.87,4.84-1.29.53-.14,1.08.18,1.22.71.14.53-.18,1.08-.71,1.22-1.62.43-3.23.86-4.82,1.29-.09.02-.18.04-.26.04ZM1318.97,95.97c-.45,0-.85-.3-.97-.75-.14-.54.19-1.08.72-1.22,1.61-.41,3.23-.81,4.86-1.21.53-.13,1.08.2,1.21.73.13.54-.2,1.08-.73,1.21-1.63.4-3.25.8-4.85,1.21-.08.02-.17.03-.25.03ZM1768.43,94.27c-.16,0-.33-.04-.48-.12-1.38-.76-2.86-1.52-4.4-2.25-.5-.24-.71-.83-.47-1.33.24-.5.83-.71,1.33-.47,1.57.75,3.09,1.52,4.5,2.3.48.27.66.87.39,1.36-.18.33-.52.52-.88.52ZM1328.69,93.59c-.45,0-.86-.31-.97-.77-.13-.54.2-1.08.74-1.2,1.61-.38,3.24-.76,4.88-1.14.54-.12,1.07.21,1.2.75.12.54-.21,1.07-.75,1.2-1.63.38-3.26.75-4.86,1.13-.08.02-.16.03-.23.03ZM1338.44,91.35c-.46,0-.87-.32-.98-.78-.12-.54.22-1.07.76-1.19,1.62-.36,3.25-.72,4.89-1.07.54-.12,1.07.23,1.19.77.12.54-.23,1.07-.77,1.19-1.64.35-3.27.71-4.88,1.07-.07.02-.15.02-.22.02ZM1759.42,89.96c-.13,0-.26-.03-.39-.08-1.47-.62-3.03-1.24-4.61-1.83-.52-.19-.78-.77-.58-1.29.19-.52.78-.78,1.29-.58,1.61.61,3.18,1.23,4.68,1.86.51.21.75.8.53,1.31-.16.38-.53.61-.92.61ZM1348.22,89.24c-.46,0-.88-.32-.98-.8-.11-.54.23-1.07.77-1.18,1.62-.34,3.26-.67,4.91-1.01.55-.11,1.07.24,1.18.78.11.54-.24,1.07-.78,1.18-1.64.33-3.27.67-4.89,1-.07.01-.14.02-.21.02ZM1358.02,87.26c-.47,0-.89-.33-.98-.81-.11-.54.25-1.07.79-1.17,1.63-.32,3.27-.63,4.92-.95.56-.1,1.07.25,1.17.8.1.54-.25,1.07-.8,1.17-1.65.31-3.28.63-4.91.95-.07.01-.13.02-.19.02ZM1750.07,86.43c-.11,0-.21-.02-.32-.05-1.52-.52-3.12-1.03-4.73-1.53-.53-.16-.82-.72-.66-1.25.16-.53.72-.82,1.25-.66,1.63.51,3.24,1.03,4.78,1.55.52.18.8.75.62,1.27-.14.42-.53.68-.95.68ZM1367.85,85.4c-.47,0-.89-.34-.98-.82-.1-.54.26-1.06.8-1.16,1.63-.3,3.27-.6,4.93-.89.55-.1,1.06.27,1.16.81.1.54-.26,1.06-.81,1.16-1.65.29-3.29.59-4.92.89-.06.01-.12.02-.18.02ZM1377.69,83.64c-.48,0-.9-.34-.98-.83-.09-.54.27-1.06.82-1.16,1.64-.28,3.28-.56,4.94-.84.54-.09,1.06.28,1.15.82.09.54-.28,1.06-.82,1.15-1.65.28-3.29.56-4.93.84-.06,0-.11.01-.17.01ZM1740.52,83.46c-.09,0-.18-.01-.27-.04-1.57-.44-3.17-.88-4.8-1.31-.53-.14-.85-.69-.71-1.22.14-.53.69-.85,1.22-.71,1.65.43,3.27.87,4.85,1.32.53.15.84.7.69,1.24-.12.44-.53.73-.96.73ZM1387.56,81.99c-.48,0-.91-.35-.99-.84-.09-.55.28-1.06.83-1.15,1.64-.27,3.29-.53,4.94-.79.54-.09,1.06.29,1.14.83.08.55-.29,1.06-.83,1.14-1.65.26-3.3.52-4.93.79-.05,0-.11.01-.16.01ZM1730.84,80.93c-.08,0-.16,0-.24-.03-1.59-.38-3.21-.76-4.85-1.13-.54-.12-.88-.66-.76-1.19.12-.54.66-.88,1.19-.76,1.66.37,3.29.75,4.89,1.14.54.13.87.67.74,1.21-.11.46-.52.76-.97.76ZM1397.44,80.44c-.49,0-.91-.35-.99-.85-.08-.55.29-1.06.84-1.14,1.64-.25,3.29-.5,4.95-.74.55-.08,1.05.3,1.13.84.08.55-.3,1.05-.84,1.13-1.66.24-3.3.49-4.94.74-.05,0-.1.01-.15.01ZM1407.34,78.98c-.49,0-.92-.36-.99-.86-.08-.55.3-1.05.85-1.13,1.65-.23,3.3-.47,4.96-.69.55-.08,1.05.31,1.13.85.08.55-.31,1.05-.85,1.13-1.66.23-3.31.46-4.95.69-.05,0-.1.01-.14.01ZM1721.08,78.73c-.07,0-.14,0-.21-.02-1.6-.34-3.23-.66-4.89-.99-.54-.11-.9-.63-.79-1.17.11-.54.63-.9,1.17-.79,1.66.32,3.3.65,4.91.99.54.11.89.64.77,1.18-.1.47-.51.8-.98.8ZM1417.24,77.61c-.49,0-.92-.37-.99-.87-.07-.55.31-1.05.86-1.12,1.65-.22,3.3-.44,4.96-.65.57-.07,1.05.32,1.12.86.07.55-.32,1.05-.86,1.12-1.66.21-3.31.43-4.96.65-.04,0-.09,0-.13,0ZM1711.26,76.82c-.06,0-.12,0-.18-.02-1.62-.29-3.25-.58-4.91-.86-.54-.09-.91-.61-.82-1.15.09-.54.6-.91,1.15-.82,1.67.28,3.31.57,4.94.87.54.1.9.62.8,1.16-.09.48-.51.82-.98.82ZM1427.16,76.34c-.5,0-.93-.37-.99-.88-.07-.55.32-1.05.87-1.12,1.65-.21,3.31-.41,4.97-.61.55-.07,1.05.33,1.11.87.07.55-.33,1.05-.87,1.11-1.66.2-3.31.4-4.96.61-.04,0-.08,0-.12,0ZM1701.4,75.15c-.05,0-.1,0-.16-.01-1.63-.26-3.27-.51-4.93-.75-.55-.08-.92-.59-.84-1.14.08-.55.58-.92,1.14-.84,1.67.25,3.32.5,4.95.76.55.09.92.6.83,1.14-.08.49-.5.84-.99.84ZM1437.09,75.14c-.5,0-.93-.38-.99-.89-.06-.55.33-1.04.88-1.11,1.65-.19,3.31-.38,4.97-.56.54-.06,1.04.33,1.1.88.06.55-.34,1.04-.88,1.1-1.66.18-3.32.37-4.96.56-.04,0-.08,0-.12,0ZM1447.03,74.04c-.5,0-.94-.38-.99-.89-.06-.55.34-1.04.89-1.1,1.65-.18,3.31-.35,4.98-.52.55-.06,1.04.34,1.1.89.06.55-.34,1.04-.89,1.1-1.66.17-3.32.35-4.97.52-.04,0-.07,0-.11,0ZM1691.51,73.68s-.09,0-.14,0c-1.63-.23-3.28-.45-4.95-.66-.55-.07-.93-.57-.86-1.12.07-.55.56-.94,1.12-.86,1.67.22,3.33.44,4.97.66.55.08.93.58.85,1.13-.07.5-.5.86-.99.86ZM1456.98,73.01c-.51,0-.94-.39-.99-.9-.05-.55.35-1.04.9-1.09,1.66-.16,3.32-.32,4.98-.48.56-.05,1.04.35,1.09.9.05.55-.35,1.04-.9,1.09-1.66.16-3.32.32-4.97.48-.03,0-.07,0-.1,0ZM1681.59,72.4s-.08,0-.12,0c-1.64-.2-3.29-.39-4.96-.58-.55-.06-.94-.56-.88-1.11.06-.55.55-.94,1.11-.88,1.67.19,3.33.38,4.98.58.55.07.94.56.87,1.11-.06.51-.49.88-.99.88ZM1466.94,72.07c-.51,0-.95-.39-1-.91-.05-.55.36-1.04.91-1.09,1.66-.15,3.32-.3,4.99-.44.56-.05,1.03.36,1.08.91.05.55-.36,1.04-.91,1.08-1.66.14-3.32.29-4.98.44-.03,0-.06,0-.09,0ZM1671.65,71.29s-.07,0-.1,0c-1.64-.17-3.3-.34-4.97-.5-.55-.05-.95-.54-.9-1.09.05-.55.54-.95,1.09-.9,1.67.16,3.34.33,4.98.5.55.06.95.55.89,1.1-.05.51-.49.9-.99.9ZM1476.91,71.21c-.51,0-.95-.4-1-.92-.04-.55.36-1.03.92-1.08,1.66-.14,3.32-.27,4.99-.4.54-.04,1.03.37,1.08.92s-.37,1.03-.92,1.08c-1.66.13-3.32.27-4.98.4-.03,0-.06,0-.08,0ZM1486.87,70.42c-.52,0-.96-.4-1-.93-.04-.55.37-1.03.92-1.07,1.66-.12,3.31-.24,4.98-.36.54-.04,1.03.38,1.07.93.04.55-.38,1.03-.93,1.07-1.66.12-3.32.24-4.97.36-.03,0-.05,0-.08,0ZM1661.7,70.32s-.06,0-.09,0c-1.65-.15-3.31-.29-4.98-.43-.55-.05-.96-.53-.91-1.08.05-.55.52-.96,1.08-.91,1.67.14,3.34.28,4.99.43.55.05.96.54.91,1.09-.05.52-.48.91-1,.91ZM1496.83,69.71c-.52,0-.96-.4-1-.93-.04-.55.38-1.03.93-1.06l5-.33c.53-.03,1.03.38,1.06.93.04.55-.38,1.03-.93,1.06l-4.99.33s-.05,0-.07,0ZM1651.73,69.5s-.05,0-.08,0c-1.65-.13-3.31-.25-4.98-.36-.55-.04-.97-.52-.93-1.07.04-.55.49-.97,1.07-.93,1.68.12,3.34.24,4.99.37.55.04.96.52.92,1.07-.04.52-.48.92-1,.92ZM1506.82,69.08c-.53,0-.97-.41-1-.94-.03-.55.39-1.02.94-1.06,1.67-.1,3.33-.19,5-.29.57-.03,1.02.39,1.05.94.03.55-.39,1.02-.94,1.05-1.66.09-3.32.19-4.99.29-.02,0-.04,0-.06,0ZM1641.75,68.8s-.04,0-.06,0c-1.65-.11-3.31-.21-4.99-.3-.55-.03-.97-.5-.94-1.06s.5-.97,1.06-.94c1.68.1,3.34.2,5,.3.55.04.97.51.93,1.06-.03.53-.47.94-1,.94ZM1516.8,68.53c-.53,0-.97-.41-1-.95-.03-.55.4-1.02.95-1.05,1.67-.09,3.34-.17,5-.25.54-.03,1.02.4,1.05.95.03.55-.4,1.02-.95,1.05-1.66.08-3.32.16-4.99.25-.02,0-.04,0-.05,0ZM1631.76,68.22s-.04,0-.05,0c-1.65-.09-3.32-.17-4.99-.25-.55-.03-.98-.49-.95-1.05.03-.55.5-.98,1.05-.95,1.68.08,3.34.16,5,.25.55.03.98.5.95,1.05-.03.53-.47.95-1,.95ZM1526.79,68.05c-.53,0-.97-.42-1-.96-.02-.55.4-1.02.96-1.04,1.67-.07,3.34-.14,5-.21.54-.02,1.02.41,1.04.96.02.55-.41,1.02-.96,1.04-1.66.07-3.33.14-4.99.21-.02,0-.03,0-.04,0ZM1621.77,67.75s-.03,0-.04,0c-1.66-.07-3.32-.13-4.99-.19-.55-.02-.98-.48-.96-1.04.02-.55.51-.98,1.04-.96,1.68.06,3.34.13,5,.19.55.02.98.49.96,1.04-.02.54-.46.96-1,.96ZM1536.78,67.66c-.54,0-.98-.42-1-.96-.02-.55.41-1.02.96-1.04,1.67-.06,3.34-.12,5-.17.53-.02,1.01.42,1.03.97.02.55-.42,1.01-.97,1.03-1.66.05-3.32.11-4.99.17-.01,0-.02,0-.04,0ZM1611.78,67.39s-.02,0-.03,0c-1.66-.05-3.32-.1-4.99-.14-.55-.01-.99-.47-.97-1.03.01-.55.44-.99,1.03-.97,1.67.04,3.34.09,5,.14.55.02.99.48.97,1.03-.02.54-.46.97-1,.97ZM1546.78,67.34c-.54,0-.98-.43-1-.97-.01-.55.42-1.01.97-1.03,1.67-.05,3.34-.09,5-.13,0,0,.02,0,.02,0,.54,0,.99.43,1,.98.01.55-.42,1.01-.98,1.02-1.66.04-3.32.08-4.99.13,0,0-.02,0-.03,0ZM1601.78,67.13s-.01,0-.02,0c-1.66-.03-3.32-.07-5-.09-.55,0-.99-.46-.98-1.02,0-.55.46-.98,1-.98,0,0,.01,0,.02,0,1.67.03,3.34.06,5,.09.55.01.99.47.98,1.02-.01.54-.46.98-1,.98ZM1556.78,67.11c-.54,0-.99-.44-1-.98-.01-.55.43-1.01.98-1.02,1.67-.03,3.34-.06,5-.09.57,0,1.01.43,1.01.98,0,.55-.43,1.01-.99,1.01-1.66.02-3.33.05-5,.09,0,0-.01,0-.02,0ZM1591.78,66.96s0,0-.01,0c-1.66-.02-3.32-.03-5-.05-.55,0-1-.45-.99-1.01,0-.55.45-.99,1-.99h0c1.68.01,3.34.03,5.01.05.55,0,1,.46.99,1.01,0,.55-.45.99-1,.99ZM1566.78,66.96c-.55,0-.99-.44-1-.99,0-.55.44-1,.99-1.01,1.67-.02,3.34-.03,5.01-.04h0c.55,0,1,.44,1,.99,0,.55-.44,1-.99,1.01-1.66.01-3.33.02-5,.04,0,0,0,0-.01,0ZM1581.78,66.89h-2.78s-2.22,0-2.22,0h0c-.55,0-1-.45-1-1,0-.55.45-1,1-1h2.22s2.78,0,2.78,0c.55,0,1,.45,1,1,0,.55-.45,1-1,1Z"/>
      <g>
        <circle class="cls-8" cx="1476.56" cy="310.28" r="278.4" transform="translate(213.07 1134.96) rotate(-45)"/>
        <path class="cls-9" d="M1516.93,589.68c-.56,0-1.1,0-1.65,0-74.63-.43-144.62-29.9-197.09-82.97s-81.12-123.4-80.7-198.03c.43-74.63,29.9-144.62,82.97-197.09,53.08-52.47,123.42-81.12,198.03-80.7,74.63.43,144.62,29.9,197.09,82.97,52.47,53.07,81.13,123.4,80.7,198.03s-29.9,144.62-82.97,197.09c-52.68,52.08-122.37,80.7-196.38,80.7ZM1516.86,32.88c-152.23,0-276.49,123.38-277.37,275.8-.43,74.1,28.03,143.92,80.12,196.62,52.09,52.69,121.58,81.95,195.68,82.38.53,0,1.09,0,1.62,0,152.23,0,276.49-123.38,277.37-275.8h1s-1,0-1,0c.88-152.96-122.84-278.11-275.8-278.99-.53,0-1.09,0-1.62,0Z"/>
        <path class="cls-9" d="M1517.37,176.24c-77.31,0-153.29-13.02-219.74-37.64l.7-1.88c66.23,24.54,141.97,37.52,219.04,37.52s151.72-12.79,217.58-36.98l.69,1.88c-66.08,24.27-141.56,37.1-218.27,37.1Z"/>
        <path class="cls-9" d="M1295.78,479.99l-.71-1.87c67.08-25.25,143.95-38.59,222.29-38.59s154.42,13.21,221.25,38.2l-.7,1.87c-66.6-24.91-142.87-38.08-220.55-38.08s-154.73,13.3-221.59,38.47Z"/>
        <path class="cls-9" d="M1516.88,589.68c-39,0-75.61-29.15-103.09-82.08-27.37-52.72-42.45-122.8-42.45-197.32s15.08-144.6,42.45-197.32c27.48-52.93,64.09-82.08,103.09-82.08s75.61,29.15,103.09,82.08c27.37,52.72,42.45,122.8,42.45,197.32s-15.08,144.6-42.45,197.32c-27.48,52.93-64.09,82.08-103.09,82.08ZM1516.88,32.88c-79.15,0-143.54,124.44-143.54,277.4s64.39,277.4,143.54,277.4,143.54-124.44,143.54-277.4-64.39-277.4-143.54-277.4Z"/>
        <rect class="cls-9" x="1515.88" y="32.48" width="2" height="555.84"/>
        <rect class="cls-9" x="1515.83" y="30.07" width="2" height="557.04" transform="translate(1196.42 1822.97) rotate(-89.55)"/>
      </g>
      <path class="cls-15" d="M1219.85,151.18c-.52,0-.96-.41-1-.93-.02-.34-.03-.67-.03-1.01,0-2.97.87-6,2.58-9,.27-.48.88-.65,1.36-.37.48.27.65.88.37,1.36-1.54,2.7-2.32,5.39-2.32,8.01,0,.29,0,.59.03.88.04.55-.38,1.03-.93,1.06-.02,0-.04,0-.07,0ZM1769.63,136.77c-.32,0-.63-.15-.82-.43-.32-.45-.21-1.08.25-1.39,2.94-2.06,5.51-4.15,7.62-6.21.4-.38,1.03-.38,1.41.02.39.4.38,1.03-.02,1.41-2.19,2.13-4.83,4.29-7.87,6.41-.17.12-.37.18-.57.18ZM1228.56,134.05c-.27,0-.53-.11-.73-.32-.38-.4-.36-1.04.04-1.41,2.23-2.09,4.9-4.21,7.94-6.29.46-.31,1.08-.2,1.39.26.31.46.2,1.08-.26,1.39-2.96,2.03-5.55,4.08-7.7,6.1-.19.18-.44.27-.68.27ZM1244.91,122.62c-.35,0-.69-.19-.88-.51-.27-.48-.09-1.09.39-1.36,2.76-1.53,5.77-3.08,8.96-4.59.5-.24,1.1-.02,1.33.47.24.5.02,1.1-.47,1.33-3.15,1.49-6.12,3.02-8.84,4.53-.15.09-.32.13-.48.13ZM1783.45,122.58c-.16,0-.31-.04-.46-.11-.49-.25-.68-.86-.43-1.35,1.26-2.43,1.9-4.87,1.9-7.24,0-.29,0-.59-.03-.88-.02-.31-.05-.63-.1-.94-.07-.55.31-1.05.86-1.13.54-.08,1.05.31,1.13.86.05.36.09.72.11,1.08.02.34.03.67.03,1.01,0,2.69-.71,5.44-2.13,8.16-.18.34-.53.54-.89.54ZM1262.94,113.99c-.39,0-.76-.23-.92-.61-.21-.51.03-1.1.54-1.31,2.96-1.24,6.1-2.48,9.33-3.7.51-.19,1.09.07,1.29.58.2.52-.07,1.09-.58,1.29-3.21,1.21-6.33,2.44-9.27,3.67-.13.05-.26.08-.39.08ZM1281.66,106.92c-.42,0-.8-.26-.95-.68-.18-.52.1-1.09.62-1.27,3.07-1.05,6.27-2.1,9.53-3.12.53-.17,1.09.13,1.25.65.16.53-.13,1.09-.65,1.25-3.24,1.02-6.43,2.06-9.48,3.11-.11.04-.22.05-.32.05ZM1781.15,104.08c-.29,0-.57-.12-.77-.36-1.81-2.18-4.25-4.34-7.25-6.4-.46-.31-.57-.94-.26-1.39.31-.46.94-.57,1.39-.26,3.15,2.16,5.73,4.44,7.66,6.77.35.43.29,1.06-.13,1.41-.19.15-.41.23-.64.23ZM1300.75,100.92c-.43,0-.83-.28-.96-.72-.15-.53.15-1.09.68-1.24,3.13-.91,6.38-1.82,9.65-2.7.53-.14,1.08.17,1.23.7.14.53-.17,1.08-.71,1.23-3.26.88-6.49,1.79-9.62,2.69-.09.03-.19.04-.28.04ZM1320.06,95.7c-.45,0-.85-.3-.97-.76-.13-.54.19-1.08.73-1.21,3.17-.8,6.45-1.6,9.74-2.37.53-.13,1.08.21,1.2.74.13.54-.21,1.08-.74,1.2-3.28.77-6.54,1.57-9.71,2.36-.08.02-.16.03-.25.03ZM1765.04,92.51c-.15,0-.3-.03-.44-.1-2.75-1.35-5.8-2.68-9.09-3.94-.52-.2-.77-.78-.57-1.29.2-.52.78-.77,1.29-.57,3.34,1.29,6.45,2.64,9.25,4.02.5.24.7.84.46,1.34-.17.35-.53.56-.9.56ZM1339.53,91.11c-.46,0-.87-.32-.98-.78-.12-.54.22-1.07.76-1.19,3.22-.71,6.48-1.41,9.8-2.09.54-.11,1.07.24,1.18.78.11.54-.24,1.07-.78,1.18-3.31.68-6.56,1.38-9.77,2.09-.07.02-.15.02-.22.02ZM1359.13,87.05c-.47,0-.89-.33-.98-.81-.11-.54.25-1.07.79-1.17,3.24-.63,6.52-1.25,9.84-1.86.54-.1,1.06.26,1.16.8.1.54-.26,1.06-.8,1.16-3.31.61-6.59,1.22-9.82,1.85-.06.01-.13.02-.19.02ZM1746.43,85.24c-.1,0-.2-.02-.3-.05-3.01-.95-6.23-1.89-9.56-2.78-.53-.14-.85-.69-.71-1.22.14-.53.7-.85,1.22-.71,3.36.9,6.61,1.84,9.65,2.8.53.17.82.73.65,1.26-.13.43-.53.7-.95.7ZM1378.81,83.45c-.48,0-.9-.34-.98-.83-.09-.54.27-1.06.82-1.15,3.26-.56,6.55-1.11,9.88-1.64.55-.09,1.06.28,1.15.83.09.55-.28,1.06-.83,1.15-3.32.53-6.61,1.08-9.86,1.64-.06,0-.11.01-.17.01ZM1398.56,80.27c-.49,0-.91-.36-.99-.85-.08-.55.29-1.06.84-1.14,3.27-.49,6.58-.98,9.91-1.45.55-.08,1.05.3,1.13.85.08.55-.3,1.05-.85,1.13-3.33.47-6.62.95-9.89,1.45-.05,0-.1.01-.15.01ZM1727.12,80.05c-.07,0-.15,0-.22-.03-3.13-.71-6.41-1.41-9.76-2.07-.54-.11-.89-.63-.79-1.18.11-.54.63-.89,1.18-.79,3.36.67,6.67,1.37,9.81,2.09.54.12.88.66.75,1.2-.11.46-.52.78-.97.78ZM1418.37,77.46c-.49,0-.92-.37-.99-.87-.07-.55.31-1.05.86-1.12,3.29-.43,6.6-.86,9.93-1.27.54-.07,1.05.32,1.11.87.07.55-.32,1.05-.87,1.11-3.33.41-6.63.83-9.91,1.27-.04,0-.09,0-.13,0ZM1707.49,76.15c-.06,0-.11,0-.17-.01-3.19-.55-6.51-1.08-9.86-1.59-.55-.08-.92-.59-.84-1.14.08-.55.59-.92,1.14-.84,3.36.5,6.69,1.04,9.9,1.59.54.09.91.61.82,1.16-.08.49-.51.83-.98.83ZM1438.22,75.01c-.5,0-.93-.38-.99-.89-.06-.55.33-1.04.88-1.11,3.3-.38,6.61-.74,9.95-1.1.57-.06,1.04.34,1.1.89.06.55-.34,1.04-.89,1.1-3.33.35-6.65.72-9.93,1.1-.04,0-.08,0-.12,0ZM1687.71,73.17s-.09,0-.13,0c-3.23-.42-6.56-.83-9.91-1.21-.55-.06-.94-.56-.88-1.11.06-.55.55-.94,1.11-.88,3.36.38,6.71.79,9.95,1.22.55.07.93.57.86,1.12-.07.5-.5.87-.99.87ZM1458.12,72.9c-.51,0-.94-.39-.99-.9-.05-.55.35-1.04.9-1.09,3.3-.32,6.63-.64,9.97-.94.56-.05,1.04.36,1.09.91.05.55-.36,1.04-.91,1.09-3.34.3-6.65.61-9.95.93-.03,0-.07,0-.1,0ZM1478.04,71.11c-.52,0-.95-.4-1-.92-.05-.55.37-1.03.92-1.08,3.31-.27,6.64-.53,9.98-.78.56-.04,1.03.37,1.07.92.04.55-.37,1.03-.92,1.07-3.34.25-6.66.51-9.96.78-.03,0-.06,0-.08,0ZM1667.83,70.9s-.07,0-.1,0c-3.25-.32-6.6-.63-9.95-.91-.55-.05-.96-.53-.91-1.08.05-.55.55-.96,1.08-.91,3.36.28,6.72.59,9.97.91.55.05.95.54.9,1.09-.05.52-.49.9-.99.9ZM1497.99,69.64c-.52,0-.96-.41-1-.93-.04-.55.38-1.03.93-1.06l.51-.03c3.17-.21,6.33-.41,9.48-.59.57-.03,1.02.39,1.06.94s-.39,1.02-.94,1.06c-3.14.18-6.3.38-9.46.59l-.51.03s-.04,0-.07,0ZM1647.9,69.21s-.05,0-.07,0c-3.28-.23-6.6-.45-9.97-.65-.55-.03-.97-.51-.94-1.06.03-.55.49-.97,1.06-.94,3.37.2,6.71.42,9.99.65.55.04.97.52.93,1.07-.04.53-.48.93-1,.93ZM1517.96,68.47c-.53,0-.97-.42-1-.95-.03-.55.4-1.02.95-1.05,3.35-.17,6.68-.33,10-.47.54-.02,1.02.4,1.04.96.02.55-.4,1.02-.96,1.04-3.31.14-6.64.3-9.98.47-.02,0-.03,0-.05,0ZM1627.93,68.03s-.03,0-.05,0c-3.29-.16-6.62-.3-9.98-.43-.55-.02-.98-.48-.96-1.04.02-.55.48-.98,1.04-.96,3.37.13,6.71.27,10,.43.55.03.98.5.95,1.05-.03.54-.47.95-1,.95ZM1537.94,67.61c-.54,0-.98-.43-1-.97-.02-.55.41-1.01.96-1.03,3.35-.12,6.69-.22,10-.31.54-.02,1.01.42,1.03.97.01.55-.42,1.01-.97,1.03-3.31.09-6.64.19-9.99.31-.01,0-.02,0-.04,0ZM1607.94,67.28s-.02,0-.03,0c-3.3-.09-6.63-.16-9.99-.22-.55,0-.99-.47-.98-1.02,0-.55.48-.99,1.02-.98,3.37.06,6.7.13,10.01.22.55.01.99.47.97,1.03-.02.54-.46.97-1,.97ZM1557.93,67.08c-.54,0-.99-.44-1-.98,0-.55.43-1.01.98-1.02,3.36-.06,6.69-.11,10.01-.14,0,0,0,0,0,0,.55,0,.99.44,1,.99,0,.55-.44,1-.99,1.01-3.31.03-6.64.08-9.99.14,0,0-.01,0-.02,0ZM1587.94,66.93s0,0,0,0c-2.96-.02-5.93-.04-8.93-.04h-1.06s0,0,0,0c-.55,0-1-.45-1-1,0-.55.45-1,1-1h1.07c3,0,5.98.01,8.95.04.55,0,1,.46.99,1.01,0,.55-.45.99-1,.99Z"/>
      <path class="cls-15" d="M1239.66,503.24c-.54,0-.99-.43-1-.98-.01-.55.43-1.01.98-1.02,3.17-.07,6.52-.2,9.96-.39.56-.03,1.02.39,1.05.94.03.55-.39,1.02-.94,1.05-3.46.19-6.84.32-10.03.39,0,0-.01,0-.02,0ZM1229.66,503.24s-.02,0-.02,0c-3.55-.09-6.93-.27-10.05-.54-.55-.05-.96-.53-.91-1.08.05-.55.53-.96,1.08-.91,3.08.27,6.41.45,9.92.54.55.01.99.47.98,1.02-.01.54-.46.98-1,.98ZM1259.63,502.16c-.51,0-.95-.4-1-.92-.05-.55.36-1.03.91-1.08,3.2-.26,6.55-.58,9.94-.94.53-.06,1.04.34,1.1.89.06.55-.34,1.04-.89,1.1-3.41.36-6.76.68-9.98.94-.03,0-.06,0-.08,0ZM1209.77,501.37c-.06,0-.12,0-.19-.02-3.72-.71-7.02-1.61-9.8-2.7-.51-.2-.77-.78-.57-1.3.2-.51.78-.77,1.29-.57,2.67,1.04,5.85,1.92,9.45,2.6.54.1.9.63.8,1.17-.09.48-.51.81-.98.81ZM1279.53,500.08c-.5,0-.93-.37-.99-.88-.07-.55.32-1.05.87-1.12,3.22-.4,6.55-.85,9.9-1.32.54-.08,1.05.3,1.13.85.08.55-.3,1.05-.85,1.13-3.36.48-6.7.92-9.93,1.32-.04,0-.08,0-.12,0ZM1299.34,497.28c-.48,0-.91-.35-.99-.85-.08-.55.29-1.06.83-1.14,3.23-.51,6.52-1.04,9.86-1.61.54-.09,1.06.27,1.15.82.09.54-.27,1.06-.82,1.15-3.35.57-6.65,1.11-9.88,1.61-.05,0-.1.01-.16.01ZM1319.06,493.94c-.47,0-.9-.34-.98-.82-.1-.54.26-1.06.8-1.16,3.23-.59,6.5-1.2,9.82-1.84.54-.11,1.07.25,1.17.79.11.54-.25,1.07-.79,1.17-3.33.64-6.61,1.26-9.84,1.84-.06.01-.12.02-.18.02ZM1191.73,493.48c-.27,0-.53-.1-.73-.31-1.35-1.43-2.33-3.02-2.93-4.74-.45-1.31-.68-2.71-.68-4.17,0-.32.01-.64.03-.96.04-.55.51-.97,1.07-.93.55.04.97.51.93,1.07-.02.28-.03.55-.03.82,0,1.23.19,2.41.57,3.52.5,1.45,1.34,2.8,2.49,4.02.38.4.36,1.03-.04,1.41-.19.18-.44.27-.69.27ZM1338.7,490.15c-.47,0-.88-.33-.98-.8-.11-.54.24-1.07.78-1.18,3.22-.65,6.49-1.33,9.79-2.03.54-.11,1.07.23,1.19.77.11.54-.23,1.07-.77,1.19-3.3.7-6.57,1.38-9.8,2.04-.07.01-.13.02-.2.02ZM1358.27,485.99c-.46,0-.87-.32-.98-.78-.12-.54.22-1.07.76-1.19,3.22-.71,6.47-1.45,9.75-2.2.55-.12,1.08.21,1.2.75s-.21,1.07-.75,1.2c-3.29.76-6.54,1.49-9.76,2.2-.07.02-.15.02-.22.02ZM1377.77,481.51c-.45,0-.86-.31-.97-.77-.13-.54.2-1.08.74-1.2,3.21-.76,6.45-1.55,9.71-2.35.54-.13,1.08.2,1.21.73.13.54-.2,1.08-.73,1.21-3.27.8-6.51,1.59-9.73,2.35-.08.02-.16.03-.23.03ZM1397.19,476.74c-.45,0-.85-.3-.97-.76-.13-.54.19-1.08.72-1.21,3.2-.81,6.43-1.64,9.68-2.48.53-.14,1.08.18,1.22.72.14.53-.18,1.08-.72,1.22-3.25.85-6.49,1.68-9.7,2.49-.08.02-.16.03-.25.03ZM1191.66,475c-.17,0-.34-.04-.5-.13-.48-.28-.64-.89-.36-1.37,1.5-2.59,3.52-5.35,6-8.22.36-.42.99-.46,1.41-.1.42.36.46.99.1,1.41-2.4,2.77-4.35,5.43-5.78,7.91-.19.32-.52.5-.87.5ZM1416.55,471.71c-.44,0-.85-.3-.96-.74-.14-.53.17-1.08.71-1.22,3.2-.85,6.41-1.72,9.65-2.61.53-.14,1.08.17,1.23.7.15.53-.17,1.08-.7,1.23-3.24.89-6.46,1.76-9.66,2.61-.09.02-.17.03-.26.03ZM1435.85,466.43c-.44,0-.84-.29-.96-.73-.15-.53.16-1.08.69-1.23,3.19-.89,6.39-1.8,9.62-2.72.53-.15,1.09.16,1.24.69.15.53-.16,1.08-.69,1.24-3.23.92-6.44,1.83-9.63,2.73-.09.03-.18.04-.27.04ZM1455.08,460.93c-.43,0-.83-.28-.96-.72-.16-.53.15-1.09.68-1.24,3.18-.93,6.38-1.87,9.59-2.83.53-.16,1.09.14,1.24.67.16.53-.14,1.09-.67,1.24-3.21.96-6.41,1.9-9.6,2.83-.09.03-.19.04-.28.04ZM1474.25,455.21c-.43,0-.83-.28-.96-.71-.16-.53.14-1.09.67-1.25,3.17-.96,6.36-1.94,9.56-2.93.53-.16,1.09.13,1.25.66.16.53-.13,1.09-.66,1.25-3.2.99-6.39,1.97-9.57,2.94-.1.03-.2.04-.29.04ZM1493.36,449.29c-.42,0-.82-.27-.95-.7-.17-.53.13-1.09.65-1.25,3.16-1,6.34-2.01,9.52-3.03.53-.17,1.09.12,1.26.65.17.53-.12,1.09-.65,1.26-3.19,1.02-6.37,2.04-9.53,3.04-.1.03-.2.05-.3.05ZM1512.41,443.17c-.42,0-.81-.27-.95-.69-.17-.52.11-1.09.64-1.26,3.15-1.03,6.32-2.07,9.49-3.13.52-.17,1.09.11,1.26.63.17.52-.11,1.09-.63,1.26-3.18,1.06-6.35,2.1-9.5,3.13-.1.03-.21.05-.31.05ZM1531.39,436.86c-.42,0-.81-.26-.95-.68-.18-.52.1-1.09.63-1.27,3.15-1.06,6.3-2.14,9.46-3.22.52-.18,1.09.1,1.27.62.18.52-.1,1.09-.62,1.27-3.17,1.09-6.32,2.16-9.47,3.23-.11.04-.21.05-.32.05ZM1550.3,430.37c-.41,0-.8-.26-.94-.67-.18-.52.09-1.09.62-1.27,3.16-1.1,6.3-2.21,9.43-3.32.52-.19,1.09.09,1.28.61.18.52-.09,1.09-.61,1.28-3.13,1.11-6.28,2.22-9.44,3.32-.11.04-.22.06-.33.06ZM1569.16,423.69c-.41,0-.79-.25-.94-.66-.19-.52.08-1.09.6-1.28,3.15-1.13,6.28-2.27,9.4-3.41.52-.19,1.09.08,1.28.6.19.52-.08,1.09-.6,1.28-3.12,1.14-6.26,2.28-9.41,3.41-.11.04-.23.06-.34.06ZM1587.95,416.82c-.41,0-.79-.25-.94-.65-.19-.52.07-1.09.59-1.29,3.14-1.17,6.26-2.33,9.36-3.5.52-.2,1.09.07,1.29.58.2.52-.07,1.09-.58,1.29-3.11,1.17-6.23,2.34-9.37,3.51-.12.04-.23.06-.35.06ZM1606.66,409.75c-.4,0-.78-.24-.93-.64-.2-.52.06-1.09.58-1.29,3.13-1.2,6.24-2.4,9.32-3.6.51-.2,1.1.05,1.3.57.2.51-.05,1.09-.57,1.29-3.09,1.2-6.21,2.41-9.34,3.61-.12.05-.24.07-.36.07ZM1625.31,402.5c-.4,0-.77-.24-.93-.63-.2-.51.05-1.09.56-1.3,3.12-1.23,6.21-2.47,9.29-3.7.51-.2,1.09.04,1.3.55.21.51-.04,1.09-.55,1.3-3.08,1.24-6.18,2.47-9.3,3.71-.12.05-.25.07-.37.07ZM1643.87,395.03c-.39,0-.77-.23-.93-.62-.21-.51.04-1.1.55-1.3,3.1-1.27,6.19-2.54,9.24-3.81.51-.21,1.09.03,1.31.54.21.51-.03,1.1-.54,1.31-3.06,1.27-6.15,2.54-9.25,3.81-.12.05-.25.07-.38.07ZM1662.34,387.35c-.39,0-.76-.23-.92-.61-.21-.51.02-1.1.53-1.31,3.09-1.31,6.16-2.61,9.2-3.92.5-.22,1.09.02,1.31.52.22.51-.02,1.1-.52,1.31-3.04,1.31-6.11,2.62-9.21,3.93-.13.05-.26.08-.39.08ZM1680.72,379.45c-.38,0-.75-.22-.92-.6-.22-.51,0-1.1.51-1.32,3.08-1.35,6.13-2.69,9.14-4.04.5-.23,1.1,0,1.32.51.23.5,0,1.1-.51,1.32-3.02,1.35-6.07,2.7-9.16,4.04-.13.06-.27.08-.4.08ZM1698.99,371.3c-.38,0-.74-.22-.91-.59-.23-.5,0-1.1.5-1.32,3.06-1.39,6.09-2.78,9.09-4.17.5-.23,1.1-.01,1.33.49.23.5.01,1.1-.49,1.33-3,1.39-6.03,2.78-9.1,4.17-.13.06-.28.09-.41.09ZM1717.15,362.89c-.38,0-.73-.21-.91-.57-.24-.5-.02-1.1.48-1.33,3.05-1.44,6.05-2.88,9.02-4.31.5-.24,1.1-.03,1.33.47.24.5.03,1.1-.47,1.34-2.97,1.43-5.98,2.87-9.03,4.32-.14.07-.28.1-.43.1ZM1735.16,354.19c-.37,0-.72-.2-.9-.56-.25-.5-.04-1.09.45-1.34,3.03-1.49,6.01-2.98,8.94-4.47.49-.25,1.09-.05,1.34.44.25.49.05,1.09-.44,1.34-2.94,1.49-5.93,2.98-8.96,4.47-.14.07-.29.1-.44.1ZM1753.02,345.16c-.36,0-.71-.2-.89-.54-.25-.49-.06-1.09.43-1.35,3-1.56,5.95-3.11,8.85-4.65.49-.26,1.09-.07,1.35.41.26.49.08,1.09-.41,1.35-2.9,1.55-5.86,3.1-8.87,4.66-.15.08-.3.11-.46.11ZM1770.67,335.75c-.35,0-.7-.19-.88-.52-.27-.48-.09-1.09.4-1.36,2.96-1.62,5.9-3.26,8.73-4.86.48-.27,1.09-.1,1.36.38.27.48.1,1.09-.38,1.36-2.84,1.61-5.78,3.25-8.75,4.88-.15.08-.32.12-.48.12ZM1788.08,325.89c-.34,0-.68-.18-.86-.49-.28-.48-.12-1.09.36-1.37,2.93-1.72,5.81-3.44,8.57-5.13.47-.29,1.09-.14,1.37.33.29.47.14,1.09-.33,1.37-2.77,1.69-5.66,3.42-8.6,5.14-.16.09-.33.14-.5.14ZM1805.16,315.46c-.33,0-.65-.16-.84-.46-.3-.47-.16-1.08.3-1.38,2.87-1.83,5.68-3.67,8.35-5.47.46-.31,1.08-.19,1.39.27.31.46.19,1.08-.27,1.39-2.68,1.81-5.5,3.66-8.39,5.5-.17.11-.35.16-.54.16ZM1821.74,304.27c-.31,0-.62-.14-.81-.42-.32-.45-.22-1.07.23-1.4,2.81-2.02,5.5-4.02,7.99-5.96.44-.34,1.07-.26,1.4.18.34.44.26,1.06-.17,1.4-2.51,1.95-5.22,3.97-8.05,6.01-.18.13-.38.19-.58.19ZM1837.5,291.95c-.28,0-.56-.12-.76-.35-.36-.42-.32-1.05.1-1.41,2.67-2.31,5.12-4.58,7.27-6.75.39-.39,1.02-.39,1.41,0,.39.39.39,1.02,0,1.41-2.19,2.2-4.67,4.51-7.38,6.85-.19.16-.42.24-.65.24ZM1851.45,277.67c-.21,0-.43-.07-.61-.21-.44-.34-.52-.96-.18-1.4,2.26-2.93,3.95-5.72,5.02-8.28.21-.51.8-.75,1.31-.54.51.21.75.8.54,1.31-1.14,2.72-2.92,5.66-5.28,8.73-.2.26-.49.39-.79.39ZM1857.79,259.5c-.45,0-.85-.3-.97-.76-.08-.3-.16-.59-.26-.89-.83-2.4-2.59-4.53-5.23-6.31-.46-.31-.58-.93-.27-1.39.31-.46.93-.58,1.39-.27,3.01,2.03,5.03,4.49,6,7.31.12.35.22.7.31,1.05.13.54-.19,1.08-.73,1.21-.08.02-.16.03-.24.03ZM1842.78,247.7c-.09,0-.19-.01-.28-.04-2.81-.83-6.06-1.51-9.64-2.02-.55-.08-.93-.59-.85-1.13.08-.55.59-.93,1.13-.85,3.68.53,7.01,1.23,9.92,2.08.53.16.83.71.68,1.24-.13.44-.53.72-.96.72Z"/>
      <circle class="cls-9" cx="1566.56" cy="918.24" r="212.17" transform="translate(-190.46 1376.67) rotate(-45)"/>
      <g>
        <circle class="cls-9" cx="1334.13" cy="1328.24" r="158.9" transform="translate(-548.45 1332.4) rotate(-45)"/>
        <g class="cls-11">
          <path class="cls-5" d="M1417.33,1320.13c-.73,17.06-4.95,30.61-12.65,40.64-7.7,10.03-18.05,15.05-31.04,15.05-5.73,0-10.68-1.23-14.84-3.7-4.17-2.46-7.32-6-9.45-10.6-6.67,9.33-15.36,14-26.09,14-9.73,0-17.26-4.1-22.59-12.3-5.33-8.2-7.33-19.03-6-32.49,1.2-11,3.98-20.78,8.35-29.34,4.36-8.56,9.88-15.15,16.54-19.74,6.66-4.6,13.86-6.9,21.59-6.9,9.53,0,17.66,2.2,24.39,6.6l6.3,4.3-5.1,57.78c-.67,5.27-.08,9.3,1.75,12.1,1.83,2.8,4.75,4.2,8.75,4.2,6.13,0,11.26-3.58,15.39-10.75,4.13-7.16,6.4-16.54,6.8-28.14,1.13-23.26-3.55-41.14-14.05-53.63-10.5-12.5-26.04-18.74-46.64-18.74-12.86,0-24.33,3.27-34.39,9.8-10.06,6.53-17.99,15.81-23.79,27.84-5.8,12.03-9.06,25.81-9.8,41.34-1.07,23.59,3.66,41.84,14.2,54.73,10.53,12.9,26.29,19.34,47.29,19.34,5.53,0,11.33-.62,17.39-1.85,6.06-1.23,11.3-2.88,15.7-4.95l3.8,15.4c-4.07,2.66-9.55,4.81-16.45,6.45-6.9,1.63-13.85,2.45-20.84,2.45-17.59,0-32.59-3.55-44.99-10.65-12.4-7.1-21.64-17.56-27.74-31.39-6.1-13.83-8.75-30.34-7.95-49.53.8-18.39,5-34.89,12.6-49.48,7.6-14.6,17.95-25.87,31.04-33.84,13.1-7.96,27.87-11.95,44.34-11.95s31.12,3.58,43.19,10.75c12.06,7.16,21.09,17.41,27.09,30.74,6,13.33,8.63,28.83,7.9,46.49ZM1316.86,1330.73c-.73,8.8.03,15.48,2.3,20.04,2.26,4.57,5.93,6.85,11,6.85,3.26,0,6.36-1.43,9.3-4.3,2.93-2.86,5.36-7,7.3-12.4l4.2-47.29c-2.6-.87-5.27-1.3-8-1.3-7.66,0-13.61,3.27-17.84,9.8-4.23,6.53-6.98,16.06-8.25,28.59Z"/>
        </g>
      </g>
      <path class="cls-5" d="M975,96.61c-7.22-16.56-19.11-23.75-23.89-26.33-3.88-2.09-7.97-3.29-12.08-3.68l-27.83,51.61c2.59,3.22,5.84,5.98,9.72,8.07,8.28,4.47,17.65,4.84,25.86,1.88-1.74,8.04-5.62,18.92-13.42,33.38-8.79,16.3-16.36,26.94-22.52,33.9-1.95-8.66-7.47-16.46-15.89-21-3.88-2.09-7.97-3.29-12.08-3.68l-27.83,51.61c2.59,3.22,5.84,5.98,9.72,8.07,2.15,1.16,15.65,11.86,30.33,9.17,21.91-4.02,43.68-22.49,65.68-63.29,18.07-33.51,22.71-60.26,14.23-79.71Z"/>
      <g>
        <path class="cls-5" d="M1744.23,898.99c-3.46-39.73-18.82-74.21-45.5-102.69-36.06-38.37-79.87-57.81-130.44-57.81-7.46,0-15.25.41-23.01,1.25-37.31,4.11-70.83,19.66-99.64,46.35-26.5,24.59-44.66,55.39-52.67,89.24-7.79,33.22-5.58,68.54,6.4,102.17,12.09,33.85,35.1,62.44,68.43,85.05,35.32,23.86,75.57,33.52,119.6,28.7,37.83-4.11,71.37-19.33,99.64-45.1,37.63-34.37,57.19-78.62,58.11-131.48,0-1.36-.11-2.83-.22-4.41-.22-3.46-.41-7.35-.74-11.25l.03-.03ZM1565.89,1059.6h-.84c-37.63,0-72.85-14.6-99.23-40.98-27.64-27.75-42.89-65.06-42.78-105.12-.11-37.53,14.81-73.04,42.16-100.16,27.23-27.12,63.18-42.05,101-42.16h.33c79.25,0,143.89,64.1,144.11,142.83.22,81.15-63.37,145.04-144.74,145.58h0Z"/>
        <circle class="cls-13" cx="1566.84" cy="915.52" r="18.93"/>
      </g>
      <g>
        <g>
          <path class="cls-8" d="M648.61,1204.41c-26.05-22.14-89.75-46.05-131.5-60.03-21.72-7.26-37.51-11.84-38.99-12.09-.11-.04-.13-.04-.13-.04l-41.09,2.31-.2.02c-23.01,2.37-47.74,4.59-67.46,6.27-17.49,1.49-31.04,2.55-35.89,2.93-.25.02-.48.05-.69.06-.82.06-1.24.09-1.24.09,0,0-13.65,3.34-34.01,9.94-8.64,2.79-19.86,6.15-32.34,10.17-33.63,10.84-76.33,26.44-101.72,48.49-32.8,28.5-61.91,145.1-79.56,208.34h625.69c-4.45-71.98-25.24-186.2-60.87-216.47Z"/>
          <path class="cls-3" d="M411.21,1241.41c-78.36,9.01-109.16-57.8-109.16-57.8l-4.64-29.74c20.35-6.6,34-9.94,34-9.94,0,0,56.56-4.33,105.28-9.35l.21-.03,41.09-2.3s.03,0,.14.03c1.27.38,11.76,4.06,16.57,26.92,5.12,24.41-5.12,73.23-83.48,82.21Z"/>
        </g>
        <g>
          <path class="cls-6" d="M464.52,1179.79c-2.36,10.57-23.5,32.31-59.04,33.78-23.62.98-84.33-19.69-78.45-40.83,3.55-12.8,9.69-46.24,14-70.65,2.8-15.95,4.81-28.06,4.81-28.06l117.49,18.81s1.48,32.12,1.89,57.56c.22,13.81.13,25.67-.69,29.38Z"/>
          <path class="cls-2" d="M465.21,1150.41c-10.19,8.3-26.01,18.46-43,19.09-36.52,1.35-68.35-45.52-81.19-67.41,2.8-15.95,4.81-28.06,4.81-28.06l117.49,18.81s1.48,32.12,1.89,57.56Z"/>
        </g>
        <g>
          <path class="cls-14" d="M520.32,966.52s15.86-9.4,20.86-31.43c2.22-9.8-2.64-14.98.88-23.79,3.53-8.81,6.17-45.38,2.64-58.6-3.53-13.22-21.15-15.42-29.08-25.12-7.93-9.69-14.54-22.91-26.88-28.2-12.34-5.29-40.54,9.69-53.76,1.76-13.22-7.93-21-15.57-43.62-10.58-23.97,5.29-21.15,12.34-31.73,18.51-10.58,6.17-24.68,2.64-35.25,10.58-10.58,7.93-7.93,15.86-11.46,26.44-3.53,10.58-18.51,19.39-22.91,31.73-4.41,12.34,0,29.96,0,43.18s-7.05,15.86-9.69,34.37c-2.64,18.51,5.29,34.37,7.05,41.42,1.76,7.05-2.64,20.27,6.17,34.37,8.81,14.1,22.03,25.56,44.06,27.32,22.03,1.76,182.71-91.94,182.71-91.94Z"/>
          <path class="cls-6" d="M523.85,923.05c0,14.78-.53,49.26-4.22,80.91-.79,6.7-1.7,13.27-2.8,19.47-.41,2.45-.85,4.84-1.32,7.14-1.04,4.94-2.17,9.59-3.43,13.81-.38,1.29-.79,2.61-1.23,3.93-11.26,34.88-36.68,81.06-75.15,83.3-39.95,2.36-76.82-25.67-89.27-42.31-17.65-23.5-19.41-55.21-19.41-55.21,0,0-11.73,2.36-16.45-1.2-4.69-3.52-17.62-52.85-9.41-64.61,8.24-11.76,24.69-1.16,24.69-1.16,0,0,23.5-26.45,17.62-41.14s-1.76-25.86-1.76-25.86c0,0,28.78-2.33,34.07-4.69,5.28-2.36,18.81-9.41,28.81-8.21,9.97,1.16,20.54,10.57,28.78,12.33,2.77.6,8.37.19,15.04-.5,13.21-1.42,30.61-3.99,38.41-2.45,11.76,2.36,37.02,4.72,37.02,26.45Z"/>
        </g>
      </g>
    </g>
  </g>
</svg>