<?xml version="1.0" encoding="UTF-8"?>
<svg id="Laag_2" data-name="Laag 2" xmlns="http://www.w3.org/2000/svg" viewBox="0 0 569.32 569.79">
  <defs>
    <style>
      .cls-1 {
        fill: #b2cfbd;
      }

      .cls-2 {
        fill: #9892bc;
      }

      .cls-3 {
        fill: #b5b1cf;
      }

      .cls-4 {
        fill: #bed6c7;
      }
    </style>
  </defs>
  <g id="Layer_1" data-name="Layer 1">
    <g>
      <path class="cls-3" d="M22.1,281.22c.35-.25.25-1.02-.23-1.7-.48-.68-1.16-1.05-1.52-.8-.35.25-.25,1.02.23,1.7.48.68,1.16,1.05,1.52.8ZM30.11,282.45c-.06-.49.18-.79.74-.9,2.62,1.33,4.18,4.77,7.59,5.1.35.03.67-.19.76-.54l.1-.35c.09-.3-.09-.61-.39-.7l-2.23-.62c-.27-.08-.52-.23-.7-.46-1.35-1.77-3.47-3.79-6.34-6.05-.58-.45-1.01-.06-1.28,1.19-.21-.03-.44.17-.71.59-.4-1.35-1.06-2.1-1.99-2.22-.45-.06-.79.43-.55.83l3.69,6.39c.32.57,1.16.49,1.38-.12.19-.55.17-1.26-.08-2.13M25.35,276.33c.45-2.96-.39-4.79-2.5-5.48-.41-.14-.71-.48-.79-.89-.27-1.25-.88-2.58-1.82-3.99-.36-.53-1.19-.23-1.14.4.22,2.8.98,4.44,2.3,4.94,2.56.97,3.16,2.63,3.36,5.01.01.15.14.27.28.27.15,0,.28-.1.31-.26M21.93,253.24c-.97-.03-1.48.31-1.52,1.02-.05.66.28,1.23.66,1.14.65-.15,1.11-.61,1.39-1.37.14-.37-.13-.79-.53-.79M74.27,159.85l-5.23,1.46c-.06.01-.12.04-.18.06-1.37.66-3.08,2.57-5.16,5.76-.32.5-1.52,1.69-3.61,3.56-.17.15-.21.39-.09.58l.19.35c.22.37.72.48,1.07.21,1.95-1.52,3.96-3.17,6.05-4.94.37-.31,1.86-.83,4.47-1.54,1.16-.31,2.09-1.19,2.48-2.32l.79-2.36c.17-.48-.28-.95-.77-.81M236.42,116.01c-2.28,2.18-4.31,4.92-6.08,8.21-.31.57-.37,1.23-.21,1.83,2.09,7.37-2.72,13.15-7.18,18.67-.37.46-.1,1.15.48,1.25l5.77.94c.5.09,1.02.03,1.5-.15.04-.01,2.27-.45,6.7-1.29,1.56-.3,2.97-1.14,3.97-2.36,2.8-3.38,4.18-7.02,4.14-10.9-.01-.59-.28-1.14-.74-1.5l-1.46-1.16c-.26-.22-.43-.52-.46-.85-.25-2.12-.23-3.78-1.56-4.93-.83-.72-1.65-1.6-2.48-2.65-.81-1.02-.23-2.18,1.76-3.48.76-.5.62-1.66-.25-1.95l-.99-.34c-1.02-.34-2.14-.09-2.92.66M71.01,113.42c.44.3,1.57-.63,2.55-2.08.97-1.44,1.41-2.84.99-3.14-.44-.3-1.57.63-2.55,2.08-.97,1.44-1.41,2.84-.99,3.14M228.09,109.53c-.05.13-.04.27.04.39.62.83.85,1.68.71,2.54-.08.41-.36.76-.76.9-.99.35-2,.44-2.99.25-.4-.08-.77.26-.75.67.03.61,1.07,1.48,1.12,2.68.09,1.74-.09,3.01-.53,3.78-.23.41-.68.66-1.16.62l-3.68-.31c-1.23-.1-2.08,1.19-1.5,2.27l.95,1.77c.8,1.52-.59,3.26-2.26,2.84-1.45-.27-2.9-1.79-4.37-1.73-3.72.15-2.34,5.67-3.17,7.67-.61,1.42.83,2.98.17,4.35-.04.08-.08.14-.13.19l-3.28,3.42c-.35.36-.18.95.3,1.08.74.19,1.52.06,2.34-.41,4.13-2.36,8.23-4.62,12.3-6.75,4.4-2.31,6.62-5.91,6.63-10.8,0-1.05.36-2.05,1.01-2.86l6.88-8.61c.04-.06.1-.1.17-.14l8.25-4.76c.45-.26.32-.94-.19-1.02-1.81-.28-4.1.26-5.37,1.86-.66.85-1.14,1.38-1.42,1.57-.34.25-.72.43-1.14.52-1.2.3-2.35.98-3.42,2.08-.09.09-.23.1-.32.03l-.31-.26c-.1-.08-.14-.23-.06-.35.53-.76.83-1.55.89-2.34.04-.39-.09-.76-.36-1.05l-2.48-2.54c-.09-.1-.25-.1-.35-.01-.71.67-1.29,1.5-1.74,2.46M215.19,73.94c-2.9.67-3.56,2.49-7.2,2.04-2.32-.28-4.31,1.1-5.95,2.31-.18.13-.41.22-.65.23l-7.82.59c-1.64.13-2.46,2.04-1.42,3.32,2.16,2.66,5.33,3.61,8.81,5.12.49.21,1.03.27,1.56.17,2.03-.36,6.21-1.6,12.57-3.7,1.9-.63,4.62-1.94,3.86-4.41-.3-.94-1.1-1.35-2.41-1.21-.66.08-1.2-.5-1.08-1.15l.43-2.66c.06-.4-.3-.75-.7-.65M315.31,36.77c.52-.18.49-.93-.05-1.06-.86-.21-1.51-.05-1.91.45-.43.53.12,1.26.75,1.05l1.21-.44M302.11,34.82c.41.03.77-.48.81-1.13.04-.65-.26-1.19-.66-1.22-.41-.03-.77.48-.81,1.13-.04.65.26,1.19.66,1.22M342.13,27.84c-.01-.65-1.38-1.14-3.05-1.11-1.66.04-3.01.59-2.99,1.24.01.65,1.38,1.14,3.05,1.11,1.66-.04,3.01-.59,2.99-1.24M302.4,31.84c2.25.9,4.35,1.34,6.31,1.33.21,0,.39-.17.41-.37l.03-.34c.04-.41-.25-.8-.66-.88-1.99-.39-2.54-1.96-4.01-2.79-3.02-1.68-3.99-3.66-8.85-2.72-.36.06-.58.43-.48.79l.1.36c.06.26.3.44.57.46l4.21.36c.52.04.95.4,1.1.9l.62,2.16c.09.34.34.61.66.74M342.77,26.8l9.7,2.09s.03,0,.04-.01c.25-1.17-.57-2.34-1.82-2.61l-5.21-1.14c-1.26-.27-2.48.46-2.74,1.63,0,.01.01.03.03.04M295.23,35.6c-1.05.55-1.57,1.35-1.56,2.43,0,.8.94,1.24,1.55.72l3.59-3.01c.71-.59.17-1.74-.75-1.57l-1.15.21c-.44.08-.88-.1-1.14-.46l-3.76-5.32c-.88-1.23-2.25-2.03-3.76-2.19l-2.26-.23c-.09-.01-.17-.04-.25-.08l-9.89-5.16s-.01-.01-.03,0l-.18.27c-.12.18-.06.43.12.54,4.14,2.65,8.98,4.26,12.27,7.12,1.6,1.39,2.08,4.44,3.69,5.41,1.29.77,2.43,1.12,3.41,1.05.17-.01.22.21.08.28M359.05,23.62c.11-.48-.19-.95-.68-1.06l-8.57-1.9c-.48-.1-.96.19-1.06.68v.05c-.12.48.18.95.67,1.06l8.57,1.9c.48.1.96-.19,1.06-.68v-.05M262.22.68c4.89.83,9.85,1.19,14.87,1.08,7.51-.17,11.3-.26,11.37-.25,24.58.54,48.65,4.08,72.2,10.62,11.47,3.19,25.76,8.56,42.83,16.13,6.56,2.9,13.74,7.56,19.69,10.63.27.14.19.54-.1.58-1.42.18-2.86-.21-4.34-1.16-.32-.22-.76-.15-1.03.13-.37.4-.39.86-.04,1.41-.32-.17-.62-.26-.86-.3-.54-.08-.97.44-.79.95l.5,1.41c.18.5-.1,1.05-.62,1.19l-1.17.34c-.4.12-.58.55-.4.92,1.17,2.31,2.4,4,3.68,5.05.39.32.55.84.44,1.32-.32,1.34.17,2.79,1.46,4.35.27.31.22.77-.1,1.03l-.08.06c-.21.17-.52.14-.68-.06-1.29-1.47-2.71-2.67-4.25-3.61-.5-.31-1.1.26-.8.77l1.72,2.97c.25.43-.03.98-.53,1.02-.46.04-1.24-.06-1.6-.3-2.63-1.65-4.53-2.7-5.7-3.12-.34-.13-.71.01-.89.32-.18.31-.1.71.18.93l3.02,2.41c.4.31.06.94-.41.8-1.69-.5-3.17-1.35-4.45-2.57-.37-.35-.9-.46-1.39-.3-1.06.36-1.92.41-2.59.15-1.14-.44-2.35.44-2.28,1.65.06,1.54.65,2.92,1.73,4.14,3.39,3.83,7.06,7.18,10.97,10.03.4.28.88.43,1.37.4,1.12-.06,1.99.19,2.59.8.4.4.15,1.07-.4,1.14-2.44.27-4.49-.23-6.17-1.54-.49-.39-1.15-.44-1.7-.15-1.14.58-2.05.05-2.75-1.59-1.19-2.8-5.05-2.22-7.83-2.13-.37.01-.74.17-1.03.41-.58.5-1.17.63-1.78.39-.37-.15-.7-.41-.93-.76-2.19-3.29-4.31-3.08-8.17-3.34-.41-.04-.8-.15-1.16-.35-2.86-1.56-4.63-4.81-6.72-7.58-.26-.34-.43-.71-.5-1.11-.48-2.31.81-4.43,1.47-6.3,1.15-3.24,3.3-5.19,6.49-5.85.4-.08.76-.32,1.01-.67.36-.53.62-1.14.77-1.82.14-.62-.48-1.14-1.05-.88l-2.8,1.28c-.12.05-.25.08-.37.08h-7.12c-.58,0-1.12.27-1.46.74-2.43,3.3-3.24,6.74-2.45,10.3.72,3.25.68,4.39.98,7.76.05.55.3,1.07.7,1.45,3.06,2.89,6.21,5.03,9.47,6.44.55.25.53,1.03-.04,1.24l-4.62,1.65c-.55.19-1.16-.04-1.43-.55-.4-.74-.58-1.72-.52-2.93.01-.21-.15-.37-.36-.37h-.37c-.26,0-.46.23-.41.48l.94,5.1c.23,1.3-1.1,2.32-2.28,1.76-1.46-.68-2.86-.36-4.22.97l-2.5-2.92c-.17-.19-.4-.3-.66-.3-.81.01-1.41-.49-1.78-1.54-.27-.74-.93-1.73-1.97-2.97-.45-.53-.98-.62-1.59-.28-.84.46-.55,1.74.4,1.82,1.45.13,2.13,1.01,2.06,2.63-.09,2.19-.94,3.5-.5,5.6.22,1.06.04,2.98-.55,5.76-.08.41-.44.71-.86.71h-11.24c-.12,0-.21-.09-.21-.21v-.61c0-.1.08-.18.18-.18h6.34c.31,0,.59-.12.8-.34.62-.66,1.47-.83,2.54-.53.28.09.58-.08.66-.36.18-.61.23-1.17.14-1.68-.13-.79-1.15-1.01-1.59-.35l-1.1,1.65c-.21.31-.59.41-.93.26-.32-.17-.49-.54-.39-.89.43-1.41.1-2.46-.97-3.17-.43-.28-.53-.86-.23-1.28.7-.97.18-1.85-1.54-2.65-3.37-1.56-6.74-3.38-10.1-5.43-.59-.37-1.23-.66-1.88-.85-3.05-.94-6.05-2.31-9.02-4.08-3.05-1.79-5.19-2.31-8.34-1.96-4.65.5-8.63.86-11.98,1.07-9.64.61-18.75,5.59-25.25,13.37-.37.45-3.32,3.28-8.83,8.5-1.56,1.48-3.33,2.72-5.25,3.68-5.81,2.85-11.9,6.08-12.7,13.96-.28,2.8-.55,5.43-.8,7.9-.05.52.36.95.88.92,2.72-.19,5.63-.23,8.71-.13,1.97.05,3.6-2.66,5.32-2.72.79-.04,1.66,0,2.66.1.36.04.67.31.74.67l2,10.85c.08.45.48.77.94.77h2.16c.36,0,.66.3.67.66.05,1.7-.86,2.85-2.76,3.43-.58.18-.59.99-.01,1.19l.92.31c1.12.39,2.37.25,3.38-.39l6.25-3.9c.19-.12.35-.27.48-.46l8.66-13.01c.74-1.11.44-2.59-.67-3.33l-3.72-2.48c-.39-.26-.5-.76-.3-1.16,2.5-4.79,6.41-7.54,11.74-8.22.94-.13,2.46-1.03,4.56-2.72.32-.26.57-.62.67-1.02l1.02-3.68c.15-.57.75-.9,1.32-.75l.89.25c.49.14.71.7.44,1.12-1.83,2.97-1.69,5.29-5.15,7.41-1.64.99-2.9,1.77-3.79,2.32-.41.26-.66.71-.63,1.2.32,7.48,10.27,7.86,16.4,7.23.45-.05.84-.35.99-.79.27-.79.54-1.24.8-1.38.72-.39,1.55-.14,1.96.58.4.74.26,1.72-.34,2.32-2.08,2.1-3.68,4.4-4.83,6.89-.15.32-.48.55-.84.58l-6.76.52s-.04.01-.04.04v.32c0,.21.17.39.37.4,1.33.1,2.56.67,3.69,1.72.28.26.14.74-.23.8l-2.9.54c-.17.03-.3.18-.3.36v.36c0,.4.31.74.71.76,1.68.08,3.2-.58,4.57-1.96.36-.36.95-.4,1.35-.08l.27.22c.44.35.41,1.03-.06,1.33-2.66,1.7-5.55,2.8-8.67,3.3-.7.12-1.3-.05-1.81-.49-.26-.23-.66-.17-.85.12-1.3,1.86-2.25,4.09-2.85,6.71-.05.22-.26.37-.48.36-.22-.01-.4-.19-.43-.41-.1-.98-.44-1.9-1.02-2.75-.26-.39-.8-.49-1.19-.23-3.37,2.28-7.33,3.63-11.86,4.01-1.79.15-3.36.48-4.7.98-2.52.93-5.36.62-8.4,1.64-1.83.62-3.77,2.3-5.9,2.3-.4,0-.61-.46-.35-.76.79-.92,1.12-1.88.99-2.89-.05-.41-.62-.72-1.72-.93-.44-.09-.76-.41-.98-.97-.18-.45.04-.95.49-1.14.57-.23.95-.72,1.16-1.48.08-.3-.15-.59-.46-.59h-.39c-.26,0-.49.17-.55.41l-.22.8c-.14.52-.75.74-1.2.44-.3-.21-.59-.58-.88-1.12-.32-.58-.14-1.03.52-1.35,2.89-1.46,5.57-2.17,8.05-2.14.86.01,1.16-1.15.4-1.55-.01-.01-.3-.03-.84-.06-.32-.03-.65.03-.95.15-2.03.84-3.91,1.12-5.65.85-.49-.06-.97.19-1.17.65l-1.6,3.48c-.19.41-.19.9,0,1.33l.74,1.61c.19.4.06.89-.3,1.16l-7.11,5.34c-.21.15-.44.27-.68.35-2.09.61-4.59,1.26-7.51,2-3.17.8-4.35,2.65-3.54,5.55.36,1.29-.36,2.65-1.63,3.06l-7.21,2.4s-.08.03-.12.03c-1.59.06-2.89-.77-4.59-.18-2.41.86-3.99,2.74-4.75,5.63-.21.79-.92,1.33-1.72,1.33h-2.66c-.94,0-1.78.59-2.08,1.48l-.55,1.65c-.3.86.44,1.74,1.34,1.61,2.45-.32,4.7-.1,6.74.68.99.37,1.33,1.6.67,2.43l-3.08,3.87c-.23.28-.34.66-.3,1.02.45,3.66-1.66,12.76-7.12,10.85-5.33-1.86-15.6-4.88-18.54,2.23-.15.36-.22.76-.21,1.16.13,3.91-.01,6.5-.41,7.79-1.17,3.68-2.63,8.67-4.39,14.98-.26.95.22,1.96,1.12,2.35,3.14,1.36,6.26,1.87,9.36,1.56.98-.1,1.45,1.17.62,1.72-1.74,1.15-3.06,2.48-3.95,4-1.5,2.54-1.05,5.87-1.76,8.3-.36,1.23-1.43,2.1-2.71,2.19l-2.58.19c-1.36.1-2.5,1.05-2.86,2.36l-4.31,15.59c-.48,1.74-1.92,3.06-3.7,3.37-3.19.57-5.61,1.76-7.28,3.56-5.78,6.3-9.2,12.76-14.31,22.11-.9,1.64-1.52,3.07-1.87,4.28-.18.63-.17,1.32.04,1.95,2.96,9.02,2.68,18.32-.83,27.94-.35.94-.37,1.99-.1,2.96l2.3,8.07c.13.45.37.85.72,1.16l7.42,6.61c.23.21.43.48.54.77,2.72,7.01,4.41,11.06,5.06,12.18.94,1.63,2.54,3.12,4.79,4.48,4.47,2.68,7.28,10.13,13.1,8.84,7.16-1.59,12.89-1.87,17.19-.85,6.65,1.59,11.12-1.57,15.51-2.9,4.19-1.26,8.47-1.52,12.79-.79,1.21.21,2.17,1.14,2.44,2.34.01.04-.09.55-.3,1.55-.37,1.76.12,2.81,1.47,3.16.31.09.65.08.94-.03,5.46-1.74,9.92-.7,13.4,3.14,1.17,1.29,1.54,2.89,1.08,4.8-.89,3.85-1.34,7.41-1.37,10.69-.04,5.21-.25,8.96,3.56,12.35,3.82,3.42,6.43,6.16,8.09,11.67,2.08,6.88,3.08,13.92,3.03,21.13-1.5,1.68-3.08,2.86-4.76,3.57-29.5,12.39-59.85,18.17-91.06,17.36-18.23-.48-36.83-3.23-55.8-8.25-1.51-5.51-1.92-11.06-1.23-16.66.08-.58.28-1.15.62-1.64l2.36-3.55c.46-.68.75-1.47.86-2.28.8-5.59,1.17-8.76,1.12-9.51-.46-6.41-4.74-10.56-10.71-12.52-2.25-.74-4.1-2.09-5.56-4.06-3.69-4.99-9.69-3.74-14.05-4.99-.5-.14-.95-.43-1.29-.83-3.42-4.03-9.2-9.33-13.29-3.28-.19.28-.63.15-.65-.18-.03-1.43.45-2.79-.92-3.96-.88-.74-2.09-.71-3.63.09-.58.31-1.26-.22-1.1-.86,1.78-7.07.17-10.67-3.01-17.33-2.26-4.72-5.74-8-10.94-8.57-3.21-.36-7.08-2.31-8.31-4.31-2.8-4.56-5.29-8.22-7.47-11.02-.32-.43-.45-.95-.36-1.47.19-1.11.13-2.05-.22-2.84-.15-.34-.62-.36-.8-.04-.04.06-.1.19-.18.36-.12.25-.4.37-.66.28-.26-.08-.41-.35-.35-.62.14-.62.09-1.19-.17-1.69-.22-.41-.7-.54-1.45-.37-1.92.41-3.03.65-3.3.68-.68.17-1.39-.12-1.77-.71l-3.21-4.89c-.13-.19-.31-.34-.53-.43-1.25-.43-2.22-.5-2.92-.26-1.06.37-1.7,1.52-1.57,2.8.28,2.8.3,5.28.05,7.41-.04.31-.4.45-.63.26l-.58-.46c-.43-.34-.61-.89-.48-1.41,1.02-3.96,1.11-7.63.26-11.01-.1-.41-.62-.54-.9-.22-2.98,3.34-2.88,6.76-2.7,11.41.03.5-.36.93-.85.97l-4.99.37c-.52.04-1.02-.22-1.29-.67-3.16-5.39-4.23-8.67-3.52-14.94.36-3.17,1.68-11.02.34-13.32-.3-.49-.7-.92-1.19-1.23l-3.85-2.48c-1.11-.71-1.66-2.01-1.42-3.3,1.42-7.34,2.09-14.91,2.03-22.67-.01-1.28.74-2.44,1.9-2.97l2.41-1.08c.86-.4,1.86.15,1.97,1.1.15,1.26.76,2.58,1.83,3.96.37.48,1.15.17,1.06-.44-.19-1.33-.57-2.96-1.15-4.9-.44-1.46-1.65-2.43-2.88-2.3-1.51.17-2.67.89-3.51,2.17-.19.3-.55.46-.92.41-1.34-.18-2.14,1.01-2.4,3.56-.4,4.17-1.17,8.04-2.3,11.59-.26.79-1.37.8-1.63.01-.41-1.26-.65-2.48-.68-3.65-.32-8.56-.05-16.93.84-25.1.27-2.41.06-4.8-.59-7.16.37-1.21.48-2.46.3-3.74.05.37.08.58.09.61.28.52,1.05.44,1.21-.13,1.05-3.42.92-7.14,4.3-8.23.45-.15.94.13,1.03.61.09.53.23.88.4,1.02.31.26.79.1.89-.28.09-.32.17-1.1.25-2.32.1-1.61,1.78-2.58,2.96-1.7.74.55,1.34,1.54,1.83,2.92.04.09.05.17.05.26l-.06,21.8c0,.31.23.58.54.62.31.04.61-.15.68-.46,1.79-7.24,2.61-14.51,2.44-21.8-.18-8.05,5.59-14.61,11.16-20.45.4-.41.71-.92.9-1.47,1.02-2.94.9-6.4,2.74-9.87,3.42-6.49,7.88-11.98,13.4-16.43.58-.48,1.06-1.06,1.42-1.72,1.47-2.72,2.63-5.19,3.5-7.38,1.77-4.5,7.9-7.6,11.86-9.69.59-.31,1.14-.7,1.63-1.15,1.79-1.68,3.46-4.01,4.97-6.99.41-.8.99-1.5,1.73-2.04,2.71-2.03,4.43-3.24,4.71-6.09.05-.55-.67-.81-.98-.35-1.45,2.21-3.51,4.06-6.21,5.57-.43.23-.94-.08-.94-.55-.03-2.52,4.9-7.16,7.5-9.96.32-.35.8-.54,1.28-.5,4.37.27,8.89-.65,13.56-2.75.65-.3,1.28.43.92,1.03-1.12,1.9-2.83,2.53-4.25,3.48-.63.43-1.14,1.03-1.46,1.73l-3.46,7.59c-.09.18-.22.35-.37.46l-1.57,1.23c-.68.53-.39,1.63.48,1.74,1.51.19,2.94.54,4.3,1.07,4.35,1.69,6.84-1.17,7.64-4.96.14-.72-.1-3.25-.76-7.58-.06-.5-.06-1.02,0-1.51.75-5.39,2.49-10.34,5.24-14.81.28-.46.34-1.02.15-1.52l-2.52-7.07c-.17-.48-.13-1.02.13-1.46l5.45-9.43c.15-.27.17-.59.05-.88l-1.47-3.21c-.21-.46-.67-.75-1.17-.72-2.12.09-3.95.52-5.51,1.28-.74.36-1.46-.53-.95-1.19l3.69-4.85c.12-.14.19-.28.26-.45,1.45-3.42,2.92-6.19,4.4-8.34.35-.49.03-1.16-.57-1.2-8.21-.53-15.1,8.81-18.89,15.11-3.05,5.05-6.45,10.53-11.11,12.92-.5.26-.93.65-1.26,1.11-2.83,3.96-4.92,7.05-6.28,9.25-1.41,2.26-4,4.79-5.72,5.91-.54.36-1.17-.31-.8-.84l7.86-11.03c.36-.52.65-1.07.84-1.65l2.92-8.68c.17-.48.17-.99-.01-1.46-.76-2.1-.65-3.82.36-5.15,6.49-8.63,13.82-15.94,21.98-21.93.77-.57,1.3-.52,1.57.17.14.37.61.52.94.3l8.61-5.59c.12-.06.21-.15.28-.25,2.34-2.98,4.27-4.72,5.79-5.2,2.62-.81,4.18-1.72,4.68-2.71,2.06-3.99,4.17-7.15,6.31-9.49.18-.19.12-.5-.13-.62l-.54-.23c-.19-.09-.43-.06-.59.06-1.38,1.08-2.86,1.56-4.44,1.43-.3-.03-.4-.4-.17-.58,1.99-1.57,4.49-1.76,6.39-3.2,1.95-1.5,4.53-3.29,7.73-5.38.48-.31,1.06.22.8.72-.34.65-.34,1.2,0,1.66.18.26.53.31.79.14.68-.45,1.51-.7,2.45-.76.39-.03.63.41.4.72-.43.58-1.85,2.26-4.26,5.03-3.03,3.52-7.87,6.61-10.62,9.46-4.68,4.84-8.5,8.68-11.46,11.52-.26.25-.22.66.08.85l.53.35c.31.21.71.14.94-.14l2.08-2.59c.37-.46,1.12-.09.95.49-1.66,5.86-4.3,11.63-7.92,17.29-.09.14-.15.31-.17.48l-.52,4.13c-.01.09.05.18.14.21s.18-.03.22-.12c.89-2.4,2.31-4.54,4.25-6.41.57-.55,1.05-1.19,1.42-1.88,2.9-5.25,5.67-10.84,10.4-13.85.36-.23.59-.61.63-1.03.1-1.1.55-1.64,1.36-1.64.95,0,1.06,1.38.13,1.74-1.21.48-1.88,1.28-2.01,2.39-.05.43-.35.77-.76.9-.48.14-.81.31-.98.5-.23.27-.04.7.32.7,2.77-.01,4.83-2.84,7.07-3.76.7-.28,1.32-.75,1.78-1.36,2.39-3.08,4.25-7.51,8.59-10.97.43-.35.74-.81.86-1.34.97-3.96.3-5.78,3.52-8.96,5.3-5.23,8.28-7.88,10.32-10.9.15-.23-.01-.54-.28-.54h-5.65c-.94,0-1.37-1.19-.63-1.77l2.32-1.87c.36-.3.76-.53,1.19-.7,2.49-.99,4.79-2.4,6.88-4.23.49-.43,1.06-.76,1.68-.98l10.23-3.64c.97-.35,2.04-.26,2.94.23,3.77,2.04,7.63,1.01,13.28.18.41-.06.62.49.27.72-1.47.96-2.62,1.95-3.46,2.98-2.63,3.25-6.9,5.28-10.85,7.3-1.41.72-2.77,2.65-4.09,5.78-.12.27-.27.53-.46.76l-5.34,6.48c-.27.32-.63.57-1.05.67-2.34.61-4.09.83-5.25.68-1.28-.17-2.54.26-3.46,1.15l-1.17,1.16c-.68.66-.39,1.82.53,2.06l4.65,1.29c.22.05.46.03.67-.09l6.19-3.57c.21-.12.48-.08.63.12.17.18.15.46,0,.65-.99,1.15-1.97,2.03-2.94,2.66-3.02,2-6.62,4.53-10.79,7.61-9.83,7.24-9.94,14.17-11.01,25.49-.01.19,0,.39.06.58l1.79,6.31c.21.75,1.07,1.11,1.76.74,6.84-3.76,11.29-9.25,15.82-15.18.86-1.14,2.03-2.04,3.34-2.59,4.57-1.92,9.29-4.87,14.18-8.8.45-.36.94-.66,1.46-.88,3.51-1.54,6.34-2.85,8.48-3.96,2.3-1.2,3.99-3.3,6.09-4.43.55-.3,1.16-.46,1.79-.5,8.43-.54,16.05-2.86,22.91-6.97.46-.27.75-.76.77-1.3.17-3.68,1.78-5.43,5.06-7.37,3.14-1.85,5.65-3.61,7.58-5.3.36-.32.76-.58,1.17-.77l7.08-3.42c.53-.25.45-1.02-.1-1.17l-1.36-.37c-.36-.1-.48-.57-.21-.83l1.83-1.76c.48-.46.89-.99,1.23-1.56,1.51-2.62,2.67-4.19,3.48-4.72,2.61-1.66,4.65-3.29,6.13-4.89.25-.25.53-.45.84-.59l13.18-5.97c.75-.34.86-1.34.23-1.85-5.27-4.25-12.17-2.08-18.22-.43-.31.08-.63-.1-.7-.41v-.03c-.09-.35.14-.71.5-.77,1.59-.27,3.12-.88,4.59-1.81.49-.31.31-1.05-.26-1.11-5.69-.59-12.07-.28-19.11.93-18.6,3.2-36.4,7.16-53.43,11.9-2.43.68-4.63,1.48-6.61,2.4-5.37,2.5-10.19,4.32-16,7.39-8.44,4.48-14.51,7.77-18.18,9.87-9.77,5.6-20.07,12.4-30.91,20.39,10.88-9.19,20.43-16.31,28.67-21.36,12.09-7.42,26.71-14.7,43.86-21.86C201.47,9.38,231.31,2.48,262.22.68"/>
      <path class="cls-3" d="M334.91,83.22c-.22-.1-.32-.35-.25-.57.06-.23.3-.36.53-.32,3.3.61,5.34.59,7.96,2.34,1.05.7,2.34.99,3.88.9.35-.01.7.09.97.31l4.28,3.42c.44.35.12,1.07-.44.97-1.25-.22-2.19-.06-2.83.46-.57.45-1.39.3-1.76-.32l-1.02-1.77c-.13-.22-.32-.4-.55-.5l-10.79-4.92Z"/>
      <path class="cls-3" d="M347.11,83.99c-.19.61-1.02.89-1.87.63-.84-.26-1.37-.97-1.18-1.58.19-.61,1.02-.89,1.87-.63.84.26,1.37.97,1.18,1.58Z"/>
      <path class="cls-3" d="M329.54,107.61c.13.09.3.08.4-.04.1-.1.12-.27.03-.4-.35-.48-.37-1.16-.09-2.04.13-.4.54-.63.95-.55,1.12.23,1.87,1.39,2.26,3.5.18.95-.88,1.66-1.69,1.12-1.21-.79-2.45-1.1-3.72-.92-.37.05-.59-.4-.32-.66.61-.61,1.34-.62,2.18-.01Z"/>
      <path class="cls-3" d="M44.24,143.88c.2.29-1.03,1.51-2.74,2.74-1.71,1.23-3.27,1.99-3.47,1.71-.2-.29,1.03-1.51,2.74-2.74,1.71-1.23,3.27-1.99,3.47-1.71Z"/>
      <path class="cls-3" d="M42.24,148.45c.48-.4,1.17.14.89.7-1.15,2.3-1.72,4.16-1.68,5.57.06,2.3-.17,3.86-.67,4.7-1.69,2.76-2.84,4.39-3.45,4.88-.43.34-1.02-.08-.85-.59l1.57-4.67c.04-.12,0-.25-.12-.31l-.37-.19c-.27-.14-.61-.03-.75.25l-7.16,13.77c-.06.13-.22.18-.35.12l-.52-.27s-.05-.06-.03-.1l8.85-19.41c.26-.58.66-1.11,1.16-1.52l3.46-2.9Z"/>
      <path class="cls-3" d="M32.1,176.78l7.59-11.39c.39-.58,1.25-.52,1.55.12.52,1.07,1.29,1.76,2.34,2.04.41.1.46.67.08.84l-5.85,2.66c-.15.06-.3.17-.41.31l-4.65,5.82s-.08.05-.13.04l-.4-.1c-.14-.04-.19-.21-.12-.32Z"/>
      <path class="cls-3" d="M361.98,172.92c-.25.03-.44.25-.44.49v.93c0,.21.17.36.37.35,3.59-.18,12.07,8.39,15.4,11.74,1.87,1.91,2.63,4.25,1.5,6.66-.58,1.25-1.55,1.78-2.89,1.61-6.37-.81-12.92-1.81-19.64-2.98-.94-.17-3.46-.09-7.52.23-5.77.46-10.14-.05-15.67-1.33-1.16-.27-2.36-.34-3.61-.22-.49.05-.9-.35-.89-.84.06-1.86.7-3.56,1.87-5.1,2.35-3.06,4.22-4.81,5.57-9.24,1.16-3.78,3.78-6.4,7.87-7.86.44-.15.92-.08,1.28.21l3.54,2.83c.31.23.44.63.34.99l-.44,1.56c-.12.43.14.86.57.98l.68.19c.53.14,1.07-.17,1.21-.7l.27-.99c.12-.4.53-.63.93-.52,3.32.92,3.74,3.99,7.47,4.27.89.06,1.25-1.12.48-1.57l-4.58-2.65c-.27-.15-.4-.48-.32-.79l.75-2.71c.3-1.06,1.29-1.77,2.39-1.72,3.11.15,5.94-.26,8.45-1.25,1.74-.68,3.33,1.29,2.27,2.84-1.86,2.72-4.26,4.25-7.2,4.57Z"/>
      <path class="cls-3" d="M314.15,216.83c.43-.28.51-.93.18-1.48-.34-.54-.97-.76-1.4-.5-.43.28-.51.93-.18,1.48.34.54.97.76,1.4.5ZM323.62,214.73l.86,2.63c.06.19.27.3.46.23l.28-.09c1.17-.39,1.9-1.42,1.61-2.31l-.04-.1c-.28-.89-1.48-1.3-2.66-.92l-.28.09c-.19.06-.3.27-.25.46M283,212.99c.41.27,1.6-.78,2.67-2.35,1.07-1.57,1.6-3.08,1.19-3.35-.41-.27-1.6.78-2.67,2.35-1.07,1.57-1.6,3.08-1.19,3.35M261.69,207.71c-.55-1.05-1.16-1.69-1.81-1.94-.92-.35-1.83.58-1.23,1.24.39.43,1.25.84,2.59,1.24.32.1.59-.25.44-.54M284.3,206.63c.41-.25.3-.86-.17-.94-3.32-.54-5.65-1.28-7.01-2.21-.55-.39-1.32.01-1.32.7v.68c0,.7.46,1.3,1.14,1.48l4.19,1.16c.71.19,1.46.1,2.09-.26l1.07-.62M324.76,197.31c-.15-.51-1-.7-1.9-.44-.91.26-1.51.89-1.37,1.39.15.51,1,.7,1.9.44.91-.26,1.51-.89,1.37-1.39M265.05,188.15l-3.95.68c-.1.01-.17.12-.15.22l.15.9c.84,4.9,2.49,8.71,3.68,8.5,1.2-.19,1.48-4.34.65-9.24l-.15-.9c-.01-.1-.12-.18-.22-.17M325.29,188.65c-.4,2.23.66,3.79,3.17,4.7,1.47.53,2.84.99,4.1,1.42.7.23.77,1.17.14,1.55l-5.91,3.41c-1.19.68-1.57,2.22-.88,3.39,3.21,5.39,7.59,9.15,13.1,11.27.34.13.71-.05.81-.4.26-.83.67-1.43,1.24-1.81.37-.26.88-.23,1.23.05l2.22,1.77c.39.31.86.46,1.34.45,3.92-.12,8.21-.26,10.99,2.5.34.34.92.13.95-.35l.23-2.76c.05-.62.52-1.11,1.12-1.2,5.37-.84,5.85,4.97,4.65,8.07-2.76,7.11-4.5,10.25-3.87,17.18.09.9-.75,1.6-1.63,1.37l-3.25-.9c-.52-.14-1.07-.06-1.54.19l-.35.19c-.49.28-1.08.35-1.61.17l-5.95-2c-.55-.19-1.16-.12-1.64.21-1.92,1.28-3.38,2.72-5.96,2.3-5.28-.85-10.14-3.42-15.15-4.25-2.72-.45-6.74-1.52-12.07-3.2-.41-.13-.86-.15-1.29-.05-3.32.75-5.3,2.49-5.95,5.23-.61,2.59-1.07,3.97-1.39,4.14-4.12,2.05-7.18-2.34-9.56-4.12-.59-.44-1.24-.76-1.94-.98-4.99-1.59-10.89-4.04-17.69-7.37-1.63-.79-3.14-1.92-4.54-3.39-.75-.76-1.02-1.87-.74-2.9l2.8-10.13c.15-.55-.23-1.11-.81-1.16l-10.83-.9c-.14-.01-.28,0-.41.05-3.29,1.16-6.23,1.68-8.83,1.54-.57-.03-1.12-.14-1.64-.35-2.9-1.11-4.74-1.68-5.48-1.72-4.25-.17-8.58,1.63-13.03,5.38-.48.4-1.03.67-1.63.79-1.57.32-3.29-.72-5.57-.28-3.29.62-6.61-.1-9.96-2.16-1.46-.9-.8-3.15.92-3.11.25.01,2.12.3,5.63.88,3.99.65,7.61-3.42,11.02-6.71.5-.5.89-1.11,1.12-1.78,1.9-5.64,5.14-9.87,9.74-12.71,2.72-1.68,4.4-2.97,5.03-3.87.7-.99,1.79-2.06,3.28-3.23.94-.72,2-1.26,3.14-1.6,9.12-2.62,14.22-3.99,15.32-4.1,3.78-.4,6.65,1.21,6.49,5.59-.06,1.95.36,3.87,1.28,5.76.19.41.25.89.12,1.34l-.65,2.34c-.19.74.35,1.45,1.1,1.45h2.31c.57,0,1.06-.37,1.21-.93l.4-1.46c.41-1.47,2.3-1.88,3.28-.71l4.79,5.72c.1.13.17.28.17.45v5.08c0,.65-.32,1.25-.86,1.6-.74.48-1.2.99-1.42,1.57-.13.34.21.66.53.52.62-.26,1.24-.19,1.86.18.35.21.79.15,1.07-.13,2.61-2.48,2.44-5.9,2.52-9.58.01-1.08,1.08-1.83,2.1-1.48l2.75.93c.59.19,1.2-.21,1.25-.83l.05-.55c.06-.8-.44-1.54-1.2-1.76-3.77-1.1-5.36-4.23-8.18-5.94-1.86-1.12-5.14-3.39-9.83-6.79-1.43-1.03-1.95-2.92-1.25-4.54l.06-.14c.62-1.45,2.41-1.95,3.69-1.05,3.52,2.5,8.56,6.28,15.1,11.33,1.64,1.26,6.26,1.5,6.14,4.96-.03.74.36,1.41.99,1.77.86.48,1.37,1.17,1.54,2.1.17.98-.88,1.7-1.73,1.21-1.36-.79-2.08-1.19-2.17-1.21-1.79-.5-2.99,1.81-1.56,2.99l4.62,3.85s.04.04.06.06l7.58,9.07c.89,1.07,2.44,1.34,3.65.65l2.01-1.16c.58-.34.84-1.03.62-1.66l-4.45-12.49c-.55-1.56.88-3.11,2.48-2.67l5.48,1.51c.9.25,1.73-.59,1.46-1.48-.35-1.1-.36-2.28-.05-3.54.17-.66.67-1.19,1.33-1.37l.19-.05c.5-.14.97.3.88.81"/>
      <path class="cls-3" d="M391.48,308.24l-4.53,4.7-1.26,1.08c-.31.27-.77.23-1.05-.06-2.79-3.08-5.16-4.39-6.52-8.83-.18-.58-.44-1.14-.77-1.65-2.08-3.21-4.48-6.49-7.2-9.85-1.64-2.01-2.86-4.18-1.9-7.05.85-2.52.76-4.84-.27-6.98-1.35-2.83-4.88-8.23-10.59-16.23-.34-.48-.59-1.01-.75-1.57l-3.66-12.87c-.35-1.24.98-2.27,2.09-1.63l2.66,1.54c1.33.77,2.4,1.94,3.03,3.34l1.95,4.3c.23.53.7.93,1.26,1.08l4.56,1.25c.83.23,1.42.97,1.45,1.83.26,7.11,2.93,11.33,6.79,18.85.31.61.45,1.29.39,1.96l-.28,3.41c-.04.44.06.88.31,1.24l14.31,22.13Z"/>
      <path class="cls-4" d="M32.61,177.2c.05.01.1,0,.13-.04l4.65-5.82c.12-.14.26-.25.41-.31l5.85-2.66c.39-.17.34-.74-.08-.84-1.05-.28-1.82-.97-2.34-2.04-.3-.63-1.16-.7-1.55-.12l-7.59,11.39c-.08.12-.03.28.12.32l.4.1ZM42.24,148.45l-3.46,2.9c-.5.41-.9.94-1.16,1.52l-8.85,19.41s-.01.08.03.1l.52.27c.13.06.28.01.35-.12l7.16-13.77c.14-.27.48-.39.75-.25l.37.19c.12.06.15.19.12.31l-1.57,4.67c-.17.52.43.93.85.59.61-.49,1.76-2.12,3.45-4.88.5-.84.74-2.4.67-4.7-.04-1.42.53-3.28,1.68-5.57.28-.55-.41-1.1-.89-.7M44.24,143.88c-.2-.28-1.76.48-3.47,1.71-1.71,1.22-2.94,2.45-2.74,2.74.2.28,1.76-.48,3.47-1.71,1.71-1.22,2.94-2.45,2.74-2.74M3.77,235.87c2.89-21.01,8.48-41.22,16.75-60.64,3.64-8.54,9.19-21.38,14.29-30.73,16.84-30.83,38.64-57.47,65.39-79.93,10.84-7.99,21.14-14.79,30.91-20.39,3.68-2.1,9.74-5.39,18.18-9.87,5.81-3.07,10.63-4.89,16-7.39,1.97-.92,4.18-1.72,6.61-2.4,17.02-4.74,34.83-8.7,53.43-11.9,7.05-1.21,13.42-1.52,19.11-.93.57.06.75.8.26,1.11-1.47.93-3.01,1.54-4.59,1.81-.36.06-.59.43-.5.77v.03c.06.31.39.49.7.41,6.05-1.65,12.96-3.82,18.22.43.63.5.52,1.51-.23,1.85l-13.18,5.97c-.31.14-.59.35-.84.59-1.48,1.6-3.52,3.23-6.13,4.89-.81.53-1.97,2.1-3.48,4.72-.34.57-.75,1.1-1.23,1.56l-1.83,1.76c-.27.26-.15.72.21.83l1.36.37c.55.15.63.93.1,1.17l-7.08,3.42c-.41.19-.81.45-1.17.77-1.92,1.69-4.44,3.46-7.58,5.3-3.28,1.94-4.89,3.69-5.06,7.37-.03.54-.31,1.03-.77,1.3-6.85,4.1-14.48,6.43-22.91,6.97-.63.04-1.24.21-1.79.5-2.1,1.12-3.79,3.23-6.09,4.43-2.14,1.11-4.97,2.43-8.48,3.96-.52.22-1.01.52-1.46.88-4.89,3.94-9.61,6.88-14.18,8.8-1.32.55-2.48,1.46-3.34,2.59-4.53,5.92-8.98,11.42-15.82,15.18-.68.37-1.55.01-1.76-.74l-1.79-6.31c-.06-.19-.08-.39-.06-.58,1.07-11.32,1.17-18.25,11.01-25.49,4.17-3.08,7.77-5.61,10.79-7.61.97-.63,1.95-1.51,2.94-2.66.15-.18.17-.46,0-.65-.15-.19-.43-.23-.63-.12l-6.19,3.57c-.21.12-.45.14-.67.09l-4.65-1.29c-.92-.25-1.21-1.41-.53-2.06l1.17-1.16c.92-.89,2.18-1.32,3.46-1.15,1.16.14,2.92-.08,5.25-.68.41-.1.77-.35,1.05-.67l5.34-6.48c.19-.23.35-.49.46-.76,1.32-3.14,2.68-5.06,4.09-5.78,3.95-2.03,8.22-4.05,10.85-7.3.84-1.03,1.99-2.03,3.46-2.98.35-.23.14-.79-.27-.72-5.65.83-9.51,1.86-13.28-.18-.9-.49-1.97-.58-2.94-.23l-10.23,3.64c-.62.22-1.19.55-1.68.98-2.09,1.83-4.39,3.24-6.88,4.23-.43.17-.83.4-1.19.7l-2.32,1.87c-.74.58-.31,1.77.63,1.77h5.65c.27,0,.44.31.28.54-2.04,3.02-5.02,5.68-10.32,10.9-3.23,3.17-2.56,4.99-3.52,8.96-.13.53-.44.99-.86,1.34-4.35,3.46-6.21,7.88-8.59,10.97-.46.61-1.08,1.07-1.78,1.36-2.25.92-4.3,3.74-7.07,3.76-.36,0-.55-.43-.32-.7.17-.19.5-.36.98-.5.41-.13.71-.48.76-.9.13-1.11.8-1.91,2.01-2.39.93-.36.83-1.74-.13-1.74-.8,0-1.25.54-1.36,1.64-.04.43-.27.8-.63,1.03-4.74,3.01-7.5,8.59-10.4,13.85-.37.7-.85,1.33-1.42,1.88-1.94,1.87-3.36,4.01-4.25,6.41-.04.09-.13.14-.22.12s-.15-.12-.14-.21l.52-4.13c.01-.17.08-.34.17-.48,3.63-5.67,6.26-11.43,7.92-17.29.17-.58-.58-.95-.95-.49l-2.08,2.59c-.23.28-.63.35-.94.14l-.53-.35c-.3-.19-.34-.61-.08-.85,2.96-2.84,6.78-6.68,11.46-11.52,2.75-2.85,7.59-5.94,10.62-9.46,2.41-2.77,3.83-4.45,4.26-5.03.23-.31-.01-.75-.4-.72-.94.06-1.77.31-2.45.76-.26.17-.61.12-.79-.14-.34-.46-.34-1.02,0-1.66.26-.5-.32-1.03-.8-.72-3.2,2.09-5.78,3.88-7.73,5.38-1.9,1.45-4.4,1.63-6.39,3.2-.23.18-.13.55.17.58,1.57.13,3.06-.35,4.44-1.43.17-.13.4-.15.59-.06l.54.23c.25.12.31.43.13.62-2.14,2.34-4.25,5.5-6.31,9.49-.5.99-2.06,1.9-4.68,2.71-1.52.48-3.46,2.22-5.79,5.2-.08.09-.17.18-.28.25l-8.61,5.59c-.34.22-.8.08-.94-.3-.27-.68-.8-.74-1.57-.17-8.16,5.99-15.49,13.29-21.98,21.93-1.01,1.33-1.12,3.05-.36,5.15.18.46.18.98.01,1.46l-2.92,8.68c-.19.58-.48,1.14-.84,1.65l-7.86,11.03c-.37.53.26,1.2.8.84,1.72-1.12,4.31-3.65,5.72-5.91,1.37-2.21,3.46-5.29,6.28-9.25.34-.46.76-.85,1.26-1.11,4.66-2.39,8.07-7.87,11.11-12.92,3.79-6.3,10.69-15.64,18.89-15.11.59.04.92.71.57,1.2-1.48,2.14-2.96,4.92-4.4,8.34-.06.17-.14.31-.26.45l-3.69,4.85c-.5.66.22,1.55.95,1.19,1.56-.76,3.39-1.19,5.51-1.28.5-.03.97.26,1.17.72l1.47,3.21c.12.28.1.61-.05.88l-5.45,9.43c-.26.44-.3.98-.13,1.46l2.52,7.07c.18.5.13,1.06-.15,1.52-2.75,4.48-4.49,9.42-5.24,14.81-.06.49-.06,1.01,0,1.51.66,4.32.9,6.85.76,7.58-.8,3.78-3.29,6.65-7.64,4.96-1.35-.53-2.79-.88-4.3-1.07-.86-.12-1.16-1.21-.48-1.74l1.57-1.23c.15-.12.28-.28.37-.46l3.46-7.59c.32-.7.83-1.3,1.46-1.73,1.42-.95,3.12-1.59,4.25-3.48.36-.61-.27-1.33-.92-1.03-4.67,2.1-9.19,3.02-13.56,2.75-.48-.04-.95.15-1.28.5-2.59,2.8-7.52,7.45-7.5,9.96,0,.48.52.79.94.55,2.7-1.51,4.76-3.37,6.21-5.57.31-.46,1.03-.21.98.35-.28,2.85-2,4.06-4.71,6.09-.74.54-1.32,1.24-1.73,2.04-1.51,2.98-3.17,5.32-4.97,6.99-.49.45-1.03.84-1.63,1.15-3.96,2.09-10.09,5.19-11.86,9.69-.86,2.19-2.03,4.66-3.5,7.38-.36.66-.84,1.24-1.42,1.72-5.51,4.45-9.98,9.94-13.4,16.43-1.83,3.47-1.72,6.93-2.74,9.87-.19.55-.5,1.06-.9,1.47-5.57,5.85-11.34,12.4-11.16,20.45.17,7.29-.65,14.56-2.44,21.8-.08.31-.37.5-.68.46-.31-.04-.54-.31-.54-.62l.06-21.8c0-.09-.01-.17-.05-.26-.49-1.38-1.1-2.36-1.83-2.92-1.17-.88-2.85.09-2.96,1.7-.08,1.23-.15,2-.25,2.32-.1.39-.58.54-.89.28-.17-.14-.31-.49-.4-1.02-.09-.48-.58-.76-1.03-.61-3.38,1.1-3.25,4.81-4.3,8.23-.17.57-.93.65-1.21.13-.01-.03-.04-.23-.09-.61"/>
      <path class="cls-4" d="M359.04,23.67c-.1.48-.58.78-1.06.68l-8.57-1.9c-.49-.11-.78-.58-.68-1.06v-.05c.11-.48.59-.78,1.07-.68l8.57,1.9c.49.11.78.58.68,1.06v.05Z"/>
      <path class="cls-4" d="M295.15,35.31c-.98.08-2.12-.27-3.41-1.05-1.61-.97-2.09-4.01-3.69-5.41-3.29-2.86-8.13-4.48-12.27-7.12-.18-.12-.23-.36-.12-.54l.18-.27s.01-.01.03,0l9.89,5.16c.08.04.15.06.25.08l2.26.23c1.51.17,2.88.97,3.76,2.19l3.76,5.32c.26.36.7.54,1.14.46l1.15-.21c.92-.17,1.46.98.75,1.57l-3.59,3.01c-.61.52-1.55.08-1.55-.72-.01-1.07.52-1.87,1.56-2.43.14-.08.09-.3-.08-.28Z"/>
      <path class="cls-4" d="M342.77,26.8s-.03-.03-.03-.04c.26-1.16,1.47-1.9,2.74-1.63l5.21,1.14c1.25.27,2.06,1.43,1.82,2.61-.01.01-.03.03-.04.01l-9.7-2.09Z"/>
      <path class="cls-4" d="M301.74,31.11l-.62-2.16c-.14-.5-.58-.86-1.1-.9l-4.21-.36c-.27-.03-.5-.21-.57-.46l-.1-.36c-.1-.36.12-.72.48-.79,4.87-.94,5.83,1.05,8.85,2.72,1.47.83,2.03,2.4,4.01,2.79.41.08.7.46.66.88l-.03.34c-.03.21-.21.37-.41.37-1.96.01-4.07-.43-6.31-1.33-.32-.13-.57-.4-.66-.74Z"/>
      <path class="cls-4" d="M342.13,27.84c.01.65-1.33,1.2-2.99,1.24-1.67.04-3.03-.45-3.05-1.11-.01-.65,1.33-1.2,2.99-1.24,1.67-.04,3.03.45,3.05,1.11Z"/>
      <path class="cls-4" d="M302.11,34.82c-.41-.02-.7-.57-.66-1.22.04-.65.4-1.16.81-1.13.41.02.7.57.66,1.22-.04.65-.4,1.16-.81,1.13Z"/>
      <path class="cls-4" d="M315.31,36.77l-1.21.44c-.63.22-1.17-.52-.75-1.05.4-.5,1.05-.66,1.91-.45.54.13.57.88.05,1.06Z"/>
      <path class="cls-4" d="M324.22,187.89c-.66.18-1.16.71-1.33,1.37-.31,1.25-.3,2.44.05,3.54.27.89-.55,1.73-1.46,1.48l-5.48-1.51c-1.6-.44-3.03,1.11-2.48,2.67l4.45,12.49c.22.63-.04,1.33-.62,1.66l-2.01,1.16c-1.21.7-2.76.43-3.65-.65l-7.58-9.07s-.05-.05-.06-.06l-4.62-3.85c-1.43-1.19-.23-3.5,1.56-2.99.09.03.81.43,2.17,1.21.85.49,1.9-.23,1.73-1.21-.17-.93-.67-1.63-1.54-2.1-.63-.36-1.02-1.03-.99-1.77.12-3.46-4.5-3.69-6.14-4.96-6.54-5.05-11.58-8.83-15.1-11.33-1.28-.9-3.07-.4-3.69,1.05l-.06.14c-.7,1.63-.18,3.51,1.25,4.54,4.7,3.39,7.98,5.67,9.83,6.79,2.83,1.7,4.41,4.84,8.18,5.94.76.22,1.26.95,1.2,1.76l-.05.55c-.05.62-.66,1.02-1.25.83l-2.75-.93c-1.02-.35-2.09.4-2.1,1.48-.08,3.68.09,7.1-2.52,9.58-.28.28-.72.34-1.07.13-.62-.37-1.24-.44-1.86-.18-.32.14-.66-.18-.53-.52.22-.58.68-1.1,1.42-1.57.54-.35.86-.95.86-1.6v-5.08c0-.17-.06-.32-.17-.45l-4.79-5.72c-.98-1.17-2.86-.76-3.28.71l-.4,1.46c-.15.55-.65.93-1.21.93h-2.31c-.75,0-1.29-.71-1.1-1.45l.65-2.34c.13-.45.08-.93-.12-1.34-.92-1.88-1.34-3.81-1.28-5.76.15-4.37-2.71-5.99-6.49-5.59-1.1.12-6.19,1.48-15.32,4.1-1.14.34-2.19.88-3.14,1.6-1.48,1.16-2.58,2.23-3.28,3.23-.63.9-2.31,2.19-5.03,3.87-4.61,2.84-7.85,7.07-9.74,12.71-.23.67-.62,1.28-1.12,1.78-3.41,3.29-7.03,7.36-11.02,6.71-3.51-.58-5.38-.86-5.63-.88-1.72-.04-2.37,2.21-.92,3.11,3.36,2.05,6.67,2.77,9.96,2.16,2.28-.44,4,.61,5.57.28.59-.12,1.15-.39,1.63-.79,4.45-3.76,8.79-5.55,13.03-5.38.75.04,2.58.61,5.48,1.72.52.21,1.07.32,1.64.35,2.59.14,5.54-.37,8.83-1.54.13-.05.27-.06.41-.05l10.83.9c.58.05.97.61.81,1.16l-2.8,10.13c-.28,1.03-.01,2.14.74,2.9,1.41,1.47,2.92,2.61,4.54,3.39,6.8,3.33,12.7,5.78,17.69,7.37.7.22,1.34.54,1.94.98,2.39,1.78,5.45,6.17,9.56,4.12.32-.17.79-1.55,1.39-4.14.65-2.74,2.63-4.48,5.95-5.23.43-.1.88-.08,1.29.05,5.33,1.68,9.34,2.75,12.07,3.2,5.01.83,9.87,3.39,15.15,4.25,2.58.43,4.04-1.02,5.96-2.3.48-.32,1.08-.4,1.64-.21l5.95,2c.53.18,1.12.12,1.61-.17l.35-.19c.46-.26,1.02-.34,1.54-.19l3.25.9c.88.23,1.72-.46,1.63-1.37-.63-6.93,1.11-10.07,3.87-17.18,1.2-3.1.72-8.9-4.65-8.07-.61.09-1.07.58-1.12,1.2l-.23,2.76c-.04.48-.62.68-.95.35-2.79-2.76-7.07-2.62-10.99-2.5-.48.01-.95-.14-1.34-.45l-2.22-1.77c-.35-.28-.85-.31-1.23-.05-.57.37-.98.98-1.24,1.81-.1.35-.48.53-.81.4-5.51-2.12-9.89-5.87-13.1-11.27-.7-1.17-.31-2.71.88-3.39l5.91-3.41c.63-.37.55-1.32-.14-1.55-1.26-.43-2.63-.89-4.1-1.42-2.52-.9-3.57-2.46-3.17-4.7.09-.52-.37-.95-.88-.81l-.19.05ZM361.98,172.92c2.94-.32,5.34-1.85,7.2-4.57,1.06-1.55-.53-3.52-2.27-2.84-2.52.99-5.34,1.41-8.45,1.25-1.1-.05-2.09.66-2.39,1.72l-.75,2.71c-.08.31.05.63.32.79l4.58,2.65c.77.45.41,1.64-.48,1.57-3.73-.28-4.16-3.36-7.47-4.27-.4-.12-.81.12-.93.52l-.27.99c-.14.53-.68.84-1.21.7l-.68-.19c-.43-.12-.68-.55-.57-.98l.44-1.56c.1-.36-.03-.76-.34-.99l-3.54-2.83c-.36-.28-.84-.36-1.28-.21-4.09,1.46-6.71,4.08-7.87,7.86-1.36,4.43-3.23,6.18-5.57,9.24-1.17,1.54-1.81,3.24-1.87,5.1-.01.49.4.89.89.84,1.25-.12,2.45-.05,3.61.22,5.52,1.28,9.9,1.79,15.67,1.33,4.07-.32,6.58-.4,7.52-.23,6.72,1.17,13.27,2.17,19.64,2.98,1.34.17,2.31-.36,2.89-1.61,1.14-2.41.37-4.75-1.5-6.66-3.33-3.36-11.81-11.92-15.4-11.74-.21.01-.37-.14-.37-.35v-.93c0-.25.19-.46.44-.49M329.54,107.61c-.84-.61-1.57-.59-2.18.01-.27.26-.05.71.32.66,1.26-.18,2.5.13,3.72.92.81.54,1.87-.17,1.69-1.12-.39-2.1-1.14-3.26-2.26-3.5-.41-.08-.83.15-.95.55-.28.88-.26,1.56.09,2.04.09.13.08.3-.03.4-.1.12-.27.13-.4.04M356.45,85.93c-.26-.34-1.08-.16-1.84.41-.76.57-1.16,1.3-.91,1.65.26.34,1.08.16,1.84-.41.76-.57,1.16-1.3.91-1.65M347.11,83.99c.19-.62-.34-1.33-1.18-1.58-.85-.26-1.69.02-1.87.63-.19.62.34,1.33,1.18,1.58.85.26,1.69-.02,1.87-.63M334.91,83.22l10.79,4.92c.23.1.43.28.55.5l1.02,1.77c.36.62,1.19.77,1.76.32.63-.53,1.57-.68,2.83-.46.55.1.88-.62.44-.97l-4.28-3.42c-.27-.22-.62-.32-.97-.31-1.55.09-2.84-.21-3.88-.9-2.62-1.74-4.66-1.73-7.96-2.34-.23-.04-.46.09-.53.32-.08.22.03.46.25.57M368.87,75.85c.32,6.48,1.54,11.38,3.61,14.72,8.53,13.64,13.83,22.98,15.91,28.03,6.21,15.14,10.22,25.42,12.07,30.84,2.16,6.34,3.01,13.41,2.54,21.22-3.7,2.03-5.39,5.03-5.1,9.05.03.34.13.67.31.95l10.45,17.43c.5.83.57,1.87.15,2.76l-1.51,3.32c-.13.28-.18.58-.14.88.14,1.35.57,2.56,1.28,3.57.34,3.46.72,6.85,1.15,10.19.31,2.45.27,5.1-.1,7.92-.85,6.23-.83,11.92.08,17.07-2.44.9-2.62,3.96-.57,9.19-2.46.18-4.03,1.07-3.69,3.91.79,6.52.12,13.33-2,20.44-3.57,12.03-6.48,20.69-8.71,25.96-.66,1.57-1.7,3.21-3.12,4.92l-14.31-22.13c-.25-.36-.35-.8-.31-1.24l.28-3.41c.06-.67-.08-1.35-.39-1.96-3.86-7.52-6.53-11.74-6.79-18.85-.03-.86-.62-1.6-1.45-1.83l-4.56-1.25c-.57-.15-1.03-.55-1.26-1.08l-1.95-4.3c-.63-1.41-1.7-2.57-3.03-3.34l-2.66-1.54c-1.11-.65-2.44.39-2.09,1.63l3.66,12.87c.15.57.41,1.1.75,1.57,5.72,8,9.24,13.41,10.59,16.23,1.03,2.14,1.12,4.47.27,6.98-.97,2.86.26,5.03,1.9,7.05,2.72,3.36,5.12,6.63,7.2,9.85.34.52.59,1.07.77,1.65,1.35,4.44,3.73,5.74,6.52,8.83.27.3.74.34,1.05.06l1.26-1.08c.01.76.19,1.52.55,2.27l-.75,2.19c-9.49,16.16-20.78,31.35-33.88,45.58-1.08,1.17-1.99,2.77-2.72,4.79-2.01,1.59-3.72,3.51-5.12,5.79-.57-.76-1.3-1.25-2.19-1.47-.4-.1-.83.01-1.14.3-4.1,3.79-7.16,7.79-11.76,11.64-16.71,13.95-34.8,25.72-54.25,35.31l-.17-1.65c.05-7.2-.95-14.25-3.03-21.13-1.66-5.51-4.27-8.25-8.09-11.67-3.81-3.39-3.6-7.14-3.56-12.35.03-3.28.48-6.84,1.37-10.69.45-1.91.09-3.51-1.08-4.8-3.47-3.83-7.94-4.88-13.4-3.14-.3.1-.63.12-.94.03-1.36-.35-1.85-1.41-1.47-3.16.21-.99.31-1.51.3-1.55-.27-1.2-1.23-2.13-2.44-2.34-4.32-.74-8.59-.48-12.79.79-4.39,1.33-8.87,4.49-15.51,2.9-4.3-1.02-10.03-.74-17.19.85-5.82,1.29-8.63-6.16-13.1-8.84-2.25-1.35-3.85-2.85-4.79-4.48-.65-1.12-2.34-5.17-5.06-12.18-.12-.3-.31-.57-.54-.77l-7.42-6.61c-.35-.31-.59-.71-.72-1.16l-2.3-8.07c-.27-.97-.25-2.01.1-2.96,3.51-9.61,3.78-18.92.83-27.94-.21-.63-.22-1.32-.04-1.95.35-1.21.97-2.65,1.87-4.28,5.11-9.34,8.53-15.81,14.31-22.11,1.66-1.81,4.09-2.99,7.28-3.56,1.78-.31,3.23-1.63,3.7-3.37l4.31-15.59c.36-1.32,1.51-2.26,2.86-2.36l2.58-.19c1.28-.09,2.35-.97,2.71-2.19.71-2.43.26-5.76,1.76-8.3.89-1.52,2.21-2.85,3.95-4,.83-.54.36-1.82-.62-1.72-3.1.31-6.22-.21-9.36-1.56-.9-.39-1.38-1.39-1.12-2.35,1.76-6.31,3.21-11.3,4.39-14.98.4-1.29.54-3.88.41-7.79-.01-.4.05-.8.21-1.16,2.94-7.11,13.21-4.09,18.54-2.23,5.46,1.91,7.58-7.19,7.12-10.85-.04-.36.06-.74.3-1.02l3.08-3.87c.66-.83.32-2.05-.67-2.43-2.04-.79-4.28-1.01-6.74-.68-.9.13-1.64-.75-1.34-1.61l.55-1.65c.3-.89,1.14-1.48,2.08-1.48h2.66c.8,0,1.51-.54,1.72-1.33.76-2.89,2.34-4.76,4.75-5.63,1.7-.59,3.01.25,4.59.18.04,0,.08-.01.12-.03l7.21-2.4c1.26-.41,1.99-1.77,1.63-3.06-.81-2.9.36-4.75,3.54-5.55,2.92-.74,5.42-1.39,7.51-2,.25-.08.48-.19.68-.35l7.11-5.34c.36-.27.49-.76.3-1.16l-.74-1.61c-.19-.43-.19-.92,0-1.33l1.6-3.48c.21-.45.68-.71,1.17-.65,1.74.27,3.63-.01,5.65-.85.31-.13.63-.18.95-.15.54.04.83.05.84.06.76.4.46,1.56-.4,1.55-2.48-.03-5.16.68-8.05,2.14-.66.32-.84.77-.52,1.35.28.54.58.92.88,1.12.45.3,1.06.08,1.2-.44l.22-.8c.06-.25.3-.41.55-.41h.39c.31,0,.54.3.46.59-.21.76-.59,1.25-1.16,1.48-.45.18-.67.68-.49,1.14.22.55.54.88.98.97,1.1.21,1.66.52,1.72.93.13,1.01-.21,1.97-.99,2.89-.26.3-.05.76.35.76,2.13,0,4.07-1.68,5.9-2.3,3.05-1.02,5.88-.71,8.4-1.64,1.34-.5,2.9-.83,4.7-.98,4.53-.39,8.49-1.73,11.86-4.01.39-.26.93-.15,1.19.23.58.85.92,1.77,1.02,2.75.03.22.21.4.43.41.22.01.43-.14.48-.36.61-2.62,1.55-4.85,2.85-6.71.19-.28.59-.35.85-.12.5.44,1.11.61,1.81.49,3.12-.5,6.01-1.6,8.67-3.3.48-.3.5-.98.06-1.33l-.27-.22c-.4-.32-.99-.28-1.35.08-1.37,1.38-2.89,2.04-4.57,1.96-.4-.03-.71-.36-.71-.76v-.36c0-.18.13-.34.3-.36l2.9-.54c.37-.06.52-.54.23-.8-1.14-1.05-2.36-1.61-3.69-1.72-.21-.01-.37-.19-.37-.4v-.32s.01-.04.04-.04l6.76-.52c.36-.03.68-.26.84-.58,1.15-2.49,2.75-4.79,4.83-6.89.59-.61.74-1.59.34-2.32-.41-.72-1.24-.97-1.96-.58-.26.14-.53.59-.8,1.38-.15.44-.54.74-.99.79-6.13.63-16.08.26-16.4-7.23-.03-.49.22-.94.63-1.2.89-.55,2.16-1.33,3.79-2.32,3.46-2.12,3.32-4.44,5.15-7.41.27-.43.05-.98-.44-1.12l-.89-.25c-.57-.15-1.16.18-1.32.75l-1.02,3.68c-.1.4-.35.76-.67,1.02-2.09,1.69-3.61,2.59-4.56,2.72-5.33.68-9.24,3.43-11.74,8.22-.21.4-.09.9.3,1.16l3.72,2.48c1.11.74,1.41,2.22.67,3.33l-8.66,13.01c-.13.19-.28.35-.48.46l-6.25,3.9c-1.01.63-2.26.77-3.38.39l-.92-.31c-.58-.19-.57-1.01.01-1.19,1.9-.58,2.81-1.73,2.76-3.43-.01-.36-.31-.66-.67-.66h-2.16c-.46,0-.86-.32-.94-.77l-2-10.85c-.06-.36-.37-.63-.74-.67-.99-.1-1.87-.14-2.66-.1-1.72.06-3.34,2.77-5.32,2.72-3.08-.1-5.99-.06-8.71.13-.52.04-.93-.4-.88-.92.25-2.46.52-5.1.8-7.9.8-7.88,6.89-11.11,12.7-13.96,1.92-.95,3.69-2.19,5.25-3.68,5.51-5.23,8.45-8.05,8.83-8.5,6.5-7.78,15.61-12.76,25.25-13.37,3.34-.21,7.33-.57,11.98-1.07,3.15-.35,5.29.17,8.34,1.96,2.97,1.77,5.97,3.14,9.02,4.08.66.19,1.29.48,1.88.85,3.37,2.05,6.74,3.87,10.1,5.43,1.72.8,2.23,1.68,1.54,2.65-.3.41-.19.99.23,1.28,1.07.71,1.39,1.77.97,3.17-.1.35.06.72.39.89.34.15.72.05.93-.26l1.1-1.65c.44-.66,1.46-.44,1.59.35.09.5.04,1.07-.14,1.68-.08.28-.37.45-.66.36-1.07-.3-1.92-.13-2.54.53-.21.22-.49.34-.8.34h-6.34c-.1,0-.18.08-.18.18v.61c0,.12.09.21.21.21h11.24c.43,0,.79-.3.86-.71.59-2.77.77-4.7.55-5.76-.44-2.1.41-3.41.5-5.6.06-1.63-.62-2.5-2.06-2.63-.95-.08-1.24-1.35-.4-1.82.61-.34,1.14-.25,1.59.28,1.05,1.24,1.7,2.23,1.97,2.97.37,1.05.97,1.55,1.78,1.54.26,0,.49.1.66.3l2.5,2.92"/>
      <path class="cls-4" d="M215.89,74.58l-.43,2.66c-.12.65.43,1.23,1.08,1.15,1.32-.14,2.12.27,2.41,1.21.76,2.48-1.96,3.78-3.86,4.41-6.36,2.1-10.54,3.34-12.57,3.7-.53.1-1.07.04-1.56-.17-3.48-1.51-6.66-2.46-8.81-5.12-1.05-1.28-.22-3.19,1.42-3.32l7.82-.59c.23-.01.46-.1.65-.23,1.64-1.21,3.63-2.59,5.95-2.31,3.64.45,4.3-1.37,7.2-2.04.4-.1.76.25.7.65Z"/>
      <path class="cls-4" d="M230.19,107.08l2.48,2.54c.27.28.4.66.36,1.05-.06.79-.36,1.57-.89,2.34-.08.12-.04.27.06.35l.31.26c.09.08.23.06.32-.03,1.07-1.1,2.22-1.78,3.42-2.08.41-.09.8-.27,1.14-.52.28-.19.76-.72,1.42-1.57,1.26-1.6,3.56-2.14,5.37-1.86.52.08.65.76.19,1.02l-8.25,4.76c-.06.04-.13.08-.17.14l-6.88,8.61c-.65.81-1.01,1.82-1.01,2.86-.01,4.89-2.23,8.49-6.63,10.8-4.07,2.13-8.17,4.39-12.3,6.75-.81.48-1.6.61-2.34.41-.48-.13-.65-.72-.3-1.08l3.28-3.42c.05-.05.09-.12.13-.19.66-1.37-.77-2.93-.17-4.35.84-2-.54-7.51,3.17-7.67,1.47-.06,2.93,1.46,4.37,1.73,1.66.43,3.06-1.32,2.26-2.84l-.95-1.77c-.58-1.08.27-2.37,1.5-2.27l3.68.31c.48.04.93-.21,1.16-.62.44-.77.62-2.04.53-3.78-.05-1.2-1.1-2.08-1.12-2.68-.03-.41.35-.75.75-.67.99.19,2,.1,2.99-.25.4-.14.68-.49.76-.9.14-.86-.09-1.72-.71-2.54-.08-.12-.09-.26-.04-.39.45-.97,1.03-1.79,1.74-2.46.1-.09.26-.09.35.01Z"/>
      <path class="cls-4" d="M71.01,113.42c-.43-.3.01-1.69.99-3.14.97-1.45,2.11-2.38,2.55-2.08.43.3-.01,1.69-.99,3.14-.97,1.45-2.11,2.38-2.55,2.08Z"/>
      <path class="cls-4" d="M236.42,116.01c.77-.75,1.9-.99,2.92-.66l.99.34c.86.28,1.01,1.45.25,1.95-1.99,1.3-2.57,2.46-1.76,3.48.83,1.05,1.65,1.92,2.48,2.65,1.33,1.15,1.32,2.81,1.56,4.93.04.34.21.63.46.85l1.46,1.16c.45.36.72.9.74,1.5.04,3.88-1.34,7.52-4.14,10.9-1.01,1.23-2.41,2.06-3.97,2.36-4.43.84-6.66,1.28-6.7,1.29-.48.18-.99.25-1.5.15l-5.77-.94c-.58-.1-.85-.79-.48-1.25,4.45-5.52,9.27-11.3,7.18-18.67-.17-.61-.1-1.26.21-1.83,1.77-3.29,3.79-6.03,6.08-8.21Z"/>
      <path class="cls-4" d="M74.27,159.85c.49-.14.94.34.77.81l-.79,2.36c-.39,1.14-1.32,2.01-2.48,2.32-2.61.71-4.09,1.23-4.47,1.54-2.09,1.77-4.1,3.42-6.05,4.94-.35.27-.85.17-1.07-.21l-.19-.35c-.12-.19-.08-.43.09-.58,2.09-1.87,3.29-3.06,3.61-3.56,2.08-3.19,3.79-5.1,5.16-5.76.06-.03.12-.05.18-.06l5.23-1.46Z"/>
      <path class="cls-4" d="M265.05,188.15c.1-.01.21.06.22.17l.15.9c.84,4.9.55,9.05-.65,9.24-1.19.21-2.84-3.6-3.68-8.5l-.15-.9c-.01-.1.05-.21.15-.22l3.95-.68Z"/>
      <path class="cls-4" d="M324.76,197.31c.15.5-.46,1.13-1.37,1.39-.9.26-1.75.06-1.9-.44-.15-.5.46-1.13,1.37-1.39.9-.26,1.75-.06,1.9.44Z"/>
      <path class="cls-4" d="M551.46,199.23l.43-.1c.05-.01.1.03.12.08l3.15,13.74c.01.08.04.15.06.22,2.93,6.47,4.56,13.07,4.88,19.81.03.36-.25.68-.61.74h-.03c-.35.05-.68-.17-.76-.52-.71-3.06-1.1-5.56-1.17-7.48-.03-.66-.13-1.29-.3-1.92-1.28-4.59-2.27-10.26-5.56-11.9-.66-.34-.86-1.17-.44-1.78,1.55-2.17,1.77-4.04.65-5.6-.1-.14-.17-.31-.18-.49l-.35-4.63c-.01-.08.04-.14.12-.15Z"/>
      <path class="cls-4" d="M284.3,206.63l-1.07.62c-.63.36-1.38.45-2.09.26l-4.19-1.16c-.67-.18-1.14-.79-1.14-1.48v-.68c0-.68.76-1.08,1.32-.7,1.35.93,3.69,1.66,7.01,2.21.46.08.58.7.17.94Z"/>
      <path class="cls-4" d="M261.25,208.25c-1.34-.4-2.21-.81-2.59-1.24-.61-.66.31-1.59,1.23-1.24.65.25,1.25.89,1.81,1.94.15.3-.12.65-.44.54Z"/>
      <path class="cls-4" d="M283,212.99c-.4-.27.13-1.78,1.19-3.35,1.07-1.58,2.26-2.62,2.67-2.35.4.27-.13,1.78-1.19,3.35-1.07,1.58-2.26,2.62-2.67,2.35Z"/>
      <path class="cls-4" d="M323.62,214.73c-.05-.19.05-.4.25-.46l.28-.09c1.17-.39,2.37.03,2.66.92l.04.1c.28.89-.44,1.92-1.61,2.31l-.28.09c-.19.06-.4-.04-.46-.23l-.86-2.63Z"/>
      <path class="cls-4" d="M314.15,216.83c-.43.27-1.07.05-1.4-.5-.33-.54-.26-1.2.18-1.48.43-.27,1.07-.05,1.4.5.33.54.26,1.2-.18,1.48Z"/>
      <path class="cls-4" d="M3.47,239.61c.66,2.36.86,4.75.59,7.16-.89,8.17-1.16,16.54-.84,25.1.04,1.17.27,2.39.68,3.65.26.79,1.37.77,1.63-.01,1.12-3.55,1.9-7.42,2.3-11.59.26-2.56,1.06-3.74,2.4-3.56.36.05.72-.12.92-.41.84-1.28,2-2,3.51-2.17,1.23-.13,2.44.84,2.88,2.3.58,1.95.95,3.57,1.15,4.9.09.61-.68.92-1.06.44-1.07-1.38-1.68-2.7-1.83-3.96-.12-.94-1.11-1.5-1.97-1.1l-2.41,1.08c-1.16.53-1.91,1.69-1.9,2.97.06,7.77-.61,15.33-2.03,22.67-.25,1.29.31,2.59,1.42,3.3l3.85,2.48c.49.31.89.74,1.19,1.23,1.34,2.3.03,10.14-.34,13.32-.71,6.27.36,9.55,3.52,14.94.27.45.77.71,1.29.67l4.99-.37c.49-.04.88-.46.85-.97-.18-4.65-.28-8.07,2.7-11.41.28-.32.8-.19.9.22.85,3.38.76,7.05-.26,11.01-.13.52.05,1.07.48,1.41l.58.46c.23.19.59.05.63-.26.25-2.13.23-4.61-.05-7.41-.13-1.28.52-2.43,1.57-2.8.7-.25,1.66-.17,2.92.26.22.09.4.23.53.43l3.21,4.89c.37.59,1.08.88,1.77.71.27-.04,1.38-.27,3.3-.68.75-.17,1.23-.04,1.45.37.26.5.31,1.07.17,1.69-.06.27.09.54.35.62.26.09.54-.04.66-.28.08-.17.14-.3.18-.36.18-.32.65-.3.8.04.35.79.41,1.73.22,2.84-.09.52.04,1.05.36,1.47,2.18,2.8,4.67,6.47,7.47,11.02,1.23,2,5.1,3.95,8.31,4.31,5.2.57,8.68,3.85,10.94,8.57,3.17,6.66,4.79,10.26,3.01,17.33-.17.65.52,1.17,1.1.86,1.54-.8,2.75-.83,3.63-.09,1.37,1.17.89,2.53.92,3.96.01.34.45.46.65.18,4.09-6.05,9.87-.75,13.29,3.28.34.4.79.68,1.29.83,4.36,1.25,10.36,0,14.05,4.99,1.46,1.97,3.32,3.33,5.56,4.06,5.97,1.96,10.25,6.1,10.71,12.52.05.75-.32,3.92-1.12,9.51-.12.81-.4,1.6-.86,2.28l-2.36,3.55c-.34.49-.54,1.06-.62,1.64-.7,5.6-.28,11.15,1.23,16.66-.14.14-.21.32-.19.55l-.44,1.51c-.09.31-.52.35-.65.05l-1.39-3.06c-.19-.44-.57-.76-1.01-.9-26.89-8.39-53.26-19.36-76.07-34.78-3.41-2.31-7.29-5.56-11.67-9.78-1.29-1.24-2.57-1.16-3.82.23-3.37-3.99-4.34-8.3-2.9-12.92.14-.44.05-.92-.22-1.28-.68-.93-1.88-1.43-2.26-2.77-1.72-5.97-.49-11.94.05-17.73.13-1.35-.19-4-.95-7.91-1.05-5.38-1.61-10.39-1.7-15.02,0-.17-.08-.31-.21-.4-.22-.14-.45-.14-.68.01-.1.06-.17.17-.19.3-.26,1.38-.84,2.1-1.76,2.14-.41.01-.8-.21-.99-.58l-5.38-10.23c-.21-.39-.32-.81-.35-1.25l-.62-10.93c0-.09-.03-.18-.06-.27l-6.97-15.37s-.05-.08-.09-.12c-.93-.72-1.45-.97-1.6-2.3-.19-1.78-.71-3.48-1.52-5.1-.66-14.1.41-28.39,3.21-42.86Z"/>
      <path class="cls-4" d="M22.46,254.03c-.28.76-.75,1.21-1.39,1.37-.37.09-.71-.48-.66-1.14.04-.71.55-1.05,1.52-1.02.4,0,.67.41.53.79Z"/>
      <path class="cls-4" d="M25.35,276.33c-.03.15-.15.26-.31.26-.14,0-.27-.12-.28-.27-.19-2.37-.8-4.04-3.36-5.01-1.32-.5-2.08-2.14-2.3-4.94-.05-.63.77-.93,1.14-.4.94,1.41,1.55,2.74,1.82,3.99.08.41.37.75.79.89,2.12.7,2.96,2.53,2.5,5.48Z"/>
      <path class="cls-4" d="M27.66,279.71l2.45,2.75c.25.86.27,1.57.08,2.13-.22.61-1.06.68-1.38.12l-3.69-6.39c-.23-.4.1-.89.55-.83.93.12,1.59.86,1.99,2.22Z"/>
      <path class="cls-4" d="M30.84,281.55l-.68-1.07c-.1-.17-.28-.27-.49-.28-.61-.03-1.03-.39-1.3-1.08.27-1.25.7-1.64,1.28-1.19,2.86,2.26,4.98,4.28,6.34,6.05.18.23.43.39.7.46l2.23.62c.3.09.48.4.39.7l-.1.35c-.09.35-.41.57-.76.54-3.41-.32-4.97-3.77-7.59-5.1Z"/>
      <path class="cls-4" d="M22.1,281.22c-.36.25-1.04-.11-1.52-.8-.48-.68-.58-1.45-.23-1.7.36-.25,1.04.11,1.52.8.48.68.58,1.45.23,1.7Z"/>
      <path class="cls-4" d="M559.08,319.76c-.05.52-.79.59-.93.09-.23-.77-.08-1.59.46-2.45,2.7-4.36.1-6.14.21-9.78.09-3.23.37-7.12.84-11.7.08-.83,1.24-.92,1.46-.12.97,3.57-.57,11.74-1.05,13.72-.04.13-.04.26-.01.39l.93,5.88c.09.57-.14,1.15-.61,1.5-.77.59-1.21,1.42-1.3,2.48Z"/>
      <path class="cls-4" d="M562.46,319.54c.37,4.79.54,7.23.5,7.32-1.01,2.34-1.52,5.83-1.55,10.49,0,.76-.94,1.11-1.43.53-1.63-1.91.19-6.59,1.36-9.37.15-.36.15-.75.03-1.11-1.1-3.01-.97-5.69.4-8.03.18-.32.67-.21.7.17Z"/>
      <path class="cls-2" d="M462.18,62.34l-11.39-4.41c-.4-.15-.79-.35-1.15-.59l-2.26-1.46c-.27-.17-.55-.3-.86-.37-.74-.18-1.16.13-1.28.93-.14,1.05-1.34,1.55-2.1.88-7.21-6.35-13.42-12.27-22.7-15.29-.5-.17-1.43-.88-2.76-2.16-.35-.54-.34-1.01.04-1.41.27-.28.71-.35,1.03-.13,1.47.95,2.92,1.34,4.34,1.16.3-.04.37-.44.1-.58-5.95-3.07-13.14-7.73-19.69-10.63-17.07-7.58-31.36-12.94-42.83-16.13-23.55-6.54-47.62-10.08-72.2-10.62-.06-.01-3.86.08-11.37.25-5.02.1-9.98-.26-14.87-1.08,55.86-3.68,108.18,7.6,156.95,33.86,13.02,7.01,25.59,14.76,37.69,23.27,1.77,1.23,3.54,2.74,5.32,4.53Z"/>
      <path class="cls-2" d="M409.21,64.13c-.1-.08-.13-.23-.04-.34l.21-.27c.08-.09.22-.12.31-.04,5.1,3.63,8.1,5.95,9.03,6.99,1.68,1.88,2.48,3.96,2.4,6.23,0,.08.05.15.14.17.08,0,.15-.05.18-.13l1.56-5.65c.03-.12.18-.12.22,0,1.03,3.59.1,7.39.3,11.85.01.34-.41.5-.62.23-2.34-2.98-3.78-6.57-4.34-10.76-.08-.58-.37-1.11-.83-1.47l-8.53-6.81Z"/>
      <path class="cls-2" d="M426.17,77.75c-.04.18-.22.28-.39.21l-.4-.18c-.25-.12-.34-.41-.21-.65.52-.93.44-1.6-.23-2.03-.26-.15-.19-.54.1-.61.49-.09.95-.36,1.41-.81.32-.34.32-.85,0-1.19-.74-.76-1.52-3.28-2.39-7.56-.05-.27.27-.45.48-.26,2.88,2.74,2.41,8.9,1.63,13.07Z"/>
      <path class="cls-2" d="M388.86,69.77c-.15.62-1.39.85-2.76.53-1.37-.33-2.38-1.09-2.23-1.71.15-.62,1.39-.85,2.76-.53,1.37.33,2.38,1.09,2.23,1.71Z"/>
      <path class="cls-2" d="M356.45,85.93c.25.35-.15,1.08-.91,1.65-.76.57-1.57.75-1.84.41-.25-.35.15-1.08.91-1.65.76-.57,1.57-.75,1.84-.41Z"/>
      <path class="cls-2" d="M401.5,424.65c.06-1.17-1.32-1.83-2.19-1.07-.81.7-1.26,1.14-1.38,1.3-2.52,3.91-5.23,7.12-8.1,9.65-5.07,4.44-11.25,2.36-13.72,11.74-.14.53-.09,1.1.15,1.59,1.32,2.72,3.17,4.44.03,7.06-2.36,1.96-4.22,3.55-5.55,4.76-.48.44-.76,1.05-.77,1.69-.13,4.58,1.99,5.61,6.13,7.7.43.22.93.13,1.26-.21,2.74-2.81,5.67-6.89,8.79-12.22,7.15-12.21,11.34-19.62,12.58-22.23,1.72-3.61,2.63-6.87,2.77-9.77ZM536.46,393.9l-.27,3.23c-.03.35-.49.48-.7.19-.84-1.17-1.43-2.58-1.77-4.23-.18-.89-1.39-1.03-1.78-.22-.72,1.5-1.16,3.19-1.33,5.08-.03.43.17.83.53,1.05,2.21,1.32,4.49,1.78,6.85,1.38,1.16-.19,1.83-1.45,1.34-2.53l-1.87-4.12c-.22-.49-.97-.37-1.01.17M528.2,347.47c-.52,2.03.3,4.63.27,6.87-.15,10.7-.22,20.88-.18,30.53.01,2.5.41,4.65,1.23,6.43.23.5.97.43,1.08-.12,1.2-5.3,1.97-9.55,2.31-12.71.45-4.18.13-11.6-.95-22.26-.35-3.39-1.39-6.35-3.12-8.85-.17-.25-.55-.18-.63.12M554.75,344.72c-.53-.68-1.59-.63-2.04.1-2.05,3.33-3.6,6.85-4.66,10.56-1.16,4.04-5.1,5.38-6.14,9.74-1.41,5.9-2.53,10.19-3.34,12.89-.12.39-.13.79-.06,1.17l.98,5.32c.23,1.23,1.72,1.7,2.61.84,1.82-1.77,3.07-3.81,3.77-6.12,1.56-5.15,3.05-9.98,4.47-14.45.26-.81.44-1.65.53-2.52.57-4.96,1.99-9.74,4.27-14.38.49-.99.37-2.18-.3-3.06l-.08-.1M500.04,336.16l.08,14.76c0,.09.08.17.17.17h.05c1.54-.01,2.76-3.29,2.74-7.32v-.52c-.03-4.03-1.28-7.28-2.81-7.27h-.05c-.09,0-.17.06-.17.17M561.76,319.38c-1.37,2.34-1.5,5.02-.4,8.03.13.36.13.75-.03,1.11-1.16,2.77-2.98,7.46-1.36,9.37.49.58,1.43.23,1.43-.53.03-4.66.54-8.16,1.55-10.49.04-.09-.13-2.53-.5-7.32-.03-.37-.52-.49-.7-.17M559.08,319.76c.09-1.06.53-1.88,1.3-2.48.46-.35.7-.93.61-1.5l-.93-5.88c-.03-.13-.03-.26.01-.39.48-1.97,2.01-10.14,1.05-13.72-.22-.8-1.38-.71-1.46.12-.46,4.58-.75,8.48-.84,11.7-.1,3.64,2.49,5.42-.21,9.78-.54.86-.7,1.68-.46,2.45.14.5.88.43.93-.09M560.08,281.29c.48-.02.76-2.84.65-6.3-.12-3.47-.61-6.25-1.08-6.24-.48.02-.76,2.84-.65,6.3.12,3.47.61,6.25,1.08,6.24M551.46,199.23c-.08.01-.13.08-.12.15l.35,4.63c.01.18.08.35.18.49,1.12,1.56.9,3.43-.65,5.6-.43.61-.22,1.45.44,1.78,3.29,1.64,4.28,7.3,5.56,11.9.17.63.27,1.26.3,1.92.08,1.92.46,4.43,1.17,7.48.08.35.41.57.76.52h.03c.36-.05.63-.37.61-.74-.32-6.74-1.95-13.34-4.88-19.81-.03-.06-.05-.14-.06-.22l-3.15-13.74c-.01-.05-.06-.09-.12-.08l-.43.1M517.09,120.32c14.47,19.32,25.95,40.91,34.46,64.78,7.19,20.2,12.18,40.07,14.97,59.59,4.63,32.46,3.54,64.94-3.3,97.42-2.31,10.98-5.19,21.19-8.63,30.62-1.82,1.3-2.92,3.2-3.29,5.69-.08.55,0,.77.25.67.03-.01.04.01.03.04l-1.72,2.98c-.06.12-.13.25-.18.37l-4.25,11.37c-.18.49-.49.93-.89,1.29-.76.66-1.24,1.21-1.43,1.65-3.15,7.15-5.12,11.41-5.92,12.78-3.02,5.16-6.53,10.84-10.53,17.03-2.08,3.2-4.14,5.97-6.19,8.32-5.67,6.49-9.76,11.28-12.25,14.39-3.32,4.14-7.01,9.23-11.1,15.27-3.1,4.58-7.46,10.67-13.1,18.3-.34.46-.22,1.11.27,1.42l1.24.77c-32.02,32.04-68.51,55.01-109.47,68.91-64.78,21.98-128.85,21.02-192.2-2.86-30.35-11.45-58.92-28.6-85.71-51.45C39.8,449.93,5.54,376.85.31,300.57c-.4-5.72-.41-11.76-.05-18.11.81,1.61,1.33,3.32,1.52,5.1.15,1.33.67,1.57,1.6,2.3.04.04.06.08.09.12l6.97,15.37c.04.09.06.18.06.27l.62,10.93c.03.44.14.86.35,1.25l5.38,10.23c.19.37.58.59.99.58.92-.04,1.5-.76,1.76-2.14.03-.13.09-.23.19-.3.23-.15.46-.15.68-.01.13.09.21.23.21.4.09,4.63.66,9.64,1.7,15.02.76,3.91,1.08,6.56.95,7.91-.54,5.79-1.77,11.76-.05,17.73.37,1.34,1.57,1.85,2.26,2.77.27.36.36.84.22,1.28-1.43,4.62-.46,8.93,2.9,12.92,6.85,13.23,13.1,28.08,24.47,37.89,5.25,4.52,7.43,6.93,9.36,12.8,3.59,11.01,9.15,21.33,16.7,30.97,4.61,5.88,7.74,10.08,9.41,12.6,2.9,4.37,5.3,7.56,7.19,9.58,2.65,2.83,5.21,5.88,7.7,9.18,2.65,3.51,7.01,6.96,9.81,10.23.71.83,2.61,2.43,5.7,4.79,2.7,2.06,5.36,4.45,7.96,7.15.72.75,1.55,1.39,2.43,1.94l22.94,14.03c.13.08.28.01.34-.13l.25-.72s0-.04-.03-.05l-12.49-6.96c-.39-.21-.72-.48-1.01-.81-1.57-1.82-4-3.88-7.29-6.19-.25-.17-.46-.35-.66-.57l-6.23-6.72c-.18-.19-.39-.36-.61-.5l-2.7-1.66c-.14-.09-.14-.28-.01-.39,1.34-1.05,1.78-1.77,1.32-2.14-2.8-2.31-4.67-5.05-5.63-8.21-.13-.44-.05-.92.21-1.3,4.53-6.66-1.1-10.04-6.21-12.88-.32-.18-.46-.57-.32-.92.14-.34.5-.53.86-.43l1.88.53c.46.13.97.01,1.33-.3,2.25-1.9,3.11-4.21,2.59-6.92-1.05-5.47-1.64-8.96-1.81-10.44-.06-.53-.18-1.03-.36-1.54-2.57-6.98-1.6-10.75,5.72-12.9.83-.25,1.43-.93,1.59-1.77,1.36-7.39,3.39-12.43.65-20.49-.01-.23.05-.41.19-.55,18.97,5.02,37.57,7.77,55.8,8.25,31.2.81,61.56-4.97,91.06-17.36,1.68-.71,3.26-1.9,4.76-3.57l.17,1.65c-1.79,5.23-3.56,10.47-5.28,15.69-1.47,4.48-1.07,8.38,1.19,11.7,4.37,6.47,6.8,12.44,7.28,17.94.63,7.16,3.03,11.38,6.85,17.18.3.45.53.93.7,1.43l4.14,12.49c.36,1.07,1.32,1.85,2.44,1.96l5.79.59c.14.01.3.01.44-.01l12.36-2.01c.59-.09,1.16-.31,1.68-.62,8.79-5.42,18.36-13.6,21.62-23.42,1.9-5.7,4.23-6.56,9.92-7.45.58-.1,1.02-.59,1.03-1.19.09-4.5.79-12.17,3.85-16.53.28-.39.63-.72,1.05-.95,3.02-1.72,5.48-3.36,7.38-4.89,2.99-2.41,10-10.94,10.49-16.32.28-3.16.84-6.25,1.66-9.25.5-1.83.53-3.76.1-5.6-1.23-5.12-2.16-7.87-.14-12.56,2.7-6.34,6.49-12.6,11.36-18.79,6.16-7.82,16.18-13.59,22.78-21.41,5.3-6.28,9.58-13.82,12.83-22.58.84-2.27,2.12-4.74,2.32-7.73.04-.44-.36-.8-.8-.72l-13.12,2.26c-.61.1-1.21.27-1.79.49-3.39,1.3-5.78,1.87-7.16,1.7-2.66-.32-4.27-1.24-4.83-2.75-1.87-5.06-3.56-8.58-5.07-10.58l.75-2.19c1.02-1.78,3.33-4.37,5.52-3.23,2.8,1.47,1.68,4.79,1.92,7.06.13,1.25,1.5,1.95,2.58,1.32l6.72-3.87c.45-.26.97-.39,1.48-.35,5.87.45,10.7-1.25,14.48-5.08,1.06-1.07,2.18-2.12,3.36-3.12,5.02-4.27,8.41-6.94,10.18-8.04,1.48-.92,2.74-2.17,3.64-3.64,2.43-3.96,7.73-7.9,9.58-12.72.58-1.52.25-3.23-.85-4.41-2.05-2.23-3.81-4.72-5.24-7.48-2.12-4.03-5.54-6.79-9.49-3.91-2.85,2.08-8.3,6.78-10.96,6.09-1.36-.36-2.16-1.74-1.78-3.1,1.59-5.68,5.34-8.85,11.54-9.18,1.83-.09,3.77-.53,5.81-1.29,1.73-.65,3.69-.06,4.8,1.42l2.72,3.68c.45.61,1.11.99,1.86,1.1,1.79.23,3.32.37,4.58.43.94.04,2.17.28,3.69.71,3.46.99,6.98.7,10.58-.89,1.52-.67,3.29-.06,4.09,1.39,1.64,3.01,2.06,6.63,5.92,9.3.84.58,1.21,1.47,1.15,2.65-.14,2.44.44,4.67,1.74,6.68.8,1.24,2.58,1.33,3.51.17l3.65-4.57c.46-.58,1.41-.22,1.35.52-.37,5.36-.15,10.31.66,14.87,2.25,12.69,3.39,25.91,5.57,37.75.39,2.08.99,3.97,1.81,5.67.35.71,1.34.71,1.7.01l4.47-8.78c.32-.62.57-1.29.74-1.99.05-.18.21-2.22.45-6.13.3-4.61,1.03-9.33,2.23-14.17.21-.8.79-1.45,1.56-1.72,4.47-1.55,5.23-7.64,7.51-11.12,1.39-2.1,2.45-4.57,3.17-7.39.13-.5.35-.89.67-1.16.34-.28.67-.39,1.02-.32,1.47.28,3.03-.45,3.94-1.86.4-.63,1.15-1.9,2.25-3.81.52-.9,1.87-.71,2.12.31l5.55,23.89c.17.71,1.16.76,1.39.06.68-2.12,1.32-3.57,1.9-4.36.4-.54,1.26-.18,1.15.49-.35,2.09-.39,5.06-.13,8.9.52,7.67-.17,12.18-.77,22.71-.06,1.14,0,2.28.21,3.41.86,4.92.97,10.47.32,16.62-.09.8-.1,1.6-.06,2.41l.49,9.81c.01.19.17.34.36.35.3,0,.46-.15.53-.46,2.08-10.17,3.32-20.58,1.76-31.11-.48-3.21-.8-6.8-.95-10.79-.03-.54.01-1.08.13-1.61l1.56-7.39c.21-.99,1.5-1.3,2.12-.49,1.07,1.38,1.79,3.2,2.19,5.46.61,3.38.84,7.79.7,13.24,0,.3.36.44.57.22.88-.93.7-2.93,1.64-4.47,1.87-3.05,2.96-5.57,3.26-7.6,1.5-9.69.76-19.37-2.21-29.06-1.45-4.71-.98-7.76,1.03-11.63.3-.58,1.05-.74,1.55-.34l.37.31c.46.36.55,1.02.23,1.51-1.7,2.52-1.96,5.06-.77,7.63.41.9,1.74.75,1.95-.22.4-1.85.4-3.83.01-5.95-.09-.46-.03-.94.17-1.37l2.26-4.96c.18-.37.44-.71.75-.98l.97-.84c.37-.32.61-.77.67-1.26,1.21-10.18,1.59-17.24,1.11-21.2-1.25-10.48-3.42-20.36-6.48-29.64-.14-.45-.15-2.12-.04-5.02.13-3.07-.93-4.28-3.16-6.16-.86-.72-1.16-1.55-.86-2.48.55-1.79.37-3.45-.57-4.93-.65-1.02.12-2.36,1.33-2.34.99.01,1.64-.37,1.94-1.16.13-.31.17-.65.12-.98-.21-1.52-.1-2.96.3-4.31.17-.54.25-1.12.25-1.69.04-4.68-1.52-11.15-4.71-19.4-7.98-20.66-17.49-39.15-28.53-55.49"/>
      <path class="cls-2" d="M408.45,208.63c-.71-1.02-1.14-2.22-1.28-3.57-.04-.3.01-.59.14-.88l1.51-3.32c.41-.89.35-1.94-.15-2.76l-10.45-17.43c-.18-.28-.28-.62-.31-.95-.3-4.01,1.39-7.02,5.1-9.05,3.59-.23,6.36-1.52,8.32-3.86.36-.43.94-.62,1.48-.5,2.36.52,3.86,2.14,4.52,4.88.22.94-.36,1.87-1.29,2.09l-2.67.62c-.61.14-1.07.61-1.23,1.2-1.63,6.22,1.11,8.85,5.2,12.75.55.53.68,1.37.3,2.04-1.63,2.84-.62,5.34,1.52,8.19,2.18,2.88,3.52,6.65,4.03,11.3.23,2.12-.61,3.39-2.52,3.82-4.92,1.12-8.98-.4-12.22-4.57Z"/>
      <path class="cls-2" d="M409.58,243.82c2.83,1.69,4.93,4.4,6.32,8.13.23.63.61,1.23,1.07,1.72,1.73,1.87,4.54,3.97,5.06,7.78.06.52-.19,1.02-.65,1.29l-.99.57c-.09.05-.15.12-.22.19l-3.01,3.77c-.81,1.02-2.39.9-3.05-.21-2.9-4.85-4.61-9.54-5.11-14.05-2.05-5.23-1.87-8.28.57-9.19Z"/>
      <path class="cls-2" d="M345.04,373.56c1.41-2.28,3.11-4.21,5.12-5.79l.53.1c.46.09.7.62.46,1.03l-2.54,4.4c-.18.31-.3.67-.35,1.03l-1.11,8.61c-.14,1.11-.79,2.08-1.76,2.63l-.84.49c-.86.49-1.92-.15-1.87-1.15.22-4.25.99-8.04,2.35-11.36Z"/>
      <path class="cls-1" d="M388.86,69.77c.15-.62-.86-1.38-2.23-1.71-1.37-.33-2.61-.1-2.76.53-.15.62.86,1.38,2.23,1.71,1.37.33,2.61.1,2.76-.53ZM426.17,77.75c.79-4.17,1.25-10.34-1.63-13.07-.21-.19-.53-.01-.48.26.86,4.28,1.65,6.8,2.39,7.56.32.34.32.85,0,1.19-.45.45-.92.72-1.41.81-.3.06-.36.45-.1.61.67.43.75,1.1.23,2.03-.13.23-.04.53.21.65l.4.18c.17.08.35-.03.39-.21M409.21,64.13l8.53,6.81c.45.36.75.89.83,1.47.55,4.19,2,7.78,4.34,10.76.21.27.63.1.62-.23-.19-4.45.74-8.26-.3-11.85-.04-.12-.19-.12-.22,0l-1.56,5.65c-.03.08-.1.13-.18.13-.09-.01-.14-.09-.14-.17.08-2.27-.72-4.35-2.4-6.23-.93-1.05-3.94-3.37-9.03-6.99-.09-.08-.23-.05-.31.04l-.21.27c-.09.1-.06.26.04.34M417.67,39.86c1.33,1.28,2.26,1.99,2.76,2.16,9.28,3.02,15.49,8.94,22.7,15.29.76.67,1.96.17,2.1-.88.12-.8.54-1.11,1.28-.93.31.08.59.21.86.37l2.26,1.46c.36.25.75.44,1.15.59l11.39,4.41c21.46,16.25,39.76,35.58,54.91,57.98,11.05,16.34,20.56,34.83,28.53,55.49,3.19,8.25,4.75,14.71,4.71,19.4,0,.57-.08,1.15-.25,1.69-.4,1.35-.5,2.79-.3,4.31.05.34.01.67-.12.98-.3.79-.94,1.17-1.94,1.16-1.21-.03-1.97,1.32-1.33,2.34.94,1.48,1.12,3.14.57,4.93-.3.93,0,1.76.86,2.48,2.23,1.87,3.29,3.08,3.16,6.16-.12,2.9-.1,4.57.04,5.02,3.06,9.28,5.23,19.16,6.48,29.64.48,3.96.1,11.02-1.11,21.2-.06.49-.3.94-.67,1.26l-.97.84c-.31.27-.57.61-.75.98l-2.26,4.96c-.19.43-.26.9-.17,1.37.39,2.12.39,4.1-.01,5.95-.21.97-1.54,1.12-1.95.22-1.19-2.57-.93-5.11.77-7.63.32-.49.23-1.15-.23-1.51l-.37-.31c-.5-.4-1.25-.25-1.55.34-2.01,3.87-2.48,6.92-1.03,11.63,2.97,9.69,3.7,19.37,2.21,29.06-.31,2.03-1.39,4.56-3.26,7.6-.94,1.54-.76,3.54-1.64,4.47-.21.22-.57.08-.57-.22.14-5.45-.09-9.86-.7-13.24-.4-2.26-1.12-4.08-2.19-5.46-.62-.81-1.91-.5-2.12.49l-1.56,7.39c-.12.53-.15,1.07-.13,1.61.15,3.99.48,7.58.95,10.79,1.56,10.53.32,20.94-1.76,31.11-.06.31-.23.46-.53.46-.19-.01-.35-.15-.36-.35l-.49-9.81c-.04-.81-.03-1.61.06-2.41.65-6.16.54-11.7-.32-16.62-.21-1.12-.27-2.27-.21-3.41.61-10.53,1.29-15.05.77-22.71-.26-3.85-.22-6.81.13-8.9.12-.67-.75-1.03-1.15-.49-.58.79-1.21,2.25-1.9,4.36-.23.7-1.23.65-1.39-.06l-5.55-23.89c-.25-1.02-1.6-1.21-2.12-.31-1.1,1.91-1.85,3.17-2.25,3.81-.9,1.41-2.46,2.14-3.94,1.86-.35-.06-.68.04-1.02.32-.32.27-.54.66-.67,1.16-.72,2.83-1.78,5.29-3.17,7.39-2.28,3.48-3.05,9.58-7.51,11.12-.77.27-1.35.92-1.56,1.72-1.2,4.84-1.94,9.56-2.23,14.17-.25,3.91-.4,5.95-.45,6.13-.17.7-.41,1.37-.74,1.99l-4.47,8.78c-.36.7-1.36.7-1.7-.01-.81-1.69-1.42-3.59-1.81-5.67-2.18-11.83-3.33-25.06-5.57-37.75-.81-4.56-1.03-9.51-.66-14.87.05-.74-.89-1.1-1.35-.52l-3.65,4.57c-.93,1.16-2.71,1.07-3.51-.17-1.3-2.01-1.88-4.25-1.74-6.68.06-1.17-.31-2.06-1.15-2.65-3.86-2.67-4.28-6.3-5.92-9.3-.8-1.46-2.57-2.06-4.09-1.39-3.6,1.59-7.12,1.88-10.58.89-1.52-.43-2.75-.67-3.69-.71-1.26-.05-2.79-.19-4.58-.43-.75-.1-1.41-.49-1.86-1.1l-2.72-3.68c-1.11-1.48-3.07-2.06-4.8-1.42-2.04.76-3.97,1.2-5.81,1.29-6.19.32-9.95,3.5-11.54,9.18-.37,1.35.43,2.74,1.78,3.1,2.66.68,8.1-4.01,10.96-6.09,3.95-2.88,7.37-.12,9.49,3.91,1.43,2.76,3.19,5.25,5.24,7.48,1.1,1.19,1.43,2.89.85,4.41-1.85,4.83-7.15,8.76-9.58,12.72-.9,1.47-2.16,2.72-3.64,3.64-1.77,1.1-5.16,3.77-10.18,8.04-1.17,1.01-2.3,2.05-3.36,3.12-3.78,3.83-8.61,5.54-14.48,5.08-.52-.04-1.03.09-1.48.35l-6.72,3.87c-1.08.63-2.45-.06-2.58-1.32-.25-2.27.88-5.59-1.92-7.06-2.19-1.15-4.5,1.45-5.52,3.23-.36-.75-.54-1.51-.55-2.27l4.53-4.7c1.42-1.7,2.46-3.34,3.12-4.92,2.23-5.28,5.14-13.94,8.71-25.96,2.12-7.11,2.79-13.92,2-20.44-.34-2.84,1.23-3.73,3.69-3.91.5,4.52,2.21,9.2,5.11,14.05.66,1.11,2.23,1.23,3.05.21l3.01-3.77c.06-.08.13-.14.22-.19l.99-.57c.45-.27.71-.77.65-1.29-.52-3.81-3.33-5.91-5.06-7.78-.46-.49-.84-1.08-1.07-1.72-1.39-3.73-3.5-6.44-6.32-8.13-.9-5.15-.93-10.84-.08-17.07.37-2.83.41-5.47.1-7.92-.43-3.34-.81-6.74-1.15-10.19,3.24,4.17,7.3,5.69,12.22,4.57,1.91-.43,2.75-1.7,2.52-3.82-.5-4.66-1.85-8.43-4.03-11.3-2.14-2.85-3.15-5.36-1.52-8.19.39-.67.26-1.51-.3-2.04-4.09-3.9-6.83-6.53-5.2-12.75.15-.59.62-1.06,1.23-1.2l2.67-.62c.93-.22,1.51-1.15,1.29-2.09-.66-2.74-2.16-4.36-4.52-4.88-.54-.12-1.12.08-1.48.5-1.96,2.34-4.74,3.63-8.32,3.86.46-7.81-.39-14.88-2.54-21.22-1.85-5.42-5.86-15.71-12.07-30.84-2.08-5.05-7.38-14.39-15.91-28.03-2.08-3.34-3.29-8.25-3.61-14.72,1.36-1.33,2.76-1.65,4.22-.97,1.19.57,2.52-.45,2.28-1.76l-.94-5.1c-.05-.25.15-.48.41-.48h.37c.21,0,.37.17.36.37-.06,1.21.12,2.19.52,2.93.27.52.88.75,1.43.55l4.62-1.65c.57-.21.59-.99.04-1.24-3.26-1.41-6.41-3.55-9.47-6.44-.4-.37-.65-.89-.7-1.45-.3-3.37-.26-4.5-.98-7.76-.79-3.56.03-6.99,2.45-10.3.34-.46.88-.74,1.46-.74h7.12c.13,0,.26-.03.37-.08l2.8-1.28c.57-.26,1.19.26,1.05.88-.15.68-.41,1.29-.77,1.82-.25.35-.61.59-1.01.67-3.19.66-5.34,2.61-6.49,5.85-.66,1.87-1.95,3.99-1.47,6.3.08.4.25.77.5,1.11,2.09,2.76,3.86,6.01,6.72,7.58.36.19.75.31,1.16.35,3.86.26,5.97.05,8.17,3.34.23.35.55.61.93.76.61.25,1.2.12,1.78-.39.3-.25.66-.4,1.03-.41,2.79-.09,6.65-.67,7.83,2.13.7,1.64,1.61,2.17,2.75,1.59.55-.28,1.21-.23,1.7.15,1.68,1.3,3.73,1.81,6.17,1.54.55-.06.8-.74.4-1.14-.61-.61-1.47-.86-2.59-.8-.49.03-.97-.12-1.37-.4-3.91-2.85-7.58-6.19-10.97-10.03-1.08-1.23-1.66-2.61-1.73-4.14-.06-1.21,1.15-2.09,2.28-1.65.67.26,1.54.21,2.59-.15.49-.17,1.02-.05,1.39.3,1.28,1.21,2.76,2.06,4.45,2.57.48.14.81-.49.41-.8l-3.02-2.41c-.28-.22-.36-.62-.18-.93.18-.31.55-.45.89-.32,1.17.43,3.07,1.47,5.7,3.12.36.23,1.14.34,1.6.3.5-.04.77-.59.53-1.02l-1.72-2.97c-.3-.52.3-1.08.8-.77,1.54.94,2.96,2.14,4.25,3.61.17.21.48.23.68.06l.08-.06c.32-.26.37-.72.1-1.03-1.29-1.56-1.78-3.01-1.46-4.35.12-.48-.05-.99-.44-1.32-1.28-1.05-2.5-2.74-3.68-5.05-.18-.36,0-.8.4-.92l1.17-.34c.52-.14.8-.68.62-1.19l-.5-1.41c-.18-.52.25-1.03.79-.95.25.04.54.13.86.3"/>
      <path class="cls-1" d="M560.08,281.29c-.48.02-.97-2.77-1.08-6.24-.12-3.46.17-6.28.65-6.3.48-.02.97,2.77,1.08,6.24.12,3.46-.17,6.28-.65,6.3Z"/>
      <path class="cls-1" d="M28.37,279.11c.27.7.7,1.06,1.3,1.08.21.01.39.12.49.28l.68,1.07c-.55.12-.8.41-.74.9l-2.45-2.75c.27-.43.5-.62.71-.59Z"/>
      <path class="cls-1" d="M386.76,317.4c1.51,2,3.2,5.52,5.07,10.58.55,1.51,2.17,2.43,4.83,2.75,1.38.17,3.77-.4,7.16-1.7.58-.22,1.19-.39,1.79-.49l13.12-2.26c.44-.08.84.28.8.72-.21,2.99-1.48,5.46-2.32,7.73-3.25,8.76-7.52,16.3-12.83,22.58-6.59,7.82-16.62,13.59-22.78,21.41-4.87,6.19-8.66,12.45-11.36,18.79-2.01,4.68-1.08,7.43.14,12.56.43,1.85.4,3.77-.1,5.6-.83,3.01-1.38,6.09-1.66,9.25-.49,5.38-7.5,13.91-10.49,16.32-1.9,1.54-4.36,3.17-7.38,4.89-.41.23-.76.57-1.05.95-3.06,4.36-3.76,12.03-3.85,16.53-.01.59-.45,1.08-1.03,1.19-5.69.89-8.03,1.74-9.92,7.45-3.25,9.82-12.83,18-21.62,23.42-.52.31-1.08.53-1.68.62l-12.36,2.01c-.14.03-.3.03-.44.01l-5.79-.59c-1.12-.12-2.08-.89-2.44-1.96l-4.14-12.49c-.17-.5-.4-.98-.7-1.43-3.82-5.79-6.22-10.01-6.85-17.18-.48-5.5-2.9-11.47-7.28-17.94-2.26-3.33-2.66-7.23-1.19-11.7,1.72-5.23,3.48-10.47,5.28-15.69,19.45-9.59,37.54-21.36,54.25-35.31,4.59-3.85,7.65-7.85,11.76-11.64.31-.28.74-.4,1.14-.3.89.22,1.63.71,2.19,1.47-1.35,3.32-2.13,7.11-2.35,11.36-.05.99,1.01,1.64,1.87,1.15l.84-.49c.97-.55,1.61-1.52,1.76-2.63l1.11-8.61c.05-.36.17-.72.35-1.03l2.54-4.4c.23-.41,0-.94-.46-1.03l-.53-.1c.74-2.01,1.64-3.61,2.72-4.79,13.1-14.23,24.39-29.42,33.88-45.58Z"/>
      <path class="cls-1" d="M500.04,336.16c0-.1.08-.17.17-.17h.05c1.54-.01,2.79,3.24,2.81,7.27v.52c.03,4.03-1.2,7.3-2.74,7.32h-.05c-.09,0-.17-.08-.17-.17l-.08-14.76Z"/>
      <path class="cls-1" d="M554.75,344.72l.08.1c.67.88.79,2.06.3,3.06-2.28,4.63-3.7,9.42-4.27,14.38-.09.86-.27,1.7-.53,2.52-1.42,4.48-2.9,9.3-4.47,14.45-.7,2.31-1.95,4.35-3.77,6.12-.89.86-2.37.39-2.61-.84l-.98-5.32c-.06-.39-.05-.79.06-1.17.81-2.7,1.94-6.99,3.34-12.89,1.05-4.36,4.98-5.7,6.14-9.74,1.06-3.7,2.61-7.23,4.66-10.56.45-.74,1.51-.79,2.04-.1Z"/>
      <path class="cls-1" d="M528.2,347.47c.08-.3.46-.36.63-.12,1.73,2.5,2.77,5.46,3.12,8.85,1.08,10.66,1.41,18.08.95,22.26-.34,3.16-1.11,7.41-2.31,12.71-.12.54-.85.62-1.08.12-.81-1.78-1.21-3.92-1.23-6.43-.04-9.65.03-19.83.18-30.53.03-2.23-.79-4.84-.27-6.87Z"/>
      <path class="cls-1" d="M554.57,372.74c-2.49,8-4.32,13.49-5.52,16.47-3.23,8.07-8.92,21.16-14.52,30.6-14.26,24-30.07,46.15-49.03,65.29l-1.24-.77c-.49-.31-.61-.95-.27-1.42,5.64-7.63,10-13.72,13.1-18.3,4.09-6.04,7.78-11.12,11.1-15.27,2.49-3.11,6.58-7.9,12.25-14.39,2.05-2.35,4.12-5.12,6.19-8.32,4-6.19,7.51-11.87,10.53-17.03.8-1.37,2.77-5.63,5.92-12.78.19-.44.67-.99,1.43-1.65.4-.36.71-.8.89-1.29l4.25-11.37c.05-.13.12-.26.18-.37l1.72-2.98s0-.05-.03-.04c-.25.1-.32-.12-.25-.67.37-2.49,1.47-4.39,3.29-5.69Z"/>
      <path class="cls-1" d="M123.72,430.92c2.75,8.07.71,13.1-.65,20.49-.15.84-.76,1.52-1.59,1.77-7.32,2.16-8.28,5.92-5.72,12.9.18.5.3,1.01.36,1.54.17,1.48.76,4.97,1.81,10.44.52,2.71-.35,5.02-2.59,6.92-.36.31-.86.43-1.33.3l-1.88-.53c-.36-.1-.72.09-.86.43-.14.35,0,.74.32.92,5.11,2.84,10.74,6.22,6.21,12.88-.26.39-.34.86-.21,1.3.95,3.16,2.83,5.9,5.63,8.21.46.37.03,1.1-1.32,2.14-.13.1-.13.3.01.39l2.7,1.66c.22.14.43.31.61.5l6.23,6.72c.19.22.41.4.66.57,3.29,2.31,5.72,4.37,7.29,6.19.28.34.62.61,1.01.81l12.49,6.96s.04.03.03.05l-.25.72c-.05.14-.21.21-.34.13l-22.94-14.03c-.88-.54-1.7-1.19-2.43-1.94-2.61-2.7-5.27-5.08-7.96-7.15-3.1-2.36-4.99-3.96-5.7-4.79-2.8-3.28-7.16-6.72-9.81-10.23-2.49-3.29-5.06-6.35-7.7-9.18-1.88-2.01-4.28-5.2-7.19-9.58-1.66-2.52-4.8-6.71-9.41-12.6-7.55-9.64-13.11-19.96-16.7-30.97-1.92-5.87-4.1-8.28-9.36-12.8-11.37-9.81-17.62-24.66-24.47-37.89,1.25-1.39,2.53-1.47,3.82-.23,4.37,4.22,8.26,7.47,11.67,9.78,22.82,15.42,49.18,26.39,76.07,34.78.44.14.81.46,1.01.9l1.39,3.06c.13.3.55.26.65-.05l.44-1.51Z"/>
      <path class="cls-1" d="M536.46,393.9c.04-.54.79-.66,1.01-.17l1.87,4.12c.49,1.08-.18,2.34-1.34,2.53-2.36.4-4.65-.06-6.85-1.38-.36-.22-.55-.62-.53-1.05.17-1.9.61-3.59,1.33-5.08.39-.81,1.6-.67,1.78.22.34,1.65.93,3.06,1.77,4.23.21.28.67.15.7-.19l.27-3.23Z"/>
      <path class="cls-1" d="M401.5,424.65c-.14,2.9-1.06,6.16-2.77,9.77-1.24,2.62-5.43,10.03-12.58,22.23-3.12,5.33-6.05,9.41-8.79,12.22-.34.34-.84.43-1.26.21-4.14-2.09-6.26-3.12-6.13-7.7.01-.65.3-1.25.77-1.69,1.33-1.21,3.19-2.8,5.55-4.76,3.15-2.62,1.29-4.34-.03-7.06-.25-.49-.3-1.06-.15-1.59,2.46-9.38,8.65-7.3,13.72-11.74,2.88-2.53,5.59-5.74,8.1-9.65.12-.17.57-.61,1.38-1.3.88-.76,2.26-.1,2.19,1.07Z"/>
    </g>
  </g>
</svg>