<?xml version="1.0" encoding="UTF-8"?>
<svg id="Laag_2" data-name="Laag 2" xmlns="http://www.w3.org/2000/svg" viewBox="0 0 1197.73 834.3">
  <defs>
    <style>
      .cls-1 {
        fill: #e8945b;
      }

      .cls-2 {
        fill: #ffb27d;
      }

      .cls-3 {
        fill: #f1a34f;
      }

      .cls-4 {
        fill: #cdae90;
      }

      .cls-5 {
        fill: #5b3a2e;
      }

      .cls-6 {
        fill: #7ba69b;
      }

      .cls-7 {
        fill: #e8f5ef;
      }

      .cls-8 {
        fill: #e58435;
      }

      .cls-9 {
        opacity: .8;
      }

      .cls-10 {
        opacity: .4;
      }

      .cls-11 {
        opacity: .5;
      }

      .cls-12 {
        fill: #58b995;
      }

      .cls-13 {
        fill: #1f1f1d;
      }

      .cls-14 {
        fill: #8f624a;
      }

      .cls-15 {
        fill: #998675;
      }
    </style>
  </defs>
  <g id="Laag_2-2" data-name="Laag 2">
    <g>
      <g id="_Layer_" data-name=" Layer ">
        <g class="cls-11">
          <path class="cls-7" d="M38.89,834.28S-60.18,480.84,57.93,309.91c65.9-95.37,155.88,73.96,222.7-182.03,38.89-148.97,174.97-194.19,243.02,9.2,68.05,203.38,126.55,202.36,173.5,164.73,53.85-43.14,77.5-173.01,161.79-145.55,97.42,31.74,84.37,224.16,156.16,190.65,138.43-64.61,240.97,297.29,145.27,487.36H38.89Z"/>
          <g>
            <path class="cls-2" d="M659.06,825.44c-9.54-1.52-26.09-6.99-29.78-19.01-3-8.48-5.77-62.06-4.48-88.28,1.73-35.15,19.52-76.87,24.69-141.77,3.8-47.78-7.74-88.43-7.74-88.43l-75.63-4.61s18.04,186.9,14.34,201.33c-15.79,61.58,22.51,112.79,24.17,125.9-.33,4.95-1.54,21.71,2.54,23.71h61.99s-.25-7.27-10.1-8.84h0Z"/>
            <path class="cls-2" d="M538.83,688.93c41.08-66.03,102.91-195.35,102.91-195.35l-93.08-25.96s-4.39,37.37-5.19,56.25-28.7,110.68-39.8,117.73c-34.53,21.93-26.39,126.02-30.44,138.7l-2.47,3.13s-10.92,9.96-8.79,17.05c2.13,7.08,11.98,11.8,13.32,20.45,1.33,8.65,6.66,13.37,11.45,13.37h22.85s3.53-6.09-4.99-7.92c-8.52-1.83-11.73-12-11.2-21.44.25-4.45.09-9.6-.16-13.8,1.55-16.35,12.28-48.66,45.58-102.19v-.02Z"/>
            <path class="cls-2" d="M663.03,338.3c-7.98-26.9-27.2-48.02-36.74-56.72l-5.07-3.81c-1.4-1.18-3.03-2.43-4.88-3.66l-.11-.08h0c-.84-.56-1.71-1.11-2.62-1.65-1.06-.63-1.64-1.85-1.43-3.06.62-3.71,1.1-6.98,1.4-9.83.96-7.75.96-12.15.96-12.15l-15.22-11.97-14.44-11.46c.74,20.91-7.84,34.81-13.96,42-10.25,12.89-18.46,32.22-21.71,51.17-2.45,14.39-3.68,30.5-3.59,47.39,0,6.2.18,12.58.53,18.87,2.1,34.12-.7,69.79-1.93,86.94-.35,5,39.99,24.38,57.84,26.1,21.09,2.15,34.17-11.23,36.32-19.53.73-2.79,37.01-96.89,24.65-138.53v-.02Z"/>
            <path class="cls-14" d="M646.75,478.94s21.17,88.62,11.51,89.43c-10.46.87-54.68.12-58.68-38.58-2.29-22.06,47.17-50.85,47.17-50.85h0Z"/>
            <path class="cls-1" d="M584.61,236.23s9.97,18.18,28.96,23.26c.96-7.75.96-12.15.96-12.15l-15.22-11.97-14.7.86h0Z"/>
            <path class="cls-15" d="M544.22,477.52s-40.53,129.82-40.53,134.26,104.95-19.42,122.84-25.34c17.89-5.92,21.71-100.57,20.23-107.5-1.48-6.94-102.53-1.42-102.53-1.42h-.01Z"/>
            <path class="cls-1" d="M633.38,250.09s-41.37,1.82-44.91-21.32c-3.53-23.14-7.04-33.6,16.84-38.51,23.89-4.91,29.91,3.23,33,10.67s4.76,46.96-4.94,49.16h0Z"/>
            <path class="cls-5" d="M544.22,470.26s91.76,10.25,98.4-7.05l4.13,15.72s-48.61,25.88-104.35,4.41l1.82-13.08h0Z"/>
            <path class="cls-1" d="M734.91,474.54c-5.28-3.08-21.34-6.93-21.34-6.93,0,0-29.71-39.29-35.65-45.23s-36.92-86.48-36.92-86.48c0,0-12.59,59.41-5.99,78.56,6.6,19.14,68.66,60.08,68.66,60.08,0,0,7.92,4.18,9.9,8.5,1.98,4.32,13.2,4.26,16,3.6,2.79-.66,15.03,11.22,15.91,8.06.88-3.16-5.28-17.08-10.56-20.16h0Z"/>
            <path d="M622.1,172.23c-33.2-2.62-45.19,1.56-50.78,7.31.34-2.98,2.94-4.37,2.94-4.37-4.83,1.21-6.32,6.18-6.75,8.98-2.16.05-3.77,1.06-3.77,1.06,2.02.11,2.92.47,3.32.92-.28.59-.54,1.17-.81,1.75-3.06,6.54-1.7,40.23,5.03,47.48s15.96,14.31,15.96,14.31h0c13.71,19.36,35.19,9.87,42.25,9.33,7.99-.6,12.83-19.4,8.45-24.3-4.38-4.9-13.08,2.55-21.81,2.13-6.85-.33-12.01-12.6-13.91-17.87-.11-.3-.3-.76-.55-1.27,2.81-3.94,4.64-14.93,13.63-15.64,10.55-.84,24.81,8.32,30.48,4.98s20.08-31.35-23.67-34.81h-.01ZM588.47,228.78h0c-.06-.48-.14-.91-.24-1.28-1.4-5.22-.94-13.24,3.91-11.06,3.14,1.42,4.71,2.32,5.96,2.62v.53c-.19,9.1-5.75,15.99-9.62,9.18h-.01Z"/>
            <path class="cls-15" d="M662.25,450.79c-13.84-.13-117.95.47-118.03-17.63,0-1.08.01-2.5.06-4.23.27-11.65,1.54-37.07,2.9-62.33,1.81-33.77,3.78-67.26,3.78-67.26,0,0,10.57-35.9,23.08-37.5,12.52-1.6,90.28,39.75,93.24,92,1.63,28.72,8.81,97.08-5.03,96.95h0Z"/>
            <g>
              <path class="cls-5" d="M384.82,669.77l-.57-.62c-1.55-1.71-1.42-4.38.29-5.93l404.59-367.19c1.71-1.55,4.38-1.42,5.93.29l.57.62c1.55,1.71,1.42,4.38-.29,5.93l-404.59,367.18c-1.71,1.55-4.38,1.42-5.93-.29h0Z"/>
              <path class="cls-5" d="M798.61,298.83c-1.23-.43-2.46-1.22-3.56-2.51-4.26-5.02.48-10.27.48-10.27l27.05-14.15s-16.06,25.28-16.57,26.03c-.37.56-3.89,2.17-7.41.91h.01Z"/>
              <path class="cls-5" d="M798.61,298.83c-.52-2.31.75-7.49,1-8.3.28-.92,22.99-18.63,22.99-18.63,0,0-16.06,25.28-16.57,26.03-.37.56-3.89,2.17-7.41.91h-.01Z"/>
              <path class="cls-5" d="M797.18,302.86c2.48-1.54,5.32-3.63,5.32-3.63-6.9-4.7-8.74-10.09-8.74-10.09-4.21,3.21-6.33,8.43-6.33,8.43,0,0,5.23,6.09,6.19,6.82-2.54,4.79-7.33,13.15-7.67,15.02-.45,2.52,4.08,4.41,4.08,4.41,2.6-4.26,4.15-14.52,4.79-19.66.4-.18.87-.43,1.38-.72.46,1.35.83,3.11.48,4.78-.71,3.35,1.69,1.42,2.37,1.7s1.83.21,1.55-.85c0,0-.48-3.17-3.43-6.21h.01Z"/>
            </g>
            <path class="cls-4" d="M544.28,428.94c.27-11.65,1.54-37.07,2.9-62.33,22.04-19.04,43.27-34.68,43.27-34.68,0,0,6.87,75.97-46.17,97.01h0Z"/>
            <path class="cls-1" d="M587.23,288.55c-6.46-8.26-18.84-8.67-26.11-1.13-21.17,21.94-84.51,88.96-82.86,103.81,1.98,17.82,23.67,44.95,79.32,90.56,2.08,11.94,5.64,9.96,5.64,9.96l6.41-5.82s4.02,4.72,8.14,2.9c4.13-1.82,4.79-12.21,3.63-13.59-1.16-1.37-13.4,1.89-13.4,1.89,0,0-47.16-79.55-44.52-84.1,2.64-4.55,64.67-48.12,70.62-60.01,4.1-8.18,3.07-31.78-6.86-44.48h-.01Z"/>
          </g>
          <g>
            <path d="M859.71,500.36l-16.86-2.96h0l.92-5.24c1.15-6.59-1.91-12.96-7.24-16.32-1.71-1.09-3.66-1.87-5.78-2.24l-12.64-2.22-1.32-.23c-8.7-1.53-17.03,4.3-18.55,13.01l-.92,5.24h0l-16.87-2.96c-5.06-.89-9.93,2.53-10.82,7.59l-7.54,42.96c-.89,5.06,2.53,9.93,7.59,10.82l79.27,13.92c5.06.89,9.93-2.53,10.82-7.59l7.54-42.96c.89-5.06-2.53-9.93-7.59-10.82h-.01ZM803.57,490.5l.92-5.24c.92-5.25,5.95-8.77,11.2-7.85l2.55.45,11.41,2c.75.13,1.46.34,2.13.63,4.04,1.73,6.52,6.07,5.73,10.57l-.92,5.25-33.02-5.8h0Z"/>
            <g id="man">
              <path class="cls-2" d="M1036.42,435.79s16.1,10.19,16.76,11.83c.66,1.64.66,19.06-2.3,23.33-2.96,4.27-13.42-9.84-16.76-14.32-3.33-4.47-15.44-10-11.83-18.54,3.61-8.54,14.13-2.3,14.13-2.3h0Z"/>
              <g>
                <path d="M804.04,778.98s-11.16,10.34-8.98,17.69,12.25,12.25,13.61,21.23,6.8,13.88,11.7,13.88h23.35s3.61-6.32-5.1-8.22c-8.71-1.91-11.99-12.46-11.45-22.26s-.82-22.86-.82-22.86l-18.51-4.35-3.81,4.9h.01Z"/>
                <path d="M1006.34,831.73h-62.12c-.49-.11-.86-.22-1.1-.34-4.14-2.07-2.84-17.88-2.34-22.78.09-.91.16-1.44.16-1.44,0,0,21.77-17.42,24.76-4.08.09.42.2.82.32,1.22,3.76,12.48,20.67,18.16,30.43,19.73,7.41,1.2,9.37,5.5,9.88,7.68h.01Z"/>
                <path class="cls-15" d="M993.87,474.71s-3.31,41.25-7.19,90.85c-5.28,67.37-11.63,150.11-12.26,165.79-1.09,27.22-5.45,70.76-5.45,70.76,0,0-10.34,10.34-31.03,5.99,0,0-18.44-62.16-23.7-127.92-.08-1.08-.16-2.16-.25-3.25-4.9-66.95-12.52-207.93-12.52-207.93l92.39,5.72h.01Z"/>
                <path class="cls-15" d="M993.87,474.71s-3.31,41.25-7.19,90.85l-72.44,114.62c-.08-1.08-.16-2.16-.25-3.25-4.9-66.95-12.52-207.93-12.52-207.93l92.39,5.72h.01Z"/>
                <path class="cls-15" d="M978.77,479.61s-59.6,149.41-98.79,219.63c-39.19,70.21-51.44,89.81-51.44,89.81,0,0-22.45-8.98-24.49-15.1,0,0,14.99-135.55,41.23-168.6,14.83-18.67,32.25-74.71,33.07-94.3.82-19.59,5.31-58.38,5.31-58.38l95.12,26.94h-.01Z"/>
              </g>
              <path class="cls-2" d="M963.93,261.8c-23.29,7.34-63.59-12.49-63.59-12.49,0,0,21.47-16.11,20.35-49.63l17.76,14.31,12.48,10.06s-.06,6.87-1.77,18.75c-.28,1.92-.6,3.98-.97,6.16,10,5.5,15.73,12.82,15.73,12.82v.02Z"/>
              <path class="cls-6" d="M1035,447.8c5.14-5.28,8.96-12.15,8.96-12.15,0,0-43.71-54.31-47.26-59.94s-30.1-95.96-30.1-95.96l-67.13-13.6s56.03,115.6,65.32,129.69c15.34,23.29,61.23,57.95,61.23,57.95,0,0,4.95-1.85,8.98-6h0Z"/>
              <path class="cls-6" d="M996.44,478.15c-.7.58-1.52.93-2.45.93-8.75-.12-34.25,4.74-55.83,2.52-18.19-1.75-34.3-7.14-51.59-14.89-2.3-1.03-7.58-3.85-7.46-6.42.08-2.81.36-6.89.71-12.02,1.22-17.85,3.36-48.55,1.28-83.97-.37-6.59-.57-13.14-.59-19.58-.18-48,9.34-90.22,28.47-104.51,1.63-1.17,11.66,3.73,20.88,8.28,8.51,4.2,17.03,4.66,25.07,3.04l8.04,7.11c9.8,9.1,20.53,21.46,25.19,40.24,3.97,15.98,6.3,44.79,7.58,74.64.58,13.53,1.05,27.18,1.17,40.12v.46c.11,1.28.11,2.69.11,3.97.47,33.24,0,59.59-.58,60.06v.02Z"/>
              <path class="cls-6" d="M879.81,448.28c1.22-17.85,3.36-48.55,1.28-83.97-.37-6.59-.57-13.14-.59-19.58,7.97-19.33,14.48-33.35,14.48-33.35h20.08s14.72,100.57-35.25,136.89h0Z"/>
              <g>
                <path class="cls-2" d="M840.74,454.53l-3.81,6.57s7.47,15.82-10.25,21.73c0,0-7.62,1.92-8.28-3.36-.65-5.28.47-3.21-.63-10.67-1.11-7.46,1.81-14.11,7.31-15.88l4.34-4.16,11.32,5.77Z"/>
                <path class="cls-6" d="M830.64,456.33c7.23,1.41,15.07.84,15.07.84,0,0,21.47-66.32,24.23-72.38s63.77-77.77,63.77-77.77l-25.41-63.6s-65.99,110.22-72.69,125.71c-11.07,25.59-14.92,82.98-14.92,82.98,0,0,4.26,3.12,9.94,4.23h0Z"/>
              </g>
              <path class="cls-1" d="M950.93,224.06s-.06,6.87-1.77,18.75c-18.14-4.25-28.51-26.95-28.51-26.95l17.8-1.86,12.48,10.06h0Z"/>
              <path class="cls-2" d="M958.05,223.51s-38.47,6.39-42.08-17.63-11.01-39.37,13.4-44.47c24.41-5.1,30.57,3.35,33.73,11.07s4.87,48.74-5.05,51.02h0Z"/>
              <path class="cls-5" d="M963.1,172.49s-16.25,4.39-24.94,4.61-6.41,13.36-8.57,14c-2.16.65-6.71-6.45-10.7-1.81-1.85,2.15,1.08,10.03,4.75,12.41,3.67,2.37-5.16,18.11-5.16,18.11,0,0-18.79-16.6-14.69-46.16s32.79-28.48,44.45-25.25c11.65,3.24,27.17.55,25.89,10.14-.86,6.47-3.47,12.44-11.03,13.95Z"/>
            </g>
          </g>
          <g>
            <path class="cls-1" d="M293.27,355.58s66.96,67.04,69.6,63.74c2.64-3.3,26.41-49.84,30.04-56.44h13.2s-7.48,81.62-35.21,97.82c0,0-73.24-22.48-80.65-42.69-7.42-20.21,3.01-62.42,3.01-62.42h0Z"/>
            <g>
              <path class="cls-3" d="M442.51,367.15c-.83,2.75-3.7,4.97-8.48,4.17l-144.13-21.17c-8.44-1.04-17.51-2.66-26.88-4.88-38.92-9.19-72.84-7.56-68.39-34.82.13-.85.31-1.73.53-2.64,7.55-31.94,37.32-12.61,77.45-3.13,9.37,2.21,18.21,4.83,26.22,7.67l139.52,47.41c3.68,1.14,5.02,4.54,4.16,7.39h0Z"/>
              <path class="cls-8" d="M442.51,367.15c-.83,2.75-3.7,4.97-8.48,4.17l-144.13-21.17c-8.44-1.04-17.51-2.66-26.88-4.88-38.92-9.19-72.84-7.56-68.39-34.82,13.73-8.48,39.86,3.28,71.71,8.94,9.97,1.77,19.41,4,27.99,6.51l148.17,41.25h.01Z"/>
              <path class="cls-6" d="M409.22,367.68l-.43-17.09s-.21-4.88,9.76-.95c9.98,3.93,1.51,18.67.91,19.81-1.46,2.81-10.09.09-10.24-1.77h0Z"/>
            </g>
            <path class="cls-2" d="M210.37,525.75s4.64,141.97-.12,157.42c-4.75,15.45-23.57,45.16-25.55,116.45,0,0,.03,9.2-2.17,13.16-2.2,3.96-4.84,14.86-2.2,17.77h61.18s.44-8.53-20.25-15.57c0,0-12.54-1.54-8.91-14.08,3.63-12.54,51.82-97.05,54.46-112.89,2.64-15.84,38.69-148.97,11.96-162.26-26.74-13.29-68.4,0-68.4,0h0Z"/>
            <path class="cls-2" d="M309.73,484.01c-11.32,54.49-13.59,47.64-24,55.65-30.48,23.45-76.2,0-76.2,0-3.66-27.05-4.95-50.57-4.54-70.99.31-15.88,1.65-29.88,3.68-42.21,10.98-66.72,42.31-84.31,42.31-84.31,0,0,28.82-13.55,46.26.56,62.01,50.2,25.46,78.91,12.5,141.3h-.01Z"/>
            <path class="cls-2" d="M210.37,525.09s-7.43,55.76,94.78,143.5c0,0,10.04,12.77,12.68,27.29,2.64,14.52,9.9,59.42,52.81,108.93,0,0-1.1,16.28,0,20.69l1.1,4.4h63.38s-2.64-14.08-18.49-18.04c-15.84-3.96-29.49-13.64-41.81-56.78-12.32-43.13-12.32-104.31-24.21-117.51-11.88-13.2-41.14-124.55-74.92-132.48-33.79-7.92-65.33,20-65.33,20h0Z"/>
            <path class="cls-2" d="M385.74,341.74s-6.6,11.91,4.29,14.72,18.15-6.93,18.15-6.93c0,0-10.94-8.7-22.45-7.79h.01Z"/>
            <path class="cls-2" d="M305.34,314.53c-.27,7.75-2.8,20.87-5.99,29.89-1.62,4.59-3.42,8.12-5.18,9.35-6.6,4.62-54.26-1.01-50.04-6.23,9.32-11.56,17.89-40.65,17.89-40.65,0,0,39.2-2.41,42.5,1.55.68.82.92,3.04.82,6.1h0Z"/>
            <path class="cls-1" d="M305.34,314.53c-.27,7.75-2.8,20.87-5.99,29.89-14.19-3.66-35.92-22.75-38.53-22.21,0,0,25.21-6.91,44.44-7.67h.08Z"/>
            <path class="cls-2" d="M303.12,250.31s33.01,42.69,13.28,72.02c0,0-58.17,19.52-68.29-17.01s15.4-74.82,55.01-55.01Z"/>
            <path class="cls-6" d="M205.86,503.68s-7.74,27.36-.93,51c6.81,23.64.93,48.1.93,48.1,0,0,53.88,19.95,118.83-25.55,0,0-21.63-44.72-20.52-52.32,1.11-7.6.65-18.72.65-18.72l-98.96-2.51h0Z"/>
            <path class="cls-14" d="M322.69,286.22c-5.08-3.7-24.41,10.3-30.57,13.42-6.16,3.12-20.98,0-20.98,0-5.63-6.95-12.78-7.92-8.29-13.42,5.61-6.86,12.54-5.54,14.85-2.24,2.31,3.3,33.36-12.54,26.6-36.97,0,0-15.71-38.29-76.44,3.3-41.65,28.52,32.95,71.89,32.95,71.89,16.46,10.57,49.79,5.57,55.58.13,5.8-5.44,11.37-32.41,6.29-36.11h0Z"/>
            <path d="M204.92,478.96s40.44,15.78,104.8,5.05l-4.91,22.18s-56.29,18.27-98.96-2.51l-.93-24.72h0Z"/>
            <path class="cls-1" d="M284.29,388.92s-34.35,68.62-79.31,79.74c.31-15.88,1.65-29.88,3.68-42.21,22.55-19.05,61.98-37.18,75.63-37.53Z"/>
            <path class="cls-2" d="M258.21,356.57s-97.42,60.3-101.38,73.05-5.06,80.53-4.44,96.89c0,0-3,20.42-1.27,25.13,1.73,4.72,10.57,16.72,16.02,13.12,5.45-3.59,4.09-23.72,6.48-24.03,2.38-.3,3.32,6.52,4.44,4.69,1.13-1.83-.22-8.78-9.37-16.34,0,0,15.37-83.17,18.5-84.6,16.32-7.47,95.63-46.71,95.63-46.71,0,0,23.56-49.81-24.62-41.21h.01Z"/>
            <path class="cls-1" d="M314.97,398.22c-1.45,0-2.62,1.17-2.62,2.62s1.17,2.62,2.62,2.62,2.62-1.17,2.62-2.62-1.17-2.62-2.62-2.62Z"/>
          </g>
          <path class="cls-12" d="M109.12,830.42c-4.31-6.76-17.27-24.32-34.53-22-18.81,2.53,20.77,14.93,32.89,22.05-2.69.04-5-.18-6.7-.78-8.1-2.89-21.98,2.65-26.41,4.59h77.12c-.53-1.84-1.92-4.86-5.51-7.05-1.27-.77-3.81-.88-7.1-.63,4.59-5.41,7.77-22.68-5-18.23-9.33,3.25-9.3,13.8-8.39,20.04-1.98.31-4,.62-5.98.91-3.84-19.57-17.42-76.92-44.95-78.45-27.91-1.55,23.66,59.48,40.84,79-2.2.26-4.32.46-6.28.56h0Z"/>
          <path class="cls-12" d="M1125.29,832.55h-86.41c-4.61-3.91,3.92-12.64,12.07-13.24,3.54-.27,8.02.47,13.14,1.55,1.18-15.73,7.95-86.44,33.43-83.6,28.66,3.18,0,31.14-8.1,47.69-6,12.26-12.33,29.84-15.22,38.14,2.33.5,4.73,1,7.2,1.45,3.8-11.66,17.93-50.89,35.91-48.61,21.1,2.68,12.62,18.41-2.34,27.74-10.97,6.87-24.45,16.62-30.85,21.34,5.42.88,11.09,1.48,16.83,1.35,14.74-.35,21.56,3.84,24.35,6.18h-.01Z"/>
        </g>
      </g>
      <g class="cls-10">
        <path class="cls-12" d="M174.12,669.14c-1.27-14.59-6.91-27.25-16.71-37.71-13.24-14.09-29.33-21.23-47.9-21.23-2.74,0-5.6.15-8.45.46-13.7,1.51-26.01,7.22-36.59,17.02-9.73,9.03-16.4,20.34-19.34,32.77-2.86,12.2-2.05,25.17,2.35,37.52,4.44,12.43,12.89,22.93,25.13,31.23,12.97,8.76,27.75,12.31,43.92,10.54,13.89-1.51,26.21-7.1,36.59-16.56,13.82-12.62,21-28.87,21.34-48.28,0-.5-.04-1.04-.08-1.62-.08-1.27-.15-2.7-.27-4.13h.01ZM108.63,728.12h-.31c-13.82,0-26.75-5.36-36.44-15.05-10.15-10.19-15.75-23.89-15.71-38.6-.04-13.78,5.44-26.82,15.48-36.78,10-9.96,23.2-15.44,37.09-15.48h.12c29.1,0,52.84,23.54,52.92,52.45.08,29.8-23.27,53.26-53.15,53.46h0Z"/>
        <circle class="cls-13" cx="108.98" cy="675.21" r="6.95"/>
      </g>
      <g class="cls-9">
        <path class="cls-12" d="M863.46,211.6c-.5-5.78-2.74-10.79-6.62-14.93-5.24-5.58-11.62-8.41-18.97-8.41-1.09,0-2.22.06-3.35.18-5.43.6-10.3,2.86-14.49,6.74-3.85,3.58-6.5,8.06-7.66,12.98-1.13,4.83-.81,9.97.93,14.86,1.76,4.92,5.1,9.08,9.95,12.37,5.14,3.47,10.99,4.88,17.39,4.17,5.5-.6,10.38-2.81,14.49-6.56,5.47-5,8.32-11.43,8.45-19.12,0-.2-.02-.41-.03-.64-.03-.5-.06-1.07-.11-1.64h0ZM837.53,234.96h-.12c-5.47,0-10.59-2.12-14.43-5.96-4.02-4.04-6.24-9.46-6.22-15.29-.02-5.46,2.15-10.62,6.13-14.57,3.96-3.94,9.19-6.11,14.69-6.13h.05c11.52,0,20.93,9.32,20.96,20.77.03,11.8-9.22,21.09-21.05,21.17h0Z"/>
        <circle class="cls-13" cx="837.66" cy="214.01" r="2.75"/>
      </g>
      <g>
        <path class="cls-12" d="M1092.76,605.32c-.38-4.38-2.07-8.18-5.02-11.32-3.97-4.23-8.8-6.37-14.38-6.37-.82,0-1.68.05-2.54.14-4.11.45-7.81,2.17-10.98,5.11-2.92,2.71-4.92,6.11-5.81,9.84-.86,3.66-.62,7.56.71,11.26,1.33,3.73,3.87,6.88,7.54,9.37,3.89,2.63,8.33,3.7,13.18,3.16,4.17-.45,7.87-2.13,10.98-4.97,4.15-3.79,6.3-8.67,6.41-14.49,0-.15-.01-.31-.02-.49-.02-.38-.05-.81-.08-1.24h0ZM1073.1,623.02h-.09c-4.15,0-8.03-1.61-10.94-4.52-3.05-3.06-4.73-7.17-4.72-11.59-.01-4.14,1.63-8.05,4.65-11.04,3-2.99,6.96-4.63,11.13-4.65h.04c8.74,0,15.86,7.07,15.89,15.74.02,8.95-6.99,15.99-15.95,16.05h0Z"/>
        <circle class="cls-13" cx="1073.2" cy="607.14" r="2.09"/>
      </g>
    </g>
  </g>
</svg>