<?xml version="1.0" encoding="UTF-8"?>
<svg id="Laag_2" data-name="Laag 2" xmlns="http://www.w3.org/2000/svg" viewBox="0 0 528.81 365.19">
  <defs>
    <style>
      .cls-1 {
        fill: #cfcec8;
      }

      .cls-2 {
        stroke: #cfcec8;
        stroke-miterlimit: 10;
        stroke-width: .5px;
      }

      .cls-2, .cls-3, .cls-4 {
        fill: #fafaf1;
      }

      .cls-3 {
        opacity: .8;
      }

      .cls-5 {
        fill: #1a332b;
      }

      .cls-6 {
        fill: #f9f9f0;
      }

      .cls-7 {
        fill: #13261f;
      }

      .cls-8 {
        fill: #142927;
      }

      .cls-9 {
        opacity: .6;
      }

      .cls-10 {
        opacity: .5;
      }

      .cls-11 {
        fill: #1f1f1e;
      }

      .cls-12 {
        fill: #58b995;
      }

      .cls-13 {
        fill: #070909;
      }

      .cls-14 {
        fill: #467962;
      }
    </style>
  </defs>
  <g id="Laag_1-2" data-name="Laag 1">
    <g>
      <g>
        <path class="cls-2" d="M292.53,242.42l8.86-4.95c1.53-.85,3.44-.29,4.27,1.25l17,31.54c.83,1.54.27,3.48-1.26,4.34l-8.86,4.95c-1.53.85-3.44.29-4.27-1.25l-17-31.54c-.83-1.54-.27-3.48,1.26-4.34Z"/>
        <path class="cls-2" d="M293.09,260.32l22.84-12.75,47.56,88.25c2.33,4.33.75,9.77-3.53,12.16l-7.34,4.1c-4.28,2.39-9.64.82-11.97-3.51l-47.56-88.25Z"/>
      </g>
      <g>
        <path class="cls-7" d="M134.96,359.61c0,3.08-26.57,5.58-59.35,5.58-32.78,0-59.35-2.5-59.35-5.58,0-3.08,26.57-5.58,59.35-5.58,32.78,0,59.35,2.5,59.35,5.58Z"/>
        <path class="cls-5" d="M68.35,264.95c2.29,24.53,4.48,49.09,5.93,73.69.35,5.88.79,11.81.58,17.7-.08,2.2,4.47,1.47,4.53-.41.43-12.59-1.01-25.39-1.96-37.93-1.12-14.9-2.39-29.79-3.73-44.68-.29-3.19-.58-6.39-.87-9.58-.18-1.88-4.68-.83-4.49,1.2h0Z"/>
        <path class="cls-5" d="M81.49,56.28c.55,6.09,1.01,12.19,1.45,18.28,1.08,14.91,1.96,29.84,2.63,44.78.83,18.71,1.34,37.43,1.24,56.16-.09,17.53-.6,35.14-2.71,52.56-.82,6.76-1.88,13.53-3.62,20.13-1.25,4.74-2.83,9.65-5.59,13.76-.52.77-1.09,1.51-1.72,2.2-.77.84-3.67-.13-2.84-1.04,3.03-3.3,4.73-7.68,6.06-11.88,1.94-6.13,3.1-12.5,4.02-18.85,2.41-16.76,3.05-33.79,3.29-50.7.27-18.85-.15-37.72-.91-56.56-.63-15.49-1.5-30.96-2.57-46.42-.35-5.03-.72-10.07-1.13-15.1-.18-2.25-.79-4.86-.59-7.12,0-.1-.02-.22-.03-.32-.12-1.34,2.92-.97,3.02.14h0Z"/>
        <path class="cls-1" d="M57.75,129.75c5.68,9.34,17.72,14.65,27.86,16.89,1.06.23-.23,2.44-1.16,2.24-10.44-2.3-22.65-7.76-28.49-17.35-.49-.81,1.21-2.72,1.79-1.77h0Z"/>
        <path class="cls-1" d="M111.35,177.91c-3.47,13.13-14,24.66-26.38,29.83-.35.15-1.73-.34-1.26-.54,12.27-5.12,22.68-16.59,26.12-29.6.1-.4,1.62-.06,1.52.31h0Z"/>
        <path class="cls-5" d="M21.5,210.54c5.66,5.08,12.18,9.4,18.8,13.11,12.63,7.08,27.37,12.23,42,9.84.82-.13-.64,1.79-1.27,1.89-14.44,2.36-28.88-2.43-41.45-9.29-7.02-3.83-13.94-8.37-19.92-13.73-.44-.4,1.33-2.27,1.83-1.82h0Z"/>
        <path class="cls-5" d="M34.98,230.2c6.11,1.49,12.93,2.07,19.05.47.7-.18,1.57.76.59,1.01-6.36,1.66-13.5,1.05-19.84-.49-.92-.22-.73-1.22.2-.99h0Z"/>
        <path class="cls-5" d="M75.34,167.79c3.26,2.81,5.41,7.34,9.99,8.34.88.19.8.68-.1.49-2.59-.57-4.74-2.07-6.65-3.87-1.64-1.54-2.92-3.52-4.61-4.98-.34-.29,1.08-.22,1.36.02h0Z"/>
      </g>
      <g class="cls-9">
        <path class="cls-1" d="M28,10.64c-.24-2.63-1.31-4.92-3.17-6.81-2.51-2.54-5.57-3.83-9.1-3.83-.52,0-1.06.03-1.6.08-2.6.27-4.94,1.3-6.95,3.07-1.85,1.63-3.11,3.67-3.67,5.92-.54,2.2-.39,4.54.45,6.77.84,2.24,2.45,4.14,4.77,5.64,2.46,1.58,5.27,2.22,8.34,1.9,2.64-.27,4.98-1.28,6.95-2.99,2.62-2.28,3.99-5.21,4.05-8.72,0-.09,0-.19-.02-.29-.02-.23-.03-.49-.05-.75h0ZM15.56,21.29h-.06c-2.62,0-5.08-.97-6.92-2.72-1.93-1.84-2.99-4.31-2.98-6.97,0-2.49,1.03-4.84,2.94-6.64,1.9-1.8,4.41-2.79,7.04-2.8h.02c5.53,0,10.04,4.25,10.05,9.47.02,5.38-4.42,9.62-10.1,9.65h0Z"/>
        <ellipse class="cls-1" cx="15.62" cy="11.74" rx="1.32" ry="1.25"/>
      </g>
      <g class="cls-10">
        <path class="cls-12" d="M342.02,149.07c-1.74-20.01-9.48-37.38-22.92-51.73-18.16-19.33-40.23-29.12-65.71-29.12-3.76,0-7.68.21-11.59.63-18.79,2.07-35.68,9.9-50.19,23.35-13.35,12.39-22.5,27.9-26.53,44.95-3.92,16.74-2.81,34.53,3.22,51.47,6.09,17.05,17.68,31.45,34.47,42.84,17.79,12.02,38.07,16.89,60.25,14.46,19.05-2.07,35.95-9.74,50.19-22.72,18.96-17.31,28.81-39.6,29.27-66.23,0-.69-.05-1.43-.11-2.22-.11-1.74-.21-3.7-.37-5.67h.01ZM252.18,229.98h-.43c-18.96,0-36.7-7.35-49.99-20.65-13.92-13.98-21.61-32.77-21.55-52.95-.05-18.9,7.46-36.79,21.24-50.45,13.72-13.66,31.83-21.18,50.88-21.24h.16c39.92,0,72.48,32.29,72.59,71.95.11,40.88-31.92,73.06-72.91,73.34h0Z"/>
        <circle class="cls-11" cx="252.66" cy="157.4" r="9.53"/>
      </g>
      <g>
        <path class="cls-7" d="M306.81,357.37c0,3.08-26.57,5.58-59.35,5.58-32.78,0-59.35-2.5-59.35-5.58,0-3.08,26.57-5.58,59.35-5.58,32.78,0,59.35,2.5,59.35,5.58Z"/>
        <path class="cls-8" d="M359.88,106.11c-.4-.53-1.14-.63-1.67-.24-4.33,3.25-9.79,7.27-15.64,11.48,5.09-6.26,9.63-12.88,9.97-13.37.37-.54.23-1.29-.31-1.66-.54-.37-1.29-.23-1.66.31-3.25,4.75-11.4,15.94-16.97,21.09-6.96,4.88-13.92,9.6-19.76,13.27,1.74-1.71,3.6-3.63,5.58-5.75,2.64-1.6,6.67-6.45,11.01-12.47,10.39-12.28,19.31-24.08,19.4-24.2.4-.53.29-1.28-.23-1.67-.53-.4-1.28-.29-1.67.23-.04.05-1.42,1.88-3.71,4.82,4.6-7.38,8.01-13.21,8.38-13.85.33-.57.14-1.3-.43-1.63-.57-.33-1.3-.14-1.63.43-5.32,9.11-14.29,23.72-21.79,34.18-.29.34-.58.69-.87,1.03-3.84,4.51-7.2,8.29-10.15,11.46,0,0,0,0,0,0-4.2,4.52-7.56,7.78-10.24,10.12,12.79-18.14,30.64-61.24,31.54-63.44.25-.61-.04-1.31-.65-1.56-.61-.25-1.31.04-1.56.65-6.63,16.07-24.36,55.97-34.47,67.12,9.29-18.69,23.7-64.68,24.38-66.87.2-.63-.15-1.3-.78-1.5-.63-.2-1.3.16-1.5.78-.19.6-18.95,60.51-27.35,71.93-.13.18-.19.38-.21.59-1.68,2.95-5.32,9.38-9.85,17.89-.52-6.01,1.43-19.13,10.56-47.16.8-1.95,1.54-4.19,2.23-6.71.01-.04.03-.08.04-.12,7.98-23.63,16.86-45.62,16.95-45.83.25-.61-.05-1.31-.66-1.56-.62-.25-1.31.05-1.56.66-.55,1.37-5.8,14.39-11.76,30.92.71-5.4,1.27-11.44,1.67-18.12.84-13.87.66-25.46.66-25.58-.01-.65-.54-1.18-1.19-1.18h-.02c-.66.01-1.19.55-1.18,1.21,0,.41.53,37.17-5.21,58.75-7.98,23.67-15.17,49.33-12.3,58.05-3.61,6.85-7.66,14.8-11.7,23.21-7.55,15.73-13.34,29.49-17.4,41.27,4.64-18.18,10.4-40.75,13.28-60.96.16-.76,2.22-10.71,2.74-23.37.17-4.08.18-8.73-.13-13.6,3.88-24.51,21.44-77.1,21.65-77.72.21-.63-.13-1.3-.75-1.51-.62-.21-1.3.13-1.51.75-.63,1.87-9.98,29.89-16.44,54.43-.01-19.09,15.19-67.46,15.36-68,.2-.63-.15-1.3-.78-1.5-.63-.19-1.3.15-1.5.78-.79,2.49-19.17,61-14.75,74.64.02.07.07.13.1.2-.84,3.38-1.59,6.63-2.24,9.68-.83-5.71-2.23-11.45-4.44-16.72,0-.11,0-.21-.04-.32-1.76-5.32-2.73-16.96-3.27-29.48.84-16.12,12.3-40.17,12.43-40.42.29-.59.04-1.31-.56-1.59-.59-.29-1.31-.04-1.59.56-.39.82-7.17,15.03-10.66,29.09-.38-16.91-.14-32.21-.14-32.51.01-.66-.52-1.2-1.18-1.21h-.02c-.65,0-1.18.52-1.19,1.18-.02,1.53-.37,24.42.52,45.08-.04,1-.05,1.98-.02,2.92,0,.2.08.38.18.55.31,6.02.73,11.73,1.31,16.51-.09-.06-.19-.1-.29-.13-9.43-23.12-13.69-62.19-13.73-62.62-.07-.66-.65-1.13-1.32-1.06-.66.07-1.13.66-1.06,1.31.01.12,1.29,11.96,3.96,26.33,3.38,18.13,7.36,31.99,11.85,41.26,2.8,9.56,9.38,36.45,5.15,66.12-2.87,20.16-8.65,42.77-13.29,60.94-2.22,8.69-4.18,16.38-5.52,22.55-1.35-6.7-3.21-14.4-5.33-22.39-10.39-68.1-.22-191.94.02-194.71,0,0,0-.02,0-.03.04-.49-.22-.97-.65-1.19-.44-.22-.96-.15-1.33.17-.17.14-.26.23-.36.82h-.05c0,.09,0,.18,0,.27-.12.95-.26,2.85-.56,6.89-.31,4.2-.78,10.97-1.3,19.39-.9,14.86-2.08,37.79-2.59,62.67-.14,6.73-.22,13.23-.25,19.52-5.66-8.86-9.65-28.59-12.38-48.64-.2-11.03,2.75-37.23,5.21-55.1.09-.65-.37-1.26-1.02-1.35-.65-.08-1.26.37-1.35,1.02-.49,3.53-3.33,24.52-4.6,41.08-2.21-20.12-3.2-37.91-3.41-41.97v-.11c-.04-.66-.59-1.15-1.26-1.13-.66.03-1.17.6-1.13,1.25v.11c.42,8.03,1.89,32.85,5.24,57.06.08,2.21.3,3.87.69,4.77,3.08,20.58,7.58,39.86,14.01,46.93-.04,25.97.85,48.09,2.66,66.28-7.18-25.03-15.04-48.63-15.68-50.54-.79-4.51-2.68-10.6-6.96-17.47-.45-.84-1.65-3.08-3.14-6.25-10.12-27.39-3.21-94.59-3.13-95.33.07-.66-.41-1.24-1.06-1.31-.65-.06-1.24.41-1.31,1.06-.02.2-2.15,20.62-2.38,43.39-.16,15.12.51,27.69,2,37.65-1.16-3.45-2.2-7.08-2.95-10.72-.76-3.69-2.18-8.46-3.93-13.65-.97-3.6-2.55-30.76-3.08-40.97-.03-.66-.62-1.17-1.26-1.13-.66.03-1.17.6-1.13,1.26.06,1.06.99,18.94,1.97,31.03-5.67-15.23-12.32-30.57-12.76-31.57-.26-.6-.96-.88-1.57-.62-.61.26-.88.97-.62,1.57.17.38,16.75,38.59,20.04,54.57,1.6,7.78,4.49,15.52,7.09,21.51-2.08-2.31-4.44-4.66-7.14-7.02-3.58-3.13-6.89-6.75-9.93-10.58-8.81-12.8-17.75-53.7-17.84-54.14-.14-.64-.78-1.06-1.42-.92-.64.14-1.06.78-.91,1.42.3,1.37,5.38,24.62,11.8,41.6-3.56-5.79-6.53-11.52-8.87-16.47-6.1-12.93-9.31-23.43-9.34-23.53-.19-.63-.86-.99-1.49-.8-.63.19-.99.86-.8,1.49.03.11,3.28,10.75,9.45,23.82,4.04,8.58,9.98,19.48,17.58,29.04.6.87,1.21,1.62,1.81,2.24.01.01.03.02.05.03,2.6,3.08,5.38,6,8.34,8.59,13.02,11.4,18.04,22.46,19.93,30.04-.07,0-.13,0-.2,0-2.32-3.66-5.73-7.3-10.23-10.9-5.99-4.79-11.73-7.72-12.47-8.1-33.3-22.34-40.92-65.42-40.99-65.85-.11-.65-.74-1.1-1.38-.98-.65.11-1.09.73-.98,1.38.06.33,4.32,24.51,20.36,46.36-16.18-13.25-30.05-37.84-30.2-38.12-.32-.58-1.05-.78-1.63-.46-.58.32-.78,1.05-.46,1.63.45.81,7.22,12.8,16.84,24.54-8.17-5.35-19.21-15.53-19.35-15.66-.48-.45-1.24-.42-1.69.07-.45.48-.42,1.24.07,1.69.72.66,17.37,16.03,25.31,18.94,5.06,5.58,10.69,10.71,16.48,14.06,4.2,4.77,9.04,9.28,14.61,13.23-4.62-1.65-9.52-3.73-14.39-6-14.27-8.3-30.75-25.22-30.95-25.43-.46-.47-1.22-.49-1.69-.03-.47.46-.49,1.21-.03,1.69.58.6,8.53,8.77,18.19,16.53-12.13-6.45-21.54-12.31-21.73-12.43-.56-.35-1.3-.18-1.65.38-.35.56-.18,1.3.38,1.65,1.05.66,18.48,11.51,36.6,19.91,3.25,1.86,6.41,3.29,9.29,4.03,4.96,1.99,9.75,3.62,14.07,4.63,4.87,3.16,11.44,8.18,15.42,14.28-.74.83-1.05,2.01-.67,3.14.24.71,20.77,62.3,26.08,92.61l.57,13.45-1.34,80.55h12.07s-7.38-79.23,2.68-115.77h-.18c11.71-37.07,39.54-85.9,42.94-91.8.09,0,.19-.01.29-.04,1.29-.33,2.86-1.14,4.71-2.42,6.06-2.86,16.35-9.58,26.41-16.54.04-.01.08,0,.12-.02,1.1-.46,2.41-1.44,3.85-2.74,12.51-8.77,23.71-17.16,24.66-17.87.53-.4.63-1.14.24-1.67Z"/>
      </g>
      <g class="cls-9">
        <path class="cls-12" d="M41.71,137.26c-.41-4.66-2.21-8.7-5.33-12.04-4.23-4.5-9.36-6.78-15.29-6.78-.87,0-1.79.05-2.7.15-4.37.48-8.3,2.3-11.68,5.43-3.11,2.88-5.23,6.49-6.17,10.46-.91,3.89-.65,8.03.75,11.98,1.42,3.97,4.11,7.32,8.02,9.97,4.14,2.8,8.86,3.93,14.02,3.36,4.43-.48,8.37-2.27,11.68-5.29,4.41-4.03,6.7-9.21,6.81-15.41,0-.16-.01-.33-.03-.52-.03-.41-.05-.86-.09-1.32h0ZM20.8,156.09h-.1c-4.41,0-8.54-1.71-11.63-4.8-3.24-3.25-5.03-7.63-5.01-12.32-.01-4.4,1.74-8.56,4.94-11.74,3.19-3.18,7.4-4.93,11.84-4.94h.04c9.29,0,16.87,7.51,16.89,16.74.03,9.51-7.43,17-16.96,17.06h0Z"/>
        <circle class="cls-11" cx="20.91" cy="139.2" r="2.22"/>
      </g>
      <g class="cls-9">
        <path class="cls-12" d="M126.97,221.95c-.27-3.11-1.47-5.8-3.56-8.03-2.82-3-6.24-4.52-10.2-4.52-.58,0-1.19.03-1.8.1-2.92.32-5.54,1.54-7.79,3.62-2.07,1.92-3.49,4.33-4.12,6.98-.61,2.6-.44,5.36.5,7.99.95,2.65,2.74,4.88,5.35,6.65,2.76,1.87,5.91,2.62,9.35,2.24,2.96-.32,5.58-1.51,7.79-3.53,2.94-2.69,4.47-6.15,4.54-10.28,0-.11,0-.22-.02-.34-.02-.27-.03-.57-.06-.88h0ZM113.02,234.5h-.07c-2.94,0-5.7-1.14-7.76-3.2-2.16-2.17-3.35-5.09-3.34-8.22,0-2.93,1.16-5.71,3.3-7.83,2.13-2.12,4.94-3.29,7.9-3.3h.03c6.2,0,11.25,5.01,11.27,11.17.02,6.34-4.95,11.34-11.32,11.38h0Z"/>
        <circle class="cls-11" cx="113.1" cy="223.24" r="1.48"/>
      </g>
      <g class="cls-9">
        <path class="cls-12" d="M99.2,23.23c-.24-2.63-1.31-4.92-3.17-6.81-2.51-2.54-5.57-3.83-9.1-3.83-.52,0-1.06.03-1.6.08-2.6.27-4.94,1.3-6.95,3.07-1.85,1.63-3.11,3.67-3.67,5.92-.54,2.2-.39,4.54.45,6.77.84,2.24,2.45,4.14,4.77,5.64,2.46,1.58,5.27,2.22,8.34,1.9,2.64-.27,4.98-1.28,6.95-2.99,2.62-2.28,3.99-5.21,4.05-8.72,0-.09,0-.19-.02-.29-.02-.23-.03-.49-.05-.75h0ZM86.76,33.88h-.06c-2.62,0-5.08-.97-6.92-2.72-1.93-1.84-2.99-4.31-2.98-6.97,0-2.49,1.03-4.84,2.94-6.64,1.9-1.8,4.41-2.79,7.04-2.8h.02c5.53,0,10.04,4.25,10.05,9.47.02,5.38-4.42,9.62-10.1,9.65h0Z"/>
        <ellipse class="cls-11" cx="86.82" cy="24.32" rx="1.32" ry="1.25"/>
      </g>
      <g class="cls-9">
        <path class="cls-1" d="M116.34,92.24c-.24-2.63-1.31-4.92-3.17-6.81-2.51-2.54-5.57-3.83-9.1-3.83-.52,0-1.06.03-1.6.08-2.6.27-4.94,1.3-6.95,3.07-1.85,1.63-3.11,3.67-3.67,5.92-.54,2.2-.39,4.54.45,6.77.84,2.24,2.45,4.14,4.77,5.64,2.46,1.58,5.27,2.22,8.34,1.9,2.64-.27,4.98-1.28,6.95-2.99,2.62-2.28,3.99-5.21,4.05-8.72,0-.09,0-.19-.02-.29-.02-.23-.03-.49-.05-.75h0ZM103.91,102.89h-.06c-2.62,0-5.08-.97-6.92-2.72-1.93-1.84-2.99-4.31-2.98-6.97,0-2.49,1.03-4.84,2.94-6.64,1.9-1.8,4.41-2.79,7.04-2.8h.02c5.53,0,10.04,4.25,10.05,9.47.02,5.38-4.42,9.62-10.1,9.65h0Z"/>
        <ellipse class="cls-1" cx="103.97" cy="93.34" rx="1.32" ry="1.25"/>
      </g>
      <g class="cls-9">
        <path class="cls-1" d="M35.51,286.6c-.24-2.63-1.31-4.92-3.17-6.81-2.51-2.54-5.57-3.83-9.1-3.83-.52,0-1.06.03-1.6.08-2.6.27-4.94,1.3-6.95,3.07-1.85,1.63-3.11,3.67-3.67,5.92-.54,2.2-.39,4.54.45,6.77.84,2.24,2.45,4.14,4.77,5.64,2.46,1.58,5.27,2.22,8.34,1.9,2.64-.27,4.98-1.28,6.95-2.99,2.62-2.28,3.99-5.21,4.05-8.72,0-.09,0-.19-.02-.29-.02-.23-.03-.49-.05-.75h0ZM23.07,297.25h-.06c-2.62,0-5.08-.97-6.92-2.72-1.93-1.84-2.99-4.31-2.98-6.97,0-2.49,1.03-4.84,2.94-6.64,1.9-1.8,4.41-2.79,7.04-2.8h.02c5.53,0,10.04,4.25,10.05,9.47.02,5.38-4.42,9.62-10.1,9.65h0Z"/>
        <ellipse class="cls-1" cx="23.14" cy="287.69" rx="1.32" ry="1.25"/>
      </g>
      <g class="cls-9">
        <path class="cls-12" d="M61.5,53.89c-.31-3.36-1.68-6.28-4.05-8.69-3.21-3.25-7.11-4.89-11.61-4.89-.66,0-1.36.03-2.05.11-3.32.35-6.31,1.66-8.87,3.92-2.36,2.08-3.98,4.69-4.69,7.55-.69,2.81-.5,5.8.57,8.65,1.08,2.86,3.13,5.28,6.09,7.2,3.14,2.02,6.73,2.84,10.65,2.43,3.37-.35,6.35-1.64,8.87-3.82,3.35-2.91,5.09-6.65,5.17-11.13,0-.12,0-.24-.02-.37-.02-.29-.04-.62-.07-.95h0ZM45.62,67.48h-.08c-3.35,0-6.49-1.24-8.83-3.47-2.46-2.35-3.82-5.51-3.81-8.9,0-3.18,1.32-6.18,3.75-8.48,2.42-2.3,5.62-3.56,8.99-3.57h.03c7.05,0,12.81,5.43,12.83,12.09.02,6.87-5.64,12.28-12.89,12.32h0Z"/>
        <ellipse class="cls-11" cx="45.71" cy="55.29" rx="1.68" ry="1.6"/>
      </g>
      <g>
        <g>
          <path class="cls-7" d="M511.34,356.31c0,3.08-26.57,5.58-59.35,5.58-32.78,0-59.35-2.5-59.35-5.58,0-3.08,26.57-5.58,59.35-5.58,32.78,0,59.35,2.5,59.35,5.58Z"/>
          <g>
            <rect class="cls-13" x="396.4" y="296.81" width="111.36" height="3.19" transform="translate(119.91 726.29) rotate(-85.61)"/>
            <path class="cls-7" d="M528.2,221.03c-1.8-15.2-6.49-29.92-10.48-44.64-1.67-6.16-3.36-12.37-4.29-18.69-.71-4.83-.53-9.67-.32-14.53.55-12.65,1.92-25.17,2.93-37.77,1.31-16.33.75-33.24-3.58-49.1-5-18.34-16.2-34.67-35.26-40.06-5.27-1.49-10.72-2.12-16.18-2.19-11.81.07-24.32,3.44-34.59,9.15-8.97,4.99-16.46,12.37-20.85,21.71-6.63,14.11-5.37,30.29-4.46,45.42.97,16.1,3.42,32.05,4.7,48.12,1.23,15.42.31,30.41-2.39,45.63-2.3,12.98-4.62,26.02-5.25,39.21-.56,11.56.01,23.98,5.34,34.5,5.23,10.32,15.01,16.33,26.17,18.51,16.2,3.15,33.84,1.99,49.83-1.76,14.15-3.32,28.96-9.07,39.35-19.6,4.12-4.18,7.41-9.24,8.84-14.98,1.53-6.14,1.22-12.67.48-18.9Z"/>
            <path class="cls-14" d="M455.39,247.9c-8.31-11.5-10.86-42.29-7.59-91.51,2.43-36.5,7.32-70.1,7.37-70.44l2.37.35c-.2,1.33-19.34,133.72-.21,160.2l-1.94,1.4Z"/>
            <path class="cls-14" d="M451.42,121.99c-11.49-4.18-16.62-19.73-16.84-20.39l2.27-.73c.05.15,4.99,15.1,15.38,18.87l-.82,2.25Z"/>
            <path class="cls-4" d="M450.05,207.06l-.66-1.79c13.21-4.88,20.86-12.73,24.95-18.46,4.44-6.22,5.77-11.35,5.78-11.4l1.85.46c-.05.21-5.65,21.48-31.92,31.18Z"/>
            <path class="cls-14" d="M447.63,174.4c-7.51-1.07-12.71-9.26-12.93-9.61l2.03-1.27c.05.08,4.83,7.6,11.24,8.51l-.34,2.37Z"/>
          </g>
        </g>
        <path class="cls-3" d="M472.24,65.74c-.33-3.76-1.78-7.02-4.31-9.72-3.41-3.63-7.56-5.47-12.34-5.47-.71,0-1.44.04-2.18.12-3.53.39-6.7,1.86-9.43,4.39-2.51,2.33-4.23,5.24-4.98,8.44-.74,3.14-.53,6.49.61,9.67,1.14,3.2,3.32,5.91,6.47,8.05,3.34,2.26,7.15,3.17,11.32,2.72,3.58-.39,6.75-1.83,9.43-4.27,3.56-3.25,5.41-7.44,5.5-12.44,0-.13-.01-.27-.02-.42-.02-.33-.04-.7-.07-1.06h0ZM455.37,80.93h-.08c-3.56,0-6.89-1.38-9.39-3.88-2.62-2.63-4.06-6.16-4.05-9.95-.01-3.55,1.4-6.91,3.99-9.48,2.58-2.57,5.98-3.98,9.56-3.99h.03c7.5,0,13.61,6.07,13.64,13.51.02,7.68-6,13.72-13.69,13.77h0Z"/>
        <circle class="cls-6" cx="455.46" cy="67.3" r="1.79"/>
        <path class="cls-12" d="M497.68,151.92c-.26-3.04-1.44-5.67-3.48-7.85-2.76-2.93-6.11-4.42-9.97-4.42-.57,0-1.17.03-1.76.1-2.85.31-5.41,1.5-7.62,3.54-2.03,1.88-3.41,4.23-4.03,6.82-.6,2.54-.43,5.24.49,7.81.92,2.59,2.68,4.77,5.23,6.5,2.7,1.82,5.78,2.56,9.14,2.19,2.89-.31,5.46-1.48,7.62-3.45,2.88-2.63,4.37-6.01,4.44-10.05,0-.1,0-.22-.02-.34-.02-.26-.03-.56-.06-.86h0ZM484.04,164.2h-.06c-2.88,0-5.57-1.12-7.59-3.13-2.11-2.12-3.28-4.97-3.27-8.04,0-2.87,1.13-5.58,3.22-7.66,2.08-2.07,4.83-3.21,7.72-3.22h.02c6.06,0,11,4.9,11.02,10.92.02,6.2-4.84,11.09-11.07,11.13h0Z"/>
        <circle class="cls-6" cx="484.12" cy="153.18" r="1.45"/>
        <path class="cls-12" d="M437.63,89.28c-.2-2.27-1.08-4.24-2.6-5.87-2.06-2.19-4.57-3.3-7.46-3.3-.43,0-.87.02-1.32.07-2.13.24-4.05,1.12-5.7,2.65-1.51,1.41-2.55,3.17-3.01,5.1-.45,1.9-.32,3.92.37,5.84.69,1.93,2.01,3.57,3.91,4.86,2.02,1.36,4.32,1.92,6.84,1.64,2.16-.24,4.08-1.11,5.7-2.58,2.15-1.96,3.27-4.49,3.32-7.52,0-.08,0-.16-.01-.25-.01-.2-.02-.42-.04-.64h0ZM427.43,98.46h-.05c-2.15,0-4.16-.83-5.67-2.34-1.58-1.59-2.45-3.72-2.45-6.01,0-2.14.85-4.17,2.41-5.73,1.56-1.55,3.61-2.4,5.77-2.41h.02c4.53,0,8.22,3.66,8.24,8.16.01,4.64-3.62,8.29-8.27,8.32h0Z"/>
        <circle class="cls-6" cx="427.49" cy="90.23" r="1.08"/>
        <g>
          <path class="cls-4" d="M433.45,152.01c-.17-1.85-.92-3.45-2.22-4.77-1.76-1.78-3.9-2.69-6.38-2.69-.36,0-.75.02-1.12.06-1.82.19-3.46.91-4.87,2.15-1.3,1.14-2.18,2.57-2.57,4.15-.38,1.54-.27,3.18.31,4.75.59,1.57,1.72,2.9,3.34,3.95,1.73,1.11,3.69,1.56,5.85,1.33,1.85-.19,3.49-.9,4.87-2.1,1.84-1.6,2.8-3.65,2.84-6.11,0-.06,0-.13-.01-.2-.01-.16-.02-.34-.04-.52h0ZM424.73,159.47h-.04c-1.84,0-3.56-.68-4.85-1.9-1.35-1.29-2.1-3.02-2.09-4.88,0-1.74.72-3.39,2.06-4.65,1.33-1.26,3.09-1.95,4.94-1.96h.02c3.87,0,7.03,2.98,7.04,6.64.01,3.77-3.1,6.74-7.07,6.76h0Z"/>
          <ellipse class="cls-12" cx="424.78" cy="152.78" rx=".93" ry=".88"/>
        </g>
      </g>
    </g>
  </g>
</svg>