<?xml version="1.0" encoding="UTF-8"?>
<svg id="Laag_2" data-name="Laag 2" xmlns="http://www.w3.org/2000/svg" viewBox="0 0 439.51 630.11">
  <defs>
    <style>
      .cls-1 {
        fill: #3c3c3b;
      }

      .cls-2 {
        fill: #381905;
      }

      .cls-3 {
        opacity: .24;
      }

      .cls-3, .cls-4, .cls-5, .cls-6 {
        fill: #58b895;
      }

      .cls-4 {
        opacity: .44;
      }

      .cls-5 {
        opacity: .56;
      }

      .cls-6 {
        opacity: .2;
      }

      .cls-7 {
        fill: #381d05;
      }

      .cls-8 {
        fill: #371806;
      }

      .cls-9 {
        fill: #f9f2ea;
      }

      .cls-10 {
        fill: #7f6b65;
      }

      .cls-11 {
        fill: #7f665e;
      }

      .cls-12 {
        fill: #68564f;
      }

      .cls-13 {
        fill: #ced9db;
      }

      .cls-14 {
        fill: #ffa28b;
      }

      .cls-15 {
        fill: #d1dadb;
      }

      .cls-16 {
        fill: #8dc1b3;
      }

      .cls-17 {
        fill: #381c0c;
      }

      .cls-18 {
        fill: #8e373f;
      }

      .cls-19 {
        stroke: #338e8a;
        stroke-width: .29px;
      }

      .cls-19, .cls-20, .cls-21 {
        fill: none;
        stroke-linecap: round;
        stroke-linejoin: round;
      }

      .cls-20 {
        opacity: .68;
        stroke: #381c0c;
      }

      .cls-20, .cls-21 {
        stroke-width: .31px;
      }

      .cls-22 {
        fill: #6ab796;
      }

      .cls-23 {
        fill: #87493a;
      }

      .cls-24 {
        fill: #f4cebe;
      }

      .cls-25 {
        fill: #58b995;
      }

      .cls-26 {
        fill: #87402c;
      }

      .cls-27 {
        fill: #1f1f1d;
      }

      .cls-28 {
        fill: #ff8b6a;
      }

      .cls-29 {
        fill: #3b3c3c;
      }

      .cls-21 {
        stroke: #6db899;
      }

      .cls-30 {
        fill: #86473b;
      }
    </style>
  </defs>
  <g id="OBJECTS">
    <g>
      <g>
        <circle class="cls-3" cx="98.89" cy="392.79" r="96.39" transform="translate(-248.78 184.97) rotate(-45)"/>
        <g>
          <path class="cls-28" d="M73.06,383.94c-.06-.85-.99-16.27-.3-23.39.19-1.95,1.89-3.4,3.85-3.29h0c2.02.12,3.56,1.87,3.42,3.89l-2.68,22.55-4.29.23Z"/>
          <g>
            <path class="cls-28" d="M77.13,380.4c.27.1.47.3.63.55.42.46.75,1.45,1.26,2.5.8,1.67,1.74,2.88.78,3.34-.58.28-1.33.03-2.01-.57-.6,2.84-1.65,5.65-1.77,5.75-.35.29-.98,0-1.25-.03-.24-.02-.17.45-.81.35-.32-.13-.63-.3-.92-.52-.2-.27-.21-.55-.16-.66.08-.18-.68-.16-.99-.56-.01-.02-.02-.04-.03-.06-.24-.42.15-1,.17-1.23.01-.2-.73-.12-.97-1.11-.16-1.24-.03-2.7.56-4.35,1.9-5.26,3.1-4.28,5.52-3.42Z"/>
            <path class="cls-11" d="M76.42,331.48c2.3-.61,5.16,3.51,5.22,7.85.11.69-1.37,17.22-1.46,21.72-.04,2.12-1.89,3.78-4.05,3.55-1.87-.2-3.23-1.88-3.24-3.76-.04-4.85-2.87-27.66,3.53-29.36Z"/>
          </g>
          <path class="cls-28" d="M92.78,350.59c.12-.07.23-.14.34-.21,1.02-.65,2.4-1.57,2.67-2.82.23-1.06-.89-2.11-1.36-2.95-.16-.28-.42-.47-.75-.58-.55-.3-1.52-.45-2.58-.75-1.78-.51-3.13-1.23-3.43-.2-.18.62.19,1.32.9,1.89-.13.25-2.46,1.81-2.54,1.94-.23.4.17.96.24,1.22.07.23-.42.25-.21.85.18.3.4.57.67.82.3.15.58.11.67.05.16-.11.27.65.72.88.02,0,.05.01.07.02.45.16.96-.32,1.18-.38.12-.03.41.44.51.52.88.65,2.03.2,2.9-.31Z"/>
          <path class="cls-28" d="M90.89,347.41c.6.61,11.54,11.52,17.33,15.71,1.59,1.15,3.8.84,5.01-.71h0c1.25-1.6.96-3.91-.65-5.14l-18.67-12.92-3.02,3.06Z"/>
          <g>
            <path class="cls-11" d="M107.95,331.59c-2.93-3.77-31-1.53-32.75.49-1.75,2.01,4.16,18.79,4.15,25.81,0,8.96-2.42,16.05-2.42,16.05,0,0,6.98,1.52,16.36,1.65,9.38.13,11.42-6.47,11.42-6.47,0,0-1.58-11.34-1.3-13.72.28-2.38,6.26-21.58,4.53-23.81Z"/>
            <path class="cls-13" d="M104.72,369.12c.61,1.92,1.15,4.04,1.57,6.35,1.26,6.92.9,13.02.18,17.63-5.34.65-12.05.03-19.39.13-6.16.08-10.61.06-10.61.06-1.83-7.79-2.79-16.11,1.75-23.38-4.19,6.73,26.69.87,26.5-.79Z"/>
            <g>
              <g>
                <g>
                  <path class="cls-28" d="M92.76,381.16s1.25,34.39,3.33,44.31c1.18,5.63,9.03-.52,8.56-3.47-.46-2.95,3.95-41.85,1.5-43.69-1-.75-2.18-.83-3.35-.89-4.72-.26-8.42,2.39-10.04,3.74Z"/>
                  <path class="cls-28" d="M105.82,428.7c-.39-4.75-1.45-9.2-2.86-11.07-1.24-1.64-6.15-1.79-6.58.72-1.33,5.46,2.89,29.39,2.99,34.27.05,2.42-.41,3.22,1.37,3.68,1.78.47,2.98-.53,2.98-.53.86-1.22.46-2.9.63-4.8.16-1.9,1.86-17.52,1.47-22.27Z"/>
                </g>
                <path class="cls-28" d="M99.29,453.83c-.02,2.79-.9,6.19-.89,7.31.02,2.38,4.35,2.81,5.63.03.41-.89.73-4.78.15-7.87-.58-3.09-4.89.53-4.89.53Z"/>
                <path class="cls-2" d="M104.96,460.84c-.66,4.15-2.82,7.08-4.87,6.94-3.29-.24-2.41-4.71-1.75-8.87.66-4.15,2.11-6.5,4.14-6.17,2.03.32,3.14,3.95,2.48,8.11Z"/>
              </g>
              <path class="cls-13" d="M104.84,421.47c.57,2.07.98,4.56,1.2,7.21.33,4.1-.69,14.34-1.14,18.89,0,.04-.1.96-.15,1.55-.03.28-.22.53-.5.6-1.59.42-3.33.34-4.93-.12-.27-.08-.45-.31-.49-.59-.21-1.82-.51-4.07-.83-6.5-.7-5.27-1.49-11.25-1.87-16.15-.11-.27-.2-.54-.26-.84-2.07-9.82-3.33-44-3.34-44.35v-.11s.08-.07.08-.07c2.24-1.86,5.83-4.03,10.2-3.79,1.12.06,2.4.13,3.47.94,1.59,1.19.64,14.84-.65,31.22-.44,5.58-.82,10.4-.79,12.11Z"/>
            </g>
            <g>
              <g>
                <g>
                  <path class="cls-28" d="M90.67,383.45s2.96,36.71,1.98,47.51c-.56,6.13-9.66.57-9.53-2.62.12-3.19-9.42-43.99-7.04-46.25.97-.92,2.21-1.15,3.45-1.37,4.98-.86,9.25,1.49,11.14,2.72Z"/>
                  <path class="cls-28" d="M82.72,435.61c-.18-5.1.39-9.96,1.66-12.12,1.11-1.9,6.32-2.66,7.08-.06,2.09,5.64.59,31.6,1.09,36.79.25,2.57.84,3.37-.99,4.09-1.84.72-3.23-.19-3.23-.19-1.07-1.19-.85-3.03-1.26-5.02-.41-1.99-4.16-18.39-4.34-23.49Z"/>
                </g>
                <path class="cls-28" d="M92.79,461.5c.37,2.97,1.73,6.47,1.86,7.65.27,2.54-4.27,3.53-5.98.74-.55-.89-1.37-4.99-1.14-8.35.23-3.36,5.27-.04,5.27-.04Z"/>
                <path class="cls-2" d="M87.64,469.66c1.22,4.33,3.88,7.18,6.04,6.76,3.46-.66,1.97-5.31.75-9.64-1.22-4.33-3.06-6.64-5.17-6.05-2.12.6-2.84,4.59-1.62,8.92Z"/>
              </g>
              <path class="cls-13" d="M82.86,427.8c-.35,2.27-.48,4.97-.38,7.81.16,4.39,2.52,15.15,3.57,19.93,0,.04.22,1.01.36,1.62.07.3.3.53.61.58,1.74.24,3.58-.05,5.22-.74.27-.11.44-.39.44-.68,0-1.96.03-4.39.07-7.01.08-5.69.18-12.14-.03-17.4.09-.3.14-.6.17-.93.97-10.7-1.95-47.18-1.98-47.55v-.12s-.11-.06-.11-.06c-2.61-1.7-6.69-3.55-11.31-2.75-1.19.21-2.53.44-3.57,1.43-1.54,1.46,1.17,15.85,4.58,33.1,1.16,5.87,2.17,10.95,2.35,12.77Z"/>
            </g>
            <path class="cls-11" d="M107.95,331.59c3.17,3.87,8.93,30.09,4.11,31.55-4.83,1.46-7.84-20.98-9.18-26.44-1.34-5.46,3.05-7.57,5.07-5.11Z"/>
            <path class="cls-18" d="M106.27,330.6c-1.45-.9-1.46,25.27-.46,31.39l-1.27.04s-2.12-24.86.84-31.68l.9.25Z"/>
            <g>
              <path class="cls-28" d="M85.02,332.14c.03,1.11,2.88,4.14,6.28,4.05,3.4-.1,6.07-3.29,6.03-4.4-.03-1.11-2.81-1.94-6.21-1.84-3.4.1-6.13,1.08-6.1,2.19Z"/>
              <rect class="cls-28" x="88.6" y="325.72" width="5.03" height="8.45" transform="translate(191.7 657.13) rotate(178.35)"/>
              <path class="cls-2" d="M88.53,327.36l-.07-2.37,5.03-.14.11,3.66c-1.75,0-3.43-.45-5.07-1.15Z"/>
              <path class="cls-2" d="M90.96,307.98c5.3-.15,7.3,4.2,7.46,9.46.14,4.96-2.98,9.21-6.92,9.33-4.14.12-7.3-3.95-7.44-8.91-.15-5.27,1.6-9.72,6.9-9.88Z"/>
              <path class="cls-2" d="M83.74,317.57c.41.19.97-1.47,3.55-3.84,3.45-3.17,5.96-3.44,5.93-4.8-.03-1.34-2.54-2.97-4.57-2.58-4.34.83-5.88,10.78-4.91,11.22Z"/>
              <path class="cls-2" d="M98.39,318.06c-.44.02-.42-1.69-2.19-4.94-.77-1.42-1.55-2.83-2.99-4.18-1.94-1.83-3.39-1.96-3.33-2.52.11-.99,3.74-2.49,6.7-.33,4.12,3,2.79,11.92,1.8,11.97Z"/>
            </g>
            <g>
              <path class="cls-16" d="M107.01,359.99s5.83,3.22,7.48,6.25c1.65,3.03,1.05,3.83-.28,4.81,0,0,2.73,2.58,2.45,3.63-.28,1.05-1.22,6.61-2.39,7.42-1.18.82-7.44,2.46-8.24,2.01-.8-.45-7.3-26.97.97-24.13Z"/>
              <path class="cls-19" d="M113.68,372.42c-.05.21-.45,4.13-1.03,4.1s-2.35-11.1-8.05-9.47"/>
            </g>
            <path class="cls-2" d="M99.36,311.57c2.02,8.64,5.33,19.21,4.44,21.87-.9,2.67-26.25,1.62-26.25,1.62,0,0,5.85-16.39,7.01-23.99"/>
          </g>
          <path class="cls-2" d="M87.09,464.59c-.02.3.16,11.29.4,11.88.24.58,1.35.31,1.35.31l.28-8.22"/>
          <path class="cls-2" d="M105.15,457.57c.02.3-.16,11.29-.4,11.88s-1.35.31-1.35.31l-.28-8.22"/>
        </g>
      </g>
      <circle class="cls-6" cx="81.57" cy="81.57" r="81.56" transform="translate(-33.79 81.57) rotate(-45)"/>
      <g>
        <path class="cls-23" d="M69.87,75.61s-6.01,35.37-4.1,41c1.91,5.63,8.89,3.44,9.19.37.3-3.07,10.53-36.34,10.53-36.34l-15.63-5.03Z"/>
        <g>
          <path class="cls-23" d="M68.11,152.53c.33-.51,1.01-3.79,1.63-5.87,7.15-23.95,5.59-28.55,5.59-28.55.07-3.12-2.51-5.59-5.35-5.47-2.55.11-4.27.27-4.4,3.06-.02.02-.75,26.67-1.68,31.86-.7,3.88-1.49,4.03-1.68,4,.48.13,5.59,1.46,5.9.97Z"/>
          <path class="cls-8" d="M69.16,151.91c-.09-.73-.27-1.45-.59-1.31-.54.24-.98.68-1.52.94-1.2.58-2.77-.12-3.68-.96-.59-.54-1.26-.16-1.88.08-.66.25-1.33.48-2,.71-.85.29-1.69.57-2.55.84,0,0-1.3.23-1.53.45-.17.17-.47,1.12-.43,1.23.04.11,1.27,1.16,2.79,1.63,1.55.48,4.5.63,5.71.42.78-.13,1.56-.21,2.35-.31.95-.11,2.6.06,3.14-.91.46-.82.3-1.94.18-2.82Z"/>
        </g>
        <g>
          <path class="cls-23" d="M73.49,77.2s3.29,35.72,6.58,40.67c3.29,4.95,9.48,1.04,8.98-2-.5-3.04.84-37.83.84-37.83l-16.4-.84Z"/>
          <g>
            <path class="cls-23" d="M113.87,136.92c-.25-.55-2.66-2.88-4.08-4.53-16.37-18.89-21.09-20.03-21.09-20.03-2.59-1.74-6.07-.88-7.49,1.58-1.28,2.21-2.07,3.75.22,5.35,0,.03,22.11,14.95,25.98,18.51,2.9,2.67,2.6,3.42,2.48,3.57.36-.34,4.23-3.93,3.99-4.46Z"/>
            <path class="cls-8" d="M113.91,135.71c-.67-.31-1.37-.55-1.43-.2-.09.58.05,1.19-.02,1.78-.15,1.32-1.59,2.27-2.79,2.59-.77.2-.81.98-.94,1.63-.14.69-.3,1.38-.47,2.07-.21.87-.43,1.74-.65,2.6,0,0-.51,1.22-.44,1.53.05.23.7,1,.81,1.02.11.02,1.66-.45,2.88-1.48,1.24-1.05,2.95-3.46,3.42-4.59.3-.73.66-1.44,1-2.15.41-.86,1.44-2.16.92-3.14-.44-.83-1.47-1.29-2.28-1.67Z"/>
          </g>
          <path class="cls-22" d="M69.48,74.95l-.1.57c-.22,1.32-5.48,32.45-4.31,40.15h.02c-.03.25-.04.7-.07,1.6-.29,8.88-.57,15.87-.85,20.96,2.64.73,5.38,1.05,8.15,1.18,4.35-16.19,3.69-20.67,3.52-21.37,0-.58-.07-1.15-.24-1.71,1.2-5.65,10.3-35.26,10.39-35.56l.15-.47-16.65-5.36Z"/>
          <path class="cls-22" d="M105.33,126.64c-9.85-10.79-14.35-13.73-15.88-14.5.01-9.61.94-33.83.95-34.08l.02-.49-17.47-.89.05.57c.13,1.46,3.34,35.91,6.66,40.9.04.06.08.12.15.18.23.42.59.81,1.07,1.18.22.18.44.34.65.47l.89.61c7.95,5.42,14.02,9.65,18.22,12.68,1.58-2.2,3.14-4.41,4.69-6.63Z"/>
        </g>
        <path class="cls-23" d="M77.41,32.06c-2.41-2.29-7.68,3.37-9.5,6.56-2.8,3.85-6.42,12.62-8.19,15.99-.83,1.59-.14,3.58,1.55,4.28,1.47.61,3.16-.07,3.94-1.46,2.01-3.58,16.25-21.51,12.2-25.38Z"/>
        <path class="cls-23" d="M57.38,36.78c0,.72.24,13.79,1.3,19.74.29,1.63,1.82,2.75,3.46,2.52h0c1.7-.24,2.88-1.81,2.63-3.51l-3.75-18.84-3.64.09Z"/>
        <path class="cls-29" d="M91.64,36.28c.06-3.15-5.46-7.45-11.02-7.53-5.56-.08-9.11,2.4-9.18,5.55l-4.32,44.93c.01,2.44,19.92.98,24.52,3.4.95.5,0-46.35,0-46.35Z"/>
        <path class="cls-29" d="M76.59,29.48c-5.01.18-7.4.62-11.96,12.8,0,0,4.32,3.93,9.1,4.17,0,0,5.09-11.28,3.95-14.07"/>
        <g>
          <path class="cls-26" d="M55.77,39.37c.64.2,1.34.33,1.84.48,1.15.34,2.43.39,3.09-.8.56-1,.36-2.19-.03-3.21-.37-.97-.84-2.14-1.71-2.77-.37-.27-.81-.42-1.24-.57-.23-.08-.46-.16-.7-.16-.28,0-.59.19-.57.46.02.26.3.4.54.51.24.11.5.32.44.57-.57-.05-1.13-.2-1.65-.44-.42-.2-1.02-.43-1.34.09-.28.46.31,1.11,0,1.56-.18.26-.58.34-.7.64-.17.42.28.83.37,1.22.12.52-.15,1.1.21,1.57.31.41.86.66,1.45.85Z"/>
          <path class="cls-8" d="M55.79,29.37c.3.11.52.37.56.68l1.64,10.63c.08.53-.5.91-.95.61,0,0,0,0-.01,0-.05-.03-.08-.08-.09-.14l-2.1-11.69c-.03-.15.11-.27.25-.24l.7.16Z"/>
          <path class="cls-26" d="M54.4,34.13c.18-.93,2.28-1.13,2.31-.09.03.86-1.76,1.01-1.76,1.01l-.13.68s1.9-.55,2.24.15-.89,1.44-2.09,1.45c0,0,2.3-.19,2.27.73-.02.92-2.41.31-2.09.37.32.06,1.82.49,1.6.96-.23.47-1.41-.08-1.82-.36"/>
          <path class="cls-26" d="M58.54,32.81c-.15-.07-1.35-.97-2.05-.17-.71.8.9.56,1.27,3.45"/>
        </g>
        <path class="cls-23" d="M87.54,31.44c-3.24.75-1.39,8.27.28,11.54,1.69,4.45,7.04,12.29,8.89,15.62.87,1.57,2.92,2.08,4.43,1.05,1.32-.89,1.67-2.68.94-4.09-1.9-3.64-9.08-25.39-14.54-24.11Z"/>
        <path class="cls-23" d="M102.55,77.58c.05-.72.79-13.77.18-19.79-.17-1.65-1.61-2.87-3.26-2.77h0c-1.71.11-3.01,1.59-2.88,3.3l2.33,19.07,3.63.18Z"/>
        <path class="cls-23" d="M99.63,73.76c-.24-.03-.47.04-.69.17-.5.18-1.13.79-1.92,1.39-1.25.94-2.43,1.48-1.89,2.21.33.44.99.54,1.73.36-.66,2.36-.97,4.88-.92,5,.15.36.74.38.95.46.19.08-.05.41.47.58.29.03.59.02.89-.03.25-.12.37-.33.38-.43,0-.16.57.15.96-.03.02,0,.03-.02.05-.03.34-.22.27-.81.35-.99.07-.16.59.2,1.16-.45.61-.87,1.08-2.01,1.28-3.48.63-4.69-.66-4.42-2.81-4.72Z"/>
        <path class="cls-29" d="M84.59,29.38c5.01.06,7.41.44,12.26,12.51,0,0-4.23,4.04-9,4.39,0,0-5.36-11.16-4.28-13.97"/>
        <g>
          <path class="cls-8" d="M73.83,9c-.06.17-5.98.69-2.98,6.98.86,1.8,6.58-4.12,5.87-4.31-.71-.19-2.89-2.67-2.89-2.67Z"/>
          <g>
            <g>
              <path class="cls-23" d="M84.72,32.51c-.08,1.27-4.12,5.54-6.43,5.4-2.3-.14-1.99-4.64-1.91-5.91.08-1.27,2.01-2.18,4.31-2.04s4.11,1.28,4.03,2.55Z"/>
              <polygon class="cls-23" points="79.29 30.41 82.88 30.47 83.02 21.93 79.41 23.27 79.29 30.41"/>
              <path class="cls-8" d="M79.31,29.58l.1-6.31,3.27-1.09c-.44,2.38-1.6,5.78-3.38,7.39Z"/>
            </g>
            <path class="cls-30" d="M83.07,22.34s-.3.58-.83,1.41c-1.46,2.29-4.6,4.85-7.86,3.71-4.44-1.56-4.84-12.47-3.1-14.54,4.03-4.8,13.46-1.57,11.79,9.42Z"/>
            <path class="cls-8" d="M85.01,20.1c-1.92.89-2.56.76-2.8.5-.56-.61.75-2.28.09-3.05-.52-.6-1.86.22-2.41-.41-.38-.43.11-.96-.08-1.53-.55-1.63-5.53-.1-7.55-2.3-1.08-1.17-1.26-3.35-.41-4.58,1.9-2.76,9.82-2.04,12.92,2.14,1.23,1.66,1.46,3.55,1.5,3.89.29,2.62-.81,4.63-1.24,5.35Z"/>
            <path class="cls-23" d="M82.21,20.6c-.38,1-.07,2.05.69,2.34.76.29,1.69-.29,2.07-1.29.38-1,.07-2.05-.69-2.34s-1.69.29-2.07,1.29Z"/>
          </g>
        </g>
      </g>
      <g>
        <path class="cls-1" d="M133.65,41.71c-7.69,0-13.92,6.23-13.92,13.92s13.92,24.66,13.92,24.66c0,0,13.92-16.97,13.92-24.66s-6.23-13.92-13.92-13.92ZM133.65,63.91c-4.57,0-8.28-3.71-8.28-8.28s3.71-8.28,8.28-8.28,8.28,3.71,8.28,8.28-3.72,8.28-8.28,8.28Z"/>
        <g>
          <path class="cls-25" d="M143.14,54.75c-.18-2.12-1.01-3.97-2.43-5.49-1.93-2.05-4.27-3.09-6.98-3.09-.4,0-.82.02-1.23.07-2,.22-3.79,1.05-5.33,2.48-1.42,1.31-2.39,2.96-2.82,4.77-.42,1.78-.3,3.67.34,5.46.65,1.81,1.88,3.34,3.66,4.55,1.89,1.28,4.04,1.79,6.4,1.53,2.02-.22,3.82-1.03,5.33-2.41,2.01-1.84,3.06-4.2,3.11-7.03,0-.07,0-.15-.01-.24-.01-.18-.02-.39-.04-.6h0ZM133.61,63.34h-.05c-2.01,0-3.9-.78-5.31-2.19-1.48-1.48-2.29-3.48-2.29-5.62,0-2.01.79-3.91,2.25-5.36,1.46-1.45,3.38-2.25,5.4-2.25h.02c4.24,0,7.69,3.43,7.71,7.64.01,4.34-3.39,7.76-7.74,7.78h0Z"/>
          <circle class="cls-27" cx="133.66" cy="55.63" r="1.01"/>
        </g>
      </g>
      <g>
        <circle class="cls-5" cx="280.4" cy="215.2" r="88.92" transform="translate(-70.04 261.31) rotate(-45)"/>
        <g>
          <path class="cls-7" d="M296.01,164.06c4.87.1,7.95-1.09,7.05-5.31-.9-4.22-6.29-4.29-6.41-4.77,0,0,5.31-.75,5.35-4.01.04-3.26-7.91-4.26-9.19-8.96l-5.62-1.2h-1.6l-5.48,1.84c-1.27,4.69-9.37,5.05-9.33,8.32.04,3.26,5.35,4.01,5.35,4.01-.13.48-5.52.55-6.41,4.77-.9,4.22,2.18,5.4,7.05,5.31"/>
          <g>
            <g>
              <path class="cls-24" d="M286.8,207.02s-.32,31.75,1.18,40.97c.85,5.24,8.34-.09,8.04-2.83-.3-2.73,5.43-38.4,3.25-40.19-.89-.74-1.97-.86-3.05-.97-4.33-.44-7.86,1.85-9.41,3.01Z"/>
              <path class="cls-24" d="M296.81,251.39c-.15-4.39-.94-8.54-2.16-10.32-1.07-1.56-5.6-1.91-6.09.38-1.46,4.98,1.41,27.21,1.29,31.71-.06,2.23-.52,2.95,1.1,3.45,1.62.51,2.76-.36,2.76-.36.85-1.09.55-2.66.78-4.4.23-1.74,2.46-16.07,2.31-20.46Z"/>
            </g>
            <path class="cls-7" d="M294.64,280.97c-.79,3.8-2.9,6.41-4.79,6.18-3.02-.36-2.02-4.45-1.23-8.25.79-3.8,2.23-5.9,4.08-5.51,1.86.38,2.72,3.78,1.94,7.58Z"/>
            <path class="cls-24" d="M289.71,274.27c-.14,2.57-1.09,5.67-1.13,6.69-.08,2.2,3.89,2.78,5.19.27.42-.8.88-4.38.47-7.25-.4-2.87-4.53.28-4.53.28Z"/>
          </g>
          <g>
            <g>
              <path class="cls-24" d="M286.45,209.87s.27,33.97-1.35,43.84c-.92,5.6-8.92-.12-8.6-3.04s-5.73-41.1-3.39-43.02c.96-.78,2.11-.91,3.27-1.03,4.64-.46,8.41,1.99,10.07,3.25Z"/>
              <path class="cls-24" d="M275.64,257.32c.17-4.7,1.02-9.14,2.34-11.04,1.15-1.67,5.99-2.03,6.52.42,1.55,5.33-1.57,29.11-1.45,33.92.06,2.38.55,3.15-1.19,3.69-1.74.54-2.96-.39-2.96-.39-.9-1.16-.58-2.84-.83-4.71-.25-1.86-2.6-17.2-2.43-21.9Z"/>
            </g>
            <path class="cls-7" d="M277.9,288.98c.83,4.07,3.09,6.86,5.11,6.63,3.23-.38,2.17-4.75,1.34-8.82s-2.37-6.32-4.36-5.91c-1.99.41-2.92,4.03-2.09,8.1Z"/>
            <path class="cls-24" d="M283.19,281.82c.15,2.75,1.16,6.07,1.2,7.17.08,2.35-4.17,2.97-5.55.28-.44-.86-.93-4.69-.49-7.76.44-3.07,4.85.31,4.85.31Z"/>
          </g>
          <path class="cls-9" d="M296.48,163.45c-1.51-4.69-21.95-3.36-23.91-.48s2.68,17.27,1.97,23.71c-.71,6.44-1.05,11.09-1.05,11.09,0,0,5.26,5.12,13.91,5.24,8.65.12,10.53-5.97,10.53-5.97,0,0-1.45-10.46-1.2-12.66.26-2.2.54-18.45-.26-20.93Z"/>
          <path class="cls-12" d="M297.94,195.49c.56,1.77,5.19,36.61,5.2,38.77.15,34-6.09.6-6.68,4.81-.04.25.25,0,0,0-4.79-.11-13.85,21.62-20.04,19.45-5.82-2.04-.96-9.23-1.83-.98-4.22-11.9-1.59-57.69-1.09-61.33,8.63,5.1,24.62.8,24.44-.73Z"/>
          <path class="cls-9" d="M296.25,162.39c1.95.61,3.88,1.83,5.29,8.9,2.85,14.3,2.92,16.89,1.28,18.09-1.11.81-2.75.79-3.85.26-2.28-1.11-2.27-4.46-2.98-8.97-1.77-11.22-5.68-14.64-3.23-17.79,1.14-1.47,1.94-.97,3.49-.48Z"/>
          <path class="cls-9" d="M296.54,178.72c.59.2,1.26-.14,1.62-.65.36-.51.47-1.15.54-1.77.23-2.19-.06-4.61-1.57-6.22-.3-.32-.69-.62-1.13-.58-.54.05-.9.57-1.12,1.06-1.04,2.34-.62,5.26,1.03,7.22"/>
          <path class="cls-9" d="M275.46,161.99c2.12.58.65,4.28-.25,8.18-.05.64-5.02,15.12-6.09,19.13-.51,1.89-2.53,2.97-4.41,2.29-1.63-.59-2.48-2.39-2.08-4.08,1.04-4.36,6.93-27.15,12.83-25.52Z"/>
          <g>
            <path class="cls-24" d="M280.13,162.11c.03,1.03,2.65,3.82,5.79,3.73,3.14-.09,5.6-3.03,5.57-4.06-.03-1.03-2.6-1.79-5.73-1.7-3.14.09-5.66,1-5.63,2.02Z"/>
            <rect class="cls-24" x="283.43" y="156.19" width="4.64" height="7.79" transform="translate(576 311.89) rotate(178.35)"/>
            <path class="cls-7" d="M283.36,157.7l-.06-2.18,4.64-.13.1,3.38c-1.61,0-3.16-.41-4.68-1.06Z"/>
            <path class="cls-24" d="M285.61,139.83c4.89-.14,6.74,3.87,6.88,8.73.13,4.58-2.75,8.5-6.38,8.6-3.82.11-6.73-3.64-6.86-8.22-.14-4.86,1.47-8.97,6.36-9.11Z"/>
            <path class="cls-7" d="M278.95,148.68c.38.17.9-1.36,3.27-3.54,3.18-2.93,5.5-3.18,5.47-4.43-.03-1.24-2.35-2.74-4.21-2.38-4,.76-5.43,9.94-4.53,10.35Z"/>
            <path class="cls-7" d="M292.46,149.12c-.4.02-.39-1.56-2.02-4.56-.71-1.31-1.43-2.61-2.75-3.86-1.79-1.69-3.13-1.8-3.07-2.33.1-.91,3.45-2.3,6.18-.3,3.8,2.77,2.57,11,1.66,11.04Z"/>
            <path class="cls-24" d="M280.47,150.24c.61.98.88.57.14,1.03-.74.46-1.84.05-2.45-.93-.61-.98-.5-2.14.24-2.61s1.46,1.52,2.07,2.5Z"/>
            <path class="cls-24" d="M291.14,149.94c-.55,1.01-.33.61.44,1.03.77.42,1.84-.06,2.39-1.07s.38-2.17-.39-2.59c-.77-.42-1.89,1.62-2.44,2.63Z"/>
          </g>
          <g>
            <rect class="cls-7" x="284.81" y="168.51" width="6.3" height="14.01" rx="1.59" ry="1.59" transform="translate(-8.58 14.92) rotate(-2.93)"/>
            <path class="cls-24" d="M311.49,167.55c-.14.78-2.77,14.78-4.99,20.99-.61,1.7-2.46,2.62-4.18,2.08h0c-1.78-.56-2.77-2.47-2.19-4.25l7.47-19.57,3.89.76Z"/>
            <path class="cls-24" d="M310.11,170.94c-.12-.05-.23-.1-.34-.15-1.01-.47-2.38-1.14-2.79-2.24-.35-.94.55-2.04.88-2.87.11-.28.33-.48.61-.63.47-.34,1.33-.6,2.26-1.01,1.56-.68,2.71-1.51,3.11-.6.24.55-.01,1.23-.58,1.84.15.21,2.47,1.35,2.56,1.46.26.33-.04.9-.07,1.15-.03.22.41.18.3.75-.13.3-.3.57-.51.83-.25.17-.51.18-.61.13-.16-.08-.17.62-.55.89-.02.01-.04.02-.06.03-.39.21-.91-.17-1.13-.2-.12-.01-.32.45-.4.53-.72.7-1.83.43-2.69.08Z"/>
          </g>
          <path class="cls-24" d="M281.24,178.69c-.06-.26,0-.51.12-.76.15-.56.76-1.3,1.33-2.21.9-1.45,1.38-2.78,2.22-2.26.51.32.68,1.02.55,1.85,2.5-.93,5.21-1.51,5.35-1.46.4.13.48.76.59.99.1.2.44-.09.67.45.06.32.08.64.05.97-.11.29-.32.43-.43.45-.18.03.22.61.05,1.05,0,.02-.02.04-.03.06-.21.39-.85.37-1.04.48-.16.09.27.63-.38,1.3-.89.74-2.08,1.36-3.66,1.71-5.03,1.12-4.87-.3-5.39-2.61Z"/>
          <path class="cls-24" d="M286,180.12c-.64.47-12.18,8.82-18.06,11.8-1.61.82-3.58.21-4.46-1.37h0c-.91-1.64-.31-3.7,1.34-4.59l18.88-9.06,2.3,3.23Z"/>
        </g>
      </g>
      <g>
        <circle class="cls-4" cx="328.1" cy="518.69" r="111.41" transform="translate(-270.67 383.92) rotate(-45)"/>
        <g>
          <g>
            <path class="cls-14" d="M346.37,504.81s7.64,48.41,4.95,56.06c-2.7,7.66-12.2,4.56-12.56.36-.36-4.19-13.81-49.81-13.81-49.81l21.43-6.62Z"/>
            <g>
              <path class="cls-14" d="M347.56,609.91c-.45-.7-1.31-5.2-2.13-8.05-9.39-32.83-7.18-39.08-7.18-39.08-.05-4.26,3.52-7.6,7.4-7.39,3.49.19,5.83.44,5.96,4.24.03.03.6,36.44,1.79,43.54.89,5.32,1.97,5.53,2.24,5.5-.65.16-7.65,1.9-8.08,1.24Z"/>
              <path d="M346.13,609.05c.14-.99.4-1.98.83-1.78.73.33,1.33.94,2.06,1.3,1.63.81,3.78-.12,5.04-1.25.81-.73,1.72-.2,2.56.13.9.35,1.81.68,2.72,1,1.15.41,2.3.81,3.46,1.19,0,0,1.78.33,2.08.64.23.23.62,1.54.57,1.69-.06.15-1.75,1.56-3.84,2.19-2.12.64-6.16.79-7.8.49-1.06-.19-2.13-.32-3.2-.46-1.29-.17-3.55.04-4.28-1.29-.62-1.12-.37-2.65-.2-3.86Z"/>
            </g>
            <path class="cls-10" d="M335.67,548.48c-.5-.04-.92-.39-1.05-.87-4.06-14.69-10.24-35.69-10.33-35.98l-.19-.65,22.83-7.05.12.78c.21,1.31,3.74,23.85,5.05,40.24.04.54-.28,1.03-.79,1.21-5.03,1.79-10.2,2.75-15.63,2.31Z"/>
            <line class="cls-21" x1="357.59" y1="607.94" x2="356.86" y2="609.2"/>
            <line class="cls-21" x1="359.03" y1="608.59" x2="358.36" y2="610.04"/>
          </g>
          <path class="cls-14" d="M341.84,507.79s-15.04,46.64-20.91,52.25c-5.86,5.61-12.94-1.44-11.37-5.35,1.57-3.9,10.17-50.68,10.17-50.68l22.11,3.77Z"/>
          <path class="cls-14" d="M270.2,575.36c.5-.66,4.41-3.05,6.79-4.81,27.46-20.29,34.09-20.42,34.09-20.42,3.98-1.54,8.35.63,9.51,4.34,1.04,3.33,1.63,5.62-1.89,7.07-.02.04-33.93,13.33-40.16,16.93-4.67,2.7-4.49,3.78-4.36,4.02-.38-.56-4.46-6.5-3.99-7.13Z"/>
          <path d="M270.51,573.73c.98-.22,2-.32,1.96.15-.06.8-.42,1.58-.5,2.38-.19,1.81,1.44,3.5,2.94,4.28.97.5.79,1.54.77,2.45-.02.97,0,1.93.01,2.9.02,1.22.05,2.44.1,3.66,0,0,.31,1.78.13,2.18-.14.3-1.23,1.13-1.39,1.12-.16,0-2.08-1.1-3.39-2.83-1.34-1.76-2.89-5.49-3.19-7.14-.19-1.06-.45-2.11-.69-3.16-.29-1.27-1.28-3.31-.29-4.46.84-.97,2.35-1.28,3.54-1.54Z"/>
          <path class="cls-10" d="M311.92,545.21c-.44-.17-.69-.63-.59-1.09,3.06-14.8,7.68-39.93,7.74-40.22l.12-.66,23.55,4.02-.24.75c-.44,1.37-8.06,24.9-14.51,40.18-.16.38-.55.62-.96.59-5.25-.34-10.26-1.64-15.1-3.56Z"/>
          <path class="cls-14" d="M332.94,446.74c3.9-2.33,9.21,6.81,10.66,11.62,2.56,5.97,4.73,18.76,6.06,23.78.63,2.37-.9,4.81-3.37,5.24-2.14.37-4.19-1.06-4.8-3.14-1.59-5.38-15.14-33.57-8.56-37.5Z"/>
          <path class="cls-14" d="M355.69,509.89c-.52-.84-9.86-16.06-13.02-23.69-.87-2.09.08-4.5,2.14-5.44h0c2.13-.98,4.65-.03,5.61,2.11l9.53,24.45-4.25,2.57Z"/>
          <path class="cls-15" d="M314.62,454.03c-.26-4.3,7.03-10.48,14.61-10.9,7.58-.43,12.58,2.77,12.84,7.06l8.44,61.08c.12,3.33-28.32,1.54-34.46,5.1-1.27.74-1.43-62.33-1.43-62.33Z"/>
          <path class="cls-15" d="M334.82,443.54c6.61,1.76,9.67,3.06,12.06,20.67,0,0-6.95,3.93-13.39,2.8,0,0-3.36-16.57-1-19.93"/>
          <path class="cls-14" d="M317.02,449.56c4.31-1.42,7.5,8.67,7.86,13.67,1.19,6.39.51,19.34.71,24.53.09,2.45-1.93,4.49-4.43,4.37-2.17-.11-3.86-1.95-4-4.11-.37-5.6-7.42-36.07-.14-38.46Z"/>
          <path class="cls-14" d="M324.19,516.03c-.3-.94-5.57-18-6.74-26.17-.32-2.24,1.19-4.34,3.42-4.74h0c2.31-.42,4.51,1.12,4.91,3.43l3.17,26.05-4.76,1.44Z"/>
          <path class="cls-14" d="M326.84,509.73c.33-.03.64.09.93.28.66.28,1.48,1.16,2.52,2.02,1.65,1.37,3.22,2.18,2.43,3.14-.48.58-1.39.68-2.39.37.74,3.27.99,6.72.91,6.89-.23.48-1.03.47-1.33.57-.27.09.03.56-.68.76-.4.02-.81-.01-1.22-.1-.34-.19-.48-.47-.49-.61,0-.23-.79.16-1.31-.11-.02-.01-.04-.04-.06-.05-.45-.32-.32-1.12-.42-1.37-.08-.22-.82.23-1.55-.7-.77-1.23-1.34-2.82-1.51-4.84-.54-6.44,1.2-5.99,4.15-6.25Z"/>
          <path class="cls-14" d="M359.16,505.65c.33.03.61.2.86.43.6.39,1.26,1.4,2.14,2.43,1.38,1.63,2.79,2.71,1.85,3.51-.57.48-1.48.43-2.42-.04.16,3.35-.19,6.79-.29,6.94-.31.43-1.09.28-1.4.33-.28.04-.06.56-.8.63-.4-.05-.79-.15-1.18-.31-.3-.24-.39-.55-.37-.69.04-.22-.81.02-1.27-.33-.02-.02-.04-.04-.05-.06-.39-.4-.12-1.16-.17-1.42-.04-.23-.85.08-1.41-.95-.55-1.34-.83-3.01-.65-5.03.58-6.44,2.22-5.69,5.17-5.44Z"/>
          <path class="cls-15" d="M324.96,443.95c-8.8,3.53-14.29,6.88-11.4,24.41,0,0,7.8,1.71,13.62-1.26,0,0-1.66-16.82-4.91-19.34"/>
          <g>
            <path class="cls-17" d="M337.38,415.79c.1.22,8.2.6,4.46,9.36-1.07,2.51-9.21-5.26-8.26-5.55.95-.3,3.8-3.8,3.8-3.8Z"/>
            <g>
              <g>
                <path class="cls-14" d="M323.85,448.49c.18,1.72,5.94,7.33,9.08,7.01,3.13-.32,2.45-6.44,2.28-8.17-.18-1.72-2.86-2.86-6-2.54-3.13.32-5.53,1.98-5.36,3.7Z"/>
                <polygon class="cls-14" points="331.14 445.32 326.25 445.6 325.57 433.95 330.58 435.58 331.14 445.32"/>
                <path class="cls-17" d="M331.07,444.18l-.5-8.6-4.53-1.3c.74,3.22,2.52,7.8,5.03,9.9Z"/>
              </g>
              <path class="cls-14" d="M325.53,434.52s.45.78,1.22,1.88c2.13,3.04,6.56,6.36,10.94,4.61,5.97-2.38,5.9-17.29,3.4-20.02-5.78-6.32-18.46-1.38-15.56,13.52Z"/>
              <path class="cls-17" d="M322.75,431.57c2.67,1.1,3.54.89,3.86.52.74-.86-1.15-3.07-.29-4.15.67-.85,2.55.2,3.27-.7.49-.61-.21-1.31.02-2.09.66-2.26,7.55-.45,10.18-3.57,1.41-1.66,1.52-4.65.3-6.28-2.75-3.66-13.52-2.23-17.51,3.65-1.58,2.34-1.79,4.93-1.82,5.39-.24,3.6,1.36,6.28,2,7.23Z"/>
              <path class="cls-14" d="M326.6,432.09c.58,1.35.21,2.8-.81,3.23-1.02.44-2.32-.3-2.9-1.65-.58-1.35-.22-2.8.81-3.23s2.32.3,2.9,1.65Z"/>
            </g>
          </g>
          <path class="cls-10" d="M332.71,515.67l-11.46,2.16s-1.03,10.22,6.95,9.41c7.98-.81,4.51-11.57,4.51-11.57Z"/>
          <path class="cls-20" d="M324.63,517.19l7.79-1.5s1.19,3.89,1.41,4.6"/>
          <line class="cls-21" x1="273.71" y1="582.15" x2="275.16" y2="582.47"/>
          <line class="cls-21" x1="272.91" y1="583.69" x2="275.07" y2="584.17"/>
        </g>
      </g>
      <g>
        <path class="cls-1" d="M238.84,183.94c-9.03,0-16.35,7.32-16.35,16.35s16.35,28.97,16.35,28.97c0,0,16.35-19.94,16.35-28.97s-7.32-16.35-16.35-16.35ZM238.84,210.02c-5.37,0-9.73-4.36-9.73-9.73s4.37-9.73,9.73-9.73,9.73,4.36,9.73,9.73-4.37,9.73-9.73,9.73Z"/>
        <g>
          <path class="cls-25" d="M249.99,199.25c-.22-2.5-1.18-4.66-2.86-6.45-2.27-2.41-5.02-3.63-8.2-3.63-.47,0-.96.03-1.45.08-2.34.26-4.45,1.24-6.26,2.91-1.66,1.55-2.81,3.48-3.31,5.61-.49,2.09-.35,4.31.4,6.42.76,2.13,2.21,3.92,4.3,5.34,2.22,1.5,4.75,2.11,7.51,1.8,2.38-.26,4.48-1.21,6.26-2.83,2.36-2.16,3.59-4.94,3.65-8.26,0-.09,0-.18-.01-.28-.01-.22-.03-.46-.05-.71h0ZM238.79,209.35h-.05c-2.36,0-4.58-.92-6.23-2.58-1.74-1.74-2.69-4.09-2.69-6.6,0-2.36.93-4.59,2.65-6.29,1.71-1.7,3.97-2.64,6.35-2.65h.02c4.98,0,9.04,4.03,9.05,8.97.01,5.1-3.98,9.11-9.09,9.15h0Z"/>
          <circle class="cls-27" cx="238.85" cy="200.29" r="1.19"/>
        </g>
      </g>
      <g>
        <path class="cls-2" d="M138.88,68.04c-.59.45-1.43.34-1.88-.24-.45-.59-.34-1.43.24-1.88.59-.45,1.43-.34,1.88.24s.34,1.43-.24,1.88Z"/>
        <path class="cls-2" d="M142.26,72.43c-.59.45-1.43.34-1.88-.24-.45-.59-.34-1.43.24-1.88.59-.45,1.43-.34,1.88.24.45.59.34,1.43-.24,1.88Z"/>
        <path class="cls-2" d="M145.64,76.82c-.59.45-1.43.34-1.88-.24-.45-.59-.34-1.43.24-1.88.59-.45,1.43-.34,1.88.24.45.59.34,1.43-.24,1.88Z"/>
        <path class="cls-2" d="M149.02,81.21c-.59.45-1.43.34-1.88-.24-.45-.59-.34-1.43.24-1.88.59-.45,1.43-.34,1.88.24.45.59.34,1.43-.24,1.88Z"/>
        <path class="cls-2" d="M152.41,85.6c-.59.45-1.43.34-1.88-.24-.45-.59-.34-1.43.24-1.88.59-.45,1.43-.34,1.88.24.45.59.34,1.43-.24,1.88Z"/>
        <path class="cls-2" d="M155.79,89.99c-.59.45-1.43.34-1.88-.24-.45-.59-.34-1.43.24-1.88.59-.45,1.43-.34,1.88.24.45.59.34,1.43-.24,1.88Z"/>
        <path class="cls-2" d="M159.17,94.38c-.59.45-1.43.34-1.88-.24-.45-.59-.34-1.43.24-1.88.59-.45,1.43-.34,1.88.24.45.59.34,1.43-.24,1.88Z"/>
        <path class="cls-2" d="M162.55,98.77c-.59.45-1.43.34-1.88-.24s-.34-1.43.24-1.88c.59-.45,1.43-.34,1.88.24.45.59.34,1.43-.24,1.88Z"/>
        <path class="cls-2" d="M165.93,103.16c-.59.45-1.43.34-1.88-.24-.45-.59-.34-1.43.24-1.88s1.43-.34,1.88.24c.45.59.34,1.43-.24,1.88Z"/>
        <path class="cls-2" d="M169.31,107.55c-.59.45-1.43.34-1.88-.24-.45-.59-.34-1.43.24-1.88.59-.45,1.43-.34,1.88.24s.34,1.43-.24,1.88Z"/>
        <path class="cls-2" d="M172.69,111.94c-.59.45-1.43.34-1.88-.24-.45-.59-.34-1.43.24-1.88s1.43-.34,1.88.24c.45.59.34,1.43-.24,1.88Z"/>
        <path class="cls-2" d="M176.08,116.33c-.59.45-1.43.34-1.88-.24-.45-.59-.34-1.43.24-1.88.59-.45,1.43-.34,1.88.24s.34,1.43-.24,1.88Z"/>
        <path class="cls-2" d="M179.46,120.72c-.59.45-1.43.34-1.88-.24-.45-.59-.34-1.43.24-1.88s1.43-.34,1.88.24c.45.59.34,1.43-.24,1.88Z"/>
        <path class="cls-2" d="M182.84,125.12c-.59.45-1.43.34-1.88-.24-.45-.59-.34-1.43.24-1.88.59-.45,1.43-.34,1.88.24.45.59.34,1.43-.24,1.88Z"/>
        <path class="cls-2" d="M186.22,129.51c-.59.45-1.43.34-1.88-.24-.45-.59-.34-1.43.24-1.88s1.43-.34,1.88.24c.45.59.34,1.43-.24,1.88Z"/>
        <path class="cls-2" d="M189.6,133.9c-.59.45-1.43.34-1.88-.24-.45-.59-.34-1.43.24-1.88s1.43-.34,1.88.24c.45.59.34,1.43-.24,1.88Z"/>
        <path class="cls-2" d="M192.98,138.29c-.59.45-1.43.34-1.88-.24-.45-.59-.34-1.43.24-1.88.59-.45,1.43-.34,1.88.24.45.59.34,1.43-.24,1.88Z"/>
        <path class="cls-2" d="M196.37,142.68c-.59.45-1.43.34-1.88-.24-.45-.59-.34-1.43.24-1.88s1.43-.34,1.88.24c.45.59.34,1.43-.24,1.88Z"/>
        <path class="cls-2" d="M199.75,147.07c-.59.45-1.43.34-1.88-.24-.45-.59-.34-1.43.24-1.88.59-.45,1.43-.34,1.88.24.45.59.34,1.43-.24,1.88Z"/>
        <path class="cls-2" d="M203.13,151.46c-.59.45-1.43.34-1.88-.24s-.34-1.43.24-1.88,1.43-.34,1.88.24c.45.59.34,1.43-.24,1.88Z"/>
        <path class="cls-2" d="M206.51,155.85c-.59.45-1.43.34-1.88-.24-.45-.59-.34-1.43.24-1.88.59-.45,1.43-.34,1.88.24s.34,1.43-.24,1.88Z"/>
        <path class="cls-2" d="M209.89,160.24c-.59.45-1.43.34-1.88-.24-.45-.59-.34-1.43.24-1.88.59-.45,1.43-.34,1.88.24.45.59.34,1.43-.24,1.88Z"/>
        <path class="cls-2" d="M213.27,164.63c-.59.45-1.43.34-1.88-.24-.45-.59-.34-1.43.24-1.88s1.43-.34,1.88.24c.45.59.34,1.43-.24,1.88Z"/>
        <path class="cls-2" d="M216.66,169.02c-.59.45-1.43.34-1.88-.24-.45-.59-.34-1.43.24-1.88.59-.45,1.43-.34,1.88.24.45.59.34,1.43-.24,1.88Z"/>
        <path class="cls-2" d="M220.53,174.3c-.59.45-1.43.34-1.88-.24-.45-.59-.34-1.43.24-1.88.59-.45,1.43-.34,1.88.24.45.59.34,1.43-.24,1.88Z"/>
        <path class="cls-2" d="M224.41,179.58c-.59.45-1.43.34-1.88-.24-.45-.59-.34-1.43.24-1.88.59-.45,1.43-.34,1.88.24.45.59.34,1.43-.24,1.88Z"/>
        <path class="cls-2" d="M228.29,184.87c-.59.45-1.43.34-1.88-.24-.45-.59-.34-1.43.24-1.88.59-.45,1.43-.34,1.88.24.45.59.34,1.43-.24,1.88Z"/>
      </g>
      <g>
        <path class="cls-2" d="M198.25,261.18c.69.51,1.66.37,2.18-.31.51-.69.37-1.66-.31-2.18-.69-.51-1.66-.37-2.18.31-.51.69-.37,1.66.31,2.18Z"/>
        <path class="cls-2" d="M202.99,254.78c.69.51,1.66.37,2.18-.31.51-.69.37-1.66-.31-2.18s-1.66-.37-2.18.31-.37,1.66.31,2.18Z"/>
        <path class="cls-2" d="M207.73,248.37c.69.51,1.66.37,2.18-.31.51-.69.37-1.66-.31-2.18-.69-.51-1.66-.37-2.18.31-.51.69-.37,1.66.31,2.18Z"/>
        <path class="cls-2" d="M212.47,241.97c.69.51,1.66.37,2.18-.31.51-.69.37-1.66-.31-2.18-.69-.51-1.66-.37-2.18.31-.51.69-.37,1.66.31,2.18Z"/>
        <path class="cls-2" d="M217.21,235.57c.69.51,1.66.37,2.18-.31.51-.69.37-1.66-.31-2.18-.69-.51-1.66-.37-2.18.31-.51.69-.37,1.66.31,2.18Z"/>
        <path class="cls-2" d="M221.95,229.17c.69.51,1.66.37,2.18-.31.51-.69.37-1.66-.31-2.18-.69-.51-1.66-.37-2.18.31-.51.69-.37,1.66.31,2.18Z"/>
        <path class="cls-2" d="M225.98,223.29c.69.51,1.66.37,2.18-.31.51-.69.37-1.66-.31-2.18s-1.66-.37-2.18.31c-.51.69-.37,1.66.31,2.18Z"/>
        <path class="cls-2" d="M194.4,266.32c.69.51,1.66.37,2.18-.31.51-.69.37-1.66-.31-2.18-.69-.51-1.66-.37-2.18.31-.51.69-.37,1.66.31,2.18Z"/>
        <path class="cls-2" d="M190.56,271.46c.69.51,1.66.37,2.18-.31.51-.69.37-1.66-.31-2.18-.69-.51-1.66-.37-2.18.31-.51.69-.37,1.66.31,2.18Z"/>
        <path class="cls-2" d="M186.71,276.61c.69.51,1.66.37,2.18-.31.51-.69.37-1.66-.31-2.18s-1.66-.37-2.18.31c-.51.69-.37,1.66.31,2.18Z"/>
        <path class="cls-2" d="M182.86,281.75c.69.51,1.66.37,2.18-.31.51-.69.37-1.66-.31-2.18-.69-.51-1.66-.37-2.18.31-.51.69-.37,1.66.31,2.18Z"/>
        <path class="cls-2" d="M179.01,286.89c.69.51,1.66.37,2.18-.31.51-.69.37-1.66-.31-2.18s-1.66-.37-2.18.31c-.51.69-.37,1.66.31,2.18Z"/>
        <path class="cls-2" d="M175.17,292.03c.69.51,1.66.37,2.18-.31.51-.69.37-1.66-.31-2.18-.69-.51-1.66-.37-2.18.31-.51.69-.37,1.66.31,2.18Z"/>
        <path class="cls-2" d="M171.32,297.18c.69.51,1.66.37,2.18-.31.51-.69.37-1.66-.31-2.18-.69-.51-1.66-.37-2.18.31-.51.69-.37,1.66.31,2.18Z"/>
        <path class="cls-2" d="M167.47,302.32c.69.51,1.66.37,2.18-.31.51-.69.37-1.66-.31-2.18-.69-.51-1.66-.37-2.18.31-.51.69-.37,1.66.31,2.18Z"/>
        <path class="cls-2" d="M163.63,307.46c.69.51,1.66.37,2.18-.31.51-.69.37-1.66-.31-2.18-.69-.51-1.66-.37-2.18.31-.51.69-.37,1.66.31,2.18Z"/>
        <path class="cls-2" d="M159.78,312.6c.69.51,1.66.37,2.18-.31.51-.69.37-1.66-.31-2.18-.69-.51-1.66-.37-2.18.31-.51.69-.37,1.66.31,2.18Z"/>
      </g>
      <g>
        <path class="cls-2" d="M212.03,404.45c-.74.74-.74,1.95,0,2.7.74.74,1.95.74,2.7,0,.74-.74.74-1.95,0-2.7-.74-.74-1.95-.74-2.7,0Z"/>
        <path class="cls-2" d="M218.96,411.32c-.74.74-.74,1.95,0,2.7.74.74,1.95.74,2.7,0s.74-1.95,0-2.7-1.95-.74-2.7,0Z"/>
        <path class="cls-2" d="M225.9,418.19c-.74.74-.74,1.95,0,2.7.74.74,1.95.74,2.7,0,.74-.74.74-1.95,0-2.7-.74-.74-1.95-.74-2.7,0Z"/>
        <path class="cls-2" d="M232.83,425.05c-.74.74-.74,1.95,0,2.7.74.74,1.95.74,2.7,0,.74-.74.74-1.95,0-2.7-.74-.74-1.95-.74-2.7,0Z"/>
        <path class="cls-2" d="M239.77,431.92c-.74.74-.74,1.95,0,2.7.74.74,1.95.74,2.7,0,.74-.74.74-1.95,0-2.7-.74-.74-1.95-.74-2.7,0Z"/>
        <path class="cls-2" d="M246.7,438.78c-.74.74-.74,1.95,0,2.7.74.74,1.95.74,2.7,0,.74-.74.74-1.95,0-2.7-.74-.74-1.95-.74-2.7,0Z"/>
        <path class="cls-2" d="M253.12,444.7c-.74.74-.74,1.95,0,2.7.74.74,1.95.74,2.7,0s.74-1.95,0-2.7c-.74-.74-1.95-.74-2.7,0Z"/>
        <path class="cls-2" d="M206.46,398.89c-.74.74-.74,1.95,0,2.7.74.74,1.95.74,2.7,0,.74-.74.74-1.95,0-2.7-.74-.74-1.95-.74-2.7,0Z"/>
        <path class="cls-2" d="M200.9,393.33c-.74.74-.74,1.95,0,2.7.74.74,1.95.74,2.7,0,.74-.74.74-1.95,0-2.7-.74-.74-1.95-.74-2.7,0Z"/>
        <path class="cls-2" d="M195.33,387.76c-.74.74-.74,1.95,0,2.7.74.74,1.95.74,2.7,0s.74-1.95,0-2.7c-.74-.74-1.95-.74-2.7,0Z"/>
        <path class="cls-2" d="M189.77,382.2c-.74.74-.74,1.95,0,2.7.74.74,1.95.74,2.7,0,.74-.74.74-1.95,0-2.7-.74-.74-1.95-.74-2.7,0Z"/>
        <path class="cls-2" d="M184.21,376.63c-.74.74-.74,1.95,0,2.7.74.74,1.95.74,2.7,0s.74-1.95,0-2.7c-.74-.74-1.95-.74-2.7,0Z"/>
        <path class="cls-2" d="M178.64,371.07c-.74.74-.74,1.95,0,2.7.74.74,1.95.74,2.7,0,.74-.74.74-1.95,0-2.7-.74-.74-1.95-.74-2.7,0Z"/>
        <path class="cls-2" d="M173.08,365.51c-.74.74-.74,1.95,0,2.7.74.74,1.95.74,2.7,0,.74-.74.74-1.95,0-2.7-.74-.74-1.95-.74-2.7,0Z"/>
        <path class="cls-2" d="M167.52,359.94c-.74.74-.74,1.95,0,2.7.74.74,1.95.74,2.7,0,.74-.74.74-1.95,0-2.7-.74-.74-1.95-.74-2.7,0Z"/>
        <path class="cls-2" d="M161.95,354.38c-.74.74-.74,1.95,0,2.7.74.74,1.95.74,2.7,0,.74-.74.74-1.95,0-2.7-.74-.74-1.95-.74-2.7,0Z"/>
        <path class="cls-2" d="M156.39,348.82c-.74.74-.74,1.95,0,2.7.74.74,1.95.74,2.7,0,.74-.74.74-1.95,0-2.7-.74-.74-1.95-.74-2.7,0Z"/>
      </g>
      <g>
        <path class="cls-1" d="M275.07,440.32c-10.94,0-19.81,8.87-19.81,19.81s19.81,35.11,19.81,35.11c0,0,19.81-24.16,19.81-35.11s-8.87-19.81-19.81-19.81ZM275.07,471.92c-6.5,0-11.79-5.29-11.79-11.79s5.29-11.79,11.79-11.79,11.79,5.29,11.79,11.79-5.29,11.79-11.79,11.79Z"/>
        <g>
          <path class="cls-25" d="M288.58,458.88c-.26-3.02-1.43-5.65-3.46-7.82-2.74-2.92-6.08-4.4-9.93-4.4-.57,0-1.16.03-1.75.1-2.84.31-5.39,1.5-7.59,3.53-2.02,1.87-3.4,4.22-4.01,6.79-.59,2.53-.43,5.22.49,7.78.92,2.58,2.67,4.75,5.21,6.47,2.69,1.82,5.75,2.55,9.11,2.19,2.88-.31,5.43-1.47,7.59-3.43,2.87-2.62,4.35-5.99,4.42-10.01,0-.1,0-.22-.02-.34-.02-.26-.03-.56-.06-.86h0ZM275,471.11h-.06c-2.87,0-5.55-1.11-7.55-3.12-2.1-2.11-3.27-4.95-3.26-8,0-2.86,1.13-5.56,3.21-7.63,2.07-2.06,4.81-3.2,7.69-3.21h.02c6.03,0,10.95,4.88,10.97,10.87.02,6.18-4.82,11.04-11.02,11.08h0Z"/>
          <circle class="cls-27" cx="275.07" cy="460.14" r="1.44"/>
        </g>
      </g>
      <g>
        <path class="cls-1" d="M146.13,311.81c-10.05,0-18.2,8.15-18.2,18.2s18.2,32.24,18.2,32.24c0,0,18.2-22.19,18.2-32.24s-8.15-18.2-18.2-18.2ZM146.13,340.83c-5.97,0-10.83-4.86-10.83-10.83s4.86-10.83,10.83-10.83,10.83,4.86,10.83,10.83-4.86,10.83-10.83,10.83Z"/>
        <g>
          <path class="cls-25" d="M158.54,328.85c-.24-2.78-1.32-5.19-3.18-7.18-2.52-2.68-5.58-4.04-9.12-4.04-.52,0-1.07.03-1.61.09-2.61.29-4.95,1.37-6.97,3.24-1.85,1.72-3.12,3.87-3.68,6.24-.54,2.32-.39,4.79.45,7.14.85,2.37,2.45,4.37,4.79,5.95,2.47,1.67,5.28,2.34,8.36,2.01,2.64-.29,4.99-1.35,6.97-3.15,2.63-2.4,4-5.5,4.06-9.19,0-.1,0-.2-.02-.31-.02-.24-.03-.51-.05-.79h0ZM146.07,340.08h-.06c-2.63,0-5.09-1.02-6.94-2.87-1.93-1.94-3-4.55-2.99-7.35,0-2.62,1.04-5.11,2.95-7,1.9-1.9,4.42-2.94,7.06-2.95h.02c5.54,0,10.06,4.48,10.08,9.99.02,5.67-4.43,10.14-10.12,10.18h0Z"/>
          <circle class="cls-27" cx="146.13" cy="330.01" r="1.32"/>
        </g>
      </g>
    </g>
  </g>
</svg>