<?xml version="1.0" encoding="UTF-8"?>
<svg id="Laag_2" data-name="Laag 2" xmlns="http://www.w3.org/2000/svg" viewBox="0 0 40.95 71.14">
  <defs>
    <style>
      .cls-1 {
        fill: #fafaf1;
      }

      .cls-2 {
        fill: #154273;
      }
    </style>
  </defs>
  <g id="Layer_1" data-name="Layer 1">
    <g>
      <rect class="cls-2" width="40.95" height="71.14"/>
      <path class="cls-1" d="M20.76,56.92h-.65v-1.79h.65v1.79ZM23.68,49.02h-.65v-1.79h.65v1.79ZM11.71,45.93s-.38,0-.38.07.16.03.38.07c.52.09.72.35,1.08.35.33,0,.67-.22.54-.7-.02-.08-.07-.06-.08,0-.05.21-.31.33-.59.33-.34,0-.41-.12-.95-.12ZM8.15,47.72c.06.08.67.87-.27,1.17-.04.01-.06.05,0,.08.69.29,1.03-.24,1.03-.24.35.79-.19,1.24-.19,1.24.08.14.41.38.91.5.19-.1.46-.3.57-.6,0,0,.14.35.01.68,1.41.13,1.91-1,3-.8.03,0,.05-.02.05-.05,0-.7-.43-1.97-1.78-2.23-1.34-.26-.98-.81-.98-.81.57-.02.89.22.89.22.1-.17-.04-.35-.04-.35.05-.06.09-.3.09-.3-.64,0-.81-.14-.81-.14-.1-.38.17-.91,1.11-.34.24-.21.22-.53.22-.53.07-.03.11-.15.11-.19,0-.16-.76-.58-.95-.63-.05-.23-.34-.56-1.23-.44-.42.05-.72-.06-.58-.3.02-.04-.05-.05-.09,0-.1.1-.23.37.14.56.41.21.43.62.44.68,0,.09-.1.1-.12,0-.19-.69-1.13-.84-1.69-.47.03.37.43.62.65.62.13,0,.3-.12.3-.3,0-.09.04-.07.07,0,.09.25-.27.76-.81.44-.55.55-.33,1.23-.28,1.48.1.45-.12.88-.53.68-.02,0-.04-.02-.04.03,0,.28.37.6.8.36ZM11.18,44.94c-.26.29-.68.22-.78-.25.53-.03.75.03.78.25ZM27.57,46.05c-.28,0-.54-.12-.59-.33-.01-.05-.06-.07-.08,0-.13.48.2.7.54.7.36,0,.57-.26,1.08-.35.23-.04.38,0,.38-.07s-.33-.07-.38-.07c-.54,0-.61.12-.95.12ZM32.89,47.36s-.02-.04-.04-.03c-.41.2-.62-.23-.53-.68.05-.25.27-.93-.27-1.48-.54.31-.91-.2-.81-.44.02-.07.07-.08.07,0,0,.17.18.3.3.3.22,0,.62-.25.65-.62-.56-.37-1.5-.22-1.69.47-.02.09-.13.08-.12,0,0-.06.03-.47.44-.68.37-.19.23-.46.14-.56-.04-.04-.12-.03-.09,0,.14.25-.16.36-.58.3-.89-.12-1.18.21-1.23.44-.19.05-.95.47-.95.63,0,.05.05.16.12.19,0,0-.02.32.22.53.95-.57,1.21-.04,1.11.34,0,0-.17.14-.81.14,0,0,.03.23.09.3,0,0-.15.18-.04.35,0,0,.33-.25.9-.22,0,0,.36.55-.98.81-1.35.26-1.78,1.53-1.78,2.23,0,.03.02.05.05.05,1.09-.2,1.59.93,3,.8-.12-.33.01-.68.01-.68.11.3.38.5.57.6.5-.11.83-.35.91-.5,0,0-.53-.44-.19-1.24,0,0,.33.53,1.03.24.06-.03.05-.07,0-.08-.94-.3-.33-1.09-.27-1.17.43.24.8-.08.8-.36ZM29.83,44.69c-.1.47-.52.54-.78.25.02-.23.25-.28.78-.25ZM19.87,36.75c0,.12.05.22.09.28.08.12.07.18.03.22-.04.04-.1.05-.22-.03-.06-.04-.16-.09-.28-.09-.21,0-.31.13-.31.25s.1.25.31.25c.12,0,.22-.05.28-.09.12-.08.18-.07.22-.03.04.04-.02.45-.06.77-.34.07-.5.34-.5.5,0,.4.43.64.69.78.26-.14.69-.37.69-.78,0-.16-.16-.43-.5-.5-.05-.32-.1-.73-.06-.77.04-.04.11-.05.22.03.06.04.16.09.28.09.2,0,.3-.13.3-.25s-.1-.25-.3-.25c-.12,0-.23.05-.28.09-.12.08-.19.07-.22.03-.04-.04-.05-.1.03-.22.04-.06.09-.16.09-.28,0-.2-.13-.31-.25-.31-.12,0-.25.1-.25.31ZM20.12,39.77c-.27,0-.49.22-.49.49s.22.49.49.49.49-.22.49-.49-.22-.49-.49-.49ZM20.12,44.53c1.98,0,3.1.38,3.1.38,0-1,0-1.56.58-1.48-.31-.84,1.04-1.17,1.04-2.27,0-.72-.51-.81-.66-.81-.45,0-.38.29-.76.29-.05,0-.1-.01-.1.02,0,.13.11.34.28.34.23,0,.24-.23.41-.23.07,0,.18.06.18.3,0,.47-.31.98-.67,1.38-.08-.12-.19-.19-.33-.19-.21,0-.4.22-.4.5,0,.1.02.17.05.26-.12.07-.23.11-.31.11-.16,0-.41-.07-.41-.42,0-.79,1.07-1.5,1.07-2.5,0-.48-.32-.96-.99-.96-.72,0-.59.66-1.21.66-.03,0-.05,0-.05.03,0,.04.11.4.43.4.34,0,.44-.6.75-.6.12,0,.29.07.29.47,0,.31-.16.82-.38,1.31-.08-.08-.19-.14-.31-.14-.27,0-.46.26-.46.57,0,.19.08.38.21.51-.16.2-.32.37-.54.37-.43,0-.62-.24-.62-.51,0-.29.53-.39.53-.84,0-.3-.2-.48-.39-.48-.21,0-.31.14-.33.14-.02,0-.13-.14-.33-.14-.19,0-.39.17-.39.48,0,.45.53.55.53.84,0,.26-.19.51-.62.51-.22,0-.38-.16-.54-.37.13-.12.21-.31.21-.51,0-.31-.19-.57-.46-.57-.12,0-.23.06-.32.14-.22-.48-.38-.99-.38-1.31,0-.4.17-.47.29-.47.3,0,.4.6.75.6.32,0,.43-.36.43-.4,0-.03-.02-.03-.05-.03-.62,0-.49-.66-1.21-.66-.67,0-.99.48-.99.96,0,1.01,1.07,1.71,1.07,2.5,0,.36-.25.42-.41.42-.08,0-.19-.04-.31-.11.04-.09.05-.16.05-.26,0-.27-.19-.5-.4-.5-.13,0-.25.07-.33.19-.36-.4-.67-.92-.67-1.38,0-.24.11-.3.18-.3.17,0,.18.23.41.23.17,0,.28-.21.28-.34,0-.03-.05-.02-.1-.02-.38,0-.31-.29-.76-.29-.15,0-.66.08-.66.81,0,1.1,1.35,1.43,1.04,2.27.57-.08.57.47.58,1.48,0,0,1.12-.38,3.1-.38ZM16.48,46.01c-.54.12-.93.23-1.1.28,0-.24.1-.46.31-.51.03,0,.03-.04,0-.06-.48-.32-.74.29-.75.31-.17-.01-.43.04-.43.27,0,.69-1.58,1.07-1.94,1.13.64.25.91,1.06.91,1.06.47-.47,1.01-.88,1.13-.88s.17.16.18.25c0,.03.03.04.05.02.24-.36.13-.45.11-.55-.02-.09,0-.4.37-.37v4.6l-.18.04c-.08.02-.76-.56-1.53-1.09-.77-.53-1.18-.21-2.06.26-1.15.62-2.31.06-2.31.06-.99.71-1.33,2.75-1.33,2.75-.2.08-.52.17-.83.17-.76,0-.89-.46-.89-.73,0-1.17,1.46-1.67,1.46-2.82,0-.28-.13-1.41-1.53-1.41-.18,0-1.25,0-1.26,0-.53,0-.66-.38-.73-.52-.03-.06-.08-.03-.06.02.04.1-.06.24-.06.53,0,.47.28.75.78.75.23,0,.45-.07.52-.11.05-.03.07.02.05.04-.22.26-.24.75-.15.87.02.03.05.02.05,0,.12-.49.58-.96,1.21-.96.76,0,.76.65.76.8,0,.94-1.64,1.62-1.64,2.91s1.38,1.59,2.18,1.38c-.05,1.31-1.54,1.75-1.59.82,0-.04-.04-.05-.06,0-.19.46-.11.87.47,1,.04.01.02.03-.02.05-.58.37-.26,1.81-.23,2.23.04.61-.56.54-.61.52-.03-.01-.05,0-.01.05.43.53.96.05.96.05.4.13.15.47-.11.65-.04.03-.04.05,0,.06.06,0,.68.06.79-.44.28.33.68.21.77.17.12-.06.7-.27.76.38,0,.05.03.02.05,0,.44-.55-.03-.9-.29-.93.02-.03.37-.32.69.08.02.03.04.03.05-.02.04-.7-.54-.77-.91-.46-.02-.07-.14-.47.42-.45.01,0,.04-.02.01-.05-.43-.46-.79-.04-.87.06-.19.23-.67.14-.72.13.15-2.44,2.3-1.58,2.6-2.76.01-.06.04-.04.05-.02.08.29.81.33.95-.24,0-.04,0-.06-.02-.04-.62.62-2.03-1.32-.11-2.9,1.63-1.35,3.1-.6,3.66-.15.03.19-.09.26-.16.28-.03,0-.04.03,0,.05.16.06.37.04.48-.11.35.25.05.55-.09.64-.04.02-.02.05.01.05.32.06.59-.27.6-.46l.05.03v1.39c0,1.98,2.28,2.25,4.78,3.92,2.5-1.67,4.78-1.95,4.78-3.92v-1.39l.05-.03c.01.19.28.52.6.46.03,0,.05-.03.01-.05-.14-.09-.44-.39-.09-.64.1.15.32.16.48.11.04-.02.03-.04,0-.05-.08-.02-.19-.09-.16-.28.56-.44,2.02-1.19,3.66.15,1.92,1.58.51,3.52-.11,2.9-.03-.03-.03,0-.02.04.13.57.86.53.94.24,0-.02.03-.05.05.02.3,1.19,2.45.32,2.6,2.76-.05,0-.53.1-.72-.13-.08-.1-.44-.52-.87-.06-.03.03,0,.05.01.05.56-.02.44.38.42.45-.37-.31-.94-.24-.9.46,0,.05.02.05.05.02.32-.4.67-.11.69-.08-.26.04-.73.38-.29.93.02.02.05.05.05,0,.06-.66.64-.44.76-.38.09.04.49.16.76-.17.11.5.73.44.79.44.04,0,.05-.03,0-.06-.27-.18-.52-.52-.12-.65,0,0,.53.48.96-.05.04-.05.01-.06-.01-.05-.05.02-.66.09-.62-.52.03-.42.34-1.86-.23-2.23-.04-.02-.06-.04-.02-.05.58-.13.65-.53.47-1-.02-.06-.06-.05-.06,0-.05.93-1.54.49-1.59-.82.8.21,2.18-.07,2.18-1.38s-1.64-1.97-1.64-2.91c0-.16,0-.8.76-.8.62,0,1.08.47,1.21.96,0,.02.03.03.05,0,.09-.12.07-.61-.15-.86-.02-.03,0-.07.05-.04.07.04.29.11.52.11.51,0,.79-.28.79-.75,0-.29-.1-.44-.06-.53.02-.05-.03-.08-.06-.02-.07.14-.2.52-.73.52,0,0-1.08,0-1.25,0-1.4,0-1.53,1.13-1.53,1.41,0,1.15,1.46,1.65,1.46,2.82,0,.27-.14.73-.9.73-.31,0-.64-.09-.83-.17,0,0-.34-2.05-1.33-2.75,0,0-1.16.56-2.31-.06-.88-.47-1.29-.79-2.06-.26-.77.53-1.44,1.1-1.53,1.09l-.18-.04v-4.6c.36-.04.38.28.37.37-.02.11-.14.19.11.55.02.03.05.02.05-.02.01-.09.06-.25.18-.25s.67.41,1.13.88c0,0,.27-.81.91-1.06-.37-.05-1.94-.44-1.94-1.13,0-.23-.26-.28-.43-.27,0-.02-.26-.63-.75-.31-.02.02-.02.05.01.06.21.05.3.27.31.51-.46-.14-2.42-.69-4.73-.69-1.13,0-2.16.13-2.99.28v1.59h-.65v-1.46h0M12.21,62.33c-.17-.07-.29-.18-.29-.4v-.99c-.28-.1-1.06-.39-2.6-.39-1.29,0-1.69.29-1.71.39l-.34,1.88s.52-.48,2.38-.35c2.24.14,4.57,1.47,4.57.05v-.83c-1.76,0-2.02.56-2.02.64ZM26.01,61.69v.83c0,1.41,2.33.09,4.57-.05,1.86-.12,2.38.35,2.38.35l-.34-1.88c-.02-.1-.42-.39-1.71-.39-1.55,0-2.32.29-2.6.39v.99c0,.23-.11.34-.29.4,0-.09-.26-.64-2.02-.64ZM20.12,60.83c3.61,0,7.28.19,7.76.73.04.04.05,0,.05-.03v-1.92c0-.56-3.78-.88-7.82-.88s-7.82.33-7.82.88v1.92s.02.08.05.03c.48-.54,4.15-.73,7.76-.73ZM16.9,51.8l-.37-.09-.03.04-.42-.19s.31,0,.38,0c.04,0,.04-.02.02-.04-.17-.17-.33-.32-.33-.32,0,0,.17.06.42.16.03.01.04-.01.02-.03-.12-.17-.28-.41-.28-.41,0,0,.34.23.41.27.02.02.04,0,.03-.02-.09-.23-.2-.48-.2-.48l.37.35s.04,0,.03-.02c-.04-.17-.1-.48-.1-.48l.27.4s.04.02.04-.01c0-.08,0-.44,0-.44,0,0,.11.26.17.4.01.03.03.03.05,0,.02-.04.14-.34.14-.34l.02.46h-.06s-.08.56-.08.56c.55-.13,1.23-1.06,1.75-1.06.62,0,.85.73,1.99.36.29.43.39.8.5,1.32.44.42,1.07.28,1.07-.16,0-.6-.65-.71-.65-1.33,0-.28.19-.67.72-.67.28,0,.69.12.93.12.28,0,.34-.2.37-.29.03-.06.1-.04.09,0,0,.06.03.14.03.27,0,.39-.57.44-.64.39-.03-.02-.05.01-.03.03.09.07.07.3-.04.45-.01.02-.03.02-.03,0-.06-.28-.39-.63-.68-.63-.11,0-.32.06-.32.31,0,.35.7.67.7,1.41s-.75.94-1.51.75c.02.72,1.1,1.15,1.13.63,0-.04.02-.02.03,0,.16.22.09.39-.12.47.19.09.22.46.27.69.08.34.44.15.46.14.02-.01.02,0,.02.02-.14.35-.5.22-.5.22-.19.13.04.25.21.3.03,0,.03.02,0,.03-.13.05-.4.13-.53-.09-.1.23-.3.23-.37.23-.14,0-.23.14-.2.33,0,.02-.01.02-.02.01-.33-.22-.14-.47,0-.54-.02-.01-.25-.11-.35.16,0,.02-.02.02-.03,0-.14-.38.17-.5.4-.4-.02-.05-.14-.24-.43-.18-.02,0-.02,0-.02-.02.05-.12.2-.29.47-.12.14.09.37-.04.4-.05-.48-.96-1.41-.16-1.62-.9,0-.02-.02-.03-.04.01-.05.16-.46.17-.53-.14,0-.02,0-.03.02-.01.06.06.19.11.35-.13.11-.16.13-.37.13-.52,0-.58-.58-1.56-1.49-1.56-.57,0-1.19.22-1.64.56l.42.1c-.04.43-.45.68-.83.58l.06-.49c-.06.02-.23.08-.32.21,0,.01-.02,0-.02,0-.08-.28.15-.42.23-.45,0,0,0-.01,0-.01-.2,0-.32.14-.36.2,0,0-.01,0-.02,0-.02-.06-.05-.2.04-.3ZM18.16,55.13c-.16.2-.31,0-.52,0-.2,0-.23.17-.24.23,0,.01,0,.02-.02,0-.23-.31.03-.48.17-.5-.02-.02-.24-.17-.39.03-.01.02-.02,0-.02-.01,0-.39.3-.41.5-.24.04-.15-.06-.25-.22-.25-.02,0-.02-.01-.02-.02.07-.07.14-.11.2-.11.21,0,.24.27.38.27.21,0,.51-.28.54-.31,0-.02-.21-.56-.17-.89,0-.01,0-.02-.02-.01-.1.06-.36.05-.36-.26,0-.02,0-.03.02,0,.11.16.3-.02.39-.12.1-.11.63-.88,1.34-.88.16,0,.36.09.52.2-.24.3,0,.58.18.54.02,0,.03.02,0,.02-.94.35-1.35.49-1.35,1.28,0,.41.14.64.38.58.02,0,.02,0,0,.02-.09.1-.19.14-.27.14-.2,0-.23-.11-.34-.11s-.45.2-.45.37c0,.07.04.15.16.23,0,0,0,.01,0,.01-.08.02-.36.04-.42-.22ZM20.62,47.51c-.29-.02-.48.05-.47.14.15.15.33.13.47-.14ZM19.54,48.24c.2-.05.43-.03.46-.02.03.01.03.06,0,.07-.43.05-.45.25-.73.25-.18,0-.38-.18-.3-.45,0-.03.04-.04.05,0,.03.11.2.24.53.15ZM13.95,57.79c.28.37.56.02.93.02.18,0,.41.06.45.43,0,.02.02.02.04,0,.41-.56-.06-.87-.32-.91.06-.05.46-.3.71.06.01.02.04.01.04-.02,0-.7-.53-.75-.91-.45-.07-.28.14-.46.4-.46.03,0,.04-.02.03-.04-.47-.51-.83.13-.91.23-.19.25-.87-.22-1.13-.5,0,0,.59-.63.59-1.19,0-.03,0-.08,0-.1,0-.02,0-.02.03-.02.06.03.14.06.22.06.14,0,.39-.04.39-.53,0-.04-.02-.03-.03-.01-.07.1-.15.13-.21.13-.48,0-1.49-1.61-2.67-1.61-.31,0-.89.22-1.19.54.14.09.17.26.16.39-.02.2-.18.3-.35.35-.03,0-.03.03,0,.04.6.23,1.69.64,1.93.85.29.25.23.73.07,1.39-.16.63-.51.55-.64.53-.02,0-.03,0-.01.02.15.19.34.26.5.26.31,0,.43-.19.59-.19.27,0,.84.39.84.68,0,.17-.13.32-.3.42-.01,0-.01.02,0,.02.13.03.66.07.76-.41ZM27.05,58.2s.02-.02,0-.02c-.17-.11-.3-.26-.3-.42,0-.29.57-.68.84-.68.16,0,.27.19.59.19.16,0,.35-.07.51-.26.01-.02,0-.03-.02-.02-.13.02-.48.11-.64-.53-.17-.66-.23-1.14.06-1.39.25-.21,1.34-.63,1.94-.85.03-.01.03-.03,0-.04-.16-.05-.33-.15-.35-.35-.01-.13.01-.3.16-.39-.3-.32-.88-.54-1.19-.54-1.19,0-2.19,1.61-2.67,1.61-.06,0-.14-.02-.21-.12-.02-.02-.03-.02-.03.01,0,.48.26.53.39.53.08,0,.16-.02.22-.05.02-.01.02,0,.02.02s0,.07,0,.1c0,.57.6,1.2.6,1.2-.27.28-.95.75-1.13.5-.08-.1-.43-.74-.9-.23-.02.02,0,.04.03.04.26,0,.47.18.4.46-.38-.31-.91-.26-.91.45,0,.03.03.03.04.02.25-.36.65-.12.71-.07-.27.04-.73.35-.32.91.02.02.03.02.04,0,.04-.37.26-.43.45-.43.37,0,.65.34.93-.02.1.47.64.43.77.4ZM17.46,48.93c-.04.05-.16,0-.21-.02-.01,0-.01,0-.01,0,.03.07.15.27.33.27.08,0,.2-.05.23-.1,0,0,.7.23,1.04.32-.13.18-.22.39-.23.63-.28-.17-1.39-.77-1.39-.77l-.35.47c-.06.08-.33-.12-.28-.2l.26-.36c-.09-.09-.3-.03-.35-.02,0,0-.02,0,0-.02.03-.07.17-.29.49-.19,0-.2-.3-.14-.37-.11-.01,0-.01,0,0-.01.08-.09.32-.28.59-.12l.12-.16-.24-.25.15-.2.17.23,1.29-1.76s.29-.12.38-.14c.01.1.02.36-.01.4l-1.26,1.78.27.09-.15.21-.32-.15-.14.19ZM21.96,48.64c0,.16.1.4.32.33.01,0,.02,0,.02,0-.03.18-.35.34-.5.13-.13.27-.1.53.18.68.02,0,.02.03,0,.04-.17.12-.43.09-.55-.14-.23.17-.2.54-.06.67,0,0-.64.38-1.22.11-.38-.18-.7-.42-1.19-.38.07-.69.42-.88,1.05-.98.51-.08.58-.32.5-.49-.17-.05-.49.11-.49.11-.06-.1.03-.19.03-.19-.03-.04-.05-.17-.05-.17.36,0,.42-.08.42-.08.07-.37-.31-.41-.6-.21-.13-.12-.11-.28-.11-.28-.04-.02-.07-.08-.07-.11,0-.09.42-.33.53-.35.03-.12.18-.3.63-.25.05-.12-.03-.55-.09-.67-.02-.04,0-.05.05-.03.16.1.31.47.42.47,0,0,.51-.26.53-.25.02.02.09.58.09.58.07.08.46,0,.63.08.04.02.04.05,0,.05-.13.02-.53.2-.6.31.23.34.12.86.12,1Z"/>
    </g>
  </g>
</svg>