<?xml version="1.0" encoding="UTF-8"?>
<svg id="Laag_2" data-name="Laag 2" xmlns="http://www.w3.org/2000/svg" viewBox="0 0 237.97 81.1">
  <defs>
    <style>
      .cls-1 {
        font-family: PTSerif-Regular, 'PT Serif';
      }

      .cls-1, .cls-2, .cls-3 {
        font-size: 10px;
      }

      .cls-2 {
        font-family: Arial-BoldMT, Arial;
        font-weight: 700;
      }

      .cls-4 {
        fill: #fff;
      }

      .cls-5 {
        fill: #154273;
      }

      .cls-6 {
        letter-spacing: -.05em;
      }

      .cls-7 {
        letter-spacing: -.03em;
      }

      .cls-3 {
        font-family: PTSerif-Italic, 'PT Serif';
        font-style: italic;
      }
    </style>
  </defs>
  <g id="Laag_2-2" data-name="Laag 2">
    <g>
      <rect class="cls-5" width="44" height="81.1"/>
      <path class="cls-4" d="M22.87,58.34h-.76v-2.12h.76v2.12ZM26.32,48.99h-.76v-2.12h.76v2.12ZM12.16,45.33c-.06,0-.45,0-.45.08s.18.04.45.08c.61.1.85.41,1.28.41.39,0,.79-.27.64-.83-.03-.09-.08-.07-.09,0-.06.25-.37.4-.7.4-.4,0-.49-.14-1.13-.14ZM7.95,47.45c.07.09.79,1.03-.32,1.39-.05.02-.07.06,0,.1.82.34,1.22-.29,1.22-.29.41.94-.22,1.47-.22,1.47.09.17.48.46,1.08.59.22-.12.54-.35.67-.71,0,0,.16.41.01.81,1.67.15,2.26-1.19,3.55-.94.04,0,.06-.02.06-.06,0-.82-.51-2.33-2.1-2.64-1.59-.31-1.16-.96-1.16-.96.67-.03,1.06.26,1.06.26.12-.2-.05-.42-.05-.42.06-.08.1-.35.1-.35-.76,0-.95-.16-.95-.16-.12-.45.2-1.08,1.32-.4.28-.25.26-.63.26-.63.08-.04.14-.17.14-.23,0-.19-.9-.69-1.13-.75-.06-.27-.4-.66-1.46-.52-.5.06-.86-.07-.69-.36.03-.05-.06-.06-.11,0-.11.12-.27.44.16.66.48.24.51.73.52.8,0,.1-.12.11-.14,0-.22-.82-1.34-1-2-.56.04.44.51.73.77.73.15,0,.35-.15.35-.35,0-.1.05-.09.08,0,.11.29-.32.9-.96.53-.65.65-.39,1.46-.33,1.75.12.53-.14,1.05-.62.81-.03,0-.05-.02-.05.04,0,.34.44.71.95.43v-.04ZM11.54,44.16c-.31.34-.8.26-.92-.3.62-.03.89.03.92.3ZM30.93,45.47c-.33,0-.64-.15-.69-.4-.02-.06-.07-.09-.09,0-.16.56.24.83.63.83.43,0,.67-.31,1.28-.41.27-.04.45,0,.45-.08s-.4-.08-.45-.08c-.64,0-.73.14-1.13.14ZM37.22,47.03c0-.06-.02-.05-.05-.04-.48.24-.74-.27-.62-.81.06-.3.32-1.1-.33-1.75-.64.37-1.07-.24-.96-.53.03-.08.08-.09.08,0,0,.2.21.35.35.35.26,0,.73-.29.77-.73-.66-.44-1.78-.26-2,.56-.03.1-.15.09-.15,0,0-.07.03-.56.52-.8.44-.22.28-.54.16-.66-.05-.05-.14-.04-.11,0,.17.29-.19.42-.69.36-1.05-.14-1.4.25-1.46.52-.23.06-1.13.56-1.13.75,0,.06.05.19.14.23,0,0-.02.38.26.63,1.12-.68,1.43-.04,1.32.4,0,0-.2.16-.96.16,0,0,.03.27.1.35,0,0-.17.22-.05.42,0,0,.39-.29,1.06-.26,0,0,.43.65-1.16.96-1.59.31-2.1,1.81-2.1,2.64,0,.04.02.06.06.06,1.29-.24,1.88,1.1,3.55.94-.15-.39.02-.81.02-.81.13.35.45.59.67.71.6-.13.99-.42,1.08-.59,0,0-.63-.52-.22-1.47,0,0,.4.63,1.22.29.07-.03.06-.08,0-.1-1.11-.36-.39-1.29-.32-1.39.51.29.94-.09.94-.42v.03ZM33.6,43.87c-.12.56-.62.64-.92.3.03-.27.29-.33.92-.3ZM21.82,34.47c0,.14.06.27.11.33.1.14.08.22.04.26-.05.05-.12.06-.26-.03-.07-.05-.19-.11-.33-.11-.24,0-.36.16-.36.29s.12.29.36.29c.14,0,.26-.06.33-.11.14-.1.22-.08.26-.03.05.04-.02.53-.08.91-.4.09-.59.4-.59.59,0,.48.51.76.81.92.3-.16.82-.44.82-.92,0-.19-.19-.51-.59-.59-.06-.38-.12-.87-.08-.91.05-.05.12-.06.26.03.07.05.19.11.33.11.24,0,.36-.16.36-.29s-.12-.29-.36-.29c-.14,0-.27.06-.33.11-.14.1-.22.08-.26.03-.05-.04-.06-.12.04-.26.05-.07.11-.19.11-.33,0-.24-.16-.36-.29-.36-.14,0-.29.12-.29.36h-.01ZM22.11,38.05c-.32,0-.58.26-.58.58s.26.58.58.58.58-.26.58-.58-.26-.58-.58-.58ZM22.11,43.68c2.35,0,3.67.45,3.67.45.01-1.18,0-1.85.68-1.75-.37-.99,1.23-1.39,1.23-2.68,0-.85-.6-.95-.78-.95-.53,0-.45.35-.9.35-.06,0-.11,0-.11.03,0,.15.13.4.33.4.28,0,.28-.28.49-.28.09,0,.22.07.22.35,0,.55-.36,1.16-.79,1.64-.1-.14-.23-.22-.39-.22-.25,0-.47.26-.47.59,0,.12.02.21.06.31-.14.08-.27.12-.36.12-.19,0-.48-.08-.48-.5,0-.94,1.26-1.77,1.26-2.96,0-.57-.38-1.13-1.17-1.13-.85,0-.69.78-1.43.78-.03,0-.06,0-.06.04,0,.05.13.48.51.48.41,0,.52-.71.88-.71.14,0,.34.08.34.56,0,.37-.19.97-.45,1.55-.1-.09-.23-.17-.37-.17-.32,0-.55.31-.55.67,0,.23.09.45.25.6-.19.24-.38.43-.64.43-.51,0-.73-.29-.73-.6,0-.34.62-.47.62-1,0-.36-.23-.56-.46-.56-.25,0-.37.16-.39.16s-.15-.16-.39-.16-.46.2-.46.56c0,.53.62.66.62,1,0,.31-.23.6-.73.6-.26,0-.45-.19-.64-.43.16-.15.25-.37.25-.6,0-.37-.23-.67-.54-.67-.15,0-.28.07-.37.17-.26-.57-.45-1.18-.45-1.55,0-.48.2-.56.34-.56.36,0,.47.71.88.71.38,0,.51-.43.51-.48,0-.03-.03-.04-.06-.04-.74,0-.58-.78-1.43-.78-.8,0-1.18.57-1.18,1.13,0,1.19,1.26,2.02,1.26,2.96,0,.42-.29.5-.48.5-.09,0-.22-.04-.37-.12.04-.1.06-.19.06-.31,0-.32-.22-.59-.47-.59-.16,0-.29.08-.39.22-.43-.47-.79-1.09-.79-1.64,0-.28.13-.35.22-.35.21,0,.21.28.49.28.2,0,.33-.25.33-.4,0-.04-.06-.03-.11-.03-.45,0-.37-.35-.9-.35-.18,0-.78.1-.78.95,0,1.3,1.6,1.69,1.23,2.68.68-.1.67.56.68,1.75,0,0,1.32-.45,3.67-.45h0ZM17.81,45.43c-.64.14-1.1.27-1.3.33.01-.28.12-.54.37-.6.03,0,.04-.05.01-.07-.57-.38-.88.35-.88.37-.2-.02-.51.05-.51.32,0,.81-1.87,1.27-2.3,1.33.76.29,1.08,1.25,1.08,1.25.55-.55,1.2-1.04,1.34-1.04s.2.18.21.29c0,.04.04.05.06.02.29-.43.15-.53.13-.65-.02-.1.01-.48.43-.44v5.44l-.22.04c-.1.02-.9-.66-1.81-1.29s-1.4-.25-2.44.31c-1.36.73-2.73.07-2.73.07-1.17.84-1.57,3.26-1.57,3.26-.23.1-.62.21-.99.21-.9,0-1.06-.54-1.06-.87,0-1.38,1.73-1.97,1.73-3.33,0-.33-.15-1.67-1.81-1.67h-1.49c-.62,0-.78-.45-.86-.62-.03-.07-.1-.03-.07.02.05.11-.07.29-.07.63,0,.55.33.89.93.89.27,0,.53-.08.62-.13.06-.03.09.02.06.05-.26.31-.28.88-.18,1.02.03.03.06.02.06,0,.15-.58.69-1.13,1.43-1.13.9,0,.9.77.9.95,0,1.11-1.95,1.92-1.95,3.44s1.63,1.88,2.58,1.63c-.06,1.55-1.83,2.07-1.88.97,0-.05-.04-.06-.07,0-.22.55-.14,1.03.55,1.18.05,0,.02.04-.02.06-.68.43-.31,2.14-.28,2.64.05.72-.67.64-.73.62-.03,0-.06,0-.01.06.51.62,1.14.06,1.14.06.48.15.18.56-.14.77-.05.03-.05.06,0,.07.07,0,.81.07.94-.52.33.39.81.25.91.2.14-.07.83-.32.9.45,0,.06.04.02.06,0,.52-.65-.04-1.06-.35-1.11.02-.04.44-.38.82.1.02.03.05.04.05-.02.04-.83-.63-.91-1.07-.54-.02-.08-.17-.55.5-.53.01,0,.05-.02.01-.06-.51-.54-.94-.05-1.03.07-.23.27-.8.16-.85.15.18-2.89,2.72-1.87,3.07-3.27.02-.07.05-.05.06-.02.1.34.96.39,1.12-.28,0-.04,0-.08-.02-.04-.74.74-2.4-1.56-.13-3.43,1.93-1.6,3.67-.71,4.33-.18.03.23-.1.31-.19.33-.03,0-.04.04,0,.06.18.07.44.05.56-.12.42.29.06.65-.11.76-.04.03-.02.06.01.06.38.07.7-.32.71-.54l.07.04v1.64c0,2.34,2.7,2.66,5.66,4.65,2.96-1.98,5.66-2.31,5.66-4.65v-1.64l.06-.04c.01.23.33.61.71.54.03,0,.06-.03.01-.06-.17-.1-.52-.47-.11-.76.12.17.38.19.56.12.05-.02.04-.05.01-.06-.09-.03-.23-.1-.19-.33.66-.52,2.4-1.41,4.33.18,2.27,1.87.6,4.17-.13,3.43-.03-.03-.03,0-.03.04.16.67,1.02.63,1.12.28,0-.03.04-.06.06.02.35,1.4,2.9.38,3.07,3.27-.05,0-.62.11-.85-.15-.1-.12-.52-.61-1.03-.07-.03.03,0,.06,0,.06.66-.02.52.45.49.53-.44-.36-1.12-.28-1.07.54,0,.06.03.06.06.02.38-.48.79-.13.82-.1-.31.05-.87.45-.35,1.11.02.03.06.06.06,0,.07-.78.76-.53.9-.45.1.05.58.19.9-.2.13.59.87.53.94.52.05,0,.06-.03,0-.07-.32-.21-.61-.62-.14-.77,0,0,.63.57,1.14-.06.04-.06.02-.07,0-.06-.06.02-.78.11-.73-.62.03-.5.4-2.2-.28-2.64-.04-.03-.07-.05-.02-.06.69-.15.77-.63.55-1.18-.03-.07-.07-.06-.07,0-.05,1.11-1.82.58-1.88-.97.94.24,2.58-.09,2.58-1.63s-1.94-2.33-1.94-3.44c0-.19,0-.95.9-.95.74,0,1.28.55,1.43,1.13,0,.03.04.04.06,0,.1-.14.09-.72-.18-1.02-.02-.03,0-.08.06-.05.08.05.34.13.62.13.6,0,.93-.33.93-.89,0-.35-.12-.52-.07-.63.03-.06-.04-.09-.07-.02-.09.17-.24.62-.86.62h-1.49c-1.66,0-1.82,1.34-1.82,1.67,0,1.36,1.73,1.95,1.73,3.33,0,.32-.17.86-1.06.86-.37,0-.76-.1-.99-.2,0,0-.4-2.42-1.57-3.26,0,0-1.37.67-2.73-.07-1.04-.56-1.53-.94-2.44-.31-.91.63-1.7,1.31-1.81,1.29l-.22-.04v-5.44c.42-.04.45.33.43.44-.02.13-.16.22.13.65.02.03.06.02.06-.02.01-.11.07-.29.22-.29s.79.49,1.34,1.04c0,0,.32-.96,1.08-1.25-.43-.06-2.3-.52-2.3-1.33,0-.27-.31-.34-.51-.32,0-.02-.31-.75-.88-.37-.03.02-.02.06.01.07.25.06.35.32.37.6-.54-.17-2.86-.82-5.6-.82-1.33,0-2.56.15-3.54.33v1.89h-.77v-1.73h0M12.75,64.75c-.2-.08-.34-.21-.34-.48v-1.17c-.34-.12-1.25-.47-3.08-.47-1.52,0-2,.34-2.02.47l-.4,2.23s.62-.56,2.82-.42c2.66.17,5.41,1.74,5.41.06v-.98c-2.08,0-2.39.66-2.39.76ZM29.09,63.99v.98c0,1.67,2.75.1,5.41-.06,2.21-.15,2.82.42,2.82.42l-.4-2.23c-.02-.12-.5-.46-2.02-.46-1.83,0-2.75.35-3.08.47v1.17c0,.27-.14.4-.34.48,0-.1-.31-.76-2.39-.76h0ZM22.11,62.97c4.28,0,8.62.22,9.19.87.05.05.06,0,.06-.04v-2.27c0-.66-4.48-1.04-9.25-1.04s-9.25.39-9.25,1.04v2.27s.02.09.06.04c.57-.65,4.91-.87,9.19-.87ZM18.3,52.29l-.43-.11-.03.05-.5-.22h.45s.04-.03.02-.05c-.21-.2-.39-.38-.39-.38,0,0,.2.08.5.19.03,0,.05,0,.03-.03-.14-.2-.33-.48-.33-.48,0,0,.4.27.49.32.02.02.05,0,.04-.02-.11-.27-.23-.57-.23-.57l.44.42s.04,0,.04-.02c-.04-.2-.12-.57-.12-.57l.32.48s.05.02.05,0c0-.09.01-.52.01-.52,0,0,.14.31.21.48.01.03.04.03.06,0,.02-.05.17-.4.17-.4l.02.54h-.07l-.09.67c.65-.15,1.45-1.26,2.07-1.26.73,0,1,.86,2.36.43.34.51.46.94.59,1.56.52.49,1.26.33,1.26-.19,0-.71-.77-.84-.77-1.57,0-.33.23-.8.86-.8.33,0,.81.14,1.1.14.33,0,.4-.24.44-.34.03-.07.12-.05.11,0,0,.07.04.16.04.32,0,.47-.68.52-.76.47-.03-.02-.06,0-.03.03.1.08.08.36-.04.53-.01.02-.03.02-.04,0-.07-.33-.46-.74-.81-.74-.12,0-.38.07-.38.36,0,.42.83.8.83,1.66s-.89,1.11-1.78.89c.03.85,1.3,1.36,1.33.75,0-.04.02-.02.03,0,.19.26.1.46-.14.56.22.1.26.55.33.81.1.4.52.18.55.17.02,0,.03,0,.02.02-.16.42-.59.26-.59.26-.22.16.05.3.25.36.03,0,.03.03,0,.04-.15.06-.47.16-.62-.11-.11.28-.35.27-.44.27-.16,0-.27.17-.23.39,0,.02-.01.02-.02,0-.39-.26-.17-.56-.01-.64-.02-.02-.3-.13-.41.19-.01.02-.02.02-.03,0-.17-.45.2-.59.47-.47-.02-.06-.16-.28-.51-.22t-.02-.02c.06-.14.23-.34.55-.14.17.1.44-.04.47-.06-.57-1.13-1.67-.19-1.92-1.07,0-.02-.02-.03-.04,0-.06.19-.54.2-.63-.17t.02,0c.07.07.22.13.42-.15.13-.19.15-.44.15-.62,0-.69-.69-1.85-1.76-1.85-.68,0-1.41.27-1.95.66l.5.11c-.05.51-.54.81-.99.68l.08-.58c-.08.02-.27.09-.38.24-.01,0-.02,0-.03,0-.09-.33.18-.49.27-.54.01,0,.01,0,0,0-.24,0-.38.17-.42.23,0,0-.02,0-.02,0-.02-.07-.06-.24.05-.36h-.04ZM19.79,56.22c-.19.23-.36,0-.61,0s-.28.2-.28.28c0,0,0,.02-.02,0-.27-.37.03-.57.21-.6-.02-.03-.29-.2-.46.04-.01.02-.03,0-.03,0-.01-.46.35-.49.59-.29.05-.17-.07-.29-.26-.3-.02,0-.03-.02-.02-.03.08-.09.16-.13.24-.13.25,0,.29.32.45.32.25,0,.6-.34.64-.37,0-.02-.25-.67-.2-1.05t-.02,0c-.12.07-.43.06-.43-.31t.02,0c.14.19.35-.02.46-.15.12-.13.74-1.04,1.58-1.04.18,0,.42.1.61.24-.29.35,0,.69.21.65.03,0,.03.02,0,.03-1.11.42-1.6.58-1.6,1.51,0,.48.17.75.45.69t.01.02c-.1.12-.22.16-.32.16-.23,0-.27-.13-.4-.13s-.54.24-.54.44c0,.08.05.18.19.28.01,0,0,0,0,0-.1.02-.42.05-.5-.26h.03ZM22.71,47.21c-.35-.02-.57.06-.56.17.17.18.4.16.56-.17ZM21.43,48.06c.24-.06.51-.03.54-.02.04,0,.04.07,0,.08-.51.06-.53.3-.86.3-.21,0-.44-.22-.36-.53.01-.04.04-.04.05,0,.03.13.23.28.63.18h0ZM14.81,59.37c.34.44.66.02,1.11.02.22,0,.48.07.53.51,0,.02.02.03.04,0,.48-.66-.07-1.03-.38-1.08.07-.06.54-.35.84.08.02.02.05.02.05-.02,0-.83-.63-.89-1.08-.53-.08-.33.16-.54.48-.54.04,0,.05-.02.03-.05-.56-.6-.98.15-1.07.27-.22.3-1.02-.26-1.34-.59,0,0,.7-.74.7-1.41v-.12s.01-.03.03-.02c.07.04.17.07.26.07.16,0,.47-.05.47-.62,0-.04-.02-.04-.04-.02-.08.12-.18.15-.25.15-.57,0-1.76-1.9-3.16-1.9-.37,0-1.06.26-1.41.64.17.1.2.31.18.46-.02.24-.22.36-.41.42-.03,0-.04.03,0,.05.71.27,2,.76,2.29,1.01.35.3.28.86.08,1.65-.19.75-.61.65-.76.62-.02,0-.03,0-.02.03.18.23.41.31.6.31.37,0,.51-.23.7-.23.32,0,.99.46.99.81,0,.2-.15.38-.35.5-.01,0-.01.02,0,.03.15.03.78.08.9-.48v-.02ZM30.31,59.85s.02-.02,0-.03c-.2-.13-.35-.31-.35-.5,0-.35.67-.81.99-.81.19,0,.33.23.69.23.19,0,.41-.08.6-.31,0-.02,0-.03-.02-.03-.15.02-.57.13-.76-.62-.2-.78-.27-1.35.08-1.65.3-.25,1.58-.74,2.29-1.01.04-.02.03-.04,0-.05-.19-.05-.39-.17-.41-.42-.02-.15.02-.35.19-.46-.35-.38-1.04-.64-1.41-.64-1.4,0-2.6,1.9-3.16,1.9-.07,0-.16-.03-.25-.15-.02-.03-.04-.03-.04,0,0,.57.3.62.46.62.09,0,.19-.03.26-.06.02,0,.03,0,.03.02v.12c0,.68.71,1.42.71,1.42-.32.33-1.12.89-1.34.59-.09-.12-.51-.88-1.07-.27-.02.02,0,.05.03.05.31,0,.56.22.48.54-.45-.36-1.08-.31-1.08.53,0,.03.03.04.05.02.3-.43.77-.14.84-.08-.32.05-.86.42-.38,1.08.02.03.04.02.04,0,.05-.43.31-.51.53-.51.44,0,.77.41,1.1-.02.12.56.75.5.91.48h0ZM18.96,48.89c-.04.06-.19,0-.25-.03-.01,0-.02,0-.01,0,.03.08.18.31.39.31.09,0,.24-.06.27-.12,0,0,.83.27,1.23.38-.16.21-.26.47-.28.74-.33-.2-1.65-.91-1.65-.91l-.41.56c-.07.09-.39-.15-.33-.24l.31-.43c-.1-.11-.35-.04-.42-.02-.01,0-.02,0-.01-.02.04-.08.2-.34.58-.23,0-.24-.35-.16-.44-.14-.01,0-.02,0,0,0,.1-.1.38-.33.7-.15l.14-.19-.28-.3.18-.24.2.27,1.52-2.08s.34-.14.45-.16c.01.12.02.43-.01.48l-1.5,2.1.32.1-.17.24-.37-.17-.17.23v.03ZM24.29,48.55c0,.19.12.47.37.39.01,0,.03,0,.02,0-.04.21-.42.41-.6.16-.15.32-.11.63.22.81.02,0,.02.03,0,.05-.2.15-.51.11-.65-.17-.27.2-.23.64-.07.79,0,0-.76.45-1.44.13-.45-.22-.82-.5-1.41-.45.08-.82.49-1.04,1.25-1.16.6-.1.68-.38.6-.58-.21-.06-.58.13-.58.13-.07-.11.03-.23.03-.23-.04-.04-.06-.2-.06-.2.42,0,.5-.09.5-.09.08-.44-.37-.49-.72-.25-.16-.14-.13-.33-.13-.33-.05-.02-.08-.1-.08-.13,0-.1.5-.38.63-.42.03-.15.21-.35.75-.3.06-.14-.04-.66-.1-.79-.02-.04.01-.06.06-.03.19.12.37.55.5.56,0,0,.6-.31.63-.29.03.02.11.68.11.68.08.1.54,0,.74.09.05.02.05.06,0,.06-.15.02-.63.23-.71.37.27.41.14,1.02.14,1.18h0Z"/>
      <text class="cls-1" transform="translate(55.35 44)"><tspan x="0" y="0">Justis</tspan></text>
      <text class="cls-3" transform="translate(54.35 58.11)"><tspan x="0" y="0">Ministerie van Justitie en</tspan><tspan class="cls-7" x="105.3" y="0"> </tspan><tspan class="cls-6" x="107.44" y="0">V</tspan><tspan x="113.68" y="0">eiligheid</tspan></text>
      <text class="cls-2" transform="translate(55.35 73.78)"><tspan x="0" y="0">POB 8766</tspan></text>
    </g>
  </g>
</svg>