<?xml version="1.0" encoding="UTF-8"?>
<svg id="Laag_2" data-name="Laag 2" xmlns="http://www.w3.org/2000/svg" viewBox="0 0 321.84 396.06">
  <defs>
    <style>
      .cls-1 {
        stroke: #7ba69b;
      }

      .cls-1, .cls-2 {
        fill: #fff;
      }

      .cls-1, .cls-2, .cls-3 {
        stroke-miterlimit: 10;
        stroke-width: 4px;
      }

      .cls-2 {
        stroke: #58b995;
      }

      .cls-3 {
        fill: none;
        stroke: #13261f;
      }

      .cls-4 {
        fill: #c2dfcf;
      }

      .cls-5 {
        fill: #13261f;
      }

      .cls-6 {
        fill: #d9ede7;
      }

      .cls-7 {
        fill: #e0efe7;
      }

      .cls-8 {
        opacity: .6;
      }

      .cls-9 {
        fill: #1f1f1e;
      }

      .cls-10 {
        fill: #58b995;
      }
    </style>
  </defs>
  <g id="Laag_1-2" data-name="Laag 1">
    <g>
      <rect class="cls-3" x="8.31" y="252.32" width="141.73" height="141.73" rx="22.68" ry="22.68"/>
      <rect class="cls-2" x="2" y="2" width="141.73" height="141.73" rx="22.68" ry="22.68"/>
      <g>
        <circle class="cls-6" cx="71.43" cy="72.87" r="42.82" transform="translate(-30.6 71.85) rotate(-45)"/>
        <g>
          <path class="cls-5" d="M54.57,72.19s.68,1.53,0,2.56c-.68,1.03-2.7.97-2.94,3.12-.23,2.15.25,2.98,1.23,4.55s.24,2.52,1.34,3.28c1.1.76,3.67,1.21,3.16,3.17-.51,1.96-1.41,5.6-.93,6.5.47.9-.13.89-.29,1.99-.16,1.11,1.41,2.24,1.28,3.65-.13,1.41-1.53,2.8-.62,4.28s1.15.92,1.56,2.26c.41,1.34.71,1.91,1.43,2.09.73.18,1.91.35,2.34,1.02.43.67,1.51-.54.78-1.24-.73-.71-1.67-.47-1.39-1.86.28-1.39,1.09-1.8-.02-2.49s-.92-1.49-.46-1.5c.45-.01,1.5-.46.62-1.19s-1.15-.92-.47-.9c.68.02,2.76.7,4.6-1.07s3.5-3.87,3.5-3.87c0,0,.55-1.2.35-2.44-.2-1.23.75-1.55,2.39-1.39s1.45-.62,1.45-.62c0,0,1.44,1.49,1.94-4.55,0,0-.08-.99,1.77-1.86,1.86-.86.29-3.05-.77-3.05,0,0-.41-1.34-1.29-1.54-.88-.2-2.87.04-3.68-.6s-1.94-1.18-1.94-1.18c0,0,1-4.3-3.23-4.31,0,0-.61-3.1-2.73-3.03-2.12.07-2.37.26-2.68-.23-.31-.5-.7-2.44-2.19-2.05-1.49.39-1.84,2.3-3.28,1.87-1.45-.43-3.27-.32-2.84-1.76.43-1.45.68-3.14-1.58-3.17,0,0-.57-.23.37-1,.94-.77.51-1.96-.03-1.89s-2.13,1.2-2.89,1.24-3.19-.38-1.85-3.36c1.33-2.97,7.71-3.26,8.17-1.77.46,1.5-.08,2.1,1.41,2.24,1.49.14,1.04-2.49,1.04-2.49l4.05-2.51s.42-.32.72-.8,5.24-2.87,6.3-4.52,1.43-2.58,2.83-1.85c1.4.73,1.98.89,2.34-.04.36-.93,2.2,1.45,2.95.42.75-1.02.4-2.28-1.15-2.5s.48-1.74-.15-2.13c-.62-.39-1.79.95-2.4.41-.6-.54.67-2.54-1.36-2.61s-2.28.12-2.9,2.37c-.62,2.25-1.51,0-3.1,1.66-1.59,1.66-1.22.65-1.38-.35-.16-1-1.25-1.76-2.37-1.85-1.12-.09-.67-2.13.97-2.57,1.65-.44,3.64-1.21,3.64-1.21,0,0,.18,1.38,1.36,1.02,1.18-.36,1.58-1.58,1.58-1.58l1.18.17s.8-.86,1.03-.91c.23-.04,2.66.38,2.66.38,0,0,1.37-.1.07.54-1.3.64-2.09-.15-1.81,1.02.28,1.17.38.51,1.24,1.31.86.8,2.25.62,2.55-.46,0,0,1.78.71,2.17-.44.39-1.15-.54-1.51-.54-1.51,0,0-.16-1.53-1.75-2.51-1.59-.98-5.62-1.79-6,.34-.38,2.13-2,.77-2,.77,0,0,.97-.46,1.14-1.65.17-1.18-3-1.71-3.07-.67-.07,1.04.68,1.53-.17,1.71-.85.18-1.65.44-2.71.51s-1.18-1.23-1.18-1.23c0,0,.81.12,1.98-.17,1.17-.28,1.86-1.39.56-1.8-1.3-.41.08.99-2.8.58,0,0-.36-.13-.67-1.08-.32-.95-2.96-1.41-3.91-.56s-.44,1.52.35,1.78-.34.78.91,1.03,1.75.4,1.4.73c-.35.33-6.57-1.47-6.45-2.89,0,0-12.5,5.67-17.49,17.31,0,0,.13.7.93.89s1.32.26,1.02,1.81-.76,4.79,1.29,5.16c2.06.37,1.02-1.36.54-2.18s-.8-3.36.39-2.73c1.19.62-.56.75,1.22,4.1,1.78,3.35-.97,3.1,1.17,5.52,2.14,2.42,3.33-.12,4.04.73.71.86.03,1.36,1.43,1.56,1.4.2.81-.41,1.44.96.63,1.37,1.07,4.07,5.21,3.09Z"/>
          <path class="cls-5" d="M68.86,52.46s-1.12.44-.6,1.04c.52.6,1.92.28.6-1.04Z"/>
          <path class="cls-5" d="M70.51,50.43s-.65-.17-.76.57c-.11.74,1.12,1.14,1.5.59.38-.55-.74-1.16-.74-1.16Z"/>
          <path class="cls-5" d="M72.35,51.83s-.55.67-1.16.74c-.61.06-1.41-.13-.97.99s1.44-.02,1.44-.02c0,0,2.18-.52.7-1.71Z"/>
          <path class="cls-5" d="M74.69,50.73s-1.93-.2-1.09,1.28c0,0,.56.31,1.09.83.53.53,1.86.72,1.97-.09.12-.81-.2-1.76-1.97-2.02Z"/>
          <path class="cls-5" d="M94.28,61.84s-3.46-1.1-4.6,1.07c-1.14,2.17-.66,2.47-3.88,3.36s-.78,2.83-.78,2.83c0,0,1.03.68-.2,1.4-1.24.73-1.76,2.84-1.2,4.13.57,1.29,2.27,4.17,3.47,4.72,1.2.55,4.68.97,5.41.1.73-.88,1.35-1.01,2.28-.12.93.89,4.02.35,3.67,1.21s-1.98,2.73-.72,5.02c1.25,2.29,2.13,4.08.67,5.3s-1.38,2.82-.08,4.21c0,0-1.03,2.94-.08,4.21.95,1.27.78,2.98.43,3.83s.02.38.02.38c0,0-.26,1.32.44.59.71-.73,16.24-14.4,13.63-36.64,0,0-3.75.37-4.12-.74-.37-1.11-1.59-1.51-4.06-1.11-2.47.4-1.5-.59-2.35-.94s-1.78-.18-1.78-.18c0,0,2.53-4.46-6.18-2.62Z"/>
          <path class="cls-5" d="M95.59,56.38s.45,1.57-.62,1.19c-1.08-.38-3.87-1.39-4.02,1.23-.15,2.62,2.19,2.58,4.22,2.11s3.05-2.88,3.05-2.88c0,0,2.04,1.05,2.83-.27,0,0,.85,2.46,2.09,2.79,0,0-1.16.21-.95,1.37.21,1.16,3.61.59,2.87-1.62s-4.18-1.88-2.12-3.09c2.06-1.21,3,2.24,3.02,3.15.02.91-.74,3.06,1.03,2.26,1.77-.8,1.4-3.42,1.95-2.06.56,1.36-.49,2.87,1.15,3.03,1.64.16,2.07.3,2.07.3,0,0-2.81-10.88-8.84-17.7,0,0-.04.82-1.56.91s-2.46,1.91-1.42,3.04c1.04,1.13,2.64.53,2.59,1.35s-.33,1.23-1.53.68c-1.2-.55-1.97-.43-2.28.65-.31,1.09-.8,1.92-1.65,1.5s-2.83.27-1.88,2.07Z"/>
          <path class="cls-5" d="M92.94,50.19s-1.71.89-.33,2.29,1.75-1.71,2.47-1.45c.72.25.69,1,.2,1.23-.49.23-1.44,1.08-.5,1.36.94.29,3.21.76,3.18-.6-.03-1.36-1.06-1.51-1.06-1.51,0,0-1.03-1.2-.28-2.23,0,0,.06-.97-1.07-.98-1.13-.01-1.1,1.88-1.33,1.92-.23.04-1.28-.03-1.28-.03Z"/>
        </g>
      </g>
      <g id="Objects">
        <g>
          <path class="cls-10" d="M83.28,346.85l.66,7.64c.14,1.57-1.17,2.88-2.73,2.74l-2.59-.23c-.96-.09-1.79-.72-2.14-1.63-.73-1.93-2.12-5.47-3.79-8.96-2.43-.48-4.72-1.71-6.44-3.52-1.51-1.59-2.57-3.61-3.05-5.76l9.36-2.53,10.73,12.24Z"/>
          <path class="cls-5" d="M73.21,336.41c2.18,6.65,8.4,11.44,15.75,11.44,7.87,0,14.46-5.52,16.15-12.91,0,0-6.69-8.59-19.04-7.1-10.69,1.29-12.86,8.57-12.86,8.57h0Z"/>
          <path class="cls-7" d="M114.92,317.6c0-2.6-1.28-4.9-3.25-6.29,1.11-1.33,1.77-3.05,1.77-4.93,0-3.72-2.62-6.82-6.11-7.54.25-.86.38-1.76.38-2.69,0-5.32-4.29-9.64-9.59-9.64-.58,0-1.15.05-1.71.15-.84.15-1.64.41-2.38.77h0c-.2-5.14-4.41-9.25-9.58-9.25-2.11,0-4.05.68-5.63,1.84-2.44-2.49-5.84-4.04-9.59-4.04s-6.83,1.4-9.24,3.69c-1.38-.94-3.05-1.49-4.85-1.49-3.58,0-6.65,2.19-7.97,5.3-1.18-.59-2.52-.92-3.92-.92-4.92,0-8.9,4-8.9,8.94,0,.37.03.74.07,1.1-.29-.03-.57-.04-.87-.04-4.78,0-8.66,3.9-8.66,8.7,0,.78.1,1.54.3,2.26-2.03,1.38-3.36,3.72-3.36,6.37,0,1.72.56,3.31,1.52,4.6.05.07.1.14.16.2-.42.72-.73,1.51-.9,2.35-.1.5-.16,1.02-.16,1.56,0,4.25,3.43,7.7,7.66,7.7.55,0,1.08-.06,1.6-.17,1.12,2.86,3.89,4.88,7.13,4.88.5,0,.99-.05,1.47-.14.8-.16,1.55-.44,2.24-.82,0,.02.01.03.02.05,0,0,0,0,0,0,1.44,3.21,4.65,5.44,8.39,5.44,1.83,0,3.54-.54,4.97-1.47,2.64,2.07,6.52,3.37,10.84,3.37,4.87,0,9.18-1.66,11.79-4.2.59-.58,1.1-1.2,1.5-1.85,1.29,1,2.91,1.59,4.66,1.59s3.48-.63,4.79-1.69c0,0,0,0,0,0,.04-.03.08-.07.12-.1.48.62,1.06,1.18,1.72,1.7,2.22,1.71,5.38,2.78,8.89,2.78,6.7,0,12.14-3.91,12.14-8.74,0-1.06-.27-2.08-.75-3.02,1.99-1.39,3.29-3.7,3.29-6.32h0Z"/>
          <path class="cls-4" d="M76.13,287.38c-2.71.26-4.62,1.19-5.69,2.75-1.74,2.55-.75,6.1-.74,6.13.11.37.03.77-.21,1.07-.24.3-.61.47-1,.45-3.02-.16-5.24.53-6.61,2.04-2.13,2.37-1.59,6.09-1.58,6.13.05.34-.04.69-.27.96-.22.26-.55.42-.9.42-2.81.04-4.9.83-6.22,2.37-2.13,2.47-1.66,6.14-1.66,6.18.09.64-.36,1.24-1,1.34-3.31.52-5.65,2.04-6.96,4.54-1.79,3.41-1.14,7.31-.75,8.29h0c-.69.38-1.44.67-2.24.82-.7-1.9-1.11-6.46.87-10.22,1.51-2.87,4.14-4.78,7.64-5.58-.02-1.6.27-4.57,2.27-6.91,1.57-1.83,3.83-2.88,6.75-3.15-.03-1.66.26-4.56,2.25-6.77,1.61-1.8,3.97-2.75,7.02-2.86-.2-1.64-.19-4.32,1.34-6.58,1.48-2.18,3.98-3.46,7.44-3.8.66-.06,1.24.42,1.3,1.07.06.66-.42,1.24-1.07,1.3h0Z"/>
          <path class="cls-4" d="M80.06,331.4c-.41.66-.91,1.28-1.5,1.85-.87-.59-1.55-1.19-2.02-1.66-.53.32-1.24.69-2.1.95-1.72.52-4.35.73-7.15-1.25-.54-.38-.67-1.13-.28-1.67.38-.54,1.13-.67,1.67-.28,3.79,2.69,7.12-.11,7.26-.23.25-.22.57-.32.9-.29s.63.2.83.46c0,0,.82,1.09,2.39,2.11h0Z"/>
          <path class="cls-4" d="M94.09,329.72c-.77,1.5-2.14,2.7-2.74,3.18-.66-.51-1.24-1.08-1.72-1.7l.04-.03s1.59-1.15,2.3-2.54c.3-.59,1.02-.82,1.61-.52s.82,1.02.52,1.61h0Z"/>
          <path class="cls-4" d="M85.65,321.41c-1.21,0-2.14-.28-2.27-.32-.63-.2-.98-.87-.78-1.5.2-.63.87-.98,1.49-.78.03,0,1.08.32,2.2.17,1.34-.18,2.21-.93,2.64-2.29.2-.63.87-.98,1.5-.78s.98.87.78,1.5c-.72,2.27-2.38,3.67-4.69,3.95-.3.04-.6.05-.88.05h0Z"/>
          <path class="cls-4" d="M98.42,323.75c-.53,0-1.01-.35-1.15-.88-.17-.63.2-1.29.83-1.47.25-.07,2.37-.77,2.37-3.26s-2.04-3.47-2.19-3.54c-.45-.17-.75-.59-.77-1.07-.02-.49.27-.93.71-1.13.11-.05,2.89-1.39,2.89-4.71,0-2.59-2.54-3.35-2.64-3.38-.64-.17-1.01-.83-.84-1.46.17-.64.83-1.01,1.47-.84,1.52.41,4.4,2.13,4.4,5.68,0,2.88-1.43,4.74-2.64,5.79.98.88,2.01,2.36,2.01,4.66,0,3.5-2.69,5.17-4.12,5.56-.11.03-.21.04-.32.04h0Z"/>
          <path class="cls-4" d="M66.85,318.78c-.65,0-1.18-.53-1.19-1.18,0-.12-.02-2.95,2.19-4.9,1.49-1.32,3.56-1.89,6.18-1.73.24-1.39.91-3.63,2.75-5.24,1.76-1.56,4.15-2.18,7.1-1.85.66.07,1.13.66,1.05,1.32-.07.66-.66,1.13-1.32,1.05-2.24-.25-4,.17-5.24,1.26-2.01,1.76-2.09,4.76-2.09,4.79,0,.34-.16.67-.42.89-.26.22-.6.32-.94.28-2.47-.34-4.31,0-5.47,1.01-1.39,1.21-1.4,3.08-1.4,3.1.01.66-.52,1.2-1.18,1.21h-.02,0Z"/>
          <path class="cls-4" d="M36.1,310.27s-.03,0-.05,0c-.66-.03-1.17-.59-1.14-1.25,0-.09.11-2.24,1.5-4.37,1.17-1.79,3.47-3.87,7.88-4.15-.06-1.52.13-4.01,1.6-6.15,1.31-1.9,3.33-3.1,6-3.58.65-.12,1.27.32,1.38.97s-.32,1.27-.97,1.38c-2.01.36-3.5,1.22-4.44,2.56-1.68,2.43-1.1,5.72-1.09,5.75.07.35-.03.72-.26.99-.23.27-.57.43-.93.42-3.33-.06-5.73.96-7.12,3.02-1.07,1.58-1.16,3.23-1.17,3.24-.03.64-.56,1.14-1.19,1.14h0Z"/>
          <path class="cls-4" d="M28.84,318.47c-.12.56-.62.94-1.17.94-.08,0-.17,0-.25-.03-2.09-.45-3.71-1.45-4.81-2.34.17-.84.48-1.63.9-2.35h0c.7.63,2.18,1.87,4.41,2.35.65.14,1.06.78.92,1.42h0Z"/>
          <path class="cls-4" d="M95.57,292.96c-.19.49-.43.95-.68,1.35-.43.69-1.4.75-1.92.13h0c-.3-.37-.35-.88-.14-1.3.47-.92,1.19-2.8,1.2-5.71.75-.35,1.55-.61,2.38-.77.06,2.53-.22,4.65-.85,6.3h0Z"/>
          <path class="cls-10" d="M88.62,339.73c-2.72,0-5.44-.51-7.95-1.52-.61-.25-.91-.94-.67-1.55s.94-.91,1.55-.67c3.38,1.35,7.2,1.7,10.77.98.65-.13,1.28.29,1.41.93.13.65-.29,1.28-.93,1.41-1.37.28-2.77.41-4.17.41Z"/>
          <path class="cls-10" d="M89.43,343.88c-2.57,0-5.15-.46-7.56-1.36-.62-.23-.93-.92-.7-1.54.23-.62.92-.93,1.54-.7,2.62.98,5.47,1.37,8.25,1.15.65-.05,1.23.44,1.29,1.09.05.66-.44,1.23-1.09,1.29-.57.05-1.14.07-1.72.07h0Z"/>
        </g>
      </g>
      <g>
        <rect class="cls-1" x="178.11" y="128.44" width="141.73" height="141.73" rx="22.68" ry="22.68"/>
        <g id="Layer_1" data-name="Layer 1">
          <g>
            <g>
              <g>
                <path class="cls-5" d="M302.39,169.38l-33.59-18.48c-.69-.38-.95-1.25-.56-1.94s1.25-.95,1.94-.56l33.59,18.48c.69.38.95,1.25.56,1.94s-1.25.95-1.94.56h0Z"/>
                <path class="cls-10" d="M297.15,174.19l-29.6-16.29c-.65-.36-.89-1.18-.53-1.83s1.18-.89,1.83-.53l29.6,16.29c.65.36.89,1.18.53,1.83s-1.18.89-1.83.53Z"/>
                <path class="cls-10" d="M257.84,250.36l-33.59-18.48c-.69-.38-.95-1.25-.56-1.94s1.25-.95,1.94-.56l33.59,18.48c.69.38.95,1.25.56,1.94s-1.25.95-1.94.56h0Z"/>
                <path class="cls-5" d="M259.18,243.21l-29.6-16.29c-.65-.36-.89-1.18-.53-1.83s1.18-.89,1.83-.53l29.6,16.29c.65.36.89,1.18.53,1.83s-1.18.89-1.83.53Z"/>
              </g>
              <g>
                <path class="cls-10" d="M274.58,215.28l-29.84-16.41c-.65-.36-.89-1.18-.53-1.83s1.18-.89,1.83-.53l29.84,16.41c.65.36.89,1.18.53,1.83s-1.18.89-1.83.53h0Z"/>
                <path class="cls-10" d="M267.63,220.03h0s-22.88-12.87-22.88-12.87c-.57-.32-.77-1.04-.45-1.61.32-.57,1.03-.77,1.6-.46h0s22.88,12.87,22.88,12.87c.57.32.77,1.04.45,1.61-.32.57-1.03.77-1.6.46Z"/>
                <path class="cls-5" d="M283.45,194.19l-25.63-14.1c-.6-.33-.83-1.09-.49-1.7s1.09-.83,1.7-.49l25.63,14.1c.6.33.83,1.09.49,1.7s-1.09.83-1.7.49h0Z"/>
                <path class="cls-10" d="M281.86,202.05l-29.84-16.41c-.65-.36-.89-1.18-.53-1.83s1.18-.89,1.83-.53l29.84,16.41c.65.36.89,1.18.53,1.83s-1.18.89-1.83.53h0Z"/>
                <path class="cls-5" d="M279.3,209.5h-.01s-31.87-17.92-31.87-17.92c-.67-.38-.91-1.23-.53-1.9.37-.67,1.22-.91,1.89-.54h.01s31.87,17.92,31.87,17.92c.67.38.91,1.23.53,1.9-.37.67-1.22.91-1.89.54h0Z"/>
              </g>
            </g>
            <path class="cls-10" d="M268.95,221.74c-11.75,4.47-19.99,4.1-26.62,3.8-.58-.03-1.15-.05-1.69-.07-7.05-.28-11.68.12-18.19,8.33-.88,1.11-2.42,1.39-3.63.73-.13-.07-.27-.16-.4-.26-1.24-.99-1.45-2.78-.47-4.02,7.84-9.87,14.47-10.73,21.78-10.53.93.02,1.88.06,2.85.11,6.42.3,13.68.63,24.32-3.43,5.98-2.28,10.7-7.69,12.61-14.49,2.39-8.46.16-17.69-6.26-25.99-2.27-2.94-4.04-5.73-5.38-8.35-7.33-14.27-2.54-23.55-2.29-24,.75-1.4,2.49-1.91,3.88-1.17h.02c1.36.76,1.88,2.48,1.15,3.86-.21.42-3.95,8.21,3.49,20.82,1,1.69,2.2,3.48,3.65,5.34,7.56,9.77,10.13,20.79,7.25,31.04-2.4,8.52-8.42,15.36-16.1,18.29h0Z"/>
            <path class="cls-10" d="M258.25,256.21c-1.2-.66-1.79-2.11-1.32-3.45,3.71-10.66.93-14.64-3.67-21.22-3.8-5.43-8.53-12.19-11.04-24.52-1.64-8.05.91-16.79,6.83-23.38,7.11-7.92,17.8-11.65,30.1-10.5,19.85,1.86,25.68-7.58,25.92-7.98.79-1.33,2.5-1.81,3.85-1.06l.05.03c1.36.78,1.84,2.5,1.07,3.87-.3.53-7.63,13.07-31.43,10.85-10.45-.98-19.43,2.08-25.3,8.62-4.71,5.25-6.76,12.13-5.48,18.41,2.27,11.16,6.44,17.12,10.12,22.38,4.86,6.95,9.06,12.96,4.39,26.39-.52,1.49-2.15,2.28-3.65,1.76-.15-.06-.3-.12-.44-.2h0Z"/>
          </g>
        </g>
        <g class="cls-8">
          <path class="cls-10" d="M233.36,166.08c-.42-4.84-2.29-9.05-5.55-12.52-4.4-4.68-9.74-7.05-15.9-7.05-.91,0-1.86.05-2.81.15-4.55.5-8.63,2.4-12.15,5.65-3.23,3-5.44,6.75-6.42,10.88-.95,4.05-.68,8.36.78,12.46,1.47,4.13,4.28,7.61,8.34,10.37,4.31,2.91,9.21,4.09,14.58,3.5,4.61-.5,8.7-2.36,12.15-5.5,4.59-4.19,6.97-9.58,7.08-16.03,0-.17-.01-.35-.03-.54-.03-.42-.05-.9-.09-1.37h0ZM211.62,185.66h-.1c-4.59,0-8.88-1.78-12.1-5-3.37-3.38-5.23-7.93-5.22-12.81-.01-4.57,1.81-8.9,5.14-12.21,3.32-3.31,7.7-5.13,12.31-5.14h.04c9.66,0,17.54,7.81,17.57,17.41.03,9.89-7.73,17.68-17.65,17.75h0Z"/>
          <circle class="cls-9" cx="211.73" cy="168.09" r="2.31"/>
        </g>
      </g>
      <g>
        <path class="cls-10" d="M36.49,24.08c-.25-2.84-1.34-5.3-3.25-7.33-2.57-2.74-5.7-4.13-9.31-4.13-.53,0-1.09.03-1.64.09-2.66.29-5.05,1.4-7.11,3.31-1.89,1.75-3.19,3.95-3.76,6.37-.56,2.37-.4,4.89.46,7.29.86,2.42,2.51,4.46,4.88,6.07,2.52,1.7,5.39,2.39,8.54,2.05,2.7-.29,5.09-1.38,7.11-3.22,2.69-2.45,4.08-5.61,4.15-9.38,0-.1,0-.2-.02-.31-.02-.25-.03-.52-.05-.8h0ZM23.76,35.55h-.06c-2.69,0-5.2-1.04-7.08-2.92-1.97-1.98-3.06-4.64-3.05-7.5,0-2.68,1.06-5.21,3.01-7.15,1.94-1.94,4.51-3,7.21-3.01h.02c5.66,0,10.27,4.57,10.28,10.19.02,5.79-4.52,10.35-10.33,10.39h0Z"/>
        <circle class="cls-9" cx="23.83" cy="25.26" r="1.35"/>
      </g>
      <g>
        <path class="cls-10" d="M133.93,366.88c-.25-2.85-1.35-5.33-3.27-7.37-2.59-2.75-5.73-4.15-9.36-4.15-.54,0-1.09.03-1.65.09-2.68.3-5.08,1.41-7.15,3.33-1.9,1.76-3.2,3.97-3.78,6.4-.56,2.38-.4,4.92.46,7.33.87,2.43,2.52,4.48,4.91,6.1,2.53,1.71,5.42,2.41,8.58,2.06,2.71-.3,5.12-1.39,7.15-3.24,2.7-2.47,4.1-5.64,4.17-9.44,0-.1,0-.2-.02-.32-.02-.25-.03-.53-.05-.81h0ZM121.13,378.4h-.06c-2.7,0-5.23-1.05-7.12-2.94-1.98-1.99-3.08-4.67-3.07-7.54,0-2.69,1.06-5.24,3.03-7.19,1.95-1.95,4.53-3.02,7.25-3.03h.02c5.69,0,10.33,4.6,10.34,10.25.02,5.82-4.55,10.41-10.39,10.45h0Z"/>
        <circle class="cls-9" cx="121.2" cy="368.06" r="1.36"/>
      </g>
    </g>
  </g>
</svg>