<?xml version="1.0" encoding="UTF-8"?>
<svg id="Laag_2" data-name="Laag 2" xmlns="http://www.w3.org/2000/svg" viewBox="0 0 113.5 54.7">
  <defs>
    <style>
      .cls-1 {
        fill: #fff;
      }
    </style>
  </defs>
  <g id="Laag_1-2" data-name="Laag 1">
    <g>
      <path class="cls-1" d="M32.3,44.4v-4.3c0-.2-.1-.3-.3-.3h-1.9c-.2,0-.3.1-.3.3v1.9c0,.2-.1.3-.3.3h-1.9c-.2,0-.3.1-.3.3v1.9c0,.2.1.3.3.3h4.3c.2,0,.3-.1.3-.3l.1-.1Z"/>
      <path class="cls-1" d="M20.2,0h4.3c.2,0,.3.1.3.3v1.9c0,.2-.1.3-.3.3h-4.3c-.2,0-.3-.1-.3-.3V.3c0-.2.1-.3.3-.3Z"/>
      <path class="cls-1" d="M27.6,0h1.9c.2,0,.3.1.3.3v1.9c0,.2-.1.3-.3.3h-1.9c-.2,0-.3-.1-.3-.3V.3c0-.2.1-.3.3-.3Z"/>
      <path class="cls-1" d="M20.2,9.9h4.3c.2,0,.3-.1.3-.3v-1.9c0-.2-.1-.3-.3-.3h-1.9c-.2,0-.3-.1-.3-.3v-1.9c0-.2-.1-.3-.3-.3h-1.9c-.2,0-.3.1-.3.3v4.3c0,.2.1.3.3.3l.1.1Z"/>
      <path class="cls-1" d="M10.2,5h4.3c.2,0,.3.1.3.3v1.9c0,.2.1.3.3.3h1.9c.2,0,.3-.1.3-.3v-1.9c0-.2-.1-.3-.3-.3h-1.9c-.2,0-.3-.1-.3-.3v-1.9c0-.2-.1-.3-.3-.3h-4.3c-.2,0-.3.1-.3.3v1.9c0,.2.1.3.3.3Z"/>
      <rect class="cls-1" x="5" y="7.4" width="2.5" height="2.5" rx=".3" ry=".3"/>
      <path class="cls-1" d="M10.2,7.4h1.9c.2,0,.3.1.3.3v1.9c0,.2-.1.3-.3.3h-1.9c-.2,0-.3-.1-.3-.3v-1.9c0-.2.1-.3.3-.3Z"/>
      <rect class="cls-1" x="7.5" y="14.9" width="2.5" height="2.5" rx=".3" ry=".3"/>
      <rect class="cls-1" x="7.5" y="24.8" width="2.5" height="2.5" rx=".3" ry=".3"/>
      <path class="cls-1" d="M12.7,29.8h1.9c.2,0,.3.1.3.3v1.9c0,.2-.1.3-.3.3h-1.9c-.2,0-.3-.1-.3-.3v-1.9c0-.2.1-.3.3-.3Z"/>
      <path class="cls-1" d="M17.7,32.3h1.9c.2,0,.3.1.3.3v4.3c0,.2-.1.3-.3.3h-1.9c-.2,0-.3-.1-.3-.3v-4.3c0-.2.1-.3.3-.3Z"/>
      <rect class="cls-1" x="5" y="29.8" width="5" height="2.5" rx=".3" ry=".3"/>
      <path class="cls-1" d="M2.8,37.2h4.3c.2,0,.3.1.3.3v1.9c0,.2-.1.3-.3.3H2.8c-.2,0-.3-.1-.3-.3v-1.9c0-.2.1-.3.3-.3Z"/>
      <path class="cls-1" d="M10.2,37.2h4.3c.2,0,.3.1.3.3v1.9c0,.2-.1.3-.3.3h-4.3c-.2,0-.3-.1-.3-.3v-1.9c0-.2.1-.3.3-.3Z"/>
      <path class="cls-1" d="M10.2,49.7h4.3c.2,0,.3.1.3.3v1.9c0,.2-.1.3-.3.3h-4.3c-.2,0-.3-.1-.3-.3v-1.9c0-.2.1-.3.3-.3Z"/>
      <path class="cls-1" d="M.3,19.9h1.9c.2,0,.3.1.3.3v1.9c0,.2-.1.3-.3.3H.3c-.2,0-.3-.1-.3-.3v-1.9c0-.2.1-.3.3-.3Z"/>
      <path class="cls-1" d="M5.3,19.9h1.9c.2,0,.3.1.3.3v1.9c0,.2-.1.3-.3.3h-1.9c-.2,0-.3-.1-.3-.3v-1.9c0-.2.1-.3.3-.3Z"/>
      <rect class="cls-1" x="5" y="42.2" width="2.5" height="2.5" rx=".3" ry=".3"/>
      <path class="cls-1" d="M20.2,52.1h1.9c.2,0,.3.1.3.3v1.9c0,.2-.1.3-.3.3h-1.9c-.2,0-.3-.1-.3-.3v-1.9c0-.2.1-.3.3-.3Z"/>
      <path class="cls-1" d="M17.4,12.7c0-.2-.1-.3-.3-.3h-4.3c-.2,0-.3.1-.3.3v1.9c0,.2.1.3.3.3h4.3c.2,0,.3.1.3.3v1.9c0,.2.1.3.3.3h4.3c.2,0,.3-.1.3-.3v-1.9c0-.2.1-.3.3-.3h1.9c.2,0,.3-.1.3-.3v-1.9c0-.2-.1-.3-.3-.3h-1.9c-.2,0-.3.1-.3.3v1.9c0,.2-.1.3-.3.3h-4.3c-.2,0-.3-.1-.3-.3,0,0,0-1.9,0-1.9Z"/>
      <path class="cls-1" d="M20.2,24.8h1.9c.2,0,.3-.1.3-.3v-4.3c0-.2-.1-.3-.3-.3h-6.8c-.2,0-.3-.1-.3-.3v-1.9c0-.2-.1-.3-.3-.3h-1.9c-.2,0-.3.1-.3.3v1.9c0,.2.1.3.3.3h1.9c.2,0,.3.1.3.3v1.9c0,.2-.1.3-.3.3h-1.9c-.2,0-.3.1-.3.3v1.9c0,.2.1.3.3.3h4.3c.2,0,.3-.1.3-.3v-1.9c0-.2.1-.3.3-.3h1.9c.2,0,.3.1.3.3v1.9c0,.2.1.3.3.3v-.1Z"/>
      <path class="cls-1" d="M19.9,40c0-.2-.1-.3-.3-.3h-1.9c-.2,0-.3.1-.3.3v1.9c0,.2-.1.3-.3.3h-6.8c-.2,0-.3.1-.3.3v1.9c0,.2.1.3.3.3h1.9c.2,0,.3.1.3.3v1.9c0,.2.1.3.3.3h4.3c.2,0,.3-.1.3-.3v-4.3c0-.2.1-.3.3-.3h1.9c.2,0,.3-.1.3-.3v-2Z"/>
      <path class="cls-1" d="M27,49.7h-1.9c-.2,0-.3-.1-.3-.3v-4.3c0-.2-.1-.3-.3-.3h-4.3c-.2,0-.3.1-.3.3v1.9c0,.2.1.3.3.3h1.9c.2,0,.3.1.3.3v1.9c0,.2.1.3.3.3h1.9c.2,0,.3.1.3.3v1.9c0,.2.1.3.3.3h1.9c.2,0,.3-.1.3-.3v-1.9c0-.2-.1-.3-.3-.3l-.1-.1Z"/>
      <path class="cls-1" d="M53.2,23c-.5-.9,0-2,.5-2.6,1.2-1.3,1.1-1.7.6-2.3-.2-.3-.4-.5-.5-1.2-.4-2.5-2.8-7.9-6-10.4C46.7.4,39.2,0,35,0c-.2,0-.3.1-.3.3v1.9c0,.2-.1.3-.3.3h-1.9c-.2,0-.3.1-.3.3v1.9c0,.2-.1.3-.3.3h-4.3c-.2,0-.3.1-.3.3v1.9c0,.2.1.3.3.3h4.3c.2,0,.3-.1.3-.3v-1.9c0-.2.1-.3.3-.3h4.3c.2,0,.3.1.3.3v1.9c0,.2.1.3.3.3h1.9c.2,0,.3.1.3.3v1.9c0,.2-.1.3-.3.3h-4.3c-.2,0-.3-.1-.3-.3v-1.9c0-.2-.1-.3-.3-.3h-1.9c-.2,0-.3.1-.3.3v1.9c0,.2-.1.3-.3.3h-4.3c-.2,0-.3.1-.3.3v4.3c0,.2.1.3.3.3h1.9c.2,0,.3-.1.3-.3v-1.9c0-.2.1-.3.3-.3h4.3c.2,0,.3.1.3.3v1.9c0,.2-.1.3-.3.3h-1.9c-.2,0-.3.1-.3.3v1.9c0,.2-.1.3-.3.3h-1.9c-.2,0-.3.1-.3.3v1.9c0,.2-.1.3-.3.3h-1.9c-.2,0-.3-.1-.3-.3v-1.9c0-.2-.1-.3-.3-.3h-1.9c-.2,0-.3.1-.3.3v6.8c0,.2.1.3.3.3h1.9c.2,0,.3-.1.3-.3v-1.9c0-.2.1-.3.3-.3h1.9c.2,0,.3.1.3.3v1.9c0,.2-.1.3-.3.3h-1.9c-.2,0-.3.1-.3.3v1.9c0,.2.1.3.3.3h1.9c.2,0,.3.1.3.3v1.9c0,.2-.1.3-.3.3h-4.3c-.2,0-.3-.1-.3-.3v-1.9c0-.2-.1-.3-.3-.3h-4.3c-.2,0-.3.1-.3.3v1.9c0,.2.1.3.3.3h4.3c.2,0,.3.1.3.3v1.9c0,.2-.1.3-.3.3h-1.9c-.2,0-.3.1-.3.3v1.9c0,.2.1.3.3.3h1.9c.2,0,.3.1.3.3v4.3c0,.2-.1.3-.3.3h-1.9c-.2,0-.3.1-.3.3v1.9c0,.2.1.3.3.3h1.9c.2,0,.3-.1.3-.3v-1.9c0-.2.1-.3.3-.3h1.9c.2,0,.3-.1.3-.3v-4.3c0-.2-.1-.3-.3-.3h-1.9c-.2,0-.3-.1-.3-.3v-1.9c0-.2.1-.3.3-.3h4.3c.2,0,.3-.1.3-.3v-1.9c0-.2.1-.3.3-.3h1.9c.2,0,.3.1.3.3v1.9c0,.2.1.3.3.3h1.9c.2,0,.3.1.3.3v1.9c0,.2-.1.3-.3.3h-4.3c-.2,0-.3.1-.3.3v1.9c0,.2.1.3.3.3h4.3c.2,0,.3.1.3.3v6.8c0,.2.1.3.3.3h1.9c.2,0,.3-.1.3-.3v-1.9c0-.2.1-.3.3-.3h1.9c.2,0,.3.1.3.3v1.9c0,.2-.1.3-.3.3h-1.9c-.2,0-.3.1-.3.3v1.9c0,.2-.1.3-.3.3h-6.8c-.2,0-.3.1-.3.3v1.9c0,.2.1.3.3.3h1.9c.2,0,.3.1.3.3v1.9c0,.2-.1.3-.3.3h-1.9c-.2,0-.3.1-.3.3v1.9c0,.2.1.3.3.3h10.6c0-3.2,1-5.4,2.3-6.8,1.3-1.4,6-1.7,8.8-1.8,2.6,0,3.6-2.4,3.3-3.4-.3-1-.4-2.1.5-3,1-1.1.7-2.7-.8-2.8,2.4-1.2,1.8-1.4,1.2-2.9-.5-1.5.4-1.7,1.2-2.2,1.7-1,1.3-2.3.6-3.1-.9-1-3.9-4.5-4.5-5.6l-.1-.1ZM37.3,12.7c0-.2.1-.3.3-.3h1.9c.2,0,.3.1.3.3v1.9c0,.2-.1.3-.3.3h-1.9c-.2,0-.3-.1-.3-.3v-1.9ZM35.1,24.8c-.2,0-.3.1-.3.3v1.9c0,.2-.1.3-.3.3h-1.9c-.2,0-.3-.1-.3-.3v-1.9c0-.2.1-.3.3-.3h1.9c.2,0,.3-.1.3-.3v-1.9c0-.2-.1-.3-.3-.3h-1.9c-.2,0-.3-.1-.3-.3v-1.9c0-.2.1-.3.3-.3h1.9c.2,0,.3.1.3.3v1.9c0,.2.1.3.3.3h4.3c.2,0,.3.1.3.3v1.9c0,.2-.1.3-.3.3h-4.3ZM37.3,32v-1.9c0-.2.1-.3.3-.3h1.9c.2,0,.3-.1.3-.3v-1.9c0-.2.1-.3.3-.3h1.9c.2,0,.3.1.3.3v1.9c0,.2-.1.3-.3.3h-1.9c-.2,0-.3.1-.3.3v1.9c0,.2-.1.3-.3.3h-1.9c-.2,0-.3-.1-.3-.3ZM42.2,39.4c0,.2-.1.3-.3.3h-4.3c-.2,0-.3-.1-.3-.3v-1.9c0-.2.1-.3.3-.3h4.3c.2,0,.3.1.3.3v1.9ZM44.7,17.1c0,.2-.1.3-.3.3h-1.9c-.2,0-.3-.1-.3-.3v-1.9c0-.2.1-.3.3-.3h1.9c.2,0,.3.1.3.3v1.9Z"/>
      <path class="cls-1" d="M109.8,15.8h0c-2.1-1.1-4.5-1.1-7.5-1.1h-8.5c-.2,0-.4.2-.4.4v1.9c0,.2.2.4.4.4h1.5v19.6h-1.5c-.2,0-.4.2-.4.4v1.9c0,.2.2.4.4.4h6.5c.2,0,.4-.2.4-.4v-1.9c0-.2-.2-.4-.4-.4h-1.5v-6.5h3.3c3.4,0,6.1-.6,8-1.7,2.2-1.4,3.4-3.5,3.4-6.4s-1.3-5.4-3.6-6.7l-.1.1ZM107.7,26.7c-1.3.8-3.3,1.1-6.3,1.1s-2.3,0-2.7,0v-10.3h3.6c2.2,0,3.7.2,4.8.6,1.7.7,2.6,2.1,2.6,4.3s-.6,3.4-2,4.2v.1Z"/>
      <path class="cls-1" d="M90.7,37.1h-1.6l-8.8-22.3c0-.2-.2-.3-.4-.3h-2.7c-.2,0-.3.1-.4.3l-8.9,22.3h-1.6c-.2,0-.4.2-.4.4v1.9c0,.2.2.4.4.4h6.6c.2,0,.4-.2.4-.4v-1.9c0-.2-.2-.4-.4-.4h-1.5l1.8-4.7h10.5l1.8,4.7h-1.5c-.2,0-.4.2-.4.4v1.9c0,.2.2.4.4.4h6.7c.2,0,.4-.2.4-.4v-1.9c0-.2-.2-.4-.4-.4ZM74.2,29.7l4.2-10.8,4.1,10.8h-8.4.1Z"/>
    </g>
  </g>
</svg>