<?xml version="1.0" encoding="UTF-8"?>
<svg id="Laag_2" data-name="Laag 2" xmlns="http://www.w3.org/2000/svg" viewBox="0 0 189.01 542.77">
  <defs>
    <style>
      .cls-1 {
        stroke: #7ba69b;
      }

      .cls-1, .cls-2, .cls-3 {
        fill: #fff;
        stroke-miterlimit: 10;
        stroke-width: 4px;
      }

      .cls-2 {
        stroke: #58b995;
      }

      .cls-4 {
        fill: #c2dfcf;
      }

      .cls-3 {
        stroke: #c2dfcf;
      }

      .cls-5 {
        fill: #13261f;
      }

      .cls-6 {
        fill: #d9ede7;
      }

      .cls-7 {
        fill: #e0efe7;
      }

      .cls-8 {
        fill: #58b995;
      }
    </style>
  </defs>
  <g id="Laag_1-2" data-name="Laag 1">
    <g>
      <g>
        <rect class="cls-2" x="2.5" y="2" width="182.51" height="163.27" rx="22.68" ry="22.68"/>
        <g>
          <circle class="cls-6" cx="91.95" cy="83.63" r="54.16" transform="translate(-32.21 89.51) rotate(-45)"/>
          <g>
            <path class="cls-5" d="M70.62,82.78s.87,1.94.01,3.24c-.86,1.31-3.42,1.23-3.71,3.95-.3,2.72.32,3.76,1.56,5.75s.3,3.19,1.69,4.15c1.39.96,4.64,1.53,4,4.01-.64,2.48-1.78,7.09-1.18,8.22.6,1.13-.16,1.12-.36,2.52-.2,1.4,1.79,2.83,1.62,4.62-.16,1.79-1.94,3.54-.78,5.42s1.45,1.16,1.97,2.86c.52,1.7.89,2.42,1.81,2.64.92.23,2.42.44,2.96,1.28.55.84,1.91-.68.99-1.57-.92-.89-2.11-.59-1.76-2.35.35-1.76,1.38-2.28-.02-3.15s-1.16-1.88-.59-1.9c.57-.01,1.9-.59.79-1.51s-1.45-1.16-.6-1.13c.85.03,3.5.88,5.82-1.36s4.42-4.89,4.42-4.89c0,0,.7-1.52.44-3.08-.25-1.56.95-1.96,3.02-1.76s1.83-.79,1.83-.79c0,0,1.83,1.88,2.45-5.75,0,0-.11-1.25,2.24-2.35,2.35-1.09.36-3.86-.97-3.86,0,0-.52-1.7-1.63-1.95-1.11-.25-3.63.05-4.66-.76s-2.45-1.5-2.45-1.5c0,0,1.26-5.44-4.08-5.45,0,0-.77-3.92-3.45-3.83-2.68.09-3,.33-3.39-.3-.39-.63-.89-3.08-2.77-2.59-1.88.49-2.32,2.91-4.15,2.36-1.83-.55-4.14-.4-3.59-2.23.55-1.83.86-3.98-2-4.01,0,0-.72-.29.47-1.27,1.19-.97.64-2.48-.04-2.39s-2.7,1.52-3.66,1.57-4.03-.48-2.35-4.25c1.68-3.76,9.75-4.13,10.33-2.23.59,1.9-.1,2.66,1.79,2.83,1.88.18,1.31-3.15,1.31-3.15l5.13-3.17s.53-.4.91-1.01,6.62-3.62,7.97-5.72c1.35-2.09,1.8-3.27,3.58-2.35,1.77.92,2.51,1.12,2.96-.05.45-1.17,2.79,1.83,3.74.54.95-1.29.51-2.88-1.45-3.16s.6-2.2-.18-2.7c-.79-.49-2.27,1.2-3.03.52-.76-.68.84-3.22-1.72-3.3s-2.88.16-3.67,3c-.79,2.84-1.91.01-3.93,2.11-2.02,2.09-1.55.83-1.75-.44-.2-1.27-1.59-2.23-3-2.34-1.41-.11-.85-2.7,1.23-3.26,2.08-.56,4.61-1.53,4.61-1.53,0,0,.23,1.75,1.72,1.3,1.5-.45,2-2,2-2l1.49.21s1.02-1.09,1.31-1.15c.29-.05,3.36.48,3.36.48,0,0,1.74-.13.09.68-1.64.81-2.64-.19-2.28,1.29.36,1.48.48.64,1.57,1.66,1.09,1.02,2.84.79,3.23-.58,0,0,2.25.9,2.75-.56.5-1.45-.68-1.91-.68-1.91,0,0-.2-1.94-2.21-3.18-2.01-1.24-7.11-2.26-7.59.43-.48,2.7-2.52.97-2.52.97,0,0,1.23-.59,1.44-2.08.21-1.49-3.79-2.17-3.88-.84-.09,1.32.87,1.94-.22,2.16-1.08.23-2.08.56-3.43.65s-1.49-1.55-1.49-1.55c0,0,1.03.15,2.51-.21,1.48-.36,2.35-1.76.71-2.28-1.64-.52.11,1.25-3.54.73,0,0-.45-.16-.85-1.36-.4-1.2-3.75-1.78-4.95-.71s-.56,1.92.44,2.26-.43.99,1.15,1.31,2.22.51,1.77.92c-.44.41-8.31-1.86-8.15-3.65,0,0-15.81,7.17-22.12,21.9,0,0,.16.88,1.17,1.12s1.67.34,1.29,2.28-.97,6.06,1.64,6.53c2.6.47,1.3-1.72.68-2.76s-1.01-4.24.5-3.46c1.51.79-.71.95,1.54,5.18,2.25,4.23-1.23,3.92,1.48,6.98,2.71,3.06,4.22-.16,5.11.93.89,1.08.04,1.72,1.81,1.98,1.77.26,1.03-.52,1.83,1.22.8,1.74,1.36,5.15,6.59,3.9Z"/>
            <path class="cls-5" d="M88.7,57.82s-1.42.56-.76,1.32c.65.76,2.43.35.76-1.32Z"/>
            <path class="cls-5" d="M90.78,55.26s-.83-.21-.96.72c-.13.93,1.41,1.44,1.89.75.48-.69-.93-1.47-.93-1.47Z"/>
            <path class="cls-5" d="M93.1,57.03s-.69.85-1.47.93c-.77.08-1.79-.16-1.23,1.25s1.82-.03,1.82-.03c0,0,2.76-.65.88-2.16Z"/>
            <path class="cls-5" d="M96.07,55.64s-2.44-.26-1.38,1.61c0,0,.71.39,1.37,1.06.67.67,2.35.91,2.5-.12.15-1.03-.25-2.23-2.49-2.55Z"/>
            <path class="cls-5" d="M120.84,69.69s-4.38-1.39-5.82,1.36c-1.44,2.75-.83,3.12-4.9,4.25s-.99,3.58-.99,3.58c0,0,1.31.86-.26,1.77-1.56.92-2.23,3.59-1.51,5.22.72,1.63,2.87,5.27,4.39,5.97,1.52.7,5.92,1.23,6.85.13.92-1.11,1.71-1.28,2.88-.16,1.17,1.12,5.08.44,4.64,1.53s-2.5,3.45-.91,6.35c1.59,2.9,2.69,5.15.85,6.7s-1.75,3.56-.1,5.33c0,0-1.3,3.72-.1,5.33,1.2,1.6.98,3.76.54,4.85s.03.48.03.48c0,0-.34,1.67.56.75.89-.92,20.54-18.21,17.24-46.34,0,0-4.74.46-5.2-.94-.47-1.4-2.01-1.91-5.14-1.41-3.12.5-1.89-.75-2.98-1.19s-2.26-.23-2.26-.23c0,0,3.19-5.64-7.82-3.32Z"/>
            <path class="cls-5" d="M122.5,62.78s.57,1.99-.79,1.51c-1.36-.48-4.9-1.75-5.09,1.56-.19,3.31,2.77,3.26,5.34,2.67s3.86-3.64,3.86-3.64c0,0,2.57,1.32,3.58-.34,0,0,1.08,3.11,2.64,3.53,0,0-1.47.27-1.2,1.73.27,1.47,4.56.75,3.63-2.05s-5.28-2.38-2.68-3.91c2.6-1.53,3.79,2.83,3.81,3.98.03,1.15-.94,3.87,1.31,2.86,2.24-1.01,1.77-4.32,2.47-2.6.71,1.72-.62,3.63,1.45,3.83,2.07.2,2.62.38,2.62.38,0,0-3.55-13.76-11.18-22.39,0,0-.05,1.04-1.98,1.15s-3.11,2.41-1.79,3.84c1.32,1.43,3.34.67,3.28,1.71s-.42,1.56-1.94.87c-1.52-.7-2.5-.55-2.88.83-.39,1.37-1.02,2.43-2.08,1.89s-3.58.34-2.38,2.61Z"/>
            <path class="cls-5" d="M119.14,54.95s-2.16,1.12-.42,2.9,2.22-2.16,3.12-1.84c.91.32.87,1.27.25,1.56-.61.29-1.82,1.36-.63,1.72,1.19.36,4.06.96,4.02-.76-.04-1.72-1.35-1.91-1.35-1.91,0,0-1.31-1.52-.36-2.82,0,0,.08-1.23-1.35-1.24-1.43-.01-1.39,2.37-1.68,2.43-.29.05-1.61-.04-1.61-.04Z"/>
          </g>
        </g>
      </g>
      <g>
        <rect class="cls-3" x="4.5" y="377.51" width="182.51" height="163.27" rx="22.68" ry="22.68"/>
        <g id="Objects">
          <g>
            <path class="cls-8" d="M106.5,501.15l.84,9.66c.17,1.99-1.48,3.64-3.46,3.47l-3.28-.29c-1.22-.11-2.27-.91-2.7-2.06-.92-2.44-2.68-6.92-4.79-11.33-3.08-.6-5.97-2.17-8.15-4.45-1.91-2.01-3.25-4.56-3.86-7.28l11.83-3.2,13.57,15.48Z"/>
            <path class="cls-5" d="M93.76,487.95c2.75,8.41,10.63,14.47,19.91,14.47,9.96,0,18.29-6.98,20.43-16.33,0,0-8.46-10.86-24.08-8.99-13.52,1.63-16.26,10.84-16.26,10.84h0Z"/>
            <path class="cls-7" d="M146.51,464.15c0-3.29-1.62-6.19-4.11-7.96,1.4-1.69,2.24-3.86,2.24-6.23,0-4.7-3.32-8.62-7.73-9.53.31-1.08.48-2.22.48-3.41,0-6.73-5.43-12.19-12.12-12.19-.74,0-1.46.07-2.16.2-1.06.19-2.07.52-3.01.97h0c-.25-6.51-5.58-11.7-12.11-11.7-2.66,0-5.12.86-7.12,2.33-3.09-3.15-7.38-5.11-12.13-5.11s-8.64,1.77-11.69,4.67c-1.75-1.19-3.86-1.89-6.13-1.89-4.53,0-8.41,2.76-10.08,6.7-1.5-.74-3.18-1.16-4.96-1.16-6.22,0-11.25,5.06-11.25,11.31,0,.47.03.93.09,1.39-.36-.04-.73-.05-1.1-.05-6.05,0-10.95,4.93-10.95,11,0,.99.13,1.95.38,2.86-2.57,1.75-4.25,4.71-4.25,8.06,0,2.18.71,4.19,1.92,5.82.06.09.13.17.2.26-.53.91-.92,1.9-1.14,2.97-.13.64-.2,1.29-.2,1.97,0,5.38,4.33,9.73,9.68,9.73.69,0,1.37-.07,2.02-.21,1.41,3.62,4.92,6.18,9.01,6.18.64,0,1.26-.06,1.86-.18,1.01-.2,1.96-.55,2.83-1.04,0,.02.02.04.03.06,0,0,0,0,0,.01,1.83,4.06,5.89,6.88,10.6,6.88,2.32,0,4.47-.68,6.29-1.86,3.34,2.61,8.25,4.27,13.71,4.27,6.16,0,11.61-2.1,14.91-5.32.75-.73,1.39-1.51,1.9-2.34,1.63,1.26,3.67,2.01,5.89,2.01s4.39-.8,6.05-2.14c0,0,0,0,0,0,.05-.04.1-.08.15-.13.6.78,1.33,1.5,2.17,2.15,2.8,2.17,6.8,3.52,11.24,3.52,8.48,0,15.35-4.95,15.35-11.05,0-1.34-.34-2.63-.95-3.82,2.52-1.76,4.16-4.68,4.16-8h0Z"/>
            <path class="cls-4" d="M97.45,425.94c-3.43.33-5.85,1.5-7.19,3.47-2.2,3.23-.95,7.71-.94,7.76.13.47.03.98-.27,1.36-.3.38-.77.6-1.26.57-3.82-.2-6.63.67-8.36,2.58-2.7,2.99-2.01,7.71-2,7.75.07.43-.06.87-.34,1.21-.28.33-.7.53-1.13.54-3.55.05-6.19,1.06-7.86,2.99-2.69,3.12-2.1,7.77-2.1,7.82.11.82-.45,1.57-1.26,1.7-4.18.65-7.15,2.58-8.81,5.74-2.27,4.31-1.44,9.25-.95,10.48h0c-.87.49-1.82.84-2.83,1.04-.88-2.41-1.4-8.16,1.11-12.93,1.91-3.63,5.23-6.05,9.66-7.06-.02-2.02.34-5.78,2.87-8.74,1.98-2.31,4.85-3.65,8.54-3.98-.03-2.1.33-5.76,2.85-8.56,2.04-2.27,5.02-3.48,8.87-3.61-.25-2.08-.24-5.46,1.7-8.33,1.87-2.76,5.04-4.38,9.41-4.8.83-.08,1.57.53,1.65,1.36.08.83-.53,1.57-1.36,1.65h0Z"/>
            <path class="cls-4" d="M102.42,481.61c-.51.83-1.15,1.62-1.9,2.34-1.1-.75-1.96-1.51-2.55-2.1-.66.4-1.57.87-2.66,1.2-2.17.66-5.51.92-9.04-1.58-.68-.48-.84-1.43-.36-2.11.48-.68,1.43-.84,2.11-.36,4.8,3.4,9.01-.13,9.19-.29.31-.28.72-.41,1.14-.36s.79.25,1.05.59c0,0,1.04,1.38,3.03,2.67h0Z"/>
            <path class="cls-4" d="M120.17,479.48c-.97,1.9-2.71,3.41-3.47,4.02-.84-.65-1.57-1.37-2.17-2.15l.05-.03s2.01-1.46,2.9-3.21c.38-.74,1.29-1.04,2.03-.66s1.04,1.29.66,2.03h0Z"/>
            <path class="cls-4" d="M109.49,468.97c-1.53,0-2.71-.35-2.86-.4-.8-.25-1.24-1.1-.99-1.9.25-.79,1.1-1.23,1.89-.99.04.01,1.36.4,2.79.21,1.7-.23,2.79-1.17,3.33-2.89.25-.8,1.1-1.24,1.9-.99s1.24,1.1.99,1.9c-.91,2.87-3.01,4.64-5.93,4.99-.38.05-.75.06-1.11.06h0Z"/>
            <path class="cls-4" d="M125.64,471.93c-.66,0-1.27-.44-1.46-1.11-.22-.8.25-1.63,1.05-1.85.31-.09,2.99-.97,2.99-4.12s-2.58-4.39-2.77-4.47c-.57-.21-.95-.74-.98-1.35-.02-.61.34-1.18.9-1.43.14-.07,3.65-1.76,3.65-5.96,0-3.28-3.21-4.23-3.34-4.27-.81-.22-1.28-1.05-1.06-1.85.22-.81,1.05-1.28,1.86-1.06,1.92.52,5.56,2.7,5.56,7.18,0,3.65-1.81,5.99-3.34,7.32,1.24,1.11,2.54,2.98,2.54,5.9,0,4.43-3.41,6.54-5.21,7.03-.13.04-.27.05-.4.05h0Z"/>
            <path class="cls-4" d="M85.72,465.65c-.82,0-1.5-.67-1.51-1.49,0-.15-.03-3.73,2.77-6.2,1.88-1.66,4.51-2.4,7.82-2.19.31-1.76,1.15-4.58,3.47-6.63,2.23-1.97,5.25-2.76,8.98-2.34.83.09,1.43.84,1.33,1.67-.09.83-.84,1.43-1.67,1.33-2.83-.32-5.06.22-6.63,1.59-2.54,2.22-2.64,6.02-2.64,6.06,0,.43-.2.84-.53,1.12-.33.28-.76.41-1.19.35-3.12-.44-5.45,0-6.92,1.28-1.76,1.53-1.77,3.9-1.77,3.92.01.83-.65,1.52-1.49,1.53h-.02,0Z"/>
            <path class="cls-4" d="M46.83,454.88s-.04,0-.06,0c-.83-.03-1.48-.74-1.45-1.58,0-.11.14-2.84,1.9-5.52,1.48-2.26,4.39-4.89,9.97-5.25-.07-1.92.16-5.07,2.02-7.77,1.65-2.4,4.21-3.92,7.58-4.52.82-.15,1.61.4,1.75,1.22s-.4,1.61-1.22,1.75c-2.54.45-4.43,1.54-5.61,3.24-2.13,3.07-1.39,7.23-1.38,7.27.08.45-.04.91-.33,1.25-.29.35-.73.54-1.18.54-4.21-.08-7.24,1.21-9.01,3.82-1.35,1.99-1.47,4.08-1.47,4.1-.03.81-.7,1.44-1.51,1.44h0Z"/>
            <path class="cls-4" d="M37.65,465.26c-.15.71-.78,1.19-1.48,1.19-.11,0-.21-.01-.32-.03-2.65-.57-4.69-1.83-6.08-2.96.22-1.06.61-2.06,1.14-2.97h0c.88.79,2.75,2.37,5.57,2.97.82.18,1.33.98,1.16,1.8h0Z"/>
            <path class="cls-4" d="M122.04,432.99c-.24.62-.55,1.2-.86,1.7-.54.87-1.77.95-2.43.16h0c-.38-.46-.45-1.11-.17-1.64.59-1.16,1.51-3.54,1.52-7.22.94-.45,1.95-.78,3.01-.97.08,3.2-.28,5.88-1.08,7.96h0Z"/>
            <path class="cls-8" d="M113.25,492.14c-3.44,0-6.89-.65-10.06-1.92-.78-.31-1.15-1.19-.84-1.96s1.19-1.15,1.96-.84c4.27,1.71,9.11,2.15,13.62,1.24.82-.16,1.62.36,1.78,1.18.16.82-.36,1.62-1.18,1.78-1.73.35-3.5.52-5.28.52Z"/>
            <path class="cls-8" d="M114.28,497.39c-3.25,0-6.52-.58-9.56-1.72-.78-.29-1.18-1.16-.89-1.94.29-.78,1.16-1.18,1.94-.89,3.31,1.23,6.91,1.74,10.43,1.45.83-.07,1.56.55,1.63,1.38.07.83-.55,1.56-1.38,1.63-.72.06-1.45.09-2.17.09h0Z"/>
          </g>
        </g>
      </g>
      <g>
        <rect class="cls-1" x="2" y="190.85" width="182.51" height="163.27" rx="22.68" ry="22.68"/>
        <g id="Layer_1" data-name="Layer 1">
          <g>
            <g>
              <g>
                <path class="cls-5" d="M145.38,234.61l-42.48-23.37c-.88-.48-1.2-1.58-.71-2.46s1.58-1.2,2.46-.71l42.48,23.37c.88.48,1.2,1.58.71,2.46s-1.58,1.2-2.46.71h0Z"/>
                <path class="cls-8" d="M138.76,240.69l-37.44-20.6c-.82-.45-1.12-1.49-.67-2.31s1.49-1.12,2.31-.67l37.44,20.6c.82.45,1.12,1.49.67,2.31s-1.49,1.12-2.31.67Z"/>
                <path class="cls-8" d="M89.05,337.02l-42.48-23.37c-.88-.48-1.2-1.58-.71-2.46s1.58-1.2,2.46-.71l42.48,23.37c.88.48,1.2,1.58.71,2.46s-1.58,1.2-2.46.71h0Z"/>
                <path class="cls-5" d="M90.74,327.98l-37.44-20.6c-.82-.45-1.12-1.49-.67-2.31s1.49-1.12,2.31-.67l37.44,20.6c.82.45,1.12,1.49.67,2.31s-1.49,1.12-2.31.67Z"/>
              </g>
              <g>
                <path class="cls-8" d="M110.21,292.66l-37.73-20.76c-.83-.45-1.13-1.49-.67-2.32s1.49-1.13,2.32-.67l37.74,20.76c.83.45,1.13,1.49.67,2.32s-1.49,1.13-2.32.67h0Z"/>
                <path class="cls-8" d="M101.42,298.66h-.01s-28.94-16.27-28.94-16.27c-.72-.4-.97-1.31-.57-2.03.4-.72,1.3-.97,2.02-.58h.01s28.94,16.27,28.94,16.27c.72.4.97,1.31.57,2.03-.4.72-1.3.97-2.02.58Z"/>
                <path class="cls-5" d="M121.43,265.98l-32.42-17.83c-.76-.42-1.05-1.38-.62-2.15s1.38-1.05,2.15-.62l32.42,17.83c.76.42,1.05,1.38.62,2.15s-1.38,1.05-2.15.62h0Z"/>
                <path class="cls-8" d="M119.42,275.92l-37.73-20.76c-.83-.45-1.13-1.49-.67-2.32s1.49-1.13,2.32-.67l37.74,20.76c.83.45,1.13,1.49.67,2.32s-1.49,1.13-2.32.67h0Z"/>
                <path class="cls-5" d="M116.19,285.35h-.01s-40.31-22.66-40.31-22.66c-.85-.48-1.15-1.55-.67-2.4.47-.84,1.54-1.15,2.38-.68h.01s40.31,22.66,40.31,22.66c.85.48,1.15,1.55.67,2.4-.47.84-1.54,1.15-2.38.68h0Z"/>
              </g>
            </g>
            <path class="cls-8" d="M103.09,300.82c-14.86,5.65-25.28,5.19-33.66,4.8-.74-.04-1.45-.07-2.14-.09-8.91-.36-14.77.15-23,10.53-1.12,1.41-3.06,1.76-4.58.92-.17-.09-.34-.2-.51-.33-1.57-1.25-1.84-3.52-.59-5.09,9.91-12.48,18.31-13.57,27.55-13.32,1.18.03,2.38.08,3.6.14,8.12.37,17.3.8,30.76-4.33,7.57-2.89,13.54-9.73,15.95-18.32,3.02-10.7.2-22.37-7.91-32.87-2.87-3.71-5.11-7.24-6.81-10.56-9.27-18.04-3.21-29.78-2.89-30.35.95-1.77,3.15-2.42,4.9-1.48l.03.02c1.72.95,2.38,3.11,1.46,4.87-.26.53-4.99,10.38,4.42,26.33,1.26,2.14,2.79,4.4,4.62,6.75,9.56,12.35,12.81,26.29,9.17,39.26-3.04,10.78-10.64,19.42-20.36,23.13h0Z"/>
            <path class="cls-8" d="M89.56,344.42c-1.52-.84-2.26-2.67-1.67-4.36,4.7-13.49,1.18-18.51-4.64-26.84-4.81-6.87-10.79-15.42-13.96-31.01-2.07-10.18,1.16-21.23,8.64-29.57,9-10.02,22.51-14.74,38.07-13.28,25.1,2.35,32.48-9.58,32.78-10.09,1-1.68,3.16-2.28,4.87-1.34l.07.04c1.72.99,2.33,3.16,1.36,4.89-.38.68-9.66,16.53-39.75,13.72-13.21-1.24-24.57,2.64-32,10.91-5.96,6.64-8.55,15.34-6.93,23.29,2.87,14.11,8.15,21.65,12.8,28.3,6.15,8.79,11.46,16.38,5.55,33.37-.66,1.89-2.72,2.89-4.61,2.23-.2-.07-.38-.15-.56-.25h0Z"/>
          </g>
        </g>
      </g>
    </g>
  </g>
</svg>