<?xml version="1.0" encoding="UTF-8"?>
<svg id="Laag_2" data-name="Laag 2" xmlns="http://www.w3.org/2000/svg" viewBox="0 0 311 305.98">
  <defs>
    <style>
      .cls-1 {
        fill: #d4b299;
      }

      .cls-2 {
        fill: #d58d61;
      }

      .cls-3 {
        fill: #935437;
      }

      .cls-4 {
        fill: #16261f;
      }

      .cls-5 {
        fill: #a0625c;
      }

      .cls-6 {
        fill: #a46442;
      }

      .cls-7 {
        fill: #e7e4dc;
      }

      .cls-8 {
        fill: #cdae90;
      }

      .cls-9 {
        fill: #9cbad3;
      }

      .cls-10 {
        fill: #ac6842;
      }

      .cls-11 {
        fill: #ffa07c;
      }

      .cls-12 {
        fill: #c57b37;
      }

      .cls-13 {
        fill: #ffd8c3;
      }

      .cls-14 {
        fill: #42302f;
      }

      .cls-15 {
        fill: #ffb069;
      }

      .cls-16 {
        fill: #7ba69b;
      }

      .cls-17 {
        fill: #d58961;
      }

      .cls-18 {
        fill: #6d362c;
      }

      .cls-19 {
        fill: #ffdbd8;
      }

      .cls-20 {
        fill: #fff;
      }

      .cls-21 {
        fill: #ac6442;
      }

      .cls-22 {
        fill: #dc6e52;
      }

      .cls-23 {
        fill: #cee3f4;
      }

      .cls-24 {
        fill: #b8e2d1;
      }

      .cls-25 {
        fill: #824b38;
      }

      .cls-26 {
        fill: #67937e;
      }

      .cls-27 {
        fill: #eca780;
      }

      .cls-28 {
        opacity: .43;
      }

      .cls-29 {
        fill: #58b995;
      }

      .cls-30 {
        fill: #ffe2dd;
      }

      .cls-31 {
        fill: #1f1f1d;
      }

      .cls-32 {
        fill: #753f3e;
      }

      .cls-33 {
        fill: #b18868;
      }

      .cls-34 {
        fill: #9d9d9c;
      }

      .cls-35 {
        fill: #f3e7dc;
      }
    </style>
  </defs>
  <g id="Laag_2-2" data-name="Laag 2">
    <g>
      <rect class="cls-7" x="145.21" y="180.66" width="86.27" height="10.27" transform="translate(-76.11 193.37) rotate(-46.25)"/>
      <rect class="cls-7" x="149.96" y="208.39" width="17.11" height="97.59"/>
      <rect class="cls-7" x="123.65" y="142.63" width="10.27" height="86.27" transform="translate(-92.7 140.64) rotate(-43.75)"/>
      <rect class="cls-7" x="62.99" y="77.38" width="6.84" height="90.96" transform="translate(-67.89 84.56) rotate(-45.69)"/>
      <rect class="cls-7" x="84.39" y="118.66" width="87.18" height="6.84" transform="translate(-48.31 136.33) rotate(-48.27)"/>
      <rect class="cls-7" x="199.11" y="119.43" width="90.97" height="6.84" transform="translate(-16.28 205.71) rotate(-44.29)"/>
      <rect class="cls-7" x="182.57" y="78.49" width="6.84" height="87.17" transform="translate(-34.07 154.73) rotate(-41.72)"/>
      <path class="cls-24" d="M136.48,154.62c0,20.79-16.84,37.63-37.62,37.63s-37.63-16.84-37.63-37.63,16.84-37.62,37.63-37.62,37.62,16.83,37.62,37.62Z"/>
      <path class="cls-7" d="M98.86,196.01c-22.82,0-41.39-18.57-41.39-41.39s18.57-41.38,41.39-41.38,41.38,18.57,41.38,41.38-18.56,41.39-41.38,41.39ZM98.86,120.76c-18.67,0-33.87,15.19-33.87,33.86s15.19,33.86,33.87,33.86,33.86-15.19,33.86-33.86-15.18-33.86-33.86-33.86Z"/>
      <path class="cls-4" d="M249.78,154.78c0,20.78-16.84,37.62-37.63,37.62s-37.63-16.84-37.63-37.62,16.85-37.63,37.63-37.63,37.63,16.84,37.63,37.63Z"/>
      <path class="cls-7" d="M212.15,196.16c-22.82,0-41.39-18.56-41.39-41.38s18.57-41.39,41.39-41.39,41.39,18.57,41.39,41.39-18.57,41.38-41.39,41.38ZM212.15,120.91c-18.67,0-33.87,15.19-33.87,33.86s15.19,33.86,33.87,33.86,33.87-15.19,33.87-33.86-15.19-33.86-33.87-33.86Z"/>
      <path class="cls-24" d="M242.62,33.86c0,17.01-13.79,30.79-30.79,30.79s-30.78-13.78-30.78-30.79,13.78-30.78,30.78-30.78,30.79,13.78,30.79,30.78Z"/>
      <path class="cls-7" d="M211.83,67.73c-18.67,0-33.87-15.19-33.87-33.87S193.15,0,211.83,0s33.87,15.19,33.87,33.86-15.19,33.87-33.87,33.87ZM211.83,6.16c-15.27,0-27.7,12.43-27.7,27.7s12.43,27.71,27.7,27.71,27.71-12.43,27.71-27.71-12.42-27.7-27.71-27.7h0Z"/>
      <path class="cls-4" d="M129.75,33.96c0,17.01-13.78,30.78-30.79,30.78s-30.78-13.77-30.78-30.78S81.96,3.18,98.96,3.18s30.79,13.77,30.79,30.78Z"/>
      <path class="cls-7" d="M98.96,67.82c-18.67,0-33.87-15.19-33.87-33.86S80.28.1,98.96.1s33.87,15.19,33.87,33.86-15.19,33.86-33.87,33.86ZM98.96,6.26c-15.27,0-27.71,12.43-27.71,27.7s12.43,27.7,27.71,27.7,27.7-12.43,27.7-27.7-12.42-27.7-27.7-27.7Z"/>
      <path class="cls-35" d="M64.66,91.08c0,17.01-13.79,30.8-30.79,30.8S3.08,108.09,3.08,91.08s13.78-30.78,30.79-30.78,30.79,13.78,30.79,30.78Z"/>
      <path class="cls-7" d="M33.87,124.95C15.2,124.95,0,109.75,0,91.07s15.19-33.86,33.87-33.86,33.87,15.19,33.87,33.86-15.19,33.88-33.87,33.88ZM33.87,63.37c-15.28,0-27.7,12.43-27.7,27.7s12.43,27.72,27.7,27.72,27.71-12.44,27.71-27.72-12.42-27.7-27.71-27.7Z"/>
      <path class="cls-34" d="M307.91,91.18c0,17.01-13.77,30.78-30.78,30.78s-30.78-13.77-30.78-30.78,13.78-30.78,30.78-30.78,30.78,13.78,30.78,30.78Z"/>
      <path class="cls-7" d="M277.13,125.04c-18.67,0-33.86-15.19-33.86-33.86s15.19-33.86,33.86-33.86,33.87,15.19,33.87,33.86-15.19,33.86-33.87,33.86ZM277.13,63.47c-15.28,0-27.7,12.43-27.7,27.7s12.42,27.7,27.7,27.7,27.71-12.43,27.71-27.7-12.43-27.7-27.71-27.7Z"/>
      <path class="cls-20" d="M187.77,89.54c0,17.01-13.78,30.79-30.78,30.79s-30.79-13.78-30.79-30.79,13.78-30.78,30.79-30.78,30.78,13.78,30.78,30.78Z"/>
      <path class="cls-7" d="M156.98,123.41c-18.67,0-33.87-15.19-33.87-33.87s15.19-33.86,33.87-33.86,33.87,15.19,33.87,33.86-15.19,33.87-33.87,33.87ZM156.98,61.84c-15.27,0-27.7,12.43-27.7,27.7s12.43,27.71,27.7,27.71,27.71-12.43,27.71-27.71-12.43-27.7-27.71-27.7h0Z"/>
      <rect class="cls-7" x="72.77" y="87.44" width="52.26" height="6.84" transform="translate(7.87 189.61) rotate(-89.9)"/>
      <rect class="cls-7" x="186" y="87.44" width="52.26" height="6.84" transform="translate(120.9 302.84) rotate(-89.9)"/>
      <g>
        <path class="cls-16" d="M217.4,43.71v3.79h-13.92c.33-1.35.61-2.42.79-3.1.14-.53.22-.82.22-.82l1.72.02h.72l5.82.06h.5l2.16.02,1.97.02h.02Z"/>
        <g>
          <path class="cls-3" d="M211.31,17.24s1.02-3.07,3.98-2.27c0,0,2.05-1.14,3.18.91,1.14,2.05,0,4.2.57,5.97.57,1.76,2.27,3.98,2.33,6.36.06,2.39.06,3.95.28,5.82s1.88,2.87,2.39,5.43-1.82,3.92-1.82,3.92l-10.63-3.35-.68-17.66.4-5.13h0Z"/>
          <path class="cls-15" d="M212.34,17.95s.21-.49.94-.4c.85.1,1.68,1.39,1.73,2.19.04.81-.34.87-.34.87l-2.32-2.66h0Z"/>
          <path class="cls-6" d="M213.35,32.07s1.65-1.31,1.99-3.24.68-3.52.06-6.19-2.67-5.34-5-5.57-7.5,1.14-8.35,3.58-.4,7.22,1.82,9.03c2.22,1.82,9.49,2.39,9.49,2.39h-.01Z"/>
        </g>
        <g>
          <path class="cls-11" d="M212.27,44.88s-4.05-.06-5.29-.44c0,0-.29-5.5-.08-6.19.14-.44.42-1.05.6-2.05.1-.56.17-1.24.17-2.08,0-2.34,5.67-3.75,5.67-3.75,0,0,.06,1.03.24,2.29.18,1.28.48,2.81.95,3.76.94,1.87-2.26,8.46-2.26,8.46h0Z"/>
          <path class="cls-22" d="M213.58,32.66c-.65,1.9-2.1,3.85-3.52,4.4-1.19.46-2.07-.27-2.56-.86.1-.56.17-1.24.17-2.08,0-2.34,5.67-3.75,5.67-3.75,0,0,.06,1.03.24,2.29Z"/>
        </g>
        <g>
          <path class="cls-13" d="M211.14,47.51c.05-.12.1-.23.15-.35.39-.87.72-1.65,1.01-2.33h0c.17-.42.33-.8.47-1.16.17-.42.31-.8.43-1.14.32-.87.5-1.46.6-1.81.07-.26.1-.38.1-.38l.28-.25,2.36-2.05h.03c.39.11,5.07,1.42,7.19,3.64.29.3.53.62.71.95.47.89,1.02,2.69,1.57,4.86h-14.88l-.02.02Z"/>
          <path class="cls-1" d="M213.93,34.57s1.53.49,1.83,1.17.85,1.96.85,2.9-1.02,5.58-1.75,5.97-1.92-1.34-1.92-1.34c0,0,1.54-4.49,1.41-6.58,0,0-.3-1.04-.43-2.12h0Z"/>
        </g>
        <g>
          <path class="cls-13" d="M193.02,47.51c1.31-2.07,2.52-3.76,3.31-4.61,2.64-2.81,7.76-3.89,7.76-3.89,0,0,2.5-.26,2.76,3.31h0c0,.16.02.32.02.49,0,.23,0,.5,0,.8.02.99.06,2.35.1,3.9h-13.97.01Z"/>
          <path class="cls-1" d="M207.56,35.71s-.97,0-1.48.45-1.99,2.84-1.99,2.84c0,0-.11,3.81.17,5.34.28,1.53,2.61-1.53,2.61-1.53,0,0-.16-3.4,0-4.52.49-1.21.58-2.13.7-2.59h0Z"/>
        </g>
        <path class="cls-11" d="M213.18,26.05c-.9,0-1.04-1.71-2.27-3.68-1.24-1.97-5.13-.82-6.24-.65-1.12.17-.91,1.37-1.35,2.67s-.68,1.89-.59,2.75,1.91,8.48,6.02,8.23c4.57-.28,4.74-5.56,4.74-5.56,0,0,.77-.05,1.15-1.02s.73-3.13.28-3.49c-.87-.68-1.74.74-1.74.74h0Z"/>
      </g>
      <g>
        <g>
          <path class="cls-23" d="M31.17,73.18s-1.9-.15-2.59.69c-.69.84-.61,2.51-.84,3.2-.23.69-1.98,1.98-2.44,3.35-.46,1.37.3,2.74.3,3.66s-1.14,2.06-.99,3.35,1.22,1.75,1.75,2.06.85,2.02,3.09,2.57,5.67.55,7.12.25,1.83-.99,2.21-1.22c.38-.23,1.45.3,2.36-.23.91-.53.91-1.37.99-2.89s.99-2.13,1.29-3.5-.53-1.98-.61-3.12.38-.99.15-3.66c-.23-2.67-1.29-3.58-2.44-3.88-1.14-.3-2.51.08-3.35-.76s-2.36-1.68-3.81-1.29c-1.91.5-2.21,1.45-2.21,1.45l.02-.03Z"/>
          <path class="cls-9" d="M27.51,84.5c-.06,0-.11-.02-.15-.07-.49-.56-.79-1.32-.8-2.06-.02-.75.24-1.51.71-2.1l.05-.06c.05-.06.1-.12.14-.19.14-.24.15-.53.15-.9,0-.11.09-.2.2-.21h0c.11,0,.2.09.2.2,0,.34,0,.76-.21,1.12-.05.09-.11.16-.17.23l-.05.06c-.41.51-.64,1.18-.62,1.83.01.65.27,1.31.7,1.8.07.08.07.21-.02.29-.04.03-.09.05-.13.05h0Z"/>
          <path class="cls-9" d="M26.31,87.89c-.08,0-.15-.04-.18-.11-.26-.53-.09-1.14.06-1.56.02-.06.05-.13.07-.19.14-.39.27-.75.24-1.12-.01-.11.07-.21.18-.22s.21.07.22.18c.04.46-.11.88-.26,1.29-.02.06-.04.12-.07.18-.13.38-.26.86-.07,1.24.05.1,0,.22-.09.27-.03.01-.06.02-.09.02v.02Z"/>
          <path class="cls-9" d="M28.61,89.61c-.07,0-.14-.04-.18-.11-.43-.79-.28-1.82.34-2.46.08-.08.21-.08.29,0,.08.08.08.21,0,.29-.5.51-.61,1.36-.28,1.98.05.1.02.22-.08.28-.03.02-.06.02-.1.02h.01Z"/>
          <path class="cls-9" d="M39.59,77.34h0c-.64-.04-1.25-.25-1.78-.61-.51-.34-.91-.81-1.3-1.26l-.09-.1c-.41-.48-.83-.93-1.35-1.22-.56-.31-1.17-.36-1.63-.14-.1.05-.22,0-.27-.09-.05-.1,0-.22.09-.27.58-.28,1.33-.23,2.01.15.58.32,1.04.82,1.46,1.3l.09.1c.37.43.76.87,1.22,1.19.47.32,1.01.51,1.58.54.11,0,.2.1.19.22,0,.11-.1.19-.2.19h-.01Z"/>
          <path class="cls-9" d="M41.19,78.06c-.1,0-.19-.08-.2-.18-.02-.2-.02-.4-.02-.59v-.42c-.02-.36-.11-.63-.26-.81-.19-.23-.52-.36-.8-.47-.11-.04-.16-.16-.12-.26.04-.11.16-.16.26-.12.31.12.71.27.97.58.21.25.33.6.36,1.05v.44c0,.19,0,.37.02.55,0,.11-.07.21-.18.23h-.03Z"/>
          <path class="cls-9" d="M29.61,78.6c-.1,0-.18-.07-.2-.17-.12-.67-.07-1.33.16-1.9.25-.64.72-1.16,1.3-1.43.1-.05.22,0,.27.1.05.1,0,.22-.1.27-.48.23-.88.67-1.09,1.21-.2.5-.25,1.08-.14,1.68.02.11-.05.22-.16.24-.01,0-.02,0-.04,0Z"/>
          <path class="cls-9" d="M40.94,88.61c-.07,0-.13-.03-.17-.09-.32-.47-.32-1.15.02-1.8.15-.3.35-.57.54-.83.14-.2.28-.38.4-.58.18-.3.45-.89.24-1.41-.04-.1,0-.22.11-.27.1-.04.22,0,.27.11.28.68-.05,1.41-.27,1.78-.13.21-.27.42-.42.61-.19.26-.37.5-.5.77-.2.4-.32.98-.04,1.39.06.09.04.22-.05.28-.04.02-.08.04-.11.04h-.02Z"/>
        </g>
        <path class="cls-23" d="M30.57,105.28c.02-.88.02-1.77,0-2.68l4.75.28c.07.76.14,1.57.22,2.4h-4.98,0Z"/>
        <g>
          <path class="cls-17" d="M38.83,93.51c-.56,4.33-3.49,6.36-3.49,6.36,0,0,0,2.08,0,3-2.45,1.1-4.75-.28-4.75-.28l-.1-1.37-.18-2.4c-2.52-1.54-2.45-5.94-2.45-5.94,0,0,1.26-.28,1.61-.84.18-.28.42-1.4.62-2.45.2-1.05.36-2.02.36-2.02l7.06,1.68-.21,3.49,1.54.77h-.01Z"/>
          <path class="cls-21" d="M37.5,89.25l-.21,3.49s-1.27,1.27-3.07.95c-1.73-.31-3.42-2.87-4.13-4.1.2-1.05.36-2.02.36-2.02l7.06,1.68h-.01Z"/>
        </g>
        <g>
          <path class="cls-16" d="M51.95,105.28h-16.4c-.08-.84-.15-1.64-.22-2.4v-3.01s2.94-2.03,3.49-6.36c.35.11.72.2,1.11.28,3.31.71,8.1.88,9.7,3.6.57.98,1.44,4.14,2.31,7.88h0Z"/>
          <path class="cls-12" d="M37.06,105.48c-.1,0-.19-.08-.2-.18-.3-2.54-.54-4.53-.54-4.53l-.02-.16.15-.05c3.31-1.17,3.29-6.53,3.29-6.76v-.02c0-.11.09-.2.2-.2s.2.09.2.2v.02c0,.59-.04,5.74-3.41,7.09.06.52.27,2.26.52,4.38,0,.11-.07.21-.18.23h-.02v-.02Z"/>
        </g>
        <g>
          <path class="cls-16" d="M30.57,105.28H13.18c1.08-3.88,2.18-7.21,2.87-8.34,1.31-2.13,3.88-2.97,6.63-3.2,2.74-.23,5.17-.86,5.17-.86,0,0-.07,4.4,2.45,5.94l.18,2.4.1,1.37c.01.91,0,1.81,0,2.68h-.01Z"/>
          <path class="cls-12" d="M28.85,105.48h0c-.11,0-.2-.1-.2-.21.09-2.77.12-5.15.13-5.68-2.82-2.01-2.52-6.22-2.51-6.4,0-.11.11-.2.22-.19.11,0,.2.11.19.22,0,.04-.3,4.25,2.42,6.1l.09.06v.11s-.04,2.66-.13,5.79c0,.11-.09.2-.2.2h0Z"/>
        </g>
        <path class="cls-17" d="M32.85,76.3s-1.29.23-1.75,1.07-.61,1.52-.61,2.36-.46,2.06-.84,2.28c0,0-.76-.53-1.22.15-.46.69,0,3.05.38,3.5s.91.38.91.38c0,0,.25,2.34.86,3.17.61.84,2.89,2.51,4.34,2.59,1.45.08,3.27-1.6,3.96-2.36s1.73-4.85,1.8-6.07c.08-1.22.61-1.9.3-2.89-.3-.99-.38-1.9-3.5-2.13-3.12-.23-4.65-2.06-4.65-2.06h.02Z"/>
        <g>
          <path class="cls-14" d="M32.88,85.17c-.09,0-.19,0-.28-.02-.87-.1-1.44-.65-1.54-1.52-.07-.56.09-1.25.43-1.37h0c.69-.25,3.01.12,3.46.48.13.1.14.21.13.27-.08.63-.63,2.16-2.19,2.16h-.01ZM31.63,82.65c-.1.08-.27.61-.13,1.15.1.39.37.87,1.14.95,1.53.17,1.94-1.36,2.01-1.71-.36-.21-2.4-.61-3.02-.39Z"/>
          <path class="cls-14" d="M38.74,86.06c-.16,0-.33-.02-.49-.06-.57-.14-.98-.44-1.23-.88-.47-.86-.11-1.94-.11-1.96.03-.1.12-.16.25-.2.57-.15,2.81.25,3.37.75h0c.25.22.13.8-.11,1.26-.37.7-.98,1.09-1.67,1.09h0ZM37.28,83.35c-.06.21-.23.97.1,1.57.19.34.51.57.97.68.77.19,1.25-.18,1.52-.52.36-.46.43-.97.38-1.07-.46-.39-2.56-.76-2.97-.66Z"/>
          <path class="cls-14" d="M37,83.4c-.91-.52-2.07-.22-2.08-.22l-.11-.39s1.33-.35,2.39.26c0,0-.2.35-.2.35Z"/>
        </g>
      </g>
      <g>
        <g>
          <path class="cls-20" d="M120.17,171.25l-3.83.09-29.31.7-10.04.24s2.2-8.58,3.84-11.37c1.25-2.13,8.33-4.56,11.61-5.59,1.02-.32,1.67-.51,1.67-.51l9.71.28.81.02s7.54,1.57,10.36,4.01c2.83,2.44,5.16,12.11,5.16,12.11l.02.02Z"/>
          <path class="cls-16" d="M101.28,162.07c-5.67.26-8.58-6.14-8.84-6.74,1.02-.32,1.67-.51,1.67-.51l9.71.28c.66,1.53,2.52,6.72-2.55,6.96h.01Z"/>
        </g>
        <g>
          <path class="cls-5" d="M103.58,155.91s.24,4.01-2.53,4.26c-4.57.4-7.09-4.39-7.09-4.39l.15-6.57.03-1.17,1.35-.48,7.17,2.52.91,5.81h0v.02Z"/>
          <path class="cls-32" d="M103.58,155.9c-.57.41-1.43.67-2.72.47-4.13-.65-6.32-6.03-6.74-7.16l.03-1.17,1.35-.48,7.17,2.52.91,5.81h0Z"/>
        </g>
        <g>
          <path class="cls-14" d="M107.28,141.68s.77-1.44,1.11-2.36c.34-.92.31-2.19-.35-3.03-.66-.84-2.27-3.01-5.56-3.86s-6.55-.71-7.26.14-.89,1.47-.89,1.47c0,0-1.87-.25-2.68.8-.8,1.05-.86,3.34-.07,5.8.63,1.95,1.31,3.16,1.31,3.16l6.88.99,7.5-3.11h.01Z"/>
          <path class="cls-5" d="M107.11,148.31c-.62,3.25-2.52,5.85-4.29,6.08-1.77.23-3.79-.54-5.84-2.14-1.63-1.27-2.25-4.11-2.25-4.11,0,0-.95.23-1.6-.23-.65-.45-1.84-4.55-1.16-5.07.68-.53,2.24.51,2.24.51,0,0,.91-.88.97-1.21.34-1.74-.31-4.31.34-4.68.65-.37,1.21-.75,1.95-1.19.74-.43,3.88.86,7.6.97,2.56.07,2.09,2.81,2.19,3.98.08.9.32,2.67.14,4.92-.04.46-.09.94-.17,1.43-.03.24-.08.48-.12.72v.02Z"/>
        </g>
      </g>
      <g>
        <path class="cls-23" d="M259.95,105.85c.83-5.54,2.17-8.41,3.84-9.51,1.01-.67,2.55-.96,3.71-1.08.93-.1,1.62-.1,1.62-.1,0,0,.19,5.73-.38,10.69h-8.79,0Z"/>
        <path class="cls-26" d="M266.02,105.85c.32-5.84.98-9.81,1.18-10.32.03-.07.13-.16.3-.27.69-.47,2.42-1.27,3.88-1.92h0c.44-.19.85-.38,1.21-.53.69-.3,1.17-.5,1.17-.5l3.49.1,2.69.08,2.76.08,6.48,2.28h0c-.02.17-.64,6.26-.52,11h-22.64Z"/>
        <path class="cls-23" d="M279.43,89.67s.97.2,1.3.49c.68.57.64.72,1.97,2.4,0,0-.23,3.56-2.46,5.27,0,0-1.94-1.38-2.4-1.53s-2.74,1.84-2.74,1.84c0,0-2.15-1.8-2.92-1.84-.9-.05-2,1.46-2,1.46,0,0,.54-5.55,3.3-6.75,3.96-1.72,5.93-1.33,5.93-1.33h.02Z"/>
        <path class="cls-18" d="M274.81,72.48s-1.75-1.05-2.67-.38-1.41,2.41-1.62,2.73-2.17,1.52-2.57,2.49.11,1.1-.03,2.01c-.14.91-.84,1.43-.86,2.64s1.88,2.48,2.71,2.83c.83.34,9.27,4.18,9.27,4.18,0,0,2.51,0,2.82-.36s.28-1.83.53-2.05.85.11,1.4-1.04c.56-1.14.14-2.29.32-3.1.18-.82,1.24-.05,1.29-2.13.06-2.08-1.55-2.51-2.67-3.7-1.12-1.2-1.78-3.49-3.76-4.4s-4.17.29-4.17.29h.01Z"/>
        <g>
          <path class="cls-17" d="M280.04,92.34s-1.65,2.6-4.04,2.74c-3.01.17-3.41-1.42-3.41-1.42v-3.59l5.98-4.26.55,2.45.92,4.08Z"/>
          <path class="cls-21" d="M279.12,88.26c-.12.93-.79,4.75-3.97,5.07-1.08.11-1.92-.1-2.56-.44v-2.83l5.98-4.26.55,2.45h0Z"/>
        </g>
        <path class="cls-17" d="M281.05,86.21c-.58.62-1.04.17-1.04.17,0,0-1.09,2.25-1.62,2.89s-3.13,2.69-5.03,2.33-3.29-2.34-3.78-4.54c-.43-1.95-.35-5.11-.14-6.15.02-.08.04-.17.06-.25.04-.16.07-.32.12-.47.25-.92.6-1.79,1.2-2.7.75-1.15,1.93-2.05,3.18-1.16,0,0,1.2-.51,1.87-.35,1.15.26,1.72,1.24,1.73,2.65,0,.6.12,1.05.3,1.39.22.42.54.66.82.81.06.03.13.06.19.09.55.23.83.14.83.14,0,0,.06,1.15.77,1.65,0,0,.64-.67,1.2-.35.79.45-.07,3.23-.66,3.86h0Z"/>
        <path class="cls-23" d="M297.17,105.85h-8.71c-.09-4.99.7-10.83.72-11h0s3.49.35,5.18,1.73c1.49,1.22,2.5,4.06,2.8,9.28h.01Z"/>
        <g>
          <path class="cls-14" d="M277.82,84.91h0c-.43,0-2.22-.12-2.48-.39-.21-.22-.34-.99-.33-1.4,0-.24.05-.39.15-.47h0c.08-.07.28-.26,1.75-.12.4.04,1.72.18,1.89.41.23.32-.29,1.72-.44,1.87-.07.07-.17.11-.53.11h-.01ZM275.63,84.23c.26.14,2.07.33,2.44.26.12-.2.37-1.04.38-1.3-.47-.18-2.69-.41-3.01-.24-.08.2.05,1.1.19,1.28Z"/>
          <path class="cls-14" d="M271.65,84.52h0c-.43,0-2.22-.12-2.48-.39-.21-.22-.34-.99-.33-1.4,0-.24.05-.39.15-.47h0c.08-.07.28-.26,1.75-.12.4.04,1.72.18,1.89.41.23.32-.29,1.72-.44,1.87-.07.07-.17.11-.53.11h-.01ZM269.45,83.83c.26.14,2.07.33,2.44.26.12-.2.37-1.04.38-1.3-.47-.18-2.69-.41-3.01-.24-.08.2.05,1.1.19,1.28Z"/>
          <path class="cls-14" d="M275.18,82.97c-1.06-.72-2.63-.13-2.65-.12l-.15-.38c.07-.03,1.79-.68,3.03.17l-.23.34h0Z"/>
        </g>
      </g>
      <g>
        <path class="cls-33" d="M78.36,43.37c1.12-3.94,2.29-7.68,2.83-8.13,1.19-.99,5-1.91,6.22-2.54.87-.45,2.73-1.31,3.72-1.75h0l.04-.02.39-.18.04-.02.17-.08h.78l.96.02h.39l6.11.08h.03s.02,0,.02,0l.03.02c.18.07.63.24,1.2.45.08.03.16.06.25.09h0c.17.06.35.13.53.2,1.21.46,2.57.97,2.96,1.13.74.3,4.59,1.04,5.99,2.02.68.48,2.14,4.6,3.46,8.69h-36.12Z"/>
        <path class="cls-8" d="M93.55,28.9s-1.55,1.02-1.79,1.76c-.67,2.02-.23,4.72-.23,4.72l1.02-.27-.04,1.18,5.18,2.15,3.82-2.83-.08-1.04,1.02-.27s-.35-2.24-1.52-4.08c-2.07-3.23-7.38-1.31-7.38-1.31h0Z"/>
        <path class="cls-27" d="M93.54,29.5s-.28,2.67.65,4.58c.61,1.25,3.31,3.24,3.31,3.24,0,0,2.2-1.91,2.46-3.31.26-1.4.06-3.25.06-3.25l-6.47-1.26h0Z"/>
        <g>
          <path class="cls-27" d="M92.89,21.69s-.58-.72-.92-.49-.16,3.22.06,3.52.74.23.74.23l.12-3.26Z"/>
          <path class="cls-27" d="M103.91,22.1c-.08.82-.48,2.82-.74,4.01-.1.44-.18.77-.21.88-.13.41-.51,5.97-5.53,5.95-5.01-.02-4.65-7.99-4.65-7.99l-.29-3.35s-.11-2.04.21-2.5c.33-.46.98-.23.98-.23,0,0,1.49-4.68,6.19-3.55,4.7,1.13,4.16,5.66,4.04,6.79h0Z"/>
          <path class="cls-19" d="M103.16,26.11c-.1.44-.18.77-.21.88-.13.41-.51,5.97-5.53,5.95-5.01-.02-4.65-7.99-4.65-7.99l-.29-3.35s-.11-2.04.21-2.5c.33-.46.98-.23.98-.23.54.2.16,1.55.05,2.2s-.12,2.66.02,3.49.7,2.39,1.07,2.45c.37.05,1.89-1.13,4.05-1.03,1.72.08,2.12.95,2.59,1.7.94.06,1.51-1.1,1.7-1.56h.01Z"/>
          <path class="cls-27" d="M103.75,22.96s.65-.5.92-.16-.82,3.04-.99,3.17-.46-.06-.46-.06l.53-2.96h0Z"/>
        </g>
        <g>
          <path class="cls-14" d="M97.7,24.96c-.78,0-2.53-.31-2.79-.45-.25-.14-.28-.83-.25-1.39.05-1.04.24-1.13.3-1.16h0c.22-.1,1.14,0,1.88.08,1.62.2,1.69.3,1.72.36.11.18-.09,1.5-.24,2.03-.08.29-.17.43-.28.49-.06.03-.18.04-.34.04ZM95.07,24.23c.29.14,2.52.49,2.82.4.19-.19.4-1.66.39-2.04-.46-.14-2.81-.43-3.17-.34-.16.27-.2,1.78-.04,1.98Z"/>
          <path class="cls-14" d="M103.23,25.78c-.72,0-2.41-.38-2.67-.52-.25-.14-.28-.83-.25-1.39.05-1.04.24-1.13.3-1.16.18-.08.78-.04,1.8.11,1.53.23,1.6.35,1.63.4.11.18-.09,1.5-.24,2.03-.08.29-.17.43-.28.49-.05.03-.15.04-.28.04h-.01ZM100.72,24.98c.31.16,2.36.56,2.64.47.19-.19.4-1.67.39-2.04-.43-.15-2.66-.49-2.99-.41-.16.27-.2,1.78-.04,1.98Z"/>
          <path class="cls-14" d="M100.49,23.69s-.07,0-.1-.04c-.48-.42-1.63-.37-2.04-.31-.09,0-.17-.05-.18-.14s.05-.17.14-.18c.06,0,1.6-.21,2.29.39.07.06.07.16.02.23-.03.04-.08.06-.12.06h0Z"/>
        </g>
      </g>
      <g class="cls-28">
        <path class="cls-29" d="M180.64,87.12c-.46-5.23-2.48-9.77-5.99-13.53-4.75-5.05-10.52-7.62-17.18-7.62-.98,0-2.01.05-3.03.17-4.91.54-9.33,2.59-13.13,6.11-3.49,3.24-5.88,7.3-6.94,11.75-1.03,4.38-.74,9.03.84,13.46,1.59,4.46,4.62,8.23,9.01,11.2,4.65,3.14,9.95,4.42,15.75,3.78,4.98-.54,9.4-2.55,13.13-5.94,4.96-4.53,7.53-10.36,7.65-17.32,0-.18,0-.37-.03-.58-.03-.46-.05-.97-.1-1.48h.02ZM157.15,108.27h-.11c-4.96,0-9.6-1.92-13.07-5.4-3.64-3.66-5.65-8.57-5.64-13.85,0-4.94,1.95-9.62,5.55-13.19,3.59-3.57,8.32-5.54,13.3-5.55h.04c10.44,0,18.95,8.44,18.98,18.81.03,10.69-8.35,19.1-19.07,19.18h.02Z"/>
        <circle class="cls-31" cx="157.27" cy="89.29" r="2.49"/>
      </g>
      <g>
        <g>
          <path class="cls-29" d="M231.86,169.79h-39.41c.91-4.31,2.6-10.05,3.82-11.27,1.21-1.21,5.89-2.59,10.19-3.3,0,0,0,0,0,0,.24-.04.47-.08.7-.11,1.04-.16,2.05-.27,2.96-.33.9-.06,1.72-.06,2.38,0,.2.02.41.04.62.07h0c.35.04.71.09,1.09.14.52.08,1.07.17,1.64.28.52.1,1.05.21,1.58.33.09.02.19.04.28.06,3.7.86,7.66,2.27,9.54,4.14,2.21,2.21,3.93,7.66,4.6,9.99Z"/>
          <path class="cls-30" d="M218.61,156.05s.54,1.35-.14,2.3c-.68.95-3.38,2.63-6.01,2.43-2.63-.2-5.87-2.36-6.41-3.11-.54-.74-.07-1.89-.07-1.89-.09-1.91,11.86-.7,12.63.27Z"/>
        </g>
        <g>
          <path class="cls-2" d="M217.41,157.1c-.25.51-3.18,2.22-5.4,2.03-2.22-.19-5.78-1.84-5.02-3.56.49-1.11.82-3.31,1-4.75.1-.8.15-1.36.15-1.36l8.84.19s.19,1.84.33,3.7h0c.14,1.75.24,3.5.11,3.74Z"/>
          <path class="cls-10" d="M217.29,153.35h0c-1.13,1.02-2.67,1.99-4.08,1.52-1.86-.62-4.07-2.79-5.23-4.05.1-.8.15-1.36.15-1.36l8.84.19s.19,1.84.33,3.7Z"/>
        </g>
        <g>
          <path class="cls-2" d="M221.96,142.48c-.05.99-1.04,4.14-1.67,4.32-.63.18-.99.09-.99.09,0,0-.32,1.4-1.35,2.79-.93,1.25-4.05,3.28-5.81,2.97-1.75-.32-4.09-2.79-4.59-3.96-.49-1.17-.81-2.97-.81-2.97,0,0-.86-.22-1.13-.81-.27-.59-.67-4.37-.31-5.08.15-.31.49-.26.83-.09.46.22.92.63.92.63.76-.45.76-1.4,1.08-1.67.32-.27,1.31-.77,1.71-1.53.4-.77.81-1.04,1.26-1.22.45-.18,1.58.23,2.97,0,1.4-.22,2.38-.81,2.38-.81,0,0,.23,1.31,1.08,2.16.86.86,1.94.54,2.16,2.29.23,1.76.72,2.47.72,2.47,0,0,1.03-.38,1.4,0,.09.09.14.22.13.41Z"/>
          <path class="cls-25" d="M222.37,139.33c-.04.19-.11,1.72-.53,2.74-.37-.38-1.4,0-1.4,0,0,0-.49-.72-.72-2.47-.22-1.75-1.3-1.44-2.16-2.29-.86-.86-1.08-2.16-1.08-2.16,0,0-.99.59-2.38.81-1.4.23-2.52-.18-2.97,0-.45.18-.86.45-1.26,1.22-.4.76-1.4,1.26-1.71,1.53-.32.27-.32,1.21-1.08,1.67,0,0-.46-.42-.92-.63-.12-.29-.7-1.81-.34-2.74.4-1.04,1.21-1.4,1.44-2.07.22-.67.72-2.12,1.48-2.7.77-.59,2.02-.49,2.66-.99.63-.49,1.67-1.08,3.28-1.13,1.62-.04,2.93.67,3.29,1.08.36.4,1.35-.26,2.43.67.68.59,1.4,1.71,1.35,2.61-.05.9.54,1.58.72,2.57.18.99-.05,2.07-.09,2.29Z"/>
        </g>
      </g>
    </g>
  </g>
</svg>