<?xml version="1.0" encoding="UTF-8"?>
<svg id="Laag_2" data-name="Laag 2" xmlns="http://www.w3.org/2000/svg" viewBox="0 0 75.98 110.35">
  <defs>
    <style>
      .cls-1 {
        fill: #eaefeb;
      }

      .cls-2 {
        fill: #303031;
      }

      .cls-3 {
        fill: #f6d6be;
      }

      .cls-4 {
        fill: #4d4d4d;
      }

      .cls-5 {
        fill: #7cb39e;
      }

      .cls-6 {
        fill: #333233;
      }

      .cls-7 {
        fill: #575756;
      }

      .cls-8 {
        fill: #715346;
      }

      .cls-9 {
        fill: #facd90;
      }

      .cls-10 {
        opacity: .8;
      }

      .cls-11 {
        fill: #cfa293;
      }

      .cls-12 {
        fill: #58b995;
      }

      .cls-13 {
        fill: #131313;
      }

      .cls-14 {
        fill: #1f1f1d;
      }
    </style>
  </defs>
  <g id="Laag_1-2" data-name="Laag 1">
    <g>
      <g class="cls-10">
        <g>
          <g>
            <path class="cls-2" d="M23.61,74.58c-.06,1.37-.17,2.74-.27,4.11-.16,2.04-.31,4.09-.47,6.14-.05.66-.11,1.35-.52,1.87-.04.05-.09.11-.15.13-.22.08-.38-.19-.45-.41-.83-2.58-2.07-5.03-3.67-7.23-.41-.56-.86-1.11-1.45-1.47-.45-.26-.96-.4-1.46-.53-1.01-.26-2.02-.53-3.02-.8-.59-.16-1.21-.32-1.67-.72-.37-.32-.6-.75-.83-1.17-1.16-2.15-2.33-4.33-2.91-6.69-.42-1.73-.52-3.52-.47-5.3,0-.18.01-.36.08-.52.09-.23.28-.4.48-.53.77-.5,1.73-.55,2.65-.58,3.47-.12,7-.16,10.4.69,1.04.26,2.82.53,3.31,1.65.61,1.37.4,3.48.45,4.95.09,2.14.08,4.29-.03,6.43h0Z"/>
            <g>
              <path class="cls-2" d="M3.88,105.78c-1.08.1-1.47-.62-2.37-1.16,1.59-3.28,1.75-6.56,3.35-9.83.51-1.04,1.45-2.57,1.75-3.66.38-1.35.72-2.28.78-3.66.24-5.39.47-10.77.72-16.15.02-.45.04-.92.26-1.33.61-1.18,2.34-1.3,3.74-1.25.31.01.64.03.87.23.26.22.27.58.28.91.05,4.24,2.75.29,2.8,4.53.02,1.5-1.52,11.29-1.86,12.76-.6,2.59-2.32,5.56-3.85,7.82-2.35,3.47-4.13,6.73-6.46,10.82h0Z"/>
              <path class="cls-2" d="M16.56,72.13c1.94-.24,3.88-.48,5.83-.72.1-.24-.39,0-.36.26.93,8.12.46,16.34-.44,24.49-.39,3.51-.45,7.04-.11,10.55-.8.08-2.17.19-2.98.27-1.36-10.93-2.14-21.9-3.5-32.83-.07-.55-.11-1.19.32-1.59.31-.29.79-.36,1.23-.41h0Z"/>
            </g>
            <path class="cls-4" d="M21.27,106.4s.1,0,.14.01c.06.02.1.05.14.09.17.17.29.36.36.56.06.19.08.38.22.55.15.18.43.3.7.39.71.24,1.47.4,2.25.48.17.02.35.03.51.09.44.16.55.55.61.89.02.1.02.22-.1.27-.06.03-.15.03-.23.03-2.24-.03-3.19-.04-5.43-.06-.54,0-1.11-.03-1.64-.13-.07-.01-.15-.03-.2-.06-.06-.04-.08-.1-.1-.15-.29-.77-.31-1.61-.24-2.4.02-.25.07-.45.46-.5.56-.08-.05-.02.52-.03.67-.01,1.35-.02,2.02-.03Z"/>
            <path class="cls-4" d="M3.88,105.61c.09.04.17.09.23.17.05.06.07.15.08.23.07.46-.17.94-.06,1.39.08.3.3.54.52.75.36.36.74.69,1.13,1.01.17.13.34.27.41.47.12.36-.23.77-.6.72-.14-.02-.26-.09-.38-.16-1.64-.96-3.23-1.99-4.79-3.08-.19-.13-.4-.3-.41-.54,0-.12.05-.24.1-.35.19-.39.4-.77.64-1.15.12-.19.24-.39.38-.58.19-.24.19-.26.45-.12.76.4,1.52.82,2.29,1.23h0Z"/>
          </g>
          <path class="cls-11" d="M19.99,32.97c-.02.44-.03.87-.13,1.3-.23,1.01-.89,1.91-1.81,2.39-.91.48-2.04.54-2.99.12-.93-.41-1.62-1.23-2.16-2.09-1.14-1.8-1.81-3.94-1.65-6.06.02-.32.07-.65.27-.89.29-.36.78-.44,1.23-.49,1.48-.18,5.6-1.45,6.82-.48,1.21.96.48,4.87.41,6.21Z"/>
          <path class="cls-6" d="M18.22,37.46c.48-.06.98-.11,1.45,0,1.25.29,1.75,1.49,2.02,2.53,1.12,4.36,1.46,8.82,1.79,13.26.29,3.93.58,9.13.87,13.06.02.26.03.54-.17.74-.19.2-.51.26-.81.31-4.92.79-11.54,1.18-16.55,1.17-.24,0-.5,0-.7-.11-.31-.16-.4-.48-.46-.78-.49-2.42-.47-4.88-.39-7.33.16-5.08,2.14-11.42,2.75-16.48.2-1.64-.15-3.69,1.8-4.56,2.42-1.08,5.71-1.51,8.4-1.83h0Z"/>
          <path class="cls-9" d="M20.51,27.01c-.08-.15-.18-.28-.23-.44-.06-.23.01-.46-.01-.69-.04-.36-.29-.66-.56-.89-.82-.69-1.94-1.01-3-.84-.25.04-.53.1-.76-.01-.08-.04-.15-.1-.23-.15-.27-.15-.6-.09-.9-.02-.86.18-1.72.37-2.57.54-.55.12-1.14.25-1.54.65-.58.56-.61,1.46-.6,2.27,0,.8-.01,1.7-.56,2.28-.09.1-.2.19-.2.33,0,.13.1.23.18.33.18.23.29.52.3.81v.17c0,.08-.01.17-.03.24.04.07.11.08.19.05.08.06.16.11.24.15.67.37,1.04,1.23,1.79,1.38.04-.48-.19-.96-.2-1.44,0-.24.04-.47.09-.7.12-.7.2-1.41.23-2.12h-.02c.41-.86,1.3-.76,2.12-1.08.25-.1.5-.21.76-.25.27-.04.56,0,.83.03.62.08,1.25.17,1.87.25-.29-.1.11-.34.18-.64.62-.02.8.22,1.23.66.27.28.58.61.97.57.3-.03.54-.29.61-.58.07-.29-.02-.6-.16-.86h-.01,0Z"/>
          <g>
            <path class="cls-3" d="M2.34,66.56c-.09-.24-.13-.5-.17-.75-.1-.67-.18-1.35-.24-2.02,0-.09,0-.19.06-.24.04-.03.11-.03.16-.03.35.03.7.1,1.03.22.25.09.51.22.66.44.18.25.19.58.25.88.11.57.38,1.11.79,1.54-.02.14-.2.21-.34.17-.14-.04-.25-.15-.34-.26-.1.28.11.58.18.87.06.25.03.52,0,.77-.01.07-.02.15-.07.2-.12.13-.36.02-.5-.1-.59-.47-1.21-.99-1.47-1.69h0Z"/>
            <path class="cls-6" d="M6.53,41.63c.53-.59,1.09-1.17,1.85-1.48s1.74-.3,2.45.23c.63.47.91,1.26.89,1.98-.03.72-.33,1.37-.67,1.98-1.46,2.62-3.76,4.72-5.07,7.42-1.93,3.96-1.52,8.72-1.76,13.22,0,.12-.02.26-.1.35-.09.1-.25.12-.4.14-.54.06-1.09.11-1.64.17-.7-2.58-1.27-5.19-1.69-7.8-.44-2.78-.7-5.68.37-8.14.41-.95,1.01-1.79,1.6-2.63,1.32-1.86,2.64-3.72,4.16-5.43h.01s0-.01,0-.01Z"/>
          </g>
          <g>
            <path class="cls-3" d="M37.92,26.65c-.06.23-.16.44-.26.63-.26.53-.54,1.05-.84,1.57-.04.06-.09.14-.16.12-.04-.01-.09-.05-.12-.09-.22-.24-.41-.52-.58-.82-.12-.23-.23-.48-.22-.74,0-.29.16-.53.27-.77.22-.47.3-1.02.25-1.58.09-.09.24-.02.31.11.08.12.09.27.1.4.2-.13.22-.47.31-.73.08-.22.23-.38.38-.54.04-.04.09-.09.15-.1.15-.02.24.22.29.39.16.72.31,1.47.14,2.13h-.02,0Z"/>
            <path class="cls-6" d="M20.33,44.35c-.64.07-1.31.1-1.96-.17-.66-.27,1.15-3.97.94-4.8-.18-.74.02-1.47.39-1.95.37-.48.89-.74,1.43-.95,2.27-.88,4.84-.85,7.05-1.88,3.24-1.51,5.33-5.08,7.73-8.06.06-.08.14-.17.24-.18.11-.01.23.08.33.16.39.31.78.63,1.17.94-.81,2.26-1.73,4.44-2.75,6.53-1.08,2.22-4.51,6.57-6.45,7.59-.74.39-2.42,1.45-3.23,1.65-1.8.44-3.02.93-4.87,1.12h0Z"/>
          </g>
          <path class="cls-5" d="M17.72,39.89c.13.38-.13.78-.15,1.18,0,.21.06.41.12.61.46,1.44.93,2.87,1.39,4.3.16.51.33,1.02.58,1.48.26.49.61.92.96,1.35.44.54.89,1.09,1.33,1.64.12.15.25.31.31.5.05.16.04.34.03.51-.05.74-.09,1.47-.14,2.21-.41-.23-.86-.39-1.32-.46-.29-.05-.58-.06-.84-.19-.79-.37-.88-1.43-.99-2.3-.38-2.96-2.34-5.67-2.09-8.64.03-.36.06-.8-.23-1.01-1.18-.84.01-1.35,1.03-1.18h0Z"/>
        </g>
        <g>
          <g>
            <path class="cls-3" d="M75.98,66.11c0-.26-.06-.53-.12-.79-.16-.69-.33-1.38-.54-2.06-.03-.09-.06-.19-.16-.22-.05-.02-.11,0-.17.02-.33.12-.63.28-.91.49-.21.16-.4.35-.47.61-.08.3.03.62.09.93.12.59.06,1.2-.17,1.73.08.13.27.15.39.08s.18-.22.24-.34c.2.25.12.6.16.91.03.26.17.52.3.76.04.07.08.14.14.18.17.1.35-.08.45-.23.39-.62.79-1.29.77-2.06h0Z"/>
            <path class="cls-1" d="M62.44,42.58c-.73-.44-1.5-.87-2.35-.98s-1.8.16-2.28.87c-.43.63-.4,1.48-.1,2.18s.83,1.27,1.4,1.78c2.4,2.21,5.43,3.68,7.72,6,3.37,3.41,4.79,8.21,6.74,12.59.05.12.11.25.23.32.13.08.29.05.44.03.55-.09,1.1-.17,1.65-.26-.3-2.74-.75-5.46-1.35-8.15-.63-2.85-1.48-5.79-3.46-7.94-.76-.82-1.66-1.51-2.56-2.18-1.98-1.5-3.97-2.99-6.08-4.27h0Z"/>
          </g>
          <path class="cls-5" d="M71.28,105.85c.96-.01,1.9-.36,2.65-.95l-5.04-8.89c-.53-.94-1.07-1.88-1.43-2.89-.45-1.25-.62-2.57-.8-3.88l-2.03-15.27c-.06-.43-.12-.87-.34-1.24-.63-1.06-2.16-1.01-3.38-.83-.27.04-.56.09-.74.3-.2.23-.19.58-.17.89.33,4.04-.73.46-.4,4.5.11,1.42,1.61,10.46,2.04,11.82.75,2.4,1.78,4.88,3.3,6.88,2.36,3.07,3.94,5.9,6.33,9.57h0Z"/>
          <path class="cls-5" d="M56.72,74.11c-1.72-.04-3.44-.09-5.16-.13-.11-.22.34-.03.33.22-.11,7.8.59,15.6,2.08,23.25.64,3.3,1.44,6.6,1.45,9.95h2.12c.24-10.51.48-21.01.72-31.52.01-.53-.01-1.14-.42-1.48-.3-.25-.72-.27-1.11-.28h0Z"/>
          <path class="cls-13" d="M55.89,108.97c-.3.25.11.44.3.46.35.03.71.02,1.05-.07.09-.02.18-.05.25-.11.06-.04.1-.11.14-.17.11-.17.38-.44.42-.63.03-.16-.06-.32-.13-.46-.16-.31-.44-.63-.42-1-.76.08-1.48-.18-2.11.03-.05.26-.25.48-.16.68-.06-.13-1.89.32-2.1.37-.35.07-.7.12-1.05.16-.27.03-.8-.1-.96.17-.05.1-.08.21-.08.32,0,.09,0,.17.02.25.05.14.18.24.31.29,1.5.55,3-.32,4.52-.3Z"/>
          <path class="cls-13" d="M72.96,107.25c-.18.37.3.39.49.32.36-.12.71-.3,1.01-.53.08-.06.16-.13.2-.22.04-.07.05-.15.06-.23.04-.22.18-.59.14-.8-.04-.17-.2-.29-.34-.4-.3-.24-.81-.67-.96-1.04-.71.41-1.79.89-2.32,1.37.29.21.32.39.5.56-.12-.11-1.72,1.15-1.92,1.28-.31.22-.63.43-.97.61-.26.15-.84.25-.87.59-.01.12.02.24.06.36.03.09.07.17.13.24.11.12.28.16.44.15,1.72-.11,2.82-1.62,4.34-2.27h0Z"/>
          <path class="cls-3" d="M61.83,34.17c0-.13-.05-.26-.1-.39-.51-1.38-1.02-2.76-1.53-4.14-.37-.99-.81-2.07-1.75-2.53-1.26-.62-2.73.14-4.07.58.04,1.75-.04,3.5-.24,5.24-.11.98-.26,1.97-.14,2.95.12.98.56,1.97,1.39,2.51,1.4.91,3.34.19,4.54-.98.82-.79,1.45-1.78,1.82-2.85.04-.13.09-.26.09-.4h0Z"/>
          <path class="cls-8" d="M59.81,33.39c.08-.37.37-.7.74-.77s.8.17.88.54c.1.45-.25.86-.48,1.25-.74,1.3-.16,2.92.43,4.29.54-.95,1.26-1.8,2.13-2.47.68-.53,1.5-1.04,1.66-1.88.09-.46-.03-.94.05-1.39.12-.63.65-1.14.74-1.78.1-.7-.33-1.35-.79-1.89-1.04-1.26-2.28-2.37-3.65-3.27-.39-.26-.83-.54-.95-.99-.06-.23-.04-.48-.15-.69-.18-.37-.66-.45-1.07-.48-1.26-.11-2.56-.22-3.77.16-.31.1-.61.23-.94.23-.63,0-1.17-.47-1.8-.52-.7-.04-1.34.49-1.62,1.13-.29.64-.29,1.37-.24,2.07.43.19.86.38,1.29.56-.38.58-.4,1.37-.05,1.96.85.11,1.73-.03,2.5-.4.53-.25,1.08-.62,1.66-.52.59.1.98.64,1.41,1.05s1.16.7,1.6.3c.4,1.12.55,2.35.41,3.53h0Z"/>
          <path class="cls-1" d="M61.77,39.04c1.88.24,3.34,1.31,4.07,2.5s.86,2.5.98,3.79c.15,1.65.31,3.3.46,4.96.37,3.95.73,7.9.56,11.86-.08,1.8-.27,3.6-.46,5.4-.39,3.7-.78,7.4-1.17,11.1-5.14-.34-10.28-.67-15.42-1.01-.62-.04-1.27-.09-1.76-.35-.89-.47-.83-1.37-.69-2.12,1.77-9.41,3.19-18.83,4.03-28.33.12-1.31-.23-5.29.58-6.27.95-1.15,7.06-1.76,8.82-1.53h0Z"/>
          <path class="cls-7" d="M50.56,52.07c1.45-2.7,2.07-5.78,2.25-8.84.04-.64.03-1.35-.39-1.83-.06-.07-.14-.15-.13-.25,0-.06.04-.12.08-.17.17-.23.34-.47.51-.7.31.12.62.24.94.37.12.41-.22.8-.33,1.21-.05.2-.05.42-.06.63,0,1.79.29,3.77.04,5.54s-.33,3.49-1.2,5.05c-.47.84-1.04,1.62-1.71,2.32-.09.09-.18.18-.29.24-.34.2-1.51-.05-1.87.13.03-.37-.01-.88.13-1.23.12-.28.37-.4.6-.59.6-.52,1.04-1.19,1.42-1.89h0Z"/>
          <g>
            <path class="cls-3" d="M36.66,27.26c.07.25.19.49.31.73.32.63.67,1.25,1.04,1.86.05.08.11.17.2.18.06,0,.11-.03.16-.06.29-.19.54-.43.76-.7.16-.2.31-.44.31-.7,0-.31-.19-.59-.32-.88-.26-.54-.36-1.15-.27-1.72-.11-.11-.3-.08-.4.03s-.12.25-.14.39c-.26-.19-.26-.55-.38-.84-.1-.25-.29-.46-.47-.66-.05-.05-.11-.11-.18-.14-.19-.05-.32.16-.37.33-.22.7-.44,1.45-.24,2.18,0,0,0,0,0,0Z"/>
            <path class="cls-1" d="M55.99,47.64c.82.25,1.67.46,2.52.36.85-.11,1.36-1.61,1.65-2.42.26-.72.02-1.54-.45-2.14s-1.12-1.02-1.8-1.37c-2.88-1.53-6.18-2.2-8.97-3.87-4.12-2.46-6.69-6.75-9.67-10.5-.08-.1-.17-.22-.3-.25-.15-.04-.3.02-.44.08-.51.22-1.02.44-1.53.66.98,2.57,2.09,5.1,3.34,7.55,1.32,2.6,2.88,5.23,5.34,6.82.94.61,3.06,2.17,4.1,2.59,2.29.95,3.84,1.78,6.22,2.5h0Z"/>
          </g>
        </g>
      </g>
      <g>
        <path class="cls-12" d="M47.81,9.77c-.21-2.42-1.15-4.52-2.77-6.25-2.2-2.34-4.86-3.52-7.94-3.52-.45,0-.93.02-1.4.08-2.27.25-4.31,1.2-6.07,2.82-1.61,1.5-2.72,3.37-3.21,5.43-.47,2.02-.34,4.17.39,6.22.74,2.06,2.14,3.8,4.17,5.18,2.15,1.45,4.6,2.04,7.28,1.75,2.3-.25,4.35-1.18,6.07-2.75,2.29-2.09,3.48-4.79,3.54-8,0-.08,0-.17-.01-.27-.01-.21-.02-.45-.04-.68h0ZM36.95,19.55h-.05c-2.29,0-4.44-.89-6.04-2.5-1.68-1.69-2.61-3.96-2.6-6.4,0-2.28.9-4.45,2.57-6.1,1.66-1.65,3.85-2.56,6.15-2.57h.02c4.82,0,8.76,3.9,8.77,8.7.01,4.94-3.86,8.83-8.81,8.86h0Z"/>
        <circle class="cls-14" cx="37" cy="10.78" r="1.15"/>
      </g>
    </g>
  </g>
</svg>