<?xml version="1.0" encoding="UTF-8"?>
<svg id="Laag_2" data-name="Laag 2" xmlns="http://www.w3.org/2000/svg" viewBox="0 0 492.35 438.83">
  <defs>
    <style>
      .cls-1 {
        fill: #f7d2c7;
      }

      .cls-2 {
        fill: #f9f9f0;
      }

      .cls-3 {
        fill: #432918;
      }

      .cls-4 {
        fill: #e5a695;
      }
    </style>
  </defs>
  <g id="Laag_1-2" data-name="Laag 1">
    <g>
      <path class="cls-2" d="M492.35,438.83H0c11.9-40.26,23.25-72.7,30.52-80.37,6.64-7,17.21-13.26,28.93-18.73,24.5-11.41,54.02-19.33,63.13-23.1,3.33-1.38,9.01-3.82,15.65-6.71,8.47-3.69,18.53-8.1,27.34-11.98,6.38-2.8,12.1-5.33,16.1-7.1h0c3.49-1.55,5.67-2.51,5.83-2.58h0s48.04-.45,48.04-.45l40.88-.38h0l22.45-.21,1.67-.02s3.31,1.2,8.7,3.11c3.05,1.08,6.76,2.38,10.93,3.82,9.67,3.32,21.77,7.36,33.54,10.96,6.07,1.86,12.06,3.61,17.59,5.08,13.92,3.71,37.35,7.48,58.63,14.8,16.68,5.73,32.03,13.64,40.45,25.39,6.64,9.29,14.47,45.19,21.93,88.49Z"/>
      <path class="cls-3" d="M181.33,26.19s-20.75-3.58-26.47,15.02c-5.72,18.6-5.01,45.07-12.16,59.38-7.15,14.31-16.45,34.34-12.88,50.08,3.58,15.74,20.03,26.47,23.61,34.34s1.43,36.49,8.58,45.07c7.15,8.59,43.64,22.89,50.08,22.89s67.96-60.81,67.96-60.81L181.33,26.19Z"/>
      <g>
        <path class="cls-1" d="M302.34,277.31s-18.39,69.39-56.28,70.11c-37.92.72-71.78-70.82-71.78-70.82,0,0,10.73-10.75,14.3-17.9,1.69-3.4,3.57-15.81,5.06-27.94,1.66-13.41,2.83-26.43,2.83-26.43l81.54,4.29s3.73,26.86,7.41,43.21c1.17,5.16,2.32,9.27,3.35,11.16,4.29,7.89,13.59,14.33,13.59,14.33Z"/>
        <path class="cls-4" d="M285.41,251.82c-6.59,8.53-19.64,21.96-35.39,20.48-18.16-1.71-45.71-29.9-56.38-41.55,1.66-13.41,2.83-26.43,2.83-26.43l81.54,4.29s3.73,26.86,7.41,43.21Z"/>
      </g>
      <path class="cls-3" d="M385,435.85h-123.44c-3.64-25.89-7.43-56.67-5.83-62.68,2.86-10.73,19.32-22.18,18.6-32.19-.03-.36-.05-.74-.09-1.14-.48-6.48-1.36-16.98-.99-26.66.22-5.97.93-11.64,2.51-15.84,2.12-5.65,5.5-13.38,8.3-20.12,2.86-6.92,5.1-12.78,4.69-14.22-.5-1.74-3.02-9.84-5.74-23.01,0-.03,0-.05-.02-.08-.98-4.77-1.99-10.19-2.93-16.21-.74-4.65-1.44-9.65-2.06-14.99,0-.03,0-.06,0-.09-.38-3.3-1.29-7.32-2.61-11.87-2.71-9.34-7.14-20.92-12.32-33.14-16.4-38.71-40.24-83.76-40.24-83.76l-25.31-26.55-.18-.19-18.15-19.04s.35-3.39,1.52-7.95c1.73-6.71,5.25-15.97,12.07-20.66,11.45-7.87,53.66-8.58,82.27,7.16,28.61,15.74,33.62,30.05,42.92,40.78,9.3,10.73,18.6,14.31,20.75,25.76,2.15,11.45-3.1,25.99-.95,34.57,2.15,8.58,9.53,24.09,12.4,41.25,2.86,17.17,0,45.79,1.44,55.09,1.38,9.04,24.2,69.26,28.08,92.98.11.67.21,1.32.29,1.94,2.86,22.18-5.72,25.52-3.57,47.7,1.47,15.19,8.33,51.48,8.6,83.19Z"/>
      <path class="cls-1" d="M169.72,123.45s-10.97-10.49-15.74-6.2c-4.77,4.29-5.25,31.45-2.86,37.17,2.38,5.72,9.2,16.69,13.02,16.69s6.68-.95,6.68-.95c0,0,5.58,28.82,17.51,43.43,8.79,10.77,25.76,26.23,48.17,30.05,22.42,3.82,48.66-23.48,53.89-31.79,8.11-12.88,13.52-36.92,13.52-41.22,0,0,8.11,4.29,12.4.48,4.29-3.82,7.94-16.66,8.42-21.43.48-4.77,0-27.66-2.86-29.57-2.86-1.91-15.26,3.82-15.26,3.82,0,0-1.91-20.51-11.45-29.09-9.54-8.59-16.69-12.88-24.32-23.37-7.63-10.49-31.96-2.38-44.83-6.2-12.88-3.82-27.66-14.79-27.66-14.79,0,0-4.77,16.22-7.15,28.62-2.38,12.4-10.02,14.79-11.45,21.46-1.43,6.68-3.34,20.99-10.02,22.89Z"/>
      <path class="cls-2" d="M197.9,250.43s-10.18,3.09-17.76,14.28c-4.81,7.11-14.27,33.62-15.83,36.74-4.01,8.04-5.2,53.21,27.75,97.99,0,0,18.04-31.62,21.83-34.42,3.78-2.8,42.55,14.23,42.55,14.23,0,0-22.13,3.53-16.91,3.27,5.22-.26-25.63-17.51-25.63-17.51,0,0,82.1,8.67,73.87-51.72-2.58-18.94,1.13-56.03-2.35-61.47-6.38-9.98,2.39-7.82,2.39-7.82l-89.9,6.42Z"/>
    </g>
  </g>
</svg>