<?xml version="1.0" encoding="UTF-8"?>
<svg id="Laag_2" data-name="Laag 2" xmlns="http://www.w3.org/2000/svg" viewBox="0 0 1016.59 1247.05">
  <defs>
    <style>
      .cls-1 {
        fill: #005038;
      }

      .cls-2 {
        fill: #57b793;
      }

      .cls-3 {
        fill: #fff;
      }

      .cls-4 {
        fill: #cce7e1;
      }

      .cls-5 {
        fill: #040505;
      }

      .cls-6 {
        opacity: .6;
      }

      .cls-7 {
        fill: #002721;
      }

      .cls-8 {
        fill: #1f1f1d;
      }
    </style>
  </defs>
  <g id="Layer_1" data-name="Layer 1">
    <g>
      <path class="cls-4" d="M656.09,1244.45L44.21,1061.72c-32.76-9.78-51.39-44.28-41.61-77.04L283.46,44.21c9.78-32.76,44.28-51.39,77.04-41.61l611.88,182.73c32.76,9.78,51.39,44.28,41.61,77.04l-280.86,940.46c-9.78,32.76-44.28,51.39-77.04,41.61Z"/>
      <path class="cls-3" d="M631.69,1183.77l-533.42-159.3c-20.67-6.17-32.42-27.93-26.25-48.6L336.3,90.95c6.17-20.67,27.93-32.42,48.6-26.25l533.42,159.3c20.67,6.17,32.42,27.93,26.25,48.6l-264.27,884.92c-6.17,20.67-27.93,32.42-48.6,26.25Z"/>
      <g>
        <path class="cls-7" d="M651.68,883.54c0,9.31-80.3,16.85-179.36,16.86-99.06,0-179.36-7.54-179.36-16.85,0-9.31,80.3-16.85,179.36-16.86,99.06,0,179.36,7.54,179.36,16.85Z"/>
        <g>
          <path class="cls-1" d="M481.42,886.94l-10.54-5.82c42.7-77.37,15.36-268.7,15.08-270.62l11.91-1.74c.07.49,7.17,49.62,8.74,107.9,2.12,78.85-6.36,136.14-25.2,170.28Z"/>
          <g>
            <path class="cls-5" d="M500.37,627.44s-36.04-199.3-193.94-178.1c0,0,6.87,154.78,193.94,178.1Z"/>
            <path class="cls-5" d="M680.53,346.66s-251.31,79.51-192.28,282.33c0,0,199.38-34.15,192.28-282.33Z"/>
          </g>
        </g>
      </g>
      <g class="cls-6">
        <path class="cls-2" d="M515.85,402.02c-1.09-12.56-5.95-23.45-14.38-32.45-11.39-12.13-25.24-18.27-41.22-18.27-2.36,0-4.82.13-7.27.4-11.79,1.3-22.38,6.21-31.49,14.65-8.37,7.77-14.11,17.51-16.64,28.2-2.46,10.5-1.76,21.66,2.02,32.29,3.82,10.7,11.09,19.73,21.63,26.88,11.16,7.54,23.88,10.59,37.8,9.07,11.95-1.3,22.56-6.11,31.49-14.25,11.89-10.86,18.07-24.85,18.37-41.55,0-.43-.03-.9-.07-1.39-.07-1.09-.13-2.32-.23-3.55h0ZM459.49,452.78h-.27c-11.89,0-23.02-4.61-31.36-12.95-8.74-8.77-13.55-20.56-13.52-33.22-.03-11.86,4.68-23.08,13.32-31.65,8.61-8.57,19.97-13.29,31.92-13.32h.1c25.04,0,45.48,20.26,45.54,45.14.07,25.65-20.03,45.84-45.74,46.01h0Z"/>
        <circle class="cls-8" cx="459.79" cy="407.24" r="5.98"/>
      </g>
    </g>
  </g>
</svg>