<?xml version="1.0" encoding="UTF-8"?>
<svg id="Laag_2" data-name="Laag 2" xmlns="http://www.w3.org/2000/svg" viewBox="0 0 141.22 161.03">
  <defs>
    <style>
      .cls-1 {
        fill: #eaefeb;
      }

      .cls-2 {
        fill: #303031;
      }

      .cls-3 {
        fill: #f6d6be;
      }

      .cls-4 {
        fill: #4d4d4d;
      }

      .cls-5 {
        fill: #7cb39e;
      }

      .cls-6 {
        fill: #333233;
      }

      .cls-7 {
        fill: #575756;
      }

      .cls-8 {
        fill: #715346;
      }

      .cls-9 {
        fill: #facd90;
      }

      .cls-10 {
        opacity: .8;
      }

      .cls-11 {
        fill: #cfa293;
      }

      .cls-12 {
        fill: #131313;
      }
    </style>
  </defs>
  <g id="Laag_1-2" data-name="Laag 1">
    <g class="cls-10">
      <g>
        <g>
          <path class="cls-2" d="M43.88,94.54c-.12,2.55-.32,5.09-.51,7.63-.29,3.8-.58,7.6-.87,11.41-.09,1.22-.21,2.51-.97,3.47-.08.1-.17.2-.28.24-.4.15-.7-.36-.83-.76-1.54-4.8-3.85-9.35-6.82-13.43-.76-1.04-1.59-2.07-2.7-2.73-.83-.49-1.78-.74-2.72-.99-1.87-.49-3.75-.99-5.62-1.48-1.1-.29-2.24-.6-3.1-1.34-.68-.59-1.12-1.39-1.54-2.18-2.15-3.99-4.33-8.04-5.4-12.44-.78-3.21-.96-6.55-.87-9.86,0-.33.02-.67.14-.97.17-.42.52-.74.9-.99,1.43-.93,3.22-1.02,4.92-1.08,6.45-.22,13.02-.29,19.33,1.29,1.94.49,5.24.99,6.16,3.06,1.13,2.55.74,6.46.84,9.2.16,3.98.14,7.97-.05,11.95h0Z"/>
          <g>
            <path class="cls-2" d="M7.21,152.53c-2.01.18-2.73-1.15-4.41-2.16,2.96-6.09,3.26-12.19,6.23-18.28.94-1.93,2.7-4.77,3.26-6.81.7-2.51,1.33-4.23,1.45-6.81.44-10.01.88-20.02,1.33-30.02.04-.84.08-1.71.48-2.47,1.14-2.19,4.35-2.41,6.96-2.32.57.02,1.19.06,1.61.42.48.41.51,1.08.52,1.69.09,7.89,5.11.53,5.2,8.42.03,2.78-2.82,20.99-3.46,23.71-1.12,4.81-4.32,10.34-7.16,14.53-4.37,6.45-7.68,12.5-12.01,20.11h0Z"/>
            <path class="cls-2" d="M30.77,89.99c3.61-.45,7.22-.89,10.83-1.34.18-.45-.72.01-.66.49,1.73,15.09.85,30.37-.81,45.51-.72,6.53-.83,13.08-.21,19.6-1.49.14-4.04.35-5.53.5-2.52-20.32-3.97-40.7-6.5-61.02-.13-1.03-.2-2.21.6-2.96.58-.54,1.47-.67,2.28-.77h0Z"/>
          </g>
          <path class="cls-4" d="M39.53,153.68c.09,0,.18,0,.26.02.11.03.19.1.26.17.32.31.54.66.67,1.04.11.35.14.71.4,1.02.28.34.8.55,1.31.73,1.32.45,2.74.75,4.19.9.32.03.65.06.94.16.82.29,1.02,1.03,1.13,1.66.03.18.03.41-.19.51-.12.05-.27.05-.42.05-4.16-.05-5.93-.07-10.09-.12-1.01,0-2.06-.05-3.04-.24-.13-.02-.27-.05-.37-.12-.11-.07-.15-.18-.19-.28-.53-1.44-.58-2.99-.44-4.47.04-.46.13-.84.86-.93,1.04-.14-.1-.03.96-.05,1.25-.02,2.51-.03,3.76-.05Z"/>
          <path class="cls-4" d="M7.2,152.21c.16.08.32.17.43.32.09.12.13.27.15.42.13.86-.32,1.74-.11,2.58.14.55.55,1,.96,1.4.67.66,1.37,1.28,2.1,1.87.31.25.64.51.77.88.23.66-.42,1.44-1.11,1.34-.26-.04-.49-.17-.71-.3-3.04-1.78-6.01-3.69-8.9-5.72-.36-.25-.75-.56-.76-1,0-.23.09-.45.19-.65.36-.73.75-1.44,1.19-2.13.23-.36.45-.73.71-1.07.35-.45.35-.48.84-.23,1.42.75,2.83,1.53,4.26,2.28h-.01Z"/>
        </g>
        <path class="cls-11" d="M37.15,17.21c-.03.81-.06,1.62-.24,2.42-.42,1.87-1.66,3.55-3.36,4.45-1.69.9-3.8,1-5.55.22-1.73-.77-3.01-2.29-4.02-3.89-2.12-3.34-3.36-7.32-3.06-11.27.04-.59.13-1.2.5-1.66.53-.66,1.45-.81,2.29-.92,2.75-.34,10.4-2.7,12.67-.89,2.24,1.79.89,9.05.77,11.54Z"/>
        <path class="cls-6" d="M33.86,25.54c.89-.11,1.82-.2,2.69,0,2.32.53,3.26,2.77,3.76,4.71,2.09,8.1,2.71,16.39,3.32,24.65.54,7.31,1.08,16.97,1.62,24.28.04.48.05,1.01-.31,1.38-.35.37-.95.48-1.51.57-9.15,1.46-21.44,2.19-30.76,2.18-.45,0-.93,0-1.31-.21-.57-.29-.74-.9-.85-1.45-.91-4.49-.87-9.07-.73-13.62.29-9.44,3.97-21.23,5.11-30.63.37-3.05-.28-6.86,3.35-8.47,4.49-2.01,10.62-2.8,15.62-3.4h0Z"/>
        <path class="cls-9" d="M38.12,6.13c-.15-.27-.34-.52-.42-.82-.11-.42.02-.86-.02-1.29-.07-.66-.53-1.22-1.04-1.65-1.52-1.29-3.61-1.87-5.58-1.56-.47.07-.98.19-1.41-.02-.15-.07-.28-.19-.43-.27-.5-.27-1.12-.16-1.68-.04-1.59.34-3.19.68-4.78,1.01-1.03.22-2.12.47-2.87,1.2-1.07,1.04-1.14,2.71-1.12,4.21.01,1.49-.02,3.16-1.05,4.24-.17.18-.37.36-.38.61,0,.24.18.43.33.62.34.43.53.97.56,1.51v.32c0,.15-.02.31-.05.45.08.13.21.15.35.1.14.11.3.2.45.28,1.25.68,1.94,2.28,3.33,2.57.07-.9-.36-1.78-.37-2.68,0-.44.08-.88.16-1.31.23-1.3.38-2.62.43-3.94l-.04-.02c.77-1.57,2.42-1.4,3.94-1.99.47-.18.93-.39,1.42-.47.51-.08,1.04,0,1.55.06,1.16.15,2.32.31,3.48.46-.53-.18.21-.64.34-1.19,1.16-.04,1.48.4,2.29,1.22.51.52,1.08,1.13,1.8,1.06.55-.05,1.01-.53,1.13-1.07.13-.54-.03-1.12-.3-1.6h-.02Z"/>
        <g>
          <path class="cls-3" d="M4.35,79.64c-.17-.45-.25-.93-.32-1.4-.19-1.25-.34-2.5-.45-3.76,0-.16,0-.36.12-.45.08-.06.2-.05.3-.05.65.05,1.3.19,1.91.41.47.17.94.41,1.23.82.33.47.36,1.07.46,1.63.2,1.06.71,2.07,1.46,2.87-.04.26-.37.39-.63.31-.26-.08-.46-.28-.64-.48-.19.52.2,1.08.34,1.62.12.47.06.96,0,1.43-.02.13-.04.27-.13.37-.23.25-.66.04-.93-.18-1.1-.88-2.25-1.84-2.73-3.14h.01Z"/>
          <path class="cls-6" d="M12.13,33.3c.98-1.09,2.03-2.17,3.43-2.75s3.23-.56,4.55.43c1.17.88,1.7,2.35,1.65,3.68-.05,1.33-.61,2.55-1.24,3.68-2.71,4.87-6.98,8.77-9.42,13.79-3.58,7.36-2.82,16.21-3.27,24.57,0,.23-.03.48-.19.65-.17.19-.47.23-.75.26-1.01.11-2.03.21-3.04.32-1.31-4.8-2.36-9.65-3.14-14.5-.82-5.16-1.31-10.56.69-15.13.77-1.76,1.88-3.33,2.98-4.89,2.45-3.46,4.9-6.92,7.73-10.09l.02-.02Z"/>
        </g>
        <g>
          <path class="cls-3" d="M70.48,5.46c-.11.42-.3.81-.48,1.18-.49.99-1.01,1.96-1.57,2.91-.07.12-.17.26-.3.23-.08-.02-.16-.09-.22-.16-.41-.45-.77-.97-1.07-1.53-.23-.42-.42-.9-.41-1.37.01-.54.29-.98.5-1.44.4-.87.56-1.9.46-2.94.16-.16.44-.03.58.2.14.22.16.5.19.75.38-.24.4-.88.58-1.35.15-.41.43-.71.71-1,.08-.08.16-.16.27-.18.28-.03.45.4.53.73.29,1.33.58,2.74.26,3.96h-.03Z"/>
          <path class="cls-6" d="M37.78,38.35c-1.19.13-2.43.19-3.65-.31-1.22-.51,2.13-7.38,1.75-8.92-.34-1.37.03-2.74.73-3.63.69-.89,1.66-1.38,2.65-1.76,4.22-1.63,8.99-1.58,13.1-3.49,6.03-2.81,9.91-9.45,14.36-14.99.12-.15.26-.31.44-.33.21-.02.43.15.62.3.73.58,1.45,1.17,2.18,1.75-1.51,4.2-3.22,8.25-5.11,12.13-2.01,4.12-8.39,12.21-11.99,14.1-1.38.72-4.5,2.69-6.01,3.06-3.34.82-5.61,1.72-9.06,2.08h-.01Z"/>
        </g>
        <path class="cls-5" d="M32.93,30.07c.24.71-.25,1.45-.27,2.19,0,.39.11.77.23,1.14.86,2.67,1.72,5.33,2.58,8,.3.94.61,1.89,1.08,2.75.49.91,1.14,1.71,1.79,2.51.82,1.01,1.65,2.03,2.47,3.04.23.28.47.58.57.93.09.3.07.63.05.94-.09,1.37-.17,2.74-.26,4.1-.76-.43-1.59-.72-2.45-.86-.53-.09-1.08-.12-1.56-.35-1.47-.69-1.63-2.66-1.84-4.27-.71-5.5-4.35-10.54-3.88-16.06.06-.67.12-1.49-.43-1.88-2.2-1.57.02-2.51,1.91-2.19h0Z"/>
      </g>
      <g>
        <g>
          <path class="cls-3" d="M141.22,78.79c0-.49-.12-.98-.23-1.47-.29-1.28-.62-2.56-1-3.83-.05-.17-.12-.36-.29-.41-.1-.03-.21,0-.31.03-.61.22-1.18.52-1.69.91-.39.29-.75.65-.88,1.13-.14.55.06,1.15.17,1.73.22,1.1.11,2.23-.31,3.21.14.25.51.28.73.14s.33-.4.44-.64c.38.47.22,1.11.29,1.69.06.49.31.96.55,1.41.07.13.14.26.26.33.32.19.65-.14.83-.42.72-1.16,1.47-2.4,1.44-3.82h0Z"/>
          <path class="cls-1" d="M116.05,35.07c-1.36-.82-2.79-1.61-4.36-1.82s-3.34.3-4.23,1.61c-.79,1.17-.75,2.76-.19,4.06s1.55,2.36,2.6,3.31c4.47,4.1,10.09,6.84,14.35,11.15,6.26,6.34,8.9,15.26,12.52,23.4.1.23.21.47.43.59.24.14.54.1.82.06,1.02-.16,2.04-.32,3.06-.48-.56-5.09-1.4-10.14-2.5-15.14-1.17-5.3-2.75-10.76-6.43-14.76-1.41-1.53-3.08-2.8-4.75-4.05-3.68-2.78-7.37-5.56-11.31-7.94h-.01Z"/>
        </g>
        <path class="cls-5" d="M132.49,152.66c1.78-.02,3.54-.66,4.92-1.77l-9.37-16.52c-.99-1.74-1.98-3.49-2.65-5.38-.83-2.32-1.16-4.78-1.48-7.22l-3.77-28.38c-.11-.79-.22-1.61-.63-2.3-1.18-1.97-4.02-1.88-6.29-1.55-.5.07-1.04.17-1.37.55-.38.43-.36,1.08-.31,1.65.61,7.5-1.35.86-.74,8.36.21,2.64,2.99,19.44,3.79,21.97,1.4,4.46,3.3,9.07,6.14,12.79,4.38,5.71,7.32,10.97,11.77,17.79h-.01Z"/>
        <path class="cls-5" d="M105.42,93.66c-3.2-.08-6.4-.17-9.6-.25-.2-.41.63-.06.62.4-.21,14.49,1.09,28.99,3.86,43.21,1.19,6.13,2.67,12.26,2.69,18.5h3.94c.45-19.53.89-39.06,1.34-58.59.02-.99-.02-2.12-.78-2.75-.56-.46-1.34-.5-2.07-.52h0Z"/>
        <path class="cls-12" d="M103.88,158.47c-.55.46.2.82.55.86.65.06,1.32.03,1.96-.13.17-.04.34-.09.47-.2.11-.08.18-.2.26-.31.21-.31.7-.81.78-1.17.06-.3-.11-.59-.25-.86-.3-.58-.81-1.17-.78-1.86-1.41.15-2.75-.33-3.92.05-.1.49-.46.89-.29,1.27-.11-.25-3.51.6-3.91.68-.65.13-1.3.23-1.96.29-.51.05-1.49-.19-1.78.32-.1.18-.14.39-.15.6,0,.16,0,.32.04.47.09.26.33.44.58.54,2.79,1.03,5.57-.59,8.4-.55Z"/>
        <path class="cls-12" d="M135.61,155.27c-.34.69.55.73.92.6.67-.22,1.32-.55,1.88-.98.15-.11.29-.24.38-.4.07-.13.09-.28.12-.42.07-.4.34-1.1.26-1.49-.07-.32-.37-.53-.63-.74-.55-.44-1.5-1.25-1.78-1.94-1.32.77-3.33,1.66-4.31,2.55.54.39.59.73.93,1.04-.22-.2-3.2,2.13-3.56,2.38-.58.41-1.18.8-1.8,1.14-.49.27-1.56.46-1.62,1.09-.02.22.04.45.11.66.06.16.13.32.24.45.2.22.52.3.81.28,3.2-.21,5.24-3.02,8.06-4.21h0Z"/>
        <path class="cls-3" d="M114.91,19.44c0-.25-.09-.49-.18-.72-.95-2.56-1.9-5.13-2.85-7.69-.68-1.84-1.51-3.84-3.26-4.7-2.35-1.16-5.07.26-7.57,1.08.07,3.25-.08,6.51-.45,9.74-.21,1.82-.49,3.66-.26,5.49.23,1.82,1.05,3.66,2.59,4.66,2.61,1.69,6.21.35,8.44-1.82,1.52-1.47,2.69-3.3,3.39-5.3.08-.24.16-.49.16-.74h-.01Z"/>
        <path class="cls-8" d="M111.17,17.99c.14-.69.69-1.31,1.38-1.44s1.48.32,1.64,1.01c.19.83-.47,1.59-.89,2.33-1.37,2.41-.3,5.43.79,7.98,1-1.77,2.35-3.35,3.95-4.6,1.26-.98,2.78-1.94,3.09-3.5.17-.85-.06-1.74.1-2.59.23-1.18,1.2-2.12,1.37-3.31.18-1.3-.62-2.51-1.46-3.52-1.94-2.35-4.23-4.41-6.79-6.08-.73-.48-1.54-1-1.77-1.84-.12-.43-.07-.9-.27-1.29-.34-.68-1.23-.83-1.99-.9-2.34-.21-4.76-.41-7,.3-.57.18-1.14.42-1.74.42-1.17,0-2.18-.88-3.34-.96-1.3-.08-2.49.91-3.01,2.1-.53,1.19-.53,2.55-.45,3.85.8.35,1.59.7,2.39,1.04-.71,1.07-.75,2.54-.1,3.65,1.58.2,3.21-.06,4.65-.74.99-.47,2-1.15,3.08-.97,1.1.19,1.82,1.19,2.63,1.95s2.15,1.31,2.97.55c.75,2.09,1.02,4.36.77,6.56h0Z"/>
        <path class="cls-1" d="M114.81,28.48c3.49.45,6.2,2.43,7.56,4.64s1.6,4.65,1.82,7.04c.28,3.07.57,6.14.85,9.21.68,7.34,1.36,14.69,1.04,22.05-.14,3.35-.5,6.7-.85,10.04-.72,6.88-1.45,13.76-2.17,20.64-9.56-.63-19.11-1.25-28.67-1.88-1.15-.08-2.36-.17-3.27-.65-1.65-.87-1.55-2.54-1.29-3.94,3.29-17.49,5.92-35,7.49-52.65.22-2.43-.42-9.83,1.08-11.66,1.76-2.14,13.13-3.27,16.4-2.85h0Z"/>
        <path class="cls-7" d="M93.98,52.7c2.7-5.02,3.85-10.75,4.18-16.44.07-1.19.06-2.5-.72-3.4-.12-.13-.26-.28-.25-.46,0-.12.08-.22.15-.31.32-.43.64-.87.95-1.3.58.23,1.16.45,1.74.68.23.76-.4,1.48-.61,2.25-.1.38-.1.78-.11,1.17,0,3.32.54,7.01.08,10.3s-.62,6.48-2.23,9.38c-.87,1.57-1.94,3.02-3.18,4.31-.16.17-.33.34-.53.45-.64.38-2.81-.1-3.47.25.05-.68-.02-1.64.25-2.28.22-.52.69-.74,1.11-1.1,1.12-.96,1.94-2.22,2.64-3.51h0Z"/>
        <g>
          <path class="cls-3" d="M68.13,6.58c.13.47.36.92.58,1.36.6,1.17,1.25,2.32,1.93,3.45.09.15.21.32.38.33.11,0,.2-.05.29-.11.54-.36,1.01-.8,1.41-1.3.3-.38.57-.82.57-1.31,0-.57-.35-1.1-.6-1.63-.48-1.01-.66-2.13-.5-3.19-.2-.2-.56-.15-.74.05s-.22.47-.26.73c-.49-.36-.49-1.03-.7-1.57-.18-.46-.54-.85-.88-1.23-.1-.1-.2-.21-.34-.26-.36-.1-.59.29-.69.62-.41,1.3-.82,2.69-.44,4.06h-.01Z"/>
          <path class="cls-1" d="M104.07,44.47c1.52.46,3.1.86,4.68.67,1.58-.2,2.53-3,3.06-4.49.48-1.33.03-2.86-.83-3.98s-2.09-1.89-3.34-2.55c-5.36-2.85-11.48-4.09-16.68-7.2-7.65-4.57-12.44-12.55-17.98-19.52-.15-.19-.32-.4-.56-.47-.27-.08-.55.03-.81.15-.95.41-1.89.82-2.84,1.23,1.82,4.78,3.89,9.47,6.21,14.03,2.46,4.84,5.36,9.73,9.92,12.68,1.75,1.13,5.69,4.03,7.62,4.82,4.26,1.77,7.14,3.31,11.56,4.64h0Z"/>
        </g>
      </g>
    </g>
  </g>
</svg>