<?xml version="1.0" encoding="UTF-8"?>
<svg id="Laag_2" data-name="Laag 2" xmlns="http://www.w3.org/2000/svg" viewBox="0 0 331.06 767.08">
  <defs>
    <style>
      .cls-1 {
        fill: none;
      }

      .cls-2 {
        fill: #7cb39e;
      }

      .cls-3 {
        opacity: .55;
      }

      .cls-4 {
        fill: #492f21;
      }

      .cls-5 {
        fill: #d59b77;
      }

      .cls-6 {
        fill: #dacdc5;
      }
    </style>
  </defs>
  <g id="Laag_1-2" data-name="Laag 1">
    <g class="cls-3">
      <path class="cls-1" d="M94.12,479.07c-6.15-23.36-22.68-69.46-24.03-78.62h0s-12.02,31.76-4.8,49.82c7.79,19.49,11.26,40.28,13.95,61.23,1.9,14.78-.71,29.74,2.93,44.31,7.66-19.21,16.36-38.05,21.33-58.25-6.54-4.42-7.6-11.73-9.38-18.49h0Z"/>
      <path class="cls-5" d="M298.35,357.4c-1.59,25.22-6.4,49.97-11.3,74.65-3.33,16.78-6.68,33.59-10.89,50.2-.94,3.71-1.86,7.48-4.67,9.61,5.11,3.17,7.38,8.48,8.55,15.58,4.97,29.98,15.15,58.78,21.12,88.58,3.14,15.65,3.31,31.57,5.94,47.22-.31-24.27,2.64-48.34,4.43-72.47,3.18-42.84,7.72-85.66-2.9-128.21-1.47-5.88-1.91-12.22-1.64-18.29,1.38-30.33,3.48-60.62,4.71-90.96,1.09-26.81.38-53.61-4.55-80.11-2.59-13.89-7.09-26.36-22.9-30.51-1.41-.37-6.31-1.23-9.53-.58,6.67,17.33,6.88,32.95,12.05,50.26,8.29,27.74,13.4,55.88,11.56,85.02h.02Z"/>
      <path class="cls-4" d="M150.31,139.6c-3.84-11-2.1-20.22,7.71-27.47,5.58-4.13,8.97-10.1,11.75-16.37,3.81-8.58,8.3-16.77,13.52-24.59,18.86-28.27,43.53-22.88,60.75,1.34,2.94,4.14,4.7,9.19,6.62,13.97,3.82,9.53,5.15,19.83,10.38,29.04,3.33,5.87,2.77,13.52.54,19.93-4.89,14-9.85,28.04-18.05,40.62-3.73,5.72-7.38,11.16-14.11,14-6.04,2.54-8.87,8.21-11.18,14.03,17.78,0,35.35,1.76,52.61,6.22,7.66,1.98,12.03-.83,11.9-9.05-.16-10.43,1.9-20.52,4.35-30.56,13.25-54.46-1.32-102.78-33.62-146.55C245.23,12.98,228.58,1.96,213.8.31c-6.78-.76-33.42.07-35.85.64-14.9,3.53-27.55,10.77-37.13,22.95-15.94,20.27-27.41,43-35.42,67.34-4.23,12.84-6.6,26.4-5.68,40.07.84,12.52-.82,24.71-5.58,35.99-6.06,14.35-5.03,20.71,14.43,25.97,11.58,3.13,23.76,1.59,35.7,1.58,1.17-3.35,2.05-6.84,3.56-10.03,7.01-14.76,7.85-29.82,2.48-45.21h0Z"/>
      <path class="cls-2" d="M331.06,767.08c-1.29-18.35-1.47-37.06-6.61-54.73-6.65-22.91-12.43-46-18.23-69.11-2.63-15.65-2.8-31.57-5.94-47.22-5.98-29.81-16.16-58.6-21.12-88.58-1.18-7.1-3.45-12.41-8.55-15.58-1.27.96-2.9,1.62-5.16,1.72-37.26-1.02-74.38,4.94-111.71,2.09-10.55-.81-21.24-.12-31.77-1.66-6.91-1.01-13.4-.36-19.35,3.55-4.97,20.2-13.67,39.03-21.33,58.25-4.48,17.13-12.75,32.98-16.57,50.38-1.58,7.18-1.18,14.79-4.53,21.58-3.67,12.82-5.99,25.87-4.67,39.2,3.02,30.47,5.14,61.1,9.83,91.32"/>
      <path class="cls-6" d="M122.85,494.01c10.53,1.54,21.22.86,31.77,1.66,37.33,2.85,74.45-3.11,111.71-2.09,2.26-.1,3.89-.76,5.16-1.72,2.81-2.13,3.73-5.9,4.67-9.61,4.21-16.61,7.56-33.42,10.89-50.2,4.9-24.68,9.71-49.43,11.3-74.65,1.83-29.14-3.28-57.28-11.56-85.02-5.17-17.31-5.38-32.93-12.05-50.26-.15-.38-.26-.76-.41-1.15-14.83-5.28-26.14-5.94-41.2-4.46,9.3.6,12.53,5.67,13.21,14.83.89,11.85,3.58,23.55,2.84,35.58-.53,8.57-3.45,13.89-13.1,15.88-28.79,5.94-57.22,9.02-85.56-2.12-9.08-3.57-15.13-9.62-18.39-18.56-4.86-13.32-9.39-26.77-14.27-40.09-1.9-5.17-.62-7.69,4.9-8.77.68-.13,1.37-.27,2.05-.4-2.72-.51-5.68-1.01-8.02-1.5-11.05-2.28-20.86.77-30.75,4.65,4.54,1.12,4.14,5.22,5.08,8.48,5.87,20.33,3.55,40.83,1.39,61.37-4.1,38.86-11.49,77.06-22.41,114.57h0c1.35,9.17,17.88,55.26,24.03,78.62,1.78,6.77,2.84,14.07,9.38,18.49,5.95-3.91,12.44-4.56,19.35-3.55"/>
      <path class="cls-5" d="M117.84,222.04c4.89,13.31,9.41,26.76,14.27,40.09,3.26,8.93,9.31,14.99,18.39,18.56,28.34,11.14,56.77,8.05,85.56,2.12,9.65-1.99,12.57-7.31,13.1-15.88.74-12.02-1.95-23.73-2.84-35.58-.68-9.16-3.92-14.23-13.21-14.83-3.73-.59-7.56-.83-11.16-1.86-5.85-1.67-7.61-5.23-3.7-10.55,2.31-5.82,5.13-11.48,11.18-14.03,6.74-2.83,10.39-8.28,14.11-14,8.2-12.58,13.17-26.62,18.05-40.62,2.23-6.4,2.79-14.06-.54-19.93-5.23-9.21-6.56-19.51-10.38-29.04-1.92-4.78-3.68-9.83-6.62-13.97-17.22-24.22-41.9-29.61-60.75-1.34-5.22,7.83-9.71,16.01-13.52,24.59-2.79,6.27-6.17,12.24-11.75,16.37-9.81,7.25-11.54,16.47-7.71,27.47,5.37,15.39,4.54,30.45-2.48,45.21-1.51,3.19-2.39,6.68-3.56,10.03-.73,5.29-4.6,8.35-8.24,11.58-2.58,4.38-6.91,5.58-11.25,6.45-.69.14-1.37.27-2.05.4-5.52,1.08-6.8,3.6-4.9,8.77h0Z"/>
      <path class="cls-5" d="M82.17,555.81c-3.64-14.57-1.03-29.53-2.93-44.31-2.69-20.95-6.16-41.74-13.95-61.23-7.22-18.07,4.8-49.82,4.8-49.82,10.92-37.52,18.31-75.71,22.41-114.57,2.16-20.54,4.48-41.04-1.39-61.37-.94-3.26-.54-7.36-5.08-8.48-2.16.64-4.31,1.37-6.5,1.91-18.22,4.46-33.34,12-36.44,33.33-1.11,7.6-4.11,14.91-6.03,22.42-10.89,42.52-18.11,85.97-32.94,127.51-4.37,12.24-5.04,25.19-3.06,38.27,6.73,44.53,24.62,85.41,40.99,126.8,7.92,20.02,18.88,39.09,19.03,61.51,3.35-6.79,2.95-14.4,4.53-21.58,3.83-17.4,12.1-33.25,16.57-50.38h-.01Z"/>
    </g>
  </g>
</svg>