<?xml version="1.0" encoding="UTF-8"?>
<svg id="Laag_2" data-name="Laag 2" xmlns="http://www.w3.org/2000/svg" viewBox="0 0 1016.59 1247.05">
  <defs>
    <style>
      .cls-1 {
        fill: #005038;
      }

      .cls-2 {
        fill: #fff;
      }

      .cls-3 {
        fill: #cce7e1;
      }

      .cls-4 {
        fill: #040505;
      }

      .cls-5 {
        fill: #002721;
      }
    </style>
  </defs>
  <g id="Layer_1" data-name="Layer 1">
    <g>
      <path class="cls-3" d="M656.09,1244.45L44.21,1061.72c-32.76-9.78-51.39-44.28-41.61-77.04L283.46,44.21c9.78-32.76,44.28-51.39,77.04-41.61l611.88,182.73c32.76,9.78,51.39,44.28,41.61,77.04l-280.86,940.46c-9.78,32.76-44.28,51.39-77.04,41.61Z"/>
      <path class="cls-2" d="M631.69,1183.77l-533.42-159.3c-20.67-6.17-32.42-27.93-26.25-48.6L336.3,90.95c6.17-20.67,27.93-32.42,48.6-26.25l533.42,159.3c20.67,6.17,32.42,27.93,26.25,48.6l-264.27,884.92c-6.17,20.67-27.93,32.42-48.6,26.25Z"/>
      <g>
        <path class="cls-5" d="M651.68,883.54c0,9.31-80.3,16.85-179.36,16.86-99.06,0-179.36-7.54-179.36-16.85,0-9.31,80.3-16.85,179.36-16.86,99.06,0,179.36,7.54,179.36,16.85Z"/>
        <g>
          <path class="cls-1" d="M481.42,886.94l-10.54-5.82c42.7-77.37,15.36-268.7,15.08-270.62l11.91-1.74c.07.49,7.17,49.62,8.74,107.9,2.12,78.85-6.36,136.14-25.2,170.28Z"/>
          <g>
            <path class="cls-4" d="M500.37,627.44s-36.04-199.3-193.94-178.1c0,0,6.87,154.78,193.94,178.1Z"/>
            <path class="cls-4" d="M680.53,346.66s-251.31,79.51-192.28,282.33c0,0,199.38-34.15,192.28-282.33Z"/>
          </g>
        </g>
      </g>
    </g>
  </g>
</svg>