<?xml version="1.0" encoding="UTF-8"?>
<svg id="Laag_2" data-name="Laag 2" xmlns="http://www.w3.org/2000/svg" viewBox="0 0 387.75 553.73">
  <defs>
    <style>
      .cls-1 {
        fill: #f9f9f0;
      }
    </style>
  </defs>
  <g id="Layer_1" data-name="Layer 1">
    <g>
      <path class="cls-1" d="M358.72,536.88c0,9.31-80.3,16.85-179.36,16.86-99.06,0-179.36-7.54-179.36-16.85,0-9.31,80.3-16.85,179.36-16.86,99.06,0,179.36,7.54,179.36,16.85Z"/>
      <g>
        <path class="cls-1" d="M188.46,540.28l-10.54-5.82c42.7-77.37,15.36-268.7,15.08-270.62l11.91-1.74c.07.49,7.17,49.62,8.74,107.9,2.12,78.85-6.36,136.14-25.2,170.28Z"/>
        <g>
          <path class="cls-1" d="M207.41,280.79S171.36,81.48,13.47,102.69c0,0,6.87,154.78,193.94,178.1Z"/>
          <path class="cls-1" d="M387.57,0s-251.31,79.51-192.28,282.33c0,0,199.38-34.15,192.28-282.33Z"/>
        </g>
      </g>
    </g>
  </g>
</svg>