<?xml version="1.0" encoding="UTF-8"?>
<svg id="Laag_2" data-name="Laag 2" xmlns="http://www.w3.org/2000/svg" viewBox="0 0 113.96 111.61">
  <defs>
    <style>
      .cls-1 {
        fill: #58b895;
      }

      .cls-2 {
        fill: #58b995;
      }

      .cls-3 {
        fill: #1f1f1d;
      }
    </style>
  </defs>
  <g id="Laag_1-2" data-name="Laag 1">
    <g id="Layer_1" data-name="Layer 1">
      <g>
        <polygon class="cls-1" points="82.04 28.06 79.8 16.91 96.69 0 98.94 11.15 82.04 28.06"/>
        <polygon class="cls-1" points="85.93 29.43 97.08 31.7 113.96 14.79 102.83 12.54 85.93 29.43"/>
      </g>
      <g>
        <path class="cls-2" d="M80.81,67.68c-.79-9.02-4.27-16.85-10.33-23.32-8.19-8.71-18.14-13.13-29.62-13.13-1.69,0-3.46.09-5.23.28-8.47.93-16.09,4.47-22.63,10.53-6.02,5.58-10.14,12.58-11.96,20.27-1.77,7.54-1.27,15.57,1.45,23.2,2.75,7.69,7.97,14.18,15.54,19.31,8.02,5.42,17.16,7.61,27.16,6.52,8.59-.93,16.21-4.39,22.63-10.24,8.55-7.8,12.99-17.85,13.2-29.86,0-.31-.02-.64-.05-1-.05-.79-.09-1.67-.17-2.55h.01ZM40.31,104.16h-.19c-8.55,0-16.54-3.31-22.54-9.31-6.28-6.3-9.74-14.77-9.72-23.87-.02-8.52,3.36-16.59,9.57-22.75,6.18-6.16,14.35-9.55,22.94-9.57h.07c18,0,32.68,14.56,32.73,32.44.05,18.43-14.39,32.94-32.87,33.06h.01Z"/>
        <circle class="cls-3" cx="40.51" cy="71.26" r="5.12"/>
      </g>
      <path d="M45.46,70.03c-.86.88-2.28.88-3.16,0h0c-.89-.88-.89-2.29,0-3.17L100.15,9.01c.88-.87,2.31-.87,3.18,0h0c.88.87.88,2.3,0,3.17l-57.86,57.84h-.01Z"/>
    </g>
  </g>
</svg>